<svg xmlns="http://www.w3.org/2000/svg" width="80" height="80" fill="none"><path fill="#E1EAF8" d="M67.802 45.243H55.31a3.467 3.467 0 0 0-3.467 3.467v4.92a3.467 3.467 0 0 0 3.467 3.467H67.8l4.669-1.999V43.244zm-11.937 7.32a1.392 1.392 0 1 1-.001-2.785 1.392 1.392 0 0 1 0 2.785m12.484 1.366a.547.547 0 0 1-1.094 0v-5.518a.547.547 0 1 1 1.094 0z"/><path fill="#0166FF" d="m20.79 25.84 28.033-12.62-6.183-8.279a1.4 1.4 0 0 0-1.959-.284L12.316 25.84z"/><path stroke="#9A9A9A" stroke-linecap="round" stroke-linejoin="round" stroke-width="1.4" d="m35.5 6-5.357-3.826a2 2 0 0 0-2.8.48L11 26M62.5 26l-6.183-13.69a2 2 0 0 0-2.632-1.006L20.5 26"/><path stroke="#9A9A9A" stroke-linecap="round" stroke-linejoin="round" stroke-width="1.4" d="M14.5 21H10c-.833 0-2.5.5-2.5 2.5m0 0c0 2 1.667 2.5 2.5 2.5h54c1.333 0 4 .8 4 4v13.5m-60.5-20v32m23 21H64c1.333-.333 4-1.5 4-3.5V59.5"/><path stroke="#9A9A9A" stroke-linecap="round" stroke-linejoin="round" stroke-width="1.4" d="M64 21c2.833-.167 8.5 1 8.5 7v39.499c-.167 1.667-1.3 5-4.5 5"/><path fill="#9A9A9A" d="M31.466 40.202v-2.343a2.02 2.02 0 0 0-2.02-2.019H16.476a2.02 2.02 0 0 0-2.02 2.02v2.342a2.02 2.02 0 0 0 2.02 2.02h12.971a2.02 2.02 0 0 0 2.02-2.02m-15.917 0v-2.343a.927.927 0 0 1 .926-.925h3.345a3.81 3.81 0 0 0-1.846 3.268c0 .337.116.664.328.925h-1.827a.927.927 0 0 1-.926-.925m-1.832-8.266h3.89a.547.547 0 1 0 0-1.094h-3.89a.547.547 0 1 0 0 1.094m12.691 0a.547.547 0 0 0 0-1.094h-3.89a.547.547 0 0 0 0 1.094zm8.802-1.094h-3.89a.547.547 0 1 0 0 1.094h3.89a.547.547 0 1 0 0-1.094m8.802 0h-3.89a.547.547 0 0 0 0 1.094h3.89a.547.547 0 1 0 0-1.094m8.801 0h-3.89a.547.547 0 0 0 0 1.094h3.89a.547.547 0 0 0 0-1.094m8.802 0h-3.89a.547.547 0 1 0 0 1.094h3.89a.547.547 0 0 0 0-1.094M31.32 71.499h3.89a.547.547 0 1 0 0-1.094h-3.89a.547.547 0 1 0 0 1.094m12.692-1.094h-3.89a.547.547 0 0 0 0 1.094h3.89a.547.547 0 1 0 0-1.094m8.801 0h-3.89a.547.547 0 0 0 0 1.094h3.89a.547.547 0 1 0 0-1.094m8.802 0h-3.89a.547.547 0 1 0 0 1.094h3.89a.547.547 0 0 0 0-1.094"/><path fill="#E1EAF8" d="M56.168 17.48a2.224 2.224 0 0 1-1.519 3.071L39.94 24.05a1.67 1.67 0 0 1-2.025-1.294 1.58 1.58 0 0 1 .88-1.746l11.901-5.571a4.09 4.09 0 0 1 5.473 2.042"/><circle cx="16.5" cy="69" r="11" fill="#0166FF"/><path stroke="#fff" stroke-linecap="round" stroke-linejoin="round" stroke-width="1.2" d="m12.5 69 3 3 6-6"/></svg>