<svg width="81" height="80" viewBox="0 0 81 80" fill="none" xmlns="http://www.w3.org/2000/svg">
<path d="M61.3219 47.7595C60.1187 47.7595 59.1437 48.7345 59.1437 49.9376V72.8064C59.1437 73.8345 58.3078 74.672 57.2813 74.672L29.1625 74.6439C27.9609 74.6423 26.9844 75.6173 26.9844 76.8189L57.2797 76.8486C59.5125 76.8486 61.3219 75.0392 61.3219 72.8064V47.7595Z" fill="#E1EAF8"/>
<path d="M61.3242 12.1267C55.1977 12.1267 50.2305 17.0939 50.2305 23.2205C50.2305 29.347 55.1977 34.3142 61.3242 34.3142C67.4508 34.3142 72.418 29.347 72.418 23.2205C72.4195 17.0939 67.4523 12.1267 61.3242 12.1267ZM65.0742 26.872C64.8873 27.3275 64.5993 27.7347 64.232 28.0626C63.8617 28.3923 63.4086 28.6486 62.8727 28.8314C62.657 28.9048 62.4289 28.9626 62.1898 29.0064V30.2064C62.1898 30.3845 62.0445 30.5298 61.8664 30.5298H60.2352C60.057 30.5298 59.9117 30.3845 59.9117 30.2064V29.0095C59.0789 28.8689 58.2852 28.5689 57.5305 28.1095C57.3008 27.9705 57.218 27.6783 57.3445 27.4408L58.0836 26.0501C58.2258 25.7814 58.5758 25.697 58.8211 25.8783C59.1008 26.0845 59.3805 26.2486 59.6555 26.3705C60.0789 26.558 60.4977 26.6517 60.9117 26.6517C61.3852 26.6517 61.7367 26.5439 61.968 26.3267C62.1992 26.1095 62.3148 25.8642 62.3148 25.5876C62.3148 25.4205 62.2852 25.2751 62.2258 25.1517C62.1664 25.0283 62.068 24.9158 61.9305 24.8111C61.793 24.708 61.6133 24.6111 61.3914 24.5236C61.1695 24.4345 60.9008 24.3361 60.5852 24.2283C60.2102 24.1095 59.843 23.9798 59.4836 23.8361C59.1242 23.6939 58.8039 23.5033 58.5227 23.2673C58.2414 23.0314 58.0148 22.733 57.843 22.3736C57.6711 22.0142 57.5836 21.558 57.5836 21.0064C57.5836 20.4548 57.6742 19.9548 57.857 19.5064C58.0398 19.058 58.2961 18.6736 58.6258 18.3533C58.9555 18.033 59.3602 17.7845 59.8383 17.6064L59.9086 17.583V16.2392C59.9086 16.0611 60.0539 15.9158 60.232 15.9158H61.8633C62.0414 15.9158 62.1867 16.0611 62.1867 16.2392V17.3861C62.507 17.4236 62.8352 17.4845 63.1727 17.5705C63.6023 17.6798 64.0211 17.8251 64.4258 18.008C64.4882 18.0359 64.5442 18.0762 64.5905 18.1264C64.6369 18.1767 64.6725 18.2358 64.6953 18.3003C64.7181 18.3647 64.7276 18.4331 64.7231 18.5013C64.7187 18.5695 64.7005 18.6361 64.6695 18.697L64.0195 19.972C63.882 20.2423 63.5445 20.3314 63.2836 20.1751C63.1298 20.0822 62.9689 20.0018 62.8023 19.9345C62.4867 19.8111 62.182 19.7501 61.8852 19.7501C61.5102 19.7501 61.2055 19.8392 60.9695 20.0158C60.7336 20.1939 60.6148 20.4251 60.6148 20.7111C60.6148 20.908 60.6742 21.0705 60.793 21.1986C60.9117 21.3267 61.0664 21.4376 61.2586 21.5314C61.4508 21.6251 61.668 21.7064 61.9086 21.7751C62.1508 21.8439 62.3898 21.9189 62.6258 21.997C63.5711 22.3126 64.2648 22.7345 64.7023 23.2611C65.1414 23.7876 65.3602 24.4751 65.3602 25.3236C65.3633 25.8908 65.2664 26.408 65.0742 26.872Z" fill="#0166FF"/>
<path d="M70.3341 53.4391C70.256 53.4391 70.1779 53.4219 70.1029 53.3875L66.4185 51.6625C66.3535 51.6322 66.295 51.5893 66.2466 51.5363C66.1981 51.4834 66.1605 51.4214 66.136 51.3539C66.1115 51.2865 66.1005 51.2148 66.1036 51.1431C66.1068 51.0714 66.1241 51.001 66.1544 50.936C66.1848 50.8709 66.2277 50.8125 66.2806 50.764C66.3336 50.7155 66.3956 50.678 66.463 50.6535C66.5305 50.6289 66.6021 50.6179 66.6739 50.6211C66.7456 50.6243 66.816 50.6415 66.881 50.6719L70.5654 52.3969C70.6783 52.4494 70.7699 52.5389 70.8251 52.6505C70.8802 52.7622 70.8955 52.8893 70.8686 53.0109C70.8416 53.1325 70.7739 53.2412 70.6767 53.3191C70.5795 53.3969 70.4587 53.4393 70.3341 53.4391ZM66.1498 39.336C65.9513 39.336 65.7607 39.2281 65.6638 39.0406C65.6307 38.9768 65.6105 38.9071 65.6044 38.8355C65.5983 38.7639 65.6063 38.6918 65.6281 38.6233C65.6498 38.5548 65.6849 38.4913 65.7313 38.4363C65.7776 38.3814 65.8343 38.3361 65.8982 38.3031L69.5107 36.4328C69.6396 36.3661 69.7897 36.3533 69.928 36.3973C70.0663 36.4412 70.1815 36.5383 70.2482 36.6672C70.3149 36.7961 70.3277 36.9462 70.2837 37.0845C70.2398 37.2228 70.1427 37.338 70.0138 37.4047L66.4013 39.275C66.3201 39.3172 66.2341 39.336 66.1498 39.336ZM9.66069 53.4391C9.53616 53.4393 9.4153 53.3969 9.31811 53.3191C9.22092 53.2412 9.15324 53.1325 9.12626 53.0109C9.09928 52.8893 9.11463 52.7622 9.16977 52.6505C9.2249 52.5389 9.31651 52.4494 9.42944 52.3969L13.1138 50.6719C13.1789 50.6415 13.2493 50.6243 13.321 50.6211C13.3927 50.6179 13.4643 50.6289 13.5318 50.6535C13.5993 50.678 13.6612 50.7155 13.7142 50.764C13.7671 50.8125 13.81 50.8709 13.8404 50.936C13.8707 51.001 13.888 51.0714 13.8912 51.1431C13.8943 51.2148 13.8833 51.2865 13.8588 51.3539C13.8343 51.4214 13.7967 51.4834 13.7483 51.5363C13.6998 51.5893 13.6414 51.6322 13.5763 51.6625L9.89194 53.3875C9.81694 53.4219 9.73882 53.4391 9.66069 53.4391ZM13.8451 39.336C13.7576 39.3355 13.6715 39.3146 13.5935 39.275L9.981 37.4047C9.71225 37.2656 9.60757 36.936 9.74663 36.6672C9.88569 36.3985 10.2154 36.2938 10.4841 36.4328L14.0966 38.3031C14.3654 38.4422 14.4701 38.7719 14.331 39.0406C14.285 39.1298 14.2152 39.2045 14.1295 39.2566C14.0438 39.3087 13.9454 39.3361 13.8451 39.336Z" fill="#0166FF"/>
<path d="M14.1133 68.6688L18.1664 67.1751V72.7954C18.1664 74.8376 16.657 76.5251 14.693 76.8079L14.1117 76.85C11.8727 76.85 10.0586 75.0344 10.0586 72.7969V68.2563C10.0586 67.4141 10.9664 66.886 11.6992 67.3016L14.1133 68.6688Z" fill="#E1EAF8"/>
<path d="M51.8484 13.7766C51.8484 13.475 51.6031 13.2297 51.3016 13.2297H28.1844C27.8828 13.2297 27.6375 13.475 27.6375 13.7766C27.6375 14.0782 27.8828 14.3235 28.1844 14.3235H51.3016C51.6047 14.3235 51.8484 14.0782 51.8484 13.7766ZM22.9609 21.3735C22.9609 21.675 23.2063 21.9204 23.5078 21.9204H47.4031C47.7047 21.9204 47.95 21.675 47.95 21.3735C47.95 21.0719 47.7047 20.8266 47.4031 20.8266H23.5078C23.2063 20.8266 22.9609 21.0719 22.9609 21.3735ZM23.5078 29.6532H48.4922C48.7938 29.6532 49.0391 29.4079 49.0391 29.1063C49.0391 28.8047 48.7938 28.5594 48.4922 28.5594H23.5078C23.2063 28.5594 22.9609 28.8047 22.9609 29.1063C22.9609 29.4079 23.2063 29.6532 23.5078 29.6532ZM45.8078 37.0235H24.1984C23.8969 37.0235 23.6516 37.2688 23.6516 37.5704C23.6516 37.8719 23.8969 38.1172 24.1984 38.1172H45.8062C46.1078 38.1172 46.3531 37.8719 46.3531 37.5704C46.3531 37.2688 46.1094 37.0235 45.8078 37.0235Z" fill="#9A9A9A"/>
<path d="M61.3195 10.1329C61.6211 10.1329 61.8664 9.88761 61.8664 9.58604V7.84854C61.8664 7.20167 61.6352 6.57354 61.2148 6.08136L57.9102 2.20636C57.5574 1.78914 57.0555 1.52636 56.5116 1.4741C55.9677 1.42185 55.425 1.58426 54.9992 1.92667L51.5539 4.67511C51.3756 4.81845 51.1538 4.8966 50.925 4.8966C50.6963 4.8966 50.4744 4.81845 50.2961 4.67511L46.6445 1.76104C46.2729 1.46222 45.8104 1.29932 45.3336 1.29932C44.8568 1.29932 44.3942 1.46222 44.0227 1.76104L40.3711 4.67511C40.1928 4.81845 39.9709 4.8966 39.7422 4.8966C39.5134 4.8966 39.2915 4.81845 39.1133 4.67511L35.4633 1.76104C35.0917 1.46222 34.6292 1.29932 34.1523 1.29932C33.6755 1.29932 33.213 1.46222 32.8414 1.76104L29.1898 4.67511C29.0116 4.81845 28.7897 4.8966 28.5609 4.8966C28.3322 4.8966 28.1103 4.81845 27.932 4.67511L24.4867 1.92667C24.0609 1.58426 23.5182 1.42185 22.9743 1.4741C22.4305 1.52636 21.9286 1.78914 21.5758 2.20636L18.2711 6.08136C17.8507 6.57421 17.6197 7.20075 17.6195 7.84854V72.8376C17.6195 74.5657 16.0445 76.3032 14.093 76.3032C12.168 76.3032 10.6055 74.7235 10.6055 72.797V68.2657C10.6055 67.9704 10.8086 67.8329 10.8945 67.7876C10.982 67.7423 11.2102 67.6548 11.4523 67.8235L12.9133 68.8423C13.6305 69.3423 14.5945 69.3423 15.3117 68.8423C15.5602 68.6704 15.6211 68.3282 15.4477 68.0814C15.4067 68.0223 15.3546 67.9719 15.2941 67.9331C15.2337 67.8943 15.1662 67.8678 15.0954 67.8552C15.0247 67.8426 14.9522 67.844 14.8821 67.8595C14.8119 67.875 14.7455 67.9042 14.6867 67.9454C14.518 68.0622 14.3177 68.1247 14.1125 68.1247C13.9073 68.1247 13.707 68.0622 13.5383 67.9454L12.0773 66.9267C11.5773 66.5782 10.9289 66.536 10.3883 66.8189C9.84766 67.1017 9.51172 67.6564 9.51172 68.2657V72.797C9.51172 75.3345 11.5758 77.397 14.1117 77.397H57.2773C59.8086 77.397 61.8664 75.3376 61.8664 72.8079V36.9657C61.8664 36.6642 61.6211 36.4189 61.3195 36.4189C61.018 36.4189 60.7727 36.6642 60.7727 36.9657V72.8048C60.7727 74.7329 59.2039 76.3001 57.2773 76.3001L17.1258 76.3032C18.1008 75.4517 18.7117 74.2001 18.7117 72.836V7.84854C18.7117 7.46104 18.8508 7.08448 19.1023 6.79073L22.407 2.91573C22.5763 2.71556 22.8172 2.58947 23.0781 2.56437C23.3391 2.53926 23.5995 2.61713 23.8039 2.78136L27.2492 5.52979C27.6208 5.82861 28.0833 5.99152 28.5602 5.99152C29.037 5.99152 29.4995 5.82861 29.8711 5.52979L33.5227 2.61573C33.7009 2.47238 33.9228 2.39423 34.1516 2.39423C34.3803 2.39423 34.6022 2.47238 34.7805 2.61573L38.4305 5.52979C39.2023 6.14542 40.2805 6.14698 41.0539 5.52979L44.7039 2.61573C44.8822 2.47238 45.1041 2.39423 45.3328 2.39423C45.5616 2.39423 45.7835 2.47238 45.9617 2.61573L49.6133 5.52979C49.9849 5.82861 50.4474 5.99152 50.9242 5.99152C51.4011 5.99152 51.8636 5.82861 52.2352 5.52979L55.6805 2.78136C55.8847 2.61678 56.1452 2.53869 56.4063 2.56381C56.6674 2.58892 56.9082 2.71524 57.0773 2.91573L60.382 6.79073C60.6336 7.08604 60.7727 7.46104 60.7727 7.84854V9.58761C60.7727 9.88917 61.018 10.1329 61.3195 10.1329Z" fill="#9A9A9A"/>
<path d="M39.2085 57.6652V52.2731C39.2085 52.2264 39.1702 52.1881 39.1235 52.1889C37.4536 52.2181 35.8486 52.4413 34.3986 52.8394C34.3702 52.8469 34.3478 52.8694 34.3394 52.8986C33.938 54.3594 33.7148 55.9786 33.6881 57.6635C33.6873 57.7102 33.7256 57.7485 33.7722 57.7485H39.1252C39.171 57.7485 39.2085 57.711 39.2085 57.6652ZM28.5267 57.1538C28.5142 57.322 28.505 57.4919 28.5001 57.6618C28.4984 57.7085 28.5367 57.7476 28.5833 57.7476H33.0226C33.0676 57.7476 33.1051 57.711 33.1051 57.666C33.1284 56.101 33.3175 54.5868 33.659 53.1959C33.6626 53.1814 33.6622 53.1662 33.658 53.1519C33.6537 53.1375 33.6456 53.1246 33.6346 53.1145C33.6236 53.1043 33.6101 53.0974 33.5955 53.0942C33.5809 53.0911 33.5657 53.092 33.5515 53.0968C32.8477 53.3342 32.1881 53.6148 31.5867 53.9372C29.9293 54.8259 28.874 55.9386 28.5292 57.1338C28.5284 57.1413 28.5267 57.1471 28.5267 57.1538ZM35.4388 50.0867C35.1165 50.6881 34.835 51.3477 34.5985 52.0515C34.5937 52.0657 34.5928 52.0809 34.5959 52.0955C34.599 52.1101 34.606 52.1236 34.6162 52.1346C34.6263 52.1456 34.6392 52.1537 34.6535 52.158C34.6679 52.1622 34.6831 52.1626 34.6976 52.159C36.0768 51.8208 37.5769 51.6317 39.1277 51.6059C39.1727 51.6051 39.2093 51.5684 39.2093 51.5235V47.0842C39.2093 47.0729 39.2071 47.0618 39.2027 47.0515C39.1983 47.0412 39.1919 47.0318 39.1838 47.0241C39.1757 47.0163 39.1661 47.0102 39.1556 47.0062C39.1451 47.0023 39.1339 47.0004 39.1227 47.0009C38.9661 47.0059 38.8095 47.015 38.6546 47.0267C38.648 47.0275 38.6421 47.0284 38.6355 47.03C37.4403 47.374 36.3275 48.4293 35.4388 50.0867ZM31.5876 62.0612C32.1889 62.3843 32.8486 62.665 33.5523 62.9015C33.5665 62.9063 33.5817 62.9072 33.5963 62.9041C33.611 62.901 33.6245 62.894 33.6355 62.8839C33.6465 62.8737 33.6545 62.8608 33.6588 62.8465C33.6631 62.8321 33.6634 62.8169 33.6598 62.8024C33.3241 61.4348 33.1359 59.949 33.1076 58.4114C33.1072 58.3898 33.0984 58.3691 33.083 58.3538C33.0676 58.3386 33.0468 58.33 33.0251 58.3298H28.5875C28.5763 58.3298 28.5652 58.3321 28.5548 58.3365C28.5445 58.3409 28.5352 58.3473 28.5274 58.3554C28.5196 58.3635 28.5136 58.3731 28.5096 58.3835C28.5056 58.394 28.5038 58.4052 28.5042 58.4164C28.5092 58.5597 28.5175 58.703 28.5284 58.8445C28.5292 58.8512 28.53 58.857 28.5317 58.8637C28.874 60.0597 29.9301 61.1725 31.5876 62.0612ZM40.3462 47.0259C40.1913 47.0142 40.0347 47.0059 39.8781 47.0001C39.8307 46.9984 39.7915 47.0367 39.7915 47.0833V51.5226C39.7915 51.5676 39.8282 51.6043 39.8731 51.6051C41.424 51.6317 42.924 51.82 44.3033 52.1581C44.3178 52.1618 44.333 52.1614 44.3473 52.1571C44.3616 52.1528 44.3745 52.1448 44.3847 52.1338C44.3948 52.1228 44.4018 52.1093 44.4049 52.0947C44.408 52.08 44.4072 52.0648 44.4024 52.0507C44.165 51.3469 43.8843 50.6872 43.562 50.0859C42.6725 48.4285 41.5606 47.3732 40.3645 47.0284L40.3462 47.0259ZM47.4133 53.938C46.8119 53.6157 46.1523 53.3342 45.4485 53.0976C45.4343 53.0928 45.4191 53.092 45.4045 53.0951C45.3899 53.0982 45.3764 53.1052 45.3654 53.1153C45.3544 53.1255 45.3463 53.1384 45.342 53.1527C45.3378 53.167 45.3374 53.1822 45.341 53.1967C45.6825 54.5877 45.8708 56.1018 45.8949 57.6668C45.8957 57.7118 45.9324 57.7485 45.9774 57.7485H50.4167C50.4633 57.7485 50.5016 57.7093 50.4999 57.6627C50.4949 57.4919 50.4858 57.3229 50.4733 57.1546C50.4725 57.148 50.4716 57.1421 50.47 57.1355C50.126 55.9394 49.0707 54.8267 47.4133 53.938ZM39.8748 57.7485H45.2278C45.2744 57.7485 45.3119 57.7102 45.3119 57.6635C45.2852 55.9794 45.062 54.3603 44.6606 52.8986C44.6531 52.8702 44.6306 52.8478 44.6014 52.8394C43.1522 52.4413 41.5472 52.2181 39.8765 52.1889C39.8298 52.1881 39.7915 52.2256 39.7915 52.2731V57.6652C39.7915 57.711 39.829 57.7485 39.8748 57.7485ZM39.1252 58.3315H33.7739C33.7273 58.3315 33.6889 58.3698 33.6898 58.4164C33.7223 60.0722 33.9446 61.663 34.3394 63.1006C34.3469 63.1289 34.3694 63.1514 34.3986 63.1597C35.8478 63.5579 37.4528 63.7811 39.1235 63.8102C39.1702 63.8111 39.2085 63.7736 39.2085 63.7261V58.4139C39.2085 58.3681 39.171 58.3315 39.1252 58.3315ZM47.689 62.5751C46.926 62.984 46.0748 63.328 45.1603 63.6045C45.1337 63.6128 45.1137 63.6328 45.1053 63.6595C44.8288 64.574 44.4848 65.4252 44.0759 66.1881C43.5703 67.1301 42.9915 67.8947 42.361 68.4652C42.296 68.5235 42.356 68.6301 42.4401 68.6068C46.1548 67.5799 49.0799 64.6539 50.1077 60.9393C50.131 60.8551 50.0244 60.7952 49.9661 60.8601C49.3955 61.4906 48.6309 62.0695 47.689 62.5751ZM31.3119 53.4241C32.0748 53.0143 32.926 52.6712 33.8405 52.3947C33.8672 52.3863 33.8872 52.3663 33.8955 52.3397C34.172 51.4252 34.516 50.574 34.9249 49.811C35.4305 48.8691 36.0094 48.1045 36.6399 47.5339C36.7048 47.4756 36.6449 47.369 36.5607 47.3923C32.8461 48.4193 29.921 51.3452 28.8932 55.0599C28.8699 55.144 28.9765 55.204 29.0348 55.139C29.6053 54.5085 30.3691 53.9297 31.3119 53.4241ZM38.6538 68.9733C38.8087 68.985 38.9653 68.9933 39.1219 68.9991C39.1693 69.0008 39.2085 68.9625 39.2085 68.9158V64.4765C39.2085 64.4316 39.1718 64.3949 39.1269 64.3941C37.576 64.3674 36.076 64.1792 34.6967 63.841C34.6822 63.8374 34.667 63.8378 34.6527 63.842C34.6384 63.8463 34.6255 63.8544 34.6153 63.8654C34.6052 63.8764 34.5982 63.8899 34.5951 63.9045C34.592 63.9191 34.5928 63.9343 34.5976 63.9485C34.835 64.6523 35.1157 65.3119 35.438 65.9133C36.3267 67.5707 37.4394 68.626 38.6346 68.9708L38.6538 68.9733ZM44.0759 49.811C44.4857 50.574 44.8288 51.4252 45.1053 52.3397C45.1137 52.3663 45.1337 52.3863 45.1603 52.3947C46.0748 52.6712 46.926 53.0152 47.689 53.4241C48.6309 53.9297 49.3955 54.5085 49.9661 55.139C50.0244 55.204 50.131 55.144 50.1077 55.0599C49.0807 51.3452 46.1548 48.4193 42.4401 47.3923C42.356 47.369 42.296 47.4756 42.361 47.5339C42.9915 48.1045 43.5703 48.8691 44.0759 49.811ZM34.9249 66.1881C34.516 65.4252 34.172 64.574 33.8955 63.6595C33.8916 63.6465 33.8845 63.6347 33.8749 63.6251C33.8653 63.6155 33.8535 63.6084 33.8405 63.6045C32.926 63.328 32.0748 62.984 31.3119 62.5751C30.3699 62.0695 29.6053 61.4906 29.0348 60.8601C28.9765 60.7952 28.8699 60.8551 28.8932 60.9393C29.9201 64.6539 32.8461 67.579 36.5607 68.6068C36.6449 68.6301 36.7048 68.5235 36.6399 68.4652C36.0094 67.8947 35.4297 67.1309 34.9249 66.1881ZM43.562 65.9124C43.8843 65.3111 44.1658 64.6514 44.4024 63.9476C44.4072 63.9335 44.408 63.9183 44.4049 63.9037C44.4018 63.889 44.3948 63.8755 44.3847 63.8645C44.3745 63.8535 44.3616 63.8455 44.3473 63.8412C44.333 63.8369 44.3178 63.8366 44.3033 63.8402C42.924 64.1784 41.424 64.3674 39.8731 64.3932C39.8282 64.3941 39.7915 64.4307 39.7915 64.4757V68.915C39.7915 68.9262 39.7938 68.9373 39.7982 68.9477C39.8025 68.958 39.809 68.9673 39.8171 68.9751C39.8252 68.9829 39.8347 68.9889 39.8452 68.9929C39.8557 68.9969 39.8669 68.9987 39.8781 68.9983C40.0347 68.9933 40.1913 68.9841 40.3462 68.9725C40.3529 68.9716 40.3587 68.9708 40.3654 68.9691C41.5606 68.6251 42.6725 67.5699 43.562 65.9124ZM39.7915 58.4148V63.7269C39.7915 63.7736 39.8298 63.8119 39.8765 63.8111C41.5464 63.7819 43.1514 63.5587 44.6014 63.1606C44.6298 63.1531 44.6522 63.1306 44.6606 63.1014C45.0554 61.6639 45.2786 60.0731 45.3102 58.4173C45.3111 58.3706 45.2736 58.3323 45.2261 58.3323H39.8748C39.829 58.3315 39.7915 58.3681 39.7915 58.4148ZM50.4741 58.8454C50.485 58.7038 50.4925 58.5605 50.4983 58.4173C50.4999 58.3698 50.4616 58.3307 50.415 58.3307H45.9774C45.9324 58.3307 45.8957 58.3673 45.8949 58.4123C45.8658 59.949 45.6775 61.4357 45.3427 62.8033C45.3391 62.8178 45.3394 62.833 45.3437 62.8473C45.348 62.8616 45.356 62.8745 45.367 62.8847C45.378 62.8948 45.3915 62.9018 45.4062 62.9049C45.4208 62.908 45.436 62.9072 45.4501 62.9024C46.1539 62.665 46.8136 62.3843 47.4149 62.062C49.0724 61.1725 50.1276 60.0606 50.4725 58.8645C50.4725 58.8579 50.4733 58.852 50.4741 58.8454Z" fill="#E1EAF8"/>
</svg>
