<svg xmlns="http://www.w3.org/2000/svg" width="80" height="80" fill="none"><g clip-path="url(#a)"><path fill="#9A9A9A" d="M53.678 25.686h-.47l.006-10.972a12.67 12.67 0 0 0-3.733-9.023 12.67 12.67 0 0 0-9.02-3.738h-5.19c-2.809 0-5.55.79-7.927 2.281l-1.958 1.23a3 3 0 0 1-1.59.458 5.584 5.584 0 0 0-5.579 5.578v14.186h-.462a3.94 3.94 0 0 0-3.1 1.495 3.94 3.94 0 0 0-.758 3.358l.428 1.85a3.94 3.94 0 0 0 3.856 3.066h.499a22.74 22.74 0 0 0 7.289 14.448l.062.558a8.6 8.6 0 0 1-.517 4.02 1.06 1.06 0 0 1-.6.603l-12.68 4.955a16.1 16.1 0 0 0-7.465 5.94 16.1 16.1 0 0 0-2.816 9.116V77.5a.547.547 0 0 0 1.094 0v-2.405c0-3.045.908-5.984 2.625-8.498a15 15 0 0 1 6.96-5.538l9.285-3.628c1.392 2.51 3.39 4.569 5.808 5.975a15.9 15.9 0 0 0 7.99 2.138c2.827 0 5.59-.74 7.991-2.138 2.417-1.406 4.416-3.467 5.808-5.975l1.55.605a.547.547 0 0 0 .397-1.019l-4.945-1.933a1.06 1.06 0 0 1-.6-.603 8.6 8.6 0 0 1-.518-4.02l.063-.56a22.74 22.74 0 0 0 7.284-14.446h.503a3.94 3.94 0 0 0 3.857-3.066l.428-1.85a3.94 3.94 0 0 0-.758-3.358 3.93 3.93 0 0 0-3.097-1.495M19.311 11.5a4.49 4.49 0 0 1 4.484-4.484c.769 0 1.522-.217 2.172-.625l1.958-1.23a13.8 13.8 0 0 1 7.345-2.114h5.19c3.117 0 6.046 1.214 8.248 3.417a11.59 11.59 0 0 1 3.412 8.25l-.008 11.506-.045.985-1.712-.982a1.07 1.07 0 0 1-.538-.926V19.49a4.387 4.387 0 0 0-4.383-4.383H25.995a4.387 4.387 0 0 0-4.382 4.383v5.806c0 .381-.207.737-.538.926l-1.719.985-.045-.99zm-1.128 22.86a2.854 2.854 0 0 1-2.792-2.218l-.428-1.85a2.85 2.85 0 0 1 .548-2.43 2.85 2.85 0 0 1 2.244-1.082h.487l.342 7.403.011.176zm4.762 22.668 1.952-.762q.705 1.051 1.573 1.93a2.88 2.88 0 0 0-.525 2.579 14.9 14.9 0 0 1-3-3.747m21.95-2.155c.136.354.363.663.652.897a11.85 11.85 0 0 1-9.833 5.177 11.85 11.85 0 0 1-9.833-5.177c.29-.234.516-.543.652-.897a9.7 9.7 0 0 0 .63-3.953 22.6 22.6 0 0 0 3.784 2.432c1.492.76 3.128 1.14 4.765 1.14 1.638 0 3.274-.38 4.766-1.14a22.6 22.6 0 0 0 3.785-2.432 9.8 9.8 0 0 0 .632 3.953m-4.91-2.495a9.43 9.43 0 0 1-8.543-.003 21.64 21.64 0 0 1-11.765-18.242l-.263-5.696 2.205-1.264a2.17 2.17 0 0 0 1.087-1.875v-5.806a3.29 3.29 0 0 1 3.29-3.289h19.442a3.29 3.29 0 0 1 3.289 3.29v5.805c0 .774.417 1.491 1.087 1.875l2.2 1.261-.26 5.696a21.64 21.64 0 0 1-11.77 18.248m16.484-22.086-.428 1.85a2.85 2.85 0 0 1-2.793 2.219h-.417c.003-.061.01-.12.011-.181l.34-7.399h.495c.878 0 1.696.396 2.243 1.083.547.688.747 1.572.549 2.428"/><circle cx="65" cy="67" r="11" fill="#0166FF"/><path fill="#fff" fill-rule="evenodd" d="M64.737 60.386a.67.67 0 0 1 .525 0l4.263 1.827a1.33 1.33 0 0 1 .808 1.226v4.574a4.67 4.67 0 0 1-2.352 4.051l-2.651 1.515a.67.67 0 0 1-.661 0l-2.652-1.515a4.67 4.67 0 0 1-2.351-4.053V63.44a1.33 1.33 0 0 1 .808-1.225zm2.734 5.751a.667.667 0 0 0-.943-.942l-2.195 2.195-.862-.862a.667.667 0 0 0-.943.943l1.333 1.333a.667.667 0 0 0 .943 0z" clip-rule="evenodd"/><path fill="#E1EAF8" d="M42.544 71H10.457C9.653 71 9 71.653 9 72.457v6.324c0 .804.653 1.457 1.457 1.457h32.086c.804 0 1.457-.653 1.457-1.457v-6.324c0-.804-.652-1.457-1.456-1.457m-23.908 4.62-.883.184q-.24.046-.685.067c-.053.002-.074.068-.033.101q.292.24.477.44l.595.647a.137.137 0 0 1-.018.202l-.96.719a.137.137 0 0 1-.202-.044l-.42-.766a9 9 0 0 1-.296-.635.057.057 0 0 0-.105 0 7 7 0 0 1-.296.635l-.428.77a.137.137 0 0 1-.2.043l-.985-.72a.136.136 0 0 1-.017-.207l.64-.644q.255-.255.501-.449c.04-.032.024-.096-.027-.101a10 10 0 0 1-.669-.107l-.878-.142a.137.137 0 0 1-.107-.18l.381-1.117a.14.14 0 0 1 .186-.08l.794.36q.132.06.616.347a.058.058 0 0 0 .085-.061 8 8 0 0 1-.131-.709l-.114-.857a.137.137 0 0 1 .135-.155h1.171c.082 0 .146.072.136.153l-.102.858a5 5 0 0 1-.136.714c-.012.048.039.088.082.066q.16-.081.221-.117.28-.154.429-.22l.791-.376a.136.136 0 0 1 .189.081l.366 1.12a.138.138 0 0 1-.103.18m6.822 0-.883.184q-.241.046-.685.067a.057.057 0 0 0-.034.101q.292.24.477.44l.595.647a.137.137 0 0 1-.018.202l-.96.719a.137.137 0 0 1-.201-.044l-.421-.766a9 9 0 0 1-.296-.635.057.057 0 0 0-.105 0 7 7 0 0 1-.296.635l-.427.77a.137.137 0 0 1-.2.043l-.986-.72a.136.136 0 0 1-.016-.207l.639-.644q.255-.255.501-.449c.04-.032.025-.096-.026-.101a10 10 0 0 1-.67-.107l-.878-.142a.137.137 0 0 1-.107-.18l.381-1.117a.14.14 0 0 1 .186-.08l.794.36q.133.06.616.347a.058.058 0 0 0 .086-.061 8 8 0 0 1-.132-.709l-.113-.857a.137.137 0 0 1 .135-.155h1.17c.082 0 .146.072.137.153l-.103.858a5 5 0 0 1-.135.714c-.013.048.038.088.082.066q.16-.081.22-.117.282-.154.43-.22l.79-.376a.136.136 0 0 1 .19.081l.366 1.12a.14.14 0 0 1-.103.18m6.821 0-.883.184q-.241.046-.685.067c-.053.002-.074.068-.034.101q.293.24.478.44l.595.647a.137.137 0 0 1-.019.202l-.959.719a.137.137 0 0 1-.202-.044l-.42-.766a9 9 0 0 1-.296-.635.057.057 0 0 0-.106 0 7 7 0 0 1-.296.635l-.427.77a.137.137 0 0 1-.2.043l-.986-.72a.136.136 0 0 1-.016-.207l.64-.644q.255-.255.5-.449c.041-.032.025-.096-.026-.101a10 10 0 0 1-.669-.107l-.878-.142a.137.137 0 0 1-.108-.18l.382-1.117a.14.14 0 0 1 .186-.08l.794.36q.131.06.616.347a.058.058 0 0 0 .085-.061 8 8 0 0 1-.132-.709l-.113-.857a.137.137 0 0 1 .135-.155h1.17c.083 0 .146.072.137.153l-.103.858a5 5 0 0 1-.135.714c-.013.048.038.088.082.066q.16-.081.22-.117.282-.154.43-.22l.791-.376a.136.136 0 0 1 .189.081l.366 1.12a.14.14 0 0 1-.103.18m6.821 0-.883.184q-.24.046-.685.067a.057.057 0 0 0-.033.101q.292.24.477.44l.595.647a.137.137 0 0 1-.018.202l-.96.719a.137.137 0 0 1-.202-.044l-.42-.766a9 9 0 0 1-.296-.635.057.057 0 0 0-.105 0 7 7 0 0 1-.296.635l-.428.77a.137.137 0 0 1-.2.043l-.985-.72a.136.136 0 0 1-.017-.207l.64-.644q.255-.255.501-.449c.04-.032.024-.096-.026-.101a10 10 0 0 1-.67-.107l-.878-.142a.137.137 0 0 1-.107-.18l.381-1.117a.14.14 0 0 1 .186-.08l.794.36q.132.06.616.347c.043.025.097-.013.085-.061a8 8 0 0 1-.131-.709l-.114-.857a.137.137 0 0 1 .136-.155h1.17c.082 0 .146.072.137.153l-.103.858a5 5 0 0 1-.136.714c-.012.048.039.088.083.066q.16-.081.22-.117.281-.154.429-.22l.791-.376a.136.136 0 0 1 .189.081l.366 1.12a.14.14 0 0 1-.103.18"/></g><defs><clipPath id="a"><path fill="#fff" d="M0 0h80v80H0z"/></clipPath></defs></svg>