<svg width="81" height="80" viewBox="0 0 81 80" fill="none" xmlns="http://www.w3.org/2000/svg">
<path d="M21.0477 38.0953C21.3492 38.0953 21.5945 38.3406 21.5945 38.6422V70.0953C21.5945 73.8766 24.6711 76.9531 28.4523 76.9531H51.6383C55.4195 76.9531 58.4961 73.8766 58.4961 70.0953V18.3359C58.4961 18.0344 58.7414 17.7891 59.043 17.7891C59.3445 17.7891 59.5898 18.0344 59.5898 18.3359V70.0953C59.5898 74.4797 56.0227 78.0469 51.6383 78.0469H28.4508C24.0664 78.0469 20.4992 74.4797 20.4992 70.0953V38.6422C20.4997 38.497 20.5577 38.358 20.6605 38.2555C20.7633 38.153 20.9025 38.0954 21.0477 38.0953ZM28.4508 1.95312H51.6383C56.0227 1.95312 59.5898 5.52031 59.5898 9.90469V14.6234C59.5898 14.925 59.3445 15.1703 59.043 15.1703C58.7414 15.1703 58.4961 14.925 58.4961 14.6234V9.90469C58.4961 6.12344 55.4195 3.04688 51.6383 3.04688H28.4508C24.6695 3.04688 21.593 6.12344 21.593 9.90469V14.2609C21.593 14.5625 21.3477 14.8078 21.0461 14.8078C20.7445 14.8078 20.4992 14.5625 20.4992 14.2609V9.90469C20.5008 5.52031 24.068 1.95312 28.4508 1.95312Z" fill="#9A9A9A"/>
<path d="M35.7 8.7082C34.575 8.7082 33.6594 7.79258 33.6594 6.66758C33.6594 5.54258 34.575 4.62695 35.7 4.62695H44.3906C45.5156 4.62695 46.4312 5.54258 46.4312 6.66758C46.4312 7.79258 45.5156 8.7082 44.3906 8.7082H35.7ZM34.7531 6.66758C34.7531 7.18945 35.1781 7.61445 35.7 7.61445H37.9078C37.2875 7.17383 36.8469 6.50039 36.7094 5.72227H35.7C35.1781 5.7207 34.7531 6.1457 34.7531 6.66758ZM49.5 73.7723C49.5 74.0738 49.2547 74.3191 48.9531 74.3191H31.1359C30.8344 74.3191 30.5891 74.0738 30.5891 73.7723C30.5891 73.4707 30.8344 73.2254 31.1359 73.2254H48.9531C49.2562 73.2254 49.5 73.4707 49.5 73.7723Z" fill="#9A9A9A"/>
<path d="M40.4336 62.2598C39.6865 62.2598 38.946 62.1309 38.2441 61.8799L37.9463 61.7646C37.1577 61.438 36.4405 60.96 35.8369 60.3564C35.2333 59.7529 34.7554 59.0357 34.4287 58.2471C34.1021 57.4585 33.9336 56.6133 33.9336 55.7598L33.9385 55.5186C33.9831 54.3175 34.3598 53.1504 35.0293 52.1484C35.7435 51.0796 36.7586 50.2468 37.9463 49.7549C39.0598 49.2937 40.278 49.1511 41.4648 49.3418L41.7021 49.3848C42.8842 49.62 43.9756 50.1791 44.8564 50.9971L45.0303 51.1641C45.9391 52.073 46.5578 53.2315 46.8086 54.4922C47.0436 55.6742 46.945 56.8966 46.5264 58.0234L46.4385 58.2471C45.9772 59.3607 45.2164 60.3229 44.2422 61.0273L44.0449 61.1641C43.0427 61.8337 41.8752 62.2105 40.6738 62.2549L40.4336 62.2598ZM39.2764 58.5527C39.7597 58.7529 40.286 58.8234 40.8027 58.7598L41.0234 58.7246C41.6098 58.608 42.1486 58.3202 42.5713 57.8975C42.9413 57.5274 43.2077 57.0683 43.3467 56.5664L43.3984 56.3496C43.5151 55.7632 43.4554 55.1549 43.2266 54.6025C43.0263 54.1192 42.7043 53.6974 42.2939 53.377L42.1133 53.2461C41.6162 52.9139 41.0315 52.7363 40.4336 52.7363C39.7321 52.7363 39.0555 52.9802 38.5176 53.4209L38.2959 53.6221C37.729 54.189 37.4111 54.9581 37.4111 55.7598C37.4112 56.2829 37.5462 56.796 37.8027 57.249L37.9199 57.4395C38.2105 57.8742 38.6085 58.2248 39.0732 58.459L39.2764 58.5527Z" stroke="#9A9A9A"/>
<path d="M48.4796 50.1242C49.6766 51.7997 50.3177 53.8087 50.3125 55.8679C50.3114 61.2532 45.9311 65.6955 40.5481 65.7705C38.3061 65.8023 36.1196 65.0726 34.3461 63.7007C32.5726 62.3288 31.3169 60.3958 30.7843 58.2178C30.2517 56.0398 30.4737 53.7455 31.4139 51.71C32.3542 49.6744 33.9572 48.0181 35.9608 47.0116C36.0223 46.9807 36.074 46.9333 36.11 46.8748C36.1461 46.8162 36.1652 46.7488 36.1652 46.68L36.1652 43.784H36.8461" stroke="#9A9A9A" stroke-width="1.1" stroke-linecap="round" stroke-linejoin="round"/>
<path d="M37.219 42.2598V40.6909C37.2228 40.6789 37.2296 40.668 37.2386 40.6592C37.2476 40.6505 37.2587 40.6441 37.2708 40.6406C37.8479 40.5408 38.3713 40.2404 38.7485 39.7924C39.1258 39.3443 39.3326 38.7774 39.3326 38.1917C39.3326 37.606 39.1258 37.0391 38.7485 36.5911C38.3713 36.143 37.8479 35.8426 37.2708 35.7428C37.2587 35.7394 37.2476 35.733 37.2386 35.7242C37.2296 35.7154 37.2229 35.7045 37.2191 35.6925L37.2191 33.3575C37.2229 33.3455 37.2296 33.3346 37.2386 33.3258C37.2477 33.317 37.2588 33.3106 37.2709 33.3071C37.848 33.2073 38.3714 32.9069 38.7486 32.4589C39.1259 32.0108 39.3327 31.4439 39.3327 30.8582C39.3327 30.2725 39.1259 29.7056 38.7486 29.2576C38.3714 28.8095 37.848 28.5091 37.2709 28.4093C37.2587 28.4059 37.2476 28.3995 37.2385 28.3907C37.2294 28.3819 37.2227 28.371 37.2189 28.359L37.2189 25.2214C37.2189 25.176 37.2301 25.1313 37.2515 25.0913C37.2729 25.0512 37.3039 25.0171 37.3416 24.992L40.2552 23.0468C40.3005 23.0165 40.3538 23.0003 40.4083 23.0003C40.4628 23.0003 40.5161 23.0165 40.5614 23.0468L43.475 24.9919C43.5128 25.017 43.5437 25.0512 43.5651 25.0912C43.5865 25.1312 43.5977 25.1759 43.5977 25.2213L43.5977 43.238C43.5978 43.3824 43.6552 43.5209 43.7574 43.6231C43.8595 43.7253 43.9981 43.7828 44.1425 43.7829H44.6498L44.6498 46.6789C44.6498 46.7477 44.6689 46.8151 44.705 46.8737C44.7411 46.9322 44.7927 46.9796 44.8542 47.0105C45.624 47.3982 46.3401 47.8844 46.9844 48.457" stroke="#9A9A9A" stroke-width="1.1" stroke-linecap="round" stroke-linejoin="round"/>
<path d="M30.0391 37.2637C30.9375 37.2637 31.6689 36.533 31.6699 35.6348L31.6592 35.1309C31.5384 32.6192 30.4687 30.1977 28.6826 28.418L28.6836 28.417C26.755 26.4885 24.1902 25.4268 21.4678 25.4268H10.6396L13.7842 22.2822L13.8936 22.1621C14.1324 21.8701 14.2598 21.507 14.2598 21.1299C14.2597 20.6941 14.0863 20.2836 13.7773 19.9746L13.7754 19.9717C13.4699 19.671 13.0593 19.499 12.625 19.499C12.2448 19.4991 11.8826 19.6311 11.5928 19.8691L11.4727 19.9775L5.47363 25.9727L5.47168 25.9756C4.84332 26.6137 4.84332 27.6441 5.47168 28.2822L5.47363 28.2852L11.2998 34.1074L11.4199 34.2168C11.7114 34.4556 12.077 34.5859 12.4561 34.5859H12.4629C12.8919 34.5859 13.3136 34.4122 13.6182 34.1045H13.6191C13.9276 33.796 14.0937 33.387 14.0938 32.9521C14.0938 32.5094 13.9154 32.1019 13.6123 31.7988L13.6113 31.7998L10.5068 28.6924H21.4883C23.3081 28.6924 25.0898 29.4342 26.374 30.7246L26.375 30.7256L26.6133 30.9766C27.7738 32.258 28.4091 33.8946 28.4092 35.6328C28.4092 36.5317 29.1402 37.2634 30.0391 37.2637Z" stroke="#0166FF"/>
</svg>
