<svg xmlns="http://www.w3.org/2000/svg" width="81" height="80" fill="none"><path fill="#E1EAF8" d="m47.335 64.584.444 1.586.306 1.094a1.92 1.92 0 0 1-1.856 2.419H35.3a2.446 2.446 0 0 1-2.446-2.446v-.593a5.38 5.38 0 0 1 5.379-5.378h4.726a4.54 4.54 0 0 1 4.375 3.318"/><path fill="#9A9A9A" d="M44.847 8.708c1.125 0 2.04-.915 2.04-2.04s-.915-2.041-2.04-2.041h-8.69c-1.126 0-2.041.916-2.041 2.04 0 1.126.915 2.041 2.04 2.041zm.947-2.04a.95.95 0 0 1-.947.946h-2.208a2.95 2.95 0 0 0 1.198-1.892h1.01a.946.946 0 0 1 .947.946m-14.2 66.557a.547.547 0 0 0 0 1.094H49.41a.547.547 0 0 0 0-1.094z"/><path fill="#9A9A9A" d="M59.495 58.095a.547.547 0 0 0-.547.547v11.453a6.866 6.866 0 0 1-6.857 6.858H28.905a6.866 6.866 0 0 1-6.858-6.858v-51.76a.547.547 0 0 0-1.094 0v51.76c0 4.385 3.567 7.952 7.952 7.952h23.187c4.385 0 7.952-3.567 7.952-7.952V58.642a.55.55 0 0 0-.549-.547M52.092 1.953H28.905c-4.385 0-7.952 3.567-7.952 7.952v4.718a.547.547 0 0 0 1.094 0V9.905a6.866 6.866 0 0 1 6.858-6.858h23.187a6.866 6.866 0 0 1 6.858 6.858v8.356a.547.547 0 0 0 1.094 0V9.905c-.002-4.385-3.569-7.952-7.952-7.952"/><path fill="#9A9A9A" d="M44.843 8.708c1.125 0 2.04-.915 2.04-2.04s-.915-2.041-2.04-2.041h-8.69c-1.126 0-2.041.916-2.041 2.04 0 1.126.915 2.041 2.04 2.041zm.947-2.04a.95.95 0 0 1-.947.946h-2.208a2.95 2.95 0 0 0 1.199-1.892h1.009a.946.946 0 0 1 .947.946M31.043 73.772c0 .302.245.547.547.547h17.817a.547.547 0 0 0 0-1.094H31.59a.546.546 0 0 0-.547.547"/><path fill="#0166FF" d="M59 38c0 7.18-5.82 13-13 13s-13-5.82-13-13 5.82-13 13-13 13 5.82 13 13"/><path stroke="#fff" stroke-linecap="round" stroke-linejoin="round" d="M48.332 38.346a2.375 2.375 0 1 1-4.75 0 2.375 2.375 0 0 1 4.75 0"/><path stroke="#fff" stroke-linecap="round" stroke-linejoin="round" d="m52.343 34.974-.34-.594c-.258-.448-.387-.672-.606-.762-.22-.09-.468-.019-.963.123l-.842.237c-.317.074-.65.032-.938-.117l-.233-.134a1.4 1.4 0 0 1-.543-.671l-.23-.69c-.153-.458-.228-.687-.408-.817-.18-.131-.42-.131-.9-.131h-.77c-.478 0-.718 0-.899.13-.18.131-.255.36-.407.818l-.23.69c-.105.276-.296.51-.544.67l-.233.135c-.29.149-.621.19-.938.117l-.842-.237c-.495-.142-.744-.212-.963-.123-.219.09-.348.314-.605.762l-.34.594c-.242.42-.363.631-.34.855.024.224.185.404.509.765l.712.799c.174.22.296.605.296.952s-.123.732-.297.952l-.712.8c-.323.36-.485.54-.508.764s.098.435.34.855l.34.594c.257.448.386.673.605.762.22.09.467.02.963-.123l.842-.237c.317-.074.65-.032.938.117l.233.135c.247.159.438.394.543.67l.23.69c.153.458.228.687.408.818s.42.13.9.13h.77c.478 0 .718 0 .899-.13.18-.131.255-.36.407-.818l.23-.69c.105-.276.296-.51.544-.67l.233-.135c.289-.149.621-.19.938-.117l.842.237c.495.142.744.213.963.123s.348-.314.605-.762l.34-.594c.242-.42.363-.631.34-.855-.024-.224-.185-.404-.509-.765l-.712-.799c-.174-.221-.296-.605-.296-.952 0-.346.123-.731.297-.952l.712-.8c.323-.36.484-.54.508-.764.023-.224-.097-.434-.34-.855"/><path fill="#0166FF" d="m28.376 38 3.901 5.011-6.29.873zm18 18v-.55zm12.727-5.272-.389-.389zm2.904-4.972a.55.55 0 1 1 .986.488zm-32.422-3.002a17.45 17.45 0 0 0 4.451 7.585l-.777.778a18.55 18.55 0 0 1-4.732-8.064zm4.451 7.585a17.45 17.45 0 0 0 12.34 5.111v1.1a18.55 18.55 0 0 1-13.117-5.433zm12.34 5.111a17.45 17.45 0 0 0 12.339-5.111l.777.778a18.55 18.55 0 0 1-13.116 5.433zm12.339-5.111a17.4 17.4 0 0 0 3.292-4.583l.986.488a18.6 18.6 0 0 1-3.5 4.873zM63.625 38l-3.902-5.011 6.29-.873zm-18-18v.55zm-12.728 5.272.389.389zm-2.904 4.972a.55.55 0 1 1-.986-.488zm32.422 3.002a17.45 17.45 0 0 0-4.451-7.585l.777-.778a18.55 18.55 0 0 1 4.732 8.064zm-4.451-7.585a17.45 17.45 0 0 0-12.34-5.111v-1.1a18.55 18.55 0 0 1 13.117 5.433zm-12.34-5.111a17.45 17.45 0 0 0-12.339 5.111l-.777-.778a18.55 18.55 0 0 1 13.116-5.433zm-12.339 5.111a17.4 17.4 0 0 0-3.292 4.583l-.986-.488a18.6 18.6 0 0 1 3.5-4.873z"/></svg>