<svg width="81" height="80" viewBox="0 0 81 80" fill="none" xmlns="http://www.w3.org/2000/svg">
<path d="M35.0594 61.3344V71.8938C35.0594 73.7766 33.5328 75.3031 31.65 75.3031H16.5797C15.3672 75.3031 14.3828 76.2859 14.3828 77.5H31.6484C34.7453 77.5 37.2547 74.9906 37.2547 71.8938V59.1375C36.0438 59.1375 35.0594 60.1219 35.0594 61.3344ZM26.8203 21.7109H17.5953C16.8391 21.7109 16.1672 21.2266 15.9281 20.5094L14.8406 17.25H29.5734L28.4859 20.5094C28.2484 21.2281 27.5766 21.7109 26.8203 21.7109ZM71.6469 38.8641V57.1422C71.6469 59.025 70.1203 60.5516 68.2375 60.5516H53.1672C51.9547 60.5516 50.9703 61.5344 50.9703 62.7484H68.2359C71.3328 62.7484 73.8422 60.2391 73.8422 57.1422V36.6672C72.6297 36.6672 71.6469 37.6516 71.6469 38.8641ZM63.4078 6.96094H54.1828C53.4266 6.96094 52.7547 6.47656 52.5156 5.75938L51.4281 2.5H66.1609L65.0734 5.75938C64.9571 6.10914 64.7336 6.41341 64.4346 6.62907C64.1357 6.84472 63.7764 6.96083 63.4078 6.96094Z" fill="#E1EAF8"/>
<path d="M61.2113 78.0375C60.9395 78.0375 60.7035 77.8359 60.6692 77.5594L60.1613 73.5219C60.1238 73.2219 60.3363 72.9484 60.6363 72.9109C60.9363 72.8734 61.2098 73.0859 61.2473 73.3859L61.7551 77.4234C61.764 77.4947 61.7589 77.5671 61.7398 77.6364C61.7208 77.7057 61.6883 77.7706 61.6442 77.8273C61.6001 77.8841 61.5452 77.9315 61.4827 77.9671C61.4203 78.0026 61.3514 78.0255 61.2801 78.0344C61.2567 78.0359 61.2348 78.0375 61.2113 78.0375ZM74.4145 69.0281C74.3207 69.0281 74.2254 69.0031 74.1379 68.9531L70.627 66.8969C70.366 66.7437 70.2785 66.4094 70.4317 66.1484C70.5848 65.8875 70.9192 65.8 71.1801 65.9531L74.691 68.0094C74.952 68.1625 75.0395 68.4969 74.8863 68.7578C74.8381 68.8401 74.7692 68.9084 74.6864 68.9559C74.6036 69.0033 74.5099 69.0282 74.4145 69.0281ZM20.2957 7.09374C20.0238 7.09374 19.7879 6.89218 19.7535 6.61562L19.2457 2.57812C19.2082 2.27812 19.4207 2.00468 19.7207 1.96718C20.0207 1.92968 20.2942 2.14218 20.3317 2.44218L20.8395 6.47968C20.8484 6.55099 20.8432 6.62336 20.8242 6.69266C20.8052 6.76196 20.7727 6.82683 20.7286 6.88357C20.6844 6.94031 20.6296 6.98779 20.5671 7.02332C20.5046 7.05885 20.4358 7.08171 20.3645 7.09062C20.341 7.09218 20.3192 7.09374 20.2957 7.09374ZM10.0957 14.1219C10.002 14.1219 9.90666 14.0969 9.81916 14.0469L6.30978 11.9906C6.04884 11.8375 5.96134 11.5031 6.11447 11.2422C6.26759 10.9812 6.60197 10.8937 6.86291 11.0469L10.3738 13.1031C10.6348 13.2562 10.7223 13.5906 10.5692 13.8516C10.5205 13.9338 10.4512 14.002 10.3682 14.0494C10.2852 14.0968 10.1913 14.1218 10.0957 14.1219Z" fill="#0166FF"/>
<path d="M68.2383 1.95312H49.3539C45.9617 1.95312 43.2008 4.71406 43.2008 8.10625V57.1437C43.2008 60.5359 45.9617 63.2969 49.3539 63.2969H58.2492V68.4203C58.2492 69.325 57.5133 70.0609 56.6086 70.0609H41.3758C41.0742 70.0609 40.8289 70.3063 40.8289 70.6078C40.8289 70.9094 41.0742 71.1547 41.3758 71.1547H56.6086C58.1164 71.1547 59.343 69.9281 59.343 68.4203V63.2969H68.2383C71.6305 63.2969 74.3914 60.5359 74.3914 57.1437V8.10625C74.3914 4.71406 71.6305 1.95312 68.2383 1.95312ZM73.2977 57.1437C73.2977 59.9328 71.0289 62.2031 68.2383 62.2031H49.3539C46.5648 62.2031 44.2945 59.9328 44.2945 57.1437V8.10625C44.2945 5.31719 46.5633 3.04688 49.3539 3.04688H68.2383C71.0274 3.04688 73.2977 5.31719 73.2977 8.10625V57.1437ZM39.607 8.84531H24.3961C22.8883 8.84531 21.6617 10.0719 21.6617 11.5797V16.7031H12.7664C9.37422 16.7031 6.61328 19.4641 6.61328 22.8563V71.8938C6.61328 75.2859 9.37422 78.0469 12.7664 78.0469H31.6508C35.043 78.0469 37.8039 75.2859 37.8039 71.8938V22.8563C37.8039 19.4641 35.043 16.7031 31.6508 16.7031H22.7555V11.5797C22.7555 10.675 23.4914 9.93906 24.3961 9.93906H39.607C39.9086 9.93906 40.1539 9.69375 40.1539 9.39219C40.1539 9.09063 39.9086 8.84531 39.607 8.84531ZM31.6508 17.7984C34.4398 17.7984 36.7102 20.0687 36.7102 22.8578V71.8953C36.7102 74.6844 34.4414 76.9547 31.6508 76.9547H12.7664C9.97734 76.9547 7.70703 74.6844 7.70703 71.8953V22.8563C7.70703 20.0672 9.97578 17.7969 12.7664 17.7969H31.6508V17.7984Z" fill="#9A9A9A"/>
<path d="M57 39.5C60.3137 39.5 63 36.8137 63 33.5C63 30.1863 60.3137 27.5 57 27.5C53.6863 27.5 51 30.1863 51 33.5C51 34.4266 51.2101 35.3042 51.5851 36.0877C51.7141 36.357 51.7593 36.6621 51.6822 36.9505L51.4361 37.87C51.2422 38.5947 51.9053 39.2578 52.63 39.0639L53.5495 38.8178C53.8379 38.7407 54.143 38.7859 54.4123 38.9148C55.1958 39.2899 56.0734 39.5 57 39.5Z" stroke="#0166FF" stroke-width="0.8"/>
<path d="M63 33.8764C63.0499 33.8556 63.0993 33.834 63.1483 33.8116C63.4199 33.6876 63.7246 33.6412 64.013 33.7183L64.37 33.8139C65.0947 34.0078 65.7578 33.3447 65.5639 32.62L65.4683 32.263C65.3912 31.9745 65.4376 31.6699 65.5616 31.3983C65.8431 30.782 66 30.0968 66 29.375C66 26.6826 63.8174 24.5 61.125 24.5C59.0983 24.5 57.3605 25.7367 56.625 27.4967" stroke="#0166FF" stroke-width="0.8"/>
<path d="M55.125 33.5C55.125 33.9142 54.7892 34.25 54.375 34.25C53.9608 34.25 53.625 33.9142 53.625 33.5C53.625 33.0858 53.9608 32.75 54.375 32.75C54.7892 32.75 55.125 33.0858 55.125 33.5Z" fill="#0166FF"/>
<path d="M57.75 33.5C57.75 33.9142 57.4142 34.25 57 34.25C56.5858 34.25 56.25 33.9142 56.25 33.5C56.25 33.0858 56.5858 32.75 57 32.75C57.4142 32.75 57.75 33.0858 57.75 33.5Z" fill="#0166FF"/>
<path d="M60.375 33.5C60.375 33.9142 60.0392 34.25 59.625 34.25C59.2108 34.25 58.875 33.9142 58.875 33.5C58.875 33.0858 59.2108 32.75 59.625 32.75C60.0392 32.75 60.375 33.0858 60.375 33.5Z" fill="#0166FF"/>
<path d="M22.7178 61.6934C23.2635 61.6933 23.8046 61.5994 24.3174 61.416L24.5352 61.332C25.1115 61.0933 25.636 60.7429 26.0771 60.3018C26.4629 59.9159 26.7789 59.4668 27.0117 58.9746L27.1064 58.7607C27.3452 58.1844 27.4678 57.5662 27.4678 56.9424L27.4551 56.5918C27.4033 55.8923 27.1971 55.2129 26.8516 54.6025L26.667 54.3037C26.2102 53.6201 25.5853 53.0683 24.8545 52.7002L24.5352 52.5537C23.7757 52.2392 22.9496 52.1277 22.1377 52.2275L21.791 52.2832C20.8695 52.4665 20.0228 52.9196 19.3584 53.584C18.7772 54.1652 18.3581 54.8856 18.1396 55.6738L18.0586 56.0156C17.8982 56.822 17.9496 57.6546 18.2061 58.4316L18.3281 58.7607C18.6428 59.5203 19.1491 60.1829 19.7939 60.6865L20.0781 60.8926C20.7617 61.3493 21.5503 61.6202 22.3662 61.6807L22.7178 61.6934ZM23.5625 58.9834C23.2095 59.1296 22.8256 59.1821 22.4482 59.1357L22.2861 59.1094C21.9114 59.0348 21.5634 58.8644 21.2754 58.6162L21.1553 58.5049C20.8849 58.2345 20.6905 57.899 20.5889 57.5322L20.5508 57.374C20.4762 56.999 20.4999 56.6114 20.6191 56.25L20.6768 56.0967C20.8231 55.7437 21.0577 55.4352 21.3574 55.2012L21.4902 55.1055C21.8535 54.8628 22.2809 54.7334 22.7178 54.7334C23.2302 54.7335 23.7242 54.9115 24.1172 55.2334L24.2793 55.3809C24.6935 55.7951 24.9267 56.3565 24.9268 56.9424C24.9268 57.3793 24.7974 57.8066 24.5547 58.1699C24.3423 58.4878 24.0516 58.7448 23.7119 58.916L23.5625 58.9834Z" stroke="#0166FF" stroke-width="0.730849"/>
<path d="M16.8396 52.822C15.9647 54.0466 15.4962 55.5148 15.5 57.0198C15.5008 60.9556 18.7021 64.2023 22.6363 64.2571C24.2749 64.2803 25.8728 63.747 27.169 62.7444C28.4652 61.7417 29.3829 60.329 29.7722 58.7372C30.1614 57.1454 29.9992 55.4686 29.312 53.981C28.6248 52.4933 27.4533 51.2828 25.9889 50.5472C25.944 50.5246 25.9062 50.49 25.8798 50.4472C25.8535 50.4044 25.8395 50.3551 25.8395 50.3048V48.1883H25.3419" stroke="#0166FF" stroke-width="0.803934" stroke-linecap="round" stroke-linejoin="round"/>
<path d="M25.0706 47.0743V45.9276C25.0678 45.9189 25.0629 45.9109 25.0563 45.9045C25.0497 45.8981 25.0416 45.8934 25.0328 45.8909C24.611 45.818 24.2285 45.5984 23.9528 45.2709C23.6771 44.9435 23.5259 44.5292 23.5259 44.1011C23.5259 43.6731 23.6771 43.2587 23.9528 42.9313C24.2285 42.6038 24.611 42.3843 25.0328 42.3113C25.0416 42.3088 25.0497 42.3041 25.0563 42.2977C25.0629 42.2913 25.0678 42.2834 25.0705 42.2746V40.568C25.0678 40.5593 25.0629 40.5513 25.0562 40.5449C25.0496 40.5384 25.0416 40.5337 25.0327 40.5312C24.6109 40.4583 24.2284 40.2387 23.9527 39.9113C23.677 39.5838 23.5258 39.1695 23.5258 38.7415C23.5258 38.3134 23.677 37.8991 23.9527 37.5716C24.2284 37.2442 24.6109 37.0246 25.0327 36.9517C25.0416 36.9492 25.0497 36.9445 25.0564 36.9381C25.063 36.9317 25.0679 36.9237 25.0707 36.9149V34.6218C25.0707 34.5886 25.0625 34.5559 25.0469 34.5267C25.0312 34.4974 25.0086 34.4725 24.981 34.4541L22.8516 33.0325C22.8185 33.0103 22.7796 32.9985 22.7397 32.9985C22.6999 32.9985 22.6609 33.0103 22.6278 33.0325L20.4984 34.454C20.4708 34.4724 20.4482 34.4974 20.4325 34.5266C20.4169 34.5559 20.4087 34.5885 20.4088 34.6217V47.7892C20.4087 47.8947 20.3667 47.996 20.292 48.0707C20.2174 48.1453 20.1161 48.1873 20.0105 48.1875H19.6398V50.3039C19.6398 50.3542 19.6259 50.4035 19.5995 50.4463C19.5731 50.4891 19.5354 50.5238 19.4905 50.5464C18.9278 50.8297 18.4045 51.185 17.9336 51.6035" stroke="#0166FF" stroke-width="0.803934" stroke-linecap="round" stroke-linejoin="round"/>
</svg>
