<svg xmlns="http://www.w3.org/2000/svg" width="81" height="80" fill="none"><path fill="#E1EAF8" d="M55.313 69.908a.614.614 0 0 0-.615.614c0 2.344-1.9 4.244-4.243 4.244h-18.76a2.735 2.735 0 0 0-2.734 2.734h21.494a6.98 6.98 0 0 0 6.978-6.978v-.614zM44.444 8.053H32.96c-.94 0-1.777-.601-2.075-1.495L29.53 2.5h18.34L46.52 6.558a2.19 2.19 0 0 1-2.075 1.495"/><path fill="#FD4E4E" d="M43.513 63.49a.546.546 0 1 0-.347-1.036l-3.858 1.294a.545.545 0 1 0 .347 1.036zM48.015 71.968a.55.55 0 0 0 .423-.36l1.323-3.848a.547.547 0 1 0-1.035-.356l-1.323 3.848a.547.547 0 0 0 .612.716M69.347 44.321a.545.545 0 1 0 .347 1.036l3.857-1.294a.545.545 0 0 0 .07-1.008.55.55 0 0 0-.417-.029zM64.845 35.842a.55.55 0 0 0-.423.361l-1.323 3.848a.547.547 0 1 0 1.035.355l1.323-3.847a.547.547 0 0 0-.612-.717"/><path fill="#9A9A9A" d="M56.723 69.633c0-.302.246-.547.547-.547.303 0 .547.244.546.547v.889c0 4.148-3.375 7.525-7.525 7.525H26.783c-4.149 0-7.525-3.375-7.525-7.525v-6.308a.548.548 0 1 1 1.095 0v6.308a6.44 6.44 0 0 0 6.431 6.431h23.508a6.44 6.44 0 0 0 6.431-6.431zM27.886 38.565h19.12a.548.548 0 0 0 0-1.094h-19.12a.547.547 0 0 0 0 1.094M27.884 44.004h14.12a.548.548 0 0 0 0-1.094h-14.12a.547.547 0 0 0 0 1.094m9.647 5.109h-9.703a.548.548 0 0 0 0 1.094h9.703a.547.547 0 0 0 0-1.094m0 5.439h-9.703a.548.548 0 0 0 0 1.094h9.703a.547.547 0 0 0 0-1.094"/><path fill="#9A9A9A" d="M19.26 9.478v50.55a.548.548 0 1 0 1.096 0V9.477a6.44 6.44 0 0 1 6.432-6.431h23.507a6.44 6.44 0 0 1 6.432 6.431v28.694a.548.548 0 0 0 1.093 0V9.478c0-4.148-3.375-7.525-7.525-7.525h-23.51c-4.148 0-7.524 3.375-7.524 7.525"/><path stroke="#9A9A9A" stroke-linecap="round" stroke-width="1.5" d="M29.5 22.563v.875c0 2.876 0 4.314.817 5.282q.225.267.5.485c.995.794 2.475.794 5.434.794s4.439 0 5.435-.794q.274-.218.498-.485c.818-.968.818-2.406.818-5.282v-.875c0-2.876 0-4.314-.818-5.282a3.6 3.6 0 0 0-.498-.485c-.996-.794-2.476-.794-5.435-.794-2.96 0-4.439 0-5.435.794q-.274.22-.499.485c-.385.456-.588 1.017-.696 1.783M43 20.81l.592-.288c1.752-.851 2.627-1.277 3.268-.892.64.384.64 1.336.64 3.24v.255c0 1.903 0 2.855-.64 3.24-.64.384-1.516-.042-3.268-.893L43 25.185zm-4.51-.425a1.5 1.5 0 0 1 0 2.165 1.61 1.61 0 0 1-2.228 0 1.5 1.5 0 0 1 0-2.165 1.61 1.61 0 0 1 2.228 0Z"/><path fill="#FD4E4E" d="M59.148 49.92h-3.686c.147-.203.267-.4.344-.543a.41.41 0 0 1 .304-.205 2 2 0 0 1 .235-.005h2.005c.177 0 .21.001.236.005.172.026.245.086.29.18q.018.036.043.095c.05.115.127.29.23.473"/><path fill="#FD4E4E" fill-rule="evenodd" d="M57.5 66c6.627 0 12-5.373 12-12s-5.373-12-12-12-12 5.373-12 12 5.373 12 12 12m-1.184-17.833c-.13 0-.247 0-.358.016-.434.067-.82.328-1.03.717a4 4 0 0 1-.482.693q-.156.177-.284.267a.4.4 0 0 1-.115.06h-1.88a.5.5 0 1 0 0 1h10.666a.5.5 0 1 0 0-1h-2.199c-.194 0-.345-.097-.495-.301a2.7 2.7 0 0 1-.28-.522l-.079-.173c-.226-.477-.644-.68-1.043-.74-.11-.017-.227-.017-.358-.017zm-2.483 3.825a.5.5 0 0 0-.997.07l.282 4.068c.052.746.095 1.356.194 1.836.105.505.285.932.658 1.267.37.331.819.472 1.341.537.503.063 1.137.063 1.92.063h.538c.782 0 1.416 0 1.919-.063.522-.065.971-.206 1.341-.538.373-.334.553-.761.657-1.266.1-.48.143-1.09.195-1.836l.282-4.068a.5.5 0 1 0-.997-.07l-.28 4.033c-.056.79-.094 1.332-.179 1.738-.08.39-.191.587-.346.725-.157.141-.377.237-.798.29-.433.054-1.004.055-1.828.055h-.471c-.824 0-1.395 0-1.828-.055-.421-.053-.641-.149-.798-.29-.155-.139-.265-.335-.346-.725-.085-.406-.123-.948-.178-1.738zm2.64 1.445a.5.5 0 1 0-.995.103l.305 2.923a.5.5 0 1 0 .995-.104zm3.048.103a.5.5 0 1 0-.995-.103l-.305 2.922a.5.5 0 1 0 .995.104z" clip-rule="evenodd"/></svg>