<svg xmlns="http://www.w3.org/2000/svg" width="81" height="80" fill="none"><path fill="#E1EAF8" d="M61.322 47.76a2.18 2.18 0 0 0-2.178 2.178v22.868a1.867 1.867 0 0 1-1.863 1.866l-28.118-.028a2.176 2.176 0 0 0-2.179 2.175l30.296.03a4.04 4.04 0 0 0 4.042-4.043z"/><path fill="#0166FF" d="M61.324 12.127c-6.126 0-11.093 4.967-11.093 11.094s4.967 11.093 11.093 11.093 11.094-4.967 11.094-11.093c.001-6.127-4.966-11.094-11.094-11.094m3.75 14.745a3.25 3.25 0 0 1-.842 1.19q-.555.495-1.36.77a5 5 0 0 1-.682.174v1.2a.324.324 0 0 1-.324.324h-1.63a.324.324 0 0 1-.324-.324V29.01a6.7 6.7 0 0 1-2.381-.9.504.504 0 0 1-.187-.668l.74-1.39a.5.5 0 0 1 .737-.173q.421.309.835.492.635.282 1.256.282.71 0 1.056-.325.347-.326.347-.74a1 1 0 0 0-.09-.435.96.96 0 0 0-.294-.34 2.3 2.3 0 0 0-.54-.288 17 17 0 0 0-.806-.296 16 16 0 0 1-1.101-.392 3.5 3.5 0 0 1-.961-.569 2.6 2.6 0 0 1-.68-.893q-.259-.54-.26-1.368 0-.826.274-1.5.275-.672.769-1.153.495-.48 1.212-.747l.07-.023v-1.344c0-.178.146-.323.324-.323h1.631c.178 0 .324.145.324.323v1.147q.48.057.986.184.645.164 1.253.438a.504.504 0 0 1 .243.689l-.65 1.275a.52.52 0 0 1-.735.203 3.4 3.4 0 0 0-.482-.24 2.5 2.5 0 0 0-.917-.185q-.562.001-.916.266a.83.83 0 0 0-.354.695q0 .296.178.488t.466.332q.288.14.65.244t.717.222q1.419.474 2.076 1.264.659.79.658 2.063a4 4 0 0 1-.286 1.548M70.334 53.44a.55.55 0 0 1-.231-.052l-3.684-1.725a.544.544 0 0 1-.265-.727.55.55 0 0 1 .727-.264l3.684 1.725a.547.547 0 0 1-.23 1.042M66.15 39.335a.546.546 0 0 1-.252-1.033l3.613-1.87a.547.547 0 0 1 .503.972l-3.613 1.87a.54.54 0 0 1-.251.061M9.66 53.439a.547.547 0 0 1-.23-1.042l3.684-1.725a.547.547 0 0 1 .462.99l-3.684 1.726a.55.55 0 0 1-.231.051m4.185-14.103a.6.6 0 0 1-.252-.061l-3.612-1.87a.547.547 0 1 1 .503-.972l3.613 1.87a.547.547 0 0 1-.252 1.033"/><path fill="#E1EAF8" d="m14.113 68.669 4.053-1.494v5.62c0 2.043-1.509 3.73-3.473 4.013l-.581.042a4.053 4.053 0 0 1-4.053-4.053v-4.54c0-.843.907-1.371 1.64-.955z"/><path fill="#9A9A9A" d="M51.848 13.777a.547.547 0 0 0-.546-.547H28.184a.547.547 0 0 0 0 1.093h23.118a.546.546 0 0 0 .546-.546m-28.887 7.597c0 .301.245.546.547.546h23.895a.548.548 0 0 0 0-1.093H23.508a.55.55 0 0 0-.547.546m.547 8.28h24.984a.547.547 0 0 0 0-1.095H23.508a.548.548 0 0 0 0 1.094m22.3 7.37h-21.61a.547.547 0 0 0 0 1.093h21.608a.547.547 0 0 0 .002-1.093"/><path fill="#9A9A9A" d="M61.32 10.133a.547.547 0 0 0 .546-.547V7.849c0-.647-.23-1.275-.651-1.768L57.91 2.206a2.094 2.094 0 0 0-2.91-.28l-3.446 2.75a1.004 1.004 0 0 1-1.258 0L46.645 1.76a2.09 2.09 0 0 0-2.622 0L40.37 4.675a1.004 1.004 0 0 1-1.258 0l-3.65-2.914a2.09 2.09 0 0 0-2.622 0L29.19 4.675a1 1 0 0 1-1.258 0l-3.445-2.748a2.094 2.094 0 0 0-2.911.28L18.27 6.08a2.72 2.72 0 0 0-.652 1.768v64.989c0 1.728-1.575 3.465-3.526 3.465-1.925 0-3.488-1.58-3.488-3.506v-4.531c0-.296.204-.433.29-.478a.53.53 0 0 1 .557.035l1.461 1.02c.717.5 1.681.5 2.399 0a.545.545 0 0 0-.217-.988.55.55 0 0 0-.408.09 1.01 1.01 0 0 1-1.149 0l-1.46-1.018a1.63 1.63 0 0 0-1.69-.108c-.54.283-.876.837-.876 1.447v4.531c0 2.538 2.064 4.6 4.6 4.6h43.165c2.532 0 4.59-2.06 4.59-4.59V36.967a.547.547 0 0 0-1.094 0v35.839a3.5 3.5 0 0 1-3.496 3.495l-40.151.003a4.61 4.61 0 0 0 1.586-3.467V7.849c0-.388.139-.765.39-1.058l3.305-3.875a1.005 1.005 0 0 1 1.397-.135l3.445 2.749a2.09 2.09 0 0 0 2.622 0l3.652-2.914a1 1 0 0 1 1.258 0l3.65 2.914c.771.615 1.85.617 2.623 0l3.65-2.914a1.004 1.004 0 0 1 1.258 0l3.651 2.914a2.09 2.09 0 0 0 2.622 0l3.446-2.749a1.003 1.003 0 0 1 1.396.135l3.305 3.875c.252.295.39.67.39 1.058v1.739c0 .301.246.545.547.545"/><path fill="#E1EAF8" d="M39.209 57.665v-5.392a.084.084 0 0 0-.086-.084c-1.67.03-3.274.252-4.724.65a.09.09 0 0 0-.06.06c-.401 1.46-.624 3.08-.65 4.764-.002.047.037.086.083.086h5.353a.084.084 0 0 0 .084-.084m-10.682-.511q-.02.252-.027.508a.083.083 0 0 0 .083.086h4.44a.08.08 0 0 0 .082-.082 20 20 0 0 1 .554-4.47.08.08 0 0 0-.024-.081.08.08 0 0 0-.084-.018 13 13 0 0 0-1.964.84c-1.658.889-2.713 2.002-3.058 3.197zm6.912-7.067a13 13 0 0 0-.84 1.964.083.083 0 0 0 .099.108 20 20 0 0 1 4.43-.553.083.083 0 0 0 .081-.083v-4.439a.083.083 0 0 0-.086-.083 11 11 0 0 0-.487.029c-1.196.344-2.309 1.4-3.197 3.057M31.588 62.06c.6.323 1.26.604 1.964.84a.083.083 0 0 0 .108-.099 20 20 0 0 1-.552-4.39.083.083 0 0 0-.083-.082h-4.437a.084.084 0 0 0-.084.086 10 10 0 0 0 .028.448c.342 1.196 1.398 2.309 3.056 3.197m8.758-15.035q-.233-.018-.468-.026a.084.084 0 0 0-.087.083v4.44c0 .045.037.081.082.082 1.551.027 3.051.215 4.43.553a.08.08 0 0 0 .082-.024.08.08 0 0 0 .017-.083 13 13 0 0 0-.84-1.965c-.89-1.657-2.001-2.713-3.197-3.058zm7.067 6.912a13 13 0 0 0-1.964-.84.083.083 0 0 0-.108.099c.341 1.39.53 2.905.554 4.47 0 .045.037.081.082.081h4.44c.046 0 .085-.039.083-.085a11 11 0 0 0-.03-.527c-.344-1.197-1.4-2.31-3.057-3.198m-7.538 3.81h5.353a.085.085 0 0 0 .084-.084c-.027-1.685-.25-3.304-.651-4.765a.09.09 0 0 0-.06-.06c-1.449-.398-3.054-.62-4.724-.65a.084.084 0 0 0-.086.084v5.392c0 .046.038.084.084.084m-.75.584h-5.351a.084.084 0 0 0-.084.084c.032 1.656.255 3.247.65 4.685.007.028.03.05.059.059 1.449.398 3.054.621 4.724.65a.083.083 0 0 0 .086-.084v-5.312a.083.083 0 0 0-.084-.083m8.564 4.243c-.763.409-1.614.753-2.529 1.03a.08.08 0 0 0-.055.055c-.276.914-.62 1.765-1.03 2.528-.505.942-1.084 1.707-1.714 2.277-.065.058-.005.165.08.142a11.03 11.03 0 0 0 7.667-7.668c.023-.084-.084-.144-.142-.079-.57.63-1.335 1.21-2.277 1.715m-16.377-9.15a13.8 13.8 0 0 1 2.528-1.03.08.08 0 0 0 .055-.055c.277-.915.621-1.766 1.03-2.529.506-.942 1.084-1.706 1.715-2.277.065-.058.005-.165-.08-.142a11.03 11.03 0 0 0-7.667 7.668c-.023.084.084.144.142.079.57-.63 1.334-1.21 2.277-1.715m7.342 15.548q.233.017.468.026a.084.084 0 0 0 .087-.083v-4.44a.083.083 0 0 0-.082-.082 20.2 20.2 0 0 1-4.43-.553.08.08 0 0 0-.082.024.08.08 0 0 0-.017.084c.237.703.518 1.363.84 1.964.889 1.658 2.001 2.713 3.197 3.058zm5.422-19.162c.41.763.753 1.614 1.03 2.529a.08.08 0 0 0 .054.055c.915.276 1.766.62 2.529 1.03.942.505 1.706 1.084 2.277 1.714.058.065.165.005.142-.08a11.02 11.02 0 0 0-7.668-7.667c-.084-.023-.144.084-.079.142.63.57 1.21 1.335 1.715 2.277m-9.151 16.377a14 14 0 0 1-1.03-2.529.08.08 0 0 0-.055-.054 14 14 0 0 1-2.528-1.03c-.942-.506-1.707-1.084-2.277-1.715-.058-.065-.165-.005-.142.08a11.03 11.03 0 0 0 7.668 7.667c.084.023.144-.084.079-.142-.63-.57-1.21-1.334-1.715-2.277m8.637-.276c.322-.6.604-1.26.84-1.964a.083.083 0 0 0-.055-.107.1.1 0 0 0-.044 0 20 20 0 0 1-4.43.552.083.083 0 0 0-.081.083v4.439a.084.084 0 0 0 .086.083 11 11 0 0 0 .487-.029c1.196-.344 2.307-1.4 3.197-3.057m-3.77-7.497v5.312c0 .047.038.085.084.084 1.67-.03 3.275-.252 4.725-.65a.09.09 0 0 0 .06-.06c.394-1.437.618-3.028.65-4.684a.083.083 0 0 0-.085-.085h-5.351a.08.08 0 0 0-.084.083m10.682.43q.017-.212.024-.428a.084.084 0 0 0-.083-.086h-4.438a.083.083 0 0 0-.082.081 20.2 20.2 0 0 1-.552 4.391.083.083 0 0 0 .107.1 13 13 0 0 0 1.965-.841c1.657-.89 2.713-2.001 3.057-3.197z"/></svg>