<svg xmlns="http://www.w3.org/2000/svg" width="80" height="80" fill="none"><path fill="#0166FF" d="M34.36 8.053H22.875c-.94 0-1.776-.601-2.075-1.495L19.447 2.5h18.34l-1.352 4.058a2.19 2.19 0 0 1-2.075 1.495"/><path fill="#E1EAF8" d="M12.507 19.073v49.309a6.495 6.495 0 0 0 6.495 6.495h16.936c1.974 0 3.817.983 4.917 2.622h-23.99a6.98 6.98 0 0 1-6.978-6.978V14.152a5.93 5.93 0 0 1 2.62 4.92"/><path fill="#E1EAF8" d="M58.281 64.105h-.004l-1.802-1.802-2.267 2.47a5.1 5.1 0 0 1-6.213 1.021 26 26 0 0 1-5.843-4.386l-9.936-9.936a7.16 7.16 0 0 0-5.732-2.065L43.248 66.17a9.62 9.62 0 0 0 13.608 0l1.742-1.743 1.361-1.36c.286-.286.418-.666.4-1.041z"/><path fill="#9A9A9A" d="M54.287 54.677a1.925 1.925 0 0 0-2.718 0l-3.025 3.025a1.37 1.37 0 0 1-.974.403 1.37 1.37 0 0 1-.974-.403L33.823 44.928a1.38 1.38 0 0 1 0-1.948l3.025-3.025a1.925 1.925 0 0 0 0-2.718l-6.06-6.059a1.925 1.925 0 0 0-2.717 0l-3.103 3.102a10.2 10.2 0 0 0-1.445 1.818.547.547 0 0 0 .928.579 9 9 0 0 1 1.29-1.624l3.104-3.101a.82.82 0 0 1 .585-.243c.222 0 .43.086.586.243l6.06 6.059a.827.827 0 0 1 0 1.17l-.974.974-5.417-5.418a.546.546 0 1 0-.773.774l5.417 5.416-1.278 1.278a2.474 2.474 0 0 0 0 3.495l12.773 12.773a2.45 2.45 0 0 0 1.747.724c.66 0 1.281-.258 1.747-.724l3.025-3.025a.82.82 0 0 1 .586-.242c.222 0 .43.086.586.242l6.06 6.06a.827.827 0 0 1 0 1.17l-.974.974-5.288-5.288a.546.546 0 1 0-.773.774l5.287 5.287-1.354 1.355c-3.54 3.539-9.297 3.539-12.836 0L25.74 47.89a9.02 9.02 0 0 1-2.578-7.623.546.546 0 1 0-1.084-.144 10.1 10.1 0 0 0 2.889 8.541l17.894 17.894A10.1 10.1 0 0 0 46.804 69v1.523a6.44 6.44 0 0 1-6.431 6.432H16.865a6.44 6.44 0 0 1-6.431-6.432V9.478a6.44 6.44 0 0 1 6.43-6.431h23.509a6.44 6.44 0 0 1 6.43 6.431v3.253a.547.547 0 0 0 1.095 0V9.478c0-4.15-3.377-7.525-7.525-7.525H16.865c-4.15 0-7.525 3.377-7.525 7.525V70.52c0 4.15 3.376 7.525 7.525 7.525h23.508c4.15 0 7.525-3.376 7.525-7.525v-1.223c.709.153 1.432.233 2.154.233 2.605 0 5.208-.99 7.191-2.974l1.74-1.74 1.361-1.361a1.925 1.925 0 0 0 0-2.718z"/><path fill="#9A9A9A" d="M65.99 19.62a15.78 15.78 0 0 0-11.209-4.632h-.033c-8.735.018-15.846 7.14-15.85 15.877A15.9 15.9 0 0 0 42.7 41.182c.155.18.231.406.216.637a.55.55 0 0 0 .51.582c.3.017.561-.21.58-.511a1.98 1.98 0 0 0-.476-1.417 14.8 14.8 0 0 1-3.54-9.607c.002-8.134 6.622-14.765 14.757-14.782h.031c3.94 0 7.645 1.53 10.438 4.312a14.7 14.7 0 0 1 4.351 10.447c.016 8.03-6.5 14.677-14.525 14.816a15 15 0 0 1-3.153-.282 2 2 0 0 0-1.395.232l-6.708 3.922a.16.16 0 0 1-.175-.002.16.16 0 0 1-.08-.155l.302-4.737a.55.55 0 0 0-.511-.581.55.55 0 0 0-.58.51l-.301 4.738a1.265 1.265 0 0 0 1.898 1.172l2.464-1.44v4.543a.547.547 0 0 0 1.094 0v-5.184l3.15-1.843a.9.9 0 0 1 .63-.101c1.107.22 2.246.32 3.384.301 8.619-.15 15.617-7.287 15.6-15.91a15.77 15.77 0 0 0-4.67-11.222"/><g clip-path="url(#a)"><path fill="#0166FF" fill-rule="evenodd" d="M54.75 41.2C60.41 41.2 65 36.61 65 30.95c0-5.662-4.59-10.25-10.25-10.25S44.5 25.287 44.5 30.95c0 5.66 4.59 10.25 10.25 10.25m6.15-12.72a1.202 1.202 0 0 0-1.7-1.7l-5.79 5.79-2.47-2.47a1.202 1.202 0 0 0-1.699 1.699l3.32 3.32c.47.469 1.23.469 1.7 0z" clip-rule="evenodd"/></g><path fill="#0166FF" d="M75.104 47.202a.54.54 0 0 1-.283-.08l-3.48-2.11a.548.548 0 0 1 .568-.935l3.48 2.109a.548.548 0 0 1-.285 1.016m-13.608 8.385a.546.546 0 0 1-.542-.487l-.447-4.044a.548.548 0 0 1 .885-.487.54.54 0 0 1 .201.367l.447 4.044a.55.55 0 0 1-.544.607m10.13-36.237a.548.548 0 0 1-.284-1.016l3.48-2.11a.548.548 0 0 1 .567.937l-3.48 2.11a.54.54 0 0 1-.283.079M61.051 12.9l-.06-.003a.546.546 0 0 1-.484-.603l.447-4.044a.547.547 0 1 1 1.086.12l-.447 4.044a.547.547 0 0 1-.542.486"/><defs><clipPath id="a"><path fill="#fff" d="M44.5 20.7H65v20.5H44.5z"/></clipPath></defs></svg>