<svg width="81" height="80" viewBox="0 0 81 80" fill="none" xmlns="http://www.w3.org/2000/svg">
<path d="M55.3125 69.9082C54.9734 69.9082 54.6984 70.1831 54.6984 70.5223C54.6984 72.866 52.7984 74.766 50.4547 74.766H31.6953C30.1859 74.766 28.9609 75.991 28.9609 77.5004H50.4547C54.3094 77.5004 57.4328 74.3754 57.4328 70.5223V69.9082H55.3125Z" fill="#E1EAF8"/>
<path d="M44.4438 8.05313H32.9609C32.0203 8.05313 31.1844 7.45156 30.8859 6.55781L29.5312 2.5H47.8719L46.5187 6.55781C46.3732 6.99307 46.0946 7.37159 45.7223 7.63991C45.3499 7.90823 44.9027 8.05277 44.4438 8.05313Z" fill="#E1EAF8"/>
<path d="M43.5126 63.4894C43.6098 63.4572 43.6916 63.3997 43.7544 63.3259C43.8157 63.2542 43.8574 63.1679 43.8754 63.0754C43.8933 62.9828 43.8871 62.8872 43.8571 62.7978C43.8344 62.7297 43.7985 62.6667 43.7515 62.6125C43.7044 62.5583 43.6471 62.5139 43.5828 62.4819C43.5186 62.4499 43.4486 62.4309 43.377 62.426C43.3054 62.4211 43.2335 62.4304 43.1654 62.4533L39.3081 63.748C39.24 63.7707 39.177 63.8066 39.1228 63.8537C39.0686 63.9007 39.0242 63.958 38.9922 64.0223C38.9602 64.0866 38.9412 64.1565 38.9363 64.2282C38.9314 64.2998 38.9407 64.3717 38.9636 64.4397C38.9863 64.5078 39.0222 64.5708 39.0693 64.625C39.1164 64.6792 39.1737 64.7236 39.2379 64.7556C39.3022 64.7876 39.3722 64.8066 39.4438 64.8115C39.5154 64.8164 39.5873 64.8071 39.6553 64.7842L43.5126 63.4894Z" fill="#0166FF"/>
<path d="M48.0147 71.9684C48.1402 71.9463 48.2541 71.8811 48.3367 71.784C48.3792 71.734 48.4142 71.6736 48.4377 71.6074L49.7608 67.76C49.8586 67.4739 49.7072 67.1624 49.4211 67.0646C49.135 66.9668 48.8235 67.1183 48.7257 67.4044L47.4027 71.2518C47.3612 71.3723 47.3632 71.5035 47.4082 71.6228C47.4532 71.742 47.5384 71.8418 47.6491 71.9049C47.7599 71.968 47.8892 71.9904 48.0147 71.9684Z" fill="#0166FF"/>
<path d="M69.3467 44.3211C69.2496 44.3533 69.1678 44.4109 69.105 44.4847C69.0437 44.5563 69.002 44.6426 68.984 44.7352C68.966 44.8277 68.9723 44.9234 69.0023 45.0128C69.0249 45.0809 69.0608 45.1439 69.1079 45.1981C69.155 45.2523 69.2123 45.2967 69.2766 45.3287C69.3408 45.3607 69.4108 45.3797 69.4824 45.3846C69.554 45.3895 69.6259 45.3802 69.6939 45.3573L73.5513 44.0625C73.6194 44.0399 73.6823 44.0039 73.7365 43.9569C73.7908 43.9098 73.8351 43.8525 73.8671 43.7882C73.8991 43.724 73.9181 43.654 73.9231 43.5824C73.928 43.5108 73.9187 43.4389 73.8957 43.3709C73.8731 43.3027 73.8372 43.2398 73.7901 43.1856C73.743 43.1314 73.6857 43.087 73.6214 43.055C73.5572 43.023 73.4872 43.004 73.4156 42.9991C73.344 42.9942 73.2721 43.0034 73.2041 43.0264L69.3467 44.3211Z" fill="#0166FF"/>
<path d="M64.8447 35.8422C64.7192 35.8642 64.6053 35.9294 64.5227 36.0265C64.4802 36.0765 64.4451 36.137 64.4217 36.2031L63.0986 40.0506C63.0008 40.3366 63.1522 40.6481 63.4383 40.7459C63.7244 40.8437 64.0359 40.6923 64.1337 40.4062L65.4567 36.5588C65.4982 36.4382 65.4962 36.307 65.4512 36.1878C65.4062 36.0686 65.321 35.9688 65.2102 35.9057C65.0995 35.8426 64.9702 35.8201 64.8447 35.8422Z" fill="#0166FF"/>
<path d="M56.7234 69.6327C56.7234 69.3311 56.9688 69.0858 57.2703 69.0858C57.5734 69.0858 57.8172 69.3296 57.8156 69.6327V70.5218C57.8156 74.6702 54.4406 78.0468 50.2906 78.0468H26.7828C22.6344 78.0468 19.2578 74.6718 19.2578 70.5218L19.2584 67.9993L19.2579 64.2137C19.2578 63.9112 19.503 63.666 19.8055 63.666C20.1079 63.666 20.3531 63.9112 20.3531 64.2136V70.5218C20.3531 74.0671 23.2375 76.953 26.7844 76.953H50.2922C53.8375 76.953 56.7234 74.0686 56.7234 70.5218V69.6327Z" fill="#9A9A9A"/>
<path d="M27.8863 38.5645H47.0066C47.3082 38.5645 47.5535 38.3191 47.5535 38.0176C47.5535 37.716 47.3082 37.4707 47.0066 37.4707H27.8863C27.5848 37.4707 27.3395 37.716 27.3395 38.0176C27.3395 38.3191 27.5848 38.5645 27.8863 38.5645Z" fill="#9A9A9A"/>
<path d="M27.8844 44.0035H42.0047C42.3062 44.0035 42.5516 43.7582 42.5516 43.4566C42.5516 43.155 42.3062 42.9097 42.0047 42.9097H27.8844C27.5828 42.9097 27.3375 43.155 27.3375 43.4566C27.3375 43.7582 27.5828 44.0035 27.8844 44.0035ZM37.5312 49.1129H27.8281C27.5266 49.1129 27.2812 49.3582 27.2812 49.6597C27.2812 49.9613 27.5266 50.2066 27.8281 50.2066H37.5312C37.8328 50.2066 38.0781 49.9613 38.0781 49.6597C38.0781 49.3582 37.8328 49.1129 37.5312 49.1129ZM37.5312 54.5519H27.8281C27.5266 54.5519 27.2812 54.7972 27.2812 55.0988C27.2812 55.4004 27.5266 55.6457 27.8281 55.6457H37.5312C37.8328 55.6457 38.0781 55.4004 38.0781 55.0988C38.0781 54.7972 37.8328 54.5519 37.5312 54.5519Z" fill="#9A9A9A"/>
<path d="M19.2609 9.47813V60.0273C19.2609 60.3298 19.5061 60.575 19.8086 60.575C20.1111 60.575 20.3563 60.3298 20.3563 60.0273V9.47813C20.3563 5.93281 23.2406 3.04688 26.7875 3.04688H50.2953C53.8406 3.04688 56.7266 5.93125 56.7266 9.47813V38.1719C56.7266 38.4734 56.9719 38.7188 57.2734 38.7188C57.575 38.7188 57.8203 38.4734 57.8203 38.1719V9.47813C57.8203 5.32969 54.4453 1.95312 50.2953 1.95312H26.7859C22.6375 1.95312 19.2609 5.32813 19.2609 9.47813Z" fill="#9A9A9A"/>
<path d="M44.1192 25.216L39.1823 20.2815C39.152 20.2513 39.1289 20.2148 39.1146 20.1745C39.1003 20.1342 39.0952 20.0913 39.0997 20.0488C39.1041 20.0063 39.1181 19.9653 39.1405 19.9289C39.1628 19.8925 39.1931 19.8616 39.229 19.8384C39.3428 19.763 39.4968 19.7852 39.5934 19.8818L39.6925 19.9809L40.9546 18.7188C41.0205 18.6531 41.1097 18.6162 41.2028 18.6162C41.2958 18.6162 41.385 18.6531 41.4509 18.7188L41.5942 18.8621C41.6599 18.928 41.6968 19.0173 41.6968 19.1103C41.6968 19.2033 41.6599 19.2926 41.5942 19.3585L40.4476 20.5051C40.3838 20.5689 40.3838 20.673 40.4476 20.7368L41.1274 21.4166C41.1913 21.4805 41.2953 21.4805 41.3592 21.4166L44.1929 18.5861C45.283 18.8662 46.4886 18.5951 47.3502 17.7745C48.1201 17.0407 48.4624 16.0349 48.3789 15.0579C48.3584 14.8163 48.0603 14.7131 47.8891 14.8842L46.5042 16.2692C46.4096 16.3635 46.2815 16.4165 46.1479 16.4166H45.5893C45.4558 16.4164 45.3277 16.3634 45.2331 16.2692L44.1151 15.1512C44.0208 15.0567 43.9678 14.9286 43.9677 14.795V14.2356C43.9677 14.1021 44.021 13.9743 44.1151 13.8793L45.5001 12.4944C45.6712 12.3232 45.5681 12.0251 45.3273 12.0046C44.3756 11.9227 43.3961 12.2454 42.668 12.9735C41.7957 13.8457 41.505 15.0792 41.7949 16.193L38.4452 19.5419L35.0963 16.193C35.3862 15.0792 35.0963 13.8457 34.2232 12.9735C33.4951 12.2454 32.5156 11.9227 31.5639 12.0046C31.3231 12.0251 31.2199 12.3232 31.3911 12.4944L32.776 13.8793C32.8704 13.9739 32.9234 14.102 32.9234 14.2356V14.795C32.9234 14.9285 32.8702 15.0562 32.776 15.1512L31.6581 16.2692C31.5635 16.3635 31.4354 16.4165 31.3018 16.4166H30.7433C30.6097 16.4164 30.4816 16.3634 30.387 16.2692L29.0021 14.8842C28.8309 14.7131 28.5328 14.8163 28.5123 15.0579C28.4287 16.0349 28.7711 17.0407 29.541 17.7745C30.4025 18.5951 31.6081 18.8662 32.6982 18.5861L37.5361 23.4183L37.5353 23.4191L37.663 23.5468C37.781 23.6648 37.7867 23.8638 37.6614 23.9752C37.6073 24.0235 37.5394 24.0473 37.4714 24.0473C37.3977 24.0473 37.3248 24.0194 37.2691 23.9629L37.1299 23.8237L35.8678 25.0858C35.8019 25.1515 35.7126 25.1883 35.6196 25.1883C35.5266 25.1883 35.4373 25.1515 35.3714 25.0858L35.2281 24.9424C35.1624 24.8766 35.1255 24.7873 35.1255 24.6943C35.1255 24.6012 35.1624 24.512 35.2281 24.4461L36.3747 23.2995C36.4386 23.2356 36.4386 23.1316 36.3747 23.0677L35.7629 22.4559C35.6991 22.3921 35.595 22.3921 35.5312 22.4559L32.7727 25.2143C31.6589 24.9244 30.4255 25.2152 29.5524 26.0882C28.8243 26.8163 28.5016 27.7958 28.5835 28.7475C28.604 28.9883 28.9021 29.0915 29.0733 28.9203L30.4591 27.5346C30.5536 27.4402 30.6817 27.3872 30.8153 27.3872H31.3747C31.5082 27.3872 31.636 27.4404 31.731 27.5346L32.8489 28.6525C32.9433 28.7471 32.9963 28.8752 32.9963 29.0088V29.5673C32.9963 29.7008 32.9431 29.8286 32.8489 29.9236L31.4632 31.3094C31.292 31.4805 31.3952 31.7787 31.636 31.7991C32.5877 31.881 33.5672 31.5583 34.2953 30.8303C35.17 29.9556 35.4607 28.718 35.1667 27.6026L38.4452 24.3265L41.7253 27.6034C41.4313 28.7189 41.722 29.9564 42.5967 30.8311C43.3248 31.5592 44.3043 31.8819 45.256 31.8C45.4968 31.7795 45.6 31.4814 45.4288 31.3102L44.0431 29.9244C43.9487 29.8299 43.8957 29.7018 43.8956 29.5682V29.0088C43.8956 28.8753 43.9489 28.7475 44.0431 28.6525L45.161 27.5346C45.2556 27.4402 45.3837 27.3872 45.5173 27.3872H46.0758C46.2093 27.3872 46.3371 27.4404 46.4321 27.5346L47.8179 28.9203C47.989 29.0915 48.2871 28.9883 48.3076 28.7475C48.3895 27.7958 48.0668 26.8163 47.3387 26.0882C46.4673 25.2168 45.2331 24.9252 44.1192 25.216ZM41.5951 24.9433L41.4517 25.0866C41.3859 25.1523 41.2966 25.1892 41.2036 25.1892C41.1105 25.1892 41.0213 25.1523 40.9554 25.0866L35.2273 19.3585C35.1616 19.2926 35.1247 19.2033 35.1247 19.1103C35.1247 19.0173 35.1616 18.928 35.2273 18.8621L35.3706 18.7188C35.4365 18.6531 35.5258 18.6162 35.6188 18.6162C35.7118 18.6162 35.8011 18.6531 35.8669 18.7188L41.5951 24.4469C41.6608 24.5128 41.6977 24.6021 41.6977 24.6951C41.6977 24.7881 41.6608 24.8774 41.5951 24.9433Z" fill="#9A9A9A"/>
<path d="M56.5 42C49.8724 42 44.5 47.3724 44.5 54C44.5 60.6276 49.8724 66 56.5 66C63.1276 66 68.5 60.6276 68.5 54C68.5 47.3724 63.1276 42 56.5 42ZM52.8855 56.0848C52.9753 56.147 53.0521 56.2263 53.1112 56.3181C53.1704 56.4099 53.211 56.5125 53.2305 56.62C53.25 56.7276 53.2482 56.8379 53.2251 56.9447C53.202 57.0514 53.1581 57.1526 53.0959 57.2425C53.0193 57.3531 52.9169 57.4434 52.7977 57.5057C52.6784 57.5681 52.5458 57.6005 52.4113 57.6002C52.2472 57.6002 52.0832 57.5527 51.9382 57.4517L48.0693 54.7714C47.8459 54.6169 47.7128 54.3625 47.7116 54.0915C47.7111 53.9577 47.7428 53.8258 47.804 53.7068C47.8652 53.5879 47.9542 53.4854 48.0634 53.4081L52.1094 50.5507C52.1986 50.4868 52.2996 50.4412 52.4065 50.4165C52.5135 50.3918 52.6242 50.3885 52.7325 50.4068C52.8407 50.425 52.9442 50.4645 53.0371 50.523C53.13 50.5814 53.2105 50.6577 53.2738 50.7473C53.3371 50.837 53.3821 50.9383 53.4061 51.0453C53.4301 51.1524 53.4327 51.2632 53.4137 51.3713C53.3948 51.4794 53.3546 51.5827 53.2956 51.6753C53.2365 51.7678 53.1598 51.8477 53.0697 51.9105L49.9949 54.082L52.8855 56.0848ZM58.8903 46.4132L55.7405 61.9184C55.7188 62.0255 55.6763 62.1273 55.6153 62.2179C55.5543 62.3085 55.476 62.3863 55.3849 62.4466C55.2939 62.507 55.1918 62.5489 55.0845 62.5698C54.9773 62.5907 54.867 62.5903 54.7599 62.5685C54.6528 62.5469 54.551 62.5043 54.4604 62.4433C54.3698 62.3823 54.292 62.304 54.2316 62.213C54.1713 62.1219 54.1294 62.0198 54.1085 61.9126C54.0876 61.8053 54.088 61.695 54.1097 61.588L57.2595 46.0828C57.351 45.6323 57.7908 45.3423 58.2401 45.4326C58.6906 45.523 58.9818 45.9628 58.8903 46.4132ZM64.9366 54.5907L60.8907 57.4481C60.7507 57.5473 60.5832 57.6005 60.4116 57.6002C60.1502 57.6002 59.8934 57.4778 59.7318 57.2484C59.6044 57.0681 59.5539 56.8446 59.5914 56.627C59.6288 56.4095 59.7511 56.2157 59.9315 56.0884L63.0063 53.9168L60.1157 51.914C59.7377 51.6525 59.6438 51.1343 59.9053 50.7563C60.1668 50.3784 60.685 50.2845 61.063 50.546L64.9319 53.2262C65.1553 53.3807 65.2884 53.6351 65.2896 53.9061C65.2908 54.1795 65.1589 54.435 64.9366 54.5907Z" fill="#0166FF"/>
</svg>
