<svg xmlns="http://www.w3.org/2000/svg" width="80" height="80" fill="none"><path fill="#9A9A9A" d="M53.678 25.686h-.47l.006-10.972a12.67 12.67 0 0 0-3.733-9.023 12.67 12.67 0 0 0-9.02-3.738h-5.19c-2.809 0-5.55.79-7.927 2.281l-1.958 1.23a3 3 0 0 1-1.59.458 5.584 5.584 0 0 0-5.579 5.578v14.186h-.462a3.94 3.94 0 0 0-3.1 1.495 3.94 3.94 0 0 0-.758 3.358l.428 1.85a3.94 3.94 0 0 0 3.856 3.066h.499a22.74 22.74 0 0 0 7.289 14.448l.062.558a8.6 8.6 0 0 1-.517 4.02 1.06 1.06 0 0 1-.6.603l-12.68 4.955a16.1 16.1 0 0 0-7.465 5.94 16.1 16.1 0 0 0-2.816 9.116V77.5a.547.547 0 0 0 1.094 0v-2.405c0-3.045.908-5.984 2.625-8.498a15 15 0 0 1 6.96-5.538l9.285-3.628c1.392 2.51 3.39 4.569 5.808 5.975a15.9 15.9 0 0 0 7.99 2.138c2.827 0 5.59-.74 7.991-2.138 2.417-1.406 4.416-3.467 5.808-5.975l1.55.605a.547.547 0 0 0 .397-1.019l-4.945-1.933a1.06 1.06 0 0 1-.6-.603 8.6 8.6 0 0 1-.518-4.02l.063-.56a22.74 22.74 0 0 0 7.284-14.446h.503a3.94 3.94 0 0 0 3.857-3.066l.428-1.85a3.94 3.94 0 0 0-.758-3.358 3.93 3.93 0 0 0-3.097-1.495M19.311 11.5a4.49 4.49 0 0 1 4.484-4.484c.769 0 1.522-.217 2.172-.625l1.958-1.23a13.8 13.8 0 0 1 7.345-2.114h5.19c3.117 0 6.046 1.214 8.248 3.417a11.59 11.59 0 0 1 3.412 8.25l-.008 11.506-.045.985-1.712-.982a1.07 1.07 0 0 1-.538-.926V19.49a4.387 4.387 0 0 0-4.383-4.383H25.995a4.387 4.387 0 0 0-4.382 4.383v5.806c0 .381-.207.737-.538.926l-1.719.985-.045-.99zm-1.128 22.86a2.854 2.854 0 0 1-2.792-2.218l-.428-1.85a2.85 2.85 0 0 1 .548-2.43 2.85 2.85 0 0 1 2.244-1.082h.487l.342 7.403.011.176zm4.762 22.668 1.952-.762q.705 1.051 1.573 1.93a2.88 2.88 0 0 0-.525 2.579 14.9 14.9 0 0 1-3-3.747m21.95-2.155c.136.354.363.663.652.897a11.85 11.85 0 0 1-9.833 5.177 11.85 11.85 0 0 1-9.833-5.177c.29-.234.516-.543.652-.897a9.7 9.7 0 0 0 .63-3.953 22.6 22.6 0 0 0 3.784 2.432c1.492.76 3.128 1.14 4.765 1.14 1.638 0 3.274-.38 4.766-1.14a22.6 22.6 0 0 0 3.785-2.432 9.8 9.8 0 0 0 .632 3.953m-4.91-2.495a9.43 9.43 0 0 1-8.543-.003 21.64 21.64 0 0 1-11.765-18.242l-.263-5.696 2.205-1.264a2.17 2.17 0 0 0 1.087-1.875v-5.806a3.29 3.29 0 0 1 3.29-3.289h19.442a3.29 3.29 0 0 1 3.289 3.29v5.805c0 .774.417 1.491 1.087 1.875l2.2 1.261-.26 5.696a21.64 21.64 0 0 1-11.77 18.248m16.484-22.086-.428 1.85a2.85 2.85 0 0 1-2.793 2.219h-.417c.003-.061.01-.12.011-.181l.34-7.399h.495c.878 0 1.696.396 2.243 1.083.547.688.747 1.572.549 2.428"/><path fill="#E1EAF8" fill-rule="evenodd" d="M10.207 69h26.587c.666 0 1.206.778 1.206 1.735v7.53c0 .957-.541 1.735-1.207 1.735H10.207C9.541 80 9 79.222 9 78.265v-7.53C9 69.778 9.541 69 10.207 69M13 72a.5.5 0 0 0 0 1h19a.5.5 0 0 0 0-1zm0 4a.5.5 0 0 0 0 1h15a.5.5 0 0 0 0-1z" clip-rule="evenodd"/><rect width="24" height="24" x="53" y="55" fill="#0166FF" rx="12"/><path fill="#fff" d="M68.354 65.521a.5.5 0 0 0-.708.708zm1.146 1.854-.354.354a.5.5 0 0 0 .708 0zm2.979-2.271a.5.5 0 0 0-.708-.708zM65.7 63.4a1.9 1.9 0 0 1-1.9 1.9v1a2.9 2.9 0 0 0 2.9-2.9zm-1.9 1.9a1.9 1.9 0 0 1-1.9-1.9h-1a2.9 2.9 0 0 0 2.9 2.9zm-1.9-1.9c0-1.05.85-1.9 1.9-1.9v-1a2.9 2.9 0 0 0-2.9 2.9zm1.9-1.9c1.05 0 1.9.85 1.9 1.9h1a2.9 2.9 0 0 0-2.9-2.9zm4.3 8.8c0 .789-.027 1.205-.416 1.522-.213.174-.576.348-1.208.476-.63.127-1.493.202-2.676.202v1c1.217 0 2.154-.076 2.874-.222.718-.146 1.255-.367 1.642-.681.81-.66.784-1.595.784-2.297zm-4.3 2.2c-1.183 0-2.046-.075-2.676-.202-.632-.128-.995-.302-1.208-.477-.39-.316-.416-.732-.416-1.521h-1c0 .702-.027 1.636.784 2.297.387.315.924.535 1.642.68.72.147 1.657.223 2.874.223zm-4.3-2.2c0-.485.355-1.025 1.151-1.473.78-.44 1.893-.727 3.149-.727v-1c-1.395 0-2.683.317-3.64.855-.94.53-1.66 1.339-1.66 2.345zm4.3-2.2c1.256 0 2.368.287 3.149.727.796.448 1.151.988 1.151 1.473h1c0-1.006-.72-1.816-1.66-2.345-.957-.538-2.245-.855-3.64-.855zm3.846-1.871 1.5 1.5.708-.708-1.5-1.5zm2.208 1.5 2.625-2.625-.708-.708-2.625 2.625z"/></svg>