<svg width="80" height="80" viewBox="0 0 80 80" fill="none" xmlns="http://www.w3.org/2000/svg">
<path d="M54.8125 69.9082C54.4734 69.9082 54.1984 70.1831 54.1984 70.5223C54.1984 72.866 52.2984 74.766 49.9547 74.766H31.1953C29.6859 74.766 28.4609 75.991 28.4609 77.5004H49.9547C53.8094 77.5004 56.9328 74.3754 56.9328 70.5223V69.9082H54.8125Z" fill="#E1EAF8"/>
<path d="M43.9438 8.05313H32.4609C31.5203 8.05313 30.6844 7.45156 30.3859 6.55781L29.0312 2.5H47.3719L46.0187 6.55781C45.8732 6.99307 45.5946 7.37159 45.2223 7.63991C44.8499 7.90823 44.4027 8.05277 43.9438 8.05313Z" fill="#E1EAF8"/>
<path d="M43.0126 63.489C43.1098 63.4567 43.1916 63.3992 43.2544 63.3254C43.3157 63.2537 43.3574 63.1674 43.3754 63.0749C43.3933 62.9823 43.3871 62.8867 43.3571 62.7973C43.3344 62.7292 43.2985 62.6662 43.2515 62.612C43.2044 62.5578 43.1471 62.5134 43.0828 62.4814C43.0186 62.4494 42.9486 62.4304 42.877 62.4255C42.8054 62.4206 42.7335 62.4299 42.6654 62.4528L38.8081 63.7475C38.74 63.7702 38.677 63.8061 38.6228 63.8532C38.5686 63.9003 38.5242 63.9576 38.4922 64.0218C38.4602 64.0861 38.4412 64.156 38.4363 64.2277C38.4314 64.2993 38.4407 64.3712 38.4636 64.4392C38.4863 64.5073 38.5222 64.5703 38.5693 64.6245C38.6164 64.6787 38.6737 64.7231 38.7379 64.7551C38.8022 64.7871 38.8722 64.8061 38.9438 64.811C39.0154 64.8159 39.0873 64.8066 39.1553 64.7837L43.0126 63.489Z" fill="#FD4E4E"/>
<path d="M47.5147 71.9679C47.6402 71.9458 47.7541 71.8806 47.8367 71.7835C47.8792 71.7336 47.9142 71.6731 47.9377 71.6069L49.2608 67.7595C49.3586 67.4734 49.2072 67.1619 48.9211 67.0641C48.635 66.9663 48.3235 67.1178 48.2257 67.4039L46.9027 71.2513C46.8612 71.3718 46.8632 71.503 46.9082 71.6223C46.9532 71.7415 47.0384 71.8413 47.1491 71.9044C47.2599 71.9675 47.3892 71.99 47.5147 71.9679Z" fill="#FD4E4E"/>
<path d="M68.8467 44.3216C68.7496 44.3538 68.6678 44.4114 68.605 44.4851C68.5437 44.5568 68.502 44.6431 68.484 44.7357C68.466 44.8282 68.4723 44.9239 68.5023 45.0133C68.5249 45.0814 68.5608 45.1443 68.6079 45.1986C68.655 45.2528 68.7123 45.2971 68.7766 45.3291C68.8408 45.3612 68.9108 45.3802 68.9824 45.3851C69.054 45.39 69.1259 45.3807 69.1939 45.3577L73.0513 44.063C73.1194 44.0403 73.1823 44.0044 73.2365 43.9574C73.2908 43.9103 73.3351 43.853 73.3671 43.7887C73.3991 43.7245 73.4181 43.6545 73.4231 43.5829C73.428 43.5113 73.4187 43.4394 73.3957 43.3713C73.3731 43.3032 73.3372 43.2403 73.2901 43.1861C73.243 43.1318 73.1857 43.0875 73.1214 43.0555C73.0572 43.0235 72.9872 43.0045 72.9156 42.9995C72.844 42.9946 72.7721 43.0039 72.7041 43.0269L68.8467 44.3216Z" fill="#FD4E4E"/>
<path d="M64.3447 35.8427C64.2192 35.8647 64.1053 35.9299 64.0227 36.027C63.9802 36.077 63.9451 36.1374 63.9217 36.2036L62.5986 40.051C62.5008 40.3371 62.6522 40.6486 62.9383 40.7464C63.2244 40.8442 63.5359 40.6928 63.6337 40.4067L64.9567 36.5593C64.9982 36.4387 64.9962 36.3075 64.9512 36.1883C64.9062 36.069 64.821 35.9693 64.7102 35.9062C64.5995 35.8431 64.4702 35.8206 64.3447 35.8427Z" fill="#FD4E4E"/>
<path d="M56.2234 69.6332C56.2234 69.3316 56.4688 69.0863 56.7703 69.0863C57.0734 69.0863 57.3172 69.3301 57.3156 69.6332V70.5223C57.3156 74.6707 53.9406 78.0473 49.7906 78.0473H26.2828C22.1344 78.0473 18.7578 74.6723 18.7578 70.5223L18.7584 67.9998L18.7579 64.2142C18.7578 63.9117 19.003 63.6665 19.3055 63.6665C19.6079 63.6665 19.8531 63.9117 19.8531 64.2141V70.5223C19.8531 74.0676 22.7375 76.9535 26.2844 76.9535H49.7922C53.3375 76.9535 56.2234 74.0691 56.2234 70.5223V69.6332Z" fill="#9A9A9A"/>
<path d="M27.3863 38.5645H46.5066C46.8082 38.5645 47.0535 38.3191 47.0535 38.0176C47.0535 37.716 46.8082 37.4707 46.5066 37.4707H27.3863C27.0848 37.4707 26.8395 37.716 26.8395 38.0176C26.8395 38.3191 27.0848 38.5645 27.3863 38.5645Z" fill="#9A9A9A"/>
<path d="M27.3844 44.0035H41.5047C41.8062 44.0035 42.0516 43.7582 42.0516 43.4566C42.0516 43.155 41.8062 42.9097 41.5047 42.9097H27.3844C27.0828 42.9097 26.8375 43.155 26.8375 43.4566C26.8375 43.7582 27.0828 44.0035 27.3844 44.0035ZM37.0312 49.1129H27.3281C27.0266 49.1129 26.7812 49.3582 26.7812 49.6597C26.7812 49.9613 27.0266 50.2066 27.3281 50.2066H37.0312C37.3328 50.2066 37.5781 49.9613 37.5781 49.6597C37.5781 49.3582 37.3328 49.1129 37.0312 49.1129ZM37.0312 54.5519H27.3281C27.0266 54.5519 26.7812 54.7972 26.7812 55.0988C26.7812 55.4004 27.0266 55.6457 27.3281 55.6457H37.0312C37.3328 55.6457 37.5781 55.4004 37.5781 55.0988C37.5781 54.7972 37.3328 54.5519 37.0312 54.5519Z" fill="#9A9A9A"/>
<path d="M18.7609 9.47813V60.0273C18.7609 60.3298 19.0061 60.575 19.3086 60.575C19.6111 60.575 19.8563 60.3298 19.8563 60.0273V9.47813C19.8563 5.93281 22.7406 3.04688 26.2875 3.04688H49.7953C53.3406 3.04688 56.2266 5.93125 56.2266 9.47813V38.1719C56.2266 38.4734 56.4719 38.7188 56.7734 38.7188C57.075 38.7188 57.3203 38.4734 57.3203 38.1719V9.47813C57.3203 5.32969 53.9453 1.95312 49.7953 1.95312H26.2859C22.1375 1.95312 18.7609 5.32813 18.7609 9.47813Z" fill="#9A9A9A"/>
<path d="M35.5 18.2993H40.5" stroke="#9A9A9A" stroke-width="1.2" stroke-linecap="round"/>
<path d="M30.6 18.1568C30.6 16.1943 32.1909 14.6034 34.1534 14.6034H41.8461C43.8086 14.6034 45.3995 16.1943 45.3995 18.1568V28.9972C45.3995 30.3251 44.323 31.4015 42.9951 31.4015C42.5168 31.4015 42.0581 31.2115 41.7199 30.8733L39.0939 28.2475C38.4896 27.6433 37.5099 27.6433 36.9056 28.2475L34.2796 30.8733C33.9414 31.2115 33.4827 31.4015 33.0044 31.4015C31.6765 31.4015 30.6 30.3251 30.6 28.9972V18.1568Z" stroke="#9A9A9A" stroke-width="1.2"/>
<path d="M58.6482 49.9201H54.9621C55.109 49.717 55.2287 49.5204 55.3065 49.3771C55.3628 49.2734 55.4725 49.1929 55.6096 49.1719C55.6345 49.1681 55.6686 49.1667 55.8452 49.1667H57.8502C58.0267 49.1667 58.0609 49.1681 58.0858 49.1719C58.2584 49.1983 58.3315 49.2579 58.3764 49.3527C58.3875 49.376 58.4015 49.408 58.4185 49.4467C58.4693 49.5624 58.5463 49.7379 58.6482 49.9201Z" fill="#FD4E4E"/>
<path fill-rule="evenodd" clip-rule="evenodd" d="M57 66C63.6274 66 69 60.6274 69 54C69 47.3726 63.6274 42 57 42C50.3726 42 45 47.3726 45 54C45 60.6274 50.3726 66 57 66ZM55.8165 48.1667C55.6853 48.1666 55.5686 48.1665 55.4582 48.1834C55.0237 48.2499 54.6388 48.5112 54.4278 48.8999C54.3331 49.0742 54.1526 49.3586 53.9464 49.5931C53.8434 49.7103 53.7461 49.8011 53.6619 49.8596C53.5915 49.9085 53.5548 49.918 53.5483 49.9196C53.5476 49.9198 53.5473 49.9199 53.5473 49.92C53.5401 49.9201 53.5298 49.9201 53.5012 49.9201H51.6667C51.3905 49.9201 51.1667 50.144 51.1667 50.4201C51.1667 50.6963 51.3905 50.9201 51.6667 50.9201H62.3333C62.6095 50.9201 62.8333 50.6963 62.8333 50.4201C62.8333 50.144 62.6095 49.9201 62.3333 49.9201H60.1941C60.1622 49.9201 60.1531 49.9201 60.1457 49.9199L60.1337 49.9198C59.9401 49.9197 59.7886 49.8228 59.639 49.6189C59.5153 49.4502 59.4364 49.2727 59.3582 49.0966C59.3326 49.0389 59.307 48.9813 59.28 48.9243C59.0537 48.447 58.6361 48.2445 58.2371 48.1834C58.1267 48.1665 58.01 48.1666 57.8788 48.1667H55.8165ZM53.3332 51.9925C53.3141 51.7171 53.0752 51.5093 52.7998 51.5284C52.5243 51.5476 52.3165 51.7864 52.3357 52.0619L52.6185 56.13C52.6703 56.8756 52.7127 57.4857 52.8125 57.9662C52.9173 58.4705 53.0973 58.8982 53.47 59.2325C53.84 59.5644 54.289 59.7048 54.8111 59.7703C55.3137 59.8334 55.9479 59.8333 56.7302 59.8333H57.2688C58.0512 59.8333 58.6854 59.8334 59.1879 59.7703C59.71 59.7048 60.1591 59.5644 60.5291 59.2325C60.9018 58.8982 61.0818 58.4705 61.1865 57.9662C61.2864 57.4858 61.3288 56.8756 61.3806 56.1301L61.6634 52.0619C61.6826 51.7864 61.4748 51.5476 61.1993 51.5284C60.9238 51.5093 60.685 51.7171 60.6658 51.9925L60.3855 56.025C60.3305 56.815 60.2918 57.3568 60.2074 57.7628C60.1265 58.1527 60.0159 58.3495 59.8613 58.4881C59.7041 58.6292 59.4841 58.7253 59.0634 58.7781C58.6304 58.8324 58.0592 58.8333 57.2352 58.8333H56.7638C55.9398 58.8333 55.3686 58.8324 54.9356 58.7781C54.515 58.7253 54.295 58.6292 54.1377 58.4882C53.9832 58.3495 53.8726 58.1527 53.7916 57.7628C53.7073 57.3568 53.6685 56.815 53.6136 56.025L53.3332 51.9925ZM55.973 53.4366C55.9444 53.1619 55.6985 52.9625 55.4239 52.9911C55.1492 53.0198 54.9498 53.2656 54.9784 53.5403L55.2832 56.4627C55.3118 56.7374 55.5577 56.9368 55.8323 56.9082C56.107 56.8795 56.3064 56.6337 56.2778 56.359L55.973 53.4366ZM59.0206 53.5403C59.0493 53.2656 58.8498 53.0198 58.5752 52.9911C58.3005 52.9625 58.0547 53.1619 58.026 53.4366L57.7213 56.359C57.6926 56.6337 57.8921 56.8795 58.1667 56.9082C58.4414 56.9368 58.6872 56.7374 58.7159 56.4627L59.0206 53.5403Z" fill="#FD4E4E"/>
</svg>
