<svg xmlns="http://www.w3.org/2000/svg" width="81" height="80" fill="none"><path fill="#E1EAF8" d="M75.513 57.405a.524.524 0 0 1 .85.41v6.996a6.29 6.29 0 0 1-3.091 5.416l-3.614 2.136a1.018 1.018 0 0 1-1.527-1.018 5.57 5.57 0 0 1 1.872-3.442 8.94 8.94 0 0 0 3.055-5.95 6.58 6.58 0 0 1 2.455-4.548"/><path fill="#9A9A9A" d="M16.938 73.38a.547.547 0 0 0 .547-.547V61.96c.175-.047.347-.117.508-.21l9.195-5.309a.547.547 0 0 0-.546-.947l-9.196 5.31a1.02 1.02 0 0 1-1.016 0l-9.348-5.399a.547.547 0 0 0-.547.947l9.349 5.397c.16.094.332.163.508.21V72.83a.547.547 0 0 0 .546.549M69.002 47.895l8.49 4.902a2.12 2.12 0 0 1 1.056 1.827v14.209c0 .752-.404 1.451-1.054 1.826l-12.306 7.105a2.11 2.11 0 0 1-2.11 0L52.921 71.9a.546.546 0 1 1 .546-.947l10.156 5.864a1.02 1.02 0 0 0 1.016 0l12.306-7.104c.313-.182.508-.52.508-.88v-14.21a1.02 1.02 0 0 0-.508-.88l-8.49-4.9a.547.547 0 0 1 .547-.948M50.81 54.624V65.54a.547.547 0 1 1-1.093 0V54.627c0-.752.405-1.452 1.055-1.827l9.804-5.66a.545.545 0 1 1 .545.944l-9.802 5.66a1.02 1.02 0 0 0-.508.88"/><path fill="#9A9A9A" d="m3.578 52.797 9.807-5.661a.547.547 0 1 1 .546.947l-9.806 5.66a1.02 1.02 0 0 0-.508.88v14.21c0 .362.196.698.508.88l12.306 7.104c.314.182.703.182 1.016 0l9.276-5.778a.547.547 0 0 1 .547.947l-9.276 5.778a2.11 2.11 0 0 1-2.11 0L3.578 70.66a2.12 2.12 0 0 1-1.055-1.826v-14.21c0-.751.405-1.451 1.055-1.826M29.753 53.744l-9.807-5.661a.547.547 0 0 1 .546-.947l9.806 5.661a2.11 2.11 0 0 1 1.055 1.828v10.941a.546.546 0 1 1-1.092 0V54.623a1.02 1.02 0 0 0-.508-.88"/><path stroke="#E1EAF8" stroke-linecap="round" stroke-linejoin="round" d="m29.5 69 9.04 4.93a4 4 0 0 0 3.9-.038L51 69"/><path fill="#9A9A9A" d="M64.13 73.38a.547.547 0 0 0 .547-.547V61.961q.264-.07.507-.21l9.196-5.309a.547.547 0 0 0-.547-.947l-9.195 5.31a1.02 1.02 0 0 1-1.016 0l-9.349-5.397a.547.547 0 0 0-.547.947l9.35 5.397c.16.093.332.162.507.21v10.871c0 .302.245.547.547.547"/><path fill="#0166FF" stroke="#0166FF" stroke-linecap="round" stroke-linejoin="round" stroke-width="2.25" d="M40.5 40.5C47.956 40.5 54 34.456 54 27s-6.044-13.5-13.5-13.5S27 19.544 27 27s6.044 13.5 13.5 13.5"/><path stroke="#fff" stroke-linecap="round" stroke-linejoin="round" stroke-width="2.25" d="M40.508 18.9v8.107l5.723 5.724"/><path stroke="#E1EAF8" stroke-linecap="round" d="M17.5 51.5V40.14a4 4 0 0 1 1.781-3.328L22.75 34.5M65 51.5V40.14a4 4 0 0 0-1.781-3.328L59.75 34.5"/><path fill="#0166FF" d="M68.256 27.439a.5.5 0 0 1-.216-.048l-3.446-1.613a.513.513 0 0 1 .24-.974q.1.005.193.047l3.446 1.613a.51.51 0 0 1-.217.975m-3.913-13.19a.51.51 0 0 1-.235-.966l3.378-1.749a.512.512 0 1 1 .47.909l-3.378 1.75a.5.5 0 0 1-.235.056M11.512 27.44a.511.511 0 0 1-.216-.975l3.446-1.613a.512.512 0 0 1 .432.927l-3.446 1.613a.5.5 0 0 1-.216.048m3.913-13.19a.5.5 0 0 1-.235-.057l-3.378-1.749a.511.511 0 1 1 .47-.909l3.379 1.75a.511.511 0 0 1-.236.965"/></svg>