<svg width="80" height="80" viewBox="0 0 80 80" fill="none" xmlns="http://www.w3.org/2000/svg">
<path d="M58.9968 49.0953C58.6952 49.0953 58.4499 49.3406 58.4499 49.6422V70.0953C58.4499 73.8766 55.3733 76.9531 51.5921 76.9531H28.4062C24.6249 76.9531 21.5483 73.8766 21.5483 70.0953V18.3359C21.5483 18.0344 21.303 17.7891 21.0015 17.7891C20.6999 17.7891 20.4546 18.0344 20.4546 18.3359V70.0953C20.4546 74.4797 24.0218 78.0469 28.4062 78.0469H51.5937C55.978 78.0469 59.5452 74.4797 59.5452 70.0953V49.6422C59.5447 49.497 59.4867 49.358 59.3839 49.2555C59.2811 49.153 59.1419 49.0954 58.9968 49.0953ZM51.5937 1.95312H28.4062C24.0218 1.95312 20.4546 5.52031 20.4546 9.90469V14.6234C20.4546 14.925 20.6999 15.1703 21.0015 15.1703C21.303 15.1703 21.5483 14.925 21.5483 14.6234V9.90469C21.5483 6.12344 24.6249 3.04688 28.4062 3.04688H51.5937C55.3749 3.04688 58.4515 6.12344 58.4515 9.90469V23.2609C58.4515 23.5625 58.6968 23.8078 58.9983 23.8078C59.2999 23.8078 59.5452 23.5625 59.5452 23.2609V9.90469C59.5436 5.52031 55.9765 1.95312 51.5937 1.95312Z" fill="#9A9A9A"/>
<path d="M44.3454 8.70781C45.4704 8.70781 46.386 7.79219 46.386 6.66719C46.386 5.54219 45.4704 4.62656 44.3454 4.62656H35.6548C34.5298 4.62656 33.6142 5.54219 33.6142 6.66719C33.6142 7.79219 34.5298 8.70781 35.6548 8.70781H44.3454ZM45.2923 6.66719C45.2923 7.18906 44.8673 7.61406 44.3454 7.61406H42.1376C42.7579 7.17344 43.1985 6.5 43.336 5.72188H44.3454C44.8673 5.72031 45.2923 6.14531 45.2923 6.66719ZM30.5454 73.7719C30.5454 74.0734 30.7907 74.3188 31.0923 74.3188H48.9095C49.211 74.3188 49.4563 74.0734 49.4563 73.7719C49.4563 73.4703 49.211 73.225 48.9095 73.225H31.0923C30.7892 73.225 30.5454 73.4703 30.5454 73.7719Z" fill="#9A9A9A"/>
<path fill-rule="evenodd" clip-rule="evenodd" d="M26.7074 12H53.2936C53.96 12 54.5 12.7775 54.5 13.7352V21.2648C54.5 22.2225 53.959 23 53.2926 23H26.7074C26.041 23 25.5 22.2225 25.5 21.2648V13.7352C25.5 12.7775 26.041 12 26.7074 12ZM29.5 15C29.2239 15 29 15.2239 29 15.5C29 15.7761 29.2239 16 29.5 16H48.5C48.7761 16 49 15.7761 49 15.5C49 15.2239 48.7761 15 48.5 15H29.5ZM29.5 19C29.2239 19 29 19.2239 29 19.5C29 19.7761 29.2239 20 29.5 20H44.5C44.7761 20 45 19.7761 45 19.5C45 19.2239 44.7761 19 44.5 19H29.5Z" fill="#E1EAF8"/>
<rect x="24.5" y="52" width="8" height="2" rx="1" fill="#E1EAF8"/>
<rect x="35.5" y="52" width="8" height="2" rx="1" fill="#E1EAF8"/>
<rect x="46.5" y="52" width="8" height="2" rx="1" fill="#E1EAF8"/>
<rect x="24.5" y="56" width="8" height="2" rx="1" fill="#E1EAF8"/>
<rect x="35.5" y="56" width="8" height="2" rx="1" fill="#E1EAF8"/>
<rect x="46.5" y="56" width="8" height="2" rx="1" fill="#E1EAF8"/>
<rect x="24.5" y="60" width="8" height="2" rx="1" fill="#E1EAF8"/>
<rect x="35.5" y="60" width="8" height="2" rx="1" fill="#E1EAF8"/>
<rect x="46.5" y="60" width="8" height="2" rx="1" fill="#E1EAF8"/>
<path d="M67.2944 31H29.707C28.7648 31 28 31.9188 28 33.0507V41.9493C28 43.0812 28.7648 44 29.707 44H67.293C68.2352 44 69 43.0812 69 41.9493V33.0507C69 31.9188 68.2365 31 67.2944 31Z" fill="#0166FF"/>
<path d="M38.6499 40.9046L37.8547 38.9401H34.967L34.1718 40.9046H33L35.8354 34.0668H37.0072L39.8322 40.9046H38.6499ZM36.7875 36.1267C36.7666 36.0568 36.7282 35.9519 36.6724 35.812C36.6236 35.6658 36.5748 35.5195 36.5259 35.3733C36.4771 35.2207 36.4388 35.0967 36.4109 35.0014C36.376 35.1285 36.3341 35.2684 36.2853 35.421C36.2434 35.5672 36.2016 35.7039 36.1597 35.8311C36.1179 35.9519 36.083 36.0504 36.0551 36.1267L35.3018 38.0436H37.5408L36.7875 36.1267Z" fill="white"/>
<path d="M44.0264 34.0954C44.6611 34.0954 45.1913 34.1494 45.6167 34.2575C46.0492 34.3656 46.3735 34.5468 46.5898 34.8011C46.813 35.049 46.9246 35.3797 46.9246 35.7929C46.9246 36.0599 46.8723 36.2984 46.7676 36.5082C46.663 36.7116 46.5096 36.8833 46.3073 37.0232C46.112 37.1567 45.8678 37.2457 45.5749 37.2902V37.3379C45.8748 37.3824 46.1434 37.465 46.3805 37.5858C46.6177 37.7003 46.806 37.8688 46.9455 38.0913C47.085 38.3138 47.1548 38.6031 47.1548 38.9591C47.1548 39.3724 47.0466 39.7252 46.8304 40.0177C46.6212 40.3038 46.3177 40.5232 45.9202 40.6757C45.5295 40.8283 45.0622 40.9046 44.5182 40.9046H41.8397V34.0954H44.0264ZM44.2147 36.9373C44.8006 36.9373 45.2017 36.8515 45.4179 36.6798C45.6412 36.5082 45.7528 36.2539 45.7528 35.9169C45.7528 35.5736 45.6202 35.3288 45.3552 35.1826C45.0901 35.0363 44.6681 34.9632 44.0892 34.9632H42.9697V36.9373H44.2147ZM42.9697 37.7766V40.0463H44.3403C44.9471 40.0463 45.3691 39.9382 45.6063 39.7221C45.8434 39.5059 45.962 39.2198 45.962 38.8638C45.962 38.6476 45.9097 38.4569 45.8051 38.2916C45.7004 38.1262 45.5226 37.9991 45.2715 37.9101C45.0273 37.8211 44.6925 37.7766 44.267 37.7766H42.9697Z" fill="white"/>
<path d="M52.897 34.8869C52.5273 34.8869 52.196 34.9473 51.903 35.0681C51.6101 35.1826 51.359 35.3542 51.1497 35.5831C50.9474 35.812 50.7905 36.0886 50.6789 36.4128C50.5743 36.7371 50.522 37.1026 50.522 37.5095C50.522 38.0436 50.6091 38.5077 50.7835 38.9019C50.9579 39.2897 51.2195 39.5886 51.5682 39.7984C51.917 40.0082 52.3564 40.1131 52.8865 40.1131C53.2074 40.1131 53.5143 40.0876 53.8072 40.0368C54.1072 39.9796 54.4106 39.9064 54.7175 39.8174V40.7044C54.4245 40.8061 54.1246 40.8792 53.8177 40.9237C53.5108 40.9746 53.1551 41 52.7505 41C51.9902 41 51.3555 40.8569 50.8463 40.5708C50.3441 40.2847 49.9674 39.8778 49.7163 39.3501C49.4652 38.8224 49.3397 38.2057 49.3397 37.5C49.3397 36.985 49.4164 36.5145 49.5698 36.0886C49.7303 35.6562 49.9605 35.2843 50.2604 34.9728C50.5603 34.6612 50.93 34.4228 51.3694 34.2575C51.8158 34.0858 52.3285 34 52.9075 34C53.2841 34 53.6538 34.0381 54.0165 34.1144C54.3792 34.1844 54.707 34.2861 55 34.4196L54.5815 35.2779C54.3374 35.1762 54.0723 35.0872 53.7863 35.0109C53.5073 34.9282 53.2109 34.8869 52.897 34.8869Z" fill="white"/>
</svg>
