<svg xmlns="http://www.w3.org/2000/svg" width="80" height="80" fill="none"><path fill="#E1EAF8" d="M60.82 47.759a2.18 2.18 0 0 0-2.178 2.178v22.869a1.867 1.867 0 0 1-1.862 1.865l-28.119-.028a2.176 2.176 0 0 0-2.178 2.175l30.295.03a4.04 4.04 0 0 0 4.042-4.042z"/><path fill="#0166FF" d="M60.823 12.126c-6.127 0-11.094 4.967-11.094 11.094s4.967 11.093 11.094 11.093 11.093-4.967 11.093-11.093c.002-6.127-4.965-11.094-11.093-11.094"/><path fill="#fff" d="m59.864 27.049 7.061-6.747a.963.963 0 0 0-1.325-1.398l-6.41 6.109-2.868-2.735a.96.96 0 0 0-1.391.008.96.96 0 0 0 .066 1.39l3.53 3.373a.976.976 0 0 0 1.337 0"/><path fill="#0166FF" d="M69.834 53.439a.55.55 0 0 1-.231-.052l-3.684-1.725a.547.547 0 0 1 .462-.99l3.684 1.724a.547.547 0 0 1-.23 1.042M65.65 39.335a.546.546 0 0 1-.252-1.032l3.613-1.87a.548.548 0 0 1 .503.971l-3.613 1.87a.54.54 0 0 1-.251.061M9.16 53.438a.546.546 0 0 1-.23-1.042l3.684-1.725a.55.55 0 0 1 .726.264.55.55 0 0 1-.264.727l-3.684 1.725a.6.6 0 0 1-.231.051m4.185-14.103a.6.6 0 0 1-.252-.06l-3.612-1.87a.547.547 0 1 1 .503-.973l3.613 1.87a.547.547 0 0 1-.252 1.033"/><path fill="#E1EAF8" d="m13.612 68.67 4.053-1.495v5.62c0 2.043-1.51 3.73-3.473 4.013l-.582.042a4.053 4.053 0 0 1-4.053-4.053v-4.54c0-.842.908-1.37 1.64-.955z"/><path fill="#9A9A9A" d="M51.347 13.777a.547.547 0 0 0-.547-.547H27.683a.547.547 0 0 0 0 1.094H50.8a.547.547 0 0 0 .547-.547m-28.888 7.597c0 .301.246.546.547.546h23.896a.547.547 0 0 0 0-1.093H23.006a.547.547 0 0 0-.547.547m.547 8.28h24.985a.547.547 0 0 0 0-1.094H23.006a.547.547 0 0 0 0 1.093m27.3 14.37H28.697a.547.547 0 0 0 0 1.093h21.608a.548.548 0 0 0 .001-1.093m5.691 7.732h-32.99a.547.547 0 0 0 0 1.094h32.99a.547.547 0 0 0 0-1.094m.547 8.279a.547.547 0 0 0-.547-.547h-32.99a.547.547 0 0 0 0 1.093h32.99a.546.546 0 0 0 .547-.547M25.145 67.22a.547.547 0 0 0 0 1.094h28.713a.547.547 0 0 0 0-1.094z"/><path fill="#9A9A9A" d="M60.82 10.132a.547.547 0 0 0 .546-.546V7.848c0-.647-.23-1.275-.651-1.767L57.41 2.206a2.094 2.094 0 0 0-2.91-.28l-3.446 2.749a1.004 1.004 0 0 1-1.258 0L46.145 1.76a2.09 2.09 0 0 0-2.622 0L39.87 4.675a1.004 1.004 0 0 1-1.258 0l-3.65-2.914a2.09 2.09 0 0 0-2.622 0L28.69 4.675a1 1 0 0 1-1.258 0l-3.445-2.749a2.094 2.094 0 0 0-2.911.28L17.77 6.08a2.72 2.72 0 0 0-.652 1.767v64.99c0 1.727-1.575 3.465-3.526 3.465-1.925 0-3.488-1.58-3.488-3.507v-4.53c0-.296.204-.434.29-.479a.53.53 0 0 1 .557.036l1.461 1.019c.717.5 1.681.5 2.399 0a.545.545 0 0 0-.217-.987.55.55 0 0 0-.408.09 1.01 1.01 0 0 1-1.149 0l-1.46-1.019a1.63 1.63 0 0 0-1.69-.108c-.54.283-.876.838-.876 1.447v4.531c0 2.538 2.064 4.6 4.6 4.6h43.165c2.532 0 4.59-2.059 4.59-4.589V36.965a.547.547 0 0 0-1.094 0v35.84a3.5 3.5 0 0 1-3.496 3.495l-40.151.003a4.61 4.61 0 0 0 1.586-3.467V7.848c0-.387.139-.764.39-1.058l3.305-3.875a1.005 1.005 0 0 1 1.397-.134l3.445 2.748a2.09 2.09 0 0 0 2.622 0l3.652-2.914a1 1 0 0 1 1.258 0l3.65 2.914c.771.616 1.85.617 2.623 0l3.65-2.914a1.004 1.004 0 0 1 1.258 0l3.651 2.914a2.09 2.09 0 0 0 2.622 0l3.446-2.748a1.003 1.003 0 0 1 1.396.134l3.305 3.875c.252.296.39.67.39 1.058v1.74c0 .3.246.544.547.544"/></svg>