<svg xmlns="http://www.w3.org/2000/svg" width="80" height="80" fill="none"><path fill="#9A9A9A" d="M53.678 25.686h-.47l.006-10.972a12.67 12.67 0 0 0-3.733-9.023 12.67 12.67 0 0 0-9.02-3.738H35.27c-2.808 0-5.549.79-7.927 2.281l-1.958 1.23c-.476.3-1.027.458-1.59.458a5.584 5.584 0 0 0-5.578 5.578v14.186h-.463a3.94 3.94 0 0 0-3.1 1.495 3.94 3.94 0 0 0-.758 3.358l.428 1.85a3.94 3.94 0 0 0 3.857 3.066h.498a22.74 22.74 0 0 0 7.29 14.448l.062.558a8.6 8.6 0 0 1-.517 4.02 1.06 1.06 0 0 1-.6.603l-4.845 1.893a.548.548 0 0 0 .398 1.02l1.45-.566c1.392 2.51 3.39 4.569 5.807 5.975a15.9 15.9 0 0 0 7.991 2.138c2.827 0 5.59-.74 7.99-2.138 2.418-1.406 4.416-3.467 5.809-5.975l1.55.605a.547.547 0 0 0 .397-1.019l-4.946-1.933a1.06 1.06 0 0 1-.6-.603 8.6 8.6 0 0 1-.517-4.02l.062-.56a22.74 22.74 0 0 0 7.285-14.446h.503a3.94 3.94 0 0 0 3.856-3.066l.428-1.85a3.94 3.94 0 0 0-.758-3.358 3.93 3.93 0 0 0-3.096-1.495M19.31 11.5a4.49 4.49 0 0 1 4.485-4.484c.768 0 1.521-.217 2.172-.625l1.957-1.23a13.8 13.8 0 0 1 7.346-2.114h5.19c3.116 0 6.046 1.214 8.247 3.417a11.59 11.59 0 0 1 3.413 8.25l-.008 11.506-.045.985-1.713-.982a1.07 1.07 0 0 1-.537-.926V19.49a4.387 4.387 0 0 0-4.383-4.383h-19.44a4.387 4.387 0 0 0-4.382 4.383v5.806c0 .381-.206.737-.538.926l-1.718.985-.046-.99zm-1.128 22.86a2.854 2.854 0 0 1-2.792-2.218l-.428-1.85a2.85 2.85 0 0 1 .548-2.43 2.85 2.85 0 0 1 2.244-1.082h.488l.342 7.403q.006.089.01.176zm4.763 22.668 1.951-.762q.705 1.051 1.574 1.93a2.88 2.88 0 0 0-.525 2.579 14.9 14.9 0 0 1-3-3.747m21.95-2.155c.136.354.362.663.651.897a11.85 11.85 0 0 1-9.832 5.177 11.85 11.85 0 0 1-9.833-5.177c.289-.234.515-.543.651-.897a9.7 9.7 0 0 0 .63-3.953 22.6 22.6 0 0 0 3.784 2.432c1.492.76 3.128 1.14 4.766 1.14s3.273-.38 4.765-1.14a22.6 22.6 0 0 0 3.785-2.432 9.8 9.8 0 0 0 .633 3.953m-4.911-2.495a9.43 9.43 0 0 1-8.542-.003 21.64 21.64 0 0 1-11.766-18.242l-.262-5.696 2.204-1.264a2.17 2.17 0 0 0 1.088-1.875v-5.806a3.29 3.29 0 0 1 3.289-3.289h19.442a3.29 3.29 0 0 1 3.289 3.29v5.805c0 .774.417 1.491 1.087 1.875l2.2 1.261-.26 5.696a21.64 21.64 0 0 1-11.77 18.248m16.484-22.086-.428 1.85a2.85 2.85 0 0 1-2.792 2.219h-.417c.003-.061.009-.12.01-.181l.34-7.399h.495c.878 0 1.697.396 2.244 1.083.547.688.747 1.572.548 2.428"/><path fill="#9A9A9A" stroke="#9A9A9A" stroke-width=".5" d="M78.2 65.13c0 .673-.548 1.22-1.221 1.22H53.33a.331.331 0 1 1 0-.661H76.98c.307 0 .558-.251.558-.559v-25.1a.56.56 0 0 0-.558-.557H58.33a.331.331 0 1 1 0-.663H76.98c.672 0 1.22.548 1.22 1.22z"/><path fill="#9A9A9A" stroke="#9A9A9A" stroke-width=".5" d="M58.235 45.795H72.41a.331.331 0 0 0 0-.662H58.235a.331.331 0 0 0 0 .662Zm0 4.745H72.41a.331.331 0 0 0 0-.662H58.235a.331.331 0 0 0 0 .662Zm0 4.746H72.41a.331.331 0 0 0 0-.662H58.235a.331.331 0 0 0 0 .662Zm0 4.745H72.41a.331.331 0 0 0 0-.662H58.235a.331.331 0 0 0 0 .662Z"/><path fill="#0166FF" fill-rule="evenodd" d="M12 57C5.925 57 1 61.925 1 68s4.925 11 11 11 11-4.925 11-11-4.925-11-11-11m3.458 5.982a2.327 2.327 0 0 0-3.29 0l-1.585 1.585a2.33 2.33 0 0 0-.682 1.646l.004.141c.027.422.167.83.407 1.178l.046.062-.881.881-.053.06a.6.6 0 0 0-.123.365v.6h-.6l-.07.004a.6.6 0 0 0-.53.596v.6h-.6a.6.6 0 0 0-.424.176l-.249.248-.09.097c-.288.344-.437.753-.437 1.176v.703l.005.106c.075.639.586 1.094 1.195 1.094h.703l.133-.005.132-.017a1.8 1.8 0 0 0 1.008-.505l3.529-3.53.063.047a2.33 2.33 0 0 0 2.965-.272l1.585-1.585a2.327 2.327 0 0 0 0-3.29zm-1.36 2.318h.012a1.2 1.2 0 1 1 0 2.4h-.012a1.2 1.2 0 1 1 0-2.4" clip-rule="evenodd"/></svg>