<svg xmlns="http://www.w3.org/2000/svg" width="80" height="80" fill="none"><path fill="#9A9A9A" d="M58.997 50.095a.547.547 0 0 0-.547.547v19.453a6.866 6.866 0 0 1-6.857 6.858H28.407a6.866 6.866 0 0 1-6.858-6.858v-51.76a.547.547 0 0 0-1.094 0v51.76c0 4.385 3.567 7.952 7.952 7.952h23.187c4.384 0 7.952-3.567 7.952-7.952V50.642a.55.55 0 0 0-.549-.547M51.594 1.953H28.407c-4.385 0-7.952 3.567-7.952 7.952v4.718a.547.547 0 0 0 1.094 0V9.905a6.866 6.866 0 0 1 6.858-6.858h23.187a6.866 6.866 0 0 1 6.858 6.858V21.26a.547.547 0 0 0 1.094 0V9.905c-.002-4.385-3.569-7.952-7.952-7.952"/><path fill="#9A9A9A" d="M44.345 8.708c1.125 0 2.04-.915 2.04-2.04s-.915-2.041-2.04-2.041h-8.69c-1.126 0-2.041.916-2.041 2.04 0 1.126.915 2.041 2.04 2.041zm.947-2.04a.95.95 0 0 1-.947.946h-2.208a2.95 2.95 0 0 0 1.199-1.892h1.009a.946.946 0 0 1 .947.946M30.545 73.772c0 .302.245.547.547.547h17.817a.548.548 0 0 0 0-1.094H31.092a.547.547 0 0 0-.547.547"/><path fill="#FD4E4E" fill-rule="evenodd" d="M50.57 17.01c-1.537-2.68-5.402-2.68-6.94 0L31.037 38.97c-1.53 2.667.396 5.99 3.47 5.99h25.19c3.073 0 4.999-3.323 3.47-5.99zm-1.408 17.371a.7.7 0 0 1-.227.484.76.76 0 0 1-.515.199h-2.637c-.4 0-.727-.303-.743-.683l-.439-10.683a.68.68 0 0 1 .207-.52.773.773 0 0 1 .536-.218h3.513c.422 0 .76.335.743.738zm-.201 4.897a.7.7 0 0 1-.227.484.76.76 0 0 1-.516.198h-2.235c-.4 0-.727-.302-.743-.682l-.08-1.956a.68.68 0 0 1 .207-.52.75.75 0 0 1 .536-.218h2.394c.422 0 .76.335.743.738z" clip-rule="evenodd"/><rect width="8" height="2" x="25" y="53" fill="#E1EAF8" rx="1"/><rect width="8" height="2" x="36" y="53" fill="#E1EAF8" rx="1"/><rect width="8" height="2" x="47" y="53" fill="#E1EAF8" rx="1"/><rect width="8" height="2" x="25" y="57" fill="#E1EAF8" rx="1"/><rect width="8" height="2" x="36" y="57" fill="#E1EAF8" rx="1"/><rect width="8" height="2" x="47" y="57" fill="#E1EAF8" rx="1"/><rect width="8" height="2" x="25" y="61" fill="#E1EAF8" rx="1"/><rect width="8" height="2" x="36" y="61" fill="#E1EAF8" rx="1"/><rect width="8" height="2" x="47" y="61" fill="#E1EAF8" rx="1"/></svg>