<svg xmlns="http://www.w3.org/2000/svg" width="80" height="80" fill="none"><path fill="#E1EAF8" d="M54.813 69.908a.614.614 0 0 0-.615.614c0 2.344-1.9 4.244-4.243 4.244h-18.76a2.735 2.735 0 0 0-2.734 2.734h21.494a6.98 6.98 0 0 0 6.978-6.978v-.614zM43.944 8.053H32.46c-.94 0-1.777-.601-2.075-1.495L29.03 2.5h18.34L46.02 6.558a2.19 2.19 0 0 1-2.075 1.495"/><path fill="#9A9A9A" d="M44.203 21.348a.467.467 0 0 0-.466.467v.875c0 .729 0 1.252-.028 1.665-.028.408-.082.675-.173.894a2.64 2.64 0 0 1-1.426 1.426c-.32.133-.728.182-1.506.196h-.02c-.247.004-.463.008-.643.028a1.4 1.4 0 0 0-.563.17c-.18.105-.31.245-.423.4a7 7 0 0 0-.334.53l-.346.586a.323.323 0 0 1-.548 0L37.381 28c-.122-.206-.23-.388-.334-.531a1.4 1.4 0 0 0-.423-.4 1.4 1.4 0 0 0-.564-.17c-.18-.02-.396-.024-.642-.028h-.02c-.779-.014-1.187-.063-1.506-.196a2.64 2.64 0 0 1-1.427-1.426c-.09-.219-.144-.486-.172-.894-.028-.413-.029-.936-.029-1.665v-.62c0-1.024.001-1.76.055-2.333.054-.567.158-.928.334-1.215.217-.355.515-.653.87-.87.287-.177.648-.28 1.215-.334.573-.054 1.309-.055 2.333-.055h2.316a.467.467 0 0 0 .468-.466.463.463 0 0 0-.461-.464h-2.348c-.994 0-1.774 0-2.397.06-.634.06-1.154.185-1.612.465-.48.294-.883.698-1.178 1.178-.28.458-.406.978-.466 1.612-.059.623-.059 1.403-.059 2.397v.662c0 .708 0 1.263.03 1.71.032.457.096.837.241 1.188a3.57 3.57 0 0 0 1.93 1.93c.5.206 1.068.252 1.847.266.272.004.445.008.576.022.123.014.17.034.198.05.03.017.07.048.14.144.075.103.16.246.294.474l.336.568c.48.81 1.67.81 2.149 0l.336-.568c.135-.228.22-.37.295-.474a.5.5 0 0 1 .139-.144.5.5 0 0 1 .198-.05c.132-.014.304-.018.577-.022.778-.014 1.347-.06 1.846-.266a3.57 3.57 0 0 0 1.93-1.93c.145-.351.21-.73.24-1.187.031-.448.031-1.003.031-1.711v-.896a.463.463 0 0 0-.464-.463"/><path fill="#9A9A9A" d="m41.999 16.79-2.656 2.656a4 4 0 0 0-.33.355q-.154.196-.262.424a4 4 0 0 0-.17.453l-.388 1.165a.761.761 0 0 0 .963.963l1.165-.389c.192-.064.325-.108.453-.17a2.3 2.3 0 0 0 .424-.261c.112-.087.212-.187.355-.33L44.208 19a1.562 1.562 0 1 0-2.21-2.21m-1.085 4.19a3 3 0 0 1-.288.272 1.4 1.4 0 0 1-.252.156c-.07.033-.146.06-.373.135l-.643.214-.117-.117.215-.643c.075-.226.101-.303.135-.373q.064-.135.155-.252c.048-.06.105-.118.273-.287l1.852-1.852a2.33 2.33 0 0 0 .895.894l-1.852 1.852m2.637-2.637-.082.081-.031-.01a1.4 1.4 0 0 1-.523-.33 1.4 1.4 0 0 1-.33-.523l-.01-.031.081-.082a.632.632 0 1 1 .894.894"/><path stroke="#9A9A9A" stroke-linecap="round" stroke-linejoin="round" d="M34.666 20.083h.625M34.666 22.167h1.25M34.666 24.25h4.167"/><path fill="#FD4E4E" d="M43.017 63.49a.546.546 0 1 0-.347-1.036l-3.858 1.294a.545.545 0 1 0 .347 1.036zM47.519 71.968a.55.55 0 0 0 .423-.36l1.323-3.848a.547.547 0 1 0-1.035-.356l-1.323 3.848a.547.547 0 0 0 .612.716M68.849 44.321a.54.54 0 0 0-.363.414.546.546 0 0 0 .71.622l3.857-1.294a.545.545 0 1 0-.347-1.037zM64.347 35.842a.55.55 0 0 0-.423.361L62.6 40.051a.547.547 0 1 0 1.036.355l1.323-3.847a.547.547 0 0 0-.612-.717"/><path fill="#9A9A9A" d="M56.225 69.633c0-.302.246-.547.547-.547.303 0 .547.244.546.547v.889c0 4.148-3.375 7.525-7.525 7.525H26.285c-4.149 0-7.525-3.375-7.525-7.525v-6.308a.548.548 0 0 1 1.095 0v6.308a6.44 6.44 0 0 0 6.431 6.431h23.508a6.44 6.44 0 0 0 6.431-6.431zM27.388 38.565h19.12a.548.548 0 0 0 0-1.094h-19.12a.547.547 0 0 0 0 1.094M27.386 44.004h14.12a.547.547 0 0 0 0-1.094h-14.12a.547.547 0 0 0 0 1.094m9.647 5.109H27.33a.547.547 0 0 0 0 1.094h9.703a.547.547 0 0 0 0-1.094m0 5.439H27.33a.547.547 0 0 0 0 1.094h9.703a.547.547 0 0 0 0-1.094"/><path fill="#9A9A9A" d="M18.76 9.478v50.55a.548.548 0 1 0 1.096 0V9.477a6.44 6.44 0 0 1 6.432-6.431h23.507a6.44 6.44 0 0 1 6.432 6.431v28.694a.548.548 0 0 0 1.093 0V9.478c0-4.148-3.375-7.525-7.525-7.525h-23.51c-4.148 0-7.524 3.375-7.524 7.525"/><path fill="#FD4E4E" d="M58.648 49.92h-3.686c.147-.203.267-.4.344-.543a.41.41 0 0 1 .304-.205 2 2 0 0 1 .235-.005h2.005c.177 0 .21.001.236.005.172.026.245.086.29.18q.018.036.043.095c.05.115.127.29.23.473"/><path fill="#FD4E4E" fill-rule="evenodd" d="M57 66c6.627 0 12-5.373 12-12s-5.373-12-12-12-12 5.373-12 12 5.373 12 12 12m-1.184-17.833c-.13 0-.247 0-.358.016-.434.067-.82.328-1.03.717a4 4 0 0 1-.482.693q-.156.177-.284.267a.4.4 0 0 1-.115.06h-1.88a.5.5 0 1 0 0 1h10.666a.5.5 0 1 0 0-1h-2.199c-.194 0-.345-.097-.495-.301a2.7 2.7 0 0 1-.28-.522l-.079-.173c-.226-.477-.644-.68-1.043-.74-.11-.017-.227-.017-.358-.017zm-2.483 3.825a.5.5 0 0 0-.997.07l.282 4.068c.052.746.095 1.356.194 1.836.105.505.285.932.658 1.267.37.331.819.472 1.341.537.503.063 1.137.063 1.92.063h.538c.782 0 1.416 0 1.919-.063.522-.065.971-.206 1.341-.538.373-.334.553-.761.657-1.266.1-.48.143-1.09.195-1.836l.282-4.068a.5.5 0 1 0-.997-.07l-.28 4.033c-.056.79-.094 1.332-.179 1.738-.08.39-.191.587-.346.725-.157.141-.377.237-.798.29-.433.054-1.004.055-1.828.055h-.471c-.824 0-1.395 0-1.828-.055-.421-.053-.641-.149-.798-.29-.155-.139-.265-.335-.346-.725-.085-.406-.123-.948-.178-1.738zm2.64 1.445a.5.5 0 1 0-.995.103l.305 2.923a.5.5 0 1 0 .995-.104zm3.048.103a.5.5 0 1 0-.995-.103l-.305 2.922a.5.5 0 1 0 .995.104z" clip-rule="evenodd"/></svg>