<svg xmlns="http://www.w3.org/2000/svg" width="81" height="80" fill="none"><path fill="#E1EAF8" d="M46.37 65.342h6.525v-6.478h-3.11a.547.547 0 0 1 0-1.094h3.099a2.284 2.284 0 0 0-3.08-1.922L39.44 59.751a2.965 2.965 0 0 0-1.92 2.777v2.553a3.5 3.5 0 0 0 3.501 3.501h10.122c.967 0 1.752-.784 1.752-1.751v-.394h-6.526a.548.548 0 0 1 0-1.095"/><path fill="#9A9A9A" d="M61.156 8.762h-7.604a.547.547 0 0 0 0 1.094h7.604c.78 0 1.414.634 1.414 1.414v64.267c0 .78-.634 1.414-1.414 1.414h-41.31c-.779 0-1.413-.634-1.413-1.414V11.27c0-.78.634-1.414 1.414-1.414h9.803l2.048 4.286a1.98 1.98 0 0 0 1.777 1.12h14.052c.754 0 1.451-.439 1.776-1.12l.097-.202h9.09v58.93H22.513V13.94h6.933a.548.548 0 0 0 0-1.094h-7.48a.547.547 0 0 0-.547.547v60.023c0 .302.246.547.547.547h37.069a.547.547 0 0 0 .547-.547V13.392a.547.547 0 0 0-.547-.547h-9.113l1.675-3.505c.17-.354.146-.765-.064-1.098a1.13 1.13 0 0 0-.964-.531h-5.257a4.9 4.9 0 0 0 .03-1.555c-.304-2.192-2.121-3.948-4.321-4.176a4.91 4.91 0 0 0-3.794 1.23 4.9 4.9 0 0 0-1.539 4.502h-5.26a1.135 1.135 0 0 0-1.135 1.05h-9.45a2.51 2.51 0 0 0-2.508 2.508v64.267a2.51 2.51 0 0 0 2.508 2.508h41.308a2.51 2.51 0 0 0 2.507-2.508V11.27a2.504 2.504 0 0 0-2.503-2.508m-22.393-1.92a1.738 1.738 0 1 1 3.476-.001 1.738 1.738 0 0 1-3.476.001m11.846 1.984c.013.02.007.036.003.044l-2.293 4.8a.88.88 0 0 1-.79.499h-2.55a4.66 4.66 0 0 0 2.018-2.105l1.558-3.256h2.017c.008-.002.023-.002.037.018"/><path fill="#9A9A9A" d="m31.826 41.189-2.833 2.833-1.223-1.224a.546.546 0 1 0-.773.774l1.609 1.61a.545.545 0 0 0 .772 0l3.22-3.221a.545.545 0 1 0-.772-.772m.774 7.595a.545.545 0 0 0-.774 0l-2.833 2.833-1.223-1.223a.546.546 0 1 0-.773.773l1.609 1.61a.545.545 0 0 0 .772 0l3.22-3.22a.543.543 0 0 0 .002-.773m-3.607 11.75c.141 0 .28-.053.386-.16l3.22-3.22a.546.546 0 1 0-.773-.773l-2.833 2.833-1.223-1.224a.546.546 0 1 0-.773.774l1.609 1.61a.54.54 0 0 0 .387.16m-.386 7.436a.545.545 0 0 0 .772 0l3.22-3.22a.546.546 0 1 0-.773-.774l-2.833 2.833-1.223-1.223a.546.546 0 1 0-.773.773zm7.563-24.237h18.139a.548.548 0 0 0 0-1.094h-18.14a.548.548 0 0 0 0 1.094m0 7.595h18.139a.548.548 0 0 0 0-1.094h-18.14a.548.548 0 0 0 0 1.094m0 7.595h18.139a.548.548 0 0 0 0-1.093h-18.14a.548.548 0 0 0 0 1.093m0 7.597h18.139a.548.548 0 0 0 0-1.094h-18.14a.548.548 0 0 0 0 1.094"/><path fill="#0166FF" d="M40.387 19a9.157 9.157 0 1 0 0 18.313 9.157 9.157 0 0 0 0-18.313"/><path fill="#fff" d="m39.595 31.317 5.827-5.569a.796.796 0 0 0-1.094-1.154l-5.29 5.042-2.367-2.257a.795.795 0 1 0-1.094 1.153l2.914 2.785a.805.805 0 0 0 1.104 0"/></svg>