<svg xmlns="http://www.w3.org/2000/svg" width="80" height="80" fill="none"><path fill="#E1EAF8" d="M51.198 60.907v9.614c0 2.344-1.9 4.244-4.243 4.244h-18.76a2.735 2.735 0 0 0-2.734 2.734h21.494a6.98 6.98 0 0 0 6.978-6.978v-9.614zm-9.632-26.903-5.861 3.784a.284.284 0 0 0-.013.468l5.874 4.243zm24.736 0 5.862 3.784c.167.108.174.35.013.468l-5.875 4.243z"/><path fill="#0166FF" d="M64.977 22.879H42.891c-.73 0-1.325.594-1.325 1.325v18.295l11.275 7.964c.655.463 1.53.463 2.185 0l11.276-7.962V24.204c0-.731-.593-1.325-1.325-1.325M48.13 27.863h11.61a.548.548 0 0 1 0 1.094h-11.61a.547.547 0 0 1 0-1.094m11.61 12.685H48.132a.548.548 0 0 1 0-1.094H59.74a.547.547 0 0 1 0 1.094m1.442-5.796H46.688a.547.547 0 0 1 0-1.093h14.493a.547.547 0 0 1 0 1.093"/><path fill="#E1EAF8" d="M40.944 8.053H29.46c-.94 0-1.777-.601-2.075-1.495L26.03 2.5h18.34L43.02 6.558a2.19 2.19 0 0 1-2.075 1.495"/><path fill="#9A9A9A" d="m72.406 37.24-3.151-1.973a.546.546 0 1 0-.58.927l3.152 1.973a.7.7 0 0 1 .328.594V59.66c0 .09-.02.175-.05.254L59.16 48.186l11.25-7.945a.546.546 0 1 0-.631-.894L54.645 50.036a1.24 1.24 0 0 1-1.425 0L36.24 38.044l2.952-1.85a.547.547 0 0 0-.58-.927l-3.151 1.974a1.79 1.79 0 0 0-.842 1.52V59.66c0 .989.804 1.793 1.794 1.793h16.973v9.067a6.44 6.44 0 0 1-6.431 6.432H23.447a6.44 6.44 0 0 1-6.431-6.432v-8.73a.547.547 0 0 0-1.094 0v8.73c0 4.15 3.376 7.525 7.525 7.525h23.508c4.15 0 7.525-3.376 7.525-7.525v-9.067h16.973c.99 0 1.794-.805 1.794-1.794V38.764a1.79 1.79 0 0 0-.84-1.522M53.934 51.357c.47 0 .943-.142 1.344-.425l2.969-2.096L70.969 60.36H36.9l12.722-11.526 2.969 2.096c.401.283.871.425 1.343.425M35.713 59.66V39.01l12.993 9.176-12.943 11.728a.7.7 0 0 1-.05-.255"/><path fill="#9A9A9A" d="M16.469 58.084a.547.547 0 0 0 .547-.547V9.479a6.44 6.44 0 0 1 6.43-6.431h23.509a6.44 6.44 0 0 1 6.43 6.431v10.316a.548.548 0 0 0 1.095 0V9.478c0-4.15-3.377-7.525-7.525-7.525H23.447c-4.15 0-7.525 3.377-7.525 7.525v48.06c0 .301.245.546.547.546"/><path fill="#0166FF" d="M11.376 34.204a.54.54 0 0 1-.264-.07l-3.56-1.971a.55.55 0 0 1-.214-.744.55.55 0 0 1 .744-.214l3.56 1.972a.549.549 0 0 1-.266 1.027M7.299 48.207a.547.547 0 0 1-.217-1.049l3.731-1.62a.546.546 0 1 1 .434 1.003l-3.73 1.62a.5.5 0 0 1-.218.046m62.463-24.14a.545.545 0 0 1-.379-.942l2.941-2.812a.548.548 0 0 1 .756.79l-2.94 2.812a.54.54 0 0 1-.379.153M58.04 20.056a.55.55 0 0 1-.544-.487l-.438-4.046a.547.547 0 0 1 1.088-.118l.437 4.045a.55.55 0 0 1-.484.603q-.03.004-.06.003"/></svg>