<svg xmlns="http://www.w3.org/2000/svg" width="80" height="80" fill="none"><path fill="#E1EAF8" d="M51.198 60.908v9.614c0 2.344-1.9 4.244-4.243 4.244h-18.76a2.735 2.735 0 0 0-2.734 2.734h21.494a6.98 6.98 0 0 0 6.978-6.978v-9.614zM40.944 8.053H29.46c-.94 0-1.777-.601-2.075-1.495L26.03 2.5h18.34L43.02 6.558a2.19 2.19 0 0 1-2.075 1.495"/><path fill="#9A9A9A" d="M53.386 70.52v-9.067h1.094v9.067c0 4.149-3.375 7.525-7.525 7.525H23.447c-4.149 0-7.525-3.375-7.525-7.525v-8.73a.547.547 0 0 1 1.094 0v8.73a6.44 6.44 0 0 0 6.43 6.432h23.509a6.44 6.44 0 0 0 6.43-6.432M16.469 58.084a.547.547 0 0 0 .547-.547V9.479a6.44 6.44 0 0 1 6.43-6.431h23.509a6.44 6.44 0 0 1 6.43 6.431v10.316a.548.548 0 0 0 1.095 0V9.478c0-4.15-3.377-7.525-7.525-7.525H23.447c-4.15 0-7.525 3.377-7.525 7.525v48.06c0 .301.245.546.547.546"/><path fill="#0166FF" d="M37.376 32.203a.54.54 0 0 1-.264-.069l-3.56-1.971a.55.55 0 0 1-.214-.744.55.55 0 0 1 .744-.214l3.56 1.972a.549.549 0 0 1-.267 1.026m-4.077 14.003a.547.547 0 0 1-.217-1.048l3.731-1.62a.546.546 0 1 1 .434 1.003l-3.73 1.62a.5.5 0 0 1-.218.045"/><path fill="#E1EAF8" d="M45.301 47c-.52-.838-1.812-.463-1.803.523a8.47 8.47 0 0 0 2.49 5.923 8.5 8.5 0 0 0 8.809 2.019c1.15-.4 1.022-2.076-.179-2.279-3.986-.674-7.135-2.675-9.317-6.186"/><path fill="#0166FF" d="M59.914 51.933c0 2.94 1.747 5.599 4.446 6.766a.7.7 0 0 0 .565 0 7.37 7.37 0 0 0 4.446-6.766v-4.274a.3.3 0 0 0-.297-.297h-.003c-1.474 0-2.901-.453-4.264-1.355a.3.3 0 0 0-.329 0c-1.364.903-2.794 1.356-4.27 1.355a.293.293 0 0 0-.294.293z"/><path fill="#9A9A9A" d="M46.543 34.94H64.36a1.5 1.5 0 0 1 1.499 1.498v6.898a.274.274 0 0 0 .547 0v-6.898a2.047 2.047 0 0 0-2.046-2.046h-2.794v-3.396c0-4.38-3.518-7.978-7.843-8.02a7.87 7.87 0 0 0-5.65 2.296 7.86 7.86 0 0 0-2.35 5.627v3.22c0 .452.368.82.82.82m-.273-4.042c0-1.98.777-3.84 2.188-5.238a7.32 7.32 0 0 1 5.186-2.137h.073c4.027.039 7.303 3.391 7.303 7.472v3.397h-1.475v-3.494c0-3.254-2.647-5.9-5.9-5.9a5.907 5.907 0 0 0-5.901 5.9v2.365a.274.274 0 0 0 .547 0v-2.365a5.36 5.36 0 0 1 5.354-5.354 5.36 5.36 0 0 1 5.353 5.354v3.494H46.543a.274.274 0 0 1-.273-.273z"/><path fill="#9A9A9A" d="M70.921 45.73a.66.66 0 0 0-.472-.194c-1.874 0-3.704-.583-5.44-1.732a.66.66 0 0 0-.732 0c-1.736 1.15-3.566 1.731-5.44 1.731h-.008a.655.655 0 0 0-.658.658v5.608c0 1.705.435 3.337 1.22 4.77a10.7 10.7 0 0 1-4.344.908H52.24c-5.961 0-10.811-4.85-10.811-10.811v-10.23a1.5 1.5 0 0 1 1.498-1.498h1.596a.274.274 0 0 0 0-.547h-1.596a2.047 2.047 0 0 0-2.045 2.045v10.23c0 6.263 5.095 11.358 11.358 11.358h2.804c1.612 0 3.165-.33 4.621-.98a9.93 9.93 0 0 0 4.498 3.878 1.2 1.2 0 0 0 .958 0 9.93 9.93 0 0 0 5.994-9.123v-5.603a.66.66 0 0 0-.195-.468m-.352 6.071a9.39 9.39 0 0 1-5.664 8.621.66.66 0 0 1-.524 0 9.39 9.39 0 0 1-5.664-8.62v-5.609c0-.04.02-.066.033-.078a.1.1 0 0 1 .079-.033q.006.001.008 0c1.983 0 3.915-.613 5.742-1.822a.11.11 0 0 1 .129 0c1.826 1.21 3.758 1.822 5.744 1.822h.001c.041 0 .069.021.081.035.013.012.035.04.035.081z"/><path fill="#9A9A9A" d="M56.93 39.808a.58.58 0 0 0-.473-.4l-1.581-.23-.707-1.432a.58.58 0 0 0-.526-.327.58.58 0 0 0-.526.327l-.707 1.433-1.581.23a.58.58 0 0 0-.473.398.58.58 0 0 0 .148.6l1.144 1.116-.27 1.575a.583.583 0 0 0 .535.684.6.6 0 0 0 .315-.066l1.414-.744 1.414.744a.585.585 0 0 0 .85-.618l-.27-1.575 1.143-1.114a.58.58 0 0 0 .15-.601m-6.043.208c-.005-.004-.018-.017-.01-.04s.024-.025.03-.026l1.724-.25a.27.27 0 0 0 .206-.15l.77-1.562a.04.04 0 0 1 .036-.022c.024 0 .032.015.035.021l.735 1.49c-.997.213-1.84.84-2.34 1.695zm-7.766-.607a.58.58 0 0 0-.473.398.58.58 0 0 0 .149.6l1.144 1.116-.27 1.574a.583.583 0 0 0 .534.684.6.6 0 0 0 .315-.066l1.414-.744 1.414.744a.587.587 0 0 0 .817-.298.6.6 0 0 0 .033-.32l-.27-1.575 1.144-1.115a.58.58 0 0 0 .148-.6.58.58 0 0 0-.472-.4l-1.582-.23-.707-1.432a.58.58 0 0 0-.526-.327.58.58 0 0 0-.525.327l-.707 1.432zm2.008.141.77-1.562a.04.04 0 0 1 .035-.022c.025 0 .032.016.035.022l.736 1.49c-.998.213-1.841.84-2.341 1.695l-1.186-1.157c-.005-.004-.017-.017-.01-.04s.025-.025.031-.026l1.724-.25a.27.27 0 0 0 .206-.15m19.508.258a.58.58 0 0 0-.472-.4l-1.582-.23-.707-1.432a.58.58 0 0 0-.525-.327.58.58 0 0 0-.526.327l-.707 1.433-1.581.23a.58.58 0 0 0-.473.398.58.58 0 0 0 .148.6l1.144 1.116-.27 1.574a.583.583 0 0 0 .535.684.6.6 0 0 0 .315-.066l1.414-.744 1.414.744a.587.587 0 0 0 .816-.298.6.6 0 0 0 .034-.32l-.27-1.575 1.143-1.115a.58.58 0 0 0 .15-.6m-6.043.208c-.004-.004-.017-.017-.01-.04s.025-.025.031-.026l1.724-.25a.27.27 0 0 0 .206-.15l.77-1.562a.04.04 0 0 1 .036-.022c.024 0 .032.015.035.021l.735 1.49c-.998.213-1.84.84-2.34 1.695z"/><path fill="#0166FF" d="M68.988 30.01a.546.546 0 0 0 .546.547l4.068.014a.546.546 0 1 0 .004-1.094l-4.07-.013a.546.546 0 0 0-.548.546M63.44 18.657a.549.549 0 0 0 .502.877.55.55 0 0 0 .363-.208l2.49-3.218a.547.547 0 0 0-.865-.669z"/></svg>