<svg xmlns="http://www.w3.org/2000/svg" width="80" height="80" fill="none"><path fill="#E1EAF8" d="M54.812 69.908a.614.614 0 0 0-.614.614c0 2.344-1.9 4.244-4.244 4.244h-18.76A2.735 2.735 0 0 0 28.46 77.5h21.494a6.98 6.98 0 0 0 6.978-6.978v-.614zM43.943 8.053H32.46c-.94 0-1.777-.601-2.075-1.495L29.03 2.5h18.34l-1.352 4.058a2.19 2.19 0 0 1-2.075 1.495"/><path fill="#FD4E4E" d="M43.016 63.49a.546.546 0 1 0-.347-1.036l-3.858 1.294a.545.545 0 0 0-.239.877.55.55 0 0 0 .586.16zM47.518 71.968a.55.55 0 0 0 .423-.36l1.323-3.848a.547.547 0 1 0-1.035-.356l-1.323 3.848a.547.547 0 0 0 .612.716M68.848 44.321a.54.54 0 0 0-.363.414.546.546 0 0 0 .71.622l3.857-1.294a.545.545 0 1 0-.347-1.037zM64.346 35.842a.55.55 0 0 0-.423.361L62.6 40.051a.547.547 0 1 0 1.035.355l1.323-3.847a.547.547 0 0 0-.612-.717"/><path fill="#9A9A9A" d="M56.224 69.633c0-.302.246-.547.547-.547.303 0 .547.244.546.547v.889c0 4.148-3.375 7.525-7.525 7.525H26.284c-4.149 0-7.525-3.375-7.525-7.525v-6.308a.548.548 0 1 1 1.095 0v6.308a6.44 6.44 0 0 0 6.431 6.431h23.508a6.44 6.44 0 0 0 6.431-6.431zM27.387 38.565h19.12a.548.548 0 0 0 0-1.094h-19.12a.547.547 0 0 0 0 1.094M27.385 44.004h14.12a.547.547 0 0 0 0-1.094h-14.12a.547.547 0 0 0 0 1.094m9.647 5.109H27.33a.547.547 0 0 0 0 1.094h9.703a.547.547 0 0 0 0-1.094m0 5.439H27.33a.547.547 0 0 0 0 1.094h9.703a.547.547 0 0 0 0-1.094"/><path fill="#9A9A9A" d="M18.76 9.478v50.55a.548.548 0 1 0 1.096 0V9.477a6.44 6.44 0 0 1 6.432-6.431h23.507a6.44 6.44 0 0 1 6.432 6.431v28.694a.548.548 0 0 0 1.093 0V9.478c0-4.148-3.375-7.525-7.525-7.525h-23.51c-4.148 0-7.524 3.375-7.524 7.525"/><path stroke="#9A9A9A" stroke-width="1.2" d="M30.599 18.556a2.956 2.956 0 0 1 2.956-2.956h8.889a2.956 2.956 0 0 1 0 5.912h-8.89a2.956 2.956 0 0 1-2.955-2.956Zm0 8.886a2.956 2.956 0 0 1 2.956-2.956h8.889a2.956 2.956 0 0 1 0 5.913h-8.89a2.956 2.956 0 0 1-2.955-2.957Z"/><path fill="#FD4E4E" fill-rule="evenodd" d="M57 66c6.627 0 12-5.373 12-12s-5.373-12-12-12-12 5.373-12 12 5.373 12 12 12" clip-rule="evenodd"/><path stroke="#fff" stroke-linecap="round" stroke-width="1.1" d="M60.517 51.441c0-.777-.18-1.495-.658-2.033s-1.196-.837-2.093-.777h-3.349c-.897 0-1.614.239-2.092.777-.479.538-.658 1.256-.658 2.033v5.023c0 .837.18 1.555.658 2.093.478.478 1.195.777 2.092.777h3.349c.897 0 1.614-.24 2.093-.777.478-.538.658-1.316.658-2.093M63.265 53.951h-5.381M63.265 53.952l-1.495-1.495M63.265 54.012l-1.495 1.554"/></svg>