<svg xmlns="http://www.w3.org/2000/svg" width="80" height="80" fill="none"><rect width="34" height="34" x="27.5" y="24" fill="#E1EAF8" rx="9"/><path fill="#E1EAF8" d="M55.198 60.908v9.614c0 2.344-1.9 4.244-4.243 4.244h-18.76a2.735 2.735 0 0 0-2.734 2.734h21.494a6.98 6.98 0 0 0 6.978-6.978v-9.614zM44.944 8.053H33.46c-.94 0-1.777-.601-2.075-1.495L30.03 2.5h18.34L47.02 6.558a2.19 2.19 0 0 1-2.075 1.495"/><path fill="#9A9A9A" d="M57.386 70.52V62a.547.547 0 0 1 1.094 0v8.52c0 4.149-3.375 7.525-7.525 7.525H27.447c-4.149 0-7.525-3.375-7.525-7.525v-8.73a.547.547 0 0 1 1.094 0v8.73a6.44 6.44 0 0 0 6.43 6.432h23.509a6.44 6.44 0 0 0 6.43-6.432M20.469 58.084a.547.547 0 0 0 .547-.547V9.479a6.44 6.44 0 0 1 6.43-6.431h23.509a6.44 6.44 0 0 1 6.43 6.431v10.316a.548.548 0 0 0 1.095 0V9.478c0-4.15-3.377-7.525-7.525-7.525H27.447c-4.15 0-7.525 3.377-7.525 7.525v48.06c0 .301.245.546.547.546"/><path fill="#0166FF" d="M66.09 45.305a.546.546 0 0 1 .846-.562l3.353 2.305a.548.548 0 0 1-.62.902l-3.351-2.306a.54.54 0 0 1-.227-.34m1.54-12.294a.55.55 0 0 1 .367-.632l3.87-1.252a.547.547 0 0 1 .339 1.04l-3.871 1.253a.55.55 0 0 1-.69-.351q-.009-.027-.015-.058M7.643 32.866a.54.54 0 0 0 .523-.145.547.547 0 0 0-.255-.916l-3.944-1.001a.549.549 0 0 0-.603.81.55.55 0 0 0 .335.25zM6.968 47.253a.547.547 0 0 0 .767.093l3.196-2.517a.546.546 0 1 0-.675-.86L7.06 46.487a.546.546 0 0 0-.092.767"/><path stroke="#0166FF" stroke-linecap="round" stroke-linejoin="round" stroke-width="1.5" d="M39.5 32h-2a2 2 0 0 0-2 2v2m14-4h2a2 2 0 0 1 2 2v2m-5 1v2m-8-2v2m1 6s1 1 3 1 3-1 3-1m-3-8v5h-1m-4 8h-2a2 2 0 0 1-2-2v-2m14 4h2a2 2 0 0 0 2-2v-2"/><path stroke="#E1EAF8" stroke-linecap="round" stroke-width="1.5" d="M26.5 14h18M26.5 18h14"/></svg>