<svg width="80" height="80" viewBox="0 0 80 80" fill="none" xmlns="http://www.w3.org/2000/svg">
<path d="M54.812 69.9082C54.4729 69.9082 54.198 70.1831 54.198 70.5223C54.198 72.866 52.298 74.766 49.9542 74.766H31.1948C29.6854 74.766 28.4604 75.991 28.4604 77.5004H49.9542C53.8089 77.5004 56.9323 74.3754 56.9323 70.5223V69.9082H54.812Z" fill="#E1EAF8"/>
<path d="M43.9433 8.05313H32.4604C31.5198 8.05313 30.6839 7.45156 30.3854 6.55781L29.0308 2.5H47.3714L46.0183 6.55781C45.8727 6.99307 45.5941 7.37159 45.2218 7.63991C44.8494 7.90823 44.4022 8.05277 43.9433 8.05313Z" fill="#E1EAF8"/>
<path d="M43.0156 63.4891C43.1127 63.4569 43.1946 63.3993 43.2573 63.3256C43.3186 63.2539 43.3603 63.1676 43.3783 63.075C43.3963 62.9825 43.39 62.8868 43.36 62.7974C43.3374 62.7293 43.3015 62.6664 43.2544 62.6122C43.2073 62.5579 43.15 62.5136 43.0857 62.4816C43.0215 62.4496 42.9515 62.4306 42.8799 62.4256C42.8083 62.4207 42.7364 62.43 42.6684 62.453L38.8111 63.7477C38.7429 63.7704 38.68 63.8063 38.6258 63.8533C38.5715 63.9004 38.5272 63.9577 38.4952 64.022C38.4632 64.0862 38.4442 64.1562 38.4393 64.2278C38.4343 64.2994 38.4436 64.3713 38.4666 64.4394C38.4892 64.5075 38.5252 64.5704 38.5722 64.6247C38.6193 64.6789 38.6766 64.7232 38.7409 64.7552C38.8051 64.7873 38.8751 64.8063 38.9467 64.8112C39.0183 64.8161 39.0902 64.8068 39.1582 64.7838L43.0156 63.4891Z" fill="#FD4E4E"/>
<path d="M47.5176 71.968C47.6431 71.946 47.757 71.8808 47.8396 71.7837C47.8821 71.7337 47.9172 71.6733 47.9407 71.6071L49.2637 67.7597C49.3615 67.4736 49.2101 67.1621 48.924 67.0643C48.6379 66.9665 48.3264 67.1179 48.2287 67.404L46.9056 71.2514C46.8641 71.372 46.8661 71.5032 46.9111 71.6224C46.9561 71.7417 47.0413 71.8415 47.1521 71.9046C47.2628 71.9677 47.3921 71.9901 47.5176 71.968Z" fill="#FD4E4E"/>
<path d="M68.8482 44.3215C68.751 44.3537 68.6692 44.4112 68.6064 44.485C68.5452 44.5567 68.5035 44.643 68.4855 44.7355C68.4675 44.8281 68.4738 44.9237 68.5037 45.0131C68.5264 45.0812 68.5623 45.1442 68.6094 45.1984C68.6565 45.2526 68.7138 45.297 68.778 45.329C68.8423 45.361 68.9122 45.38 68.9839 45.3849C69.0555 45.3898 69.1274 45.3805 69.1954 45.3576L73.0527 44.0629C73.1208 44.0402 73.1838 44.0043 73.238 43.9572C73.2922 43.9102 73.3366 43.8529 73.3686 43.7886C73.4006 43.7243 73.4196 43.6544 73.4245 43.5827C73.4294 43.5111 73.4201 43.4392 73.3972 43.3712C73.3745 43.3031 73.3386 43.2401 73.2915 43.1859C73.2445 43.1317 73.1872 43.0873 73.1229 43.0553C73.0586 43.0233 72.9887 43.0043 72.9171 42.9994C72.8454 42.9945 72.7736 43.0038 72.7055 43.0267L68.8482 44.3215Z" fill="#FD4E4E"/>
<path d="M64.3462 35.8425C64.2206 35.8646 64.1068 35.9298 64.0242 36.0269C63.9816 36.0769 63.9466 36.1373 63.9231 36.2035L62.6 40.0509C62.5022 40.337 62.6537 40.6485 62.9398 40.7463C63.2259 40.8441 63.5373 40.6926 63.6351 40.4065L64.9582 36.5591C64.9996 36.4386 64.9977 36.3074 64.9527 36.1881C64.9077 36.0689 64.8224 35.9691 64.7117 35.906C64.601 35.8429 64.4717 35.8205 64.3462 35.8425Z" fill="#FD4E4E"/>
<path d="M56.2249 69.6332C56.2249 69.3316 56.4702 69.0863 56.7718 69.0863C57.0749 69.0863 57.3187 69.3301 57.3171 69.6332V70.5223C57.3171 74.6707 53.9421 78.0473 49.7921 78.0473H26.2843C22.1358 78.0473 18.7593 74.6723 18.7593 70.5223L18.7599 67.9998L18.7594 64.2142C18.7593 63.9117 19.0045 63.6665 19.307 63.6665C19.6094 63.6665 19.8546 63.9117 19.8546 64.2141V70.5223C19.8546 74.0676 22.739 76.9535 26.2858 76.9535H49.7937C53.339 76.9535 56.2249 74.0691 56.2249 70.5223V69.6332Z" fill="#9A9A9A"/>
<path d="M27.3878 38.5645H46.5081C46.8097 38.5645 47.055 38.3191 47.055 38.0176C47.055 37.716 46.8097 37.4707 46.5081 37.4707H27.3878C27.0862 37.4707 26.8409 37.716 26.8409 38.0176C26.8409 38.3191 27.0862 38.5645 27.3878 38.5645Z" fill="#9A9A9A"/>
<path d="M27.3858 44.0035H41.5061C41.8077 44.0035 42.053 43.7582 42.053 43.4566C42.053 43.155 41.8077 42.9097 41.5061 42.9097H27.3858C27.0843 42.9097 26.839 43.155 26.839 43.4566C26.839 43.7582 27.0843 44.0035 27.3858 44.0035ZM37.0327 49.1129H27.3296C27.028 49.1129 26.7827 49.3582 26.7827 49.6597C26.7827 49.9613 27.028 50.2066 27.3296 50.2066H37.0327C37.3343 50.2066 37.5796 49.9613 37.5796 49.6597C37.5796 49.3582 37.3343 49.1129 37.0327 49.1129ZM37.0327 54.5519H27.3296C27.028 54.5519 26.7827 54.7972 26.7827 55.0988C26.7827 55.4004 27.028 55.6457 27.3296 55.6457H37.0327C37.3343 55.6457 37.5796 55.4004 37.5796 55.0988C37.5796 54.7972 37.3343 54.5519 37.0327 54.5519Z" fill="#9A9A9A"/>
<path d="M18.7614 9.47813V60.0273C18.7614 60.3298 19.0066 60.575 19.3091 60.575C19.6115 60.575 19.8567 60.3298 19.8567 60.0273V9.47813C19.8567 5.93281 22.7411 3.04688 26.288 3.04688H49.7958C53.3411 3.04688 56.2271 5.93125 56.2271 9.47813V38.1719C56.2271 38.4734 56.4724 38.7188 56.7739 38.7188C57.0755 38.7188 57.3208 38.4734 57.3208 38.1719V9.47813C57.3208 5.32969 53.9458 1.95312 49.7958 1.95312H26.2864C22.138 1.95312 18.7614 5.32813 18.7614 9.47813Z" fill="#9A9A9A"/>
<path d="M45.4426 21.0181C45.1336 21.0181 44.8833 21.2693 44.8834 21.5784C44.8835 21.6778 44.8835 21.7796 44.8835 21.8839V22.6281C44.8835 23.5026 44.8832 24.1306 44.8493 24.626C44.8158 25.1165 44.7513 25.4364 44.6426 25.699C44.3215 26.4739 43.7058 27.0896 42.9308 27.4107C42.5471 27.5697 42.0575 27.629 41.1233 27.6451L41.0997 27.6456C40.8034 27.6507 40.544 27.6552 40.3283 27.679C40.0966 27.7047 39.8698 27.7565 39.6519 27.8833C39.4357 28.009 39.2799 28.1769 39.1442 28.3631C39.0187 28.5355 38.8896 28.7534 38.7436 29.0001L38.3282 29.7022C38.1848 29.9445 37.8149 29.9445 37.6713 29.7022L37.2558 29.0001C37.1096 28.7531 36.9808 28.5352 36.8553 28.3631C36.7194 28.1767 36.5637 28.009 36.3476 27.8833C36.1297 27.7565 35.9031 27.7047 35.6712 27.679C35.4555 27.6552 35.1958 27.6507 34.8998 27.6456L34.8761 27.6451C33.9418 27.629 33.4522 27.5697 33.0686 27.4107C32.2937 27.0896 31.678 26.4739 31.3569 25.699C31.2482 25.4364 31.1837 25.1165 31.1502 24.626C31.1165 24.1306 31.116 23.5026 31.116 22.6281V21.8839C31.116 20.6551 31.1167 19.7726 31.1821 19.0843C31.2469 18.4042 31.3708 17.9716 31.5822 17.6266C31.843 17.2011 32.2008 16.8432 32.6264 16.5825C32.9713 16.371 33.404 16.2471 34.084 16.1824C34.7723 16.117 35.6549 16.1163 36.8837 16.1163H39.1163C39.3067 16.1163 39.4887 16.1163 39.663 16.1165C39.9728 16.117 40.2252 15.8664 40.2252 15.5565C40.2252 15.2499 39.9778 15.0007 39.6711 15.0003C39.5016 15 39.3264 15 39.1453 15H36.854C35.6609 15 34.7254 15 33.978 15.071C33.2162 15.1433 32.5924 15.2936 32.0428 15.6305C31.467 15.9832 30.983 16.4675 30.63 17.0433C30.2931 17.5931 30.1428 18.2167 30.0705 18.9785C29.9995 19.7259 29.9995 20.6614 29.9995 21.8545V22.6486C29.9995 23.4981 29.9995 24.1641 30.0361 24.7019C30.0734 25.2493 30.1507 25.7048 30.3252 26.1261C30.7595 27.1745 31.5927 28.0077 32.6411 28.4419C33.2401 28.69 33.9224 28.7451 34.8567 28.7612C35.1836 28.7668 35.3905 28.771 35.5481 28.7884C35.6955 28.8047 35.7526 28.8286 35.7861 28.8483C35.8214 28.8688 35.8694 28.9061 35.9529 29.0206C36.0433 29.1445 36.1454 29.3158 36.307 29.5892L36.7104 30.2709C37.2862 31.2436 38.7128 31.2436 39.2884 30.2709L39.6918 29.5892C39.8537 29.3158 39.9557 29.1445 40.0459 29.0206C40.1294 28.9061 40.1774 28.8688 40.2127 28.8483C40.2462 28.8288 40.3033 28.8049 40.4507 28.7884C40.6085 28.771 40.8155 28.7668 41.1421 28.7612C42.0762 28.7451 42.7587 28.69 43.3577 28.4419C44.4061 28.0077 45.2393 27.1745 45.6736 26.1261C45.8482 25.7048 45.9252 25.2493 45.9627 24.7019C45.9993 24.1641 45.9993 23.4981 45.9993 22.6486V21.8545C45.9993 21.7592 45.9993 21.6657 45.9993 21.5737C45.9991 21.2665 45.7498 21.0181 45.4426 21.0181Z" fill="#9A9A9A"/>
<path d="M42.7982 15.549L39.6117 18.7356C39.4398 18.9072 39.3203 19.0269 39.2156 19.1611C39.0926 19.3187 38.9872 19.4893 38.9013 19.6699C38.828 19.8235 38.7747 19.9838 38.6979 20.2144L38.2319 21.612C38.1225 21.9402 38.208 22.3021 38.4525 22.5466C38.697 22.7913 39.0589 22.8765 39.3871 22.7671L40.7847 22.3012C41.0151 22.2244 41.1756 22.171 41.329 22.0978C41.5096 22.0119 41.6802 21.9063 41.8378 21.7835C41.972 21.6788 42.0914 21.5593 42.2633 21.3874L45.4499 18.2009C46.1822 17.4686 46.1822 16.2813 45.4499 15.5492C44.7176 14.8169 43.5305 14.8169 42.7982 15.5492V15.549ZM41.4966 20.5754C41.2941 20.7779 41.2249 20.8458 41.1515 20.9029C41.0577 20.9762 40.9564 21.0387 40.849 21.0898C40.765 21.1298 40.6735 21.1613 40.4016 21.2519L39.63 21.5091L39.4895 21.3687L39.7467 20.5971C39.8374 20.3254 39.8689 20.2336 39.9088 20.1497C39.96 20.0423 40.0227 19.9409 40.0957 19.8472C40.1528 19.7739 40.2207 19.7047 40.4232 19.502L42.6453 17.2799C42.7565 17.4782 42.9063 17.688 43.1083 17.8901C43.3104 18.0921 43.5203 18.2419 43.7185 18.3531L41.4964 20.5752L41.4966 20.5754ZM44.6607 17.4114L44.5626 17.5094C44.5506 17.5056 44.5381 17.5014 44.5254 17.4969C44.3501 17.436 44.1177 17.3205 43.898 17.1009C43.6783 16.8814 43.5629 16.649 43.5019 16.4735C43.4975 16.4608 43.4935 16.4483 43.4894 16.4362L43.5875 16.3382C43.8837 16.0419 44.3642 16.0419 44.6604 16.3382C44.9567 16.6345 44.9567 17.1149 44.6604 17.4112L44.6607 17.4114Z" fill="#9A9A9A"/>
<path d="M33.9995 19.5H34.7495" stroke="#9A9A9A" stroke-width="1.2" stroke-linecap="round" stroke-linejoin="round"/>
<path d="M33.9995 22H35.4995" stroke="#9A9A9A" stroke-width="1.2" stroke-linecap="round" stroke-linejoin="round"/>
<path d="M33.9995 24.5H38.9995" stroke="#9A9A9A" stroke-width="1.2" stroke-linecap="round" stroke-linejoin="round"/>
<path d="M58.6482 49.9201H54.9621C55.109 49.717 55.2287 49.5204 55.3065 49.3771C55.3628 49.2734 55.4725 49.1929 55.6096 49.1719C55.6345 49.1681 55.6686 49.1667 55.8452 49.1667H57.8502C58.0267 49.1667 58.0609 49.1681 58.0858 49.1719C58.2584 49.1983 58.3315 49.2579 58.3764 49.3527C58.3875 49.376 58.4015 49.408 58.4185 49.4467C58.4693 49.5624 58.5463 49.7379 58.6482 49.9201Z" fill="#FD4E4E"/>
<path fill-rule="evenodd" clip-rule="evenodd" d="M57 66C63.6274 66 69 60.6274 69 54C69 47.3726 63.6274 42 57 42C50.3726 42 45 47.3726 45 54C45 60.6274 50.3726 66 57 66ZM55.8165 48.1667C55.6853 48.1666 55.5686 48.1665 55.4582 48.1834C55.0237 48.2499 54.6388 48.5112 54.4278 48.8999C54.3331 49.0742 54.1526 49.3586 53.9464 49.5931C53.8434 49.7103 53.7461 49.8011 53.6619 49.8596C53.5915 49.9085 53.5548 49.918 53.5483 49.9196C53.5476 49.9198 53.5473 49.9199 53.5473 49.92C53.5401 49.9201 53.5298 49.9201 53.5012 49.9201H51.6667C51.3905 49.9201 51.1667 50.144 51.1667 50.4201C51.1667 50.6963 51.3905 50.9201 51.6667 50.9201H62.3333C62.6095 50.9201 62.8333 50.6963 62.8333 50.4201C62.8333 50.144 62.6095 49.9201 62.3333 49.9201H60.1941C60.1622 49.9201 60.1531 49.9201 60.1457 49.9199L60.1337 49.9198C59.9401 49.9197 59.7886 49.8228 59.639 49.6189C59.5153 49.4502 59.4364 49.2727 59.3582 49.0966C59.3326 49.0389 59.307 48.9813 59.28 48.9243C59.0537 48.447 58.6361 48.2445 58.2371 48.1834C58.1267 48.1665 58.01 48.1666 57.8788 48.1667H55.8165ZM53.3332 51.9925C53.3141 51.7171 53.0752 51.5093 52.7998 51.5284C52.5243 51.5476 52.3165 51.7864 52.3357 52.0619L52.6185 56.13C52.6703 56.8756 52.7127 57.4857 52.8125 57.9662C52.9173 58.4705 53.0973 58.8982 53.47 59.2325C53.84 59.5644 54.289 59.7048 54.8111 59.7703C55.3137 59.8334 55.9479 59.8333 56.7302 59.8333H57.2688C58.0512 59.8333 58.6854 59.8334 59.1879 59.7703C59.71 59.7048 60.1591 59.5644 60.5291 59.2325C60.9018 58.8982 61.0818 58.4705 61.1865 57.9662C61.2864 57.4858 61.3288 56.8756 61.3806 56.1301L61.6634 52.0619C61.6826 51.7864 61.4748 51.5476 61.1993 51.5284C60.9238 51.5093 60.685 51.7171 60.6658 51.9925L60.3855 56.025C60.3305 56.815 60.2918 57.3568 60.2074 57.7628C60.1265 58.1527 60.0159 58.3495 59.8613 58.4881C59.7041 58.6292 59.4841 58.7253 59.0634 58.7781C58.6304 58.8324 58.0592 58.8333 57.2352 58.8333H56.7638C55.9398 58.8333 55.3686 58.8324 54.9356 58.7781C54.515 58.7253 54.295 58.6292 54.1377 58.4882C53.9832 58.3495 53.8726 58.1527 53.7916 57.7628C53.7073 57.3568 53.6685 56.815 53.6136 56.025L53.3332 51.9925ZM55.973 53.4366C55.9444 53.1619 55.6985 52.9625 55.4239 52.9911C55.1492 53.0198 54.9498 53.2656 54.9784 53.5403L55.2832 56.4627C55.3118 56.7374 55.5577 56.9368 55.8323 56.9082C56.107 56.8795 56.3064 56.6337 56.2778 56.359L55.973 53.4366ZM59.0206 53.5403C59.0493 53.2656 58.8498 53.0198 58.5752 52.9911C58.3005 52.9625 58.0547 53.1619 58.026 53.4366L57.7213 56.359C57.6926 56.6337 57.8921 56.8795 58.1667 56.9082C58.4414 56.9368 58.6872 56.7374 58.7159 56.4627L59.0206 53.5403Z" fill="#FD4E4E"/>
</svg>
