<svg xmlns="http://www.w3.org/2000/svg" width="80" height="80" fill="none"><path fill="#9A9A9A" d="M54.407 29.983h-29.12V17.917c0-5.108 4.154-9.262 9.262-9.262s9.262 4.154 9.262 9.262v6.103c0 .852.693 1.544 1.544 1.544h3.613c.851 0 1.543-.692 1.543-1.544v-6.103c0-8.803-7.16-15.964-15.964-15.964s-15.96 7.161-15.96 15.964v9.711a.547.547 0 0 0 1.093 0v-9.71c0-8.2 6.67-14.871 14.87-14.871s14.87 6.67 14.87 14.87v6.103a.45.45 0 0 1-.45.45h-3.612a.45.45 0 0 1-.45-.45v-6.103c0-5.71-4.645-10.356-10.356-10.356s-10.356 4.645-10.356 10.356v12.066H13.813a3.557 3.557 0 0 0-3.553 3.553v37.701a3.557 3.557 0 0 0 3.553 3.554h5.319a.547.547 0 0 0 0-1.094h-5.32a2.46 2.46 0 0 1-2.458-2.46V33.537a2.46 2.46 0 0 1 2.459-2.46h40.594a2.46 2.46 0 0 1 2.459 2.46v29.306a.548.548 0 0 0 1.094 0V33.536a3.557 3.557 0 0 0-3.553-3.553"/><path fill="#9A9A9A" d="M38.099 45.02a5.14 5.14 0 0 0-3.878-1.396 5.175 5.175 0 0 0-4.846 4.876 5.19 5.19 0 0 0 2.222 4.555v5.927a2.954 2.954 0 0 0 2.952 2.951 2.954 2.954 0 0 0 2.951-2.951v-5.927a5.15 5.15 0 0 0 2.231-4.26 5.2 5.2 0 0 0-1.632-3.776M34.55 60.84a1.86 1.86 0 0 1-1.858-1.858v-1.081a4.8 4.8 0 0 0 3.716-2.552v3.633a1.86 1.86 0 0 1-1.858 1.858"/><path fill="#0166FF" d="M67.223 65.01H23.838c-1.088 0-1.97.883-1.97 1.97v8.55c0 1.088.882 1.97 1.97 1.97h43.384c1.087 0 1.97-.882 1.97-1.97v-8.55a1.97 1.97 0 0 0-1.969-1.97m-32.326 6.247-1.194.248a7 7 0 0 1-.926.09c-.072.004-.1.093-.046.138q.395.323.646.596l.804.873a.186.186 0 0 1-.025.273l-1.297.972a.186.186 0 0 1-.273-.06l-.569-1.035q-.129-.232-.4-.858a.077.077 0 0 0-.142 0q-.295.687-.4.858l-.578 1.04a.185.185 0 0 1-.27.06l-1.333-.974a.185.185 0 0 1-.022-.28l.864-.871q.345-.346.678-.606c.055-.044.033-.13-.036-.138q-.37-.043-.905-.144l-1.187-.192a.185.185 0 0 1-.145-.242l.515-1.51a.187.187 0 0 1 .252-.11l1.073.487q.179.082.833.469a.078.078 0 0 0 .116-.083q-.14-.63-.178-.958l-.154-1.159a.186.186 0 0 1 .183-.21h1.583c.111 0 .197.097.184.207l-.139 1.16a7 7 0 0 1-.182.966c-.018.065.051.12.11.09q.216-.111.299-.158a9 9 0 0 1 .58-.299l1.07-.508c.1-.048.22.004.255.11l.495 1.516a.187.187 0 0 1-.14.242m9.223 0-1.193.248a7 7 0 0 1-.927.09c-.072.004-.1.093-.045.138q.395.323.645.596l.805.873a.186.186 0 0 1-.025.273l-1.297.972a.186.186 0 0 1-.274-.06l-.568-1.035a12 12 0 0 1-.4-.858.077.077 0 0 0-.143 0q-.294.687-.4.858l-.578 1.04a.185.185 0 0 1-.27.06l-1.333-.974a.185.185 0 0 1-.022-.28l.864-.871q.346-.346.678-.606c.055-.044.033-.13-.035-.138q-.37-.043-.905-.144l-1.188-.192a.185.185 0 0 1-.145-.242l.516-1.51a.186.186 0 0 1 .251-.11l1.074.487q.178.082.833.469a.078.078 0 0 0 .115-.083q-.138-.63-.178-.958l-.153-1.159a.185.185 0 0 1 .183-.21h1.582c.111 0 .197.097.185.207l-.14 1.16a7 7 0 0 1-.182.966c-.017.065.052.12.11.09q.218-.111.3-.158.379-.21.58-.299l1.07-.508c.1-.048.22.004.254.11l.495 1.516a.19.19 0 0 1-.139.242m9.224 0-1.194.248a7 7 0 0 1-.927.09c-.071.004-.1.093-.045.138q.395.323.645.596l.805.873a.186.186 0 0 1-.025.273l-1.297.972a.186.186 0 0 1-.273-.06l-.569-1.035q-.129-.232-.4-.858a.077.077 0 0 0-.142 0q-.295.687-.4.858l-.578 1.04a.185.185 0 0 1-.27.06l-1.333-.974a.185.185 0 0 1-.022-.28l.864-.871q.345-.346.678-.606c.055-.044.033-.13-.036-.138q-.37-.043-.905-.144l-1.187-.192a.185.185 0 0 1-.145-.242l.515-1.51a.187.187 0 0 1 .252-.11l1.073.487q.179.082.833.469a.078.078 0 0 0 .116-.083q-.139-.63-.179-.958l-.153-1.159a.186.186 0 0 1 .183-.21h1.583c.11 0 .197.097.184.207l-.139 1.16a7 7 0 0 1-.183.966c-.017.065.052.12.111.09q.216-.111.299-.158.38-.21.58-.299l1.07-.508c.1-.048.22.004.255.11l.495 1.516a.19.19 0 0 1-.14.242m9.223 0-1.194.248a7 7 0 0 1-.926.09c-.072.004-.1.093-.045.138q.395.323.645.596l.805.873a.186.186 0 0 1-.025.273l-1.297.972a.186.186 0 0 1-.274-.06l-.569-1.035a12 12 0 0 1-.4-.858.077.077 0 0 0-.142 0q-.295.687-.4.858l-.578 1.04a.185.185 0 0 1-.27.06l-1.333-.974a.185.185 0 0 1-.022-.28l.864-.871q.345-.346.678-.606c.055-.044.033-.13-.036-.138q-.37-.043-.904-.144l-1.188-.192a.185.185 0 0 1-.145-.242l.516-1.51a.186.186 0 0 1 .251-.11l1.074.487q.178.082.832.469c.058.034.132-.017.116-.083q-.139-.63-.178-.958l-.153-1.159a.185.185 0 0 1 .183-.21h1.582c.111 0 .197.097.185.207l-.14 1.16a7 7 0 0 1-.182.966c-.017.065.051.12.11.09q.218-.111.3-.158a9 9 0 0 1 .579-.299l1.07-.508a.183.183 0 0 1 .255.11l.495 1.516a.19.19 0 0 1-.139.242"/><path fill="#E1EAF8" d="M45.252 62.602h6.842c1.084 0 1.962-.88 1.962-1.963v-8.85c0-2.06-2.084-3.465-3.995-2.693l-2.825 1.142a6.32 6.32 0 0 0-3.947 5.854v4.547a1.96 1.96 0 0 0 1.963 1.963"/></svg>