<svg xmlns="http://www.w3.org/2000/svg" width="80" height="80" fill="none"><path fill="#9A9A9A" d="M58.997 52.095a.547.547 0 0 0-.547.547v17.453a6.866 6.866 0 0 1-6.857 6.858H28.407a6.866 6.866 0 0 1-6.858-6.858v-51.76a.547.547 0 0 0-1.094 0v51.76c0 4.385 3.567 7.952 7.952 7.952h23.187c4.384 0 7.952-3.567 7.952-7.952V52.642a.55.55 0 0 0-.549-.547M51.594 1.953H28.407c-4.385 0-7.952 3.567-7.952 7.952v4.718a.547.547 0 0 0 1.094 0V9.905a6.866 6.866 0 0 1 6.858-6.858h23.187a6.866 6.866 0 0 1 6.858 6.858v7.356a.547.547 0 0 0 1.094 0V9.905c-.002-4.385-3.569-7.952-7.952-7.952"/><path fill="#9A9A9A" d="M44.345 8.708c1.125 0 2.04-.915 2.04-2.04s-.915-2.041-2.04-2.041h-8.69c-1.126 0-2.041.916-2.041 2.04 0 1.126.915 2.041 2.04 2.041zm.947-2.04a.95.95 0 0 1-.947.946h-2.208a2.95 2.95 0 0 0 1.199-1.892h1.009a.946.946 0 0 1 .947.946M30.545 73.772c0 .302.245.547.547.547h17.817a.548.548 0 0 0 0-1.094H31.092a.547.547 0 0 0-.547.547"/><path fill="#FD4E4E" fill-rule="evenodd" d="M59 48c7.18 0 13-5.82 13-13s-5.82-13-13-13-13 5.82-13 13 5.82 13 13 13m-6.933-13a6.934 6.934 0 1 1 13.868.001A6.934 6.934 0 0 1 52.067 35m3.859 4.867c.92.581 1.986.89 3.074.89a5.73 5.73 0 0 0 3.634-1.293l-8.1-8.098a5.758 5.758 0 0 0 1.392 8.5m7.539-1.234-8.099-8.097a5.759 5.759 0 0 1 8.099 8.097" clip-rule="evenodd"/><path fill="#FD4E4E" d="M25 18v-3q0-.825.608-1.413A2.02 2.02 0 0 1 27.07 13h3.103v2H27.07v3zm2.069 47a2.03 2.03 0 0 1-1.462-.588A1.9 1.9 0 0 1 25 63v-3h2.069v3h3.103v2zm25.862-47v-3h-3.103v-2h3.103q.853 0 1.462.588Q55 14.176 55 15v3zm-3.103 47v-2h3.103v-3H55v3q0 .825-.608 1.413A2.02 2.02 0 0 1 52.93 65z"/><path fill="#E1EAF8" d="M28 34a1 1 0 0 1 1-1h14a1 1 0 1 1 0 2H29a1 1 0 0 1-1-1M28 39a1 1 0 0 1 1-1h14a1 1 0 1 1 0 2H29a1 1 0 0 1-1-1M28 44a1 1 0 0 1 1-1h14a1 1 0 1 1 0 2H29a1 1 0 0 1-1-1"/></svg>