<svg xmlns="http://www.w3.org/2000/svg" width="80" height="80" fill="none"><path stroke="#9A9A9A" stroke-linecap="round" stroke-linejoin="round" stroke-width="1.5" d="M40 65.116c13.871 0 25.116-11.245 25.116-25.117 0-13.871-11.245-25.116-25.117-25.116-13.871 0-25.116 11.245-25.116 25.117 0 13.871 11.245 25.116 25.117 25.116"/><path fill="#E1EAF8" d="M61.213 20.037a1.25 1.25 0 1 0 0-2.5 1.25 1.25 0 0 0 0 2.5"/><path fill="#E1EAF8" d="M61.213 20.037a1.25 1.25 0 1 0 0-2.5 1.25 1.25 0 0 0 0 2.5M70 41.25a1.25 1.25 0 1 0 0-2.5 1.25 1.25 0 0 0 0 2.5"/><path fill="#E1EAF8" d="M70 41.25a1.25 1.25 0 1 0 0-2.5 1.25 1.25 0 0 0 0 2.5M40 71.25a1.25 1.25 0 1 0 0-2.5 1.25 1.25 0 0 0 0 2.5"/><path fill="#E1EAF8" d="M40 71.25a1.25 1.25 0 1 0 0-2.5 1.25 1.25 0 0 0 0 2.5M18.787 62.463a1.25 1.25 0 1 0 0-2.5 1.25 1.25 0 0 0 0 2.5"/><path fill="#E1EAF8" d="M18.787 62.463a1.25 1.25 0 1 0 0-2.5 1.25 1.25 0 0 0 0 2.5M10 41.25a1.25 1.25 0 1 0 0-2.5 1.25 1.25 0 0 0 0 2.5"/><path fill="#E1EAF8" d="M10 41.25a1.25 1.25 0 1 0 0-2.5 1.25 1.25 0 0 0 0 2.5M18.787 20.037a1.25 1.25 0 1 0 0-2.5 1.25 1.25 0 0 0 0 2.5"/><path fill="#E1EAF8" d="M18.787 20.037a1.25 1.25 0 1 0 0-2.5 1.25 1.25 0 0 0 0 2.5M40 11.25a1.25 1.25 0 1 0 0-2.5 1.25 1.25 0 0 0 0 2.5"/><path fill="#E1EAF8" d="M40 11.25a1.25 1.25 0 1 0 0-2.5 1.25 1.25 0 0 0 0 2.5"/><path fill="#9A9A9A" fill-rule="evenodd" d="M4.916 40c0-19.377 15.707-35.084 35.083-35.084s35.084 15.707 35.084 35.083a34.94 34.94 0 0 1-3.574 15.444q.74.192 1.446.459a36.4 36.4 0 0 0 3.628-15.903c0-20.204-16.38-36.583-36.584-36.583S3.416 19.795 3.416 39.999c0 20.205 16.379 36.584 36.583 36.584a36.5 36.5 0 0 0 14.738-3.09 14 14 0 0 1-.408-1.46A35 35 0 0 1 40 75.082c-19.376 0-35.083-15.708-35.083-35.084" clip-rule="evenodd"/><path fill="#FD4E4E" d="M68 56c-6.628 0-12 5.373-12 12 0 6.628 5.373 12 12 12 6.628 0 12-5.373 12-12 0-6.628-5.372-12-12-12m6.663 17.385a.905.905 0 0 1-1.278 1.278L68 69.278l-5.385 5.385a.9.9 0 0 1-1.278 0 .904.904 0 0 1 0-1.278L66.722 68l-5.385-5.385a.905.905 0 0 1 1.278-1.278L68 66.722l5.385-5.385a.905.905 0 0 1 1.278 1.278L69.278 68z"/><path fill="#9A9A9A" d="M34.467 34.667a.867.867 0 0 0-1.733 0zm-1.733 10.667a.867.867 0 0 0 1.733 0zm11.454-8.613a.867.867 0 0 0 1.225 1.226zm2.825-.374a.867.867 0 0 0-1.225-1.226zm-9.758 7.307a.867.867 0 1 0 1.225 1.226zm2.825-.374a.867.867 0 1 0-1.225-1.226zm-1.225-5.333a.867.867 0 1 0 1.225-1.226zm-.375-2.826a.867.867 0 1 0-1.225 1.226zm7.308 9.76a.867.867 0 1 0 1.226-1.227zm-.374-2.827a.867.867 0 1 0-1.226 1.226zM40 49.802c-2.539 0-4.356-.002-5.737-.188-1.356-.182-2.162-.527-2.755-1.12l-1.226 1.225c.97.969 2.202 1.405 3.75 1.613 1.524.205 3.478.203 5.968.203zM28.467 40c0 2.49-.002 4.444.203 5.967.208 1.549.644 2.781 1.613 3.75l1.226-1.226c-.593-.593-.939-1.398-1.12-2.755-.186-1.38-.188-3.198-.188-5.736zm21.334 0c0 2.538-.002 4.355-.188 5.736-.182 1.356-.527 2.162-1.12 2.755l1.225 1.226c.969-.969 1.405-2.201 1.613-3.75.205-1.523.203-3.478.203-5.967zM40 51.534c2.49 0 4.444.002 5.967-.203 1.549-.208 2.781-.644 3.75-1.613l-1.226-1.226c-.593.594-1.398.939-2.755 1.121-1.38.186-3.198.188-5.736.188zm0-21.333c2.538 0 4.355.002 5.736.187 1.356.182 2.162.528 2.755 1.12l1.226-1.225c-.969-.969-2.201-1.405-3.75-1.613-1.523-.205-3.478-.203-5.967-.203zM51.534 40c0-2.49.002-4.444-.203-5.968-.208-1.548-.644-2.78-1.613-3.75l-1.226 1.226c.594.593.939 1.399 1.121 2.755.186 1.381.188 3.198.188 5.737zM40.001 28.467c-2.49 0-4.444-.002-5.968.203-1.548.208-2.78.644-3.75 1.613l1.226 1.226c.593-.593 1.399-.939 2.755-1.12 1.381-.186 3.198-.188 5.737-.188zm-9.8 11.534c0-2.539.002-4.356.187-5.737.182-1.356.528-2.162 1.12-2.755l-1.225-1.226c-.969.97-1.405 2.202-1.613 3.75-.205 1.524-.203 3.478-.203 5.968zm2.533-5.334v10.667h1.733V34.667zm9.4 7.667a2.333 2.333 0 0 1-2.333-2.333h-1.734a4.067 4.067 0 0 0 4.067 4.066zm2.333-2.333a2.333 2.333 0 0 1-2.333 2.333v1.733a4.067 4.067 0 0 0 4.067-4.066zm-2.333-2.334a2.333 2.333 0 0 1 2.333 2.334h1.734a4.067 4.067 0 0 0-4.067-4.067zm0-1.733a4.067 4.067 0 0 0-4.067 4.067h1.734a2.333 2.333 0 0 1 2.333-2.334zm3.28 2.013 1.6-1.6-1.226-1.226-1.6 1.6zM38.48 44.88l1.6-1.6-1.225-1.226-1.6 1.6zm1.6-8.159-1.6-1.6-1.225 1.226 1.6 1.6zm6.934 6.934-1.6-1.6-1.226 1.225 1.6 1.6z"/></svg>