<svg xmlns="http://www.w3.org/2000/svg" width="80" height="80" fill="none"><path stroke="#9A9A9A" stroke-linecap="round" stroke-linejoin="round" stroke-width="1.5" d="M40 65.116c13.871 0 25.116-11.245 25.116-25.117 0-13.871-11.245-25.116-25.117-25.116-13.871 0-25.116 11.245-25.116 25.117 0 13.871 11.245 25.116 25.117 25.116"/><path fill="#E1EAF8" d="M61.213 20.037a1.25 1.25 0 1 0 0-2.5 1.25 1.25 0 0 0 0 2.5"/><path fill="#E1EAF8" d="M61.213 20.037a1.25 1.25 0 1 0 0-2.5 1.25 1.25 0 0 0 0 2.5M70 41.25a1.25 1.25 0 1 0 0-2.5 1.25 1.25 0 0 0 0 2.5"/><path fill="#E1EAF8" d="M70 41.25a1.25 1.25 0 1 0 0-2.5 1.25 1.25 0 0 0 0 2.5M61.213 62.463a1.25 1.25 0 1 0 0-2.5 1.25 1.25 0 0 0 0 2.5"/><path fill="#E1EAF8" d="M61.213 62.463a1.25 1.25 0 1 0 0-2.5 1.25 1.25 0 0 0 0 2.5M40 71.25a1.25 1.25 0 1 0 0-2.5 1.25 1.25 0 0 0 0 2.5"/><path fill="#E1EAF8" d="M40 71.25a1.25 1.25 0 1 0 0-2.5 1.25 1.25 0 0 0 0 2.5M18.787 62.463a1.25 1.25 0 1 0 0-2.5 1.25 1.25 0 0 0 0 2.5"/><path fill="#E1EAF8" d="M18.787 62.463a1.25 1.25 0 1 0 0-2.5 1.25 1.25 0 0 0 0 2.5M10 41.25a1.25 1.25 0 1 0 0-2.5 1.25 1.25 0 0 0 0 2.5"/><path fill="#E1EAF8" d="M10 41.25a1.25 1.25 0 1 0 0-2.5 1.25 1.25 0 0 0 0 2.5M18.787 20.037a1.25 1.25 0 1 0 0-2.5 1.25 1.25 0 0 0 0 2.5"/><path fill="#E1EAF8" d="M18.787 20.037a1.25 1.25 0 1 0 0-2.5 1.25 1.25 0 0 0 0 2.5M40 11.25a1.25 1.25 0 1 0 0-2.5 1.25 1.25 0 0 0 0 2.5"/><path fill="#E1EAF8" d="M40 11.25a1.25 1.25 0 1 0 0-2.5 1.25 1.25 0 0 0 0 2.5"/><path stroke="#0166FF" stroke-linecap="round" stroke-linejoin="round" stroke-width="1.5" d="M44.377 43.06h8.096c.67 0 1.313-.27 1.787-.75s.74-1.131.74-1.81-.266-1.33-.74-1.81a2.5 2.5 0 0 0-1.787-.75h-8.095l4.047-7.1a2.58 2.58 0 0 0-.925-3.497 2.506 2.506 0 0 0-3.452.937L40 35.38m4.377 7.68L40 35.38m4.377 7.68H35.62m8.756 0 4.048 7.1a2.58 2.58 0 0 1-.925 3.497 2.5 2.5 0 0 1-1.918.256 2.5 2.5 0 0 1-.884-.442 2.6 2.6 0 0 1-.65-.75L40 45.62l-4.048 7.1a2.6 2.6 0 0 1-.65.751 2.52 2.52 0 0 1-1.868.507 2.537 2.537 0 0 1-1.675-.98 2.57 2.57 0 0 1-.501-1.892 2.6 2.6 0 0 1 .317-.946l4.046-7.1M40 35.38l-1.477 2.59M40 35.38l-4.048-7.1a2.6 2.6 0 0 0-.65-.751 2.52 2.52 0 0 0-1.868-.507 2.537 2.537 0 0 0-1.675.98 2.57 2.57 0 0 0-.501 1.892c.043.333.15.655.317.946l4.047 7.1 2.901.03M40 35.38l-4.379 7.68m0 0 2.902-5.09m-2.902 5.09h-8.094a2.5 2.5 0 0 1-1.787-.75A2.58 2.58 0 0 1 25 40.5c0-.679.266-1.33.74-1.81a2.5 2.5 0 0 1 1.787-.75l10.996.03"/><rect width="22" height="22" x="57.5" y="58" fill="#0166FF" rx="11"/><path stroke="#fff" stroke-linecap="round" stroke-linejoin="round" stroke-width="1.4" d="m64.5 68.813 2.813 2.812L72.937 66"/><path fill="#9A9A9A" fill-rule="evenodd" d="M4.916 40c0-19.377 15.707-35.084 35.083-35.084s35.084 15.707 35.084 35.083a34.94 34.94 0 0 1-3.574 15.444q.74.192 1.446.459a36.4 36.4 0 0 0 3.628-15.903c0-20.204-16.38-36.583-36.584-36.583S3.416 19.795 3.416 39.999c0 20.205 16.379 36.584 36.583 36.584a36.5 36.5 0 0 0 14.738-3.09 14 14 0 0 1-.408-1.46A35 35 0 0 1 40 75.082c-19.376 0-35.083-15.708-35.083-35.084" clip-rule="evenodd"/></svg>