<svg xmlns="http://www.w3.org/2000/svg" width="80" height="80" fill="none"><path fill="#E1EAF8" d="M54.813 69.908a.614.614 0 0 0-.615.614c0 2.344-1.9 4.244-4.243 4.244h-18.76a2.735 2.735 0 0 0-2.734 2.734h21.494a6.98 6.98 0 0 0 6.978-6.978v-.614zM43.944 8.053H32.46c-.94 0-1.777-.601-2.075-1.495L29.03 2.5h18.34L46.02 6.558a2.19 2.19 0 0 1-2.075 1.495"/><path fill="#FD4E4E" d="M43.017 63.49a.546.546 0 1 0-.347-1.036l-3.858 1.294a.545.545 0 1 0 .347 1.036zM47.519 71.968a.55.55 0 0 0 .423-.36l1.323-3.848a.547.547 0 1 0-1.035-.356l-1.323 3.848a.547.547 0 0 0 .612.716M68.849 44.321a.54.54 0 0 0-.363.414.546.546 0 0 0 .71.622l3.857-1.294a.545.545 0 1 0-.347-1.037zM64.347 35.842a.55.55 0 0 0-.423.361L62.6 40.051a.547.547 0 1 0 1.036.355l1.323-3.847a.547.547 0 0 0-.612-.717"/><path fill="#9A9A9A" d="M56.225 69.633c0-.302.246-.547.547-.547.303 0 .547.244.546.547v.889c0 4.148-3.375 7.525-7.525 7.525H26.285c-4.149 0-7.525-3.375-7.525-7.525v-6.308a.548.548 0 0 1 1.095 0v6.308a6.44 6.44 0 0 0 6.431 6.431h23.508a6.44 6.44 0 0 0 6.431-6.431zM27.388 38.565h19.12a.548.548 0 0 0 0-1.094h-19.12a.547.547 0 0 0 0 1.094M27.386 44.004h14.12a.547.547 0 0 0 0-1.094h-14.12a.547.547 0 0 0 0 1.094m9.647 5.109H27.33a.547.547 0 0 0 0 1.094h9.703a.547.547 0 0 0 0-1.094m0 5.439H27.33a.547.547 0 0 0 0 1.094h9.703a.547.547 0 0 0 0-1.094"/><path fill="#9A9A9A" d="M18.76 9.478v50.55a.548.548 0 1 0 1.096 0V9.477a6.44 6.44 0 0 1 6.432-6.431h23.507a6.44 6.44 0 0 1 6.432 6.431v28.694a.548.548 0 0 0 1.093 0V9.478c0-4.148-3.375-7.525-7.525-7.525h-23.51c-4.148 0-7.524 3.375-7.524 7.525"/><path fill="#FD4E4E" d="M58.648 49.92h-3.686c.147-.203.267-.4.344-.543a.41.41 0 0 1 .304-.205 2 2 0 0 1 .235-.005h2.005c.177 0 .21.001.236.005.172.026.245.086.29.18q.018.036.043.095c.05.115.127.29.23.473"/><path fill="#FD4E4E" fill-rule="evenodd" d="M57 66c6.627 0 12-5.373 12-12s-5.373-12-12-12-12 5.373-12 12 5.373 12 12 12m-1.184-17.833c-.13 0-.247 0-.358.016-.434.067-.82.328-1.03.717a4 4 0 0 1-.482.693q-.156.177-.284.267a.4.4 0 0 1-.115.06h-1.88a.5.5 0 1 0 0 1h10.666a.5.5 0 1 0 0-1h-2.199c-.194 0-.345-.097-.495-.301a2.7 2.7 0 0 1-.28-.522l-.079-.173c-.226-.477-.644-.68-1.043-.74-.11-.017-.227-.017-.358-.017zm-2.483 3.825a.5.5 0 0 0-.997.07l.282 4.068c.052.746.095 1.356.194 1.836.105.505.285.932.658 1.267.37.331.819.472 1.341.537.503.063 1.137.063 1.92.063h.538c.782 0 1.416 0 1.919-.063.522-.065.971-.206 1.341-.538.373-.334.553-.761.657-1.266.1-.48.143-1.09.195-1.836l.282-4.068a.5.5 0 1 0-.997-.07l-.28 4.033c-.056.79-.094 1.332-.179 1.738-.08.39-.191.587-.346.725-.157.141-.377.237-.798.29-.433.054-1.004.055-1.828.055h-.471c-.824 0-1.395 0-1.828-.055-.421-.053-.641-.149-.798-.29-.155-.139-.265-.335-.346-.725-.085-.406-.123-.948-.178-1.738zm2.64 1.445a.5.5 0 1 0-.995.103l.305 2.923a.5.5 0 1 0 .995-.104zm3.048.103a.5.5 0 1 0-.995-.103l-.305 2.922a.5.5 0 1 0 .995.104z" clip-rule="evenodd"/><path fill="#9A9A9A" stroke="#9A9A9A" stroke-width=".5" d="M37.47 27.94a7.4 7.4 0 0 0 3.408-.819l.47.47c.177.177.409.265.642.265a.9.9 0 0 0 .642-.266l1.757-1.757 3.792 3.792a1.102 1.102 0 0 1-.778 1.877c-.293 0-.57-.114-.777-.322l-3.113-3.112a.249.249 0 1 0-.352.353l3.112 3.111c.302.302.703.468 1.13.468s.828-.166 1.13-.468a1.6 1.6 0 0 0 0-2.26l-3.807-3.807a.91.91 0 0 0-.122-1.132l-.473-.474a7.44 7.44 0 0 0 .81-3.389 7.42 7.42 0 0 0-2.189-5.282A7.42 7.42 0 0 0 37.47 13a7.42 7.42 0 0 0-5.282 2.188A7.42 7.42 0 0 0 30 20.47a7.42 7.42 0 0 0 2.188 5.282 7.43 7.43 0 0 0 5.283 2.188Zm6.782-3.255a.41.41 0 0 1 0 .58l-1.973 1.972a.41.41 0 0 1-.58 0l-.369-.37c.512-.31.99-.682 1.422-1.116a7.5 7.5 0 0 0 1.127-1.439zm-11.71-9.144a6.93 6.93 0 0 1 4.929-2.043c1.862 0 3.613.725 4.93 2.043a6.93 6.93 0 0 1 2.042 4.929A6.92 6.92 0 0 1 42.4 25.4a6.93 6.93 0 0 1-4.93 2.042 6.92 6.92 0 0 1-4.93-2.043A6.93 6.93 0 0 1 30.5 20.47c0-1.862.726-3.612 2.042-4.93Z"/><path fill="#E1EAF8" d="M41.389 16.611a5.5 5.5 0 1 0-7.778 7.777 5.5 5.5 0 0 0 7.778-7.777m-.431.761a.234.234 0 0 1-.33 0 4.43 4.43 0 0 0-2.682-1.273.234.234 0 1 1 .047-.465 4.9 4.9 0 0 1 2.965 1.408.23.23 0 0 1 0 .33m.832 1.297a.233.233 0 0 1-.313-.108 4 4 0 0 0-.233-.418.234.234 0 0 1 .395-.25q.142.225.258.463a.234.234 0 0 1-.107.313"/></svg>