<svg width="81" height="80" viewBox="0 0 81 80" fill="none" xmlns="http://www.w3.org/2000/svg">
<path d="M45.282 8.05313H33.7992C32.8586 8.05313 32.0227 7.45156 31.7242 6.55781L30.3711 2.5H48.7117L47.3586 6.55781C47.2129 6.99328 46.934 7.37195 46.5614 7.64028C46.1888 7.90861 45.7412 8.05303 45.282 8.05313ZM55.5383 67.3656V70.5203C55.5383 72.8641 53.6383 74.7641 51.2945 74.7641H32.5352C31.0258 74.7641 29.8008 75.9891 29.8008 77.4984H51.2945C55.1492 77.4984 58.2727 74.3734 58.2727 70.5203V64.6313C56.7633 64.6313 55.5383 65.8563 55.5383 67.3656Z" fill="#E1EAF8"/>
<path d="M53.575 34.2422H25.5937C24.9891 34.2422 24.5 33.7531 24.5 33.1484V14.0938C24.5 13.4891 24.9891 13 25.5937 13H53.575C54.1797 13 54.6687 13.4891 54.6687 14.0938V33.1484C54.6687 33.7516 54.1781 34.2422 53.575 34.2422Z" fill="#0166FF"/>
<path d="M40.5607 20.5607C40.842 20.2794 41 19.8978 41 19.5C41 19.1022 40.842 18.7206 40.5607 18.4393C40.2794 18.158 39.8978 18 39.5 18C39.1022 18 38.7206 18.158 38.4393 18.4393C38.158 18.7206 38 19.1022 38 19.5C38 19.8978 38.158 20.2794 38.4393 20.5607C38.7206 20.842 39.1022 21 39.5 21C39.8978 21 40.2794 20.842 40.5607 20.5607Z" fill="white"/>
<path d="M40.2955 23.2045C40.0845 22.9935 39.7984 22.875 39.5 22.875C39.2016 22.875 38.9155 22.9935 38.7045 23.2045C38.4935 23.4155 38.375 23.7016 38.375 24V27.75C38.375 28.0484 38.4935 28.3345 38.7045 28.5455C38.9155 28.7565 39.2016 28.875 39.5 28.875C39.7984 28.875 40.0845 28.7565 40.2955 28.5455C40.5065 28.3345 40.625 28.0484 40.625 27.75V24C40.625 23.7016 40.5065 23.4155 40.2955 23.2045Z" fill="white"/>
<path d="M15.7573 27.412C15.6605 27.412 15.5636 27.387 15.4761 27.3339L11.9902 25.2355C11.9286 25.1985 11.8749 25.1498 11.8322 25.0921C11.7896 25.0343 11.7587 24.9688 11.7414 24.8991C11.7241 24.8294 11.7208 24.757 11.7316 24.686C11.7424 24.615 11.767 24.5469 11.8042 24.4855C11.8412 24.4239 11.8899 24.3702 11.9476 24.3276C12.0053 24.2849 12.0709 24.254 12.1406 24.2367C12.2103 24.2195 12.2827 24.2161 12.3537 24.2269C12.4246 24.2377 12.4928 24.2623 12.5542 24.2995L16.0402 26.398C16.1017 26.4349 16.1554 26.4836 16.1981 26.5413C16.2407 26.5991 16.2716 26.6647 16.2889 26.7343C16.3062 26.804 16.3095 26.8764 16.2987 26.9474C16.288 27.0184 16.2633 27.0865 16.2261 27.148C16.1774 27.2287 16.1087 27.2955 16.0265 27.3418C15.9444 27.388 15.8516 27.4122 15.7573 27.412ZM11.1839 41.2605C11.0565 41.2605 10.933 41.216 10.8348 41.1347C10.7367 41.0534 10.67 40.9404 10.6463 40.8152C10.6226 40.69 10.6433 40.5604 10.705 40.4488C10.7666 40.3373 10.8653 40.2508 10.9839 40.2042L14.7714 38.7183C15.0527 38.6073 15.3698 38.7464 15.4808 39.0276C15.5917 39.3089 15.4527 39.6261 15.1714 39.737L11.3839 41.223C11.3183 41.248 11.2495 41.2605 11.1839 41.2605ZM67.0589 61.2855C66.962 61.2855 66.8652 61.2605 66.7777 61.2073L63.2917 59.1089C63.2302 59.072 63.1765 59.0232 63.1338 58.9655C63.0911 58.9078 63.0603 58.8422 63.043 58.7725C63.0257 58.7028 63.0224 58.6304 63.0331 58.5594C63.0439 58.4885 63.0686 58.4203 63.1058 58.3589C63.1427 58.2973 63.1914 58.2437 63.2492 58.201C63.3069 58.1583 63.3725 58.1274 63.4422 58.1102C63.5118 58.0929 63.5843 58.0895 63.6552 58.1003C63.7262 58.1111 63.7944 58.1358 63.8558 58.173L67.3417 60.2714C67.4033 60.3083 67.4569 60.3571 67.4996 60.4148C67.5423 60.4725 67.5732 60.5381 67.5905 60.6078C67.6077 60.6775 67.6111 60.7499 67.6003 60.8208C67.5895 60.8918 67.5648 60.96 67.5277 61.0214C67.4789 61.102 67.4101 61.1687 67.328 61.215C67.2458 61.2613 67.1532 61.2855 67.0589 61.2855ZM64.3605 46.8245C64.233 46.8246 64.1096 46.7801 64.0114 46.6988C63.9132 46.6175 63.8466 46.5045 63.8228 46.3793C63.7991 46.254 63.8199 46.1245 63.8815 46.0129C63.9432 45.9014 64.0418 45.8148 64.1605 45.7683L67.948 44.2823C68.2292 44.1714 68.5464 44.3105 68.6573 44.5917C68.7683 44.873 68.6292 45.1901 68.348 45.3011L64.5605 46.787C64.4948 46.8136 64.4277 46.8245 64.3605 46.8245Z" fill="#0166FF"/>
<path d="M25.2305 67.75C25.2305 68.0516 25.4758 68.2969 25.7773 68.2969H53.3023C53.6039 68.2969 53.8492 68.0516 53.8492 67.75C53.8492 67.4484 53.6039 67.2031 53.3023 67.2031H25.7773C25.4758 67.2031 25.2305 67.4484 25.2305 67.75Z" fill="#9A9A9A"/>
<path d="M57.7234 64.6327C57.7234 64.3311 57.9688 64.0858 58.2703 64.0858C58.5734 64.0858 58.8172 64.3296 58.8156 64.6327V70.5218C58.8156 74.6702 55.4406 78.0468 51.2906 78.0468H27.7828C23.6344 78.0468 20.2578 74.6718 20.2578 70.5218L20.2584 67.9993L20.2579 64.2137C20.2578 63.9112 20.503 63.666 20.8055 63.666C21.1079 63.666 21.3531 63.9112 21.3531 64.2136V70.5218C21.3531 74.0671 24.2375 76.953 27.7844 76.953H51.2922C54.8375 76.953 57.7234 74.0686 57.7234 70.5218V64.6327Z" fill="#9A9A9A"/>
<path d="M28.8906 38.5645H52.0109C52.3125 38.5645 52.5578 38.3191 52.5578 38.0176C52.5578 37.716 52.3125 37.4707 52.0109 37.4707H28.8906C28.5891 37.4707 28.3438 37.716 28.3438 38.0176C28.3438 38.3191 28.5891 38.5645 28.8906 38.5645Z" fill="#9A9A9A"/>
<path d="M28.8867 44.0039H52.007C52.3086 44.0039 52.5539 43.7586 52.5539 43.457C52.5539 43.1555 52.3086 42.9102 52.007 42.9102H28.8867C28.5852 42.9102 28.3398 43.1555 28.3398 43.457C28.3398 43.7586 28.5852 44.0039 28.8867 44.0039ZM51.5336 51.1133H41.8305C41.5289 51.1133 41.2836 51.3586 41.2836 51.6602C41.2836 51.9617 41.5289 52.207 41.8305 52.207H51.5336C51.8352 52.207 52.0805 51.9617 52.0805 51.6602C52.0805 51.3586 51.8352 51.1133 51.5336 51.1133ZM51.5336 56.5523H41.8305C41.5289 56.5523 41.2836 56.7977 41.2836 57.0992C41.2836 57.4008 41.5289 57.6461 41.8305 57.6461H51.5336C51.8352 57.6461 52.0805 57.4008 52.0805 57.0992C52.0805 56.7977 51.8352 56.5523 51.5336 56.5523Z" fill="#9A9A9A"/>
<path d="M58.8211 9.47813V60.0273C58.8211 60.3298 58.5759 60.575 58.2734 60.575C57.971 60.575 57.7258 60.3298 57.7258 60.0273V9.47813C57.7258 5.93281 54.8414 3.04688 51.2945 3.04688H27.7867C24.2414 3.04688 21.3555 5.93125 21.3555 9.47813V44.1719C21.3555 44.4734 21.1102 44.7188 20.8086 44.7188C20.507 44.7188 20.2617 44.4734 20.2617 44.1719V9.47813C20.2617 5.32969 23.6367 1.95312 27.7867 1.95312H51.2961C55.4445 1.95312 58.8211 5.32813 58.8211 9.47813Z" fill="#9A9A9A"/>
<path d="M15.1064 47.0742H34.0439C34.6532 47.0743 35.1502 47.5702 35.1504 48.1816V59.7363C35.1504 60.3461 34.6537 60.8427 34.0439 60.8428H31.6816L27.1973 60.8418H15.1064C14.4967 60.8418 14.0001 60.3451 14 59.7354V48.1807C14 47.5709 14.4967 47.0742 15.1064 47.0742Z" stroke="#9A9A9A"/>
<path d="M29.7805 50.7383H19.3711C19.0695 50.7383 18.8242 50.9836 18.8242 51.2852C18.8242 51.5867 19.0695 51.832 19.3711 51.832H29.7805C30.082 51.832 30.3273 51.5867 30.3273 51.2852C30.3273 50.9836 30.082 50.7383 29.7805 50.7383ZM29.7805 55.9789H19.3711C19.0695 55.9789 18.8242 56.2242 18.8242 56.5258C18.8242 56.8273 19.0695 57.0727 19.3711 57.0727H29.7805C30.082 57.0727 30.3273 56.8273 30.3273 56.5258C30.3273 56.2242 30.082 55.9789 29.7805 55.9789Z" fill="#9A9A9A"/>
</svg>
