<svg xmlns="http://www.w3.org/2000/svg" width="80" height="80" fill="none"><path fill="#E1EAF8" d="M54.813 69.908a.614.614 0 0 0-.615.614c0 2.344-1.9 4.244-4.243 4.244h-18.76a2.735 2.735 0 0 0-2.734 2.734h21.494a6.978 6.978 0 0 0 6.978-6.978v-.614h-2.12ZM43.944 8.053H32.46c-.94 0-1.777-.601-2.075-1.495L29.03 2.5h18.34L46.02 6.558a2.19 2.19 0 0 1-2.075 1.495Z"/><path fill="#0166FF" d="M43.013 63.487a.545.545 0 1 0-.347-1.036l-3.858 1.295a.544.544 0 0 0-.344.692.545.545 0 0 0 .691.344l3.858-1.294ZM47.515 71.966a.547.547 0 0 0 .423-.36l1.323-3.848a.547.547 0 1 0-1.035-.356l-1.323 3.848a.547.547 0 0 0 .612.716ZM68.847 44.323a.539.539 0 0 0-.363.414.545.545 0 0 0 .71.622l3.857-1.294a.545.545 0 0 0 .07-1.008.545.545 0 0 0-.417-.029l-3.857 1.295ZM64.345 35.844a.547.547 0 0 0-.423.361l-1.323 3.848a.547.547 0 1 0 1.035.355l1.323-3.847a.547.547 0 0 0-.612-.717Z"/><path fill="#9A9A9A" d="M56.223 69.633c0-.302.246-.547.547-.547.303 0 .547.244.546.547v.889c0 4.148-3.375 7.525-7.525 7.525H26.283c-4.149 0-7.525-3.375-7.525-7.525v-6.308a.548.548 0 1 1 1.095 0v6.308a6.439 6.439 0 0 0 6.431 6.431h23.508a6.439 6.439 0 0 0 6.431-6.431v-.89ZM27.386 38.565h19.12a.548.548 0 0 0 0-1.094h-19.12a.547.547 0 0 0 0 1.094ZM27.384 44.004h14.12a.548.548 0 0 0 0-1.094h-14.12a.547.547 0 0 0 0 1.094Zm9.647 5.109h-9.703a.548.548 0 0 0 0 1.094h9.703a.547.547 0 0 0 0-1.094Zm0 5.439h-9.703a.548.548 0 0 0 0 1.094h9.703a.547.547 0 0 0 0-1.094Z"/><path fill="#9A9A9A" d="M18.76 9.478v50.55a.548.548 0 1 0 1.096 0V9.477a6.439 6.439 0 0 1 6.431-6.431h23.508a6.439 6.439 0 0 1 6.432 6.431v28.694a.548.548 0 0 0 1.093 0V9.478c0-4.148-3.375-7.525-7.525-7.525h-23.51c-4.148 0-7.524 3.375-7.524 7.525Z"/><path fill="#9A9A9A" d="M38.001 23.205c1.876 0 3.604.427 4.885 1.148 1.262.71 2.21 1.785 2.21 3.11v.082c0 .942.002 2.125-1.035 2.97-.51.415-1.224.71-2.189.906-.967.196-2.228.299-3.87.299-1.643 0-2.904-.103-3.871-.299-.965-.195-1.68-.49-2.19-.906-1.037-.845-1.036-2.028-1.035-2.97v-.082c0-1.325.949-2.4 2.21-3.11 1.281-.72 3.01-1.148 4.885-1.148Zm0 1.217c-1.706 0-3.221.39-4.288.99-1.086.611-1.59 1.36-1.59 2.051 0 1.06.032 1.657.586 2.108.3.245.803.484 1.663.658.857.173 2.029.275 3.63.275 1.6 0 2.772-.102 3.629-.275.86-.174 1.362-.413 1.662-.658.485-.394.57-.9.584-1.732l.003-.376c0-.69-.504-1.44-1.59-2.05-1-.564-2.395-.942-3.971-.987L38 24.422Zm2.634-6.29a2.635 2.635 0 0 0-2.365-2.62l-.27-.014a2.635 2.635 0 0 0-2.635 2.635l.014.27a2.635 2.635 0 0 0 5.243 0l.013-.27Zm1.212.2a3.852 3.852 0 0 1-7.694 0l-.005-.2A3.852 3.852 0 0 1 38 14.283l.198.004a3.852 3.852 0 0 1 3.654 3.847l-.005.198Z"/><path fill="#0166FF" fill-rule="evenodd" d="M57 66c6.627 0 12-5.373 12-12s-5.373-12-12-12-12 5.373-12 12 5.373 12 12 12Z" clip-rule="evenodd"/><path stroke="#fff" stroke-linecap="round" stroke-linejoin="round" stroke-width="1.1" d="M52.064 51.667V51.2c0-.866.2-1.666.733-2.266.534-.6 1.334-.934 2.334-.867h3.733c1 0 1.8.267 2.333.867.534.6.734 1.4.734 2.266v5.6c0 .934-.2 1.734-.734 2.334-.533.533-1.333.866-2.333.866h-3.733c-1 0-1.8-.266-2.334-.866-.533-.6-.733-1.467-.733-2.334v-.466m4.6-2.334h-6m6 0-1.667-1.666M56.664 54l-1.667 1.8"/></svg>