<svg xmlns="http://www.w3.org/2000/svg" width="80" height="80" fill="none"><path fill="#E1EAF8" d="M43.782 8.053H32.299c-.94 0-1.776-.601-2.075-1.495L28.871 2.5h18.34L45.86 6.558a2.19 2.19 0 0 1-2.077 1.495m10.256 59.313v3.154c0 2.344-1.9 4.244-4.243 4.244h-18.76a2.735 2.735 0 0 0-2.734 2.734h21.494a6.98 6.98 0 0 0 6.978-6.978v-5.889a2.735 2.735 0 0 0-2.735 2.735"/><path fill="#0166FF" d="M52.032 34.174H24.051a1.093 1.093 0 0 1-1.094-1.094V14.025c0-.604.49-1.093 1.094-1.093h27.981c.605 0 1.094.489 1.094 1.093V33.08c0 .603-.49 1.094-1.094 1.094"/><path fill="#fff" d="m37.094 27.049 7.061-6.748a.964.964 0 0 0-1.325-1.397l-6.41 6.108-2.868-2.735a.962.962 0 0 0-1.654.717.96.96 0 0 0 .329.68l3.53 3.375a.976.976 0 0 0 1.337 0"/><path fill="#E1EAF8" d="M52.404 58.54h-6.619a.78.78 0 0 1-.781-.78v-6.62c0-.43.35-.78.781-.78h6.619c.431 0 .781.35.781.78v6.62a.78.78 0 0 1-.781.78"/><path fill="#0166FF" d="M12.257 15.412a.54.54 0 0 1-.28-.078L8.49 13.236a.547.547 0 1 1 .564-.937l3.486 2.099a.546.546 0 0 1-.283 1.014M7.684 29.261a.547.547 0 0 1-.2-1.057l3.787-1.486a.547.547 0 1 1 .4 1.019l-3.787 1.486a.6.6 0 0 1-.2.038m55.875 35.025a.54.54 0 0 1-.281-.079l-3.486-2.098a.546.546 0 1 1 .564-.936l3.486 2.098a.545.545 0 0 1-.283 1.014M60.86 49.825a.547.547 0 0 1-.2-1.057l3.787-1.486a.547.547 0 1 1 .4 1.02l-3.788 1.485a.5.5 0 0 1-.2.038"/><path fill="#9A9A9A" d="M23.73 68.75c0 .302.246.547.547.547h27.525a.547.547 0 0 0 0-1.094H24.277a.547.547 0 0 0-.547.547"/><path fill="#9A9A9A" d="M56.225 64.633c0-.302.246-.547.547-.547.303 0 .547.244.546.547v5.889c0 4.148-3.375 7.525-7.525 7.525H26.285c-4.149 0-7.525-3.375-7.525-7.525v-6.308a.548.548 0 0 1 1.095 0v6.308a6.44 6.44 0 0 0 6.431 6.431h23.508a6.44 6.44 0 0 0 6.431-6.431zM27.389 38.565h23.12a.548.548 0 0 0 0-1.094h-23.12a.547.547 0 0 0 0 1.094"/><path fill="#9A9A9A" d="M27.387 44.004h23.12a.547.547 0 0 0 0-1.094h-23.12a.548.548 0 0 0 0 1.094m14.647 7.109H32.33a.547.547 0 0 0 0 1.094h9.703a.547.547 0 0 0 0-1.094m0 5.439H32.33a.547.547 0 0 0 0 1.094h9.703a.547.547 0 0 0 0-1.094M23.73 63.31c0 .301.245.547.546.547h16.917a.547.547 0 0 0 0-1.094H24.277a.546.546 0 0 0-.547.547M77.87 16.714c0-.943-.768-1.71-1.713-1.71h-2.9l.737-3.933a2.52 2.52 0 0 0-.443-1.97 2.52 2.52 0 0 0-1.736-1.032 1.033 1.033 0 0 0-1.149.866l-.375 2.495a2.76 2.76 0 0 1-1.889 2.225 3.24 3.24 0 0 0-2.147 2.328.02.02 0 0 1-.018.016h-1.352a1.45 1.45 0 0 0-1.431-1.228h-3.219a.9.9 0 0 0-.895 1.007l.978 8.326a.9.9 0 0 0 .895.796h2.24c.676 0 1.243-.464 1.404-1.09h.19a.42.42 0 0 1 .255.087l.417.325a5.72 5.72 0 0 0 3.487 1.195h5.688c.944 0 1.712-.767 1.712-1.71 0-.364-.116-.7-.31-.979a1.74 1.74 0 0 0 .686-1.382c0-.324-.094-.625-.253-.883.466-.314.773-.846.773-1.447 0-.353-.109-.68-.296-.95.404-.317.663-.805.663-1.352M63.812 23.45c0 .197-.16.356-.356.356h-2.07l-.934-7.942h3.004c.196 0 .356.16.356.356zm11.086.873h-5.69a4.6 4.6 0 0 1-2.815-.965l-.419-.325a1.52 1.52 0 0 0-.926-.318h-.142v-5.623h1.332c.519 0 .964-.353 1.083-.858.17-.72.713-1.31 1.417-1.537a3.84 3.84 0 0 0 2.635-3.104l.365-2.428c.375.066.703.27.928.58a1.45 1.45 0 0 1 .254 1.125l-.747 3.978a1.052 1.052 0 0 0 1.037 1.25h2.947a.618.618 0 1 1 0 1.234h-2.006a.547.547 0 0 0 0 1.094h1.673c.324 0 .586.263.586.586a.65.65 0 0 1-.65.65h-1.473a.547.547 0 0 0 0 1.094h1.017c.323 0 .586.262.586.586a.65.65 0 0 1-.65.65h-1.142a.547.547 0 0 0 0 1.094h.796a.619.619 0 0 1 .004 1.237"/><path fill="#9A9A9A" d="M57.321 9.478v50.55a.548.548 0 1 1-1.095 0V9.477a6.44 6.44 0 0 0-6.431-6.431H26.287a6.44 6.44 0 0 0-6.431 6.431v34.694a.548.548 0 0 1-1.094 0V9.478c0-4.148 3.375-7.525 7.525-7.525h23.51c4.148 0 7.524 3.375 7.524 7.525"/><path stroke="#9A9A9A" d="M17.697 60.841H5.607c-.61 0-1.107-.496-1.107-1.106V48.181c0-.61.496-1.107 1.106-1.107h18.938c.61 0 1.106.496 1.106 1.108v11.555c0 .61-.496 1.106-1.106 1.106H22.18z"/><path fill="#9A9A9A" d="M20.28 50.738H9.872a.547.547 0 0 0 0 1.094h10.41a.547.547 0 0 0 0-1.094m0 5.24H9.872a.547.547 0 0 0 0 1.095h10.41a.548.548 0 0 0 0-1.094"/></svg>