<svg xmlns="http://www.w3.org/2000/svg" width="80" height="80" fill="none"><path fill="#E1EAF8" d="M67.802 45.243H55.31a3.467 3.467 0 0 0-3.467 3.467v4.92a3.467 3.467 0 0 0 3.467 3.467H67.8l4.669-1.999V43.244zm-11.937 7.32a1.392 1.392 0 1 1-.001-2.785 1.392 1.392 0 0 1 0 2.785m12.484 1.366a.547.547 0 0 1-1.094 0v-5.518a.547.547 0 1 1 1.094 0z"/><path fill="#FD4E4E" d="m20.79 25.84 28.033-12.62-6.183-8.279a1.4 1.4 0 0 0-1.959-.284L12.316 25.84z"/><path stroke="#9A9A9A" stroke-linecap="round" stroke-linejoin="round" stroke-width="1.4" d="m35.5 6-5.357-3.826a2 2 0 0 0-2.8.48L11 26M62.5 26l-6.183-13.69a2 2 0 0 0-2.632-1.006L20.5 26"/><path stroke="#9A9A9A" stroke-linecap="round" stroke-linejoin="round" stroke-width="1.4" d="M14.5 21H10c-.833 0-2.5.5-2.5 2.5m0 0c0 2 1.667 2.5 2.5 2.5h54c1.333 0 4 .8 4 4v13.5m-60.5-20v32m23 21H64c1.333-.333 4-1.5 4-3.5V59.5"/><path stroke="#9A9A9A" stroke-linecap="round" stroke-linejoin="round" stroke-width="1.4" d="M64 21c2.833-.167 8.5 1 8.5 7v39.499c-.167 1.667-1.3 5-4.5 5"/><path fill="#9A9A9A" d="M31.466 40.202v-2.343a2.02 2.02 0 0 0-2.02-2.019H16.476a2.02 2.02 0 0 0-2.02 2.02v2.342a2.02 2.02 0 0 0 2.02 2.02h12.971a2.02 2.02 0 0 0 2.02-2.02m-15.917 0v-2.343a.927.927 0 0 1 .926-.925h3.345a3.81 3.81 0 0 0-1.846 3.268c0 .337.116.664.328.925h-1.827a.927.927 0 0 1-.926-.925m-1.832-8.266h3.89a.547.547 0 1 0 0-1.094h-3.89a.547.547 0 1 0 0 1.094m12.691 0a.547.547 0 0 0 0-1.094h-3.89a.547.547 0 0 0 0 1.094zm8.802-1.094h-3.89a.547.547 0 1 0 0 1.094h3.89a.547.547 0 1 0 0-1.094m8.802 0h-3.89a.547.547 0 0 0 0 1.094h3.89a.547.547 0 1 0 0-1.094m8.801 0h-3.89a.547.547 0 0 0 0 1.094h3.89a.547.547 0 0 0 0-1.094m8.802 0h-3.89a.547.547 0 1 0 0 1.094h3.89a.547.547 0 0 0 0-1.094M31.32 71.499h3.89a.547.547 0 1 0 0-1.094h-3.89a.547.547 0 1 0 0 1.094m12.692-1.094h-3.89a.547.547 0 0 0 0 1.094h3.89a.547.547 0 1 0 0-1.094m8.801 0h-3.89a.547.547 0 0 0 0 1.094h3.89a.547.547 0 1 0 0-1.094m8.802 0h-3.89a.547.547 0 1 0 0 1.094h3.89a.547.547 0 0 0 0-1.094"/><path fill="#E1EAF8" d="M56.168 17.48a2.224 2.224 0 0 1-1.519 3.071L39.94 24.05a1.67 1.67 0 0 1-2.025-1.294 1.58 1.58 0 0 1 .88-1.746l11.901-5.571a4.09 4.09 0 0 1 5.473 2.042"/><path fill="#FD4E4E" d="M18.648 62.92h-3.686c.147-.203.267-.4.345-.543a.41.41 0 0 1 .303-.205 2 2 0 0 1 .235-.005h2.005c.177 0 .21.001.236.005.172.026.245.086.29.18l.043.095c.05.115.127.29.23.473"/><path fill="#FD4E4E" fill-rule="evenodd" d="M17 79c6.627 0 12-5.373 12-12s-5.373-12-12-12S5 60.373 5 67s5.373 12 12 12m-1.184-17.833c-.13 0-.247 0-.358.016-.434.067-.82.328-1.03.717a4 4 0 0 1-.482.693q-.156.177-.284.267a.4.4 0 0 1-.115.06h-1.88a.5.5 0 1 0 0 1h10.666a.5.5 0 1 0 0-1h-2.199c-.194 0-.345-.097-.495-.301a2.7 2.7 0 0 1-.28-.522l-.079-.173c-.226-.477-.644-.68-1.043-.74-.11-.017-.227-.017-.358-.017zm-2.483 3.826a.5.5 0 0 0-.997.069l.282 4.068c.052.746.095 1.356.194 1.836.105.505.285.932.658 1.267.37.331.819.472 1.341.537.503.063 1.137.063 1.92.063h.538c.782 0 1.416 0 1.919-.063.522-.065.971-.206 1.341-.537.373-.335.553-.763.657-1.267.1-.48.143-1.09.195-1.836l.282-4.068a.5.5 0 1 0-.997-.07l-.28 4.033c-.055.79-.094 1.332-.179 1.738-.08.39-.191.587-.346.725-.157.141-.377.237-.798.29-.433.054-1.004.055-1.828.055h-.471c-.824 0-1.395 0-1.828-.055-.421-.053-.641-.149-.798-.29-.155-.138-.265-.335-.346-.725-.085-.406-.123-.948-.178-1.738zm2.64 1.444a.5.5 0 1 0-.995.103l.305 2.923a.5.5 0 1 0 .995-.104zm3.048.103a.5.5 0 1 0-.995-.103l-.305 2.922a.5.5 0 1 0 .995.104z" clip-rule="evenodd"/></svg>