<svg xmlns="http://www.w3.org/2000/svg" width="80" height="80" fill="none"><path fill="#9A9A9A" d="M58.995 49.095a.547.547 0 0 0-.547.547v20.453a6.866 6.866 0 0 1-6.857 6.858H28.405a6.866 6.866 0 0 1-6.858-6.858v-51.76a.547.547 0 0 0-1.094 0v51.76c0 4.385 3.567 7.952 7.952 7.952h23.187c4.385 0 7.952-3.567 7.952-7.952V49.642a.55.55 0 0 0-.549-.547M51.592 1.953H28.405c-4.385 0-7.952 3.567-7.952 7.952v4.718a.547.547 0 0 0 1.094 0V9.905a6.866 6.866 0 0 1 6.858-6.858h23.187a6.866 6.866 0 0 1 6.858 6.858V23.26a.547.547 0 0 0 1.094 0V9.905c-.002-4.385-3.569-7.952-7.952-7.952"/><path fill="#9A9A9A" d="M44.347 8.708c1.125 0 2.04-.915 2.04-2.04s-.915-2.041-2.04-2.041h-8.69c-1.126 0-2.041.916-2.041 2.04 0 1.126.915 2.041 2.04 2.041zm.947-2.04a.95.95 0 0 1-.947.946h-2.208a2.95 2.95 0 0 0 1.198-1.892h1.01a.946.946 0 0 1 .947.946M30.547 73.772c0 .302.245.547.547.547H48.91a.547.547 0 0 0 0-1.094H31.094a.546.546 0 0 0-.547.547"/><path fill="#E1EAF8" fill-rule="evenodd" d="M26.707 12h26.587c.666 0 1.206.777 1.206 1.735v7.53c0 .957-.541 1.735-1.207 1.735H26.707c-.666 0-1.207-.777-1.207-1.735v-7.53c0-.957.541-1.735 1.207-1.735m2.793 3a.5.5 0 0 0 0 1h19a.5.5 0 0 0 0-1zm0 4a.5.5 0 0 0 0 1h15a.5.5 0 0 0 0-1z" clip-rule="evenodd"/><rect width="8" height="2" x="24.5" y="52" fill="#E1EAF8" rx="1"/><rect width="8" height="2" x="35.5" y="52" fill="#E1EAF8" rx="1"/><rect width="8" height="2" x="46.5" y="52" fill="#E1EAF8" rx="1"/><rect width="8" height="2" x="24.5" y="56" fill="#E1EAF8" rx="1"/><rect width="8" height="2" x="35.5" y="56" fill="#E1EAF8" rx="1"/><rect width="8" height="2" x="46.5" y="56" fill="#E1EAF8" rx="1"/><rect width="8" height="2" x="24.5" y="60" fill="#E1EAF8" rx="1"/><rect width="8" height="2" x="35.5" y="60" fill="#E1EAF8" rx="1"/><rect width="8" height="2" x="46.5" y="60" fill="#E1EAF8" rx="1"/><path fill="#0166FF" d="M73.356 31H29.97c-1.087 0-1.97.883-1.97 1.97v8.55c0 1.088.883 1.97 1.97 1.97h43.385c1.087 0 1.97-.882 1.97-1.97v-8.55A1.97 1.97 0 0 0 73.356 31M41.03 37.247l-1.194.248a7 7 0 0 1-.927.09.077.077 0 0 0-.045.138q.395.324.645.596l.805.873a.186.186 0 0 1-.025.274l-1.297.971a.186.186 0 0 1-.273-.059l-.569-1.036q-.129-.231-.4-.858a.077.077 0 0 0-.142 0q-.295.687-.4.858l-.578 1.04a.185.185 0 0 1-.27.06l-1.333-.973a.185.185 0 0 1-.022-.28l.864-.872a8 8 0 0 1 .678-.606c.055-.044.033-.13-.036-.138q-.37-.044-.905-.143l-1.187-.193a.185.185 0 0 1-.146-.242l.516-1.51a.187.187 0 0 1 .252-.11l1.073.487q.179.082.833.47a.078.078 0 0 0 .115-.084q-.138-.63-.178-.957l-.153-1.16a.185.185 0 0 1 .183-.21h1.583c.11 0 .197.098.184.207l-.139 1.161q-.047.433-.183.966c-.017.064.052.118.111.089q.216-.111.299-.158a9 9 0 0 1 .58-.298l1.07-.508c.1-.049.22.003.254.11l.496 1.515a.187.187 0 0 1-.14.242m9.223 0-1.194.248a7 7 0 0 1-.926.09.077.077 0 0 0-.046.138q.397.324.646.596l.805.873a.186.186 0 0 1-.025.274l-1.297.971a.186.186 0 0 1-.274-.059l-.569-1.036q-.127-.231-.4-.858a.077.077 0 0 0-.142 0q-.295.687-.4.858l-.578 1.04a.185.185 0 0 1-.27.06l-1.333-.973a.185.185 0 0 1-.022-.28l.864-.872q.345-.346.678-.606c.055-.044.033-.13-.036-.138q-.37-.044-.904-.143l-1.188-.193a.185.185 0 0 1-.145-.242l.516-1.51a.187.187 0 0 1 .251-.11l1.073.487q.18.082.833.47a.078.078 0 0 0 .116-.084q-.138-.63-.178-.957l-.153-1.16a.185.185 0 0 1 .183-.21h1.582c.111 0 .197.098.185.207l-.14 1.161q-.046.433-.182.966c-.017.064.051.118.11.089q.218-.111.3-.158.379-.21.579-.298l1.07-.508c.1-.049.22.003.255.11l.495 1.515a.19.19 0 0 1-.139.242m9.224 0-1.194.248a7 7 0 0 1-.927.09c-.072.004-.1.093-.045.138q.395.324.645.596l.805.873a.186.186 0 0 1-.025.274l-1.297.971a.186.186 0 0 1-.273-.059l-.57-1.036q-.127-.231-.4-.858a.077.077 0 0 0-.141 0q-.295.687-.4.858l-.578 1.04a.185.185 0 0 1-.27.06l-1.334-.973a.185.185 0 0 1-.021-.28l.864-.872q.345-.346.678-.606c.054-.044.033-.13-.036-.138q-.37-.044-.905-.143l-1.187-.193a.185.185 0 0 1-.146-.242l.516-1.51a.187.187 0 0 1 .252-.11l1.073.487q.179.082.833.47a.078.078 0 0 0 .115-.084q-.138-.63-.178-.957l-.153-1.16a.185.185 0 0 1 .183-.21h1.583c.11 0 .197.098.184.207l-.139 1.161q-.047.433-.183.966c-.017.064.052.118.111.089q.216-.111.299-.158a9 9 0 0 1 .58-.298l1.07-.508c.1-.049.22.003.254.11l.496 1.515a.19.19 0 0 1-.14.242m9.223 0-1.194.248a7 7 0 0 1-.926.09.077.077 0 0 0-.046.138q.395.324.646.596l.804.873a.186.186 0 0 1-.025.274l-1.297.971a.186.186 0 0 1-.273-.059l-.569-1.036q-.128-.231-.4-.858a.077.077 0 0 0-.142 0q-.295.687-.4.858l-.578 1.04a.185.185 0 0 1-.27.06l-1.333-.973a.185.185 0 0 1-.022-.28l.864-.872a8 8 0 0 1 .678-.606c.055-.044.033-.13-.036-.138q-.37-.044-.904-.143l-1.188-.193a.185.185 0 0 1-.145-.242l.515-1.51a.187.187 0 0 1 .252-.11l1.073.487q.18.082.833.47c.058.034.131-.018.116-.084q-.139-.63-.178-.957l-.153-1.16a.185.185 0 0 1 .182-.21h1.583c.111 0 .197.098.185.207l-.14 1.161q-.046.433-.182.966c-.017.064.051.118.11.089q.216-.111.3-.158.379-.21.579-.298l1.07-.508a.183.183 0 0 1 .255.11l.495 1.515a.19.19 0 0 1-.139.242"/></svg>