<svg xmlns="http://www.w3.org/2000/svg" width="80" height="80" fill="none"><path fill="#E1EAF8" d="M54.813 69.908a.614.614 0 0 0-.615.614c0 2.344-1.9 4.244-4.243 4.244h-18.76a2.735 2.735 0 0 0-2.734 2.734h21.494a6.98 6.98 0 0 0 6.978-6.978v-.614zM43.944 8.053H32.46c-.94 0-1.777-.601-2.075-1.495L29.03 2.5h18.34L46.02 6.558a2.19 2.19 0 0 1-2.075 1.495"/><path fill="#0166FF" d="M43.013 63.489a.54.54 0 0 0 .362-.414.546.546 0 0 0-.71-.622l-3.857 1.294a.545.545 0 1 0 .347 1.037zM47.515 71.968a.55.55 0 0 0 .423-.361l1.323-3.847a.547.547 0 1 0-1.035-.356l-1.323 3.847a.547.547 0 0 0 .612.717M68.847 44.322a.54.54 0 0 0-.363.414.545.545 0 0 0 .71.622l3.857-1.295a.546.546 0 1 0-.347-1.036zM64.345 35.843a.55.55 0 0 0-.423.36l-1.323 3.848a.547.547 0 1 0 1.035.356l1.323-3.848a.547.547 0 0 0-.612-.716"/><path fill="#9A9A9A" d="M56.223 69.633c0-.301.246-.547.547-.547.303 0 .547.244.546.547v.89c0 4.148-3.375 7.524-7.525 7.524H26.283c-4.149 0-7.525-3.375-7.525-7.525v-6.308a.548.548 0 1 1 1.095 0v6.308a6.44 6.44 0 0 0 6.431 6.432h23.508a6.44 6.44 0 0 0 6.431-6.432zM27.386 38.565h19.12a.548.548 0 0 0 0-1.094h-19.12a.547.547 0 0 0 0 1.094M27.384 44.004h14.12a.548.548 0 0 0 0-1.094h-14.12a.547.547 0 0 0 0 1.094m9.647 5.109h-9.703a.548.548 0 0 0 0 1.094h9.703a.547.547 0 0 0 0-1.094m0 5.439h-9.703a.548.548 0 0 0 0 1.094h9.703a.547.547 0 0 0 0-1.094"/><path fill="#9A9A9A" d="M18.76 9.478v50.55a.548.548 0 1 0 1.096 0V9.477a6.44 6.44 0 0 1 6.432-6.431h23.507a6.44 6.44 0 0 1 6.432 6.431v28.694a.548.548 0 0 0 1.093 0V9.478c0-4.148-3.375-7.525-7.525-7.525h-23.51c-4.148 0-7.524 3.375-7.524 7.525"/><path stroke="#9A9A9A" stroke-width="1.2" d="M45.096 27.545v-.083c0-1.324-.948-2.4-2.21-3.11m2.21 3.193h-.6v-.082c0-1.011-.728-1.926-1.904-2.588l.294-.523m2.21 3.193c0 .942.002 2.125-1.035 2.97-.51.415-1.224.71-2.19.906m3.225-3.876h-.6c0 .974-.024 1.861-.814 2.504-.407.332-1.016.6-1.93.784m1.134-6.48-.294.522c-1.175-.661-2.798-1.07-4.59-1.07-1.793 0-3.416.409-4.592 1.07m9.476-.523c-1.28-.72-3.009-1.147-4.885-1.147s-3.604.427-4.885 1.147c-1.261.71-2.21 1.786-2.21 3.11v.083c0 .942-.002 2.125 1.035 2.97.51.415 1.225.71 2.19.906m0 0c.967.196 2.228.299 3.87.299 1.643 0 2.904-.103 3.87-.299m-7.74 0 .118-.588m-.119.588.12-.588m7.622.588-.12-.588m.12.588-.12-.588m0 0c-.912.185-2.129.287-3.75.287-1.623 0-2.84-.102-3.753-.287m0 0c-.913-.185-1.522-.452-1.929-.784-.79-.643-.815-1.53-.814-2.503v-.083c0-1.011.728-1.926 1.904-2.588m0 0-.293-.521.293.521Zm9.883 4.696c-.3.245-.803.484-1.663.658m1.663-.658.379.465m-.38-.465c.555-.45.588-1.048.588-2.109 0-.69-.504-1.439-1.59-2.05l-9.96 4.625c-.807-.658-.807-1.569-.807-2.572v-.003c0-1.001.72-1.912 1.895-2.573 1.173-.66 2.793-1.067 4.583-1.067s3.41.408 4.583 1.067c1.175.661 1.896 1.572 1.896 2.573v.003c0 1.004 0 1.914-.808 2.572m-.38-.466.38.465m-2.041.193.119.588c.911-.185 1.518-.451 1.922-.78m-2.041.192.118.588c-.91.184-2.126.287-3.748.287-1.621 0-2.837-.103-3.748-.287-.912-.185-1.519-.451-1.923-.78l.38-.466c.3.245.802.484 1.662.658.857.173 2.028.274 3.63.274 1.6 0 2.771-.1 3.628-.274Zm-6.882-12.096a3.252 3.252 0 1 1 6.503 0 3.252 3.252 0 0 1-6.503 0ZM38 14.898a3.235 3.235 0 1 0 0 6.47 3.235 3.235 0 0 0 0-6.47Z"/><path fill="#0166FF" fill-rule="evenodd" d="M57 66c6.627 0 12-5.373 12-12s-5.373-12-12-12-12 5.373-12 12 5.373 12 12 12" clip-rule="evenodd"/><path stroke="#fff" stroke-linecap="round" stroke-linejoin="round" stroke-width="1.1" d="M52.064 51.667V51.2c0-.867.2-1.667.733-2.267.534-.6 1.334-.933 2.334-.867h3.733c1 0 1.8.267 2.333.867s.734 1.4.734 2.267v5.6c0 .933-.2 1.733-.734 2.333-.533.533-1.333.867-2.333.867h-3.733c-1 0-1.8-.267-2.334-.867-.533-.6-.733-1.467-.733-2.333v-.467m4.6-2.333h-6m6 0-1.667-1.667M56.664 54l-1.667 1.8"/></svg>