<svg xmlns="http://www.w3.org/2000/svg" width="30" height="30" fill="none"><rect width="29" height="29" x=".5" y=".5" fill="#F5F7FF" rx="9.5"/><rect width="29" height="29" x=".5" y=".5" stroke="#E1EAF8" rx="9.5"/><path stroke="#0166FF" stroke-linecap="round" d="M20.667 11.667v4c0 2.514 0 3.77-.781 4.552S17.848 21 15.333 21h-.666c-2.514 0-3.772 0-4.553-.781-.78-.781-.78-2.038-.78-4.552v-4M14 16h2c.31 0 .466 0 .588-.05a.67.67 0 0 0 .361-.361C17 15.466 17 15.31 17 15s0-.466-.05-.588a.67.67 0 0 0-.361-.361C16.466 14 16.31 14 16 14h-2c-.31 0-.466 0-.588.05a.67.67 0 0 0-.361.361C13 14.535 13 14.69 13 15s0 .466.05.588a.67.67 0 0 0 .361.361c.123.051.278.051.589.051Zm-4.333-4.333h10.666c.629 0 .943 0 1.138-.196.196-.195.196-.51.196-1.138s0-.942-.196-1.138C21.276 9 20.961 9 20.333 9H9.667c-.629 0-.943 0-1.138.195-.196.196-.196.51-.196 1.138 0 .629 0 .943.196 1.138.195.196.51.196 1.138.196Z"/></svg>