<svg xmlns="http://www.w3.org/2000/svg" width="302" height="187" fill="none"><path stroke="#CCC" stroke-linecap="round" stroke-width="2" d="M104 157H64M49 117H1M148 1h-36M291 94h-60M301 65h-24M88.5 45H54M171 186h-26M210 23h-16M267 132h-16" opacity=".3"/><circle cx="2" cy="2" r="2" fill="#0166FF" transform="matrix(-1 0 0 1 267 63)"/><circle cx="2" cy="2" r="2" fill="#F0F0F0" transform="matrix(-1 0 0 1 231 1)"/><circle cx="2" cy="2" r="2" fill="#F0F0F0" transform="matrix(-1 0 0 1 246 157)"/><circle cx="3.5" cy="3.5" r="3.5" fill="#0166FF" transform="matrix(-1 0 0 1 45 41)"/><circle cx="2" cy="2" r="2" fill="#0166FF" transform="matrix(-1 0 0 1 64 115)"/></svg>