<svg xmlns="http://www.w3.org/2000/svg" width="48" height="48" fill="none"><g clip-path="url(#a)"><path fill="#9A9A9A" d="M30.655 4.8H18.554c-2.288 0-4.15 1.8-4.15 4.013v2.382c0 .152.128.276.286.276a.28.28 0 0 0 .285-.276V8.813c0-1.908 1.606-3.46 3.579-3.46h12.1c1.974 0 3.58 1.552 3.58 3.46V39.19c0 1.908-1.606 3.46-3.58 3.46h-12.1c-1.973 0-3.579-1.552-3.579-3.46v-26.12a.28.28 0 0 0-.285-.277.28.28 0 0 0-.286.276v26.12c0 2.213 1.862 4.013 4.15 4.013h12.1c2.289 0 4.15-1.8 4.15-4.013V8.813c0-2.212-1.862-4.012-4.15-4.012"/><path fill="#9A9A9A" d="M26.21 8.038c.572 0 1.037-.457 1.037-1.019S26.782 6 26.21 6H21.8c-.571 0-1.036.457-1.036 1.019s.465 1.019 1.036 1.019zm.481-1.019c0 .26-.215.473-.48.473H25.09c.315-.22.538-.557.608-.945h.512c.265 0 .481.211.481.472m-7.208 33.235a.276.276 0 0 0-.278.273c0 .15.125.273.278.273h9.045a.276.276 0 0 0 .277-.273.276.276 0 0 0-.277-.273z"/><path fill="#0166FF" d="M47.485 21.184a1.912 1.912 0 1 0-3.123-2.206 1.912 1.912 0 0 0 3.123 2.206M4.192 20.615a1.912 1.912 0 1 0-3.693-.99 1.912 1.912 0 0 0 3.693.99M7.081 41.913a1.912 1.912 0 1 0-1.912 3.31 1.912 1.912 0 0 0 1.912-3.31m34.097 0a1.912 1.912 0 1 0 1.914 3.312 1.912 1.912 0 0 0-1.914-3.312M6.368 2.657A1.912 1.912 0 1 0 8.284 5.97a1.912 1.912 0 0 0-1.914-3.312m37.444 0a1.912 1.912 0 1 0-1.913 3.311 1.912 1.912 0 0 0 1.913-3.31"/><path stroke="#9A9A9A" stroke-linecap="round" stroke-width=".625" d="m11.28 14.28-3-1.2-.6-3M37.92 14.28l3-1.2.6-3M5.482 24.148l2.15 1.223 5.485-1.4M44.797 24.148l-2.15 1.223-5.485-1.4M38.28 34.56l2.4 1.8.6 2.4M10.32 34.56l-2.4 1.8-.6 2.4"/><path fill="#9A9A9A" d="M24.625 15.25c-2.344 0-4.25 1.758-4.25 3.92v1.815h-1.378c-.687 0-1.247.516-1.247 1.15V31.6c0 .634.559 1.15 1.247 1.15h11.256c.687 0 1.247-.515 1.247-1.15v-9.465c0-.634-.559-1.15-1.247-1.15h-1.377V19.17c0-2.16-1.907-3.919-4.251-3.919m-3.619 3.92c0-1.84 1.623-3.336 3.619-3.336 1.995 0 3.618 1.496 3.618 3.336v1.816h-7.238zm9.862 2.966V31.6c0 .312-.275.567-.615.567H18.997c-.339 0-.615-.254-.615-.567v-9.465c0-.313.275-.567.615-.567h11.256c.339 0 .615.254.615.567"/></g><defs><clipPath id="a"><path fill="#fff" d="M0 0h48v48H0z"/></clipPath></defs></svg>