<svg xmlns="http://www.w3.org/2000/svg" width="48" height="48" fill="none"><path fill="#0166FF" d="M27.536 16.851 24.288 21.6a.348.348 0 0 1-.574 0l-3.249-4.748a.348.348 0 0 1 .287-.543h1.11a.1.1 0 0 0 .1-.1v-5.682a.395.395 0 0 1 .394-.395h3.29a.395.395 0 0 1 .395.395v5.681a.1.1 0 0 0 .1.1h1.11a.347.347 0 0 1 .285.544"/><path fill="#D4E1E8" d="M24.08 43.958a.328.328 0 0 1 0-.656h4.286l-.266-.951a2.725 2.725 0 0 0-2.625-1.992h-2.836a3.227 3.227 0 0 0-3.227 3.227v.357c0 .81.657 1.467 1.467 1.467h6.557c.76 0 1.31-.72 1.114-1.452z"/><path fill="#9A9A9A" d="M14.563 25.138c0 .2.104.38.277.48l2.608 1.506v3.11c0 .298.16.576.42.725l5.713 3.3a.842.842 0 0 0 .838 0l5.714-3.3a.84.84 0 0 0 .42-.725v-1.358a.329.329 0 0 0-.657 0v1.358a.18.18 0 0 1-.09.157l-5.478 3.162v-6.05l2.505 1.447a.55.55 0 0 0 .555 0l5.77-3.332c.174-.1.278-.28.278-.48a.55.55 0 0 0-.277-.48l-2.28-1.316 2.28-1.316a.55.55 0 0 0 .277-.48.55.55 0 0 0-.277-.48l-4.702-2.714a.328.328 0 0 0-.328.568l4.549 2.626-2.455 1.417-2.745-1.585a.328.328 0 0 0-.329.568l2.417 1.396L24 26.556l-5.566-3.215 2.572-1.485a.328.328 0 0 0-.328-.568l-2.9 1.675-2.456-1.417 4.549-2.627a.328.328 0 0 0-.328-.568l-4.702 2.714a.55.55 0 0 0-.277.48c0 .2.104.38.277.48l2.28 1.316-2.28 1.316a.55.55 0 0 0-.277.481m3.631 5.253a.18.18 0 0 1-.09-.157v-2.731l2.506 1.447a.55.55 0 0 0 .555 0l2.506-1.446v6.05zm8.917-2.038-2.455-1.419 5.567-3.214 2.455 1.417zm-9.335-4.632 5.567 3.214-2.455 1.417-5.567-3.214z"/><path fill="#9A9A9A" d="M30.957 1.172H17.044a4.776 4.776 0 0 0-4.77 4.77v2.832a.329.329 0 0 0 .656 0V5.943a4.12 4.12 0 0 1 4.114-4.115h13.913a4.12 4.12 0 0 1 4.115 4.115v36.115a4.12 4.12 0 0 1-4.115 4.115H17.044a4.12 4.12 0 0 1-4.114-4.115V11.002a.329.329 0 0 0-.657 0v31.055c0 2.63 2.14 4.771 4.771 4.771h13.913c2.63 0 4.77-2.14 4.77-4.77V5.942c0-2.63-2.14-4.771-4.77-4.771"/><path fill="#9A9A9A" d="M26.608 5.224c.675 0 1.224-.55 1.224-1.224 0-.675-.549-1.225-1.224-1.225h-5.214a1.226 1.226 0 0 0 0 2.449zM27.176 4a.57.57 0 0 1-.568.568h-1.325c.373-.264.637-.669.72-1.135h.605c.313-.001.568.254.568.567m-8.52 39.935a.328.328 0 0 0 0 .656h10.69a.328.328 0 0 0 0-.657z"/></svg>