<svg xmlns="http://www.w3.org/2000/svg" width="48" height="48" fill="none"><path fill="#9A9A9A" d="M38.074 24.11a.93.93 0 0 1-.135-.483V6.835c0-.328-.127-.636-.36-.868l-.97-.97a1.22 1.22 0 0 0-.868-.36H10.647c-.328 0-.637.127-.868.36l-.972.97a1.22 1.22 0 0 0-.36.868v34.308c0 .328.128.636.36.868l.972.971c.231.232.54.36.868.36h26.708c.328 0 .637-.127.868-.36l.97-.97c.232-.231.36-.54.36-.868a.328.328 0 0 0-.656 0c0 .153-.059.296-.167.404l-.97.97a.57.57 0 0 1-.405.168H10.647a.56.56 0 0 1-.404-.168l-.972-.971a.57.57 0 0 1-.167-.404V6.835c0-.153.059-.296.167-.404l.97-.97a.57.57 0 0 1 .405-.168H35.74c.153 0 .296.059.404.168l.97.97a.57.57 0 0 1 .168.404v16.792c0 .29.08.575.23.824l1.248 2.056a.94.94 0 0 1 .135.483v12.381a.328.328 0 0 0 .657 0v-12.38c0-.291-.08-.576-.231-.825z"/><path fill="#E1EAF8" d="M38.215 3.937H9.785a.66.66 0 0 1-.55-.292.66.66 0 0 1-.067-.618l.51-1.279a.91.91 0 0 1 .85-.576h26.944a.91.91 0 0 1 .85.576l.51 1.28a.66.66 0 0 1-.068.617.66.66 0 0 1-.55.292"/><path fill="#fff" d="M10.382 1.872a.26.26 0 0 0-.095.12L9.779 3.27l.007.01h1.354a.34.34 0 0 1 .023-.16c.223-.56.63-1.01 1.133-1.292h-1.769a.26.26 0 0 0-.145.044"/><path fill="#E1EAF8" d="M9.785 44.063h28.429a.66.66 0 0 1 .55.291.66.66 0 0 1 .067.618l-.51 1.279a.91.91 0 0 1-.85.576H10.528a.91.91 0 0 1-.85-.576l-.51-1.28a.662.662 0 0 1 .617-.908"/><path fill="#fff" d="m9.777 44.73.51 1.278c.039.1.133.163.24.163h1.768a2.57 2.57 0 0 1-1.134-1.292.4.4 0 0 1-.023-.16H9.784z"/><path fill="#9A9A9A" d="M39.225 7.643a.33.33 0 0 0-.328.328v13.942a.328.328 0 0 0 .656 0V7.971a.33.33 0 0 0-.328-.328"/><path fill="#E1EAF8" d="M36.843 27.626c.333.392.516.89.516 1.403v8.396a3.134 3.134 0 0 1-3.134 3.134h-4.643a1.187 1.187 0 0 1-1.187-1.188c0-.587.321-1.127.837-1.408a12.22 12.22 0 0 0 6.026-7.798l.57-2.301a.586.586 0 0 1 1.015-.238"/><path fill="#0166FF" fill-rule="evenodd" d="M23.992 12.43a1.9 1.9 0 0 0-1.912 0l-6.639 3.873c-.583.34-.941.964-.941 1.638v7.78c0 .674.358 1.298.941 1.638l.335.196a.8.8 0 0 1 .224-.209l7.543-4.61a2.66 2.66 0 0 1 2.78.005l5.173 3.184q.03.018.06.04.015-.12.015-.244v-7.78c0-.674-.358-1.298-.94-1.638zm6.785 14.834a1 1 0 0 1-.079-.042l-5.174-3.184a1.14 1.14 0 0 0-1.187-.002L17.21 28.39l4.87 2.84c.59.345 1.32.345 1.912 0l6.638-3.872q.077-.045.147-.095M19.055 19.46a1.135 1.135 0 1 1 2.271 0 1.135 1.135 0 0 1-2.27 0m1.136-2.658a2.658 2.658 0 1 0 0 5.317 2.658 2.658 0 0 0 0-5.317" clip-rule="evenodd"/></svg>