<svg xmlns="http://www.w3.org/2000/svg" width="48" height="48" fill="none"><path fill="#EBECED" d="M37.131 17.295a14.7 14.7 0 0 1 1.607 7.008c-.16 7.955-6.689 14.388-14.645 14.438a14.7 14.7 0 0 1-11.078-4.913c-.51.941-.29 2.116.535 2.799a16.32 16.32 0 0 0 10.21 3.762c9.07.13 16.63-7.318 16.63-16.389 0-2.01-.362-3.936-1.025-5.715a1.706 1.706 0 0 0-2.234-.99"/><path fill="#0166FF" d="m21.217 24.574-.173.188-4.78 8.278a1.126 1.126 0 0 0 .413 1.538l1.774 1.024c.539.311 1.227.126 1.538-.413l3.71-6.426a.38.38 0 0 0 0-.375l-2.182-3.781a.188.188 0 0 0-.3-.033m-1.902 8.46a.36.36 0 0 1-.491.132l-.225-.13a.36.36 0 0 1-.131-.49l3.095-5.361a.36.36 0 0 1 .492-.131l.224.13a.36.36 0 0 1 .132.49z"/><path fill="#EBECED" d="m33.1 5.612.308-1.148a.66.66 0 0 0-.066-.499l-.39-.677a.66.66 0 0 0-.4-.306l-5.449-1.46a.66.66 0 0 0-.499.066l-.678.39a.66.66 0 0 0-.305.4l-.309 1.152c2.783.175 5.415.905 7.788 2.082M1.98 22.073c.087.151.23.26.398.306l1.153.308A20.4 20.4 0 0 1 5.612 14.9l-1.148-.307a.66.66 0 0 0-.499.066l-.677.39a.66.66 0 0 0-.306.399l-1.46 5.45a.66.66 0 0 0 .066.498zm12.92-16.461a20.4 20.4 0 0 1 7.788-2.082l-.308-1.152a.66.66 0 0 0-.306-.398l-.678-.391a.66.66 0 0 0-.498-.066l-5.449 1.46a.66.66 0 0 0-.399.306l-.39.677a.66.66 0 0 0-.066.5zM44.47 22.687l1.151-.308a.66.66 0 0 0 .399-.306l.39-.678a.66.66 0 0 0 .066-.498l-1.46-5.449a.66.66 0 0 0-.305-.399l-.678-.39a.66.66 0 0 0-.498-.066l-1.148.307a20.4 20.4 0 0 1 2.083 7.787m-3.396-10.06.84-.84a.66.66 0 0 0 .193-.465v-.783a.66.66 0 0 0-.193-.464l-3.989-3.989a.66.66 0 0 0-.464-.192h-.782a.66.66 0 0 0-.465.192l-.84.841a20.6 20.6 0 0 1 5.7 5.7m-34.148 0a20.6 20.6 0 0 1 5.7-5.7l-.84-.84a.66.66 0 0 0-.465-.193h-.783a.66.66 0 0 0-.464.192l-3.989 3.99a.66.66 0 0 0-.192.463v.783c0 .174.07.341.192.464zm34.148 22.746a20.6 20.6 0 0 1-5.7 5.7l.84.84c.124.123.29.193.465.193h.782c.175 0 .342-.07.465-.192l3.988-3.99a.66.66 0 0 0 .193-.463v-.783a.66.66 0 0 0-.193-.464zm5.338-8.769-.391-.678a.66.66 0 0 0-.399-.305l-1.152-.309a20.4 20.4 0 0 1-2.082 7.788l1.148.308a.66.66 0 0 0 .498-.066l.678-.39c.15-.088.26-.231.306-.4l1.46-5.448a.66.66 0 0 0-.066-.5M33.1 42.388a20.4 20.4 0 0 1-7.788 2.082l.309 1.151a.66.66 0 0 0 .305.399l.678.39c.151.088.33.111.499.066l5.449-1.46a.66.66 0 0 0 .398-.305l.391-.678c.087-.15.11-.33.066-.498zM6.926 35.373l-.84.84a.66.66 0 0 0-.193.465v.783c0 .174.07.34.192.464l3.99 3.989c.122.122.29.192.463.192h.783c.175 0 .341-.07.464-.192l.841-.841a20.6 20.6 0 0 1-5.7-5.7M3.53 25.313l-1.152.308a.66.66 0 0 0-.398.305l-.391.678a.66.66 0 0 0-.066.499l1.46 5.449a.66.66 0 0 0 .306.398l.677.391c.151.087.33.11.5.066l1.147-.308a20.4 20.4 0 0 1-2.083-7.787M14.9 42.387l-.308 1.148a.66.66 0 0 0 .066.498l.39.678c.088.15.231.26.399.306l5.449 1.46a.66.66 0 0 0 .499-.066l.677-.391c.151-.087.261-.23.306-.399l.308-1.15a20.4 20.4 0 0 1-7.786-2.084"/><path fill="#9A9A9A" d="M46.305 25.763a.98.98 0 0 0-.598-.459l-2.18-.584a.33.33 0 0 1-.243-.317V23.6a.33.33 0 0 1 .244-.317l2.18-.584a.98.98 0 0 0 .597-.458l.391-.678a.98.98 0 0 0 .099-.747l-1.46-5.45a.98.98 0 0 0-.459-.597l-.677-.391a.98.98 0 0 0-.747-.099l-2.18.585a.33.33 0 0 1-.37-.153l-.402-.697a.33.33 0 0 1 .053-.396l1.595-1.596a.98.98 0 0 0 .29-.697v-.783a.98.98 0 0 0-.29-.696l-3.989-3.99a.98.98 0 0 0-.696-.288h-.783a.98.98 0 0 0-.697.289l-1.595 1.596a.33.33 0 0 1-.397.052l-.696-.402a.33.33 0 0 1-.153-.37l.584-2.18a.98.98 0 0 0-.099-.746l-.39-.678a.98.98 0 0 0-.599-.459l-5.45-1.463a.98.98 0 0 0-.747.098l-.678.391a.98.98 0 0 0-.459.598l-.584 2.18a.33.33 0 0 1-.317.244H23.6a.33.33 0 0 1-.317-.244l-.584-2.18a.98.98 0 0 0-.458-.598l-.678-.39a.98.98 0 0 0-.747-.1l-5.45 1.46a.98.98 0 0 0-.597.459l-.391.678a.98.98 0 0 0-.099.747l.585 2.18a.33.33 0 0 1-.153.37l-.697.401a.33.33 0 0 1-.396-.052L12.02 5.852a.98.98 0 0 0-.697-.289h-.783a.98.98 0 0 0-.696.29L5.855 9.84a.98.98 0 0 0-.288.697v.783c0 .263.102.51.289.696l1.596 1.596a.33.33 0 0 1 .052.396l-.402.697a.33.33 0 0 1-.37.153l-2.18-.584a.98.98 0 0 0-.746.098l-.678.391a.98.98 0 0 0-.46.598l-1.462 5.45a.98.98 0 0 0 .098.748l.391.678c.132.228.344.39.598.458l2.18.584a.33.33 0 0 1 .244.317v.804a.33.33 0 0 1-.244.318l-2.18.584a.98.98 0 0 0-.598.459l-.39.678a.98.98 0 0 0-.1.747l1.46 5.449c.069.254.231.466.459.598l.678.39a.98.98 0 0 0 .747.1.328.328 0 1 0-.17-.635.33.33 0 0 1-.25-.032l-.678-.391a.33.33 0 0 1-.153-.2l-1.46-5.449a.33.33 0 0 1 .034-.25l.39-.677a.33.33 0 0 1 .2-.153l2.18-.584a.99.99 0 0 0 .73-.952v-.804c0-.445-.3-.836-.73-.951l-2.18-.585a.33.33 0 0 1-.2-.152l-.39-.678a.33.33 0 0 1-.033-.25l1.46-5.448a.33.33 0 0 1 .152-.2l.678-.39a.33.33 0 0 1 .25-.034l2.18.584a.99.99 0 0 0 1.107-.459l.402-.697a.986.986 0 0 0-.156-1.188l-1.596-1.596a.33.33 0 0 1-.096-.232v-.783c0-.087.034-.172.096-.233l3.99-3.989a.33.33 0 0 1 .232-.096h.783c.088 0 .17.033.232.096l1.596 1.596a.986.986 0 0 0 1.189.156l.696-.402a.986.986 0 0 0 .458-1.108l-.584-2.18a.33.33 0 0 1 .033-.249l.391-.678a.33.33 0 0 1 .2-.153l5.449-1.46a.33.33 0 0 1 .249.034l.678.39c.076.045.13.115.153.2l.584 2.18a.99.99 0 0 0 .951.73h.805c.445 0 .836-.3.951-.73l.584-2.18a.33.33 0 0 1 .153-.2l.678-.39a.33.33 0 0 1 .25-.033l5.448 1.46a.33.33 0 0 1 .2.152l.39.678a.33.33 0 0 1 .033.25l-.584 2.18a.99.99 0 0 0 .459 1.107l.696.402a.986.986 0 0 0 1.19-.156l1.595-1.596a.33.33 0 0 1 .232-.096h.783c.086 0 .172.034.232.096l3.99 3.99a.33.33 0 0 1 .096.232v.783a.33.33 0 0 1-.096.232l-1.596 1.596a.986.986 0 0 0-.157 1.189l.403.696a.986.986 0 0 0 1.108.458l2.18-.584a.33.33 0 0 1 .249.033l.678.391c.075.044.13.114.152.2l1.46 5.449a.33.33 0 0 1-.033.249l-.39.678a.33.33 0 0 1-.2.153l-2.18.584a.99.99 0 0 0-.73.951v.805c0 .445.3.836.73.951l2.18.584a.33.33 0 0 1 .2.153l.39.678a.33.33 0 0 1 .033.25l-1.46 5.448a.33.33 0 0 1-.152.2l-.678.39a.33.33 0 0 1-.25.033l-2.18-.584a.99.99 0 0 0-1.107.46l-.403.696a.986.986 0 0 0 .157 1.189l1.596 1.596a.33.33 0 0 1 .096.232v.783a.33.33 0 0 1-.096.233l-3.99 3.989a.33.33 0 0 1-.232.096h-.783a.32.32 0 0 1-.232-.096l-1.596-1.596a.99.99 0 0 0-1.189-.157l-.696.402a.986.986 0 0 0-.459 1.109l.584 2.18a.33.33 0 0 1-.032.249l-.391.678a.33.33 0 0 1-.2.152l-5.449 1.46a.33.33 0 0 1-.25-.033l-.677-.39a.33.33 0 0 1-.153-.2l-.584-2.18a.99.99 0 0 0-.951-.73h-.805c-.445 0-.836.3-.951.73l-.584 2.18a.33.33 0 0 1-.153.2l-.678.39a.33.33 0 0 1-.25.033l-5.448-1.46a.33.33 0 0 1-.2-.152l-.39-.678a.33.33 0 0 1-.034-.25l.585-2.18a.99.99 0 0 0-.459-1.108l-.697-.402a.986.986 0 0 0-1.188.157l-1.596 1.596a.33.33 0 0 1-.232.096h-.783a.33.33 0 0 1-.233-.096l-3.989-3.99a.33.33 0 0 1-.096-.232v-.783c0-.086.034-.171.096-.232l1.596-1.596a.986.986 0 0 0 .156-1.189l-.402-.696a.986.986 0 0 0-1.108-.459.328.328 0 1 0 .17.635.33.33 0 0 1 .37.153l.401.696a.33.33 0 0 1-.052.397L5.85 35.98a.98.98 0 0 0-.289.697v.783c0 .263.103.51.29.697l3.988 3.989a.98.98 0 0 0 .697.288h.783c.263 0 .51-.102.696-.288l1.596-1.596a.33.33 0 0 1 .396-.053l.697.403a.33.33 0 0 1 .153.369l-.584 2.18a.98.98 0 0 0 .098.747l.391.678c.131.227.344.39.598.458l5.452 1.462q.127.033.257.033c.17 0 .339-.045.49-.132l.679-.39a.98.98 0 0 0 .458-.599l.584-2.18a.33.33 0 0 1 .317-.243h.805a.33.33 0 0 1 .316.244l.584 2.18a.98.98 0 0 0 .459.597l.678.391a.98.98 0 0 0 .747.099l5.449-1.46a.98.98 0 0 0 .598-.459l.39-.677a.98.98 0 0 0 .1-.747l-.585-2.18a.33.33 0 0 1 .153-.37l.696-.402a.33.33 0 0 1 .397.053l1.596 1.595a.98.98 0 0 0 .696.29h.783c.263 0 .51-.103.697-.29l3.989-3.989a.98.98 0 0 0 .288-.696v-.783a.98.98 0 0 0-.288-.697l-1.596-1.595a.33.33 0 0 1-.052-.397l.402-.696a.33.33 0 0 1 .369-.153l2.18.584c.254.068.52.033.747-.099l.678-.39a.98.98 0 0 0 .46-.599l1.46-5.45a.98.98 0 0 0-.098-.747z"/><path fill="#9A9A9A" d="M24 9.588c3.036 0 5.94.933 8.397 2.697a.327.327 0 1 0 .383-.532A14.96 14.96 0 0 0 24 8.932C15.691 8.932 8.932 15.69 8.932 24 8.932 32.31 15.69 39.07 24 39.07c8.31 0 15.069-6.76 15.069-15.069a14.95 14.95 0 0 0-4.562-10.8.328.328 0 1 0-.458.47A14.3 14.3 0 0 1 38.412 24c0 7.947-6.465 14.412-14.412 14.412S9.588 31.947 9.588 24 16.053 9.588 24 9.588"/><path fill="#0166FF" d="M32.107 30.819a3.59 3.59 0 0 0-3.09-1.796L22.18 17.179a3.588 3.588 0 0 0-2.901-5.36.114.114 0 0 0-.104.17l1.334 2.31a.11.11 0 0 1 .011.085l-.246.92a.1.1 0 0 1-.053.069l-1.774 1.023a.11.11 0 0 1-.085.012l-.92-.247a.1.1 0 0 1-.068-.052l-1.334-2.31a.113.113 0 0 0-.199.005A3.593 3.593 0 0 0 19.045 19v.015l6.83 11.827a3.61 3.61 0 0 0-.035 3.495 3.58 3.58 0 0 0 2.7 1.843.226.226 0 0 0 .227-.336l-1.2-2.08a.22.22 0 0 1-.023-.172l.222-.83a.23.23 0 0 1 .105-.137l1.692-.976a.22.22 0 0 1 .172-.023l.83.222a.23.23 0 0 1 .137.105l1.2 2.08c.093.161.331.148.404-.023.42-1 .385-2.178-.2-3.19m-5-1.747-.236.137a.47.47 0 0 1-.646-.173l-5.453-9.445a.474.474 0 0 1 .174-.646l.236-.136a.47.47 0 0 1 .646.173l5.453 9.444a.473.473 0 0 1-.174.646"/><path fill="#0166FF" d="m30.792 12.996-.709-.409a.375.375 0 0 0-.44.047l-1.47 1.328a.75.75 0 0 0-.245.49l-.064.712a.5.5 0 0 1-.07.22L24.957 20.3a.38.38 0 0 0 0 .375l.862 1.493a.188.188 0 0 0 .324 0l3.373-5.79a.54.54 0 0 1 .156-.17l.584-.411a.75.75 0 0 0 .302-.458l.414-1.938a.38.38 0 0 0-.179-.405"/><path fill="#FD4E4E" d="M43.894 9.645a.327.327 0 0 1-.28-.497.33.33 0 0 1 .201-.15l2.37-.589a.328.328 0 0 1 .158.637l-2.37.589a.3.3 0 0 1-.079.01m-4.91-5.58a.33.33 0 0 1-.305-.208.33.33 0 0 1 .005-.251l.976-2.237a.329.329 0 0 1 .602.262l-.977 2.237a.33.33 0 0 1-.3.197M1.736 39.6a.327.327 0 0 1-.28-.498.33.33 0 0 1 .2-.149l2.37-.589a.328.328 0 0 1 .158.637l-2.369.589a.3.3 0 0 1-.08.01m6.302 7.228a.325.325 0 0 1-.306-.208.33.33 0 0 1 .005-.251l.977-2.237a.329.329 0 0 1 .601.263L8.34 46.63a.33.33 0 0 1-.301.197"/></svg>