<svg width="48" height="48" viewBox="0 0 48 48" fill="none" xmlns="http://www.w3.org/2000/svg">
<path d="M37.1312 17.2954C38.2037 19.3907 38.7887 21.7766 38.738 24.3032C38.5787 32.2579 32.049 38.691 24.0933 38.7407C19.6908 38.7679 15.7337 36.8638 13.0149 33.8282C12.5049 34.7695 12.7252 35.9441 13.5502 36.6266C16.3299 38.9301 19.8821 40.3335 23.7605 40.3888C32.8299 40.5191 40.3908 33.0707 40.3908 24.0004C40.3908 21.9895 40.028 20.0638 39.3652 18.2845C39.0305 17.3854 38.0208 16.9373 37.1312 17.2954Z" fill="#EBECED"/>
<path d="M21.2173 24.574L21.0439 24.7615L16.2645 33.0396C15.9532 33.5787 16.1379 34.2668 16.677 34.5781L18.4507 35.6018C18.9898 35.9131 19.6779 35.7284 19.9892 35.1893L23.6998 28.7627C23.7664 28.6465 23.7664 28.504 23.6998 28.3877L21.5173 24.6068C21.4545 24.4981 21.3035 24.4812 21.2173 24.574ZM19.3151 33.0349C19.2673 33.1174 19.1888 33.1776 19.0966 33.2022C19.0045 33.2268 18.9064 33.2139 18.8239 33.1662L18.5989 33.0368C18.5163 32.989 18.4562 32.9105 18.4316 32.8183C18.4069 32.7262 18.4199 32.6281 18.4676 32.5456L21.5632 27.1849C21.611 27.1024 21.6896 27.0422 21.7817 27.0176C21.8738 26.993 21.9719 27.006 22.0545 27.0537L22.2795 27.1831C22.362 27.2308 22.4222 27.3094 22.4468 27.4015C22.4714 27.4936 22.4584 27.5917 22.4107 27.6743L19.3151 33.0349Z" fill="#0166FF"/>
<path d="M33.1002 5.61174L33.4077 4.46424C33.4527 4.29642 33.4292 4.11642 33.342 3.96549L32.9511 3.28767C32.8641 3.137 32.7208 3.02707 32.5527 2.98205L27.103 1.52236C26.9346 1.47731 26.7552 1.50091 26.6042 1.58799L25.9264 1.97892C25.7758 2.06597 25.6658 2.20928 25.6208 2.37736L25.3124 3.52955C28.0949 3.70486 30.7274 4.43517 33.1002 5.61174ZM1.97892 22.0733C2.06597 22.224 2.20928 22.3339 2.37736 22.3789L3.52955 22.6874C3.70486 19.9039 4.43611 17.2724 5.61174 14.8995L4.46424 14.592C4.29586 14.547 4.11648 14.5706 3.96549 14.6577L3.28767 15.0486C3.137 15.1357 3.02707 15.279 2.98205 15.447L1.52236 20.8967C1.47736 21.0645 1.5008 21.2445 1.58799 21.3955L1.97892 22.0733ZM14.8995 5.61174C17.2724 4.43517 19.9039 3.70486 22.6874 3.52955L22.3789 2.3783C22.3339 2.21022 22.224 2.0669 22.0733 1.97986L21.3955 1.58892C21.2445 1.5018 21.0651 1.47819 20.8967 1.5233L15.448 2.98299C15.2799 3.02801 15.1366 3.13794 15.0495 3.28861L14.6586 3.96642C14.5715 4.1174 14.5479 4.2968 14.593 4.46517L14.8995 5.61174ZM44.4702 22.6874L45.6214 22.3789C45.7895 22.3339 45.9328 22.224 46.0199 22.0733L46.4108 21.3955C46.498 21.2445 46.5214 21.0655 46.4764 20.8967L45.0167 15.448C44.9717 15.2799 44.8618 15.1366 44.7111 15.0495L44.0333 14.6586C43.8823 14.5715 43.7029 14.5479 43.5345 14.593L42.387 14.9005C43.5645 17.2724 44.2949 19.9049 44.4702 22.6874ZM41.0736 12.627L41.9145 11.7861C42.0374 11.6629 42.1066 11.4961 42.1067 11.322V10.5392C42.1067 10.3649 42.0374 10.198 41.9145 10.0752L37.9255 6.08611C37.8023 5.96321 37.6354 5.89411 37.4614 5.89392H36.6786C36.5042 5.89392 36.3374 5.9633 36.2145 6.08611L35.3736 6.92705C37.6301 8.43354 39.5671 10.3706 41.0736 12.627ZM6.92611 12.627C8.43287 10.3708 10.3698 8.4338 12.6261 6.92705L11.7852 6.08611C11.662 5.96321 11.4951 5.89411 11.3211 5.89392H10.5383C10.3639 5.89392 10.197 5.9633 10.0742 6.08611L6.08517 10.0752C5.96227 10.1984 5.89317 10.3652 5.89299 10.5392V11.322C5.89299 11.4964 5.96236 11.6633 6.08517 11.7861L6.92611 12.627ZM41.0736 35.3727C39.5669 37.629 37.6299 39.5659 35.3736 41.0727L36.2145 41.9136C36.3377 42.0365 36.5046 42.1056 36.6786 42.1058H37.4614C37.6358 42.1058 37.8027 42.0364 37.9255 41.9136L41.9145 37.9245C42.0374 37.8014 42.1066 37.6345 42.1067 37.4605V36.6777C42.1067 36.5033 42.0374 36.3364 41.9145 36.2136L41.0736 35.3727ZM46.4117 26.6042L46.0208 25.9264C45.9338 25.7758 45.7904 25.6658 45.6224 25.6208L44.4702 25.3124C44.2949 28.0958 43.5636 30.7274 42.388 33.1002L43.5355 33.4077C43.7033 33.4527 43.8833 33.4292 44.0342 33.342L44.712 32.9511C44.8627 32.8641 44.9726 32.7208 45.0177 32.5527L46.4774 27.1039C46.5224 26.9342 46.4989 26.7552 46.4117 26.6042ZM33.1002 42.388C30.7274 43.5645 28.0958 44.2949 25.3124 44.4702L25.6208 45.6214C25.6658 45.7895 25.7758 45.9328 25.9264 46.0199L26.6042 46.4108C26.7552 46.498 26.9342 46.5214 27.103 46.4764L32.5517 45.0167C32.7198 44.9717 32.8631 44.8618 32.9502 44.7111L33.3411 44.0333C33.4283 43.8824 33.4517 43.7033 33.4067 43.5345L33.1002 42.388ZM6.92611 35.3727L6.08517 36.2136C5.96227 36.3368 5.89317 36.5037 5.89299 36.6777V37.4605C5.89299 37.6349 5.96236 37.8017 6.08517 37.9245L10.0742 41.9136C10.1974 42.0365 10.3643 42.1056 10.5383 42.1058H11.3211C11.4955 42.1058 11.6624 42.0364 11.7852 41.9136L12.6261 41.0727C10.3696 39.5662 8.43261 37.6292 6.92611 35.3727ZM3.52955 25.3124L2.3783 25.6208C2.21022 25.6658 2.0669 25.7758 1.97986 25.9264L1.58892 26.6042C1.5018 26.7552 1.47819 26.9346 1.5233 27.103L2.98299 32.5517C3.02801 32.7198 3.13794 32.8631 3.28861 32.9502L3.96642 33.3411C4.11736 33.4283 4.29642 33.4517 4.46517 33.4067L5.61267 33.0992C4.43517 30.7274 3.70486 28.0949 3.52955 25.3124ZM14.8995 42.388L14.592 43.5355C14.547 43.7033 14.5705 43.8833 14.6577 44.0342L15.0486 44.712C15.1357 44.8627 15.279 44.9726 15.447 45.0177L20.8958 46.4774C21.0636 46.5224 21.2436 46.4989 21.3946 46.4117L22.0724 46.0208C22.223 45.9338 22.333 45.7904 22.378 45.6224L22.6864 44.4711C19.9049 44.2949 17.2724 43.5645 14.8995 42.388Z" fill="#EBECED"/>
<path d="M46.3053 25.7628C46.174 25.535 45.9612 25.3718 45.7072 25.3043L43.5275 24.7203C43.384 24.6818 43.2837 24.5515 43.2837 24.4034V23.599C43.2838 23.5267 43.3077 23.4565 43.3518 23.3992C43.3958 23.3419 43.4576 23.3008 43.5275 23.2822L45.7072 22.6981C45.9612 22.6297 46.174 22.4675 46.3053 22.2397L46.6962 21.5618C46.7612 21.45 46.8034 21.3264 46.8203 21.1981C46.8372 21.0699 46.8285 20.9395 46.7947 20.8147L45.335 15.3659C45.2665 15.1118 45.1043 14.899 44.8765 14.7678L44.1987 14.3768C43.9709 14.2456 43.7056 14.2109 43.4515 14.2784L41.2718 14.8625C41.202 14.8812 41.128 14.8764 41.0612 14.8488C40.9944 14.8212 40.9386 14.7723 40.9025 14.7097L40.5003 14.0131C40.4262 13.8847 40.4478 13.7215 40.5528 13.6165L42.1484 12.0209C42.334 11.8353 42.4372 11.5878 42.4372 11.3243V10.5415C42.4372 10.2781 42.335 10.0315 42.1484 9.84497L38.1593 5.85591C38.0681 5.76414 37.9595 5.69138 37.84 5.64181C37.7204 5.59225 37.5922 5.56688 37.4628 5.56716H36.68C36.4165 5.56716 36.17 5.66935 35.9834 5.85591L34.3878 7.45154C34.3366 7.50261 34.2701 7.53543 34.1984 7.54491C34.1267 7.5544 34.0539 7.54004 33.9912 7.50404L33.2947 7.10185C33.2321 7.06565 33.1833 7.00984 33.1556 6.94307C33.128 6.8763 33.1232 6.80228 33.1418 6.73247L33.7259 4.55279C33.7943 4.29872 33.7587 4.03341 33.6275 3.8056L33.2365 3.12779C33.1053 2.89997 32.8925 2.73685 32.6384 2.66935L27.1878 1.20591C27.0629 1.17208 26.9326 1.16335 26.8043 1.18025C26.6761 1.19715 26.5524 1.23933 26.4406 1.30435L25.7628 1.69529C25.535 1.82654 25.3718 2.03935 25.3043 2.29341L24.7203 4.4731C24.6818 4.61654 24.5515 4.71685 24.4034 4.71685H23.599C23.5267 4.7168 23.4565 4.69288 23.3992 4.6488C23.3419 4.60473 23.3007 4.54296 23.2822 4.4731L22.6981 2.29341C22.6297 2.03935 22.4665 1.82654 22.2397 1.69529L21.5618 1.30435C21.45 1.23933 21.3264 1.19715 21.1981 1.18025C21.0699 1.16335 20.9395 1.17208 20.8147 1.20591L15.3659 2.6656C15.1118 2.73404 14.9 2.89622 14.7678 3.12404L14.3768 3.80185C14.3118 3.91369 14.2696 4.03732 14.2528 4.16558C14.2359 4.29384 14.2446 4.42417 14.2784 4.54904L14.8625 6.72872C14.9009 6.87216 14.8381 7.02404 14.7097 7.0981L14.0131 7.50029C13.8847 7.57435 13.7215 7.55279 13.6165 7.44779L12.0209 5.85216C11.9296 5.76039 11.8211 5.68763 11.7015 5.63806C11.582 5.5885 11.4538 5.56313 11.3243 5.56341H10.5415C10.2781 5.56341 10.0315 5.6656 9.84497 5.85216L5.85591 9.84122C5.76414 9.93249 5.69138 10.041 5.64181 10.1606C5.59225 10.2802 5.56688 10.4084 5.56716 10.5378V11.3206C5.56716 11.584 5.66935 11.8306 5.85591 12.0172L7.45154 13.6128C7.50261 13.664 7.53543 13.7305 7.54491 13.8022C7.5544 13.8739 7.54004 13.9467 7.50404 14.0093L7.10185 14.7059C7.06565 14.7685 7.00984 14.8173 6.94307 14.8449C6.8763 14.8726 6.80228 14.8774 6.73247 14.8587L4.55279 14.2747C4.42792 14.2408 4.29759 14.2321 4.16933 14.249C4.04107 14.2659 3.91744 14.3081 3.8056 14.3731L3.12779 14.764C2.89997 14.8953 2.73685 15.1081 2.66841 15.3622L1.20591 20.8128C1.17208 20.9376 1.16335 21.068 1.18025 21.1962C1.19715 21.3245 1.23933 21.4481 1.30435 21.56L1.69529 22.2378C1.82654 22.4656 2.03935 22.6287 2.29341 22.6962L4.4731 23.2803C4.61654 23.3187 4.71685 23.449 4.71685 23.5972V24.4015C4.71669 24.4739 4.69275 24.5442 4.6487 24.6017C4.60466 24.6591 4.54296 24.7004 4.4731 24.7193L2.29341 25.3034C2.03935 25.3718 1.82654 25.534 1.69529 25.7618L1.30435 26.4397C1.23933 26.5515 1.19715 26.6751 1.18025 26.8034C1.16335 26.9316 1.17208 27.062 1.20591 27.1868L2.6656 32.6356C2.73404 32.8897 2.89622 33.1025 3.12404 33.2337L3.80185 33.6247C4.02966 33.7559 4.29497 33.7906 4.54904 33.7231C4.72435 33.6762 4.82747 33.4962 4.7806 33.3209C4.73372 33.1456 4.55372 33.0415 4.37841 33.0893C4.29404 33.1118 4.20497 33.1006 4.12904 33.0565L3.45122 32.6656C3.41376 32.6441 3.38095 32.6154 3.35471 32.5811C3.32847 32.5469 3.30933 32.5077 3.29841 32.4659L1.83872 27.0172C1.81622 26.9328 1.82747 26.8437 1.87154 26.7678L2.26247 26.09C2.30654 26.014 2.37685 25.9597 2.46216 25.9372L4.64185 25.3531C4.85117 25.2967 5.03611 25.1729 5.1681 25.001C5.3001 24.829 5.37181 24.6183 5.37216 24.4015V23.5972C5.37216 23.1518 5.07216 22.7609 4.64185 22.6456L2.46216 22.0615C2.37779 22.039 2.30654 21.9847 2.26247 21.9087L1.87154 21.2309C1.82747 21.155 1.81622 21.0659 1.83872 20.9815L3.29841 15.5328C3.32091 15.4484 3.37529 15.3772 3.45122 15.3331L4.12904 14.9422C4.20404 14.899 4.29497 14.8868 4.37841 14.9093L6.5581 15.4934C6.98747 15.6087 7.4431 15.4193 7.66622 15.034L8.06841 14.3375C8.2906 13.9522 8.22685 13.4637 7.91185 13.1487L6.31622 11.5531C6.28556 11.5227 6.26124 11.4864 6.24466 11.4465C6.22809 11.4066 6.21959 11.3638 6.21966 11.3206V10.5378C6.21966 10.4515 6.25435 10.3662 6.31622 10.3053L10.3053 6.31622C10.3672 6.25435 10.4497 6.21966 10.5378 6.21966H11.3206C11.4087 6.21966 11.4912 6.25341 11.5531 6.31622L13.1487 7.91185C13.4637 8.22685 13.9522 8.2906 14.3375 8.06841L15.034 7.66622C15.4193 7.44404 15.6078 6.98841 15.4925 6.5581L14.9084 4.37841C14.8859 4.29404 14.8972 4.20497 14.9412 4.12904L15.3322 3.45122C15.3762 3.37529 15.4475 3.32091 15.5318 3.29841L20.9806 1.83872C21.065 1.81622 21.154 1.82747 21.23 1.87154L21.9078 2.26247C21.9837 2.30654 22.0381 2.37685 22.0606 2.46216L22.6447 4.64185C22.7011 4.85117 22.8248 5.03611 22.9968 5.1681C23.1688 5.3001 23.3794 5.37181 23.5962 5.37216H24.4006C24.8459 5.37216 25.2368 5.07216 25.3522 4.64185L25.9362 2.46216C25.9587 2.37685 26.0131 2.30654 26.089 2.26247L26.7668 1.87154C26.8428 1.82747 26.9318 1.81622 27.0162 1.83872L32.465 3.29841C32.5493 3.32091 32.6206 3.37529 32.6647 3.45122L33.0556 4.12904C33.0997 4.20497 33.1109 4.29404 33.0884 4.37841L32.5043 6.5581C32.389 6.98747 32.5784 7.4431 32.9628 7.66622L33.6593 8.06841C34.0447 8.2906 34.534 8.22685 34.8481 7.91185L36.4437 6.31622C36.5047 6.25529 36.59 6.21966 36.6762 6.21966H37.459C37.5453 6.21966 37.6306 6.25435 37.6915 6.31622L41.6806 10.3053C41.7425 10.3672 41.7772 10.4497 41.7772 10.5378V11.3206C41.7772 11.4068 41.7425 11.4922 41.6806 11.5531L40.085 13.1487C39.9319 13.3021 39.8336 13.5017 39.8053 13.7166C39.777 13.9314 39.8203 14.1497 39.9284 14.3375L40.3306 15.034C40.5528 15.4193 41.0084 15.6078 41.4387 15.4925L43.6184 14.9084C43.7028 14.8859 43.7918 14.8972 43.8678 14.9412L44.5456 15.3322C44.6215 15.3762 44.6759 15.4465 44.6984 15.5318L46.1581 20.9806C46.1806 21.065 46.1693 21.154 46.1253 21.23L45.7343 21.9078C45.6903 21.9837 45.62 22.0381 45.5347 22.0606L43.355 22.6447C43.1456 22.7011 42.9607 22.8248 42.8287 22.9968C42.6967 23.1688 42.625 23.3794 42.6247 23.5962V24.4006C42.6247 24.8459 42.9247 25.2369 43.355 25.3522L45.5347 25.9362C45.619 25.9587 45.6903 26.0131 45.7343 26.089L46.1253 26.7668C46.1693 26.8428 46.1806 26.9319 46.1581 27.0162L44.6984 32.465C44.6759 32.5493 44.6215 32.6206 44.5456 32.6647L43.8678 33.0556C43.7928 33.0987 43.7018 33.1109 43.6184 33.0884L41.4387 32.5043C41.0093 32.389 40.5537 32.5784 40.3306 32.9637L39.9284 33.6603C39.8203 33.8481 39.777 34.0663 39.8053 34.2812C39.8336 34.4961 39.9319 34.6956 40.085 34.849L41.6806 36.4447C41.7425 36.5065 41.7772 36.589 41.7772 36.6772V37.46C41.7772 37.5462 41.7425 37.6315 41.6806 37.6925L37.6915 41.6815C37.6297 41.7434 37.5472 41.7781 37.459 41.7781H36.6762C36.5881 41.7781 36.5056 41.7444 36.4437 41.6815L34.8481 40.0859C34.6946 39.933 34.495 39.8348 34.2802 39.8066C34.0654 39.7783 33.8472 39.8214 33.6593 39.9293L32.9628 40.3315C32.5775 40.5537 32.389 41.0093 32.5043 41.4397L33.0884 43.6193C33.1109 43.7037 33.0997 43.7928 33.0556 43.8687L32.6647 44.5465C32.6206 44.6225 32.5493 44.6768 32.465 44.6993L27.0162 46.159C26.9318 46.1815 26.8428 46.1703 26.7668 46.1262L26.089 45.7353C26.0516 45.7138 26.0188 45.6851 25.9925 45.6508C25.9663 45.6165 25.9471 45.5774 25.9362 45.5356L25.3522 43.3559C25.2957 43.1466 25.172 42.9617 25 42.8297C24.828 42.6977 24.6174 42.626 24.4006 42.6256H23.5962C23.1509 42.6256 22.76 42.9256 22.6447 43.3559L22.0606 45.5356C22.0381 45.6209 21.9837 45.6912 21.9078 45.7353L21.23 46.1262C21.154 46.1703 21.065 46.1815 20.9806 46.159L15.5318 44.6993C15.4475 44.6768 15.3762 44.6225 15.3322 44.5465L14.9412 43.8687C14.8972 43.7928 14.8859 43.7037 14.9084 43.6193L15.4925 41.4397C15.6078 41.0103 15.4184 40.5547 15.034 40.3315L14.3375 39.9293C13.9522 39.7072 13.4628 39.7709 13.1487 40.0859L11.5531 41.6815C11.4922 41.7425 11.4068 41.7781 11.3206 41.7781H10.5378C10.4515 41.7781 10.3662 41.7434 10.3053 41.6815L6.31622 37.6925C6.28556 37.662 6.26124 37.6258 6.24466 37.5859C6.22809 37.546 6.21959 37.5032 6.21966 37.46V36.6772C6.21966 36.5909 6.25435 36.5056 6.31622 36.4447L7.91185 34.849C8.22685 34.534 8.2906 34.0456 8.06841 33.6603L7.66622 32.9637C7.44404 32.5784 6.98841 32.39 6.5581 32.5053C6.47393 32.5278 6.40215 32.5828 6.35855 32.6582C6.31495 32.7337 6.3031 32.8233 6.3256 32.9075C6.3481 32.9916 6.40311 33.0634 6.47854 33.107C6.55396 33.1506 6.64362 33.1625 6.72779 33.14C6.79759 33.1212 6.87164 33.126 6.93843 33.1536C7.00522 33.1813 7.06102 33.2302 7.09716 33.2928L7.49935 33.9893C7.57341 34.1178 7.55185 34.2809 7.44685 34.3859L5.85122 35.9815C5.75946 36.0728 5.68669 36.1814 5.63713 36.3009C5.58756 36.4205 5.56219 36.5487 5.56247 36.6781V37.4609C5.56247 37.7243 5.66466 37.9709 5.85122 38.1575L9.84029 42.1465C10.0259 42.3322 10.2734 42.4353 10.5368 42.4353H11.3197C11.5831 42.4353 11.8297 42.3331 12.0162 42.1465L13.6118 40.5509C13.663 40.4998 13.7296 40.467 13.8012 40.4575C13.8729 40.448 13.9457 40.4624 14.0084 40.4984L14.705 40.9006C14.8334 40.9747 14.8962 41.1265 14.8578 41.27L14.2737 43.4497C14.2399 43.5745 14.2312 43.7049 14.2481 43.8331C14.265 43.9614 14.3071 44.085 14.3722 44.1968L14.7631 44.8747C14.8943 45.1025 15.1072 45.2656 15.3612 45.3331L20.8128 46.7947C20.8981 46.8172 20.9834 46.8284 21.0697 46.8284C21.2403 46.8284 21.409 46.7834 21.5609 46.6962L22.2387 46.3053C22.4665 46.174 22.6297 45.9612 22.6972 45.7072L23.2812 43.5275C23.3197 43.384 23.45 43.2837 23.5981 43.2837H24.4025C24.4748 43.2838 24.545 43.3077 24.6023 43.3518C24.6596 43.3958 24.7008 43.4576 24.7193 43.5275L25.3034 45.7072C25.3718 45.9612 25.535 46.174 25.7618 46.3053L26.4397 46.6962C26.6675 46.8275 26.9328 46.8622 27.1868 46.7947L32.6356 45.335C32.8897 45.2665 33.1015 45.1043 33.2337 44.8765L33.6247 44.1987C33.6897 44.0869 33.7319 43.9633 33.7488 43.835C33.7657 43.7067 33.7569 43.5764 33.7231 43.4515L33.139 41.2719C33.1006 41.1284 33.1634 40.9765 33.2918 40.9025L33.9884 40.5003C34.1168 40.4262 34.28 40.4478 34.385 40.5528L35.9806 42.1484C36.1662 42.334 36.4137 42.4372 36.6772 42.4372H37.46C37.7234 42.4372 37.97 42.335 38.1565 42.1484L42.1456 38.1593C42.3312 37.9737 42.4343 37.7262 42.4343 37.4628V36.68C42.4343 36.4165 42.3322 36.17 42.1456 35.9834L40.55 34.3878C40.4989 34.3366 40.4661 34.2701 40.4566 34.1984C40.4471 34.1267 40.4615 34.0539 40.4975 33.9912L40.8997 33.2947C40.9359 33.2321 40.9917 33.1833 41.0584 33.1556C41.1252 33.128 41.1992 33.1232 41.269 33.1418L43.4487 33.7259C43.7028 33.7943 43.9681 33.7587 44.1959 33.6275L44.8737 33.2365C45.1015 33.1053 45.2647 32.8925 45.3331 32.6384L46.7947 27.1878C46.8631 26.9337 46.8275 26.6684 46.6962 26.4406L46.3053 25.7628Z" fill="#9A9A9A"/>
<path d="M24.0001 9.58789C27.0357 9.58789 29.9391 10.5207 32.3973 12.2851C32.5445 12.391 32.7498 12.3573 32.8548 12.2101C32.9607 12.0629 32.927 11.8576 32.7798 11.7526C30.2101 9.90758 27.1745 8.93164 24.0001 8.93164C15.691 8.93164 8.93164 15.691 8.93164 24.0001C8.93164 32.3091 15.691 39.0685 24.0001 39.0685C32.3091 39.0685 39.0685 32.3091 39.0685 24.0001C39.0685 19.8966 37.4485 16.0613 34.5066 13.1991C34.3773 13.0726 34.1691 13.0754 34.0426 13.2057C33.916 13.336 33.9188 13.5432 34.0491 13.6698C36.8626 16.4073 38.4123 20.0757 38.4123 24.0001C38.4123 31.9473 31.9473 38.4123 24.0001 38.4123C16.0529 38.4123 9.58789 31.9473 9.58789 24.0001C9.58789 16.0529 16.0529 9.58789 24.0001 9.58789Z" fill="#9A9A9A"/>
<path d="M32.1069 30.8189C31.4459 29.6742 30.2497 29.0311 29.0169 29.0227L22.1806 17.1792C22.7891 16.1077 22.8313 14.752 22.1703 13.6073C21.545 12.5245 20.4416 11.8908 19.28 11.8186C19.1909 11.813 19.1319 11.9105 19.1759 11.9883L20.51 14.2992C20.525 14.3255 20.5288 14.3555 20.5213 14.3845L20.2747 15.3042C20.2672 15.3333 20.2484 15.3577 20.2222 15.3727L18.4484 16.3964C18.4222 16.4114 18.3922 16.4152 18.3631 16.4077L17.4434 16.1611C17.4144 16.1536 17.39 16.1348 17.375 16.1086L16.0409 13.7986C15.9959 13.7208 15.8825 13.7236 15.8422 13.8042C15.3247 14.8458 15.3209 16.1189 15.9463 17.2017C16.6091 18.3492 17.8091 18.9933 19.0456 18.9989V19.0139L25.8744 30.8414C25.2819 31.8923 25.2294 33.2161 25.8397 34.3355C26.4163 35.392 27.4391 36.0389 28.5406 36.1795C28.7272 36.203 28.8613 36.0061 28.7675 35.843L27.5666 33.7627C27.5366 33.7111 27.5281 33.6492 27.5441 33.5911L27.7663 32.7614C27.7822 32.7033 27.8197 32.6545 27.8713 32.6245L29.5634 31.6477C29.615 31.6177 29.6769 31.6092 29.735 31.6252L30.5647 31.8473C30.6228 31.8633 30.6716 31.9008 30.7016 31.9523L31.9025 34.0327C31.9953 34.193 32.2334 34.1798 32.3056 34.0092C32.7266 33.0089 32.6909 31.8305 32.1069 30.8189ZM27.1072 29.0723L26.8709 29.2092C26.8171 29.2403 26.7578 29.2604 26.6962 29.2685C26.6346 29.2766 26.572 29.2724 26.512 29.2563C26.4521 29.2402 26.3958 29.2125 26.3466 29.1746C26.2973 29.1368 26.256 29.0896 26.225 29.0358L20.7725 19.5914C20.7415 19.5376 20.7213 19.4782 20.7132 19.4166C20.7052 19.3551 20.7093 19.2925 20.7254 19.2325C20.7415 19.1725 20.7693 19.1163 20.8071 19.067C20.845 19.0178 20.8921 18.9765 20.9459 18.9455L21.1822 18.8086C21.236 18.7775 21.2954 18.7574 21.357 18.7493C21.4185 18.7412 21.4811 18.7454 21.5411 18.7615C21.6011 18.7776 21.6573 18.8053 21.7066 18.8432C21.7558 18.881 21.7971 18.9282 21.8281 18.982L27.2806 28.4264C27.4109 28.6533 27.3331 28.942 27.1072 29.0723Z" fill="#0166FF"/>
<path d="M30.7921 12.9962L30.0834 12.5875C30.0146 12.5477 29.9349 12.5308 29.8559 12.5392C29.7768 12.5476 29.7025 12.581 29.6437 12.6344L28.1727 13.9619C28.0322 14.0885 27.9448 14.2637 27.9281 14.4522L27.8643 15.1637C27.8574 15.2413 27.8338 15.3165 27.7949 15.384L24.9562 20.3003C24.9235 20.3574 24.9062 20.422 24.9062 20.4878C24.9062 20.5536 24.9235 20.6182 24.9562 20.6753L25.8177 22.1678C25.8899 22.2925 26.0699 22.2925 26.1421 22.1687L29.5152 16.3778C29.5546 16.3103 29.6071 16.2522 29.6709 16.2072L30.2549 15.7965C30.4096 15.6878 30.5174 15.5247 30.5568 15.339L30.9712 13.4012C31.0049 13.2409 30.9327 13.0778 30.7921 12.9962Z" fill="#0166FF"/>
<path d="M43.8941 9.64511C43.747 9.64511 43.6129 9.54573 43.5763 9.39573C43.5554 9.31132 43.5688 9.22203 43.6136 9.1475C43.6584 9.07296 43.731 9.01927 43.8154 8.99823L46.1845 8.40948C46.2679 8.39122 46.3551 8.40621 46.4277 8.45127C46.5003 8.49632 46.5524 8.56789 46.573 8.65077C46.5936 8.73365 46.5811 8.8213 46.5382 8.89511C46.4952 8.96891 46.4251 9.02306 46.3429 9.04604L43.9738 9.63479C43.9466 9.64229 43.9204 9.64511 43.8941 9.64511ZM38.9845 4.06511C38.9404 4.06511 38.8963 4.05667 38.8532 4.03792C38.7735 4.00301 38.7108 3.93791 38.679 3.8569C38.6472 3.77588 38.6488 3.68556 38.6835 3.60573L39.6604 1.36886C39.7326 1.20292 39.9266 1.12698 40.0926 1.19917C40.2585 1.27136 40.3345 1.46542 40.2623 1.63136L39.2854 3.86823C39.2598 3.92678 39.2178 3.97659 39.1643 4.01157C39.1108 4.04654 39.0483 4.06515 38.9845 4.06511ZM1.7357 39.6001C1.58851 39.6001 1.45445 39.5007 1.41789 39.3507C1.39691 39.2663 1.41031 39.177 1.45514 39.1025C1.49997 39.028 1.57255 38.9743 1.65695 38.9532L4.02601 38.3645C4.10944 38.3462 4.1967 38.3612 4.26926 38.4063C4.34181 38.4513 4.39394 38.5229 4.41457 38.6058C4.43519 38.6886 4.4227 38.7763 4.37973 38.8501C4.33676 38.9239 4.2667 38.9781 4.18445 39.001L1.81539 39.5898C1.7882 39.5964 1.76195 39.6001 1.7357 39.6001ZM8.03757 46.8282C7.99351 46.8282 7.94945 46.8198 7.90632 46.801C7.82659 46.7661 7.76396 46.701 7.73215 46.62C7.70034 46.539 7.70196 46.4487 7.73664 46.3689L8.71351 44.132C8.7857 43.966 8.97976 43.8901 9.1457 43.9623C9.31164 44.0345 9.38757 44.2285 9.31539 44.3945L8.33851 46.6314C8.31307 46.69 8.27101 46.7399 8.21753 46.7749C8.16404 46.8098 8.10148 46.8284 8.03757 46.8282Z" fill="#FD4E4E"/>
</svg>
