<svg xmlns="http://www.w3.org/2000/svg" width="48" height="48" fill="none"><path fill="#0166FF" d="M12.897 17.615a4.083 4.083 0 1 0 0 8.166 4.083 4.083 0 0 0 0-8.166m2.185 4.411h-1.857v1.856a.328.328 0 0 1-.656 0v-1.856h-1.856a.329.329 0 0 1 0-.656h1.856v-1.856a.329.329 0 0 1 .656 0v1.856h1.857a.329.329 0 0 1 0 .656M24 21.04a2.04 2.04 0 1 0 .001-4.079 2.04 2.04 0 0 0 0 4.08M35.103 20.195a1.29 1.29 0 1 0 0-2.58 1.29 1.29 0 0 0 0 2.58M35.103 25.781a1.29 1.29 0 1 0 0-2.58 1.29 1.29 0 0 0 0 2.58M37.896 22.988a1.29 1.29 0 1 0 0-2.58 1.29 1.29 0 0 0 0 2.58M32.31 22.988a1.29 1.29 0 1 0 0-2.58 1.29 1.29 0 0 0 0 2.58"/><path fill="#9A9A9A" d="M24.602 33.705h-2.583a3.986 3.986 0 0 0-3.901-4.782 3.986 3.986 0 0 0-3.981 3.981c0 .577.124 1.125.345 1.62a8.5 8.5 0 0 0-.961.534v-1.699a5.78 5.78 0 0 0-2.162-4.52l-2.32-1.87a7.51 7.51 0 0 1-2.811-5.877.328.328 0 0 0-.656 0 8.17 8.17 0 0 0 3.055 6.388l2.32 1.87a5.13 5.13 0 0 1 1.916 4.009v2.164a8.6 8.6 0 0 0-2.284 2.726l-1.867 3.522a3.32 3.32 0 0 1-6.145-.717 23 23 0 0 1-.739-5.766c0-2.24.288-4.474.856-6.64l.16-.61a.328.328 0 0 0-.635-.166l-.16.61a26.9 26.9 0 0 0-.877 6.807c0 2 .256 3.996.76 5.93a3.977 3.977 0 0 0 7.36.86l1.867-3.523a7.92 7.92 0 0 1 3.64-3.455 3.98 3.98 0 0 0 3.32 1.785 3.99 3.99 0 0 0 3.703-2.524h2.779a.329.329 0 0 0 0-.657m-9.808-.8a3.33 3.33 0 0 1 3.325-3.326c.808 0 1.55.29 2.126.771a3.654 3.654 0 0 0-4.68 4.681 3.32 3.32 0 0 1-.771-2.127"/><path fill="#9A9A9A" d="m45.952 28.48-2.302-8.782a8.95 8.95 0 0 0-4.978-5.905 9 9 0 0 0-3.751-.803l.5-.946a.33.33 0 0 1 .289-.174h6.184c.026 0 .047.02.047.047v.795a.046.046 0 0 1-.04.046l-.98.148a.328.328 0 1 0 .098.649l.98-.148a.7.7 0 0 0 .598-.696v-.795a.703.703 0 0 0-.703-.703H35.71c-.366 0-.7.2-.87.524l-.68 1.287q-.69.06-1.361.223a33 33 0 0 1-7.864.956h-1.871c-2.648 0-5.293-.322-7.864-.956a9 9 0 0 0-1.36-.223l-.68-1.287a.98.98 0 0 0-.87-.524H6.106a.703.703 0 0 0-.703.703v.795a.7.7 0 0 0 .598.696l.98.148c.161.024.28.161.28.324v1.216a8.95 8.95 0 0 0-2.909 4.603l-1.573 6a.328.328 0 1 0 .635.166l1.573-6a8.3 8.3 0 0 1 4.613-5.474 8.36 8.36 0 0 1 5.445-.504c2.624.646 5.317.973 8.02.974h1.871c2.7 0 5.4-.328 8.02-.974a8.37 8.37 0 0 1 5.444.505 8.3 8.3 0 0 1 4.614 5.475l2.302 8.782a26.2 26.2 0 0 1 .856 6.642c0 1.944-.248 3.884-.738 5.765a3.32 3.32 0 0 1-6.146.718l-1.866-3.523a8.6 8.6 0 0 0-2.285-2.726V33.36c0-1.565.7-3.026 1.917-4.008l2.32-1.87a8.17 8.17 0 0 0 3.055-6.389.328.328 0 0 0-.656 0 7.51 7.51 0 0 1-2.812 5.877l-2.32 1.87a5.78 5.78 0 0 0-2.161 4.52v1.698a9 9 0 0 0-.962-.533c.228-.51.346-1.062.346-1.62a3.986 3.986 0 0 0-3.982-3.982 3.986 3.986 0 0 0-3.981 3.982 3.986 3.986 0 0 0 3.981 3.981c1.384 0 2.606-.71 3.32-1.785a7.9 7.9 0 0 1 3.64 3.456l1.866 3.522a3.97 3.97 0 0 0 3.513 2.114c1.81 0 3.39-1.222 3.847-2.973.505-1.935.76-3.93.76-5.93 0-2.297-.295-4.587-.877-6.81M9.33 13.794a9 9 0 0 0-1.412.802v-.716c0-.49-.352-.9-.837-.973l-.98-.148a.047.047 0 0 1-.04-.046v-.795c0-.026.02-.047.046-.047h6.184c.122 0 .234.067.29.175l.5.945a9 9 0 0 0-3.751.803m17.228 19.112a3.33 3.33 0 0 1 3.325-3.326c.808 0 1.55.29 2.127.772a3.654 3.654 0 0 0-4.681 4.681 3.3 3.3 0 0 1-.771-2.127"/><path fill="#9A9A9A" d="M22.357 11.44a.328.328 0 1 0 .464.465c.65-.65 1.71-.65 2.36 0a.328.328 0 0 0 .463-.464 2.327 2.327 0 0 0-3.287 0m5.294-1.676a.32.32 0 0 0 .302-.203.33.33 0 0 0-.07-.358 5.495 5.495 0 0 0-7.763 0 .328.328 0 1 0 .464.464 4.84 4.84 0 0 1 6.834 0 .33.33 0 0 0 .233.097"/><path fill="#9A9A9A" d="M17.906 6.988a8.56 8.56 0 0 1 6.096-2.525c2.302 0 4.467.897 6.095 2.525a.327.327 0 0 0 .463-.464 9.21 9.21 0 0 0-6.558-2.717 9.22 9.22 0 0 0-6.56 2.717.328.328 0 1 0 .464.464m7.273 16.13h-2.354a.716.716 0 0 0-.715.716v.794c0 .394.32.715.715.715h2.354c.395 0 .716-.32.716-.715v-.794a.72.72 0 0 0-.716-.716m-2.413 1.51v-.794c0-.033.026-.06.06-.06h.915a1.17 1.17 0 0 0-.366.853q0 .03.006.059h-.557a.06.06 0 0 1-.058-.058m2.413 1.645h-2.354a.716.716 0 0 0-.715.715v.794c0 .395.32.716.715.716h2.354c.395 0 .716-.321.716-.716v-.794a.72.72 0 0 0-.716-.715m-2.413 1.51v-.795c0-.033.026-.059.06-.059h.915a1.17 1.17 0 0 0-.366.852q0 .03.006.06h-.557a.06.06 0 0 1-.058-.059"/></svg>