<svg xmlns="http://www.w3.org/2000/svg" width="48" height="48" fill="none"><path fill="#0166FF" d="m45.845 22.943-5.97-3.408-7.621 4.32.018.009 4.525 2.582a.327.327 0 1 1-.326.57l-4.524-2.582a.33.33 0 0 1-.163-.312l-6.824 3.869a1.95 1.95 0 0 1-1.92 0l-6.82-3.866a.33.33 0 0 1-.163.307l-4.529 2.585a.328.328 0 1 1-.325-.57l4.529-2.585.013-.006-7.62-4.32-5.97 3.408a1.298 1.298 0 0 0 .003 2.257l20.7 11.732a2.32 2.32 0 0 0 2.283 0l20.7-11.732a1.299 1.299 0 0 0 .004-2.258"/><path fill="#EBECED" d="M11.931 17.69a.328.328 0 0 1-.163-.613l5.365-3.063a.328.328 0 0 1 .326.57l-5.366 3.063a.33.33 0 0 1-.162.043m24.137 0a.33.33 0 0 1-.162-.043l-5.365-3.063a.328.328 0 1 1 .326-.569l5.365 3.063a.327.327 0 0 1-.164.612m-8.68-4.955a.33.33 0 0 1-.161-.043l-2.425-1.383a1.63 1.63 0 0 0-1.605 0l-2.424 1.383a.328.328 0 0 1-.325-.569l2.424-1.383a2.28 2.28 0 0 1 2.256 0l2.424 1.383a.327.327 0 0 1-.163.613m12.838 24.693a.87.87 0 0 0-1.298-.756L24.5 44.849c-.31.175-.694.175-1.003 0L9.072 36.672a.87.87 0 0 0-1.299.756l15.085 8.55a2.32 2.32 0 0 0 2.283 0z"/><path fill="#9A9A9A" d="m1.996 16.439 20.882 11.836a2.28 2.28 0 0 0 2.244 0l20.882-11.836c.516-.292.823-.82.824-1.412a1.61 1.61 0 0 0-.82-1.415l-20.88-11.92a2.28 2.28 0 0 0-2.256 0L20.582 3a.327.327 0 1 0 .326.569l2.29-1.307a1.63 1.63 0 0 1 1.604 0l20.88 11.92a.96.96 0 0 1 .49.843.96.96 0 0 1-.491.842L24.798 27.704c-.492.279-1.105.279-1.597 0L2.32 15.868a.96.96 0 0 1-.49-.842c-.002-.354.181-.669.488-.844l16.75-9.562a.327.327 0 1 0-.325-.57l-16.75 9.562a1.61 1.61 0 0 0-.82 1.415c0 .592.31 1.12.824 1.412m44.012 15.265-4.466-2.55a.328.328 0 0 0-.326.57l4.466 2.549a.96.96 0 0 1 .489.844.96.96 0 0 1-.491.842L24.98 45.69a2 2 0 0 1-1.96 0l-20.7-11.73a.96.96 0 0 1-.492-.842c0-.354.182-.669.49-.844l4.336-2.476a.327.327 0 1 0-.325-.57l-4.337 2.477a1.61 1.61 0 0 0-.82 1.415c0 .592.31 1.12.824 1.411l20.7 11.733a2.65 2.65 0 0 0 2.606 0l20.7-11.733c.516-.291.823-.82.824-1.411a1.6 1.6 0 0 0-.818-1.417"/><path fill="#0166FF" d="M6.873 9.809a.33.33 0 0 1-.167-.046L4.604 8.52a.327.327 0 1 1 .334-.564L7.04 9.198a.327.327 0 0 1-.167.61m6.3-3.943a.33.33 0 0 1-.325-.29l-.296-2.423a.329.329 0 0 1 .651-.08l.297 2.424a.33.33 0 0 1-.327.369m27.955 3.943a.328.328 0 0 1-.168-.61l2.102-1.242a.328.328 0 0 1 .333.564l-2.102 1.242a.3.3 0 0 1-.165.046m-6.3-3.943-.04-.003a.33.33 0 0 1-.287-.366l.297-2.423a.33.33 0 0 1 .642-.048.3.3 0 0 1 .01.127l-.297 2.424a.33.33 0 0 1-.325.289"/></svg>