<svg xmlns="http://www.w3.org/2000/svg" width="48" height="48" fill="none"><path fill="#9A9A9A" d="M42.868 20.04a3.965 3.965 0 0 0-3.798 2.843l-2.106-.15c-.598-6.173-5.524-11.099-11.697-11.697l-.15-2.106a3.965 3.965 0 0 0 2.843-3.798A3.965 3.965 0 0 0 24 1.172a3.965 3.965 0 0 0-3.96 3.96 3.965 3.965 0 0 0 2.843 3.798l-.15 2.106c-6.173.598-11.099 5.524-11.697 11.697l-2.106.15a3.965 3.965 0 0 0-3.798-2.843A3.965 3.965 0 0 0 1.172 24a3.965 3.965 0 0 0 3.96 3.96 3.965 3.965 0 0 0 3.798-2.843l2.106.15c.598 6.173 5.524 11.099 11.697 11.697l.15 2.106a3.965 3.965 0 0 0-2.843 3.798 3.965 3.965 0 0 0 3.96 3.96 3.965 3.965 0 0 0 3.96-3.96 3.965 3.965 0 0 0-2.843-3.798l.15-2.106c6.173-.598 11.099-5.524 11.697-11.697l2.106-.15a3.965 3.965 0 0 0 3.798 2.843 3.965 3.965 0 0 0 3.96-3.96 3.965 3.965 0 0 0-3.96-3.96M20.696 5.132A3.31 3.31 0 0 1 24 1.828a3.31 3.31 0 0 1 3.304 3.304A3.307 3.307 0 0 1 24 8.435a3.307 3.307 0 0 1-3.304-3.303M24 9.09q.237 0 .468-.028l.081 1.139a1.37 1.37 0 0 0-.991-.425h-.076l.05-.714q.231.028.468.028M5.132 27.304A3.31 3.31 0 0 1 1.828 24a3.31 3.31 0 0 1 3.304-3.304A3.307 3.307 0 0 1 8.435 24a3.307 3.307 0 0 1-3.303 3.304m3.93-3.772 1.14-.081c-.263.25-.425.603-.425.991v.076l-.714-.05a4 4 0 0 0 0-.936m18.242 19.336A3.31 3.31 0 0 1 24 46.172a3.31 3.31 0 0 1-3.304-3.304A3.307 3.307 0 0 1 24 39.565a3.307 3.307 0 0 1 3.304 3.303M24 38.91q-.237 0-.468.028l-.081-1.139c.25.263.603.425.991.425h.076l-.05.714A4 4 0 0 0 24 38.91m0-2.54c-6.82 0-12.37-5.549-12.37-12.369S17.18 11.63 24 11.63 36.37 17.18 36.37 24 30.82 36.37 24 36.37m13.798-11.82c.263-.25.425-.604.425-.992v-.076l.714.05a4 4 0 0 0 0 .936zm5.07 2.755A3.307 3.307 0 0 1 39.565 24a3.307 3.307 0 0 1 3.303-3.304A3.31 3.31 0 0 1 46.172 24a3.31 3.31 0 0 1-3.304 3.304"/><path fill="#D4E1E8" d="M5.454 22.732c0-.792-.882-1.258-1.542-.82a2.79 2.79 0 0 0-1.204 2.807c.288 1.646 2.746 1.393 2.746-.279zM25.4 5.454c.781 0 1.26-.868.833-1.522a2.784 2.784 0 0 0-3.587-.97c-1.236.622-.783 2.492.601 2.492zm17.145 19.95c0 .78.868 1.26 1.523.832a2.784 2.784 0 0 0 .694-4.027c-.716-.936-2.216-.41-2.216.767v2.427M23.436 42.544c-1.277 0-1.77 1.674-.69 2.357.43.273.94.43 1.49.43.36 0 .702-.068 1.018-.192 1.38-.541.985-2.595-.497-2.595z"/><path fill="#0166FF" d="M24 12.78c-6.198 0-11.22 5.022-11.22 11.22 0 6.196 5.022 11.22 11.22 11.22 6.196 0 11.22-5.024 11.22-11.22 0-6.198-5.024-11.22-11.22-11.22m6.11 17.75v-.442a6.11 6.11 0 0 0-5.138-6.033A3.08 3.08 0 0 0 24 18.053a3.08 3.08 0 0 0-.973 6.002 6.11 6.11 0 0 0-5.138 6.033v.442A8.998 8.998 0 0 1 24 14.93a9 9 0 0 1 8.997 8.998 8.98 8.98 0 0 1-2.887 6.6"/></svg>