<svg xmlns="http://www.w3.org/2000/svg" width="30" height="30" fill="none" viewBox="0 0 30 30">
  <rect width="30" height="30" fill="#E1EAF8" rx="10"/>
  <path fill="#fff" d="M17.278 12.759c-.118-3.344-4.935-3.343-5.052 0 .108 3.34 4.944 3.338 5.052 0Zm-9.895.975a2.187 2.187 0 1 0 1.344-3.91 2.197 2.197 0 0 0-1.344 3.91Z"/>
  <path fill="#fff" d="M9.7 17.88c.006-1.027.712-1.91 1.407-2.578.189-.173.39-.331.603-.474a3.881 3.881 0 0 0-.951-.77 2.881 2.881 0 0 1-4.066 0c-.971.585-2.195 1.878-1.477 3.08a1.51 1.51 0 0 0 1.306.742H9.7Zm8.888-5.867c.095 2.89 4.281 2.89 4.376 0-.104-2.895-4.272-2.895-4.376 0Zm-1.22 3.373a4.208 4.208 0 0 0-.435-.258 3.276 3.276 0 0 1-.32.261 3.23 3.23 0 0 1-4.043-.261c-1.013.555-2.076 1.532-2.174 2.752a1.75 1.75 0 0 0 1.742 1.76h5.227a1.757 1.757 0 0 0 1.533-2.575 4.614 4.614 0 0 0-1.53-1.68Z"/>
  <path fill="#fff" d="M24.323 15.626a4.051 4.051 0 0 0-1.512-1.571 2.882 2.882 0 0 1-4.07.004 4.028 4.028 0 0 0-.95.77c.212.142.413.3.602.473.493.442.895.976 1.184 1.571.148.316.225.66.227 1.007h3.177a1.539 1.539 0 0 0 1.342-2.254Zm-1.16 3.342a.347.347 0 0 0-.473.137c-3.369 6.213-12.503 6.21-15.87 0a.35.35 0 0 0-.578-.05.349.349 0 0 0-.033.387c3.627 6.69 13.465 6.688 17.091 0a.348.348 0 0 0-.136-.474ZM7.884 8.838c3.462-4.19 10.282-4.19 13.743 0a.349.349 0 0 0 .53-.454c-3.728-4.512-11.075-4.512-14.802.001a.348.348 0 1 0 .53.452Z"/>
  <path fill="#fff" d="M19.103 9.2a.35.35 0 0 0 .208-.629 7.676 7.676 0 0 0-9.112 0 .348.348 0 1 0 .415.56 6.978 6.978 0 0 1 8.282 0 .35.35 0 0 0 .207.069Zm-9.807 9.857a.349.349 0 0 0-.546.433c2.94 3.854 9.07 3.853 12.01 0a.349.349 0 0 0-.547-.433c-2.672 3.504-8.245 3.504-10.917 0Z"/>
</svg>
