<svg xmlns="http://www.w3.org/2000/svg" width="14" height="14" fill="none"><g clip-path="url(#a)"><rect width="12.833" height="12.833" x=".582" y=".583" fill="#FFA143" rx="4"/><path fill="#fff" d="M9.91 10.117c-.16-1.402-.8-1.983-1.267-2.406-.323-.294-.478-.447-.478-.714 0-.262.155-.412.477-.7.472-.423 1.12-1.001 1.268-2.422a.86.86 0 0 0-.219-.66.92.92 0 0 0-.68-.3H4.985a.92.92 0 0 0-.682.3.86.86 0 0 0-.217.66c.147 1.416.792 1.99 1.263 2.41.325.29.482.44.482.712 0 .276-.157.43-.484.725-.464.421-1.102.998-1.261 2.395a.85.85 0 0 0 .213.66.92.92 0 0 0 .686.304H9.01a.92.92 0 0 0 .686-.304.85.85 0 0 0 .213-.66m-1.32.089H5.415c-.285 0-.365-.328-.166-.532.483-.49 1.458-.84 1.458-1.4v-1.86c0-.362-.693-.638-1.122-1.225-.07-.097-.063-.233.116-.233h2.602c.153 0 .186.135.117.232-.423.588-1.13.862-1.13 1.226v1.86c0 .556 1.015.856 1.465 1.4.182.22.118.532-.165.532"/></g><defs><clipPath id="a"><path fill="#fff" d="M0 0h14v14H0z"/></clipPath></defs></svg>