<svg xmlns="http://www.w3.org/2000/svg" width="36" height="36" fill="none"><path fill="#fff" fill-rule="evenodd" d="M5.545 7.97C5 8.75 5 11.067 5 15.703v2.284c0 8.175 6.123 12.142 9.965 13.827 1.042.457 1.563.685 3.035.685s1.993-.228 3.035-.685C24.877 30.13 31 26.163 31 17.988v-2.284c0-4.636 0-6.955-.545-7.735-.546-.78-2.717-1.526-7.06-3.018l-.827-.284C20.304 3.889 19.172 3.5 18 3.5s-2.304.389-4.568 1.167l-.827.284C8.262 6.443 6.09 7.19 5.545 7.97M20.5 22.874c0 .898-.746 1.625-1.667 1.625h-1.666c-.92 0-1.667-.727-1.667-1.625v-2.277c-1.495-.843-2.5-2.419-2.5-4.223 0-2.692 2.239-4.875 5-4.875s5 2.183 5 4.875c0 1.804-1.006 3.38-2.5 4.223z" clip-rule="evenodd"/></svg>