<svg width="24" height="24" viewBox="0 0 24 24" fill="none" xmlns="http://www.w3.org/2000/svg">
<path fill-rule="evenodd" clip-rule="evenodd" d="M4.31802 4.31802C3 5.63604 3 7.75736 3 12C3 16.2426 3 18.364 4.31802 19.682C5.63604 21 7.75736 21 12 21C16.2426 21 18.364 21 19.682 19.682C21 18.364 21 16.2426 21 12C21 7.75736 21 5.63604 19.682 4.31802C18.364 3 16.2426 3 12 3C7.75736 3 5.63604 3 4.31802 4.31802ZM9.35078 8C9.35078 7.69624 9.10454 7.45 8.80078 7.45C8.49702 7.45 8.25078 7.69624 8.25078 8V10.4C8.25078 12.4711 9.92971 14.15 12.0008 14.15C14.0718 14.15 15.7508 12.4711 15.7508 10.4V8C15.7508 7.69624 15.5045 7.45 15.2008 7.45C14.897 7.45 14.6508 7.69624 14.6508 8V10.4C14.6508 11.8636 13.4643 13.05 12.0008 13.05C10.5372 13.05 9.35078 11.8636 9.35078 10.4V8ZM8.80078 15.45C8.49702 15.45 8.25078 15.6962 8.25078 16C8.25078 16.3038 8.49702 16.55 8.80078 16.55H15.2008C15.5045 16.55 15.7508 16.3038 15.7508 16C15.7508 15.6962 15.5045 15.45 15.2008 15.45H8.80078Z" fill="#0166FF"/>
</svg>
