<svg xmlns="http://www.w3.org/2000/svg" width="24" height="24" fill="none"><path fill="#0E0E0E" d="M8 5.996H6v2h2zm-5-.75a2.25 2.25 0 0 1 2.25-2.25h3.5A2.25 2.25 0 0 1 11 5.246v3.5a2.25 2.25 0 0 1-2.25 2.25h-3.5A2.25 2.25 0 0 1 3 8.746zm2.25-.75a.75.75 0 0 0-.75.75v3.5c0 .414.336.75.75.75h3.5a.75.75 0 0 0 .75-.75v-3.5a.75.75 0 0 0-.75-.75zm.75 11.5h2v2H6zm-3-.75a2.25 2.25 0 0 1 2.25-2.25h3.5a2.25 2.25 0 0 1 2.25 2.25v3.5a2.25 2.25 0 0 1-2.25 2.25h-3.5A2.25 2.25 0 0 1 3 18.746zm2.25-.75a.75.75 0 0 0-.75.75v3.5c0 .414.336.75.75.75h3.5a.75.75 0 0 0 .75-.75v-3.5a.75.75 0 0 0-.75-.75zM18 5.996h-2v2h2zm-2.75-3A2.25 2.25 0 0 0 13 5.246v3.5a2.25 2.25 0 0 0 2.25 2.25h3.5A2.25 2.25 0 0 0 21 8.746v-3.5a2.25 2.25 0 0 0-2.25-2.25zm-.75 2.25a.75.75 0 0 1 .75-.75h3.5a.75.75 0 0 1 .75.75v3.5a.75.75 0 0 1-.75.75h-3.5a.75.75 0 0 1-.75-.75zM13.01 12.996h2v2h2v-2h2v2h-2v2h2v2h2v2h-2v-2h-2v2h-2v-2h2v-2h-2v-2h-2z"/><path fill="#0E0E0E" d="M21.01 14.996h-2v2h2zM15.01 16.996h-2v2h2z"/></svg>