<svg width="24" height="24" viewBox="0 0 24 24" fill="none" xmlns="http://www.w3.org/2000/svg">
<path d="M9.8 6.4C9.8 7.72548 8.72548 8.8 7.4 8.8C6.07452 8.8 5 7.72548 5 6.4C5 5.07452 6.07452 4 7.4 4C8.72548 4 9.8 5.07452 9.8 6.4Z" stroke="#9A9A9A" stroke-width="1.3"/>
<path d="M21.8 10.4C21.8 11.7255 20.7255 12.8 19.4 12.8C18.0745 12.8 17 11.7255 17 10.4C17 9.07452 18.0745 8 19.4 8C20.7255 8 21.8 9.07452 21.8 10.4Z" stroke="#9A9A9A" stroke-width="1.3"/>
<path d="M7.8 19.4C7.8 20.7255 6.72548 21.8 5.4 21.8C4.07452 21.8 3 20.7255 3 19.4C3 18.0745 4.07452 17 5.4 17C6.72548 17 7.8 18.0745 7.8 19.4Z" stroke="#9A9A9A" stroke-width="1.3"/>
<path d="M14.3996 13.4C14.3996 14.7255 13.3251 15.8 11.9996 15.8C10.6742 15.8 9.59963 14.7255 9.59963 13.4C9.59963 12.0745 10.6742 11 11.9996 11C13.3251 11 14.3996 12.0745 14.3996 13.4Z" stroke="#9A9A9A" stroke-width="1.3"/>
<path d="M8.5 8.5L10.5 11" stroke="#9A9A9A" stroke-width="1.3" stroke-linecap="round"/>
<path d="M17 11.5L14.5 12.5" stroke="#9A9A9A" stroke-width="1.3" stroke-linecap="round"/>
<path d="M10 15.5L7.5 17.5" stroke="#9A9A9A" stroke-width="1.3" stroke-linecap="round"/>
<path d="M16.75 21C17.5784 21 18.25 20.3284 18.25 19.5C18.25 18.6716 17.5784 18 16.75 18C15.9216 18 15.25 18.6716 15.25 19.5C15.25 20.3284 15.9216 21 16.75 21Z" fill="#9A9A9A"/>
<path d="M14.75 7C15.5784 7 16.25 6.32843 16.25 5.5C16.25 4.67157 15.5784 4 14.75 4C13.9216 4 13.25 4.67157 13.25 5.5C13.25 6.32843 13.9216 7 14.75 7Z" fill="#9A9A9A"/>
<path d="M4 14.5C4.82843 14.5 5.5 13.8284 5.5 13C5.5 12.1716 4.82843 11.5 4 11.5C3.17157 11.5 2.5 12.1716 2.5 13C2.5 13.8284 3.17157 14.5 4 14.5Z" fill="#9A9A9A"/>
</svg>
