<svg xmlns="http://www.w3.org/2000/svg" width="24" height="24" fill="none"><path fill="#0166FF" fill-rule="evenodd" d="M11.912 2.9h.175c1.558 0 2.848 0 3.872.143 1.08.15 2.032.48 2.793 1.27.758.787 1.07 1.766 1.213 2.871.135 1.058.135 2.394.135 4.018v4.104c0 1.163 0 2.133-.076 2.874-.074.726-.246 1.551-.86 2.133a2.87 2.87 0 0 1-1.638.773c-.848.1-1.578-.323-2.154-.743-.588-.429-1.288-1.065-2.125-1.825l-.033-.03-.031-.029c-.409-.37-.657-.595-.856-.745a1.3 1.3 0 0 0-.184-.12.2.2 0 0 0-.04-.018.5.5 0 0 0-.204 0 .2.2 0 0 0-.042.017 1.3 1.3 0 0 0-.184.122h-.001c-.2.15-.444.371-.854.744l-.004.005-.027.023c-.851.776-1.562 1.423-2.16 1.857-.576.419-1.303.841-2.151.742a2.87 2.87 0 0 1-1.64-.773c-.613-.582-.784-1.41-.86-2.132-.076-.742-.076-1.712-.076-2.875v-4.104c0-1.626 0-2.96.136-4.017v-.002c.145-1.103.455-2.083 1.21-2.87.761-.79 1.716-1.12 2.794-1.27C9.063 2.9 10.353 2.9 11.912 2.9M8.206 4.231c.931-.13 2.138-.13 3.75-.13h.088c1.61 0 2.818 0 3.75.13m0 0c.938.13 1.59.392 2.093.914.506.524.76 1.212.887 2.193.125.972.126 2.232.126 3.904v4.03c0 1.205 0 2.112-.07 2.785-.068.68-.212 1.12-.492 1.386-.265.252-.6.409-.953.45-.366.044-.768-.128-1.306-.52-.532-.388-1.187-.983-2.06-1.776l-.031-.027c-.392-.357-.686-.623-.937-.813-.255-.193-.471-.307-.701-.356l-.008-.001a1.7 1.7 0 0 0-.684 0l-.007.001c-.23.05-.445.163-.7.355-.248.186-.533.446-.908.786l-.03.028-.026.023-.005.005c-.873.795-1.529 1.39-2.06 1.775-.54.392-.94.564-1.306.52a1.67 1.67 0 0 1-.953-.45c-.28-.265-.422-.704-.493-1.386-.069-.673-.07-1.58-.07-2.785v-4.03c0-1.674.002-2.931.126-3.904.13-.982.382-1.669.886-2.193.502-.522 1.157-.783 2.094-.914" clip-rule="evenodd"/><path fill="#0166FF" fill-rule="evenodd" d="M8.9 7.262a.6.6 0 0 1 .6-.6h5a.6.6 0 1 1 0 1.2h-5a.6.6 0 0 1-.6-.6" clip-rule="evenodd"/></svg>