<svg xmlns="http://www.w3.org/2000/svg" width="24" height="24" fill="none"><path fill="#5A5E66" d="m15.18 16.238 6.04 6.04a.75.75 0 1 0 1.062-1.062l-19.5-19.5A.75.75 0 1 0 1.72 2.778l4.845 4.845A9 9 0 0 0 4.8 9.27a10 10 0 0 0-1.676 2.973c-.031.091-.07.217-.07.217l-.027.093s-.114.746.532.917a.75.75 0 0 0 .917-.533l.001-.004.012-.037.053-.164a8.6 8.6 0 0 1 1.417-2.511A7.4 7.4 0 0 1 7.646 8.7l2.367 2.367a3.75 3.75 0 1 0 5.17 5.169zm-1.11-1.11a2.249 2.249 0 0 1-4.279-1.31 2.25 2.25 0 0 1 1.33-1.641l2.953 2.952zM9.48 6.297l1.282 1.281q.584-.08 1.239-.081c3.066 0 4.929 1.368 6.042 2.726.611.75 1.09 1.6 1.417 2.51q.038.109.053.164l.012.037v.005l.001.002a.75.75 0 0 0 1.45-.386v-.005l-.002-.006-.006-.019a3 3 0 0 0-.09-.28 10 10 0 0 0-1.676-2.973c-1.344-1.643-3.607-3.275-7.198-3.275-.927 0-1.766.108-2.522.299z"/></svg>