<svg width="24" height="24" viewBox="0 0 24 24" fill="none" xmlns="http://www.w3.org/2000/svg">
    <path
        d="M6 14.2508C6 10.5958 9.89586 13.5424 12.1837 11.2474C14.4717 8.95246 11.5462 5 15.1942 5M8.83398 14.916H15.9173M14.5 12.083H15.9167M15.209 9.25H15.9173M18.75 7.83333V16.3333C18.75 17.0848 18.4515 17.8055 17.9201 18.3368C17.3888 18.8682 16.2982 19.1667 15.9167 19.1667C15.5352 19.1667 15.4526 18.08 14.375 18.083C13.2974 18.086 13.375 19.083 12.375 19.083C11.375 19.083 11.375 18.083 10.375 18.083C9.375 18.083 9.375 19.1667 8.83333 19.1667C8.29167 19.1667 7.36126 18.8682 6.8299 18.3368C6.29856 17.8055 6 17.0848 6 16.3333V14.1304C6 11.7089 6.96199 9.38657 8.67428 7.67428C10.3866 5.96199 12.7089 5 15.1304 5H15.9167C16.6681 5 17.3888 5.29856 17.9201 5.8299C18.4515 6.36126 18.75 7.08188 18.75 7.83333Z"
        stroke="white" stroke-width="1.33" stroke-linecap="round" stroke-linejoin="round" />
</svg>
