<svg width="24" height="24" viewBox="0 0 24 24" fill="none" xmlns="http://www.w3.org/2000/svg">
<path d="M3 12C3 7.75736 3 5.63604 4.31802 4.31802C5.63604 3 7.75736 3 12 3C16.2426 3 18.364 3 19.682 4.31802C21 5.63604 21 7.75736 21 12C21 16.2426 21 18.364 19.682 19.682C18.364 21 16.2426 21 12 21C7.75736 21 5.63604 21 4.31802 19.682C3 18.364 3 16.2426 3 12Z" fill="#0166FF"/>
<path d="M6.80078 9V12M6.80078 12V15M6.80078 12H10.8008M10.8008 12V9M10.8008 12V15M13.1016 9H16.6016C16.8777 9 17.1016 9.22386 17.1016 9.5V12M13.1016 15H16.6016C16.8777 15 17.1016 14.7761 17.1016 14.5V12M17.1016 12H14.6016" stroke="white" stroke-width="1.2" stroke-linecap="round" stroke-linejoin="round"/>
</svg>
