<svg xmlns="http://www.w3.org/2000/svg" width="24" height="24" fill="none"><path fill="#FFA143" fill-rule="evenodd" d="M12 3.291a3.851 3.851 0 1 0 0 7.702 3.851 3.851 0 0 0 0-7.702M9.365 7.142a2.635 2.635 0 1 1 5.27 0 2.635 2.635 0 0 1-5.27 0M12 12.213c-1.875 0-3.603.427-4.884 1.147-1.261.71-2.21 1.785-2.21 3.11v.083c0 .942-.002 2.124 1.035 2.968.51.416 1.225.712 2.19.907.967.196 2.227.299 3.87.299 1.642 0 2.903-.103 3.87-.3.965-.194 1.679-.49 2.19-.906 1.036-.844 1.035-2.026 1.034-2.968v-.083c0-1.325-.948-2.4-2.21-3.11-1.28-.72-3.009-1.147-4.884-1.147M6.124 16.47c0-.69.503-1.44 1.59-2.05 1.066-.6 2.581-.99 4.288-.99 1.706 0 3.221.39 4.288.99 1.086.61 1.59 1.36 1.59 2.05 0 1.06-.033 1.657-.587 2.108-.3.245-.802.484-1.662.658-.857.173-2.029.274-3.63.274s-2.772-.1-3.629-.274c-.86-.174-1.361-.413-1.662-.658-.554-.45-.586-1.048-.586-2.108" clip-rule="evenodd"/></svg>