<svg xmlns="http://www.w3.org/2000/svg" width="24" height="24" fill="none"><path fill="#9A9A9A" d="m14.731 3.883.425-.425zM6.517 16.097l.424-.424zm4.566 0-.424-.424zM7.8 7.014a.6.6 0 0 0-1.2 0zm0 9.6a.6.6 0 1 0-1.2 0zm-1.2 2.4a.6.6 0 0 0 1.2 0zm10.8-12a.6.6 0 1 0-1.2 0zm-1.2 12a.6.6 0 0 0 1.2 0zm-5.8-11.8h3.2v-1.2h-3.2zm3.2 11.6h-3.2v1.2h3.2zm-3.2 0c-1.525 0-2.61-.001-3.431-.112-.805-.108-1.269-.31-1.607-.65l-.849.85c.599.598 1.358.863 2.296.99.92.123 2.1.122 3.591.122zm-7-5.8c0 1.492-.001 2.67.123 3.591.126.938.391 1.697.99 2.296l.849-.849c-.34-.338-.542-.802-.65-1.607-.11-.822-.112-1.905-.112-3.43zm16 0c0 1.526-.001 2.61-.112 3.431-.108.805-.311 1.269-.65 1.607l.849.85c.599-.6.864-1.359.99-2.297.124-.92.123-2.1.123-3.59zm-5.8 7c1.492 0 2.67.001 3.591-.122.938-.127 1.697-.392 2.296-.99l-.848-.85c-.34.34-.803.542-1.608.65-.822.11-1.905.112-3.431.112zm0-12.8c1.526 0 2.61.001 3.431.112.805.108 1.269.311 1.608.65l.848-.849c-.599-.599-1.358-.864-2.296-.99-.92-.124-2.1-.123-3.591-.123zm7 5.8c0-1.491.001-2.67-.123-3.591-.126-.938-.391-1.697-.99-2.296l-.848.849c.338.338.541.802.65 1.607.11.822.111 1.906.111 3.431zm-10.2-7c-1.492 0-2.67-.001-3.591.123-.938.126-1.697.391-2.296.99l.849.849c.338-.339.802-.542 1.607-.65.822-.11 1.906-.112 3.431-.112zm-5.8 7c0-1.525.001-2.61.112-3.431.108-.805.311-1.269.65-1.607l-.849-.849c-.599.599-.864 1.358-.99 2.296-.124.92-.123 2.1-.123 3.591zm7.4-9c.771 0 1.29.001 1.676.053.369.05.527.136.631.24l.849-.849c-.365-.364-.818-.512-1.32-.58-.485-.065-1.099-.064-1.836-.064zm3.8 2.6c0-.737.001-1.35-.064-1.836-.068-.502-.216-.955-.58-1.32l-.849.849c.104.104.19.262.24.631.052.387.053.905.053 1.676zm-3.8-3.8c-.737 0-1.35-.001-1.836.064-.502.068-.955.216-1.32.58l.849.849c.104-.104.262-.19.631-.24.387-.052.905-.053 1.676-.053zm-2.6 3.8c0-.771.001-1.29.053-1.676.05-.369.136-.527.24-.631l-.849-.849c-.364.365-.513.818-.58 1.32-.065.485-.064 1.099-.064 1.836zm-2.2 7.8h3.2v-1.2H7.2zm3.4.2v.8h1.2v-.8zm-3.6.8v-.8H5.8v.8zm3.4.2H7.2v1.2h3.2zm-4.6-.2c0 .172-.001.36.02.519.024.175.084.4.273.588l.848-.848a.3.3 0 0 1 .063.092c.01.023.008.03.005.008a1 1 0 0 1-.007-.125L7 15.414zm1.4.2c-.097 0-.17 0-.234-.002a1 1 0 0 1-.125-.007c-.023-.003-.015-.005.008.005a.3.3 0 0 1 .092.063l-.848.848c.189.189.413.25.588.273.158.021.347.02.519.02zm3.4-.2c0 .097 0 .17-.002.234a1 1 0 0 1-.007.125c-.003.023-.005.015.005-.008a.3.3 0 0 1 .063-.092l.848.848a1 1 0 0 0 .273-.588c.021-.158.02-.347.02-.519zm-.2 1.4c.172 0 .36.001.519-.02a1 1 0 0 0 .588-.273l-.848-.848a.3.3 0 0 1 .092-.063c.023-.01.03-.008.008-.005a1 1 0 0 1-.125.007l-.234.002zm0-2.4c.096 0 .17 0 .234.002a1 1 0 0 1 .125.007c.023.003.015.005-.008-.005a.3.3 0 0 1-.092-.062l.848-.849a1 1 0 0 0-.588-.273c-.158-.021-.347-.02-.519-.02zm1.4.2c0-.171.001-.36-.02-.519a1 1 0 0 0-.273-.588l-.848.848a.3.3 0 0 1-.063-.092c-.01-.023-.008-.03-.005-.008.003.023.006.061.007.125l.002.234zm-4.6-1.4c-.172 0-.36-.001-.519.02a1 1 0 0 0-.588.273l.848.848a.3.3 0 0 1-.092.063c-.023.01-.03.008-.008.005.023-.003.061-.006.125-.007.063-.002.137-.002.234-.002zm-.2 1.4c0-.096 0-.17.002-.234.001-.064.004-.102.007-.125s.005-.015-.005.008a.3.3 0 0 1-.063.092l-.848-.848a1 1 0 0 0-.273.588c-.021.158-.02.348-.02.52zm-.4-7.6v6.8h1.2v-6.8zm0 9.6v2.4h1.2v-2.4zm9.6-9.6v12h1.2v-12z"/></svg>