<svg xmlns="http://www.w3.org/2000/svg" width="24" height="24" fill="none"><mask id="a" fill="#fff"><path fill-rule="evenodd" d="M15.603 9.922c1.056.552 2.532.362 3.676.214a1.364 1.364 0 1 1 1.607 1.478l-2.68 6.916a2.73 2.73 0 0 1-2.542 1.743H8.336a2.73 2.73 0 0 1-2.543-1.742l-2.679-6.917a1.364 1.364 0 1 1 1.61-1.437c1.118.204 2.625.48 3.673-.068 1.244-.65 2.117-2.471 2.71-3.707a1.818 1.818 0 1 1 1.79-.002l.007.012c.614 1.209 1.451 2.857 2.7 3.51" clip-rule="evenodd"/></mask><path fill="#494949" d="m19.28 10.136.154 1.19a1.2 1.2 0 0 0 1.04-1.071zm-3.677-.214.556-1.064zm5.283 1.691-.218-1.18a1.2 1.2 0 0 0-.901.747zm-2.68 6.918 1.12.433zm-12.413 0 1.12-.434zm-2.679-6.917 1.12-.434a1.2 1.2 0 0 0-.902-.746zm1.61-1.437-1.197.083a1.2 1.2 0 0 0 .981 1.097zm3.673-.068.556 1.063zm2.71-3.707 1.081.518a1.2 1.2 0 0 0-.491-1.563zm1.79-.002-.593-1.043a1.2 1.2 0 0 0-.476 1.586zm.007.012 1.07-.543zm6.221 2.534c-.584.076-1.16.148-1.711.146-.556-.003-.97-.085-1.255-.234l-1.112 2.127c.77.403 1.624.503 2.355.507.737.003 1.47-.093 2.032-.166zm1.511-1.237a2.564 2.564 0 0 0-2.55 2.308l2.388.238a.164.164 0 0 1 .162-.146zm2.564 2.564a2.564 2.564 0 0 0-2.564-2.564v2.4c.09 0 .164.073.164.164zm-2.096 2.52a2.564 2.564 0 0 0 2.096-2.52h-2.4a.164.164 0 0 1-.132.16zm-1.778 6.171 2.679-6.917-2.238-.867-2.68 6.917zm-3.662 2.509a3.93 3.93 0 0 0 3.662-2.509l-2.238-.867a1.53 1.53 0 0 1-1.424.976zm-7.328 0h7.328v-2.4H8.336zm-3.662-2.509a3.93 3.93 0 0 0 3.662 2.509v-2.4c-.63 0-1.196-.388-1.424-.976zm-2.679-6.917 2.68 6.917 2.237-.867-2.679-6.917zM.8 10.273c0 1.257.903 2.3 2.096 2.52l.436-2.36a.164.164 0 0 1-.132-.16zm2.564-2.564A2.564 2.564 0 0 0 .8 10.273h2.4c0-.09.073-.164.164-.164zm2.557 2.384A2.564 2.564 0 0 0 3.364 7.71v2.4c.086 0 .157.067.163.151zm1.92-1.048c-.254.133-.648.203-1.206.181-.55-.022-1.123-.125-1.695-.23l-.432 2.361c.546.1 1.285.237 2.03.267.737.03 1.62-.037 2.415-.452zm2.183-3.162c-.3.628-.636 1.323-1.035 1.94-.412.635-.803 1.042-1.148 1.222l1.112 2.127c.9-.47 1.567-1.299 2.05-2.045.496-.765.894-1.598 1.185-2.207zM8.982 4.818c0 1.13.62 2.112 1.533 2.628l1.182-2.089a.62.62 0 0 1-.315-.539zM12 1.8a3.02 3.02 0 0 0-3.018 3.018h2.4c0-.341.277-.618.618-.618zm3.018 3.018A3.02 3.02 0 0 0 12 1.8v2.4c.341 0 .618.277.618.618zm-1.527 2.625a3.02 3.02 0 0 0 1.527-2.625h-2.4c0 .23-.124.43-.314.539zm.483-1.574-.007-.013-2.14 1.087.007.012zm2.185 2.99q-.557-.292-1.154-1.162c-.39-.57-.719-1.214-1.031-1.828l-2.14 1.086c.302.595.698 1.379 1.192 2.1.487.71 1.143 1.471 2.021 1.93z" mask="url(#a)"/><circle cx="12" cy="5" r="1" fill="#494949"/><path fill="#494949" d="M21 10.5a.5.5 0 1 1-1 0 .5.5 0 0 1 1 0M4 10.5a.5.5 0 1 1-1 0 .5.5 0 0 1 1 0"/></svg>