<svg width="24" height="24" viewBox="0 0 24 24" fill="none" xmlns="http://www.w3.org/2000/svg">
<path d="M14.9314 18.5078L15.3076 18.9752L15.3077 18.9751L14.9314 18.5078ZM5.14791 15.0676L5.60064 14.6738L5.60063 14.6738L5.14791 15.0676ZM9.06663 18.5078L8.69039 18.9751L8.6904 18.9751L9.06663 18.5078ZM6.13919 4.45332L5.88542 3.90963L5.88542 3.90963L6.13919 4.45332ZM10.4224 19.4994L10.115 20.0147L10.115 20.0147L10.4224 19.4994ZM18.8502 15.0676L18.3974 14.6738L18.3974 14.6738L18.8502 15.0676ZM17.8588 4.45332L17.605 4.99701L17.6051 4.99701L17.8588 4.45332ZM13.5757 19.4994L13.2683 18.9842L13.2682 18.9842L13.5757 19.4994ZM11.999 5.64917L11.5943 6.09214C11.8235 6.30151 12.1745 6.30151 12.4037 6.09214L11.999 5.64917ZM2.99902 9.64864H2.39902C2.39902 12.1106 3.40985 13.9835 4.69518 15.4613L5.14791 15.0676L5.60063 14.6738C4.44764 13.3481 3.59902 11.7441 3.59902 9.64864H2.99902ZM5.14791 15.0676L4.69517 15.4613C5.93854 16.891 7.53073 18.0416 8.69039 18.9751L9.06663 18.5078L9.44287 18.0404C8.21373 17.0509 6.75254 15.9983 5.60064 14.6738L5.14791 15.0676ZM6.13919 4.45332L5.88542 3.90963C3.80503 4.88067 2.39902 7.11271 2.39902 9.64864H2.99902H3.59902C3.59902 7.5475 4.76276 5.75792 6.39297 4.99701L6.13919 4.45332ZM9.06663 18.5078L8.6904 18.9751C9.11386 19.316 9.60638 19.7113 10.115 20.0147L10.4224 19.4994L10.7298 18.9842C10.3053 18.7309 9.87708 18.3899 9.44286 18.0404L9.06663 18.5078ZM10.4224 19.4994L10.115 20.0147C10.623 20.3178 11.2655 20.6039 11.999 20.6039V20.0039V19.4039C11.5765 19.4039 11.1546 19.2376 10.7298 18.9842L10.4224 19.4994ZM14.9314 18.5078L15.3077 18.9751C16.4673 18.0416 18.0595 16.891 19.3029 15.4613L18.8502 15.0676L18.3974 14.6738C17.2455 15.9983 15.7843 17.0509 14.5552 18.0404L14.9314 18.5078ZM18.8502 15.0676L19.3029 15.4613C20.5882 13.9835 21.599 12.1106 21.599 9.64864H20.999H20.399C20.399 11.7441 19.5504 13.3481 18.3974 14.6738L18.8502 15.0676ZM20.999 9.64864H21.599C21.599 7.11271 20.193 4.88066 18.1126 3.90962L17.8588 4.45332L17.6051 4.99701C19.2353 5.75792 20.399 7.5475 20.399 9.64864H20.999ZM11.999 20.0039V20.6039C12.7325 20.6039 13.3751 20.3178 13.8831 20.0147L13.5757 19.4994L13.2682 18.9842C12.8434 19.2376 12.4215 19.4039 11.999 19.4039V20.0039ZM13.5757 19.4994L13.8831 20.0147C14.3917 19.7113 14.8842 19.316 15.3076 18.9752L14.9314 18.5078L14.5552 18.0403C14.1209 18.3899 13.6928 18.7309 13.2683 18.9842L13.5757 19.4994ZM17.8588 4.45332L18.1126 3.90963C16.114 2.97676 13.6901 3.29155 11.5943 5.2062L11.999 5.64917L12.4037 6.09214C14.1793 4.47 16.0904 4.29004 17.605 4.99701L17.8588 4.45332ZM11.999 5.64917L12.4037 5.2062C10.3079 3.29155 7.88403 2.97676 5.88542 3.90963L6.13919 4.45332L6.39297 4.99701C7.90761 4.29004 9.81873 4.47 11.5943 6.09214L11.999 5.64917Z" fill="white"/>
</svg>
