<svg xmlns="http://www.w3.org/2000/svg" width="24" height="24" fill="none"><path stroke="#9A9A9A" stroke-linecap="round" stroke-width="1.2" d="M9.2 10.03v2.4M8 11.23h2.4"/><path stroke="#9A9A9A" stroke-width="1.2" d="m19.936 15.131-.868-3.613c-.49-2.042-.736-3.063-1.432-3.733q-.265-.255-.58-.448c-.829-.507-1.906-.507-4.062-.507h-1.989c-2.155 0-3.232 0-4.06.507q-.316.193-.581.448c-.696.67-.941 1.691-1.432 3.733l-.868 3.613c-.305 1.27.506 2.54 1.811 2.837 1.101.25 2.233-.273 2.73-1.26l.103-.204a2.73 2.73 0 0 1 2.441-1.482h1.702c1.038 0 1.985.575 2.441 1.482l.103.203c.497.988 1.629 1.511 2.73 1.261 1.305-.296 2.116-1.567 1.81-2.837Z"/><path stroke="#9A9A9A" stroke-linecap="round" stroke-width="1.2" d="M12 6.829v-.8a.8.8 0 0 1 .8-.8h.8a.8.8 0 0 0 .8-.8v-.8"/><path fill="#9A9A9A" d="M15.2 10.029a.8.8 0 1 1-1.6 0 .8.8 0 0 1 1.6 0M16.8 12.429a.8.8 0 1 1-1.6 0 .8.8 0 0 1 1.6 0"/></svg>