<svg xmlns="http://www.w3.org/2000/svg" width="24" height="24" fill="none"><path fill="#0166FF" d="M8.8 15.4a.6.6 0 1 0 0 1.2zm4.267 1.2a.6.6 0 1 0 0-1.2zm-2.133-9.2a.6.6 0 1 0 0 1.2zm4.267 1.2a.6.6 0 1 0 0-1.2zM12 19.4c-1.903 0-3.27-.001-4.31-.141-1.022-.138-1.638-.4-2.094-.855l-.849.849c.716.715 1.628 1.04 2.784 1.195 1.138.153 2.6.152 4.469.152zM3.4 12c0 1.869-.001 3.33.152 4.469.155 1.156.48 2.068 1.195 2.784l.849-.849c-.456-.456-.717-1.072-.855-2.095C4.601 15.27 4.6 13.903 4.6 12zm16 0c0 1.903-.001 3.27-.141 4.31-.138 1.022-.4 1.638-.855 2.094l.849.849c.715-.716 1.04-1.628 1.195-2.784.153-1.139.152-2.6.152-4.469zM12 20.6c1.869 0 3.33.001 4.469-.152 1.156-.155 2.068-.48 2.784-1.195l-.849-.849c-.456.456-1.072.717-2.095.855-1.04.14-2.406.141-4.309.141zm0-16c1.903 0 3.27.001 4.31.141 1.022.138 1.638.4 2.094.855l.849-.849c-.716-.716-1.628-1.04-2.784-1.195C15.33 3.399 13.869 3.4 12 3.4zm8.6 7.4c0-1.869.001-3.33-.152-4.469-.155-1.156-.48-2.068-1.195-2.784l-.849.849c.456.456.717 1.072.855 2.095.14 1.04.141 2.406.141 4.309zM12 3.4c-1.869 0-3.33-.001-4.469.152-1.156.155-2.068.48-2.784 1.195l.849.849c.456-.456 1.072-.717 2.095-.855C8.73 4.601 10.097 4.6 12 4.6zM4.6 12c0-1.903.001-3.27.141-4.31.138-1.022.4-1.638.855-2.094l-.849-.849c-.716.716-1.04 1.628-1.195 2.784C3.399 8.669 3.4 10.131 3.4 12zm4.2 4.6h2.134v-1.2H8.801zm2.134 0h2.133v-1.2h-2.133zm0-8h2.133V7.4h-2.133zm2.133 0h2.134V7.4h-2.134zm-1.553 7.555 2.133-8-1.16-.31-2.133 8z"/></svg>