<svg xmlns="http://www.w3.org/2000/svg" width="24" height="24" fill="none"><path fill="#0166FF" fill-rule="evenodd" d="M11.098 3h1.804c.77 0 1.412 0 1.922.068.538.073 1.024.232 1.414.621.39.39.55.876.622 1.413.055.407.066.898.068 1.47.638.12 1.185.347 1.63.792.517.515.738 1.164.842 1.935.1.742.1 1.685.1 2.856v.985c0 1 0 1.8-.067 2.452-.07.673-.216 1.242-.541 1.768-.325.525-.77.91-1.341 1.273-.554.352-1.27.71-2.166 1.157l-.03.015-.146.072C13.845 20.56 12.963 21 12 21s-1.845-.44-3.21-1.123l-.144-.072-.031-.015c-.896-.448-1.612-.805-2.166-1.157-.572-.363-1.016-.748-1.34-1.273-.326-.526-.472-1.094-.542-1.768C4.5 14.94 4.5 14.14 4.5 13.14v-.985c0-1.17 0-2.114.1-2.856.104-.77.326-1.42.841-1.935.447-.445.993-.671 1.631-.791.002-.573.013-1.064.068-1.471.072-.537.231-1.023.622-1.413.39-.39.876-.548 1.414-.62C9.686 3 10.328 3 11.098 3m-2.74 3.446a49 49 0 0 1 1.88-.022h3.523c.708 0 1.333 0 1.88.022-.003-.498-.015-.873-.055-1.173-.053-.395-.145-.564-.257-.676-.112-.111-.28-.203-.677-.256-.413-.056-.969-.057-1.795-.057h-1.714c-.826 0-1.381.001-1.796.057-.395.053-.564.145-.676.256s-.204.281-.257.676c-.04.3-.052.675-.055 1.173m-.808 1.35c-.63.085-.962.24-1.2.476-.237.237-.391.57-.476 1.198-.087.646-.088 1.503-.088 2.732v.904c0 1.043 0 1.776.06 2.354.059.563.169.922.356 1.224.187.303.46.562.938.866.49.311 1.147.64 2.08 1.107 1.563.78 2.158 1.059 2.78 1.059s1.217-.28 2.78-1.06c.933-.466 1.59-.794 2.08-1.106.478-.304.751-.563.938-.866.187-.302.297-.661.356-1.224.06-.578.06-1.312.06-2.354v-.904c0-1.229-.001-2.086-.088-2.732-.085-.628-.24-.96-.477-1.198-.237-.237-.57-.391-1.199-.476-.647-.087-1.505-.088-2.736-.088h-3.428c-1.23 0-2.089.001-2.736.088m4.45 3.58q-.074.128-.17.302l-.085.15-.019.036c-.067.123-.179.326-.365.467-.19.144-.418.193-.551.222l-.037.008-.164.037c-.15.034-.272.062-.377.088.068.084.157.188.271.322l.112.13.026.03c.092.106.242.278.31.5.069.22.045.445.03.587l-.004.04-.017.174c-.015.162-.027.29-.035.395l.311-.142.153-.07.035-.016c.123-.058.337-.16.576-.16s.453.102.576.16q.018.008.034.016l.154.07q.179.083.311.142l-.035-.395-.017-.173-.005-.04c-.014-.143-.038-.369.03-.588.07-.222.219-.394.311-.5q.015-.015.026-.03l.112-.13c.114-.134.203-.238.27-.322-.104-.026-.226-.053-.376-.088l-.164-.037-.037-.008c-.133-.029-.362-.078-.551-.222-.186-.14-.298-.344-.365-.467l-.02-.035-.083-.151q-.098-.174-.171-.302m-.846-1.057c.148-.193.416-.471.846-.471s.698.278.846.47c.14.184.282.438.428.7l.02.035.084.15.048.087.085.02.164.036.04.01c.28.063.56.126.774.21.237.093.558.275.681.672.122.39-.031.72-.165.933-.124.196-.312.416-.505.641l-.026.03-.112.13-.07.084.01.116.017.173.004.04c.03.301.058.593.047.825-.01.245-.07.614-.401.866-.343.26-.72.203-.96.134a6 6 0 0 1-.745-.304l-.038-.018-.153-.07-.073-.033-.073.033-.153.07-.038.018a6 6 0 0 1-.745.304c-.24.069-.617.125-.96-.134-.332-.252-.39-.621-.401-.866-.01-.232.018-.524.047-.825l.004-.04.017-.173.01-.116-.07-.083-.112-.13-.026-.031a6 6 0 0 1-.505-.641c-.134-.213-.287-.543-.166-.933.124-.397.445-.579.682-.672.214-.084.493-.147.774-.21l.04-.01.164-.037.085-.02.048-.085.085-.151.02-.036c.145-.26.287-.515.427-.698" clip-rule="evenodd"/></svg>