<svg xmlns="http://www.w3.org/2000/svg" width="24" height="24" fill="none"><path fill="#0166FF" d="M17.666 9.056c0-1.39-.542-2.7-1.527-3.684a5.22 5.22 0 0 0-3.684-1.525.608.608 0 0 0 0 1.214 3.996 3.996 0 0 1 3.995 3.984v6.543l-2.127-2.124a.6.6 0 0 0-.858-.004.6.6 0 0 0-.18.43v.004c0 .162.064.316.178.431l3.127 3.128a.616.616 0 0 0 .861 0l3.22-3.22a.604.604 0 0 0 0-.859.605.605 0 0 0-.859-.003l-2.146 2.146zM7.86 18.631a5.2 5.2 0 0 0 3.683 1.525.61.61 0 0 0 .43-1.038.6.6 0 0 0-.43-.178 4 4 0 0 1-3.996-3.984V8.413l.038.038 2.088 2.089a.604.604 0 0 0 .858.001.605.605 0 0 0 .004-.86l-3.13-3.13a.616.616 0 0 0-.862 0l-3.219 3.22a.61.61 0 0 0 0 .861.606.606 0 0 0 .858 0l2.149-2.148v6.461c0 1.39.541 2.7 1.526 3.685z"/></svg>