<svg xmlns="http://www.w3.org/2000/svg" width="16" height="17" fill="none"><mask id="a" fill="#fff"><path fill-rule="evenodd" d="M7.798 2.411c-.242-.048-.573-.052-1.17-.052-1.01 0-1.729.001-2.273.087-.533.083-.84.242-1.062.503-.223.262-.357.622-.429 1.246-.072.638-.073 1.477-.073 2.66v2.481c0 1.182 0 2.022.073 2.66.072.623.206.983.429 1.246.222.262.528.42 1.059.503.541.086 1.255.087 2.26.087h2.109c1.005 0 1.72-.001 2.261-.087.53-.084.836-.241 1.059-.504.223-.262.357-.622.428-1.245.072-.637.074-1.478.074-2.66v-.271c0-.953-.006-1.404-.092-1.745H10.8c-.597 0-1.085 0-1.47-.06-.403-.064-.752-.202-1.03-.53-.28-.328-.397-.738-.45-1.213-.053-.452-.053-1.027-.053-1.73zm.791.481v.862c0 .744.001 1.255.045 1.64.042.37.118.552.226.678.107.126.261.216.576.265.327.052.76.053 1.393.053h1.065a26 26 0 0 0-.617-.667l-2.086-2.21a21 21 0 0 0-.602-.62ZM6.705 1.43c.73 0 1.201 0 1.635.195.434.196.783.566 1.323 1.138l.057.06 2.086 2.21.066.069c.624.66 1.028 1.087 1.245 1.66.216.573.217 1.212.216 2.2v.41c0 1.14 0 2.042-.08 2.749-.084.726-.259 1.315-.653 1.78-.395.463-.895.67-1.513.767-.6.095-1.368.095-2.337.095H6.583c-.969 0-1.737 0-2.337-.095-.618-.098-1.118-.304-1.513-.768s-.57-1.053-.652-1.78C2 11.414 2 10.51 2 9.37V6.821c0-1.14 0-2.043.08-2.75.084-.726.259-1.315.653-1.779.396-.465.897-.67 1.517-.768.603-.095 1.375-.095 2.349-.095h.106" clip-rule="evenodd"/></mask><path fill="#0E0E0E" fill-rule="evenodd" d="M7.798 2.411c-.242-.048-.573-.052-1.17-.052-1.01 0-1.729.001-2.273.087-.533.083-.84.242-1.062.503-.223.262-.357.622-.429 1.246-.072.638-.073 1.477-.073 2.66v2.481c0 1.182 0 2.022.073 2.66.072.623.206.983.429 1.246.222.262.528.42 1.059.503.541.086 1.255.087 2.26.087h2.109c1.005 0 1.72-.001 2.261-.087.53-.084.836-.241 1.059-.504.223-.262.357-.622.428-1.245.072-.637.074-1.478.074-2.66v-.271c0-.953-.006-1.404-.092-1.745H10.8c-.597 0-1.085 0-1.47-.06-.403-.064-.752-.202-1.03-.53-.28-.328-.397-.738-.45-1.213-.053-.452-.053-1.027-.053-1.73zm.791.481v.862c0 .744.001 1.255.045 1.64.042.37.118.552.226.678.107.126.261.216.576.265.327.052.76.053 1.393.053h1.065a26 26 0 0 0-.617-.667l-2.086-2.21a21 21 0 0 0-.602-.62ZM6.705 1.43c.73 0 1.201 0 1.635.195.434.196.783.566 1.323 1.138l.057.06 2.086 2.21.066.069c.624.66 1.028 1.087 1.245 1.66.216.573.217 1.212.216 2.2v.41c0 1.14 0 2.042-.08 2.749-.084.726-.259 1.315-.653 1.78-.395.463-.895.67-1.513.767-.6.095-1.368.095-2.337.095H6.583c-.969 0-1.737 0-2.337-.095-.618-.098-1.118-.304-1.513-.768s-.57-1.053-.652-1.78C2 11.414 2 10.51 2 9.37V6.821c0-1.14 0-2.043.08-2.75.084-.726.259-1.315.653-1.779.396-.465.897-.67 1.517-.768.603-.095 1.375-.095 2.349-.095h.106" clip-rule="evenodd"/><path fill="#5A5E66" d="M7.798 2.411h.8v-.656l-.643-.128zm-3.443.035.124.79zm-1.49 1.75.794.09zm0 7.8.794-.091-.795.09Zm.428 1.246-.61.517v.002zm1.059.503.125-.79zm6.63 0 .125.79zm1.487-1.75-.795-.09zM12.45 7.32l.775-.197-.153-.603h-.622zm-3.12-.06-.126.79.125-.79ZM7.85 5.516l-.796.091.795-.09Zm.738-2.625.563-.568L7.789.974v1.918h.8Zm.045 2.501.795-.09zm.802.944.125-.79zm2.458.053v.8h1.787l-1.19-1.333zm-.617-.667-.581.549.004.004zM9.19 3.512l-.586.545.004.004zm-.85-1.889.33-.728h-.001l-.329.73Zm1.322 1.138-.581.55zm.057.06.582-.55H10.3zm2.086 2.21-.581.548v.002zm.066.069.582-.55h-.002zm1.461 3.86h-.8zm-.08 3.159.794.09zM12.6 13.9l.61.518zm-1.513.767.125.79zm-6.84 0-.126.79.125-.79ZM2.732 13.9l-.61.518h.001zm-.652-1.78-.795.091.795-.09Zm0-8.047-.795-.091.795.09Zm.652-1.78-.609-.519v.001zm1.517-.768-.124-.79zm3.705.103c-.338-.068-.764-.068-1.327-.068v1.6c.63 0 .867.007 1.014.037zM6.627 1.56c-.984 0-1.777-.001-2.397.096l.249 1.581c.467-.074 1.111-.077 2.148-.077zm-2.397.096c-.65.102-1.16.32-1.547.775L3.9 3.468c.059-.068.16-.166.578-.232zm-1.547.775c-.373.438-.536.983-.614 1.675l1.59.18c.063-.556.168-.73.241-.817L2.684 2.43ZM2.07 4.106c-.08.693-.08 1.587-.08 2.75h1.6c0-1.202.003-1.988.07-2.57zm-.08 2.75v2.481h1.6v-2.48zm0 2.481c0 1.163 0 2.057.08 2.75l1.59-.181c-.067-.582-.07-1.367-.07-2.569zm.08 2.75c.079.692.241 1.236.612 1.673l1.22-1.034c-.074-.089-.18-.265-.243-.82zm.614 1.675c.387.455.897.672 1.543.774l.25-1.58c-.415-.066-.517-.163-.576-.232zm1.542.774c.62.099 1.409.097 2.386.097v-1.6c-1.032 0-1.67-.003-2.135-.077zm2.386.097h2.109v-1.6H6.612zm2.109 0c.979 0 1.767 0 2.386-.097l-.25-1.58c-.465.073-1.104.077-2.136.077zm2.386-.097c.646-.102 1.156-.32 1.543-.776l-1.219-1.036c-.058.069-.16.166-.574.232zm1.543-.776c.372-.437.535-.98.614-1.673l-1.59-.181c-.063.556-.169.731-.243.818zm.614-1.673c.079-.693.079-1.587.079-2.75h-1.6c0 1.202-.003 1.988-.069 2.569zm.079-2.75v-.271h-1.6v.27zm0-.271c0-.906 0-1.48-.117-1.942l-1.55.394c.055.22.067.548.067 1.548zM12.45 6.52H10.8v1.6h1.65zm-1.65 0c-.621 0-1.036-.002-1.346-.05l-.25 1.58c.463.072 1.022.07 1.596.07zm-1.345-.05c-.288-.046-.432-.124-.546-.258L7.69 7.248c.445.522.998.72 1.515.802zm-.546-.258c-.13-.153-.219-.378-.265-.786l-1.59.182c.062.542.208 1.137.636 1.64zm-.265-.785c-.045-.397-.047-.919-.047-1.64h-1.6c0 .686 0 1.313.057 1.821zm-.047-1.64V2.411h-1.6v1.376zm-.809-.895v.862h1.6v-.862zm0 .862c0 .725 0 1.29.05 1.73l1.59-.181c-.038-.328-.04-.785-.04-1.549zm.05 1.73c.05.439.155.806.412 1.107l1.217-1.039c.016.019.017.03.01.008a1.3 1.3 0 0 1-.05-.257zm.412 1.107c.27.317.627.468 1.06.537l.25-1.581c-.108-.017-.143-.034-.141-.033a.2.2 0 0 1 .048.039L8.25 6.59Zm1.06.536c.404.064.912.063 1.518.063v-1.6c-.659 0-1.019-.004-1.268-.043zm1.518.063h1.065v-1.6H10.83v1.6Zm1.662-1.333a24 24 0 0 0-.636-.687L10.7 6.276q.303.317.598.647zm-.632-.684-2.087-2.21-1.163 1.1 2.087 2.209zM9.776 2.968a21 21 0 0 0-.624-.644L8.026 3.46q.295.291.579.597zm-3.071-.74c.782 0 1.062.015 1.307.126l.657-1.46C8.046.615 7.382.63 6.705.63v1.6Zm1.306.125c.258.117.492.345 1.07.958l1.164-1.098C9.743 1.68 9.28 1.17 8.67.895zm1.072.96.056.059 1.162-1.1-.057-.06-1.161 1.1Zm.055.058 2.087 2.21 1.163-1.099-2.086-2.21zm2.088 2.21.066.07 1.16-1.1-.065-.07zm.065.07c.654.692.929 1 1.077 1.393l1.497-.565c-.285-.753-.818-1.3-1.412-1.928zm1.077 1.393c.154.407.166.88.165 1.916h1.6c0-.938.011-1.743-.268-2.482zm.165 1.916v.41h1.6v-.41zm0 .41c0 1.158 0 2.008-.075 2.659l1.59.181c.086-.762.085-1.718.085-2.84zm-.075 2.659c-.076.66-.222 1.063-.468 1.353l1.22 1.035c.543-.64.746-1.412.837-2.206l-1.59-.183Zm-.467 1.352c-.23.27-.526.416-1.03.496l.252 1.58c.732-.116 1.437-.381 1.996-1.04zm-1.029.496c-.524.083-1.218.085-2.212.085v1.6c.944 0 1.785.002 2.462-.105zm-2.212.085H6.583v1.6H8.75zm-2.167 0c-.994 0-1.688-.002-2.212-.085l-.25 1.58c.677.107 1.518.105 2.462.105zm-2.212-.085c-.503-.08-.799-.226-1.029-.496l-1.218 1.037c.56.658 1.265.923 1.997 1.04zm-1.028-.495c-.245-.29-.392-.694-.468-1.354l-1.59.183c.092.794.295 1.566.838 2.206zm-.467-1.353c-.075-.651-.076-1.5-.076-2.659H1.2c0 1.122-.001 2.078.086 2.84zM2.8 9.37V6.821H1.2v2.55zm0-2.549c0-1.158.001-2.008.075-2.658l-1.59-.182C1.2 4.743 1.2 5.7 1.2 6.821zm.075-2.658c.076-.66.223-1.064.468-1.353l-1.22-1.036c-.543.64-.746 1.413-.837 2.207l1.59.182Zm.467-1.353c.23-.27.526-.416 1.033-.496l-.25-1.58c-.733.116-1.44.38-2.001 1.04zm1.033-.496c.527-.082 1.225-.085 2.224-.085V.63c-.95 0-1.794-.002-2.473.105zm2.224-.085h.106V.63H6.6z" mask="url(#a)"/></svg>