<svg xmlns="http://www.w3.org/2000/svg" width="24" height="24" fill="none"><path stroke="#fff" stroke-width="1.25" d="M16.498 13.162c0 2.357 0 3.536-.732 4.268s-1.91.732-4.268.732h-2.5c-2.357 0-3.535 0-4.268-.732s-.732-1.91-.732-4.268V8.995c0-2.357 0-3.535.732-4.267.733-.733 1.911-.733 4.268-.733h2.5c2.357 0 3.536 0 4.268.733.732.732.732 1.91.732 4.267z"/><path stroke="#fff" stroke-width="1.25" d="M16.498 6.495a2.5 2.5 0 0 1 2.5 2.5v5c0 3.143 0 4.714-.976 5.69-.977.977-2.548.977-5.69.977H8.997a2.5 2.5 0 0 1-2.5-2.5"/></svg>