<svg xmlns="http://www.w3.org/2000/svg" width="44" height="45" fill="none"><g fill="#fff"><path d="m22.067 1.743-.004-.02v.04l-3.125 13.195 3.125 6.53v.02l.004-.01.005.01v-.02l3.125-6.53-3.125-13.196v-.04zM21.938 44.48l.005.02v-.04l3.124-13.195-3.124-6.53v-.02l-.005.01-.005-.01v.02l-3.124 6.53 3.124 13.196v.04zM40.92 11.982l.019-.017-.044.026-13.237 4.372-4.094 6.002-.02.012.013-.001-.008.011.023-.013 7.38-.866 9.95-9.509.042-.024zM3.077 34.242l-.017.016.04-.024 13.24-4.373 4.095-6.004.019-.011-.013.001.008-.01-.02.012-7.383.866-9.952 9.51-.04.024zM3.12 11.912l-.019-.007.034.02 9.92 9.554 7.382.895.016.01-.005-.01.01.002-.016-.01-4.073-6.023-13.23-4.425-.033-.02zM40.88 34.314l.019.007-.035-.021-9.918-9.553-7.383-.895-.016-.01.006.009-.011-.002.017.01 4.072 6.023 13.23 4.426.032.02z"/></g></svg>