<svg xmlns="http://www.w3.org/2000/svg" width="24" height="24" fill="none"><path fill="#fff" d="M19.443 10.018a.56.56 0 0 0-.56.56v1.05c0 .875 0 1.503-.033 1.998-.034.49-.098.81-.207 1.073a3.16 3.16 0 0 1-1.712 1.712c-.383.159-.873.218-1.807.234H15.1c-.296.006-.556.01-.771.034a1.7 1.7 0 0 0-.677.204 1.7 1.7 0 0 0-.507.48 9 9 0 0 0-.4.637l-.416.702a.388.388 0 0 1-.657 0L11.256 18c-.146-.247-.275-.465-.4-.637a1.7 1.7 0 0 0-.508-.48 1.7 1.7 0 0 0-.676-.204 9 9 0 0 0-.772-.033h-.023c-.935-.017-1.424-.076-1.808-.235a3.16 3.16 0 0 1-1.712-1.712c-.108-.263-.173-.582-.206-1.073-.034-.495-.034-1.123-.034-1.998v-.744c0-1.229 0-2.111.066-2.8.064-.68.188-1.112.4-1.457.26-.426.618-.784 1.044-1.045.345-.211.777-.335 1.458-.4.688-.065 1.57-.066 2.8-.066h2.778a.56.56 0 0 0 .563-.56.555.555 0 0 0-.554-.556h-2.818c-1.193 0-2.128 0-2.876.071-.761.072-1.385.223-1.935.56A4.3 4.3 0 0 0 4.63 6.042c-.336.55-.487 1.174-.559 1.935C4 8.726 4 9.661 4 10.855v.794c0 .85 0 1.515.037 2.053.037.547.114 1.003.289 1.424a4.28 4.28 0 0 0 2.316 2.316c.599.248 1.28.303 2.215.32.327.005.534.009.692.026a.6.6 0 0 1 .238.06c.035.02.083.058.166.173.09.123.193.295.354.568l.404.682c.576.973 2.002.973 2.578 0l.403-.682c.162-.273.264-.444.354-.568a.6.6 0 0 1 .167-.173.6.6 0 0 1 .238-.06c.158-.017.365-.021.692-.027.934-.016 1.616-.071 2.215-.32a4.28 4.28 0 0 0 2.316-2.315c.175-.421.252-.877.29-1.424.036-.538.036-1.204.036-2.053v-1.075a.556.556 0 0 0-.557-.556"/><path fill="#fff" d="m16.799 4.549-3.187 3.187a5 5 0 0 0-.396.425 2.7 2.7 0 0 0-.314.509c-.073.153-.127.314-.204.544l-.466 1.398a.913.913 0 0 0 1.156 1.155l1.397-.466c.23-.077.391-.13.544-.203q.272-.13.51-.315c.133-.104.253-.224.425-.396l3.186-3.186A1.875 1.875 0 0 0 16.8 4.549m-1.302 5.026c-.202.203-.272.27-.345.328a1.6 1.6 0 0 1-.302.187c-.085.04-.176.071-.448.162l-.771.257-.141-.14.257-.772a4 4 0 0 1 .162-.447 1.6 1.6 0 0 1 .187-.303c.057-.073.125-.142.328-.345l2.222-2.222a2.8 2.8 0 0 0 1.073 1.073zm3.164-3.164-.098.098-.037-.012a1.66 1.66 0 0 1-.628-.396 1.65 1.65 0 0 1-.396-.628l-.012-.037.098-.098a.759.759 0 0 1 1.073 1.073"/><path stroke="#fff" stroke-linecap="round" stroke-linejoin="round" stroke-width="1.2" d="M8 8.5h.75M8 11h1.5M8 13.5h5"/></svg>