<svg xmlns="http://www.w3.org/2000/svg" width="24" height="24" fill="none"><g stroke="#727689" stroke-width="1.2"><path d="M11.938 2.813c-1.96 0-3.84.773-5.233 2.152Zm0 0a7.44 7.44 0 0 1 7.437 7.363v.004c0 2.558-1.619 5.194-3.197 7.166-1.555 1.945-3.154 3.346-3.397 3.535a1.31 1.31 0 0 1-1.697-.009l-.002-.002h-.001c-.15-.13-1.78-1.543-3.376-3.534-1.58-1.97-3.205-4.602-3.205-7.156v-.004a7.44 7.44 0 0 1 2.205-5.211" clip-rule="evenodd"/><path d="M10.694 7.765a2.463 2.463 0 1 1-.373 3.789l-.424.424.424-.424a2.462 2.462 0 0 1 .373-3.789Z"/></g></svg>