<svg xmlns="http://www.w3.org/2000/svg" width="24" height="24" fill="none"><path fill="#5A5E66" d="M12.015 10.288a.64.64 0 0 1-.604-.446L10.265 6.33a.67.67 0 0 1 0-.413l1.141-3.473A.64.64 0 0 1 12.011 2h.002a.64.64 0 0 1 .604.448l1.122 3.49a.66.66 0 0 1 0 .405l-1.122 3.5a.64.64 0 0 1-.604.447zm-.698-4.163.696 2.135.678-2.118-.682-2.123-.694 2.106zM12.013 22a.825.825 0 0 1-.783-.576l-.967-2.956a.67.67 0 0 1 0-.413l1.141-3.484a.64.64 0 0 1 .604-.444.64.64 0 0 1 .605.448l1.122 3.504a.65.65 0 0 1 0 .402l-.946 2.941a.82.82 0 0 1-.78.578zm-.698-3.737.696 2.13.678-2.113-.683-2.13-.693 2.115zM13.794 11.062a.63.63 0 0 1-.454-.195.66.66 0 0 1-.114-.753l1.65-3.3a.64.64 0 0 1 .288-.288l3.243-1.616a.63.63 0 0 1 .736.13.66.66 0 0 1 .113.753l-1.65 3.278a.65.65 0 0 1-.283.286l-3.245 1.638a.6.6 0 0 1-.284.067m1.964-3.627-1.005 2.013 1.974-.998 1.006-2zm.906 1.138-.002.005v-.005zM5.754 19.344a.82.82 0 0 1-.585-.249.85.85 0 0 1-.149-.973l1.394-2.79a.64.64 0 0 1 .288-.288l3.243-1.616a.63.63 0 0 1 .736.13.66.66 0 0 1 .112.753l-1.65 3.278a.63.63 0 0 1-.284.286l-2.738 1.383a.8.8 0 0 1-.367.086m1.54-3.39-1.006 2.012 1.975-.998 1.005-2zM10.225 11.056a.64.64 0 0 1-.284-.067L6.715 9.355a.64.64 0 0 1-.282-.284L4.774 5.795a.66.66 0 0 1 .11-.753.63.63 0 0 1 .736-.13l3.237 1.612c.125.063.223.16.286.286l1.65 3.3a.66.66 0 0 1-.114.753.63.63 0 0 1-.454.193M7.31 8.446l1.955.991-1.003-2.006-1.962-.978zM18.263 19.338a.8.8 0 0 1-.367-.089l-2.721-1.378a.65.65 0 0 1-.284-.286l-1.659-3.274a.66.66 0 0 1 .11-.753.63.63 0 0 1 .736-.13l3.237 1.612a.65.65 0 0 1 .288.29l1.392 2.783a.855.855 0 0 1-.149.974.81.81 0 0 1-.585.249zm-2.492-2.372 1.955.991-1.003-2.006-1.962-.978zM6.03 13.942a.6.6 0 0 1-.208-.035l-3.394-1.199A.645.645 0 0 1 2 12.085a.65.65 0 0 1 .445-.612l3.447-1.115a.62.62 0 0 1 .397.005l3.406 1.188c.26.09.434.342.43.623a.64.64 0 0 1-.443.612l-3.455 1.126a.7.7 0 0 1-.193.03zm-2.051-1.83 2.055.724 2.104-.684-2.062-.718zM17.905 14.08a.6.6 0 0 1-.21-.036l-3.392-1.197a.645.645 0 0 1-.428-.623.65.65 0 0 1 .445-.612l3.447-1.115a.62.62 0 0 1 .396.005l3.404 1.175c.261.09.435.34.433.62a.65.65 0 0 1-.443.615L18.1 14.048a.6.6 0 0 1-.196.03zm-2.05-1.828 2.054.725 2.104-.69-2.06-.712z"/></svg>