<svg xmlns="http://www.w3.org/2000/svg" width="24" height="24" fill="none"><path stroke="#9A9A9A" stroke-linecap="round" stroke-linejoin="round" stroke-width="1.2" d="M11.212 8.51q-1.346 1.021-2.538 2.218c-3.74 3.74-5.633 7.907-4.231 9.31 1.401 1.402 5.57-.493 9.308-4.232a24 24 0 0 0 2.217-2.539c2.206 2.927 3.104 5.68 2.015 6.77-1.403 1.403-5.57-.492-9.31-4.23-3.737-3.742-5.63-7.908-4.229-9.31 1.089-1.088 3.842-.19 6.77 2.014m-.66 4.756a.657.657 0 1 0 1.316 0 .657.657 0 0 0-1.315 0m3.301-5.725c-.414-.073-.414-.666 0-.737a3.73 3.73 0 0 0 3.012-2.883l.023-.115c.09-.407.67-.41.763-.004l.032.133a3.76 3.76 0 0 0 3.019 2.867c.415.072.415.669 0 .74a3.76 3.76 0 0 0-3.02 2.867l-.031.133c-.092.407-.673.405-.763-.003l-.026-.114a3.73 3.73 0 0 0-3.011-2.884z"/></svg>