<svg xmlns="http://www.w3.org/2000/svg" width="24" height="24" fill="none" viewBox="0 0 24 24">
  <path fill="#727689" fill-rule="evenodd" d="M8.662.918a5.107 5.107 0 1 0 0 10.214 5.107 5.107 0 0 0 0-10.214Z" clip-rule="evenodd"/>
  <path fill="#727689" d="M16.82 3.058a.806.806 0 0 0-.806.806c0 .446-.008.46.004 1.04-.004 1.125-.004.74-.004 1.648 0 .908.004-.523.004 1.182 0 .852-.004 1.06-.004 1.506 0 .446.361.807.806.807 2.083 0 4.032-1.433 4.032-3.495 0-2.06-1.949-3.494-4.032-3.494Z"/>
  <path fill="#727689" fill-rule="evenodd" d="M8.656 12.739c-1.919 0-3.692.517-5.01 1.395-1.31.874-2.248 2.17-2.248 3.712 0 1.541.937 2.837 2.249 3.712 1.317.878 3.09 1.395 5.009 1.395 1.918 0 3.691-.517 5.008-1.395 1.312-.875 2.249-2.171 2.249-3.712 0-1.541-.937-2.838-2.248-3.712-1.318-.878-3.09-1.395-5.01-1.395Z" clip-rule="evenodd"/>
  <path fill="#727689" d="M18.196 14.451a.806.806 0 0 1 .96-.615c1.035.227 1.967.637 2.659 1.203.691.565 1.2 1.343 1.2 2.273 0 .93-.509 1.707-1.2 2.273-.692.566-1.624.976-2.658 1.202a.807.807 0 0 1-.96-.615c-.012-.5-.005 0-.012-.5 0-.853.006 0 .013-.853-.003-.852-.002-1.21-.002-1.507v-1.05l.001-.853c-.005 0 0-.852 0-.958Z"/>
  <path stroke="#727689" stroke-width=".071" d="M8.662.918a5.107 5.107 0 1 0 0 10.214 5.107 5.107 0 0 0 0-10.214Z" clip-rule="evenodd"/>
  <path stroke="#727689" stroke-width=".071" d="M16.82 3.058a.806.806 0 0 0-.806.806c0 .446-.008.46.004 1.04-.004 1.125-.004.74-.004 1.648 0 .908.004-.523.004 1.182 0 .852-.004 1.06-.004 1.506 0 .446.361.807.806.807 2.083 0 4.032-1.433 4.032-3.495 0-2.06-1.949-3.494-4.032-3.494Z"/>
  <path stroke="#727689" stroke-width=".071" d="M8.656 12.739c-1.919 0-3.692.517-5.01 1.395-1.31.874-2.248 2.17-2.248 3.712 0 1.541.937 2.837 2.249 3.712 1.317.878 3.09 1.395 5.009 1.395 1.918 0 3.691-.517 5.008-1.395 1.312-.875 2.249-2.171 2.249-3.712 0-1.541-.937-2.838-2.248-3.712-1.318-.878-3.09-1.395-5.01-1.395Z" clip-rule="evenodd"/>
  <path stroke="#727689" stroke-width=".071" d="M18.196 14.451a.806.806 0 0 1 .96-.615c1.035.227 1.967.637 2.659 1.203.691.565 1.2 1.343 1.2 2.273 0 .93-.509 1.707-1.2 2.273-.692.566-1.624.976-2.658 1.202a.807.807 0 0 1-.96-.615c-.012-.5-.005 0-.012-.5 0-.853.006 0 .013-.853-.003-.852-.002-1.21-.002-1.507v-1.05l.001-.853c-.005 0 0-.852 0-.958Z"/>
</svg>
