<svg xmlns="http://www.w3.org/2000/svg" width="24" height="24" fill="none"><path stroke="#727689" stroke-width="1.5" d="M3 6.788C3 5 3 4.108 3.555 3.553s1.448-.555 3.234-.555 2.68 0 3.235.555.555 1.448.555 3.235 0 2.68-.555 3.234c-.555.555-1.448.555-3.235.555s-2.68 0-3.234-.555C3 9.467 3 8.574 3 6.788ZM13.421 17.209c0-1.787 0-2.68.555-3.235s1.448-.555 3.234-.555 2.68 0 3.235.555S21 15.422 21 17.21s0 2.68-.555 3.234c-.555.555-1.448.555-3.235.555s-2.679 0-3.234-.555-.555-1.448-.555-3.234ZM3 17.209c0-1.787 0-2.68.555-3.235s1.448-.555 3.234-.555 2.68 0 3.235.555.555 1.448.555 3.235 0 2.68-.555 3.234c-.555.555-1.448.555-3.235.555s-2.68 0-3.234-.555C3 19.888 3 18.995 3 17.21ZM13.421 6.788c0-1.787 0-2.68.555-3.235s1.448-.555 3.234-.555 2.68 0 3.235.555S21 5.001 21 6.788s0 2.68-.555 3.234c-.555.555-1.448.555-3.235.555s-2.679 0-3.234-.555-.555-1.448-.555-3.234Z"/></svg>