<svg width="24" height="24" viewBox="0 0 24 24" fill="none" xmlns="http://www.w3.org/2000/svg">
<path d="M4 12C4 8.22876 4 6.34315 5.17157 5.17157C6.34315 4 8.22876 4 12 4C15.7712 4 17.6569 4 18.8284 5.17157C20 6.34315 20 8.22876 20 12C20 15.7712 20 17.6569 18.8284 18.8284C17.6569 20 15.7712 20 12 20C8.22876 20 6.34315 20 5.17157 18.8284C4 17.6569 4 15.7712 4 12Z" stroke="#0166FF" stroke-width="1.2"/>
<path d="M13.2992 9.10001H16.7992C17.0754 9.10001 17.2992 9.32386 17.2992 9.60001V11.5C17.2992 11.7761 17.0754 12 16.7992 12H13.7992C13.5231 12 13.2992 12.2239 13.2992 12.5V14.6C13.2992 14.7105 13.3888 14.8 13.4992 14.8H17.2992M6.69922 9V12M6.69922 12V15M6.69922 12H10.6992M10.6992 12V9M10.6992 12V15" stroke="#0166FF" stroke-width="1.2" stroke-linecap="round" stroke-linejoin="round"/>
</svg>
