<svg xmlns="http://www.w3.org/2000/svg" width="24" height="24" fill="none"><path fill="#fff" d="M18.484 3.492c-2.088-.997-4.506-.443-6.484 1.33-1.978-1.773-4.396-2.216-6.484-1.219C3.32 4.601 2 6.928 2 9.476c0 2.216.77 4.21 2.418 6.094 1.098 1.22 2.417 2.327 3.516 3.214.22.11.55.332.77.554.439.332.988.775 1.538 1.108.66.443 1.209.554 1.758.554.55 0 1.209-.222 1.758-.554.55-.333 1.1-.776 1.539-1.108.22-.222.44-.443.769-.554 1.209-.887 2.527-1.995 3.516-3.213C21.231 13.686 22 11.692 22 9.476c0-2.66-1.319-4.875-3.517-5.984"/></svg>