<svg xmlns="http://www.w3.org/2000/svg" width="24" height="24" fill="none"><path stroke="#000" stroke-width="1.2" d="M19.136 5.103a1.37 1.37 0 0 1 1.352.178c.189.145.334.337.421.556.087.218.112.455.073.686l-2.031 12.019c-.197 1.159-1.501 1.824-2.59 1.246a53 53 0 0 1-3.485-2.004c-.609-.389-2.474-1.634-2.245-2.52.197-.757 3.332-3.603 5.123-5.295.703-.665.382-1.049-.448-.437-2.062 1.518-5.372 3.827-6.466 4.477-.965.573-1.469.671-2.07.573-1.099-.178-2.117-.454-2.948-.79-1.123-.455-1.068-1.96 0-2.4z" clip-rule="evenodd"/></svg>