<svg xmlns="http://www.w3.org/2000/svg" width="24" height="24" fill="none"><path fill="#727689" d="M14.721 11.202c.508 0 .92-.618.92-1.38 0-.763-.412-1.38-.92-1.38s-.92.617-.92 1.38.412 1.38.92 1.38M9.2 11.202c.507 0 .92-.618.92-1.38 0-.763-.413-1.38-.92-1.38-.509 0-.92.617-.92 1.38s.411 1.38.92 1.38"/><path stroke="#727689" stroke-linecap="round" stroke-width="1.139" d="M9.202 16.56a4.6 4.6 0 0 1 2.76-.92c1.027 0 1.978.34 2.76.92m6.44-4.6c0 4.337 0 6.506-1.347 7.853-1.347 1.348-3.516 1.348-7.853 1.348s-6.506 0-7.853-1.348c-1.347-1.347-1.347-3.516-1.347-7.853s0-6.506 1.347-7.853S7.625 2.76 11.962 2.76s6.506 0 7.853 1.347c.896.896 1.196 2.155 1.297 4.173"/></svg>