<svg xmlns="http://www.w3.org/2000/svg" width="24" height="24" fill="none"><path stroke="#9A9A9A" stroke-width="1.33" d="M10.2 21a7.2 7.2 0 1 0-6.498-4.095c.155.323.21.69.117 1.035l-.296 1.104a1.17 1.17 0 0 0 1.433 1.432l1.103-.295a1.5 1.5 0 0 1 1.036.116c.94.45 1.993.703 3.105.703Z"/><path stroke="#9A9A9A" stroke-width="1.33" d="M17.4 14.252q.09-.038.178-.078c.326-.149.692-.205 1.038-.112l.428.115a1.17 1.17 0 0 0 1.433-1.433l-.115-.428c-.093-.347-.037-.712.112-1.038A5.85 5.85 0 1 0 9.75 6.596"/><path fill="#9A9A9A" d="M7.95 13.8a.9.9 0 1 1-1.8 0 .9.9 0 0 1 1.8 0M11.1 13.8a.9.9 0 1 1-1.8 0 .9.9 0 0 1 1.8 0M14.25 13.8a.9.9 0 1 1-1.8 0 .9.9 0 0 1 1.8 0"/></svg>