<svg xmlns="http://www.w3.org/2000/svg" width="24" height="24" fill="none"><path fill="#0E0E0E" d="M18.6 9.332a.6.6 0 1 0-1.2 0zM18.614 12l-.5.33zm.985 1.493-.501.33zm-15.2 0-.5-.33zM5.385 12l-.501-.33zm12.864 5.142-.16-.578zm-12.498 0 .16-.578zM12 3.866a.6.6 0 1 0 0-1.2zM8.706 17.79a.6.6 0 1 0-1.125.416zm7.713.416a.6.6 0 1 0-1.125-.416zm3.116-14.161a.6.6 0 0 0-.848-.849zM16 6.733l-.424.424a.6.6 0 0 0 .848 0zM14.646 4.53a.6.6 0 1 0-.848.848zM17.4 9.332v.61h1.2v-.61zm.715 2.998.985 1.493 1.002-.66-.985-1.493zM4.901 13.823l.985-1.493-1.002-.66-.985 1.493zm1.7-3.88v-.61H5.4v.61zm11.488 6.62a22.9 22.9 0 0 1-12.178 0l-.32 1.158a24.1 24.1 0 0 0 12.817 0zM5.886 12.33A4.34 4.34 0 0 0 6.6 9.943H5.4a3.14 3.14 0 0 1-.517 1.727zm11.513-2.387c0 .849.249 1.68.715 2.387l1.002-.66a3.14 3.14 0 0 1-.517-1.727zm-13.5 3.22c-1.12 1.699-.27 4.016 1.693 4.558l.319-1.157c-1.165-.321-1.688-1.711-1.01-2.74zm15.2.66c.678 1.03.155 2.42-1.01 2.74l.32 1.158c1.962-.542 2.812-2.86 1.692-4.558zM12 2.666c-3.651 0-6.6 2.99-6.6 6.666h1.2c0-3.025 2.424-5.466 5.4-5.466zM7.58 18.208c.652 1.756 2.395 2.991 4.42 2.991v-1.2c-1.536 0-2.822-.935-3.294-2.208zM12 21.199c2.025 0 3.768-1.236 4.42-2.992l-1.126-.416c-.472 1.273-1.758 2.208-3.294 2.208zm6.687-18.002-3.111 3.111.848.849 3.111-3.111zm-2.263 3.111-1.777-1.777-.849.848 1.778 1.778z"/></svg>