<svg width="24" height="24" viewBox="0 0 24 24" fill="none" xmlns="http://www.w3.org/2000/svg">
<path d="M19.9469 14.1508V12.0508C19.9469 9.95078 19.1469 7.95078 17.6469 6.45078C16.1469 4.95078 14.1469 4.05078 12.0469 4.05078C9.84688 4.05078 7.84688 4.95078 6.44688 6.45078C4.94688 7.85078 4.04688 9.85078 4.04688 12.0508C4.04688 14.1508 4.84688 16.1508 6.34688 17.6508C7.84688 19.1508 9.84688 19.9508 12.0469 19.9508C12.2469 19.9508 12.3469 19.8508 12.4469 19.7508C12.5469 19.6508 12.6469 19.4508 12.6469 19.3508C12.6469 19.1508 12.5469 19.0508 12.4469 18.9508C12.3469 18.8508 12.1469 18.7508 12.0469 18.7508C10.7469 18.7508 9.44688 18.3508 8.34688 17.6508C7.24688 16.9508 6.34687 15.8508 5.84687 14.6508C5.34687 13.4508 5.14687 12.0508 5.44687 10.7508C5.74688 9.45078 6.34688 8.25078 7.24688 7.35078C8.14687 6.45078 9.34688 5.75078 10.6469 5.55078C11.9469 5.35078 13.3469 5.45078 14.5469 5.95078C15.7469 6.45078 16.8469 7.35078 17.5469 8.45078C18.2469 9.55078 18.6469 10.8508 18.6469 12.1508V14.2508C18.6469 14.6508 18.4469 15.0508 18.2469 15.3508C17.9469 15.6508 17.5469 15.7508 17.1469 15.7508C16.7469 15.7508 16.3469 15.5508 16.0469 15.3508C15.7469 15.0508 15.6469 14.6508 15.6469 14.2508V8.85078C15.6469 8.65078 15.5469 8.55078 15.4469 8.45078C15.3469 8.35078 15.1469 8.25078 15.0469 8.25078C14.8469 8.25078 14.7469 8.35078 14.6469 8.45078C14.5469 8.55078 14.4469 8.75078 14.4469 8.85078V9.25078L14.2469 9.05078C13.6469 8.55078 12.8469 8.25078 12.0469 8.25078C11.4469 8.25078 10.8469 8.35078 10.3469 8.65078C9.74688 8.95078 9.24688 9.35078 8.94688 9.85078C8.54688 10.3508 8.34688 10.9508 8.24688 11.5508C8.14688 12.1508 8.24688 12.7508 8.44688 13.3508C8.64687 13.9508 9.04688 14.4508 9.44688 14.8508C9.94688 15.2508 10.4469 15.5508 11.0469 15.6508C11.6469 15.7508 12.2469 15.7508 12.8469 15.6508C13.4469 15.5508 13.9469 15.2508 14.4469 14.8508L14.5469 14.7508L14.6469 14.9508C14.8469 15.5508 15.2469 16.1508 15.7469 16.4508C16.2469 16.7508 16.9469 16.9508 17.5469 16.8508C18.1469 16.7508 18.7469 16.4508 19.1469 15.9508C19.7469 15.3508 19.9469 14.7508 19.9469 14.1508ZM13.8469 13.8508C13.3469 14.3508 12.7469 14.5508 12.0469 14.5508C11.5469 14.5508 11.0469 14.4508 10.6469 14.1508C10.1469 13.8508 9.84687 13.4508 9.64687 12.9508C9.44688 12.4508 9.44688 11.9508 9.54688 11.4508C9.64687 10.9508 9.84688 10.5508 10.2469 10.1508C10.6469 9.75078 11.0469 9.55078 11.5469 9.45078C12.0469 9.35078 12.5469 9.45078 13.0469 9.55078C13.5469 9.75078 13.9469 10.0508 14.1469 10.4508C14.4469 10.8508 14.5469 11.3508 14.5469 11.8508C14.5469 12.6508 14.2469 13.3508 13.8469 13.8508Z" fill="#494949"/>
</svg>
