<svg xmlns="http://www.w3.org/2000/svg" width="24" height="24" fill="none"><path stroke="#0166FF" stroke-linejoin="round" stroke-width="1.2" d="M13.027 15.394v-1.068c0-.995 0-1.492.163-1.885a2.14 2.14 0 0 1 1.155-1.155c.393-.163.89-.163 1.885-.163h.534c1.5 0 2.25 0 2.788.36.233.156.433.356.589.59.36.538.36 1.287.36 2.787v.9c0 .873 0 1.31-.163 1.702-.162.392-.47.7-1.088 1.318l-.629.628a.775.775 0 0 1-1.323-.548v-.393a.94.94 0 0 0-.938-.938h-1.197a2.135 2.135 0 0 1-2.136-2.135ZM3.5 8.63V7.562c0-.995 0-1.492.163-1.884a2.13 2.13 0 0 1 1.155-1.156c.393-.163.89-.163 1.885-.163h.534c1.5 0 2.249 0 2.787.36.234.156.434.356.59.59.36.538.36 1.288.36 2.787v.9c0 .873 0 1.31-.163 1.702s-.471.7-1.088 1.318l-.629.629a.775.775 0 0 1-1.323-.549v-.393a.94.94 0 0 0-.939-.938H5.635A2.135 2.135 0 0 1 3.5 8.63Z"/></svg>