<svg xmlns="http://www.w3.org/2000/svg" width="24" height="24" fill="none"><path stroke="#9A9A9A" d="M4 7.429a3.429 3.429 0 0 1 6.857 0V9.4c0 .175 0 .357-.043.52a1.26 1.26 0 0 1-.893.894c-.164.044-.346.043-.521.043H7.429A3.43 3.43 0 0 1 4 7.429Z" clip-rule="evenodd"/><path stroke="#9A9A9A" d="M14.647 13.143H14.6c-.175 0-.357 0-.52.043a1.26 1.26 0 0 0-.894.893c-.044.164-.043.346-.043.521v1.972a3.429 3.429 0 1 0 3.428-3.429z"/><path stroke="#9A9A9A" d="M9.68 13.155c.153.012.321.04.488.126.237.12.43.314.552.551.084.167.113.335.125.489.012.143.012.313.012.5v1.75a3.429 3.429 0 1 1-3.428-3.428h1.75c.187 0 .357 0 .5.011ZM13.143 7.429a3.429 3.429 0 1 1 3.428 3.428H14.49c-.075 0-.153 0-.224-.008a1.26 1.26 0 0 1-1.114-1.114 2 2 0 0 1-.008-.224V7.429Z" clip-rule="evenodd"/></svg>