<svg width="25" height="24" viewBox="0 0 25 24" fill="none" xmlns="http://www.w3.org/2000/svg">
<path d="M21.5 18L3.5 18" stroke="#0166FF" stroke-width="1.2" stroke-linecap="round"/>
<path d="M21.5 14L3.5 14" stroke="#0166FF" stroke-width="1.2" stroke-linecap="round"/>
<path d="M21.5 6L16.5 6" stroke="#0166FF" stroke-width="1.2" stroke-linecap="round"/>
<path d="M21.5 10L16.5 10" stroke="#0166FF" stroke-width="1.2" stroke-linecap="round"/>
<path d="M12.444 9.21869C12.444 10.3118 11.5962 11 10.5804 11C9.36461 11 8.40447 10.0606 8.40447 8.60339C8.40447 6.55467 10.0042 5 11.804 5C12.2041 5 12.5 5.19416 12.5 5.56694C12.5 5.87442 12.2761 6.09311 11.9641 6.10935C10.804 6.15806 9.94827 6.91881 9.70047 8.06858C9.93223 7.69615 10.308 7.50164 10.7961 7.50164C11.7481 7.50164 12.444 8.18224 12.444 9.21869Z" fill="#0166FF"/>
<path d="M7.54775 9.21869C7.54775 10.3118 6.6999 11 5.68378 11C4.46799 11 3.5 10.0606 3.5 8.60339C3.5 6.55467 5.10012 5 6.89992 5C7.29995 5 7.60372 5.19416 7.60372 5.56694C7.60372 5.87442 7.37163 6.09311 7.06785 6.10935C5.90803 6.166 5.0438 6.91881 4.796 8.06858C5.0281 7.69615 5.41209 7.50164 5.89199 7.50164C6.84394 7.50164 7.54775 8.18224 7.54775 9.21869Z" fill="#0166FF"/>
</svg>
