<svg xmlns="http://www.w3.org/2000/svg" width="24" height="24" fill="none"><path fill="#494949" d="M7.85 8a.65.65 0 0 0-1.3 0zm-1.3 8a.65.65 0 1 0 1.3 0zm8.59-6.46a.65.65 0 1 0 .92.92zm2.12-.28a.65.65 0 1 0-.92-.92zm-7.32 5.48a.65.65 0 1 0 .92.92zm2.12-.28a.65.65 0 1 0-.92-.92zm-.92-4a.65.65 0 1 0 .92-.92zm-.28-2.12a.65.65 0 1 0-.92.92zm5.48 7.32a.65.65 0 1 0 .92-.92zm-.28-2.12a.65.65 0 1 0-.92.92zM12 19.35c-1.904 0-3.267-.001-4.302-.14-1.018-.137-1.622-.396-2.067-.841l-.92.919c.728.727 1.652 1.054 2.813 1.21 1.143.153 2.609.152 4.476.152zM3.35 12c0 1.867-.001 3.333.152 4.476.156 1.161.483 2.085 1.21 2.812l.92-.92c-.446-.444-.705-1.048-.841-2.065-.14-1.036-.141-2.399-.141-4.303zm16 0c0 1.904-.001 3.267-.14 4.302-.137 1.018-.396 1.622-.841 2.067l.919.919c.727-.727 1.054-1.651 1.21-2.812.153-1.143.152-2.609.152-4.476zM12 20.65c1.867 0 3.333.001 4.476-.152 1.161-.156 2.085-.483 2.812-1.21l-.92-.92c-.444.446-1.048.705-2.065.841-1.036.14-2.399.141-4.303.141zm0-16c1.904 0 3.267.001 4.302.14 1.018.137 1.622.396 2.067.841l.919-.92c-.727-.726-1.651-1.053-2.812-1.209C15.333 3.35 13.867 3.35 12 3.35zM20.65 12c0-1.867.001-3.333-.152-4.476-.156-1.161-.483-2.085-1.21-2.812l-.92.92c.446.444.705 1.048.841 2.066.14 1.035.141 2.398.141 4.302zM12 3.35c-1.867 0-3.333-.001-4.476.152-1.161.156-2.085.483-2.812 1.21l.92.92c.444-.446 1.048-.705 2.066-.841C8.733 4.65 10.096 4.65 12 4.65zM4.65 12c0-1.904.001-3.267.14-4.302.137-1.018.396-1.622.841-2.067l-.92-.92c-.726.728-1.053 1.652-1.209 2.813C3.35 8.667 3.35 10.133 3.35 12zm1.9-4v8h1.3V8zm7.05 5.75A1.75 1.75 0 0 1 11.85 12h-1.3a3.05 3.05 0 0 0 3.05 3.05zM15.35 12a1.75 1.75 0 0 1-1.75 1.75v1.3A3.05 3.05 0 0 0 16.65 12zm-1.75-1.75c.966 0 1.75.784 1.75 1.75h1.3a3.05 3.05 0 0 0-3.05-3.05zm0-1.3A3.05 3.05 0 0 0 10.55 12h1.3c0-.966.784-1.75 1.75-1.75zm2.46 1.51 1.2-1.2-.92-.92-1.2 1.2zm-5.2 5.2 1.2-1.2-.92-.92-1.2 1.2zm1.2-6.12-1.2-1.2-.92.92 1.2 1.2zm5.2 5.2-1.2-1.2-.92.92 1.2 1.2z"/></svg>