<svg xmlns="http://www.w3.org/2000/svg" width="36" height="36" fill="none"><path fill="#fff" fill-rule="evenodd" d="M8 15.605v4.802c0 4.528 0 6.792 1.464 8.199 1.133 1.087 2.798 1.334 5.674 1.39.32.006.479.01.618-.019a1.24 1.24 0 0 0 .962-.905c.032-.133.032-.292.032-.608 0-1.91 0-2.865.187-3.655.64-2.7 2.836-4.808 5.647-5.424.823-.18 1.818-.18 3.808-.18.333 0 .499 0 .636-.03.468-.102.834-.453.94-.903.032-.132.032-.291.032-.61v-2.057c0-4.528 0-6.792-1.465-8.198C25.072 6 22.714 6 18 6s-7.071 0-8.536 1.407C8 8.813 8 11.077 8 15.605M14 8.5a.5.5 0 0 0 0 1h8a.5.5 0 0 0 0-1z" clip-rule="evenodd"/><path fill="#fff" fill-rule="evenodd" d="M23.803 22.04a.5.5 0 0 1 .394 0l3.197 1.37a1 1 0 0 1 .606.92v3.43a3.5 3.5 0 0 1-1.764 3.039l-1.988 1.136a.5.5 0 0 1-.496 0l-1.988-1.136A3.5 3.5 0 0 1 20 27.759V24.33a1 1 0 0 1 .606-.919zm2.05 4.314a.5.5 0 0 0-.707-.707L23.5 27.293l-.646-.646a.5.5 0 0 0-.707.707l1 1a.5.5 0 0 0 .707 0z" clip-rule="evenodd"/></svg>