<svg xmlns="http://www.w3.org/2000/svg" width="24" height="24" fill="none"><path stroke="#0166FF" stroke-width="1.2" d="M4 12c0-3.771 0-5.657 1.172-6.828S8.229 4 12 4s5.657 0 6.828 1.172S20 8.229 20 12s0 5.657-1.172 6.828S15.771 20 12 20s-5.657 0-6.828-1.172S4 15.771 4 12Z"/><path stroke="#0166FF" stroke-linecap="round" stroke-linejoin="round" stroke-width="1.2" d="M13.3 9.1h3.5a.5.5 0 0 1 .5.5v1.9a.5.5 0 0 1-.5.5h-3a.5.5 0 0 0-.5.5v2.1c0 .11.089.2.2.2h3.8M6.7 9v3m0 0v3m0-3h4m0 0V9m0 3v3"/></svg>