<svg xmlns="http://www.w3.org/2000/svg" width="24" height="24" fill="none"><path fill="#727689" fill-rule="evenodd" d="M6.72 6.419a4.419 4.419 0 1 1 8.838 0 4.419 4.419 0 0 1-8.837 0m4.42-3.024a3.023 3.023 0 1 0 0 6.047 3.023 3.023 0 0 0 0-6.047M5.535 13.549c1.47-.827 3.452-1.316 5.605-1.316 2.152 0 4.135.489 5.604 1.316 1.447.814 2.535 2.048 2.535 3.567v.095c.001 1.081.003 2.438-1.187 3.407-.586.476-1.405.815-2.512 1.04-1.11.224-2.556.342-4.44.342s-3.331-.118-4.441-.343c-1.107-.224-1.926-.563-2.512-1.04C2.997 19.65 3 18.293 3 17.212v-.095c0-1.52 1.088-2.753 2.535-3.567m.684 1.216c-1.246.7-1.824 1.56-1.824 2.351 0 1.217.038 1.902.674 2.42.344.28.92.554 1.907.754.983.199 2.327.315 4.164.315s3.18-.116 4.163-.315c.987-.2 1.563-.474 1.908-.755.635-.517.673-1.202.673-2.419 0-.791-.578-1.65-1.824-2.351-1.224-.689-2.962-1.137-4.92-1.137s-3.696.448-4.92 1.137M17.363 7.765c.67-.297 1.449-.24 2.149.216.7-.456 1.478-.513 2.148-.216A2.28 2.28 0 0 1 23 9.861c0 .882-.385 1.546-.847 2.05-.36.392-.806.724-1.158.986l-.212.159-.002.001a5 5 0 0 1-.506.35c-.19.107-.452.221-.763.221s-.574-.114-.764-.222a5 5 0 0 1-.506-.349l-.002-.001-.211-.159c-.352-.262-.798-.594-1.159-.987-.461-.503-.847-1.167-.847-2.05 0-.93.545-1.743 1.34-2.095m.056 2.096a.89.89 0 0 1 .509-.82c.247-.11.642-.12 1.089.33a.7.7 0 0 0 .99 0c.447-.45.84-.44 1.089-.33a.89.89 0 0 1 .509.82c0 .431-.176.774-.48 1.106-.263.286-.576.52-.922.778l-.267.202a3 3 0 0 1-.348.245 1 1 0 0 1-.076.037 1 1 0 0 1-.077-.037 3 3 0 0 1-.348-.245q-.136-.104-.267-.201c-.346-.259-.659-.493-.921-.779-.305-.332-.48-.675-.48-1.106" clip-rule="evenodd"/></svg>