<svg xmlns="http://www.w3.org/2000/svg" width="24" height="24" fill="none"><path fill="#494949" d="M12.625 7.998a.625.625 0 1 0-1.25 0zm-.625 8-.442.442c.244.244.64.244.884 0zm2.842-1.958a.625.625 0 0 0-.884-.884zm-4.8-.884a.625.625 0 1 0-.884.884zm-4.87 5.67-.443.442zm0-13.656-.443-.442zm13.656 0-.442.442zm0 13.657-.442-.442zM11.375 7.998v8h1.25v-8zm1.067 8.442 2.4-2.4-.884-.884-2.4 2.4zm0-.884-2.4-2.4-.884.884 2.4 2.4zM12 19.373c-1.903 0-3.268-.001-4.306-.14-1.02-.138-1.63-.398-2.081-.848l-.884.884c.722.72 1.64 1.046 2.799 1.202 1.14.153 2.604.152 4.472.152zm-6.387-.988c-.45-.45-.71-1.062-.847-2.081-.14-1.038-.141-2.403-.141-4.306h-1.25c0 1.868-.001 3.332.152 4.472.156 1.159.481 2.077 1.202 2.799zm-.988-6.387c0-1.903.001-3.268.14-4.306.138-1.02.398-1.63.848-2.08l-.884-.884c-.72.721-1.046 1.64-1.202 2.798-.153 1.14-.152 2.604-.152 4.472zm.988-6.386c.451-.45 1.062-.71 2.082-.848 1.037-.14 2.402-.141 4.305-.141v-1.25c-1.868 0-3.332-.001-4.472.152-1.159.156-2.077.482-2.799 1.203zM12 4.623c1.903 0 3.268.001 4.306.141 1.02.137 1.63.397 2.08.848l.884-.884c-.721-.721-1.64-1.047-2.798-1.203-1.14-.153-2.604-.152-4.472-.152zm6.386.99c.45.449.71 1.059.848 2.079.14 1.038.141 2.403.141 4.306h1.25c0-1.868.001-3.332-.152-4.473-.156-1.158-.482-2.076-1.203-2.797zm.989 6.385c0 1.903-.001 3.268-.14 4.306-.138 1.02-.398 1.63-.849 2.08l.884.885c.721-.722 1.047-1.64 1.203-2.798.153-1.141.152-2.605.152-4.473zm-.99 6.387c-.449.45-1.059.71-2.079.847-1.038.14-2.403.141-4.306.141v1.25c1.868 0 3.332.001 4.473-.152 1.158-.156 2.076-.481 2.797-1.202z"/></svg>