<svg xmlns="http://www.w3.org/2000/svg" width="40" height="40" fill="none"><path fill="#fff" d="m9.3 30.714.537-.843zm-1.635-1.56.819-.574zm24.669 0-.82-.574zm-1.635 1.56-.538-.843zm1.635-16.33-.82.573zm-1.635-1.561-.538.843zm-23.034 1.56.819.574zm1.635-1.56.537.843zm5.81-2.368.98.205zm-1.807 1.458v-1h-.042zm11.585-1.458.979-.205zm1.807 1.458.043-1h-.043zm2.638 6.495a1 1 0 0 0 0-2zm-1.334-2a1 1 0 0 0 0 2zm-5 4.889c0 1.57-1.316 2.889-3 2.889v2c2.735 0 5-2.163 5-4.89zm-3 2.889c-1.683 0-3-1.32-3-2.89h-2c0 2.727 2.266 4.89 5 4.89zm-3-2.89c0-1.568 1.317-2.888 3-2.888v-2c-2.734 0-5 2.162-5 4.889zm3-2.888c1.684 0 3 1.32 3 2.889h2c0-2.727-2.265-4.889-5-4.889zm2.963 12.26h-5.926v2h5.926zm-5.926 0c-2.1 0-3.604-.002-4.771-.115-1.154-.112-1.87-.326-2.428-.682l-1.075 1.686c.936.597 2.008.86 3.31.987 1.286.124 2.904.123 4.964.123zm-11.37-8.9c0 1.965-.001 3.517.13 4.753.134 1.256.414 2.298 1.05 3.206l1.638-1.147c-.364-.52-.583-1.184-.699-2.27-.118-1.107-.119-2.534-.119-4.542zm4.171 8.103a4.8 4.8 0 0 1-1.353-1.291l-1.639 1.147a6.8 6.8 0 0 0 1.917 1.83zm22.496-8.103c0 2.008-.002 3.435-.12 4.541-.115 1.087-.335 1.752-.698 2.27l1.638 1.148c.635-.908.915-1.95 1.05-3.206.131-1.236.13-2.788.13-4.753zm-9.37 10.9c2.06 0 3.678 0 4.964-.124 1.302-.127 2.374-.39 3.31-.987l-1.076-1.686c-.558.356-1.274.57-2.427.682-1.168.113-2.671.114-4.772.114zm8.552-4.088a4.8 4.8 0 0 1-1.354 1.29l1.076 1.687a6.8 6.8 0 0 0 1.916-1.83zm2.818-6.812c0-1.964.001-3.516-.13-4.753-.135-1.256-.415-2.298-1.05-3.205l-1.638 1.147c.363.519.583 1.183.699 2.27.117 1.106.119 2.533.119 4.541zm-4.172-8.102c.539.343.998.782 1.354 1.29l1.638-1.146a6.8 6.8 0 0 0-1.916-1.83zM7.666 21.768c0-2.008.001-3.435.12-4.54.115-1.088.334-1.752.698-2.271L6.845 13.81c-.635.907-.915 1.95-1.049 3.205-.131 1.237-.13 2.789-.13 4.753zm1.096-9.788a6.8 6.8 0 0 0-1.917 1.83l1.639 1.147a4.8 4.8 0 0 1 1.353-1.291zm9.06-2.646h4.356v-2H17.82zm-3.69.916a.86.86 0 0 1-.829.663v2a2.86 2.86 0 0 0 2.786-2.253zm9.778.41a2.86 2.86 0 0 0 2.785 2.253v-2c-.4 0-.752-.3-.828-.663zm-1.732-1.326c.875 0 1.576.586 1.732 1.326l1.957-.41c-.362-1.727-1.93-2.916-3.69-2.916zm-4.357-2c-1.76 0-3.328 1.19-3.69 2.916l1.958.41c.155-.74.856-1.326 1.732-1.326zm8.832 5.578c1.813.077 2.785.292 3.508.754l1.076-1.687c-1.197-.763-2.63-.986-4.5-1.065zM13.26 10.914c-1.87.08-3.302.302-4.5 1.066l1.076 1.686c.724-.462 1.696-.677 3.509-.754zm16.072 5.494h-1.334v2h1.334z"/></svg>