<svg xmlns="http://www.w3.org/2000/svg" width="36" height="36" fill="none"><path fill="#fff" d="M9.352 18.504a.953.953 0 0 0-.953-.952H5.737a.953.953 0 1 0 0 1.905h2.662a.953.953 0 0 0 .953-.953"/><path fill="#fff" fill-rule="evenodd" d="M21.208 4.5a5.777 5.777 0 1 1 0 11.554 5.777 5.777 0 0 1 0-11.554M21.206 17.884c2.814 0 5.406.64 7.327 1.72 1.892 1.064 3.314 2.677 3.314 4.665v.123c.002 1.413.004 3.187-1.552 4.454-.766.623-1.836 1.066-3.283 1.36-1.451.293-3.342.447-5.806.447s-4.355-.154-5.806-.448c-1.447-.293-2.518-.736-3.283-1.36-1.556-1.266-1.554-3.04-1.553-4.453v-.123c0-1.988 1.422-3.6 3.315-4.665 1.92-1.08 4.513-1.72 7.327-1.72" clip-rule="evenodd"/><path fill="#fff" d="M7.548 25.99c-2.002-.01-3.81-.497-5.126-1.669-1.34-1.194-2.024-2.968-2.024-5.244v-2.415c0-2.275.683-4.05 2.024-5.243 1.329-1.184 3.16-1.669 5.184-1.669h4.742v1.803H7.606c-1.736 0-3.04.417-3.904 1.187-.853.759-1.423 1.99-1.423 3.922v2.415c0 1.932.57 3.164 1.423 3.923.855.761 2.139 1.177 3.846 1.186z"/><path fill="#fff" d="M6.645 25.088a.9.9 0 1 0 1.8 0 .9.9 0 0 0-1.8 0M11.5 10.65a.9.9 0 1 0 1.8 0 .9.9 0 0 0-1.8 0"/><path fill="#fff" d="M12.772 10.5c.389-.354.355-.358.001-.747L9.971 6.924a.953.953 0 0 0-1.41 1.283L10.97 10.5c.354.39 1.412.354 1.802 0"/><path fill="#fff" d="M12.994 10.536c.39.354.148-.035-.002.805l-2.798 2.77a.953.953 0 1 1-1.41-1.282l2.408-2.294c.354-.389 1.413-.353 1.802.001"/></svg>