<svg xmlns="http://www.w3.org/2000/svg" width="24" height="24" fill="none"><path fill="#494949" fill-rule="evenodd" d="M15.887 4.65A1.846 1.846 0 0 0 14.051 3H9.95c-.953 0-1.738.722-1.836 1.65-.626.012-1.168.045-1.63.13-.622.114-1.151.332-1.582.762-.494.494-.706 1.116-.805 1.855C4 8.107 4 9.012 4 10.134v5.014c0 1.122 0 2.026.096 2.738.099.738.311 1.36.805 1.854s1.116.706 1.854.805c.712.096 1.616.096 2.738.096h5.014c1.122 0 2.026 0 2.737-.096.74-.099 1.36-.311 1.855-.805s.706-1.116.805-1.854C20 17.174 20 16.27 20 15.148v-5.014c0-1.122 0-2.026-.096-2.737-.099-.739-.311-1.36-.805-1.855-.43-.43-.96-.648-1.582-.762-.462-.085-1.004-.118-1.63-.13m-.002 1.23c.59.013 1.043.043 1.41.11.465.086.734.223.933.423.228.227.376.545.457 1.148.083.62.084 1.44.084 2.619v4.923c0 1.177-.001 1.999-.084 2.619-.081.602-.23.92-.456 1.147-.228.228-.546.376-1.148.457-.62.083-1.442.084-2.62.084H9.539c-1.177 0-1.999-.001-2.619-.084-.602-.081-.92-.23-1.148-.457s-.375-.545-.456-1.147c-.083-.62-.084-1.442-.084-2.62V10.18c0-1.178.001-2 .084-2.62.081-.602.23-.92.456-1.147.2-.2.47-.337.934-.423.367-.067.82-.097 1.41-.11a1.846 1.846 0 0 0 1.834 1.633h4.102c.947 0 1.728-.714 1.834-1.632m-1.834-1.65c.34 0 .616.276.616.616v.82c0 .34-.276.616-.616.616H9.95a.615.615 0 0 1-.616-.615v-.82c0-.34.276-.616.616-.616zm2.667 6.36a.615.615 0 0 0-.615-.616H7.897a.615.615 0 0 0 0 1.231h8.206c.34 0 .615-.275.615-.615m-.82 2.871a.615.615 0 0 0-.616-.615H8.718a.615.615 0 1 0 0 1.23h6.564c.34 0 .615-.275.615-.615m-.821 2.872a.615.615 0 0 0-.616-.615H9.539a.615.615 0 0 0 0 1.23h4.923c.34 0 .616-.275.616-.615" clip-rule="evenodd"/></svg>