<svg xmlns="http://www.w3.org/2000/svg" width="16" height="16" fill="none"><path fill="#727689" d="m13.229 3.263.415-.433zm.978.938h.6a.6.6 0 0 1-.6.6zm-2.443.6a.6.6 0 1 1 0-1.2zm1.843-3.097a.6.6 0 1 1 1.2 0zm.514 8.643a.6.6 0 0 1 1.094.492zM2.98 2.877C5.938.042 10.707.013 13.644 2.83l-.83.866c-2.466-2.364-6.502-2.35-9.003.047zm10.614 10.247c-2.957 2.835-7.726 2.864-10.664.047l.83-.866c2.466 2.364 6.503 2.35 9.003-.047zm-10.664.047C-.02 10.341.01 5.726 2.981 2.877l.83.866c-2.487 2.385-2.5 6.212-.05 8.562zM13.644 2.83l.979.938-.831.866-.978-.938zm.563 1.971h-2.443v-1.2h2.443zm-.6-.6V1.704h1.2v2.497zm1.608 6.639a7.3 7.3 0 0 1-1.62 2.284l-.83-.866a6.1 6.1 0 0 0 1.356-1.911z"/></svg>