<svg xmlns="http://www.w3.org/2000/svg" width="24" height="24" fill="none"><path fill="#494949" d="M7.569 12.336a.635.635 0 0 0-.635-.635H5.159a.635.635 0 1 0 0 1.27h1.775c.35 0 .635-.284.635-.635"/><path fill="#494949" fill-rule="evenodd" d="M15.472 3a3.851 3.851 0 1 1 0 7.702 3.851 3.851 0 0 1 0-7.702m2.635 3.851a2.635 2.635 0 1 0-5.27 0 2.635 2.635 0 0 0 5.27 0M15.471 11.922c1.876 0 3.604.427 4.885 1.147 1.261.71 2.21 1.785 2.21 3.11v.083c0 .942.002 2.124-1.035 2.968-.51.416-1.225.712-2.19.907-.967.196-2.227.299-3.87.299-1.642 0-2.903-.103-3.87-.3-.965-.194-1.679-.49-2.19-.906-1.036-.844-1.035-2.026-1.034-2.968v-.083c0-1.325.948-2.4 2.21-3.11 1.28-.72 3.008-1.147 4.884-1.147m5.878 4.257c0-.69-.503-1.44-1.59-2.05-1.066-.6-2.581-.99-4.288-.99-1.706 0-3.221.39-4.288.99-1.086.61-1.59 1.36-1.59 2.05 0 1.06.033 1.657.587 2.108.3.245.802.484 1.662.658.857.173 2.028.274 3.63.274 1.6 0 2.772-.1 3.629-.274.86-.174 1.361-.413 1.662-.658.554-.45.586-1.048.586-2.108" clip-rule="evenodd"/><path fill="#494949" d="M6.366 17.326c-1.334-.006-2.54-.33-3.417-1.112-.894-.796-1.35-1.979-1.35-3.496v-1.61c0-1.517.456-2.7 1.35-3.496C3.835 6.823 5.055 6.5 6.405 6.5h3.16v1.202h-3.16c-1.158 0-2.027.278-2.603.791-.568.506-.949 1.327-.949 2.615v1.61c0 1.288.38 2.11.949 2.615.57.508 1.426.785 2.564.791z"/><path fill="#494949" d="M5.764 16.725a.6.6 0 1 0 1.2 0 .6.6 0 0 0-1.2 0M9 7.1a.6.6 0 1 0 1.2 0 .6.6 0 0 0-1.2 0"/><path fill="#494949" d="M9.848 7c.26-.236.238-.239.002-.498L7.98 4.616a.635.635 0 0 0-.94.855l1.606 1.53c.236.259.942.235 1.201-.001"/><path fill="#494949" d="M9.997 7.024c.26.236.098-.024-.002.537L8.13 9.408a.635.635 0 0 1-.94-.855l1.605-1.53c.236-.259.942-.235 1.202.001"/></svg>