<svg xmlns="http://www.w3.org/2000/svg" width="36" height="36" fill="none"><path fill="#fff" d="M25 23.995a5.25 5.25 0 1 1 3.75.288v.217l1.719 1.72a.75.75 0 0 1 0 1.061l-1.72 1.72 1.742 1.74a.75.75 0 0 1 .023 1.039l-2.735 2.976a.75.75 0 0 1-1.083.022l-1.477-1.476a.75.75 0 0 1-.22-.53zm3.75-5.495a1.5 1.5 0 1 0-3 0 1.5 1.5 0 0 0 3 0m-5.25 6.363v5.535c-2.04 1.071-4.547 1.605-7.5 1.605-5.13 0-8.916-1.61-11.23-4.855a4.13 4.13 0 0 1-.764-2.394v-1.38a3.375 3.375 0 0 1 3.373-3.375h13.163a6.75 6.75 0 0 0 2.958 4.864M16 2.008a7.5 7.5 0 1 1 0 15 7.5 7.5 0 0 1 0-15"/></svg>