<svg xmlns="http://www.w3.org/2000/svg" width="24" height="24" fill="none"><path stroke="#0166FF" stroke-width="1.086" d="M16.572 22q-1.878 0-3.2-1.323-1.323-1.324-1.324-3.2 0-1.877 1.323-3.2 1.326-1.324 3.2-1.324 1.876 0 3.202 1.324 1.325 1.323 1.323 3.2-.003 1.876-1.324 3.201-1.32 1.324-3.2 1.323Z"/><path fill="#0166FF" d="m15.059 17.47 1.124 1.124v-2.792q0-.155.117-.272a.37.37 0 0 1 .543 0 .37.37 0 0 1 .116.272v2.792l1.125-1.125a.37.37 0 0 1 .543 0 .37.37 0 0 1 0 .543l-1.513 1.513a.66.66 0 0 1-.252.165.9.9 0 0 1-.582 0 .7.7 0 0 1-.252-.165l-1.512-1.513a.37.37 0 0 1 0-.543.37.37 0 0 1 .543 0"/><path stroke="#0166FF" stroke-linecap="round" stroke-linejoin="round" stroke-width="1.086" d="m9.333 18.381-5.429-3.167V7.071m0 0 7.238 4.072 7.239-4.072m-14.477 0L11.142 3l7.239 4.071m0 0v3.167"/></svg>