<svg xmlns="http://www.w3.org/2000/svg" width="24" height="24" fill="none"><mask id="a" fill="#fff"><path fill-rule="evenodd" d="M7.543 19.993c.786.07 1.747.07 2.915.07h.042a.563.563 0 0 0 0-1.125c-.73 0-1.351 0-1.888-.015zm2.571-2.571q.082-.007.159-.017c.267-.036.548-.12.78-.352s.316-.514.352-.78q.01-.076.017-.159zm-2.228-4.844-1.307 1.308q.006-.083.016-.159c.036-.267.12-.548.352-.78s.513-.316.78-.352a3 3 0 0 1 .159-.017m3.552-3.551v-.436c0-.324 0-.622-.033-.864-.036-.267-.12-.548-.352-.78s-.514-.316-.78-.352a7 7 0 0 0-.864-.032h-.073c-.498 0-.927 0-1.27.046-.37.05-.723.161-1.01.448-.286.286-.398.64-.447 1.009-.047.344-.047.773-.046 1.272v.07c0 .325 0 .623.032.865.036.267.12.548.352.78s.513.316.78.352c.242.033.54.033.864.033h.436l1.158-1.158-.062.01c-.158.021-.379.023-.748.023h-.75c-.37 0-.59-.002-.748-.023a.5.5 0 0 1-.125-.028l-.008-.003-.002-.001v-.002l-.004-.008a.5.5 0 0 1-.028-.125c-.021-.158-.022-.379-.022-.748 0-.546 0-.9.036-1.16.032-.243.085-.32.128-.363s.12-.096.364-.128c.26-.035.613-.037 1.159-.037.37 0 .59.002.748.023a.5.5 0 0 1 .133.031l.002.001v.002l.004.008a.5.5 0 0 1 .028.125c.021.158.023.379.023.748v.75c0 .37-.002.59-.023.748l-.01.062zm1.124 5.946v.436c0 .324 0 .622.033.864.036.267.12.548.352.78s.514.316.78.352c.242.033.54.032.864.032h.071c.499 0 .928 0 1.272-.046.37-.05.723-.161 1.01-.448.286-.286.398-.64.447-1.009.047-.343.047-.772.047-1.27v-.072c0-.325 0-.623-.033-.865-.036-.267-.12-.548-.352-.78s-.514-.316-.78-.352a7 7 0 0 0-.864-.033h-.436l-1.158 1.158.062-.01c.158-.021.378-.023.748-.023h.75c.37 0 .59.002.748.023a.5.5 0 0 1 .133.031l.002.001v.002l.004.008a.5.5 0 0 1 .028.125c.021.158.023.378.023.748 0 .546-.002.9-.037 1.16-.032.244-.085.32-.128.363s-.12.096-.364.128c-.26.035-.613.037-1.159.037-.37 0-.59-.002-.748-.023a.5.5 0 0 1-.125-.028l-.004-.001-.004-.002-.002-.001v-.002l-.004-.008a.5.5 0 0 1-.028-.125c-.021-.158-.023-.379-.023-.748v-.75c0-.37.002-.59.023-.748l.01-.062zm3.552-3.552 1.308-1.307q-.007.082-.017.159c-.036.267-.12.548-.352.78s-.514.316-.78.352q-.076.01-.159.017M13.886 6.58l-1.307 1.307a3 3 0 0 1 .016-.159c.036-.267.12-.548.352-.78s.514-.316.78-.352q.076-.01.159-.016m5.037 2.033c.014.537.015 1.159.015 1.888a.563.563 0 0 0 1.125 0v-.042c0-1.168 0-2.13-.07-2.915zm-2.466-4.605-1.07 1.07a76 76 0 0 0-1.887-.014.562.562 0 1 1 0-1.125h.042c1.168 0 2.13 0 2.915.07m-11.38 11.38-1.07 1.07c-.07-.786-.07-1.748-.07-2.915V13.5a.562.562 0 1 1 1.126 0c0 .73 0 1.351.014 1.888m8.423 3.55c1.43 0 2.446 0 3.217-.104.754-.102 1.19-.292 1.507-.61.317-.317.507-.752.609-1.506.103-.77.105-1.787.105-3.217a.562.562 0 1 1 1.125 0v.042c0 1.379 0 2.47-.115 3.325-.119.88-.368 1.59-.929 2.152-.561.561-1.273.81-2.152.929-.855.114-1.946.114-3.325.114H13.5a.562.562 0 1 1 0-1.125M5.063 10.5a.563.563 0 0 1-1.125 0v-.042c0-1.379 0-2.47.114-3.325.119-.88.368-1.59.929-2.152.561-.561 1.273-.81 2.152-.929.855-.114 1.946-.114 3.325-.114h.042a.563.563 0 0 1 0 1.124c-1.43 0-2.446.002-3.217.105-.754.102-1.19.292-1.507.61-.317.317-.507.752-.609 1.506-.103.77-.104 1.787-.104 3.217" clip-rule="evenodd"/></mask><path fill="#B8BCCA" fill-rule="evenodd" d="M7.543 19.993c.786.07 1.747.07 2.915.07h.042a.563.563 0 0 0 0-1.125c-.73 0-1.351 0-1.888-.015zm2.571-2.571q.082-.007.159-.017c.267-.036.548-.12.78-.352s.316-.514.352-.78q.01-.076.017-.159zm-2.228-4.844-1.307 1.308q.006-.083.016-.159c.036-.267.12-.548.352-.78s.513-.316.78-.352a3 3 0 0 1 .159-.017m3.552-3.551v-.436c0-.324 0-.622-.033-.864-.036-.267-.12-.548-.352-.78s-.514-.316-.78-.352a7 7 0 0 0-.864-.032h-.073c-.498 0-.927 0-1.27.046-.37.05-.723.161-1.01.448-.286.286-.398.64-.447 1.009-.047.344-.047.773-.046 1.272v.07c0 .325 0 .623.032.865.036.267.12.548.352.78s.513.316.78.352c.242.033.54.033.864.033h.436l1.158-1.158-.062.01c-.158.021-.379.023-.748.023h-.75c-.37 0-.59-.002-.748-.023a.5.5 0 0 1-.125-.028l-.008-.003-.002-.001v-.002l-.004-.008a.5.5 0 0 1-.028-.125c-.021-.158-.022-.379-.022-.748 0-.546 0-.9.036-1.16.032-.243.085-.32.128-.363s.12-.096.364-.128c.26-.035.613-.037 1.159-.037.37 0 .59.002.748.023a.5.5 0 0 1 .133.031l.002.001v.002l.004.008a.5.5 0 0 1 .028.125c.021.158.023.379.023.748v.75c0 .37-.002.59-.023.748l-.01.062zm1.124 5.946v.436c0 .324 0 .622.033.864.036.267.12.548.352.78s.514.316.78.352c.242.033.54.032.864.032h.071c.499 0 .928 0 1.272-.046.37-.05.723-.161 1.01-.448.286-.286.398-.64.447-1.009.047-.343.047-.772.047-1.27v-.072c0-.325 0-.623-.033-.865-.036-.267-.12-.548-.352-.78s-.514-.316-.78-.352a7 7 0 0 0-.864-.033h-.436l-1.158 1.158.062-.01c.158-.021.378-.023.748-.023h.75c.37 0 .59.002.748.023a.5.5 0 0 1 .133.031l.002.001v.002l.004.008a.5.5 0 0 1 .028.125c.021.158.023.378.023.748 0 .546-.002.9-.037 1.16-.032.244-.085.32-.128.363s-.12.096-.364.128c-.26.035-.613.037-1.159.037-.37 0-.59-.002-.748-.023a.5.5 0 0 1-.125-.028l-.004-.001-.004-.002-.002-.001v-.002l-.004-.008a.5.5 0 0 1-.028-.125c-.021-.158-.023-.379-.023-.748v-.75c0-.37.002-.59.023-.748l.01-.062zm3.552-3.552 1.308-1.307q-.007.082-.017.159c-.036.267-.12.548-.352.78s-.514.316-.78.352q-.076.01-.159.017M13.886 6.58l-1.307 1.307a3 3 0 0 1 .016-.159c.036-.267.12-.548.352-.78s.514-.316.78-.352q.076-.01.159-.016m5.037 2.033c.014.537.015 1.159.015 1.888a.563.563 0 0 0 1.125 0v-.042c0-1.168 0-2.13-.07-2.915zm-2.466-4.605-1.07 1.07a76 76 0 0 0-1.887-.014.562.562 0 1 1 0-1.125h.042c1.168 0 2.13 0 2.915.07m-11.38 11.38-1.07 1.07c-.07-.786-.07-1.748-.07-2.915V13.5a.562.562 0 1 1 1.126 0c0 .73 0 1.351.014 1.888m8.423 3.55c1.43 0 2.446 0 3.217-.104.754-.102 1.19-.292 1.507-.61.317-.317.507-.752.609-1.506.103-.77.105-1.787.105-3.217a.562.562 0 1 1 1.125 0v.042c0 1.379 0 2.47-.115 3.325-.119.88-.368 1.59-.929 2.152-.561.561-1.273.81-2.152.929-.855.114-1.946.114-3.325.114H13.5a.562.562 0 1 1 0-1.125M5.063 10.5a.563.563 0 0 1-1.125 0v-.042c0-1.379 0-2.47.114-3.325.119-.88.368-1.59.929-2.152.561-.561 1.273-.81 2.152-.929.855-.114 1.946-.114 3.325-.114h.042a.563.563 0 0 1 0 1.124c-1.43 0-2.446.002-3.217.105-.754.102-1.19.292-1.507.61-.317.317-.507.752-.609 1.506-.103.77-.104 1.787-.104 3.217" clip-rule="evenodd"/><path fill="#B8BCCA" d="m7.543 19.993-.53-.53-1.136 1.135 1.6.142zm2.915.07v-.75zm-1.846-1.14.02-.75-.322-.008-.228.228zm1.502-1.501-.53-.53-1.434 1.433 2.022-.156zm.159-.017-.1-.743zm.78-.352-.53-.53zm.352-.78.743.1zm.017-.159.747.058.156-2.022-1.434 1.434zm-4.843-2.228-.748-.058-.156 2.022 1.434-1.434zm1.307-1.307.53.53 1.434-1.434-2.022.156zm-1.291 1.148.743.1zm.352-.78.53.53zm.78-.352-.1-.743zm3.71-3.568.53.53.22-.22v-.31zm0-.436h-.75zm-.032-.864.743-.1zm-.352-.78-.53.53zm-.78-.352.1-.743zm-.864-.032v.75zm-.073 0v.75zm-1.27.046.1.743zm-1.01.448-.53-.53zM6.61 8.066l.743.1zm-.046 1.272h.75zm0 .07h.75zm.032.865.743-.1zm.352.78.53-.53zm.78.352-.1.743zm.864.033v-.75zm.436 0v.75h.31l.22-.22zm1.158-1.158.53.53 1.764-1.764-2.444.499zm-.062.01.1.743zm-2.246 0-.1.743zm-.125-.028.286-.693-.01-.004zm-.008-.003-.353.661.01.005zm-.002-.001-.656.362.107.194.196.105zm0-.002-.67.338.006.012.007.012zm-.004-.008.695-.282-.002-.004zm-.028-.125-.743.1zm.014-1.907-.744-.1zm.128-.364-.53-.53zm.364-.128-.1-.744zm1.907-.014.1-.743zm.125.028-.286.693.01.004zm.008.003.354-.66-.011-.007zm.002.001.656-.362-.107-.194-.196-.105zm0 .002.67-.338-.006-.012-.007-.012zm.004.008-.695.282.002.004zm.028.125.743-.1zm0 2.246.743.1zm-.01.062-.735-.15-.498 2.443 1.763-1.763zm2.283 4.788-.53-.53-.22.22v.31zm0 .436h.75zm.032.864-.743.1zm.352.78.53-.53zm.78.352.1-.743zm.864.032v-.75zm.071 0v-.75zm1.272-.046-.1-.743zm1.01-.448.53.53zm.447-1.009-.743-.1zm.047-1.343h-.75zm-.033-.864.743-.1zm-.352-.78-.53.53zm-.78-.352.1-.743zm-.864-.033v.75zm-.436 0v-.75h-.31l-.22.22zm-1.158 1.158-.53-.53-1.763 1.763 2.443-.498zm.062-.01-.1-.743zm2.246 0 .1-.743zm.125.028-.286.693.004.002zm.008.003.362-.656-.012-.007-.012-.006zm.002.001.66-.354-.104-.195-.194-.107zm0 .002.668-.343-.006-.01zm.004.008-.697.277.004.01zm.028.125.743-.1zm-.014 1.907.744.1zm-.128.364-.53-.53zm-.364.128.1.744zm-1.907.014-.1.743zm-.125-.028-.294.69.008.003zm-.004-.001-.325.675.016.008.016.007zm-.004-.002-.362.656.018.01.019.01zm-.002-.001-.661.353.105.196.194.107zm0-.002-.668.343.006.01zm-.004-.008.697-.276-.004-.01zm-.028-.125-.743.1zm0-2.246-.743-.1zm.01-.062.735.15.5-2.444-1.765 1.764zm3.702-3.7.747.057.156-2.022-1.434 1.434zm-1.308 1.306-.53-.53-1.434 1.434 2.022-.156zm1.291-1.148.743.1zm-.352.78-.53-.53zm-.78.352.1.743zm-3.694-3.52-.748-.057-.156 2.022 1.434-1.434zm1.307-1.306.53.53 1.434-1.434-2.022.156zm-1.291 1.148-.743-.1zm.352-.78.53.53zm.78-.352-.1-.743zm5.196 2.017-.53-.53-.228.228.008.322zm1.07-1.07.747-.066-.142-1.6-1.136 1.136zm-4.605-2.465-.02.75.322.008.228-.228zm1.07-1.07.53.53 1.135-1.135-1.6-.142zm-12.45 12.45-.748.066.142 1.6 1.136-1.135zm1.069-1.07.53.53.228-.227-.008-.322zm-1.14-1.845h.75zm12.78 5.29.1.744zm2.116-2.115-.744-.1zm1.115.15.743.1zm-.929 2.152.53.53zm-2.152.929-.1-.744zm-3.325.114v-.75zm-9.604-9.604h.75zm.114-3.325.744.1zm.929-2.152-.53-.53zm2.152-.929-.1-.743zm.15 1.115.1.744zM5.167 7.283l-.743-.1zm2.31 13.457c.826.073 1.825.073 2.98.073v-1.5c-1.178 0-2.102-.001-2.848-.067zm2.98.073h.043v-1.5h-.042zm.043 0c.725 0 1.313-.588 1.313-1.313h-1.5c0-.104.083-.187.187-.187zm1.313-1.313c0-.725-.588-1.312-1.313-1.312v1.5a.187.187 0 0 1-.187-.188zM10.5 18.188c-.732 0-1.343 0-1.868-.015l-.04 1.5c.549.014 1.181.015 1.908.015zm-2.418.205-1.07 1.07 1.061 1.06 1.07-1.07zm2.09-.224a4 4 0 0 0 .2-.02l-.199-1.487-.117.012zm.2-.02c.35-.048.817-.171 1.211-.566l-1.06-1.06c-.07.069-.166.114-.35.139zm1.211-.566c.395-.394.518-.861.565-1.21l-1.486-.2c-.025.184-.07.28-.14.35zm.565-1.21a4 4 0 0 0 .021-.201l-1.495-.116-.012.117zm-1.257-.79-1.307 1.308 1.06 1.06 1.308-1.307zM7.11 14.417l1.307-1.307-1.06-1.06-1.308 1.307zm-1.257-.789a4 4 0 0 0-.021.201l1.495.116.012-.117zm.565-1.21c-.395.394-.518.861-.565 1.21l1.486.2c.025-.184.07-.28.14-.35zm1.21-.565c-.349.047-.816.17-1.21.565l1.06 1.06c.07-.069.166-.114.35-.139zm.201-.021a4 4 0 0 0-.2.02l.199 1.487.117-.012zm4.36-2.804v-.436h-1.5v.436zm0-.435c0-.308.001-.662-.04-.965l-1.486.2c.024.182.026.423.025.764zm-.04-.965c-.047-.349-.17-.816-.565-1.21l-1.06 1.06c.069.07.114.166.139.35zm-.564-1.21c-.395-.395-.862-.518-1.211-.565l-.2 1.486c.184.025.28.07.35.14zm-1.211-.565c-.303-.041-.657-.04-.965-.04v1.5c.342 0 .583.002.765.026zm-.964-.04h-.071v1.5h.07zm-.071 0h-.002v1.5h.002zm-.002 0c-.48 0-.966-.001-1.37.053l.2 1.487c.282-.038.654-.04 1.17-.04zm-1.37.053c-.452.061-.99.212-1.44.661l1.061 1.061c.124-.124.293-.197.579-.235zm-1.44.661c-.45.45-.6.988-.66 1.44l1.486.2c.038-.287.111-.455.235-.579zm-.66 1.44c-.055.405-.054.891-.053 1.372h1.5c0-.517 0-.89.039-1.172zm-.053 1.372v.07h1.5v-.07zm0 .07h1.5zm0 0c0 .308-.002.662.039.965l1.486-.2a6 6 0 0 1-.026-.764zm.039.965c.047.349.17.816.565 1.21l1.06-1.06c-.069-.07-.114-.166-.139-.35zm.565 1.21c.394.395.861.518 1.21.565l.2-1.486c-.184-.025-.28-.07-.35-.14zm1.21.565c.303.041.657.04.965.04v-1.5c-.342 0-.583-.002-.765-.026zm.964.04h.436v-1.5h-.436zm.966-.22 1.158-1.158-1.06-1.06-1.158 1.157zm.478-2.423-.012.002.2 1.486q.059-.008.112-.018zm-.012.002c-.096.013-.256.015-.648.015v1.5c.347 0 .628 0 .848-.029zm-.648.015h-.75v1.5h.75zm-.75 0c-.392 0-.552-.002-.648-.015l-.2 1.486c.22.03.501.03.848.03zm-.648-.015q-.02-.004-.005 0 .015.002.066.022l-.572 1.386c.095.04.2.063.31.078zm.051.018.055.025h.002l.001.001h.001l-.343.668-.343.666.001.001h.001l.002.002.006.002.013.007q.015.007.052.022zm.07.032h-.002l-.707 1.322h.002zm.301.298-.001-.002-1.313.725v.002zm-.658.36.67-.338v.001l.001.003.002.003.019.042-1.39.564.02.044.005.012.002.005.001.001v.001l.001.001zm.69-.293q.02.05.023.067.002.016 0-.006l-1.487.2c.015.111.038.216.078.311zm.022.061c-.013-.096-.015-.256-.015-.648h-1.5c0 .347 0 .628.029.848zm-.015-.648c0-.568.002-.861.029-1.06l-1.487-.2c-.043.323-.043.736-.043 1.26zm.029-1.06.013-.076q.005-.017-.003.006a.48.48 0 0 1-.095.138l-1.06-1.061c-.205.205-.297.465-.342.794zm-.084.068a.5.5 0 0 1-.138.094q-.022.008-.006.003l.077-.013-.2-1.487c-.33.045-.59.137-.794.342zm-.068.084c.199-.027.492-.03 1.06-.03v-1.5c-.524 0-.937 0-1.26.043zm1.06-.03c.392 0 .552.003.648.016l.2-1.486c-.22-.03-.501-.03-.848-.03zm.648.016q.02.004.005 0a1 1 0 0 1-.066-.022l.572-1.386a1.3 1.3 0 0 0-.31-.078zm-.052-.018-.054-.025h-.002l-.001-.001h-.001l.343-.668.343-.667h-.002l-.002-.002-.006-.002-.064-.03zm-.07-.032h.003l.707-1.322h-.001zm-.3-.298v.002l1.314-.725V7.38zm.658-.36-.67.338V8.08l-.001-.001-.02-.046 1.39-.564-.02-.044-.006-.012-.002-.005-.001-.002h-.001v-.001zm-.69.293a1 1 0 0 1-.023-.067q-.002-.016 0 .006l1.487-.2a1.3 1.3 0 0 0-.078-.311zm-.022-.061c.013.096.015.256.015.648h1.5c0-.347 0-.628-.029-.848zm.015.648v.75h1.5v-.75zm0 .75c0 .392-.002.552-.015.648l1.486.2c.03-.22.03-.501.03-.848zm-.015.648-.002.012 1.47.3q.01-.054.018-.112zm1.263.692 1.158-1.158-1.06-1.06L9.75 9.654zm1.002 4.258v.436h1.5v-.436zm0 .435c0 .308-.001.662.04.965l1.486-.2a6 6 0 0 1-.025-.764zm.04.965c.047.349.17.816.565 1.21l1.06-1.06c-.069-.07-.114-.166-.139-.35zm.565 1.21c.394.395.861.518 1.21.565l.2-1.486c-.184-.025-.28-.07-.35-.14zm1.21.565c.303.041.657.04.964.04v-1.5c-.341 0-.582-.002-.764-.026zm.964.04v-1.5zm0 0h.071v-1.5h-.07zm.071 0c.48 0 .967.001 1.372-.053l-.2-1.487c-.283.038-.655.04-1.172.04zm1.372-.053c.452-.061.99-.212 1.44-.661l-1.061-1.061c-.124.124-.293.197-.579.235zm1.44-.662c.449-.449.6-.987.66-1.439l-1.486-.2c-.038.287-.111.455-.235.579zm.66-1.439c.055-.404.053-.89.053-1.37h-1.5c0 .516-.001.888-.039 1.17zm.053-1.37v-.002h-1.5v.002zm0-.002v-.07h-1.5v.07zm0-.07c0-.308.002-.662-.039-.965l-1.486.2c.024.182.026.423.026.764zm-.039-.965c-.047-.349-.17-.816-.565-1.21l-1.06 1.06c.069.07.114.166.139.35zm-.564-1.21c-.395-.395-.862-.518-1.211-.565l-.2 1.486c.184.025.28.07.35.14zm-1.211-.565c-.303-.041-.657-.04-.965-.04v1.5c.342 0 .583.002.765.026zm-.965-.04h-.435v1.5h.435zm-.965.22-1.158 1.158 1.06 1.06 1.158-1.157zm-.478 2.423.012-.002-.2-1.486q-.06.008-.111.018zm.012-.002c.096-.013.256-.015.648-.015v-1.5c-.347 0-.628 0-.848.029zm.648-.015h.75v-1.5h-.75zm.75 0c.392 0 .552.002.648.015l.2-1.486c-.22-.03-.501-.03-.848-.03zm.648.015q.021.004.006 0a1 1 0 0 1-.067-.022l.572-1.386c-.095-.04-.2-.063-.311-.078zm-.057-.02-.033-.015-.009-.004-.003-.002h-.002l-.001-.001.338-.67.338-.669h-.002l-.001-.002-.005-.002-.056-.025zm-.072-.035.001.001.725-1.313-.002-.001zm-.298-.302.001.002 1.323-.708-.001-.002zm.663-.352-.668.343v-.002l-.001-.002-.002-.004-.005-.01-.018-.04 1.394-.554-.022-.05-.007-.014-.002-.005-.001-.003-.001-.001zm-.69.294a1 1 0 0 1-.023-.066q-.002-.016 0 .005l1.487-.2a1.3 1.3 0 0 0-.078-.311zm-.022-.061c.013.096.015.256.015.648h1.5c0-.347 0-.628-.029-.848zm.015.648c0 .568-.002.861-.029 1.06l1.487.2c.043-.323.043-.736.043-1.26zm-.029 1.06-.013.076q-.005.016.003-.006a.485.485 0 0 1 .095-.138l1.06 1.061c.205-.205.297-.465.342-.793zm.084-.068a.5.5 0 0 1 .138-.094q.023-.008.006-.003a1 1 0 0 1-.076.013l.2 1.487c.328-.045.588-.137.793-.342zm.068-.084c-.199.027-.492.03-1.06.03v1.5c.524 0 .938 0 1.26-.043zm-1.06.03c-.392 0-.552-.003-.648-.016l-.2 1.486c.22.03.501.03.848.03zm-.648-.016q-.021-.004-.006 0 .016.002.067.022l-.572 1.386c.095.04.2.063.311.078zm.069.025-.004-.002-.587 1.38.003.002zm.028.013-.004-.002-.651 1.351.004.002zm.033.017-.002-.001-.725 1.313.002.001zm.297.302-.001-.002-1.323.707.001.002zm-.663.352.667-.343.001.002.001.002.002.004.005.01.018.04-1.394.553.022.052.007.013.002.006.002.002v.001zm.69-.294q.02.051.023.066t0-.005l-1.487.2c.015.111.038.216.078.312zm.022.061c-.013-.096-.015-.256-.015-.648h-1.5c0 .347 0 .628.029.848zm-.015-.648v-.75h-1.5v.75zm0-.75c0-.392.002-.552.015-.648l-1.486-.2c-.03.22-.03.501-.03.848zm.015-.648.002-.012-1.47-.3-.018.112zm-1.263-.692-1.158 1.158 1.06 1.06 1.159-1.157zm3.701-3.701-1.307 1.307 1.06 1.06 1.308-1.307zm1.257.789a4 4 0 0 0 .021-.201l-1.495-.116-.012.117zm-.565 1.21c.395-.394.518-.861.565-1.21l-1.486-.2c-.025.184-.07.28-.14.35zm-1.21.565c.349-.047.816-.17 1.21-.565l-1.06-1.06c-.07.069-.166.114-.35.139zm-.201.021a4 4 0 0 0 .2-.02l-.199-1.487-.117.012zm-3.063-3.753 1.307-1.307-1.06-1.06-1.308 1.307zm-1.257-.789a4 4 0 0 0-.021.201l1.495.116.012-.117zm.565-1.21c-.395.394-.518.861-.565 1.21l1.486.2c.025-.184.07-.28.14-.35zm1.21-.565c-.349.047-.816.17-1.21.565l1.06 1.06c.07-.069.166-.114.35-.139zm.201-.021a4 4 0 0 0-.2.02l.199 1.487.117-.012zm4.345 2.801c.014.525.015 1.136.015 1.868h1.5c0-.727 0-1.359-.015-1.907zm.015 1.868c0 .725.587 1.313 1.312 1.313v-1.5c.104 0 .188.083.188.187zm1.312 1.313c.725 0 1.313-.588 1.313-1.313h-1.5c0-.104.083-.187.187-.187zm1.313-1.313v-.042h-1.5v.042zm0-.042c0-1.156 0-2.155-.073-2.982l-1.494.133c.066.746.067 1.67.067 2.849zm-1.35-3.446-1.07 1.07 1.06 1.06 1.07-1.069zm-3.545-1.405 1.07-1.07-1.061-1.06-1.07 1.07zm-2.418.205c.732 0 1.343 0 1.868.015l.04-1.5a77 77 0 0 0-1.908-.014zM12.188 4.5c0 .725.587 1.313 1.312 1.313v-1.5c.104 0 .188.083.188.187zM13.5 3.188c-.725 0-1.312.587-1.312 1.312h1.5a.187.187 0 0 1-.188.188zm.042 0H13.5v1.5h.042zm2.981.072c-.826-.073-1.825-.072-2.98-.072v1.5c1.179 0 2.102 0 2.848.066zM4.538 16.988l1.07-1.07-1.061-1.06-1.07 1.069zm-1.35-3.446c0 1.156-.001 2.155.072 2.981l1.494-.132c-.066-.746-.067-1.67-.066-2.849zm0-.042v.042h1.5V13.5zM4.5 12.188c-.725 0-1.312.587-1.312 1.312h1.5a.187.187 0 0 1-.188.188zM5.813 13.5c0-.725-.588-1.312-1.313-1.312v1.5a.187.187 0 0 1-.187-.188zm.014 1.868a75 75 0 0 1-.014-1.868h-1.5c0 .727 0 1.36.014 1.907zm10.79 2.721c-.71.096-1.665.099-3.117.099v1.5c1.409 0 2.484 0 3.317-.112zm1.076-.396c-.155.155-.405.306-1.076.396l.2 1.487c.838-.113 1.457-.342 1.937-.822zm.396-1.076c-.09.671-.24.921-.396 1.076l1.06 1.06c.48-.479.71-1.098.823-1.936zm.099-3.117c0 1.452-.003 2.408-.099 3.117l1.487.2c.112-.833.111-1.908.111-3.317zm1.312-1.312c-.725 0-1.312.587-1.312 1.312h1.5a.187.187 0 0 1-.188.188zm1.313 1.312c0-.725-.588-1.312-1.313-1.312v1.5a.187.187 0 0 1-.187-.188zm0 .042V13.5h-1.5v.042zm-.122 3.425c.123-.916.122-2.066.122-3.425h-1.5c0 1.399-.002 2.432-.109 3.225zm-1.142 2.582c.724-.724 1.013-1.62 1.142-2.582l-1.487-.2c-.107.796-.317 1.323-.715 1.722zm-2.582 1.142c.962-.13 1.858-.418 2.582-1.142l-1.06-1.06c-.399.398-.926.608-1.722.715zm-3.425.122c1.359 0 2.509.001 3.425-.122l-.2-1.487c-.793.107-1.826.108-3.225.108zm-.042 0h.042v-1.5H13.5zM12.188 19.5c0 .725.587 1.313 1.312 1.313v-1.5c.104 0 .188.083.188.187zm1.312-1.312c-.725 0-1.312.587-1.312 1.312h1.5a.187.187 0 0 1-.188.188zm-9-6.375c.725 0 1.313-.588 1.313-1.313h-1.5c0-.104.083-.187.187-.187zM3.188 10.5c0 .725.587 1.313 1.312 1.313v-1.5c.104 0 .188.083.188.187zm0-.042v.042h1.5v-.042zm.121-3.425c-.123.916-.122 2.066-.122 3.425h1.5c0-1.399.002-2.432.109-3.225zm1.142-2.582c-.724.724-1.013 1.62-1.142 2.582l1.487.2c.107-.796.317-1.323.715-1.722zm2.582-1.142c-.962.13-1.858.418-2.582 1.142l1.06 1.06c.399-.398.926-.608 1.722-.715zm3.425-.122c-1.359 0-2.509-.001-3.425.122l.2 1.487c.793-.107 1.826-.109 3.225-.109zm.042 0h-.042v1.5h.042zM11.813 4.5c0-.725-.588-1.312-1.313-1.312v1.5a.187.187 0 0 1-.187-.188zM10.5 5.813c.725 0 1.313-.588 1.313-1.313h-1.5c0-.104.083-.187.187-.187zm-3.117.098c.71-.096 1.665-.098 3.117-.098v-1.5c-1.409 0-2.484 0-3.317.111zm-1.076.396c.155-.155.405-.306 1.076-.396l-.2-1.487c-.838.113-1.457.342-1.937.822zM5.91 7.383c.09-.671.24-.921.396-1.076l-1.06-1.06c-.48.479-.71 1.098-.823 1.936zM5.813 10.5c0-1.452.002-2.408.098-3.117l-1.487-.2c-.112.833-.112 1.908-.112 3.317z" mask="url(#a)"/><path stroke="#B8BCCA" stroke-linecap="round" d="M19.8 4.2 4.2 19.8"/></svg>