<svg xmlns="http://www.w3.org/2000/svg" width="24" height="24" fill="none" viewBox="0 0 24 24">
  <path fill="#0E0E0E" d="m10.982 20.56-.43-.255.43.254Zm.234-.395-.43-.255.43.255Zm-2.032 0 .43-.255-.43.255Zm.234.394-.43.255.43-.255Zm-6.144-3.941.462-.192-.462.192Zm3.586 2.209.016-.5-.016.5Zm-1.638-.26-.191.461.191-.462Zm11.904-1.95.462.192-.462-.191Zm-3.586 2.21-.016-.5.016.5Zm1.638-.26.191.461-.191-.462ZM15.68 7.13l.261-.427-.261.427Zm1.188 1.188.427-.261-.427.261ZM4.72 7.131l-.261-.427.261.427ZM3.53 8.319l-.426-.261.426.261ZM8.325 19.04l-.255.43.255-.43Zm12.418-6.648.462.191-.462-.191Zm-1.826 1.826.19.462-.19-.462Zm.471-10.72-.26.426.26-.427Zm1.115 1.114.426-.262-.426.262ZM9.112 3.497l-.262-.426.262.426ZM7.997 4.612l-.426-.262.426.262Zm3.416 16.202.233-.395-.86-.509-.234.395.86.509Zm-2.66-.395.234.395.86-.51-.233-.394-.86.51Zm1.8-.114a.415.415 0 0 1-.705 0l-.86.509c.54.915 1.883.915 2.425 0l-.86-.51ZM9.12 7.1h2.16v-1H9.12v1Zm7.78 5.62v.72h1v-.72h-1Zm-13.4.72v-.72h-1v.72h1Zm-1 0c0 .832 0 1.48.035 2.004.036.527.11.963.277 1.365l.924-.383c-.108-.26-.17-.574-.203-1.05-.033-.481-.033-1.09-.033-1.936h-1Zm4.376 4.887c-.717-.023-1.13-.086-1.462-.223l-.383.924c.507.21 1.072.275 1.813.298l.032-1Zm-4.064-1.518a4.1 4.1 0 0 0 2.219 2.219l.383-.924a3.1 3.1 0 0 1-1.678-1.678l-.924.383ZM16.9 13.44c0 .846 0 1.455-.033 1.936-.033.476-.095.79-.203 1.05l.924.383c.166-.402.24-.838.277-1.365.035-.523.035-1.172.035-2.004h-1Zm-3.344 5.886c.74-.023 1.307-.088 1.813-.298l-.383-.924c-.331.137-.745.2-1.462.223l.032 1Zm3.108-2.9a3.1 3.1 0 0 1-1.678 1.678l.383.924a4.1 4.1 0 0 0 2.219-2.219l-.924-.383ZM11.28 7.1c1.188 0 2.044 0 2.712.064.661.063 1.087.184 1.428.393l.522-.853c-.524-.321-1.12-.466-1.855-.535-.726-.07-1.638-.069-2.807-.069v1Zm6.62 5.62c0-1.169 0-2.08-.069-2.807-.07-.734-.214-1.33-.535-1.855l-.853.522c.21.341.33.767.393 1.428.064.668.064 1.524.064 2.712h1Zm-2.48-5.163a3.1 3.1 0 0 1 1.023 1.023l.853-.522a4.1 4.1 0 0 0-1.354-1.354l-.522.853ZM9.12 6.1c-1.169 0-2.08 0-2.807.069-.734.07-1.33.214-1.855.535l.522.853c.341-.21.767-.33 1.428-.393.668-.063 1.524-.064 2.712-.064v-1ZM3.5 12.72c0-1.188 0-2.044.064-2.712.063-.661.184-1.087.393-1.428l-.853-.522c-.321.524-.466 1.121-.535 1.855-.07.727-.069 1.638-.069 2.807h1Zm.958-6.016a4.1 4.1 0 0 0-1.354 1.354l.853.522A3.1 3.1 0 0 1 4.98 7.557l-.522-.853ZM9.614 19.91c-.182-.308-.336-.569-.484-.772a1.834 1.834 0 0 0-.55-.528l-.51.86c.07.042.143.107.251.255.114.157.241.37.433.694l.86-.509Zm-2.77-.584c.398.013.664.022.868.047.196.024.292.058.358.098l.51-.861a1.865 1.865 0 0 0-.747-.23c-.26-.031-.577-.041-.957-.053l-.032 1Zm4.802 1.093a9.73 9.73 0 0 1 .433-.694.884.884 0 0 1 .25-.255l-.508-.86a1.833 1.833 0 0 0-.551.528c-.148.203-.302.464-.484.772l.86.51Zm1.878-2.092c-.38.012-.698.022-.957.053a1.865 1.865 0 0 0-.746.23l.509.86c.066-.039.162-.073.358-.097.204-.025.47-.034.868-.047l-.032-1ZM13.238 3.5h2.024v-1h-2.024v1ZM20.5 8.738v.675h1v-.675h-1Zm0 .675c0 .793 0 1.362-.031 1.812-.03.445-.089.736-.188.975l.924.383c.158-.381.228-.794.262-1.29.033-.491.033-1.101.033-1.88h-1Zm-.219 2.787a2.875 2.875 0 0 1-1.556 1.556l.383.924a3.875 3.875 0 0 0 2.097-2.097l-.924-.383Zm-5.018-8.7c1.114 0 1.915 0 2.54.06.617.059 1.01.171 1.324.364l.523-.853c-.498-.305-1.063-.44-1.753-.507-.683-.065-1.54-.064-2.634-.064v1ZM21.5 8.738c0-1.096 0-1.952-.064-2.635-.066-.69-.202-1.255-.507-1.753l-.853.523c.193.314.305.707.364 1.325.06.624.06 1.425.06 2.54h1Zm-2.373-4.814c.387.237.712.562.95.949l.852-.523a3.875 3.875 0 0 0-1.28-1.279l-.522.853ZM13.237 2.5c-1.095 0-1.951 0-2.634.064-.69.066-1.255.202-1.753.507l.523.853c.314-.193.707-.305 1.325-.364.624-.06 1.425-.06 2.54-.06v-1Zm-4.387.571c-.521.32-.96.758-1.279 1.28l.853.522c.237-.387.562-.712.949-.95l-.523-.852Zm-.82 3.555c.045-.872.159-1.37.394-1.753L7.57 4.35c-.37.604-.493 1.31-.54 2.224l.998.052Zm9.387 8.335c.685-.022 1.215-.084 1.69-.28l-.382-.925c-.302.125-.681.184-1.342.206l.034 1ZM8.4 12.8a.8.8 0 1 1-1.6 0 .8.8 0 0 1 1.6 0Zm2.8 0a.8.8 0 1 1-1.6 0 .8.8 0 0 1 1.6 0Zm2.8 0a.8.8 0 1 1-1.6 0 .8.8 0 0 1 1.6 0Z"/>
</svg>
