<svg xmlns="http://www.w3.org/2000/svg" width="36" height="36" fill="none"><path fill="#fff" d="M9.75 25v-.117c0-1.137 0-2.178.13-3.026.143-.933.48-2.97 1.408-3.78.927-.812 2.054-1.107 3.12-1.232.969-.114 2.16-.114 3.458-.114h.268c1.299 0 2.49 0 3.458.114 1.066.125 2.193.42 3.12 1.232.927.81 1.265 2.847 1.408 3.78.128.835.13 1.859.13 2.975 3.859-.722 6.75-3.69 6.75-7.244 0-3.244-2.41-6.001-5.767-7.006C26.756 6.88 23.123 4 18.714 4c-4.734 0-8.571 3.318-8.571 7.412 0 .905.188 1.773.531 2.575a7.4 7.4 0 0 0-1.245-.105c-3.55 0-6.429 2.49-6.429 5.56S5.878 25 9.429 25z"/><path fill="#fff" fill-rule="evenodd" d="M18 19c-2.828 0-4.243 0-5.121.879C12 20.757 12 22.172 12 25s0 4.243.879 5.121C13.757 31 15.172 31 18 31s4.243 0 5.121-.879C24 29.243 24 27.828 24 25s0-4.243-.879-5.121C22.243 19 20.828 19 18 19m2.707 4.626-2-2a1 1 0 0 0-1.414 0l-2 2a1 1 0 0 0 1.414 1.414l.293-.293v2.92a1 1 0 1 0 2 0v-2.92l.293.293a1 1 0 1 0 1.414-1.414" clip-rule="evenodd"/></svg>