<svg xmlns="http://www.w3.org/2000/svg" width="24" height="24" fill="none"><path fill="#0166FF" d="M9.4 12.6h3.4a1.8 1.8 0 0 1 0 3.6H9.743a.34.34 0 0 1-.341-.342zM12 11.4H9.4V8.416c0-.341.277-.618.618-.618h1.983a1.8 1.8 0 0 1 0 3.6"/><path fill="#0166FF" fill-rule="evenodd" d="M4.318 4.318C3 5.636 3 7.758 3 12s0 6.364 1.318 7.682S7.758 21 12 21s6.364 0 7.682-1.318S21 16.242 21 12s0-6.364-1.318-7.682S16.242 3 12 3 5.636 3 4.318 4.318m5.7 2.281a1.817 1.817 0 0 0-1.817 1.818v7.441c0 .851.69 1.541 1.541 1.541h3.059a3 3 0 0 0 1.331-5.689A3 3 0 0 0 12 6.6z" clip-rule="evenodd"/></svg>