<svg xmlns="http://www.w3.org/2000/svg" width="24" height="24" fill="none"><path stroke="#0166FF" stroke-linecap="round" stroke-linejoin="round" stroke-width="1.2" d="M15.23 14.21q-1.18.734-2.23 2.271 2.014 2.945 4.5 2.945 1.13 0 2.163-.608M17.5 13.534q2.486 0 4.5 2.946-.369.538-.753.979M14.06 13l6.882 7"/><path fill="#0166FF" fill-rule="evenodd" d="M6.148 6.132a3.851 3.851 0 1 1 7.703 0 3.851 3.851 0 0 1-7.703 0M10 3.497a2.635 2.635 0 1 0 0 5.27 2.635 2.635 0 0 0 0-5.27" clip-rule="evenodd"/><path fill="#0166FF" d="M5.116 12.35c1.28-.72 3.009-1.146 4.885-1.146q.522 0 1.027.043c.355.03.59.372.512.72a.64.64 0 0 1-.678.486q-.42-.033-.861-.033c-1.707 0-3.222.39-4.289.99-1.086.611-1.59 1.36-1.59 2.05 0 1.06.033 1.657.587 2.109.3.244.803.483 1.662.657.857.174 2.029.275 3.63.275h.045c.34 0 .62.273.62.613a.6.6 0 0 1-.597.603h-.068c-1.643 0-2.903-.103-3.87-.299-.965-.195-1.68-.49-2.19-.906-1.037-.845-1.036-2.027-1.035-2.97v-.082c0-1.325.949-2.4 2.21-3.11"/></svg>