<svg xmlns="http://www.w3.org/2000/svg" width="20" height="20" fill="none"><path stroke="#0166FF" stroke-linecap="round" d="M15.666 6.667v4c0 2.514 0 3.77-.78 4.552-.782.781-2.039.781-4.553.781h-.667c-2.514 0-3.77 0-4.552-.781s-.781-2.038-.781-4.552v-4M9 11h2c.31 0 .466 0 .588-.05a.67.67 0 0 0 .36-.361C12 10.466 12 10.31 12 10s0-.466-.051-.588a.67.67 0 0 0-.36-.361C11.465 9 11.31 9 10.998 9H9c-.31 0-.465 0-.588.05a.67.67 0 0 0-.36.362C8 9.534 8 9.689 8 10s0 .466.05.588a.67.67 0 0 0 .361.361C8.534 11 8.69 11 9 11ZM4.666 6.667h10.667c.628 0 .943 0 1.138-.196.195-.195.195-.51.195-1.138s0-.942-.195-1.138S15.961 4 15.333 4H4.666c-.628 0-.942 0-1.138.195-.195.196-.195.51-.195 1.138 0 .629 0 .943.195 1.138.196.196.51.196 1.138.196Z"/></svg>