<svg xmlns="http://www.w3.org/2000/svg" width="24" height="24" fill="none"><path stroke="#fff" stroke-width="1.33" d="M10.2 21a7.2 7.2 0 1 0-6.498-4.095c.155.323.21.69.117 1.035l-.296 1.104a1.17 1.17 0 0 0 1.433 1.432l1.103-.295a1.5 1.5 0 0 1 1.036.116c.94.45 1.993.703 3.105.703Z"/><path fill="#fff" d="M10.665 11a.665.665 0 0 0-1.33 0zm-1.33 5.248a.665.665 0 1 0 1.33 0zm-1.93-3.289a.665.665 0 1 0 0 1.33zm5.19 1.33a.665.665 0 0 0 0-1.33zM9.335 11v2.624h1.33V11zm0 2.624v2.624h1.33v-2.624zM10 12.96H7.405v1.33H10zm0 1.33h2.595v-1.33H10z"/><path stroke="#fff" stroke-width="1.33" d="M17.4 14.252q.09-.038.178-.078c.326-.149.692-.205 1.038-.112l.428.115a1.17 1.17 0 0 0 1.433-1.433l-.115-.428c-.093-.347-.037-.712.112-1.038A5.85 5.85 0 1 0 9.75 6.596"/></svg>