<svg xmlns="http://www.w3.org/2000/svg" width="24" height="24" fill="none"><path fill="#fff" d="M12.575 16a.575.575 0 0 1-1.15 0zM12 8l-.407-.407a.575.575 0 0 1 .814 0zm2.807 1.993a.575.575 0 0 1-.814.814zm-4.8.814a.575.575 0 0 1-.814-.814zM5.17 5.17l-.407-.406zm0 13.657-.406.407zm13.657 0-.407-.406zm0-13.657-.407.407zM11.425 16V8h1.15v8zm.982-8.407 2.4 2.4-.814.814-2.4-2.4zm0 .814-2.4 2.4-.814-.814 2.4-2.4zM12 4.575c-1.902 0-3.27.001-4.313.141-1.025.138-1.648.4-2.11.862l-.812-.814c.71-.71 1.616-1.032 2.77-1.187C8.67 3.424 10.13 3.425 12 3.425zM5.578 5.577c-.461.462-.724 1.085-.862 2.11-.14 1.043-.141 2.411-.141 4.313h-1.15c0-1.87-.001-3.329.152-4.465.155-1.153.477-2.06 1.187-2.77zM4.575 12c0 1.902.001 3.27.141 4.312.138 1.026.4 1.648.862 2.11l-.813.813c-.71-.71-1.033-1.616-1.188-2.77-.153-1.136-.152-2.596-.152-4.465zm1.003 6.421c.462.462 1.085.725 2.11.863 1.042.14 2.41.141 4.312.141v1.15c-1.87 0-3.329.001-4.465-.152-1.154-.155-2.06-.478-2.77-1.188zM12 19.425c1.902 0 3.27-.001 4.312-.141 1.026-.138 1.648-.401 2.11-.862l.813.812c-.71.711-1.616 1.034-2.77 1.19-1.136.152-2.596.151-4.465.151zm6.422-1.004c.46-.46.724-1.083.862-2.108.14-1.042.141-2.411.141-4.313h1.15c0 1.87.001 3.33-.152 4.466-.155 1.153-.478 2.059-1.189 2.769zM19.425 12c0-1.902-.001-3.27-.141-4.312-.138-1.026-.401-1.649-.863-2.11l.814-.813c.71.71 1.033 1.616 1.188 2.77.153 1.136.152 2.596.152 4.465zm-1.004-6.422c-.46-.461-1.083-.724-2.108-.862-1.042-.14-2.411-.141-4.313-.141v-1.15c1.87 0 3.33-.001 4.466.152 1.153.155 2.059.477 2.769 1.188z"/></svg>