<svg width="24" height="24" viewBox="0 0 24 24" fill="none" xmlns="http://www.w3.org/2000/svg">
<path d="M4 12C4 8.22876 4 6.34315 5.17157 5.17157C6.34315 4 8.22876 4 12 4C15.7712 4 17.6569 4 18.8284 5.17157C20 6.34315 20 8.22876 20 12C20 15.7712 20 17.6569 18.8284 18.8284C17.6569 20 15.7712 20 12 20C8.22876 20 6.34315 20 5.17157 18.8284C4 17.6569 4 15.7712 4 12Z" stroke="#0166FF" stroke-width="1.2"/>
<path d="M6.80078 9V12M6.80078 12V15M6.80078 12H10.8008M10.8008 12V9M10.8008 12V15M13.1016 9H16.6016C16.8777 9 17.1016 9.22386 17.1016 9.5V12M13.1016 15H16.6016C16.8777 15 17.1016 14.7761 17.1016 14.5V12M17.1016 12H14.6016" stroke="#0166FF" stroke-width="1.2" stroke-linecap="round" stroke-linejoin="round"/>
</svg>
