<svg width="24" height="24" viewBox="0 0 24 24" fill="none" xmlns="http://www.w3.org/2000/svg">
<g clip-path="url(#clip0_20318_109749)">
<path d="M17.998 21.75H5.99805C5.00349 21.75 4.04966 21.3549 3.3464 20.6517C2.64314 19.9484 2.24805 18.9946 2.24805 18V7.5C2.24805 7.30109 2.32706 7.11032 2.46772 6.96967C2.60837 6.82902 2.79913 6.75 2.99805 6.75H17.998C18.9926 6.75 19.9464 7.14509 20.6497 7.84835C21.353 8.55161 21.7481 9.50544 21.7481 10.5V18C21.7481 18.9946 21.353 19.9484 20.6497 20.6517C19.9464 21.3549 18.9926 21.75 17.998 21.75ZM3.74805 8.25V18C3.74805 18.5967 3.9851 19.169 4.40706 19.591C4.82901 20.0129 5.40131 20.25 5.99805 20.25H17.998C18.5948 20.25 19.1671 20.0129 19.589 19.591C20.011 19.169 20.248 18.5967 20.2481 18V10.5C20.248 9.90326 20.011 9.33097 19.589 8.90901C19.1671 8.48705 18.5948 8.25 17.998 8.25H3.74805Z" fill="#0166FF"/>
<path d="M19.4981 8.25089C19.2992 8.25089 19.1085 8.17187 18.9678 8.03122C18.8271 7.89057 18.7481 7.6998 18.7481 7.50089V5.43839C18.7625 5.17566 18.7174 4.91307 18.6161 4.67022C18.5148 4.42738 18.3599 4.21054 18.1631 4.03589C17.9863 3.90341 17.7816 3.81294 17.5646 3.77136C17.3476 3.72977 17.1239 3.73816 16.9106 3.79589L4.33313 6.65339C4.16394 6.69149 4.01319 6.78705 3.90653 6.92379C3.79987 7.06054 3.74389 7.23002 3.74813 7.40339C3.74813 7.6023 3.66911 7.79307 3.52846 7.93372C3.38781 8.07437 3.19704 8.15339 2.99813 8.15339C2.79922 8.15339 2.60845 8.07437 2.4678 7.93372C2.32715 7.79307 2.24813 7.6023 2.24813 7.40339C2.24373 6.89068 2.41457 6.39185 2.73237 5.98949C3.05016 5.58713 3.49585 5.30538 3.99563 5.19089L16.5806 2.33339C17.0135 2.22395 17.4656 2.21503 17.9024 2.30734C18.3392 2.39964 18.7491 2.5907 19.1006 2.86589C19.4723 3.18137 19.7684 3.57633 19.9671 4.02158C20.1657 4.46684 20.2617 4.95103 20.2481 5.43839V7.50089C20.2481 7.6998 20.1691 7.89057 20.0285 8.03122C19.8878 8.17187 19.697 8.25089 19.4981 8.25089Z" fill="#0166FF"/>
<path d="M20.998 17.25H15.748C14.9524 17.25 14.1893 16.9339 13.6267 16.3713C13.0641 15.8087 12.748 15.0456 12.748 14.25C12.748 13.4544 13.0641 12.6913 13.6267 12.1287C14.1893 11.5661 14.9524 11.25 15.748 11.25H20.998C21.197 11.25 21.3877 11.329 21.5284 11.4697C21.669 11.6103 21.7481 11.8011 21.7481 12V16.5C21.7481 16.6989 21.669 16.8897 21.5284 17.0303C21.3877 17.171 21.197 17.25 20.998 17.25ZM15.748 12.75C15.3502 12.75 14.9687 12.908 14.6874 13.1893C14.4061 13.4706 14.248 13.8522 14.248 14.25C14.248 14.6478 14.4061 15.0294 14.6874 15.3107C14.9687 15.592 15.3502 15.75 15.748 15.75H20.248V12.75H15.748Z" fill="#0166FF"/>
</g>
<defs>
<clipPath id="clip0_20318_109749">
<rect width="24" height="24" fill="white" transform="translate(-0.00195312)"/>
</clipPath>
</defs>
</svg>
