<svg xmlns="http://www.w3.org/2000/svg" width="24" height="24" fill="none"><path stroke="#fff" stroke-width="1.44" d="M16.753 2.002h-9.51c-1.159 0-1.738 0-2.206.163a3.05 3.05 0 0 0-1.881 1.936c-.158.482-.158 1.078-.158 2.271v14.004c0 .858.985 1.314 1.608.744a.946.946 0 0 1 1.284 0l.483.442a1.657 1.657 0 0 0 2.25 0 1.657 1.657 0 0 1 2.25 0 1.66 1.66 0 0 0 2.25 0 1.657 1.657 0 0 1 2.25 0 1.66 1.66 0 0 0 2.25 0l.483-.442a.946.946 0 0 1 1.284 0c.623.57 1.608.114 1.608-.744V6.372c0-1.193 0-1.79-.158-2.27a3.04 3.04 0 0 0-1.881-1.937c-.468-.163-1.047-.163-2.206-.163Z"/><path stroke="#fff" stroke-linecap="round" stroke-width="1.44" d="M10.498 11.002h6.5m-10 0h.5m-.5-3.5h.5m-.5 7h.5m3-7h6.5m-6.5 7h6.5"/></svg>