<svg xmlns="http://www.w3.org/2000/svg" width="18" height="19" fill="none" viewBox="0 0 18 19">
  <path fill="#0166FF" d="M5.092 7.934c-.684 0-1.147 0-1.493-.047-.331-.045-.48-.123-.58-.223l-.706.708c.316.316.71.446 1.153.506.428.057.97.056 1.626.056v-1ZM1.75 5.592c0 .656-.001 1.198.056 1.626.06.442.19.837.507 1.154l.707-.708c-.1-.1-.178-.248-.222-.58-.047-.345-.048-.808-.048-1.492h-1Zm5.684 0c0 .684 0 1.147-.047 1.493-.045.331-.123.48-.223.58l.708.707c.316-.317.446-.712.506-1.154.057-.428.056-.97.056-1.626h-1ZM5.092 8.934c.656 0 1.198.001 1.626-.056.442-.06.837-.19 1.154-.506l-.708-.708c-.1.1-.248.178-.58.223-.345.046-.808.047-1.492.047v1Zm0-5.684c.684 0 1.147.001 1.493.048.331.044.48.122.58.222l.707-.707c-.317-.317-.712-.447-1.154-.507-.428-.057-.97-.056-1.626-.056v1Zm3.342 2.342c0-.656.001-1.198-.056-1.626-.06-.442-.19-.837-.506-1.153l-.708.707c.1.1.178.248.223.58.046.345.047.808.047 1.492h1ZM5.092 2.25c-.656 0-1.198-.001-1.626.056-.442.06-.837.19-1.153.507l.707.707c.1-.1.248-.178.58-.222.345-.047.808-.048 1.492-.048v-1ZM2.75 5.592c0-.684.001-1.147.048-1.493.044-.331.122-.48.222-.58l-.707-.706c-.317.316-.447.71-.507 1.153-.057.428-.056.97-.056 1.626h1ZM5.092 15.75c-.684 0-1.147-.001-1.493-.048-.331-.044-.48-.122-.58-.222l-.706.707c.316.317.71.447 1.153.506.428.058.97.057 1.626.057v-1ZM1.75 13.408c0 .656-.001 1.198.056 1.626.06.442.19.837.507 1.153l.707-.707c-.1-.1-.178-.248-.222-.58-.047-.345-.048-.808-.048-1.492h-1Zm5.684 0c0 .684 0 1.147-.047 1.493-.045.331-.123.48-.223.58l.708.706c.316-.316.446-.71.506-1.153.057-.428.056-.97.056-1.626h-1ZM5.092 16.75c.656 0 1.198.001 1.626-.056.442-.06.837-.19 1.154-.507l-.708-.707c-.1.1-.248.178-.58.222-.345.047-.808.048-1.492.048v1Zm0-5.684c.684 0 1.147 0 1.493.047.331.045.48.123.58.223l.707-.707c-.317-.317-.712-.447-1.154-.507-.428-.057-.97-.056-1.626-.056v1Zm3.342 2.342c0-.656.001-1.198-.056-1.626-.06-.442-.19-.837-.506-1.153l-.708.707c.1.1.178.248.223.58.046.345.047.808.047 1.492h1Zm-3.342-3.342c-.656 0-1.198-.001-1.626.056-.442.06-.837.19-1.153.507l.707.707c.1-.1.248-.178.58-.223.345-.046.808-.047 1.492-.047v-1ZM2.75 13.408c0-.684.001-1.147.048-1.493.044-.331.122-.48.222-.58l-.707-.707c-.317.317-.447.712-.507 1.154-.057.428-.056.97-.056 1.626h1Zm10.158 2.343c-.684 0-1.147-.001-1.493-.048-.331-.044-.48-.122-.58-.222l-.707.707c.317.316.711.447 1.154.506.428.058.97.057 1.626.057v-1Zm-3.342-2.342c0 .655-.001 1.197.056 1.625.06.443.19.837.506 1.154l.707-.707c-.1-.1-.177-.248-.222-.58-.046-.346-.047-.809-.047-1.492h-1Zm5.684 0c0 .683-.001 1.146-.048 1.492-.044.332-.122.48-.222.58l.707.707c.317-.316.447-.711.506-1.154.058-.428.057-.97.057-1.626h-1Zm-2.342 3.342c.655 0 1.198 0 1.626-.057.442-.06.837-.19 1.153-.506l-.707-.707c-.1.1-.248.178-.58.222-.345.047-.808.048-1.492.048v1Zm0-5.685c.684 0 1.147.002 1.492.048.332.044.48.122.58.222l.707-.707c-.316-.316-.71-.447-1.153-.506-.428-.058-.97-.057-1.626-.057v1Zm3.342 2.342c0-.655 0-1.197-.057-1.625-.06-.443-.19-.837-.506-1.154l-.707.707c.1.1.178.248.222.58.047.346.048.809.048 1.492h1Zm-3.342-3.342c-.656 0-1.198 0-1.626.057-.443.06-.837.19-1.154.506l.707.707c.1-.1.249-.178.58-.222.346-.046.809-.048 1.493-.048v-1Zm-2.342 3.342c0-.683 0-1.146.047-1.492.045-.332.123-.48.222-.58l-.707-.707c-.316.317-.446.711-.506 1.154-.057.428-.056.97-.056 1.626h1Zm4.684-7.815a2.343 2.343 0 0 1-2.343 2.342v1a3.343 3.343 0 0 0 3.343-3.342h-1Zm-2.343 2.342a2.343 2.343 0 0 1-2.342-2.342h-1a3.342 3.342 0 0 0 3.342 3.342v-1Zm-2.342-2.342a2.343 2.343 0 0 1 2.342-2.343v-1a3.343 3.343 0 0 0-3.342 3.343h1Zm2.342-2.343a2.343 2.343 0 0 1 2.343 2.343h1a3.343 3.343 0 0 0-3.343-3.343v1Z"/>
</svg>
