<svg width="17" height="16" viewBox="0 0 17 16" fill="none" xmlns="http://www.w3.org/2000/svg">
<path d="M8.33594 3.11475C9.67988 2.06866 11.1881 1.92518 12.4541 2.51611C13.8783 3.18097 14.8358 4.70554 14.8359 6.43213C14.8359 8.10401 14.1482 9.37563 13.2803 10.3735C12.4438 11.3352 11.3717 12.1104 10.6045 12.728C10.3232 12.9545 9.98957 13.2227 9.64355 13.4292C9.29797 13.6354 8.85087 13.8364 8.33594 13.8364C7.821 13.8364 7.37391 13.6354 7.02832 13.4292C6.68234 13.2227 6.34873 12.9545 6.06738 12.728C5.30015 12.1104 4.22806 11.3352 3.3916 10.3735C2.52369 9.37562 1.83594 8.10402 1.83594 6.43213C1.83611 4.70553 2.79355 3.18097 4.21777 2.51611C5.4838 1.92519 6.99199 2.06866 8.33594 3.11475Z" stroke="#5A5E66" stroke-linejoin="round"/>
</svg>
