<svg xmlns="http://www.w3.org/2000/svg" width="24" height="24" fill="none"><g fill="#0166FF"><path fill-rule="evenodd" d="M8.415 4.793A1.99 1.99 0 0 1 10.385 3h3.23c1.022 0 1.864.785 1.97 1.793.672.014 1.253.05 1.75.142.667.124 1.235.36 1.698.83.53.536.758 1.213.864 2.016C20 8.555 20 9.54 20 10.76v4.264c0 1.22 0 2.204-.103 2.978-.106.804-.334 1.48-.864 2.018s-1.198.768-1.99.876c-.764.104-1.735.104-2.94.104H9.897c-1.205 0-2.176 0-2.94-.104-.792-.108-1.46-.34-1.99-.876-.53-.538-.758-1.214-.864-2.018C4 17.228 4 16.244 4 15.024V10.76c0-1.22 0-2.205.103-2.979.106-.803.334-1.48.864-2.017.463-.468 1.03-.705 1.698-.83.497-.092 1.078-.127 1.75-.141m.002 1.34c-.633.013-1.12.045-1.513.118-.5.093-.788.243-1.002.46-.244.247-.403.594-.49 1.249-.09.674-.09 1.568-.09 2.849v4.166c0 1.281 0 2.175.09 2.849.087.655.246 1.002.49 1.249.243.247.585.408 1.232.496.665.09 1.547.092 2.811.092h4.11c1.264 0 2.146-.001 2.811-.092.646-.088.989-.25 1.233-.496.243-.247.402-.594.49-1.25.088-.673.09-1.567.09-2.848v-4.166c0-1.281-.002-2.175-.09-2.85-.088-.654-.247-1.001-.49-1.248-.215-.217-.504-.367-1.003-.46-.393-.073-.88-.105-1.513-.119a1.99 1.99 0 0 1-1.968 1.778h-3.23a1.99 1.99 0 0 1-1.968-1.778m1.968-1.794c-.364 0-.66.3-.66.67V5.9c0 .37.296.67.66.67h3.23c.364 0 .66-.3.66-.67v-.893c0-.37-.296-.669-.66-.669z" clip-rule="evenodd"/><path d="M15.09 11.595a.676.676 0 0 0 .032-.946.654.654 0 0 0-.933-.033l-3.324 3.145-1.06-1.002a.654.654 0 0 0-.933.032.676.676 0 0 0 .032.947l1.51 1.428c.254.24.648.24.901 0z"/></g></svg>