<svg xmlns="http://www.w3.org/2000/svg" width="37" height="37" fill="none"><path fill="#fff" fill-rule="evenodd" d="M22.056 32.5h-7.112c-4.993 0-7.49 0-9.284-1.144a7 7 0 0 1-1.962-1.873C2.5 27.771 2.5 25.388 2.5 20.621c0-4.766 0-7.15 1.198-8.862A7 7 0 0 1 5.66 9.886c1.153-.735 2.596-.997 4.805-1.091a2.234 2.234 0 0 0 2.168-1.75c.31-1.48 1.672-2.545 3.253-2.545h5.228c1.581 0 2.943 1.065 3.253 2.545a2.234 2.234 0 0 0 2.168 1.75c2.21.094 3.652.356 4.805 1.091a7 7 0 0 1 1.962 1.873c1.198 1.712 1.198 4.096 1.198 8.862 0 4.767 0 7.15-1.198 8.862a7 7 0 0 1-1.962 1.873C29.546 32.5 27.05 32.5 22.056 32.5m6.046-18.442a1.333 1.333 0 0 0 0 2.667h1.6a1.333 1.333 0 0 0 0-2.667zm-9.601 10.666c2.65 0 4.8-2.09 4.8-4.666 0-2.578-2.15-4.667-4.8-4.667s-4.8 2.09-4.8 4.667 2.149 4.666 4.8 4.666" clip-rule="evenodd"/></svg>