<svg xmlns="http://www.w3.org/2000/svg" width="24" height="24" fill="none"><g fill="#727689" fill-rule="evenodd" clip-rule="evenodd"><path d="M6.72 6.419a4.419 4.419 0 1 1 8.838 0 4.419 4.419 0 0 1-8.837 0m4.42-3.024a3.023 3.023 0 1 0 0 6.047 3.023 3.023 0 0 0 0-6.047M5.535 13.549c1.47-.827 3.452-1.316 5.605-1.316 2.152 0 4.135.489 5.604 1.316 1.447.814 2.535 2.048 2.535 3.567v.095c.001 1.081.003 2.438-1.187 3.407-.586.476-1.405.815-2.512 1.04-1.11.224-2.556.342-4.44.342s-3.331-.118-4.441-.343c-1.107-.224-1.926-.563-2.512-1.04C2.997 19.65 3 18.293 3 17.212v-.095c0-1.52 1.088-2.753 2.535-3.567m.684 1.216c-1.246.7-1.824 1.56-1.824 2.351 0 1.217.038 1.902.674 2.42.344.28.92.554 1.907.754.983.199 2.327.315 4.164.315s3.18-.116 4.163-.315c.987-.2 1.563-.474 1.908-.755.635-.517.673-1.202.673-2.419 0-.791-.578-1.65-1.824-2.351-1.224-.689-2.962-1.137-4.92-1.137s-3.696.448-4.92 1.137"/></g><path stroke="#727689" stroke-linecap="round" stroke-width="1.2" d="m17.5 12 4-4m0 4-4-4"/></svg>