<svg width="24" height="25" viewBox="0 0 24 25" fill="none" xmlns="http://www.w3.org/2000/svg">
<path d="M16.8343 12.7925L17.1892 12.3087L17.1892 12.3087L16.8343 12.7925ZM17.6 9.85308L17.185 10.2865C17.4171 10.5086 17.7829 10.5086 18.015 10.2865L17.6 9.85308ZM18.3657 12.7925L18.0108 12.3087L18.0108 12.3087L18.3657 12.7925ZM17.6 13.162L17.6 13.762H17.6L17.6 13.162ZM13 7.7C13 9.13594 11.8359 10.3 10.4 10.3V11.5C12.4987 11.5 14.2 9.79868 14.2 7.7H13ZM10.4 10.3C8.96406 10.3 7.8 9.13594 7.8 7.7H6.6C6.6 9.79868 8.30132 11.5 10.4 11.5V10.3ZM7.8 7.7C7.8 6.26406 8.96406 5.1 10.4 5.1V3.9C8.30132 3.9 6.6 5.60132 6.6 7.7H7.8ZM10.4 5.1C11.8359 5.1 13 6.26406 13 7.7H14.2C14.2 5.60132 12.4987 3.9 10.4 3.9V5.1ZM16.2 16.9C16.2 17.9462 16.1677 18.5352 15.6211 18.9803C15.3247 19.2217 14.8292 19.4573 13.981 19.629C13.1354 19.8002 11.9794 19.9 10.4 19.9V21.1C12.0206 21.1 13.2646 20.9984 14.219 20.8052C15.1708 20.6125 15.8753 20.3209 16.3789 19.9108C17.4323 19.053 17.4 17.842 17.4 16.9H16.2ZM10.4 19.9C8.82062 19.9 7.66459 19.8002 6.81903 19.629C5.97082 19.4573 5.4753 19.2217 5.17887 18.9803C4.63225 18.5352 4.6 17.9462 4.6 16.9H3.4C3.4 17.842 3.36775 19.053 4.42113 19.9108C4.9247 20.3209 5.62918 20.6125 6.58097 20.8052C7.53541 20.9984 8.77938 21.1 10.4 21.1V19.9ZM4.6 16.9C4.6 16.2189 5.0971 15.4801 6.16867 14.8774C7.22144 14.2852 8.71622 13.9 10.4 13.9V12.7C8.54916 12.7 6.84394 13.1207 5.58036 13.8315C4.33559 14.5317 3.4 15.5928 3.4 16.9H4.6ZM10.4 13.9C12.0838 13.9 13.5786 14.2852 14.6313 14.8774C15.7029 15.4801 16.2 16.2189 16.2 16.9H17.4C17.4 15.5928 16.4644 14.5317 15.2196 13.8315C13.9561 13.1207 12.2508 12.7 10.4 12.7V13.9ZM17.1892 12.3087C16.8549 12.0634 16.4865 11.757 16.2076 11.4345C15.913 11.0939 15.8 10.829 15.8 10.6574H14.6C14.6 11.2733 14.953 11.8183 15.2999 12.2195C15.6626 12.6388 16.1113 13.0062 16.4793 13.2762L17.1892 12.3087ZM15.8 10.6574C15.8 10.1965 16.0101 9.99602 16.1935 9.93171C16.3937 9.86152 16.7646 9.88389 17.185 10.2865L18.015 9.4197C17.3554 8.78823 16.5263 8.54346 15.7965 8.79928C15.05 9.06099 14.6 9.77964 14.6 10.6574H15.8ZM18.7207 13.2762C19.0887 13.0062 19.5374 12.6388 19.9001 12.2195C20.247 11.8183 20.6 11.2733 20.6 10.6574H19.4C19.4 10.8291 19.287 11.0939 18.9924 11.4345C18.7135 11.757 18.3451 12.0634 18.0108 12.3087L18.7207 13.2762ZM20.6 10.6574C20.6 9.77963 20.15 9.06098 19.4035 8.79928C18.6737 8.54346 17.8446 8.78823 17.185 9.4197L18.015 10.2865C18.4354 9.88389 18.8063 9.86152 19.0065 9.93171C19.1899 9.99602 19.4 10.1965 19.4 10.6574H20.6ZM16.4793 13.2762C16.7742 13.4926 17.1053 13.762 17.6 13.762L17.6 12.562C17.5805 12.562 17.5684 12.562 17.5249 12.539C17.4561 12.5027 17.3702 12.4415 17.1892 12.3087L16.4793 13.2762ZM18.0108 12.3087C17.8298 12.4415 17.7439 12.5027 17.6751 12.539C17.6316 12.562 17.6196 12.562 17.6 12.562L17.6 13.762C18.0947 13.762 18.4258 13.4926 18.7207 13.2762L18.0108 12.3087Z" fill="#0166FF"/>
</svg>
