<svg xmlns="http://www.w3.org/2000/svg" width="24" height="24" fill="none"><path fill="#0166FF" d="m19.867 9.975.434-.415-.004-.004zm-.86-2.05-.6.007v.005zm-2.933-2.932-.011.6h.005zm-2.049-.86.419-.43-.004-.004zm-4.05 0-.415-.434-.004.004zm-2.05.86.007.6h.005zM4.994 7.926l.6.011v-.005zm-.86 2.049-.43-.419-.004.004zm0 4.05-.434.415.004.004zm.86 2.05.6-.007v-.005zm2.933 2.932.011-.6h-.005zm2.049.86-.419.43.004.003zm4.05 0 .415.434.004-.004zm2.05-.86-.007-.6h-.005zm2.932-2.933-.6-.011v.005zm.86-2.049.43.419.003-.004zM8.996 11.998a.6.6 0 0 0-.849.848zm1.718 2.567-.424.424a.6.6 0 0 0 .828.02zm5.118-3.842a.6.6 0 0 0-.807-.888zm4.465-1.167a8 8 0 0 1-.41-.44 1.4 1.4 0 0 1-.208-.301l-1.103.472c.096.223.25.43.392.6.148.176.317.35.47.507zm-.618-.741a1 1 0 0 1-.055-.316c-.013-.171-.013-.355-.017-.584l-1.2.022c.004.196.004.435.02.65.015.212.05.467.15.7zm-.072-.895c-.007-.73 0-1.89-.819-2.709l-.848.849c.418.418.459 1.044.467 1.872zm-.819-2.709c-.819-.819-1.977-.81-2.708-.818l-.012 1.2c.828.008 1.454.049 1.872.467zm-2.703-.818a10 10 0 0 1-.584-.022 1.3 1.3 0 0 1-.332-.057l-.44 1.117c.217.085.463.118.673.136.218.018.452.022.66.026zm-.916-.079a1.3 1.3 0 0 1-.277-.195 9 9 0 0 1-.448-.416l-.838.86c.156.151.335.325.513.474.167.141.382.304.61.394zm-.73-.615C13.926 3.207 13.118 2.4 12 2.4v1.2c.554 0 1.016.398 1.61.967zM12 2.4c-1.117 0-1.925.807-2.44 1.3l.83.867c.594-.569 1.056-.967 1.61-.967zM9.556 3.703a9 9 0 0 1-.44.41c-.144.12-.243.183-.301.208l.472 1.103c.223-.096.43-.25.6-.393.176-.147.35-.316.507-.468zm-.741.618c-.048.02-.143.043-.316.055-.171.013-.355.013-.584.017l.022 1.2c.196-.004.435-.004.65-.02.212-.015.467-.05.7-.15zm-.895.072c-.73.007-1.89 0-2.709.818l.849.849c.418-.418 1.044-.459 1.872-.467zM5.21 5.21c-.819.82-.81 1.978-.818 2.709l1.2.012c.008-.828.049-1.454.467-1.872zm-.818 2.704a10 10 0 0 1-.022.584 1.3 1.3 0 0 1-.057.332l1.117.44c.085-.217.118-.463.136-.673.018-.217.022-.452.026-.66zm-.079.916a1.3 1.3 0 0 1-.195.277c-.118.14-.262.29-.416.448l.86.838a10 10 0 0 0 .474-.513c.141-.167.304-.382.394-.61zm-.615.73C3.207 10.074 2.4 10.882 2.4 12h1.2c0-.554.398-1.016.967-1.61zM2.4 12c0 1.117.807 1.925 1.3 2.44l.867-.83C3.998 13.016 3.6 12.554 3.6 12zm1.303 2.444c.154.157.294.303.41.441.12.143.183.242.208.3l1.103-.472a2.5 2.5 0 0 0-.393-.6 10 10 0 0 0-.468-.507zm.618.741c.02.048.043.143.055.316.013.172.013.354.017.584l1.2-.022c-.004-.196-.004-.435-.02-.65a2.2 2.2 0 0 0-.15-.7zm.072.895c.007.73 0 1.89.818 2.709l.849-.849c-.418-.418-.459-1.044-.467-1.872zm.818 2.709c.82.819 1.978.81 2.709.818l.012-1.2c-.828-.008-1.454-.049-1.872-.467zm2.704.818c.217.004.412.008.584.022.18.015.284.038.332.057l.44-1.117a2.4 2.4 0 0 0-.673-.136c-.217-.018-.452-.022-.66-.026zm.916.079c.037.015.128.069.277.195.14.118.29.262.448.416l.838-.86a10 10 0 0 0-.513-.474c-.167-.141-.382-.304-.61-.394zm.73.614c.514.493 1.322 1.3 2.439 1.3v-1.2c-.554 0-1.016-.398-1.61-.967zM12 21.6c1.117 0 1.925-.807 2.44-1.3l-.83-.867c-.594.569-1.056.967-1.61.967zm2.444-1.303a8 8 0 0 1 .441-.41c.143-.12.242-.183.3-.208l-.472-1.103c-.223.096-.43.25-.6.392a10 10 0 0 0-.507.47zm.741-.618c.048-.02.143-.043.316-.055.172-.013.354-.013.584-.017l-.022-1.2c-.196.004-.435.004-.65.02-.212.015-.467.05-.7.15zm.895-.072c.73-.007 1.89 0 2.709-.819l-.849-.848c-.418.418-1.044.459-1.872.467zm2.709-.819c.819-.819.81-1.977.818-2.708l-1.2-.012c-.008.828-.049 1.454-.467 1.872zm.818-2.703c.004-.217.008-.412.022-.584.015-.18.038-.284.057-.332l-1.117-.44a2.4 2.4 0 0 0-.136.673c-.018.218-.022.452-.026.66zm.079-.916a1.3 1.3 0 0 1 .195-.277c.118-.14.262-.29.416-.448l-.86-.838a10 10 0 0 0-.474.513c-.141.167-.304.382-.394.61zm.614-.73c.493-.514 1.3-1.322 1.3-2.439h-1.2c0 .554-.398 1.016-.967 1.61zM21.6 12c0-1.117-.807-1.925-1.3-2.44l-.867.83c.569.594.967 1.056.967 1.61zm-13.453.846 2.143 2.143.849-.849-2.143-2.142zm2.97 2.163 4.715-4.286-.807-.888-4.714 4.286z"/></svg>