<svg xmlns="http://www.w3.org/2000/svg" width="24" height="24" fill="none"><path fill="#0166FF" d="M12 19.4c-1.903 0-3.27-.001-4.31-.141-1.022-.138-1.638-.4-2.094-.855l-.849.849c.716.715 1.628 1.04 2.784 1.195 1.138.153 2.6.152 4.469.152zM3.4 12c0 1.869-.001 3.33.152 4.469.155 1.156.48 2.068 1.195 2.784l.849-.849c-.456-.456-.717-1.072-.855-2.095C4.601 15.27 4.6 13.903 4.6 12zm16 0c0 1.903-.001 3.27-.141 4.31-.138 1.022-.4 1.638-.855 2.094l.849.849c.715-.716 1.04-1.628 1.195-2.784.153-1.139.152-2.6.152-4.469zM12 20.6c1.869 0 3.33.001 4.469-.152 1.156-.155 2.068-.48 2.784-1.195l-.849-.849c-.456.456-1.072.717-2.095.855-1.04.14-2.406.141-4.309.141zm0-16c1.903 0 3.27.001 4.31.141 1.022.138 1.638.4 2.094.855l.849-.849c-.716-.716-1.628-1.04-2.784-1.195C15.33 3.399 13.869 3.4 12 3.4zm8.6 7.4c0-1.869.001-3.33-.152-4.469-.155-1.156-.48-2.068-1.195-2.784l-.849.849c.456.456.717 1.072.855 2.095.14 1.04.141 2.406.141 4.309zM12 3.4c-1.869 0-3.33-.001-4.469.152-1.156.155-2.068.48-2.784 1.195l.849.849c.456-.456 1.072-.717 2.095-.855C8.73 4.601 10.097 4.6 12 4.6zM4.6 12c0-1.903.001-3.27.141-4.31.138-1.022.4-1.638.855-2.094l-.849-.849c-.716.716-1.04 1.628-1.195 2.784C3.399 8.669 3.4 10.131 3.4 12zM14.6 10.2a.6.6 0 1 0 1.2 0zm-6.4 0a.6.6 0 1 0 1.2 0zm1.8 5.2a.6.6 0 1 0 0 1.2zm4.4 1.2a.6.6 0 1 0 0-1.2zm-4-8H12V7.4h-1.6zm1.6 0h1.6V7.4H12zm.6 7.4V8h-1.2v8zm2-6.222v.422h1.2v-.422zm-6.4 0v.422h1.2v-.422zM13.6 8.6c.397 0 .627.002.79.026a.5.5 0 0 1 .12.03c.01.003.009.004.01.006l.892-.803c-.243-.27-.548-.376-.845-.42-.272-.04-.608-.039-.966-.039zm2.2 1.178c0-.404.002-.761-.033-1.048-.036-.298-.119-.61-.355-.871l-.892.803c.003.002.01.01.02.036.01.03.025.084.036.176.024.198.025.47.025.904zM10.4 7.4c-.358 0-.693-.002-.966.04-.296.043-.601.148-.845.419l.892.803c.002-.002.001-.003.01-.006a.5.5 0 0 1 .12-.03c.164-.024.394-.026.79-.026zm-1 2.378c0-.435.002-.706.026-.904a1 1 0 0 1 .036-.176c.01-.026.017-.034.02-.036l-.893-.803c-.235.262-.319.573-.355.871-.034.287-.033.644-.033 1.048zM10 16.6h2v-1.2h-2zm2 0h2.4v-1.2H12z"/></svg>