<svg width="24" height="24" viewBox="0 0 24 24" fill="none" xmlns="http://www.w3.org/2000/svg">
    <path
        d="M18.4957 10.7087L9.85973 19.5887C9.61973 19.8347 9.22173 19.5497 9.37773 19.2437L12.4517 13.1777C12.475 13.1319 12.4862 13.0809 12.4841 13.0296C12.482 12.9783 12.4668 12.9284 12.4399 12.8846C12.413 12.8408 12.3753 12.8047 12.3305 12.7797C12.2856 12.7547 12.2351 12.7416 12.1837 12.7417H5.71773C5.65867 12.7417 5.60094 12.7242 5.55177 12.6915C5.5026 12.6587 5.46419 12.6122 5.44134 12.5578C5.41848 12.5033 5.41222 12.4433 5.42331 12.3853C5.43441 12.3273 5.46239 12.2739 5.50373 12.2317L13.5137 4.1167C13.7457 3.8817 14.1317 4.1397 14.0027 4.4447L11.7057 9.8597C11.6863 9.90561 11.6786 9.95564 11.6833 10.0053C11.6881 10.0549 11.7051 10.1026 11.7329 10.144C11.7607 10.1854 11.7984 10.2192 11.8425 10.2423C11.8866 10.2655 11.9359 10.2773 11.9857 10.2767L18.2767 10.1987C18.3361 10.1978 18.3944 10.2144 18.4443 10.2466C18.4942 10.2789 18.5334 10.3251 18.5569 10.3796C18.5805 10.4341 18.5873 10.4944 18.5766 10.5528C18.5659 10.6112 18.5381 10.6651 18.4967 10.7077"
        fill="white" />
</svg>
