<svg xmlns="http://www.w3.org/2000/svg" width="20" height="20" fill="none"><circle cx="10.001" cy="10.001" r="6.667" stroke="#494949" stroke-width="1.2"/><path stroke="#494949" stroke-linecap="round" stroke-width="1.2" d="M8 12.666c.567.42 1.256.667 2 .667s1.433-.247 2-.667"/><path fill="#494949" d="M12.667 9c0 .552-.298 1-.666 1s-.667-.448-.667-1 .299-1 .667-1 .666.448.666 1"/><ellipse cx="8.001" cy="9" fill="#494949" rx=".667" ry="1"/><path stroke="#494949" stroke-linecap="round" stroke-linejoin="round" stroke-width="1.2" d="M16.667 8.334s2.083.515 2.083 2.333c0 1.667-2.5 2.25-2.5 2.25M3.333 8.334s-2.083.5-2.083 2.333 2.5 2.25 2.5 2.25m6.667-9.583 1.25-1.25"/></svg>