<svg xmlns="http://www.w3.org/2000/svg" width="20" height="20" fill="none"><path fill="#0166FF" d="M7.167 9.5a.5.5 0 1 0 0 1zm3.333 1a.5.5 0 0 0 0-1zM7.167 6.833a.5.5 0 1 0 0 1zm2 1a.5.5 0 0 0 0-1zm-2 4.333a.5.5 0 0 0 0 1zm5.333 1a.5.5 0 1 0 0-1zm2.719 2.72-.354-.354zm-.354-11.418a.5.5 0 1 0 .707-.708zm1.63 8.206a.5.5 0 0 0-1-.015zM13.674 7.9a.5.5 0 0 0-.683.73zm.801 1.432-.341.366a.5.5 0 0 0 .682 0l-.34-.366Zm3.198-2.301a.5.5 0 1 0-.682-.731zM7.167 10.5H10.5v-1H7.167zm0-2.667h2v-1h-2zm0 5.333H12.5v-1H7.167zm2.166-9.333h1.334v-1H9.333zm1.334 12.333H9.333v1h1.334zM4.5 11.333V8.666h-1v2.667zm4.833 4.833c-1.27 0-2.174 0-2.86-.093-.67-.09-1.056-.26-1.338-.541l-.707.707c.498.499 1.131.72 1.913.825.767.103 1.75.102 2.992.102zM3.5 11.333c0 1.243-.001 2.226.102 2.993.105.781.327 1.414.826 1.913l.707-.707c-.283-.282-.452-.669-.542-1.34-.092-.685-.093-1.588-.093-2.859zm7.167 5.833c1.243 0 2.225.001 2.992-.102.782-.105 1.415-.326 1.913-.825l-.707-.707c-.282.282-.668.451-1.339.541-.685.092-1.588.093-2.86.093v1Zm0-13.333c1.27 0 2.174.001 2.86.093.67.09 1.056.26 1.338.542l.707-.708c-.498-.498-1.131-.72-1.913-.825-.767-.103-1.75-.102-2.992-.102zm-1.334-1c-1.243 0-2.225-.001-2.992.102-.782.105-1.415.327-1.913.825l.707.708c.282-.283.668-.452 1.339-.542.685-.092 1.588-.093 2.86-.093zM4.5 8.666c0-1.27.001-2.174.093-2.86.09-.67.26-1.056.542-1.338l-.707-.708c-.5.5-.72 1.132-.826 1.914C3.5 6.44 3.5 7.424 3.5 8.666zm10.994 3.993c-.024 1.688-.165 2.409-.629 2.873l.707.707c.794-.794.899-1.947.922-3.565zm-2.502-4.027 1.143 1.067.682-.732-1.143-1.066zm1.825 1.067 2.857-2.667-.682-.731-2.857 2.666z"/></svg>