<svg xmlns="http://www.w3.org/2000/svg" width="24" height="24" fill="none"><path fill="#0166FF" d="m14.431 6.15.43-.418zm2.69 2.768-.43.418zm1.566 1.97-.56.219zM6.124 19.18l.452-.395zm12.002 0-.452-.395zm-4.642.31h-2.718v1.2h2.718zm-7.556-5.614V10.77h-1.2v3.107zm12.394-.34v.34h1.2v-.34zM14 6.569l2.69 2.768.861-.837-2.69-2.767zm5.52 6.969c0-1.315.01-2.133-.275-2.866l-1.118.436c.184.473.194 1.019.194 2.43zm-2.83-4.201c.92.945 1.256 1.306 1.437 1.77l1.118-.435c-.29-.742-.84-1.293-1.694-2.172zm-5.905-4.181c1.087 0 1.455.011 1.784.155l.482-1.099c-.612-.268-1.28-.256-2.266-.256zm4.075.577c-.73-.752-1.206-1.256-1.81-1.52L12.57 5.31c.337.148.629.433 1.43 1.258zM10.766 19.49c-1.301 0-2.208-.001-2.892-.106-.658-.102-1.025-.287-1.298-.599l-.903.79c.523.599 1.196.868 2.018.995.797.122 1.812.12 3.075.12zm-6.038-5.614c0 1.45 0 2.59.104 3.48.106.899.328 1.633.84 2.22l.904-.79c-.283-.324-.46-.778-.552-1.57-.095-.803-.096-1.86-.096-3.34zm8.756 6.814c1.263 0 2.278.002 3.075-.12.822-.127 1.495-.396 2.018-.995l-.903-.79c-.273.312-.64.497-1.297.599-.685.105-1.592.106-2.893.106zm4.838-6.814c0 1.48-.001 2.537-.096 3.34-.093.792-.269 1.246-.552 1.57l.903.79c.513-.587.735-1.321.841-2.22.105-.89.104-2.03.104-3.48zM5.928 10.77c0-1.48.001-2.536.096-3.34.093-.792.269-1.246.552-1.57l-.903-.79c-.513.587-.735 1.321-.841 2.22-.105.89-.104 2.03-.104 3.48zm4.858-6.814c-1.27 0-2.29-.002-3.09.12-.825.127-1.5.396-2.023.995l.903.79c.272-.312.64-.497 1.302-.598.688-.106 1.6-.107 2.908-.107zm1.419.988v1.942h1.2V4.943zm3.998 6.426h2.719v-1.2h-2.719zm-3.998-4.484c0 .9-.001 1.629.066 2.201.068.582.216 1.093.58 1.51l.903-.79c-.134-.154-.235-.385-.291-.86-.057-.486-.058-1.13-.058-2.061zm3.998 3.284c-.82 0-1.367-.002-1.773-.064-.38-.059-.552-.159-.676-.3l-.903.79c.374.428.851.612 1.396.696.52.08 1.174.078 1.956.078z"/></svg>