<svg xmlns="http://www.w3.org/2000/svg" width="24" height="24" fill="none"><path fill="#0E0E0E" d="m19.135 12.403-.418.275zm1.06 1.608.417-.275zm-16.364 0 .418.275zm1.06-1.608-.417-.275zm13.85 5.536-.134-.482zm-13.455 0 .133-.482zm3.044.749a.5.5 0 1 0-.938.347zm8.304.347a.5.5 0 1 0-.938-.347zM12.513 7.957a.5.5 0 0 0-1 0zm-1 5.248a.5.5 0 1 0 1 0zm-2.095-3.124a.5.5 0 1 0 0 1zm5.19 1a.5.5 0 0 0 0-1zm3.364-1.55v.657h1v-.657zm.745 3.147 1.06 1.608.835-.55-1.06-1.608zM4.25 14.287l1.06-1.607-.835-.55-1.06 1.607zm1.805-4.098v-.657h-1v.657zm12.553 7.27a24.8 24.8 0 0 1-13.188 0l-.266.963a25.8 25.8 0 0 0 13.72 0zM5.31 12.677a4.53 4.53 0 0 0 .745-2.49h-1c0 .691-.202 1.366-.58 1.94zm12.663-2.49c0 .886.259 1.753.745 2.49l.835-.55a3.53 3.53 0 0 1-.58-1.94zM3.414 13.736c-1.152 1.747-.277 4.13 1.739 4.685l.266-.964c-1.351-.372-1.954-1.982-1.17-3.17zm16.363.55c.784 1.19.181 2.799-1.17 3.171l.266.964c2.016-.556 2.891-2.938 1.74-4.685zM12.013 3.5c3.286 0 5.959 2.695 5.959 6.031h1c0-3.878-3.11-7.031-6.959-7.031zm0-1c-3.848 0-6.959 3.153-6.959 7.031h1c0-3.336 2.673-6.031 5.959-6.031zm-4.62 16.535c.678 1.832 2.5 3.126 4.62 3.126v-1c-1.713 0-3.153-1.044-3.683-2.473zm4.62 3.126c2.12 0 3.942-1.294 4.62-3.126l-.937-.347c-.53 1.43-1.97 2.473-3.683 2.473zm-.5-14.204v2.624h1V7.957zm0 2.624v2.624h1v-2.624zm.5-.5H9.418v1h2.595zm0 1h2.595v-1h-2.595z"/></svg>