<svg xmlns="http://www.w3.org/2000/svg" width="24" height="24" fill="none"><path fill="#0166FF" d="M4.105 11.924a.6.6 0 1 0 .79.903zm1.709-.698.395.451zm2.355.078-.424.424zm3.218 3.217.424-.424zm1.923.167.345.49zm.223-.157-.344-.491zm2.8.168-.402.446zm2.016 2.622a.6.6 0 0 0 .802-.892zM12 18.9c-1.785 0-3.063-.001-4.035-.132-.954-.128-1.523-.372-1.942-.79l-.849.848c.68.68 1.544.985 2.631 1.131 1.07.144 2.444.143 4.195.143zM3.9 12c0 1.75-.001 3.124.143 4.195.146 1.087.452 1.952 1.131 2.63l.849-.848c-.42-.419-.663-.988-.791-1.942-.13-.972-.132-2.25-.132-4.035zm15 0c0 1.785-.001 3.063-.132 4.035-.128.954-.372 1.523-.79 1.942l.848.849c.68-.68.985-1.544 1.131-2.631.144-1.07.143-2.444.143-4.195zM12 20.1c1.75 0 3.124.001 4.195-.143 1.087-.146 1.952-.452 2.63-1.131l-.848-.849c-.419.42-.988.663-1.942.791-.972.13-2.25.132-4.035.132zm0-15c1.785 0 3.063.001 4.035.132.954.128 1.523.372 1.942.79l.849-.848c-.68-.68-1.544-.985-2.631-1.131C15.125 3.899 13.75 3.9 12 3.9zm8.1 6.9c0-1.75.001-3.124-.143-4.195-.146-1.087-.452-1.952-1.131-2.63l-.849.848c.42.419.663.988.791 1.942.13.972.132 2.25.132 4.035zM12 3.9c-1.75 0-3.124-.001-4.195.143-1.087.146-1.952.452-2.63 1.131l.848.849c.419-.42.988-.663 1.942-.791.972-.13 2.25-.132 4.035-.132zM5.1 12c0-1.785.001-3.063.132-4.035.128-.954.372-1.523.79-1.942l-.848-.849c-.68.68-.985 1.544-1.131 2.631C3.899 8.875 3.9 10.25 3.9 12zm10.8-3a.9.9 0 0 1-.9.9v1.2A2.1 2.1 0 0 0 17.1 9zm-.9.9a.9.9 0 0 1-.9-.9h-1.2c0 1.16.94 2.1 2.1 2.1zm-.9-.9a.9.9 0 0 1 .9-.9V6.9A2.1 2.1 0 0 0 12.9 9zm.9-.9a.9.9 0 0 1 .9.9h1.2A2.1 2.1 0 0 0 15 6.9zM4.895 12.827l1.314-1.15-.79-.903-1.314 1.15zm2.85-1.099 3.217 3.218.849-.849-3.217-3.217zm5.91 3.45.223-.156-.69-.982-.223.157zm2.276-.033 2.418 2.176.802-.892-2.417-2.176zm-2.053-.123a1.65 1.65 0 0 1 2.053.123l.803-.892a2.85 2.85 0 0 0-3.546-.213zm-2.916-.076a2.1 2.1 0 0 0 2.693.233l-.69-.982a.9.9 0 0 1-1.154-.1zM6.21 11.677a1.125 1.125 0 0 1 1.536.051l.849-.848a2.325 2.325 0 0 0-3.175-.106z"/></svg>