<svg width="20" height="20" viewBox="0 0 20 20" fill="none" xmlns="http://www.w3.org/2000/svg">
<path d="M15.9847 13.0102C16.7033 12.2913 17.107 11.3164 17.107 10.2999C17.107 9.28349 16.7033 8.3087 15.9847 7.58984M11.3934 4.23245C10.4504 3.87978 8.44936 4.99905 6.79336 6.46338H5.56667C4.75333 6.46338 3.97331 6.78652 3.3982 7.36163C2.82309 7.93674 2.5 8.71672 2.5 9.53008V11.0634C2.5 11.8767 2.82309 12.6568 3.3982 13.2319C3.97331 13.807 4.75333 14.1301 5.56667 14.1301H6.79336C8.41103 15.6174 10.4121 16.7137 11.3934 16.3687C13.0034 15.7707 13.2717 12.5354 13.2717 10.2967C13.2717 8.05805 13.0034 4.83045 11.3934 4.23245Z" stroke="white" stroke-width="1.2" stroke-linecap="round" stroke-linejoin="round"/>
</svg>
