<svg width="24" height="24" viewBox="0 0 24 24" fill="none" xmlns="http://www.w3.org/2000/svg">
<path d="M11.1992 15.9996H21.5992M21.5992 7.99963L11.1992 7.99963M5.59922 13.5996C6.9247 13.5996 7.99922 14.6741 7.99922 15.9996C7.99922 17.3251 6.9247 18.3996 5.59922 18.3996C4.27374 18.3996 3.19922 17.3251 3.19922 15.9996C3.19922 14.6741 4.27374 13.5996 5.59922 13.5996ZM5.59922 5.59961C4.27374 5.59961 3.19922 6.67413 3.19922 7.99961C3.19922 9.32509 4.27374 10.3996 5.59922 10.3996C6.9247 10.3996 7.99922 9.32509 7.99922 7.99961C7.99922 6.67413 6.9247 5.59961 5.59922 5.59961Z" stroke="#0166FF" stroke-width="1.2" stroke-linecap="round"/>
</svg>
