<svg xmlns="http://www.w3.org/2000/svg" width="24" height="24" fill="none"><path fill="#0166FF" d="m4.937 19.063.425-.424zM19.063 6.538l.424-.425zm.331 3.97a.6.6 0 0 0 1.2-.015zm-10.4 10.088a.6.6 0 1 0 .012-1.2zM7.4 5.6a.6.6 0 0 0 1.2 0zm1.2-1.2a.6.6 0 0 0-1.2 0zm6.8 1.2a.6.6 0 1 0 1.2 0zm1.2-1.2a.6.6 0 1 0-1.2 0zM4.4 9a.6.6 0 0 0 0 1.2zm15.2 1.2a.6.6 0 1 0 0-1.2zM16 17h-.6a.6.6 0 0 0 .176.425zm.6-1.6a.6.6 0 1 0-1.2 0zm-.024 3.025a.6.6 0 0 0 .848-.849zM10.4 6.2h3.2V5h-3.2zm-5.8 7.4V12H3.4v1.6zm-1.2 0c0 1.492-.001 2.67.123 3.592.126.938.391 1.697.99 2.295l.849-.848c-.34-.339-.542-.802-.65-1.607-.11-.822-.112-1.906-.112-3.432zm10.2-7.4c1.526 0 2.61.002 3.431.112.805.108 1.269.311 1.608.65l.848-.849c-.599-.598-1.358-.864-2.296-.99-.92-.124-2.1-.123-3.591-.123zM10.4 5c-1.492 0-2.67 0-3.591.123-.938.126-1.697.392-2.296.99l.849.849c.338-.339.802-.542 1.607-.65.822-.11 1.906-.112 3.431-.112zm-5.8 7c0-1.525.001-2.609.112-3.43.108-.806.311-1.27.65-1.608l-.849-.849c-.599.6-.864 1.358-.99 2.296-.124.92-.123 2.1-.123 3.591zm15.994-1.507c-.024-1.998-.14-3.413-1.107-4.38l-.848.849c.567.567.73 1.452.755 3.546zM9.006 19.396c-1.055-.011-1.824-.05-2.416-.17-.577-.117-.945-.304-1.228-.587l-.849.848c.496.497 1.105.766 1.838.915.716.145 1.589.183 2.643.194zM8.6 5.6V4.4H7.4v1.2zm8 0V4.4h-1.2v1.2zM4.4 10.2h15.2V9H4.4zm15 6.8a3.4 3.4 0 0 1-3.4 3.4v1.2a4.6 4.6 0 0 0 4.6-4.6zM16 20.4a3.4 3.4 0 0 1-3.4-3.4h-1.2a4.6 4.6 0 0 0 4.6 4.6zM12.6 17a3.4 3.4 0 0 1 3.4-3.4v-1.2a4.6 4.6 0 0 0-4.6 4.6zm3.4-3.4a3.4 3.4 0 0 1 3.4 3.4h1.2a4.6 4.6 0 0 0-4.6-4.6zm.6 3.4v-1.6h-1.2V17zm-1.024.425 1 1 .848-.849-1-1z"/></svg>