<svg xmlns="http://www.w3.org/2000/svg" width="34" height="34" fill="none"><g clip-path="url(#a)"><path fill="#0166FF" d="M17 34C3.496 34 0 30.506 0 17S3.496 0 17 0s17 3.495 17 17c0 13.506-3.496 17-17 17"/><path fill="#fff" d="M17 30C6.674 30 4 27.328 4 17S6.674 4 17 4s13 2.672 13 13-2.674 13-13 13"/><g clip-path="url(#b)"><path fill="#0166FF" fill-rule="evenodd" d="M24.81 9a10 10 0 0 0-7.143 3h-1.916a2.75 2.75 0 0 0-2.75 2.75V17h2l2 2v2h2.25a2.75 2.75 0 0 0 2.75-2.75v-1.916a10 10 0 0 0 3-7.142V9zm-9.369 6.5a10 10 0 0 1 1.015-2h-.705c-.69 0-1.25.56-1.25 1.25v.75zm3.06 4v-.94a10 10 0 0 0 2-1.015v.705c0 .69-.56 1.25-1.25 1.25zm4.88-8.88a8.5 8.5 0 0 0-6.71 5.928l.782.783a8.5 8.5 0 0 0 5.928-6.71zm-11.6 8.66a.75.75 0 1 0-1.06-1.06l-1.5 1.5a.75.75 0 1 0 1.06 1.06zm3 1a.75.75 0 1 0-1.06-1.06l-4.5 4.5a.75.75 0 1 0 1.06 1.06zm1 1.94a.75.75 0 0 1 0 1.06l-1.5 1.5a.75.75 0 0 1-1.06-1.06l1.5-1.5a.75.75 0 0 1 1.06 0" clip-rule="evenodd"/></g></g><defs><clipPath id="a"><path fill="#fff" d="M0 0h34v34H0z"/></clipPath><clipPath id="b"><path fill="#fff" d="M9 9h16v16H9z"/></clipPath></defs></svg>