<svg width="24" height="24" viewBox="0 0 24 24" fill="none" xmlns="http://www.w3.org/2000/svg">
<path d="M15.1249 12.0001C15.0166 12.0001 14.8999 11.9834 14.7916 11.9501C14.5844 11.8801 14.4044 11.7466 14.2773 11.5686C14.1501 11.3906 14.0823 11.1771 14.0833 10.9584V9.49173C12.9166 9.38339 11.9999 8.40005 11.9999 7.20838V4.29169C11.9999 3.02501 13.0249 2 14.2916 2H19.7083C20.975 2 22 3.02501 22 4.29169V7.20838C22 8.47505 20.975 9.50006 19.7083 9.50006H17.525L15.9583 11.5834C15.7583 11.8501 15.4499 12.0001 15.1249 12.0001ZM14.2916 3.25001C13.7166 3.25001 13.2499 3.71668 13.2499 4.29169V7.20838C13.2499 7.78338 13.7166 8.25005 14.2916 8.25005H15.3333V10.3334L16.9 8.25005H19.7166C20.2917 8.25005 20.7583 7.78338 20.7583 7.20838V4.29169C20.7583 3.71668 20.2917 3.25001 19.7166 3.25001H14.2916ZM8.24989 14.0834C7.31125 14.0812 6.41168 13.7074 5.74796 13.0437C5.08424 12.3799 4.71039 11.4804 4.70819 10.5417C4.71039 9.6031 5.08424 8.70353 5.74796 8.03981C6.41168 7.37609 7.31125 7.00224 8.24989 7.00004C9.18853 7.00224 10.0881 7.37609 10.7518 8.03981C11.4155 8.70353 11.7894 9.6031 11.7916 10.5417C11.7894 11.4804 11.4155 12.3799 10.7518 13.0437C10.0881 13.7074 9.18853 14.0812 8.24989 14.0834ZM8.24989 8.25005C6.98321 8.25005 5.9582 9.27506 5.9582 10.5417C5.9582 11.8084 6.98321 12.8334 8.24989 12.8334C9.51657 12.8334 10.5416 11.8084 10.5416 10.5417C10.5416 9.27506 9.51657 8.25005 8.24989 8.25005ZM3.22568 20.2668C4.31736 21.4168 6.00904 22.0002 8.25072 22.0002C10.4924 22.0002 12.1841 21.4168 13.2758 20.2668C14.5441 18.9251 14.5033 17.306 14.5008 17.1968V17.1918C14.5008 16.1668 13.6674 15.3334 12.6424 15.3334H3.85902C2.83401 15.3334 2.00067 16.1668 2.00067 17.1585V17.1693C1.99734 17.3276 1.96567 18.9335 3.22568 20.2668ZM3.25068 17.1918C3.25068 16.8585 3.52568 16.5835 3.85902 16.5835H12.6424C12.9758 16.5835 13.2508 16.8585 13.2508 17.2251V17.2268C13.2329 18.0376 12.9187 18.8137 12.3674 19.4085C11.5257 20.3001 10.1257 20.7502 8.25072 20.7502C6.37571 20.7502 5.0007 20.3085 4.15069 19.4251C3.57798 18.8257 3.25601 18.03 3.25068 17.201V17.1918Z" fill="#0166FF"/>
</svg>
