<svg xmlns="http://www.w3.org/2000/svg" width="24" height="24" fill="none"><path stroke="#BC3B30" stroke-linecap="round" stroke-linejoin="round" stroke-width="1.2" d="M17.56 7.55v7.5M12 2.25a.4.4 0 0 1 .13 0l8.04 2.41a.465.465 0 0 1 .33.44V13a7.5 7.5 0 0 1-2.435 5.6c-1.5 1.42-3.585 2.415-5.935 3.11a.43.43 0 0 1-.26 0c-2.35-.695-4.425-1.69-5.935-3.11A7.5 7.5 0 0 1 3.5 13V5.1a.465.465 0 0 1 .33-.44l8.04-2.39a.4.4 0 0 1 .13 0zm-4.455 7.6a1.435 1.435 0 1 1 0 2.87 1.435 1.435 0 0 1 0-2.87m3.65 0a1.435 1.435 0 1 1 0 2.87 1.435 1.435 0 0 1 0-2.87m3.645 0a1.435 1.435 0 1 1 0 2.87 1.435 1.435 0 0 1 0-2.87"/></svg>