<svg width="24" height="25" viewBox="0 0 24 25" fill="none" xmlns="http://www.w3.org/2000/svg">
<g id="lets-icons:folder-open">
<g id="Group">
<path id="Vector" d="M16 20.5H7.2C6.08 20.5 5.52 20.5 5.092 20.282C4.71569 20.0903 4.40974 19.7843 4.218 19.408C4 18.98 4 18.42 4 17.3V7.7C4 6.58 4 6.02 4.218 5.592C4.40974 5.21569 4.71569 4.90974 5.092 4.718C5.52 4.5 6.08 4.5 7.2 4.5H8.675C9.164 4.5 9.408 4.5 9.638 4.555C9.84241 4.60407 10.0378 4.68507 10.217 4.795C10.418 4.918 10.591 5.091 10.937 5.437L11.063 5.563C11.409 5.909 11.582 6.082 11.783 6.205C11.9637 6.315 12.1567 6.395 12.362 6.445C12.592 6.5 12.836 6.5 13.325 6.5H14.8C15.92 6.5 16.48 6.5 16.908 6.718C17.2843 6.90974 17.5903 7.21569 17.782 7.592C18 8.02 18 8.58 18 9.7V10M10 15.5H16M6.316 12.78C6.561 11.962 6.684 11.553 6.927 11.25C7.14141 10.9824 7.42103 10.7744 7.739 10.646C8.1 10.5 8.527 10.5 9.381 10.5H17.699C19.157 10.5 19.886 10.5 20.372 10.804C20.7981 11.0703 21.1083 11.4873 21.241 11.972C21.392 12.525 21.183 13.223 20.764 14.62L19.684 18.22C19.439 19.037 19.316 19.447 19.073 19.75C18.8586 20.0176 18.579 20.2256 18.261 20.354C17.901 20.5 17.473 20.5 16.619 20.5H6.15C5.422 20.5 5.057 20.5 4.814 20.348C4.60113 20.2147 4.4462 20.0063 4.38 19.764C4.304 19.487 4.409 19.138 4.618 18.44L6.316 12.78Z" stroke="#0166FF" stroke-width="1.2" stroke-linecap="round"/>
</g>
</g>
</svg>
