<svg xmlns="http://www.w3.org/2000/svg" width="25" height="24" fill="none"><path stroke="#fff" stroke-width="1.2" d="M6.102 10.4c0-3.017 0-4.525.937-5.463S9.485 4 12.502 4s4.525 0 5.462.937c.938.938.938 2.446.938 5.463v3.2c0 3.017 0 4.525-.938 5.463S15.52 20 12.502 20s-4.526 0-5.463-.937-.937-2.446-.937-5.463z"/><path fill="#fff" d="M12.5 7.5V15zm0 7.5 2.5-2.5zm0 0L10 12.5z"/><path stroke="#fff" stroke-linecap="round" stroke-linejoin="round" stroke-width="1.2" d="M12.5 7.5V15m0 0 2.5-2.5M12.5 15 10 12.5"/><path stroke="#fff" stroke-linecap="round" stroke-width="1.2" d="M14.902 17.6h-4.8"/></svg>