<svg xmlns="http://www.w3.org/2000/svg" width="24" height="24" fill="none"><path stroke="#0166FF" stroke-linecap="round" stroke-width="1.29" d="M10.322 18.387c-1.722 0-2.982-.109-3.903-.295-.925-.187-1.465-.444-1.788-.707C4.035 16.899 4 16.256 4 15.116c0-.742.542-1.547 1.71-2.204 1.147-.646 2.776-1.066 4.612-1.066.598 0 1.174.045 1.719.128M7.488 6.412a2.834 2.834 0 1 1 5.667 0 2.834 2.834 0 0 1-5.667 0Z"/><path stroke="#0166FF" stroke-width="1.29" d="M13.548 15.64c0-1.203 0-1.805.135-2.007.136-.203.674-.396 1.752-.784l.205-.074c.562-.201.843-.302 1.134-.302s.572.1 1.134.302l.205.074c1.078.388 1.617.581 1.752.784.135.202.135.804.135 2.008v.592c0 2.122-1.52 3.152-2.473 3.59-.258.118-.387.178-.753.178-.365 0-.495-.06-.753-.178-.954-.438-2.473-1.468-2.473-3.59z"/></svg>