<svg xmlns="http://www.w3.org/2000/svg" width="20" height="20" fill="none"><path fill="#fff" d="M8.941 6.809c-.525 0-1.051.017-1.576-.005a4.1 4.1 0 0 1-1.477-.362 4 4 0 0 1-1.251-.838c-.283-.285-.524-.615-.77-.935-.255-.333-.492-.681-.743-1.019-.129-.174-.498-.286-.68-.218a.67.67 0 0 0-.436.608c0 1.038-.023 2.077.008 3.113.02.661.181 1.306.405 1.93a7.6 7.6 0 0 0 1.356 2.376 7.3 7.3 0 0 0 2.413 1.876c.632.308 1.295.548 1.995.614.77.072 1.547.082 2.32.114.255.01.336.082.336.34q.003.61.002 1.217c-.002.684.63 1.378 1.365 1.38.598.002 1.03-.232 1.388-.693.197-.255.435-.476.655-.711l2.159-2.306c.5-.533 1.006-1.06 1.497-1.6.245-.271.508-.539.567-.93.072-.486.004-.933-.345-1.307a952 952 0 0 1-1.992-2.137q-.556-.6-1.11-1.202l-1.519-1.656c-.34-.374-.746-.61-1.262-.603-.627.01-1.194.465-1.358 1.089-.049.186-.04.39-.045.586-.007.326 0 .652-.003.977-.001.222-.089.31-.304.311H8.94v-.01zm-5.653-.797c.045.043.082.07.11.107.42.553.967.955 1.563 1.285.785.436 1.633.67 2.53.682 1.044.015 2.09.022 3.135.003.573-.01 1.047-.27 1.298-.809.115-.248.151-.545.174-.824.03-.35-.001-.705.013-1.057.003-.087.06-.21.13-.244.056-.029.192.021.247.08.45.478.886.969 1.332 1.451q.993 1.07 1.991 2.137c.454.486.913.967 1.354 1.463.053.06.055.236.006.304-.131.187-.302.345-.457.514l-1.11 1.203q-1.009 1.084-2.02 2.165c-.356.38-.725.748-1.07 1.138-.105.117-.218.12-.325.088-.047-.014-.078-.152-.081-.234-.02-.456-.026-.912-.044-1.368-.027-.679-.669-1.268-1.297-1.297a49 49 0 0 0-1.612-.04 5.7 5.7 0 0 1-1.985-.397 5.83 5.83 0 0 1-2.7-2.059c-.918-1.267-1.319-2.697-1.182-4.291"/></svg>