<svg width="24" height="24" viewBox="0 0 24 24" fill="none" xmlns="http://www.w3.org/2000/svg">
<path d="M5.3112 5.66607H18.6445C18.8003 5.66602 18.9559 5.6759 19.1104 5.69565C19.058 5.32805 18.9317 4.97487 18.7392 4.6574C18.5466 4.33992 18.2918 4.06472 17.99 3.8484C17.6882 3.63208 17.3457 3.47911 16.9832 3.39872C16.6207 3.31833 16.2457 3.31218 15.8808 3.38065L4.91536 5.25273H4.90286C4.21456 5.38436 3.60247 5.77379 3.19161 6.34148C3.81061 5.9012 4.55159 5.66509 5.3112 5.66607ZM18.6445 6.66607H5.3112C4.60419 6.66684 3.92636 6.94804 3.42643 7.44797C2.9265 7.9479 2.6453 8.62573 2.64453 9.33273V17.3327C2.6453 18.0397 2.9265 18.7176 3.42643 19.2175C3.92636 19.7174 4.60419 19.9986 5.3112 19.9994H18.6445C19.3515 19.9986 20.0294 19.7174 20.5293 19.2175C21.0292 18.7176 21.3104 18.0397 21.3112 17.3327V9.33273C21.3104 8.62573 21.0292 7.9479 20.5293 7.44797C20.0294 6.94804 19.3515 6.66684 18.6445 6.66607ZM16.6654 14.6661C16.4017 14.6661 16.1439 14.5879 15.9246 14.4414C15.7053 14.2949 15.5344 14.0866 15.4335 13.843C15.3326 13.5993 15.3062 13.3313 15.3576 13.0726C15.4091 12.814 15.5361 12.5764 15.7226 12.3899C15.909 12.2035 16.1466 12.0765 16.4052 12.025C16.6639 11.9736 16.932 12 17.1756 12.1009C17.4192 12.2018 17.6275 12.3727 17.774 12.592C17.9205 12.8112 17.9987 13.069 17.9987 13.3327C17.9987 13.6864 17.8582 14.0255 17.6082 14.2755C17.3581 14.5256 17.019 14.6661 16.6654 14.6661Z" fill="white"/>
<path d="M2.66797 12.1457V7.99984C2.66797 7.09692 3.16797 5.58317 4.90339 5.25525C6.3763 4.979 7.83464 4.979 7.83464 4.979C7.83464 4.979 8.79297 5.64567 8.0013 5.64567C7.20964 5.64567 7.23047 6.6665 8.0013 6.6665C8.77214 6.6665 8.0013 7.64567 8.0013 7.64567L4.89714 11.1665L2.66797 12.1457Z" fill="white"/>
</svg>
