<svg xmlns="http://www.w3.org/2000/svg" width="36" height="36" fill="none"><path fill="#fff" d="M17.65 18a3.15 3.15 0 1 1 6.3 0 3.15 3.15 0 0 1-6.3 0"/><path fill="#fff" fill-rule="evenodd" d="M6.05 6.05C4 8.1 4 11.4 4 18s0 9.9 2.05 11.95S11.4 32 18 32s9.9 0 11.95-2.05S32 24.6 32 18s0-9.9-2.05-11.95S24.6 4 18 4 8.1 4 6.05 6.05m4.6 4.95a1.05 1.05 0 1 0-2.1 0v14a1.05 1.05 0 1 0 2.1 0zm5.293.658a1.05 1.05 0 0 0-1.485 1.485l1.962 1.962c-.55.83-.87 1.825-.87 2.895s.32 2.065.87 2.895l-1.963 1.963a1.05 1.05 0 0 0 1.486 1.485l1.962-1.963c.83.55 1.825.87 2.895.87s2.065-.32 2.895-.87l1.962 1.963a1.05 1.05 0 0 0 1.485-1.485l-1.962-1.963c.55-.83.87-1.825.87-2.895s-.32-2.065-.87-2.895l1.962-1.963a1.05 1.05 0 0 0-1.485-1.484l-1.962 1.962a5.23 5.23 0 0 0-2.895-.87c-1.07 0-2.065.32-2.895.87z" clip-rule="evenodd"/></svg>