<svg xmlns="http://www.w3.org/2000/svg" width="24" height="24" fill="none"><path fill="#0166FF" d="M12.179 7.143a.75.75 0 0 0-1.5 0zm-.75 6h-.75c0 .25.125.485.333.624zm3.012 2.91a.75.75 0 0 0 .832-1.248zM12 3.25c-4.83 0-8.75 3.92-8.75 8.75h1.5A7.25 7.25 0 0 1 12 4.75zM3.25 12c0 4.83 3.92 8.75 8.75 8.75v-1.5A7.25 7.25 0 0 1 4.75 12zM12 20.75c4.83 0 8.75-3.92 8.75-8.75h-1.5A7.25 7.25 0 0 1 12 19.25zM20.75 12c0-4.83-3.92-8.75-8.75-8.75v1.5A7.25 7.25 0 0 1 19.25 12zM10.679 7.143v6h1.5v-6zm.333 6.624 3.43 2.286.831-1.248-3.428-2.286z"/></svg>