<svg xmlns="http://www.w3.org/2000/svg" width="24" height="24" fill="none"><path fill="#0166FF" fill-rule="evenodd" d="M10.226 4.08a.593.593 0 0 1-.579.606c-2.231.05-3.282.276-3.976.97-.45.45-.71 1.06-.845 2.073-.139 1.029-.14 2.38-.14 4.263 0 1.882.001 3.234.14 4.264.136 1.011.394 1.622.845 2.072.451.451 1.062.71 2.074.846 1.029.139 2.38.14 4.263.14 1.882 0 3.234-.001 4.263-.14 1.012-.136 1.622-.395 2.073-.846.694-.693.92-1.744.97-3.975a.593.593 0 1 1 1.186.027c-.05 2.187-.247 3.717-1.317 4.787-.708.708-1.61 1.03-2.754 1.183-1.117.15-2.549.15-4.376.15h-.09c-1.827 0-3.26 0-4.376-.15-1.144-.154-2.046-.475-2.754-1.183s-1.03-1.61-1.183-2.754c-.15-1.117-.15-2.549-.15-4.376v-.09c0-1.827 0-3.26.15-4.376.154-1.144.475-2.046 1.183-2.754 1.07-1.07 2.6-1.267 4.787-1.317a.593.593 0 0 1 .606.58m5.934.606a3.147 3.147 0 0 0-3.155 3.14 2.8 2.8 0 0 0 .339 1.322l.007.013a.59.59 0 0 1-.083.732l-4.534 4.515a.36.36 0 0 0-.092.177.14.14 0 0 0 .004.07.3.3 0 0 0 .088.128l.502.499a.44.44 0 0 0 .175.076q.044.006.065-.002a.2.2 0 0 0 .077-.053l.61-.607a.593.593 0 0 1 .837 0c.091.09.167.128.221.144a.33.33 0 0 0 .164.008.52.52 0 0 0 .288-.17c.072-.104.07-.194.035-.296a.7.7 0 0 0-.096-.183l-.003-.004a.593.593 0 0 1 .036-.801l.174-.174a.593.593 0 0 1 .837 0c.304.303.505.299.602.28a.6.6 0 0 0 .332-.211.4.4 0 0 0 .065-.346.7.7 0 0 0-.073-.177v-.002l-.023-.031-.021-.042a.4.4 0 0 0-.058-.075l-.007-.007c-.03-.031-.132-.14-.195-.253a.77.77 0 0 1-.045-.67c.073-.186.206-.34.33-.462l.522-.52a.593.593 0 0 1 .797-.037c.095.079.297.163.585.223.27.056.54.074.693.074a3.147 3.147 0 0 0 3.154-3.139c0-1.731-1.41-3.139-3.154-3.139m-3.252 9.984a1.5 1.5 0 0 1-.275.705l-.005.005-.004.006a1.7 1.7 0 0 1-1.016.627c-.31.06-.642.026-.96-.127l-.258.258a1.32 1.32 0 0 1-1.152.387 1.6 1.6 0 0 1-.818-.387l-.522-.521c-.382-.38-.493-.825-.427-1.23a1.55 1.55 0 0 1 .427-.826l4.23-4.214-.054-.139a4 4 0 0 1-.255-1.389 4.333 4.333 0 0 1 4.34-4.325A4.333 4.333 0 0 1 20.5 7.825a4.333 4.333 0 0 1-4.34 4.325c-.225 0-.575-.025-.933-.099-.19-.04-.411-.098-.625-.189l-.115.115a1.4 1.4 0 0 1 .102.162q.03.045.068.12c.05.098.11.238.151.408.084.35.085.841-.258 1.319l-.004.006-.004.005a1.78 1.78 0 0 1-1.063.669 1.6 1.6 0 0 1-.57.004m3.252-7.554a.71.71 0 0 0-.715.71c0 .388.318.708.715.708s.714-.32.714-.709a.71.71 0 0 0-.714-.709m-1.9.71c0-1.05.852-1.896 1.9-1.896 1.047 0 1.9.846 1.9 1.895a1.9 1.9 0 0 1-1.9 1.895c-1.048 0-1.9-.846-1.9-1.895" clip-rule="evenodd"/></svg>