<svg xmlns="http://www.w3.org/2000/svg" width="24" height="24" fill="none"><path stroke="#0E0E0E" stroke-linecap="round" stroke-width="1.4" d="M7.429 17.603C5.535 17.603 4 16.086 4 14.214c0-1.87 1.535-3.388 3.429-3.388q.341 0 .664.064m5.812-2.065c.476-.167.99-.258 1.524-.258.523 0 1.027.087 1.495.248M8.093 10.89a4.5 4.5 0 0 1-.283-1.57c0-2.495 2.046-4.517 4.571-4.517 2.352 0 4.289 1.755 4.543 4.012M8.093 10.89c.451.087.871.263 1.24.507m7.591-2.582c1.79.612 3.076 2.293 3.076 4.27 0 2.166-1.542 3.975-3.6 4.415"/><path stroke="#0E0E0E" stroke-linecap="round" stroke-linejoin="round" stroke-width="1.4" d="M12 15.202v4.8m0-4.8 1.6 1.6m-1.6-1.6-1.6 1.6"/></svg>