<svg xmlns="http://www.w3.org/2000/svg" width="24" height="24" fill="none"><path stroke="#0166FF" stroke-width="1.5" d="M4.8 10.733c0-2.558 0-3.837.303-4.267.302-.43 1.504-.842 3.91-1.665l.458-.157c1.254-.43 1.88-.644 2.53-.644s1.276.215 2.53.644l.458.157c2.405.823 3.608 1.235 3.91 1.665s.302 1.71.302 4.267v1.26c0 4.51-3.391 6.7-5.52 7.629-.576.252-.865.378-1.68.378-.816 0-1.104-.126-1.681-.378-2.128-.93-5.52-3.119-5.52-7.629z"/><path stroke="#0166FF" stroke-linecap="round" stroke-linejoin="round" stroke-width="1.4" d="m8.5 12 2.333 2.5 4.667-5"/></svg>