<svg xmlns="http://www.w3.org/2000/svg" width="24" height="24" fill="none"><path fill="#0166FF" fill-rule="evenodd" d="M12 21c-4.243 0-6.364 0-7.682-1.318S3 16.242 3 12s0-6.364 1.318-7.682S7.758 3 12 3s6.364 0 7.682 1.318S21 7.758 21 12s0 6.364-1.318 7.682S16.242 21 12 21M10.362 7.4c-.344 0-.665 0-.928.04-.296.043-.601.148-.845.419-.235.262-.319.573-.355.871a9 9 0 0 0-.033 1.014v.456a.6.6 0 1 0 1.2 0v-.422c0-.435 0-.706.025-.904a1 1 0 0 1 .036-.176c.01-.026.017-.034.019-.036q0-.002.01-.006a.5.5 0 0 1 .12-.03c.164-.024.394-.026.79-.026h1v6.8H10a.6.6 0 1 0 0 1.2h4.4a.6.6 0 1 0 0-1.2h-1.8V8.6h1c.396 0 .626.002.789.026a.5.5 0 0 1 .13.035c.002.003.01.01.02.037.01.03.025.084.036.176.024.198.025.47.025.904v.422a.6.6 0 1 0 1.2 0v-.456c0-.39 0-.735-.034-1.014-.036-.298-.119-.61-.355-.871-.243-.27-.548-.376-.845-.42-.262-.04-.584-.04-.928-.039z" clip-rule="evenodd"/></svg>