<svg xmlns="http://www.w3.org/2000/svg" width="24" height="24" fill="none"><path stroke="#727689" stroke-width="1.095" d="M8.825 4.001q.129.006.252.04c.309.081.593.284.82.589.327.439.491 1.02.461 1.637-.057 1.186-.856 2.152-1.744 2.11-.404-.019-.785-.242-1.072-.628-.327-.439-.49-1.02-.461-1.637.057-1.186.856-2.153 1.744-2.11Zm6.57 0q.128.006.252.04c.308.081.593.284.82.589.327.439.49 1.02.46 1.637-.057 1.186-.855 2.152-1.744 2.11-.403-.019-.784-.242-1.071-.628-.328-.439-.491-1.02-.461-1.637.057-1.186.856-2.153 1.744-2.11ZM4.448 9.475q.128.006.252.04c.308.08.593.284.82.588.327.44.49 1.02.46 1.637-.057 1.186-.855 2.153-1.744 2.11-.403-.018-.784-.241-1.071-.627-.327-.44-.491-1.02-.461-1.637.057-1.187.856-2.153 1.744-2.111Zm15.324 0q.129.006.253.04c.308.08.592.284.82.588.326.44.49 1.02.46 1.637-.057 1.186-.856 2.153-1.744 2.11-.404-.018-.785-.241-1.072-.627-.327-.44-.49-1.02-.461-1.637.057-1.187.856-2.153 1.744-2.111Zm-3.948 10.938c.284-.14.53-.345.721-.597a2.04 2.04 0 0 0 .346-1.79l-.78-2.828a4.257 4.257 0 0 0-8.209 0l-.78 2.829a2.052 2.052 0 0 0 1.979 2.598h5.811c.316.001.629-.071.912-.212Z"/></svg>