<svg width="20" height="20" viewBox="0 0 20 20" fill="none" xmlns="http://www.w3.org/2000/svg">
<path d="M10 15.0017V12.5017M10 15.0017C9.55797 15.0017 9.13405 15.1773 8.82149 15.4898C8.50893 15.8024 8.33333 16.2263 8.33333 16.6683M10 15.0017C10.442 15.0017 10.866 15.1773 11.1785 15.4898C11.4911 15.8024 11.6667 16.2263 11.6667 16.6683M10 12.5017C12.9917 12.5017 15.4167 10.0767 15.4167 7.085M10 12.5017C7.00833 12.5017 4.58333 10.0767 4.58333 7.085M10 12.5017C11.1504 12.5017 12.0825 10.0767 12.0825 7.085C12.0825 4.09334 11.1504 1.66833 10 1.66833M10 12.5017C8.84958 12.5017 7.91585 10.0767 7.91585 7.085C7.91585 4.09334 8.84958 1.66833 10 1.66833M8.33333 16.6683H2.5M8.33333 16.6683C8.33333 17.1104 8.50893 17.5343 8.82149 17.8468C9.13405 18.1594 9.55797 18.335 10 18.335C10.442 18.335 10.866 18.1594 11.1785 17.8468C11.4911 17.5343 11.6667 17.1104 11.6667 16.6683M11.6667 16.6683H17.5M15.4167 7.085C15.4167 4.09334 12.9917 1.66833 10 1.66833M15.4167 7.085H4.58333M4.58333 7.085C4.58333 4.09334 7.00833 1.66833 10 1.66833" stroke="#494949" stroke-width="0.8" stroke-linecap="round" stroke-linejoin="round"/>
</svg>
