<svg width="36" height="37" viewBox="0 0 36 37" fill="none" xmlns="http://www.w3.org/2000/svg">
<path fill-rule="evenodd" clip-rule="evenodd" d="M5.6402 8.68414C4 10.3683 4 13.0788 4 18.5C4 23.9212 4 26.6317 5.6402 28.3159C7.2804 30 9.92027 30 15.2 30H20.8C26.0797 30 28.7196 30 30.3598 28.3159C32 26.6317 32 23.9212 32 18.5C32 13.0788 32 10.3683 30.3598 8.68414C28.7196 7 26.0797 7 20.8 7H15.2C9.92027 7 7.2804 7 5.6402 8.68414ZM27.2066 12.0598C27.5779 12.5172 27.5177 13.1971 27.0722 13.5782L23.9971 16.2094C22.7562 17.2713 21.7504 18.1319 20.8628 18.7181C19.9381 19.3288 19.0375 19.7145 18 19.7145C16.9625 19.7145 16.0619 19.3288 15.1372 18.7181C14.2496 18.1319 13.2438 17.2713 12.0029 16.2095L8.92781 13.5782C8.48232 13.1971 8.42212 12.5172 8.79337 12.0598C9.16461 11.6024 9.8267 11.5406 10.2722 11.9218L13.2946 14.5079C14.6008 15.6255 15.5076 16.399 16.2732 16.9046C17.0143 17.394 17.5169 17.5583 18 17.5583C18.4831 17.5583 18.9857 17.394 19.7268 16.9046C20.4924 16.399 21.3992 15.6255 22.7054 14.5079L25.7278 11.9218C26.1733 11.5406 26.8354 11.6024 27.2066 12.0598Z" fill="white"/>
</svg>
