<svg width="36" height="36" viewBox="0 0 36 36" fill="none" xmlns="http://www.w3.org/2000/svg">
<mask id="mask0_63221_190920" style="mask-type:luminance" maskUnits="userSpaceOnUse" x="1" y="1" width="34" height="34">
<path d="M35 18C35 27.3891 27.3891 35 18 35C8.6109 35 1 27.3891 1 18C1 8.6109 8.6109 1 18 1C27.3891 1 35 8.6109 35 18Z" fill="white"/>
<path fill-rule="evenodd" clip-rule="evenodd" d="M17.9937 9.92578C18.3319 9.92578 18.6562 10.0601 18.8953 10.2992C19.1344 10.5383 19.2687 10.8626 19.2687 11.2008V17.4738L23.1447 21.3498C23.27 21.4665 23.3705 21.6073 23.4402 21.7637C23.5099 21.9201 23.5473 22.0889 23.5504 22.2601C23.5534 22.4313 23.5219 22.6013 23.4578 22.7601C23.3936 22.9189 23.2982 23.0631 23.1771 23.1841C23.056 23.3052 22.9118 23.4007 22.7531 23.4648C22.5943 23.5289 22.4243 23.5604 22.2531 23.5574C22.0819 23.5544 21.913 23.5169 21.7566 23.4472C21.6002 23.3775 21.4595 23.2771 21.3428 23.1518L17.0928 18.9018C16.8536 18.6629 16.719 18.3388 16.7188 18.0008V11.2008C16.7187 10.8626 16.8531 10.5383 17.0922 10.2992C17.3313 10.0601 17.6556 9.92578 17.9937 9.92578Z" fill="black"/>
</mask>
<g mask="url(#mask0_63221_190920)">
<path d="M-2.40625 -2.40039H38.3938V38.3996H-2.40625V-2.40039Z" fill="white"/>
</g>
</svg>
