<svg xmlns="http://www.w3.org/2000/svg" width="24" height="24" fill="none"><path fill="#0E0E0E" fill-rule="evenodd" d="M12.002 2.404c-3.818 0-6.916 3.068-6.916 6.849v.622c0 .615-.184 1.219-.528 1.73l-1.025 1.523c-1.19 1.767-.28 4.17 1.789 4.728q1.012.273 2.038.462v.005c.687 1.813 2.52 3.081 4.644 3.081 2.122 0 3.956-1.268 4.642-3.081v-.005q1.027-.189 2.04-.462c2.069-.558 2.977-2.96 1.788-4.728l-1.024-1.523a3.1 3.1 0 0 1-.529-1.73v-.622c-.002-3.781-3.1-6.849-6.92-6.849m3.012 16.162c-2 .237-4.024.237-6.025 0 .634.902 1.738 1.513 3.013 1.513s2.378-.611 3.012-1.513m-8.59-9.313c0-3.051 2.497-5.524 5.578-5.524 3.08 0 5.577 2.473 5.577 5.524v.622c0 .877.262 1.736.754 2.466l1.024 1.523c.683 1.015.16 2.393-1.026 2.714a24.3 24.3 0 0 1-12.66 0c-1.188-.32-1.71-1.7-1.027-2.714l1.024-1.523c.492-.73.754-1.59.754-2.466v-.622z" clip-rule="evenodd"/></svg>