<svg xmlns="http://www.w3.org/2000/svg" width="20" height="20" fill="none"><path fill="#727689" d="M15.704 12.166a.497.497 0 0 0-.49.464l-.003.062c-.028.409-.082.675-.173.894a2.64 2.64 0 0 1-1.426 1.426c-.32.133-.728.182-1.506.196h-.02c-.247.004-.463.008-.643.028a1.4 1.4 0 0 0-.563.17 1.4 1.4 0 0 0-.424.4 7 7 0 0 0-.333.53l-.347.586a.323.323 0 0 1-.547 0l-.346-.585c-.122-.206-.23-.387-.334-.53a1.4 1.4 0 0 0-.423-.4 1.4 1.4 0 0 0-.564-.171c-.18-.02-.396-.024-.643-.028H6.9c-.778-.014-1.186-.063-1.505-.196a2.64 2.64 0 0 1-1.427-1.426c-.09-.219-.144-.485-.172-.894-.028-.413-.029-.936-.029-1.665v-.62c0-1.024 0-1.76.055-2.333.054-.567.158-.928.334-1.215.217-.355.515-.653.87-.87.287-.176.648-.28 1.215-.334.483-.045 1.15-.052 1.961-.052a.468.468 0 0 0 0-.936c-.806.002-1.526.013-2.05.062-.635.06-1.154.186-1.612.467-.48.294-.884.697-1.178 1.177-.28.458-.406.978-.466 1.613-.06.622-.06 1.402-.06 2.396v.662c0 .708 0 1.263.031 1.711.032.456.096.836.241 1.187a3.57 3.57 0 0 0 1.93 1.93c.5.206 1.068.252 1.847.266.272.004.444.008.576.022.123.014.17.034.198.05.03.017.07.049.14.144.074.103.16.246.294.474l.336.568c.48.81 1.669.81 2.149 0l.336-.568c.135-.228.22-.37.295-.474a.5.5 0 0 1 .139-.144.5.5 0 0 1 .198-.05c.132-.014.304-.018.576-.022.779-.014 1.348-.06 1.847-.266a3.57 3.57 0 0 0 1.93-1.93c.145-.351.21-.73.24-1.187q.009-.052.015-.125c.02-.256-.193-.464-.45-.464"/><path fill="#727689" fill-rule="evenodd" d="M5.67 8.42a.5.5 0 0 1 .5-.5h.624a.5.5 0 0 1 0 1H6.17a.5.5 0 0 1-.5-.5M5.67 10.504a.5.5 0 0 1 .5-.5h1.25a.5.5 0 1 1 0 1H6.17a.5.5 0 0 1-.5-.5M5.67 12.587a.5.5 0 0 1 .5-.5h4.166a.5.5 0 0 1 0 1H6.169a.5.5 0 0 1-.5-.5M13.67 4.333a2.833 2.833 0 0 0-2.33 4.448l3.95-3.939a2.8 2.8 0 0 0-1.62-.509m2.327 1.217-3.95 3.94a2.833 2.833 0 0 0 3.95-3.939M9.836 7.166a3.833 3.833 0 1 1 7.666 0 3.833 3.833 0 0 1-7.666 0" clip-rule="evenodd"/></svg>