<svg xmlns="http://www.w3.org/2000/svg" width="24" height="24" fill="none"><path stroke="#0E0E0E" stroke-linecap="round" stroke-linejoin="round" stroke-width="1.2" d="M8 15.38h8M5.75 5.25h12.5a3 3 0 0 1 3 3v7.5a3 3 0 0 1-3 3H5.75a3 3 0 0 1-3-3v-7.5a3 3 0 0 1 3-3"/><path fill="#0E0E0E" d="M7.55 9.375a.75.75 0 1 0 0-1.5.75.75 0 0 0 0 1.5m3 0a.75.75 0 1 0 0-1.5.75.75 0 0 0 0 1.5m3 0a.75.75 0 1 0 0-1.5.75.75 0 0 0 0 1.5m3 0a.75.75 0 1 0 0-1.5.75.75 0 0 0 0 1.5m-9 3a.75.75 0 1 0 0-1.5.75.75 0 0 0 0 1.5m3 0a.75.75 0 1 0 0-1.5.75.75 0 0 0 0 1.5m3 0a.75.75 0 1 0 0-1.5.75.75 0 0 0 0 1.5m3 0a.75.75 0 1 0 0-1.5.75.75 0 0 0 0 1.5"/></svg>