<svg xmlns="http://www.w3.org/2000/svg" width="48" height="48" fill="none"><path fill="#9A9A9A" d="M26.608 5.224c.675 0 1.224-.55 1.224-1.224 0-.675-.549-1.225-1.224-1.225h-5.214a1.226 1.226 0 0 0 0 2.449zM27.176 4a.57.57 0 0 1-.568.568h-1.325c.373-.264.637-.669.72-1.135h.605c.313-.001.568.254.568.567m-8.848 40.263c0 .18.147.328.328.328h10.69a.328.328 0 0 0 0-.657h-10.69a.33.33 0 0 0-.328.329"/><path fill="#9A9A9A" d="M30.957 1.172H17.044a4.776 4.776 0 0 0-4.77 4.77v2.832a.329.329 0 0 0 .656 0V5.943a4.12 4.12 0 0 1 4.114-4.115h13.913a4.12 4.12 0 0 1 4.115 4.115v36.115a4.12 4.12 0 0 1-4.115 4.115H17.044a4.12 4.12 0 0 1-4.114-4.115V11.002a.329.329 0 0 0-.657 0v31.055c0 2.63 2.14 4.771 4.771 4.771h13.913c2.63 0 4.77-2.14 4.77-4.77V5.942c0-2.63-2.14-4.771-4.77-4.771"/><path fill="#E1EAF8" d="M31.43 38.834H16.872c-.81 0-1.467-.658-1.467-1.468v-2.43c0-.636.517-1.153 1.153-1.153h12.91c1.223 0 2.295.814 2.625 1.992l.446 1.594a1.154 1.154 0 0 1-1.11 1.465"/><path stroke="#9A9A9A" stroke-width=".7" d="M17.381 13.35H30.62c1.12 0 2.031.912 2.031 2.041V25.89c0 1.13-.91 2.041-2.031 2.041h-6.526c-.326 0-.64.13-.87.362l-3.31 3.323a.116.116 0 0 1-.197-.084v-2.367c0-.68-.549-1.234-1.23-1.234h-1.105a2.036 2.036 0 0 1-2.031-2.04V15.39c0-1.129.91-2.041 2.031-2.041Z"/><path stroke="#0166FF" stroke-width=".7" d="M20.25 18.357a1.607 1.607 0 1 1 3.214 0v.924c0 .082 0 .168-.02.244a.59.59 0 0 1-.419.42c-.076.02-.162.02-.244.02h-.924c-.887 0-1.607-.72-1.607-1.608Z" clip-rule="evenodd"/><path stroke="#0166FF" stroke-width=".7" d="M25.24 21.036h-.021c-.082 0-.168 0-.244.02a.59.59 0 0 0-.42.419c-.02.076-.02.162-.02.244v.924a1.607 1.607 0 1 0 1.608-1.607z"/><path stroke="#0166FF" stroke-width=".7" d="M22.912 21.041c.072.006.151.02.229.06a.6.6 0 0 1 .259.258c.04.078.053.157.059.229q.006.102.005.234v.82a1.607 1.607 0 1 1-1.607-1.606h.821q.132-.001.234.005ZM24.536 18.357a1.607 1.607 0 1 1 1.607 1.607h-.977q-.052 0-.105-.003a.59.59 0 0 1-.522-.522q-.004-.051-.003-.106v-.976Z" clip-rule="evenodd"/><path fill="#0166FF" d="M5.977 14c-.228 0-.366-.137-.411-.366-.183-.777-.549-1.508-1.143-2.103a4.2 4.2 0 0 0-2.057-1.142.36.36 0 0 1-.366-.366c0-.183.137-.366.366-.412.777-.137 1.508-.548 2.103-1.142.594-.595.96-1.28 1.142-2.103.046-.229.229-.366.412-.366s.366.137.411.366c.183.777.549 1.508 1.143 2.103.594.594 1.28.96 2.103 1.142.229.046.366.229.366.412s-.137.366-.366.411a4.11 4.11 0 0 0-3.2 3.2c-.137.229-.274.366-.503.366m-2.651-3.977a4.6 4.6 0 0 1 1.6 1.051 4.6 4.6 0 0 1 1.051 1.6A4.95 4.95 0 0 1 8.63 9.977a4.6 4.6 0 0 1-1.6-1.051 4.6 4.6 0 0 1-1.052-1.6 4.6 4.6 0 0 1-1.051 1.6 4.2 4.2 0 0 1-1.6 1.097M41.469 38.937A2.46 2.46 0 0 1 39 36.47 2.46 2.46 0 0 1 41.469 34a2.46 2.46 0 0 1 2.468 2.469c0 1.371-1.143 2.468-2.468 2.468m0-4.206c-.96 0-1.783.778-1.783 1.783 0 .96.777 1.783 1.783 1.783.96 0 1.782-.777 1.782-1.783a1.785 1.785 0 0 0-1.782-1.783"/></svg>