<svg width="24" height="24" viewBox="0 0 24 24" fill="none" xmlns="http://www.w3.org/2000/svg">
<path d="M12.648 10.4V8.8C12.648 6.14903 10.499 4 7.848 4C5.61139 4 3.73207 5.52973 3.19922 7.6M10.7996 20H17.1996C19.4623 20 20.5937 20 21.2966 19.2971C21.9996 18.5941 21.9996 17.4628 21.9996 15.2C21.9996 12.9373 21.9996 11.8059 21.2966 11.103C20.5937 10.4 19.4623 10.4 17.1996 10.4H10.7996C8.53682 10.4 7.40545 10.4 6.70251 11.103C5.99956 11.8059 5.99956 12.9373 5.99956 15.2C5.99956 17.4628 5.99956 18.5941 6.70251 19.2971C7.40545 20 8.53682 20 10.7996 20Z" stroke="#FD4E4E" stroke-width="1.5" stroke-linecap="round"/>
<path d="M11.3557 14.878C11.3557 15.363 10.9626 15.7561 10.4776 15.7561C9.99272 15.7561 9.59961 15.363 9.59961 14.878C9.59961 14.3931 9.99272 14 10.4776 14C10.9626 14 11.3557 14.3931 11.3557 14.878Z" fill="#FD4E4E"/>
<path d="M14.8674 14.878C14.8674 15.363 14.4743 15.7561 13.9894 15.7561C13.5044 15.7561 13.1113 15.363 13.1113 14.878C13.1113 14.3931 13.5044 14 13.9894 14C14.4743 14 14.8674 14.3931 14.8674 14.878Z" fill="#FD4E4E"/>
<path d="M18.3791 14.878C18.3791 15.363 17.986 15.7561 17.5011 15.7561C17.0162 15.7561 16.623 15.363 16.623 14.878C16.623 14.3931 17.0162 14 17.5011 14C17.986 14 18.3791 14.3931 18.3791 14.878Z" fill="#FD4E4E"/>
</svg>
