<svg xmlns="http://www.w3.org/2000/svg" width="24" height="24" fill="none"><path fill="#494949" d="M15.5 9.635c0-.35.284-.635.635-.635h2.775a.635.635 0 1 1 0 1.27h-2.775a.635.635 0 0 1-.635-.635"/><path fill="#494949" fill-rule="evenodd" d="M8.593 3a3.851 3.851 0 1 0 0 7.702 3.851 3.851 0 0 0 0-7.702M5.958 6.851a2.635 2.635 0 1 1 5.27 0 2.635 2.635 0 0 1-5.27 0M8.594 11.922c-1.875 0-3.604.427-4.884 1.147-1.262.71-2.21 1.785-2.21 3.11v.083c0 .942-.002 2.124 1.035 2.968.51.416 1.224.712 2.189.907.967.196 2.228.299 3.87.299 1.643 0 2.904-.103 3.871-.3.965-.194 1.679-.49 2.189-.906 1.037-.844 1.036-2.026 1.035-2.968v-.083c0-1.325-.948-2.4-2.21-3.11-1.28-.72-3.009-1.147-4.885-1.147M2.716 16.18c0-.69.504-1.44 1.59-2.05 1.067-.6 2.582-.99 4.288-.99s3.222.39 4.289.99c1.086.61 1.59 1.36 1.59 2.05 0 1.06-.033 1.657-.587 2.108-.3.245-.803.484-1.662.658-.857.173-2.029.274-3.63.274s-2.772-.1-3.629-.274c-.86-.174-1.362-.413-1.662-.658-.554-.45-.587-1.048-.587-2.108" clip-rule="evenodd"/><path fill="#494949" d="M17.7 17.326c1.334-.006 2.54-.33 3.417-1.112.894-.796 1.35-1.979 1.35-3.496v-2.61c0-1.517-.456-2.7-1.35-3.496C20.23 5.823 19.01 5.5 17.66 5.5H14.5v1.202h3.161c1.158 0 2.026.278 2.603.791.568.506.949 1.327.949 2.615v2.61c0 1.288-.38 2.11-.949 2.615-.57.508-1.426.785-2.564.791z"/><path fill="#494949" d="M15.098 6.1a.6.6 0 1 1-1.2 0 .6.6 0 0 1 1.2 0M18.302 16.725a.6.6 0 1 1-1.2 0 .6.6 0 0 1 1.2 0M16.5 12.834c0-.35.284-.635.635-.635h1.775a.635.635 0 0 1 0 1.27h-1.775a.635.635 0 0 1-.635-.635"/></svg>