<svg xmlns="http://www.w3.org/2000/svg" width="24" height="24" fill="none"><path stroke="#9A9A9A" stroke-width="1.417" d="M3.75 12.168c0-1.888 0-2.832.428-3.614.429-.783 1.211-1.268 2.776-2.24l1.65-1.024C10.26 4.263 11.086 3.75 12 3.75s1.741.513 3.396 1.54l1.65 1.024c1.565.972 2.347 1.457 2.776 2.24.428.782.428 1.726.428 3.614v1.255c0 3.218 0 4.827-.966 5.827-.967 1-2.523 1-5.634 1h-3.3c-3.111 0-4.667 0-5.633-1s-.967-2.609-.967-5.827z"/><path stroke="#9A9A9A" stroke-linecap="round" stroke-width="1.417" d="M14.475 16.951h-4.95"/></svg>