<svg xmlns="http://www.w3.org/2000/svg" width="24" height="24" fill="none"><path fill="#9A9A9A" fill-rule="evenodd" d="M12.054 2.666c-2.39 0-4.33 1.928-4.33 4.306s1.94 4.305 4.33 4.305 4.33-1.927 4.33-4.305-1.939-4.306-4.33-4.306M9.092 6.972a2.954 2.954 0 0 1 2.962-2.946 2.954 2.954 0 0 1 2.963 2.946 2.954 2.954 0 0 1-2.963 2.946 2.954 2.954 0 0 1-2.962-2.946" clip-rule="evenodd"/><path fill="#9A9A9A" d="M17.534 4.474a.68.68 0 0 0-.684.68c0 .376.306.68.684.68 1.255 0 2.05.821 2.05 1.586s-.796 1.587-2.05 1.587a.68.68 0 0 0-.684.68c0 .375.306.68.684.68 1.765 0 3.418-1.209 3.418-2.947s-1.653-2.946-3.418-2.946M7.276 5.154a.68.68 0 0 0-.683-.68c-1.766 0-3.418 1.209-3.418 2.946s1.652 2.946 3.418 2.946a.68.68 0 0 0 .683-.68.68.68 0 0 0-.683-.68c-1.255 0-2.051-.82-2.051-1.586 0-.765.796-1.586 2.05-1.586a.68.68 0 0 0 .684-.68"/><path fill="#9A9A9A" fill-rule="evenodd" d="M12.06 12.632c-1.626 0-3.13.436-4.246 1.176-1.112.737-1.906 1.83-1.906 3.13s.794 2.392 1.906 3.129c1.117.74 2.62 1.176 4.246 1.176s3.13-.436 4.247-1.176c1.112-.737 1.906-1.83 1.906-3.13s-.794-2.392-1.906-3.13c-1.117-.74-2.62-1.175-4.246-1.175m-4.785 4.305c0-.703.43-1.423 1.297-1.998.863-.572 2.094-.948 3.489-.948 1.393 0 2.625.376 3.487.948.868.575 1.298 1.295 1.298 1.998s-.43 1.423-1.298 1.999c-.862.571-2.094.947-3.488.947s-2.625-.376-3.488-.947c-.867-.576-1.297-1.296-1.297-1.999" clip-rule="evenodd"/><path fill="#9A9A9A" d="M18.683 14.076a.684.684 0 0 1 .814-.519c.877.191 1.667.537 2.254 1.014.586.477 1.018 1.133 1.018 1.917 0 .783-.432 1.439-1.018 1.916s-1.377.823-2.254 1.014a.68.68 0 1 1-.293-1.328c.723-.158 1.3-.428 1.68-.738.382-.31.518-.614.518-.864 0-.251-.136-.554-.517-.864s-.958-.581-1.68-.739a.68.68 0 0 1-.522-.81M4.606 13.557a.68.68 0 1 1 .293 1.328c-.723.158-1.3.428-1.68.739-.382.31-.518.613-.518.864 0 .25.136.553.517.864s.958.58 1.68.738a.68.68 0 1 1-.292 1.328c-.877-.191-1.667-.537-2.254-1.014-.586-.477-1.018-1.133-1.018-1.916 0-.784.432-1.44 1.018-1.917s1.377-.822 2.254-1.014"/></svg>