<svg xmlns="http://www.w3.org/2000/svg" width="24" height="24" fill="none"><g stroke="#0E0E0E" stroke-linecap="round" stroke-linejoin="round"><path d="M2.25 18.75a60 60 0 0 1 15.797 2.101c.727.198 1.453-.342 1.453-1.096V18.75m-.75-2.25h1.875c.621 0 1.125-.504 1.125-1.125v-9.75c0-.621-.504-1.125-1.125-1.125H3.375c-.621 0-1.125.504-1.125 1.125v9.75A1.125 1.125 0 0 0 3.375 16.5H18.75m0 0v-.75c0-.199.129-.879.75-1.5s1.301-.75 1.5-.75h.75m-6.75-3a3 3 0 1 1-6 0 3 3 0 0 1 6 0"/><path d="M18.75 4.5v.75c0 .199.129.879.75 1.5s1.301.75 1.5.75h.75M5.25 4.5v.75c0 .199-.129.879-.75 1.5S3.199 7.5 3 7.5h-.75M5.25 16.5v-.75c0-.199-.129-.879-.75-1.5S3.199 13.5 3 13.5h-.75"/></g></svg>