<svg xmlns="http://www.w3.org/2000/svg" width="24" height="24" fill="none"><path fill="#FCBC05" d="M11.269 10.632H9.54L7.019 6.251A1.503 1.503 0 0 1 8.314 4c.517 0 1.02.269 1.297.75l2.522 4.381z"/><path fill="#E94335" d="M16.699 20.066a1.495 1.495 0 0 1-2.045-.55l-2.521-4.38-2.522 4.38a1.494 1.494 0 0 1-2.793-.751 1.5 1.5 0 0 1 .2-.75l2.523-4.38h5.184l2.522 4.38a1.504 1.504 0 0 1-.548 2.051"/><path fill="#1973E8" d="M21.263 12.133c0 .83-.67 1.501-1.497 1.501h-5.043l-.864-1.5-.864-1.501-.864-1.501 2.522-4.381a1.494 1.494 0 0 1 2.044-.55c.716.414.961 1.333.548 2.05l-2.522 4.382h5.043c.827 0 1.497.672 1.497 1.5"/><path fill="#34A853" d="m11.268 10.633-.864 1.5-.864 1.502H4.496A1.5 1.5 0 0 1 3 12.134a1.5 1.5 0 0 1 1.496-1.501z"/><path fill="#174FA7" d="M14.725 13.634H9.54l.864-1.501.864-1.5.864-1.502.864 1.501.864 1.5z"/></svg>