<svg xmlns="http://www.w3.org/2000/svg" width="24" height="24" fill="none"><path stroke="#0166FF" stroke-linecap="round" stroke-linejoin="round" stroke-width="1.2" d="m2.226 4.724 6.364 6.364m0 0-3.182.354m3.182-.354.353-3.182"/><path stroke="#0166FF" stroke-width="1.2" d="M20.833 9.799h-2.602c-1.785 0-3.231 1.343-3.231 3s1.447 3 3.23 3h2.603c.084 0 .125 0 .16-.002.54-.033.97-.432 1.005-.933.002-.032.002-.071.002-.148v-3.834c0-.077 0-.116-.002-.148-.036-.501-.465-.9-1.005-.933-.034-.002-.076-.002-.16-.002Z"/><path fill="#0166FF" d="m19.826 5.973-.424.424zM8.398 4.2a.6.6 0 0 0 0 1.2zM3.17 19.629l.424-.424zm16.656 0-.424-.425zM2.758 9.039a.6.6 0 0 0-1.198-.076zm18.805.737c-.079-1.88-.327-3.243-1.313-4.228l-.848.85c.632.63.884 1.563.962 3.428zM20.25 5.549c-.744-.745-1.948-1.05-3.299-1.198-1.379-.151-3.08-.15-4.954-.15v1.2c1.897 0 3.524 0 4.824.143 1.328.145 2.152.425 2.58.853zM1.397 12.8c0 1.868-.001 3.33.152 4.469.155 1.156.48 2.068 1.196 2.783l.848-.849c-.456-.455-.717-1.072-.855-2.094-.14-1.04-.14-2.407-.14-4.31zm1.348 7.252c.715.716 1.627 1.04 2.783 1.196 1.139.153 2.6.152 4.469.152v-1.2c-1.902 0-3.269-.002-4.309-.141-1.023-.138-1.64-.4-2.095-.855zM9.998 21.4h3v-1.2h-3zm3 0c1.869 0 3.33.001 4.469-.152 1.156-.155 2.068-.48 2.784-1.196l-.85-.848c-.455.456-1.071.717-2.094.855-1.04.14-2.406.14-4.309.14zm7.252-1.348c.986-.984 1.235-2.348 1.313-4.228l-1.2-.049c-.076 1.864-.329 2.797-.961 3.428zM11.998 4.201h-3.6v1.2h3.6zM2.158 9l-.598-.038v.007l-.002.022-.023.39c-.015.258-.036.617-.056 1.015a55 55 0 0 0-.081 2.404h1.2c0-.615.04-1.551.08-2.344A132 132 0 0 1 2.75 9.15l.005-.082.001-.021v-.007z"/><path stroke="#0166FF" stroke-linecap="round" stroke-linejoin="round" stroke-width="1.2" d="M17.99 12.799H18"/></svg>