<svg xmlns="http://www.w3.org/2000/svg" width="24" height="24" fill="none"><path stroke="#fff" stroke-linecap="round" stroke-linejoin="round" stroke-width="1.2" d="M5 14.448c0-4.128 4.278-.8 6.79-3.392S11.09 4 15.096 4M8.112 15.199h7.778m-1.555-3.2h1.555m-.778-3.2h.777M19 7.2v9.6c0 .849-.328 1.663-.911 2.263-.584.6-1.375.937-2.2.937H8.11a3.07 3.07 0 0 1-2.2-.937A3.25 3.25 0 0 1 5 16.8v-2.488c0-2.735 1.056-5.358 2.936-7.292S12.366 4 15.026 4h.863c.825 0 1.616.337 2.2.937.583.6.911 1.414.911 2.263"/></svg>