<svg xmlns="http://www.w3.org/2000/svg" width="24" height="24" fill="none" viewBox="0 0 24 24">
  <path fill="#fff" d="m17.682 10.817.569.19-.57-.19Zm-1.373 4.12-.57-.19.57.19ZM8.063 6.69l-.19-.569.19.57Zm4.12-1.373.19.57-.19-.57ZM9.8 14.936l.569-.19-.57.19Zm-.364-.894-.499.333.499-.333ZM8.064 13.2l.19-.569-.19.57Zm.894.364.334-.498-.334.498Zm-5.664-4.71-.518-.302.518.302Zm0 2.184-.518.302.518-.302Zm10.852 8.668-.301-.52.301.52Zm-2.184 0-.302.518.302-.518Zm-.12-9.433a.6.6 0 1 0 .843.853l-.844-.853Zm4.211-2.478a.6.6 0 0 0-.843-.853l.843.853Zm1.06 2.832-1.374 4.12 1.139.379 1.373-4.12-1.139-.38ZM8.253 7.26l4.12-1.373-.38-1.139-4.119 1.373.38 1.139Zm2.116 7.485c-.145-.434-.248-.76-.434-1.038l-.998.667c.075.112.127.253.293.75l1.139-.379Zm-2.495-.976c.498.166.639.218.75.293l.668-.998c-.278-.186-.604-.289-1.038-.434l-.38 1.139Zm2.06-.062a2.339 2.339 0 0 0-.642-.643l-.667.998c.123.082.23.189.312.312l.998-.667Zm-2.06-7.586c-1.442.48-2.559.853-3.364 1.195-.773.329-1.418.69-1.734 1.235l1.037.603c.096-.165.384-.4 1.167-.733.75-.32 1.81-.674 3.274-1.161l-.38-1.139Zm.38 6.51c-1.463-.488-2.524-.843-3.274-1.162-.783-.332-1.07-.568-1.167-.733l-1.037.603c.316.544.96.906 1.734 1.235.805.342 1.922.714 3.364 1.195l.38-1.139Zm-5.478-4.08a2.773 2.773 0 0 0 0 2.788l1.037-.603a1.573 1.573 0 0 1 0-1.582l-1.037-.603Zm12.963 6.194c-.487 1.463-.841 2.524-1.16 3.274-.333.783-.569 1.07-.734 1.167l.603 1.037c.544-.316.906-.96 1.235-1.734.342-.805.714-1.922 1.195-3.364l-1.139-.38Zm-6.509.38c.481 1.442.853 2.559 1.195 3.364.33.773.69 1.418 1.235 1.734l.603-1.037c-.165-.096-.4-.384-.733-1.167-.32-.75-.674-1.81-1.161-3.274l-1.139.38Zm4.615 4.06a1.573 1.573 0 0 1-1.582 0l-.603 1.038a2.774 2.774 0 0 0 2.788 0l-.603-1.037Zm4.406-8.18c.593-1.78 1.061-3.18 1.252-4.252.19-1.067.144-2.018-.547-2.71l-.849.849c.258.258.387.682.215 1.651-.172.965-.603 2.264-1.21 4.083l1.139.38Zm-5.878-5.118c1.819-.607 3.118-1.038 4.083-1.21.969-.172 1.393-.043 1.651.215l.849-.848c-.692-.692-1.643-.738-2.71-.548-1.073.19-2.472.659-4.252 1.252l.38 1.139Zm.312 5.238 3.368-3.33-.843-.854-3.369 3.331.844.853Z"/>
</svg>
