<svg width="24" height="24" viewBox="0 0 24 24" fill="none" xmlns="http://www.w3.org/2000/svg">
<path d="M8.64266 21.4196C6.40057 20.6204 4.51704 19.0478 3.33067 16.9842C2.14429 14.9207 1.73287 12.5017 2.17037 10.162C2.60786 7.82229 3.86557 5.71537 5.71742 4.21995C7.56927 2.72454 9.8938 1.93871 12.2732 2.00373C14.6525 2.06875 16.9307 2.98035 18.6981 4.57467C20.4655 6.16898 21.6063 8.34145 21.9153 10.7015C22.2244 13.0617 21.6815 15.4546 20.3842 17.4503C19.0869 19.4459 17.1203 20.9134 14.8379 21.5889L13.1177 15.7767C14.0167 15.5106 14.7912 14.9326 15.3022 14.1466C15.8132 13.3606 16.027 12.4181 15.9053 11.4886C15.7835 10.559 15.3342 9.70339 14.6381 9.07545C13.942 8.44752 13.0447 8.08847 12.1076 8.06286C11.1704 8.03726 10.2549 8.34676 9.52554 8.93575C8.79617 9.52473 8.30081 10.3546 8.1285 11.2761C7.95618 12.1976 8.11823 13.1504 8.58549 13.9631C9.05276 14.7758 9.7946 15.3952 10.6777 15.71L8.64266 21.4196Z" fill="#5CBAE0"/>
</svg>
