<svg xmlns="http://www.w3.org/2000/svg" width="24" height="24" fill="none"><path fill="#B8BCCA" fill-rule="evenodd" d="M18.811 7.453a.6.6 0 0 1 .794.3c.374.828.795 2.215.795 4.247 0 1.753-.313 3.026-.64 3.875-.163.424-.329.74-.458.956a4 4 0 0 1-.162.25c-.212.254-.67.392-.924.18a.6.6 0 0 1-.08-.841l.003-.004.024-.033q.037-.05.11-.17c.095-.158.23-.412.367-.768.273-.711.56-1.838.56-3.445 0-1.861-.384-3.08-.689-3.753a.6.6 0 0 1 .3-.794m-1.68 2.36a.6.6 0 0 1 .71.465c.088.424.159.993.159 1.722 0 .888-.106 1.538-.219 1.979a4 4 0 0 1-.162.505 5 5 0 0 1-.089.197.61.61 0 0 1-.821.244c-.288-.16-.359-.598-.204-.887 0 0 .07-.187.114-.357.087-.34.181-.89.181-1.681a7.3 7.3 0 0 0-.134-1.478.6.6 0 0 1 .465-.71Z" clip-rule="evenodd"/><path fill="#B8BCCA" d="M19.824 5.224a.6.6 0 0 0-.848-.848l-3.56 3.56a9 9 0 0 0-.155-1.112c-.137-.63-.38-1.18-.892-1.539a2.5 2.5 0 0 0-.615-.313c-.655-.223-1.305-.045-1.966.276-.651.317-1.44.837-2.425 1.487l-.214.14c-.358.237-.481.316-.609.372a1.8 1.8 0 0 1-.427.128c-.137.023-.284.025-.713.025h-.129c-.973 0-1.65 0-2.251.277a3.17 3.17 0 0 0-1.381 1.3c-.315.583-.351 1.193-.404 2.06l-.006.104c-.018.294-.03.586-.03.859.001.273.012.565.03.86l.006.104c.053.866.09 1.476.404 2.059.29.54.825 1.043 1.38 1.3.49.226 1.027.268 1.734.276l-2.177 2.177a.6.6 0 0 0 .848.848zM15.6 12a.6.6 0 0 0-1.004-.443l-.057.06-4.8 5.018a.622.622 0 0 0 .132.965c.831.545 1.519.98 2.105 1.24.594.262 1.184.39 1.778.188a2.5 2.5 0 0 0 .615-.313c.565-.397.804-1.024.933-1.744.128-.707.173-1.69.228-2.859.04-.892.07-1.67.07-2.112"/></svg>