<svg width="24" height="24" viewBox="0 0 24 24" fill="none" xmlns="http://www.w3.org/2000/svg">
<path fill-rule="evenodd" clip-rule="evenodd" d="M3 11.9961C3 19.1461 4.85095 20.9961 12 20.9961C19.1491 20.9961 21 19.1461 21 11.9961C21 4.84613 19.1491 2.99609 12 2.99609C4.85095 2.99609 3 4.84613 3 11.9961ZM16.995 9.67857C17.2683 9.4052 17.2683 8.96199 16.995 8.68862C16.7216 8.41525 16.2784 8.41525 16.005 8.68862L10.875 13.8186L8.55747 11.5011C8.28411 11.2278 7.84089 11.2278 7.56753 11.5011C7.29416 11.7745 7.29416 12.2177 7.56753 12.4911L10.38 15.3036C10.6534 15.5769 11.0966 15.5769 11.37 15.3036L16.995 9.67857Z" fill="#35D487"/>
</svg>
