<svg width="16" height="16" viewBox="0 0 16 16" fill="none" xmlns="http://www.w3.org/2000/svg">
<path d="M7.99796 13.9995C5.29965 13.9995 4.02091 13.8488 3.0858 12.9134C2.15069 11.978 2 10.6989 2 7.99978C2 5.30067 2.15069 4.02156 3.0858 3.08617C3.86882 2.30292 4.86308 2.01977 6.88539 2.00286H6.88962C7.1403 2.00286 7.3445 2.20572 7.34732 2.45647C7.34873 2.70863 7.14593 2.91571 6.89384 2.91853C5.12502 2.93402 4.32792 3.1397 3.73362 3.73418C3.09143 4.37655 2.9154 5.29363 2.9154 7.99978C2.9154 10.7059 3.09143 11.623 3.73362 12.2654C4.3758 12.9078 5.29261 13.0838 7.99796 13.0838C10.7033 13.0838 11.6201 12.9078 12.2623 12.2654C12.8566 11.6709 13.0622 10.8736 13.0777 9.10421C13.0805 8.85205 13.2847 8.65061 13.5354 8.65061H13.5396C13.7917 8.65342 13.9959 8.8591 13.9931 9.11266C13.9762 11.1356 13.6917 12.1315 12.9101 12.9134C11.975 13.8488 10.6963 13.9995 7.99796 13.9995Z" fill="#5A5E66"/>
<path d="M10.3485 8.68212C9.59783 9.4372 8.5585 9.86826 7.49382 9.86404C7.23469 9.86404 7.02345 9.65132 7.02345 9.39212C7.02345 9.26533 7.07274 9.14841 7.16147 9.05966C7.25019 8.97091 7.36848 8.9216 7.49382 8.9216C8.31064 8.92301 9.10773 8.59337 9.68373 8.01439C10.2597 7.44104 10.5907 6.64652 10.5907 5.83369V3.57833L8.94296 5.22653C8.85424 5.31528 8.73594 5.36459 8.6106 5.36459C8.48526 5.36459 8.36697 5.31669 8.27825 5.22794C8.18812 5.13779 8.13883 5.01945 8.13883 4.89408C8.13883 4.76729 8.18811 4.65037 8.27543 4.56162L10.7005 2.13581C10.885 1.95408 11.1836 1.95408 11.3681 2.13581L13.8622 4.63065C14.0466 4.81378 14.0452 5.11384 13.8622 5.29838C13.6791 5.48151 13.3805 5.48292 13.1974 5.29838L11.5328 3.63327V5.82383C11.5328 6.9015 11.1132 7.91578 10.3499 8.67931L10.3485 8.68212Z" fill="#5A5E66"/>
</svg>
