<svg xmlns="http://www.w3.org/2000/svg" width="14" height="14" fill="none"><path stroke="#727689" stroke-linecap="round" stroke-linejoin="round" d="M5.25 3.5c0 .825 0 1.238-.257 1.493-.256.257-.668.257-1.493.257s-1.238 0-1.493-.257C1.75 4.737 1.75 4.325 1.75 3.5s0-1.238.257-1.493c.256-.257.668-.257 1.493-.257s1.238 0 1.493.257c.257.256.257.668.257 1.493m0 0H7m3.5 1.75c-.825 0-1.238 0-1.493-.257-.257-.256-.257-.668-.257-1.493s0-1.238.257-1.493c.256-.257.668-.257 1.493-.257s1.238 0 1.493.257c.257.256.257.668.257 1.493s0 1.238-.257 1.493c-.256.257-.668.257-1.493.257m0 0V7m-1.75 3.5c0-.825 0-1.238.257-1.493.256-.257.668-.257 1.493-.257s1.238 0 1.493.257c.257.256.257.668.257 1.493s0 1.237-.257 1.493c-.256.257-.668.257-1.493.257s-1.237 0-1.493-.257c-.257-.256-.257-.668-.257-1.493m0 0H7M3.5 8.75c.825 0 1.238 0 1.493.257.257.256.257.668.257 1.493s0 1.238-.257 1.493c-.256.257-.668.257-1.493.257s-1.238 0-1.493-.257c-.257-.256-.257-.668-.257-1.493s0-1.238.257-1.493c.256-.257.668-.257 1.493-.257m0 0V7"/></svg>