<svg xmlns="http://www.w3.org/2000/svg" width="24" height="24" fill="none"><path fill="#5A5E66" d="M11.997 21c-4.048 0-5.966-.226-7.368-1.63C3.226 17.969 3 16.05 3 12c0-4.048.226-5.967 1.629-7.37 1.174-1.175 2.666-1.6 5.7-1.625h.005a.688.688 0 0 1 .007 1.374c-2.653.023-3.85.331-4.74 1.223-.964.964-1.228 2.34-1.228 6.398 0 4.06.264 5.435 1.227 6.399.964.963 2.339 1.227 6.397 1.227s5.433-.264 6.396-1.227c.892-.892 1.2-2.088 1.223-4.742a.687.687 0 0 1 .687-.68h.006a.687.687 0 0 1 .68.693c-.025 3.034-.451 4.528-1.624 5.7-1.402 1.404-3.32 1.63-7.368 1.63"/><path fill="#5A5E66" d="M15.523 13.024a6.04 6.04 0 0 1-4.282 1.773.709.709 0 0 1-.499-1.207.7.7 0 0 1 .499-.207 4.647 4.647 0 0 0 4.645-4.632V5.368l-2.472 2.473a.7.7 0 0 1-.498.207.704.704 0 0 1-.503-1.204l3.638-3.64a.715.715 0 0 1 1.001 0l3.741 3.743a.71.71 0 0 1 0 1.001.704.704 0 0 1-.997 0L17.3 5.451v3.285a6.02 6.02 0 0 1-1.774 4.284z"/></svg>