<svg xmlns="http://www.w3.org/2000/svg" width="24" height="24" fill="none"><path fill="#0166FF" d="M8.8 11.4a.6.6 0 1 0 0 1.2zm6.4 1.2a.6.6 0 1 0 0-1.2zM8.8 8.2a.6.6 0 0 0 0 1.2zm6.4 1.2a.6.6 0 1 0 0-1.2zm-6.4 5.2a.6.6 0 1 0 0 1.2zm4 1.2a.6.6 0 1 0 0-1.2zM11.2 4.6h1.6V3.4h-1.6zm7.4 5.8v3.2h1.2v-3.2zm-5.8 9h-1.6v1.2h1.6zm-7.4-5.8v-3.2H4.2v3.2zm5.8 5.8c-1.526 0-2.61-.001-3.432-.112-.804-.108-1.268-.311-1.607-.65l-.848.849c.598.599 1.358.864 2.296.99.92.124 2.1.123 3.59.123zm-7-5.8c0 1.492-.001 2.67.122 3.591.126.938.392 1.697.99 2.296l.85-.848c-.34-.34-.542-.803-.65-1.608-.11-.822-.112-1.905-.112-3.431zm14.4 0c0 1.526-.002 2.61-.112 3.431-.108.805-.311 1.269-.65 1.608l.849.848c.598-.599.864-1.358.99-2.296.124-.92.123-2.1.123-3.591zm-5.8 7c1.491 0 2.67.001 3.591-.123.938-.126 1.697-.391 2.296-.99l-.849-.848c-.338.338-.802.541-1.607.65-.822.11-1.906.111-3.431.111zm0-16c1.525 0 2.609.001 3.431.112.805.108 1.269.311 1.607.65l.849-.849c-.599-.599-1.358-.864-2.296-.99-.92-.124-2.1-.123-3.591-.123zm7 5.8c0-1.492.001-2.67-.123-3.591-.126-.938-.392-1.697-.99-2.296l-.849.849c.339.338.542.802.65 1.607.11.822.112 1.906.112 3.431zm-8.6-7c-1.492 0-2.67-.001-3.591.123-.938.126-1.698.391-2.296.99l.848.849c.339-.34.803-.542 1.607-.65.823-.11 1.906-.112 3.432-.112zm-5.8 7c0-1.525.001-2.61.112-3.431.108-.805.31-1.269.65-1.607l-.85-.849c-.598.599-.864 1.358-.99 2.296-.123.92-.122 2.1-.122 3.591zm3.4 2.2h6.4v-1.2H8.8zm0-3.2h6.4V8.2H8.8zm0 6.4h4v-1.2h-4z"/></svg>