<svg width="36" height="36" viewBox="0 0 36 36" fill="none" xmlns="http://www.w3.org/2000/svg">
<path d="M18.0001 1.11822e-07L16.3171 11.2299L18.0001 16.8696L19.683 11.2299L18.0001 1.11822e-07Z" fill="white"/>
<path d="M18.0001 36L19.683 24.7701L18.0001 19.1304L16.3171 24.7701L18.0001 36Z" fill="white"/>
<path d="M36 18.0003L24.7702 16.3174L19.1305 18.0003L24.7702 19.6833L36 18.0003Z" fill="white"/>
<path d="M-1.25507e-07 18.0003L11.2298 19.6833L16.8695 18.0003L11.2298 16.3174L-1.25507e-07 18.0003Z" fill="white"/>
<path d="M30.6517 5.19501L21.5622 12.0011L18.7959 17.1959L23.9567 14.3666L30.6517 5.19501Z" fill="white"/>
<path d="M5.34839 30.8052L14.4379 23.9991L17.2042 18.8042L12.0434 21.6335L5.34839 30.8052Z" fill="white"/>
<path d="M30.8045 30.6503L23.9985 21.5608L18.8037 18.7945L21.633 23.9553L30.8045 30.6503Z" fill="white"/>
<path d="M5.19546 5.34965L12.0015 14.4392L17.1963 17.2055L14.367 12.0447L5.19546 5.34965Z" fill="white"/>
</svg>
