<svg xmlns="http://www.w3.org/2000/svg" width="16" height="17" fill="none" viewBox="0 0 16 17">
  <path stroke="#5A5E66" stroke-linecap="round" stroke-linejoin="round" d="M1.5 12.977a40 40 0 0 1 10.531 1.4.764.764 0 0 0 .969-.73v-.67m-.5-1.5h1.25a.75.75 0 0 0 .75-.75v-6.5a.75.75 0 0 0-.75-.75H2.25a.75.75 0 0 0-.75.75v6.5a.75.75 0 0 0 .75.75H12.5Zm0 0v-.5c0-.133.086-.586.5-1 .414-.415.867-.5 1-.5h.5m-4.5-2a2 2 0 1 1-4 0 2 2 0 0 1 4 0Z"/>
  <path stroke="#5A5E66" stroke-linecap="round" stroke-linejoin="round" stroke-width=".8" d="M12.5 3.477v.5c0 .132.086.585.5 1 .414.414.867.5 1 .5h.5m-11-2v.5c0 .132-.086.585-.5 1-.414.414-.867.5-1 .5h-.5m2 6v-.5c0-.133-.086-.586-.5-1-.414-.415-.867-.5-1-.5h-.5"/>
</svg>
