<svg xmlns="http://www.w3.org/2000/svg" width="24" height="24" fill="none"><path fill="#fff" d="M14.278 9.759c-.118-3.344-4.935-3.343-5.052 0 .108 3.34 4.944 3.338 5.052 0m-9.895.975a2.187 2.187 0 1 0 1.344-3.91 2.197 2.197 0 0 0-1.344 3.91"/><path fill="#fff" d="M6.7 14.88c.006-1.027.712-1.91 1.407-2.578a5 5 0 0 1 .603-.474 3.9 3.9 0 0 0-.951-.77 2.88 2.88 0 0 1-4.066 0c-.971.585-2.195 1.878-1.477 3.08a1.51 1.51 0 0 0 1.306.742zm8.888-5.867c.096 2.89 4.281 2.89 4.376 0-.104-2.895-4.272-2.895-4.376 0m-1.22 3.373a4 4 0 0 0-.435-.258 3 3 0 0 1-.32.261 3.23 3.23 0 0 1-4.043-.261c-1.013.555-2.076 1.532-2.174 2.752a1.75 1.75 0 0 0 1.742 1.76h5.227a1.757 1.757 0 0 0 1.533-2.575 4.6 4.6 0 0 0-1.53-1.68Z"/><path fill="#fff" d="M21.323 12.626a4.05 4.05 0 0 0-1.512-1.571 2.88 2.88 0 0 1-4.07.004 4 4 0 0 0-.95.77q.318.213.602.473c.493.442.895.976 1.184 1.571.148.316.225.66.227 1.007h3.177a1.54 1.54 0 0 0 1.342-2.254m-1.16 3.342a.347.347 0 0 0-.473.137c-3.369 6.213-12.503 6.21-15.87 0a.35.35 0 0 0-.578-.05.35.35 0 0 0-.033.387c3.627 6.69 13.465 6.688 17.091 0a.35.35 0 0 0-.136-.474ZM4.884 5.838c3.462-4.19 10.282-4.19 13.743 0a.349.349 0 0 0 .53-.454C15.428.872 8.08.872 4.354 5.385a.348.348 0 1 0 .53.452Z"/><path fill="#fff" d="M16.103 6.2a.35.35 0 0 0 .208-.629 7.68 7.68 0 0 0-9.112 0 .348.348 0 0 0 .415.56 6.98 6.98 0 0 1 8.282 0 .35.35 0 0 0 .207.069m-9.807 9.857a.349.349 0 1 0-.546.433c2.94 3.854 9.07 3.853 12.01 0a.348.348 0 0 0-.547-.433c-2.672 3.504-8.245 3.504-10.917 0"/></svg>