<svg xmlns="http://www.w3.org/2000/svg" width="36" height="36" fill="none"><path fill="#fff" fill-rule="evenodd" d="M6.05 6.05C4 8.1 4 11.4 4 18s0 9.9 2.05 11.95S11.4 32 18 32s9.9 0 11.95-2.05S32 24.6 32 18s0-9.9-2.05-11.95S24.6 4 18 4 8.1 4 6.05 6.05m9.91 5.674a1.05 1.05 0 1 0-1.52-1.448l-3.24 3.402-.84-.882a1.05 1.05 0 1 0-1.52 1.448l1.6 1.68a1.05 1.05 0 0 0 1.52 0zm3.44 1.026a1.05 1.05 0 1 0 0 2.1h7a1.05 1.05 0 1 0 0-2.1zm-3.44 8.774a1.05 1.05 0 1 0-1.52-1.448l-3.24 3.401-.84-.881a1.05 1.05 0 1 0-1.52 1.448l1.6 1.68a1.05 1.05 0 0 0 1.52 0zm3.44 1.026a1.05 1.05 0 1 0 0 2.1h7a1.05 1.05 0 1 0 0-2.1z" clip-rule="evenodd"/></svg>