<svg width="24" height="24" viewBox="0 0 24 24" fill="none" xmlns="http://www.w3.org/2000/svg">
<g filter="url(#filter0_d_42103_134971)">
<path d="M7.49935 11.9997C7.49935 12.4417 7.32375 12.8656 7.01119 13.1782C6.69863 13.4907 6.27471 13.6663 5.83268 13.6663C5.39065 13.6663 4.96673 13.4907 4.65417 13.1782C4.34161 12.8656 4.16602 12.4417 4.16602 11.9997C4.16602 11.5576 4.34161 11.1337 4.65417 10.8212C4.96673 10.5086 5.39065 10.333 5.83268 10.333C6.27471 10.333 6.69863 10.5086 7.01119 10.8212C7.32375 11.1337 7.49935 11.5576 7.49935 11.9997ZM13.3327 11.9997C13.3327 12.4417 13.1571 12.8656 12.8445 13.1782C12.532 13.4907 12.108 13.6663 11.666 13.6663C11.224 13.6663 10.8001 13.4907 10.4875 13.1782C10.1749 12.8656 9.99935 12.4417 9.99935 11.9997C9.99935 11.5576 10.1749 11.1337 10.4875 10.8212C10.8001 10.5086 11.224 10.333 11.666 10.333C12.108 10.333 12.532 10.5086 12.8445 10.8212C13.1571 11.1337 13.3327 11.5576 13.3327 11.9997ZM19.166 11.9997C19.166 12.4417 18.9904 12.8656 18.6779 13.1782C18.3653 13.4907 17.9414 13.6663 17.4993 13.6663C17.0573 13.6663 16.6334 13.4907 16.3208 13.1782C16.0083 12.8656 15.8327 12.4417 15.8327 11.9997C15.8327 11.5576 16.0083 11.1337 16.3208 10.8212C16.6334 10.5086 17.0573 10.333 17.4993 10.333C17.9414 10.333 18.3653 10.5086 18.6779 10.8212C18.9904 11.1337 19.166 11.5576 19.166 11.9997Z" fill="white"/>
</g>
<defs>
<filter id="filter0_d_42103_134971" x="2.66602" y="10.333" width="18" height="6.33301" filterUnits="userSpaceOnUse" color-interpolation-filters="sRGB">
<feFlood flood-opacity="0" result="BackgroundImageFix"/>
<feColorMatrix in="SourceAlpha" type="matrix" values="0 0 0 0 0 0 0 0 0 0 0 0 0 0 0 0 0 0 127 0" result="hardAlpha"/>
<feOffset dy="1.5"/>
<feGaussianBlur stdDeviation="0.75"/>
<feComposite in2="hardAlpha" operator="out"/>
<feColorMatrix type="matrix" values="0 0 0 0 0 0 0 0 0 0 0 0 0 0 0 0 0 0 0.25 0"/>
<feBlend mode="normal" in2="BackgroundImageFix" result="effect1_dropShadow_42103_134971"/>
<feBlend mode="normal" in="SourceGraphic" in2="effect1_dropShadow_42103_134971" result="shape"/>
</filter>
</defs>
</svg>
