<svg width="36" height="36" viewBox="0 0 36 36" fill="none" xmlns="http://www.w3.org/2000/svg">
<path fill-rule="evenodd" clip-rule="evenodd" d="M4.758 7.758C3 9.5145 3 12.3435 3 18C3 23.6565 3 26.4855 4.758 28.242C6.5145 30 9.3435 30 15 30H21C26.6565 30 29.4855 30 31.242 28.242C33 26.4855 33 23.6565 33 18C33 12.3435 33 9.5145 31.242 7.758C29.4855 6 26.6565 6 21 6H15C9.3435 6 6.5145 6 4.758 7.758ZM12 19.5C12.3978 19.5 12.7794 19.342 13.0607 19.0607C13.342 18.7794 13.5 18.3978 13.5 18C13.5 17.6022 13.342 17.2206 13.0607 16.9393C12.7794 16.658 12.3978 16.5 12 16.5C11.6022 16.5 11.2206 16.658 10.9393 16.9393C10.658 17.2206 10.5 17.6022 10.5 18C10.5 18.3978 10.658 18.7794 10.9393 19.0607C11.2206 19.342 11.6022 19.5 12 19.5ZM19.5 18C19.5 18.3978 19.342 18.7794 19.0607 19.0607C18.7794 19.342 18.3978 19.5 18 19.5C17.6022 19.5 17.2206 19.342 16.9393 19.0607C16.658 18.7794 16.5 18.3978 16.5 18C16.5 17.6022 16.658 17.2206 16.9393 16.9393C17.2206 16.658 17.6022 16.5 18 16.5C18.3978 16.5 18.7794 16.658 19.0607 16.9393C19.342 17.2206 19.5 17.6022 19.5 18ZM24 19.5C24.3978 19.5 24.7794 19.342 25.0607 19.0607C25.342 18.7794 25.5 18.3978 25.5 18C25.5 17.6022 25.342 17.2206 25.0607 16.9393C24.7794 16.658 24.3978 16.5 24 16.5C23.6022 16.5 23.2206 16.658 22.9393 16.9393C22.658 17.2206 22.5 17.6022 22.5 18C22.5 18.3978 22.658 18.7794 22.9393 19.0607C23.2206 19.342 23.6022 19.5 24 19.5Z" fill="white"/>
</svg>
