<svg xmlns="http://www.w3.org/2000/svg" width="24" height="24" fill="none"><path fill="#0E0E0E" fill-rule="evenodd" d="M10 3.281a3.851 3.851 0 1 0 0 7.703 3.851 3.851 0 0 0 0-7.703M7.365 7.132a2.635 2.635 0 1 1 5.27 0 2.635 2.635 0 0 1-5.27 0M10 12.204c-1.875 0-3.603.426-4.884 1.146-1.261.71-2.21 1.786-2.21 3.11v.083c0 .942-.002 2.124 1.035 2.969.51.415 1.225.71 2.19.906.967.196 2.227.299 3.87.299 1.642 0 2.903-.103 3.87-.299.965-.195 1.679-.49 2.19-.906 1.036-.845 1.035-2.027 1.034-2.97v-.082c0-1.325-.948-2.4-2.21-3.11-1.28-.72-3.008-1.146-4.884-1.146M4.124 16.46c0-.69.503-1.439 1.59-2.05 1.066-.6 2.581-.99 4.288-.99 1.706 0 3.221.39 4.288.99 1.086.611 1.59 1.36 1.59 2.05 0 1.06-.033 1.657-.587 2.109-.3.244-.802.483-1.662.657-.857.174-2.029.275-3.63.275s-2.772-.102-3.629-.275c-.86-.174-1.361-.413-1.662-.657-.554-.451-.586-1.048-.586-2.109" clip-rule="evenodd"/><path stroke="#0E0E0E" stroke-linecap="round" stroke-width="1.2" d="M18 7h4M16 10h6M18 13h4"/></svg>