<svg width="24" height="24" viewBox="0 0 24 24" fill="none" xmlns="http://www.w3.org/2000/svg">
<path d="M3 12C3 7.75736 3 5.63604 4.31802 4.31802C5.63604 3 7.75736 3 12 3C16.2426 3 18.364 3 19.682 4.31802C21 5.63604 21 7.75736 21 12C21 16.2426 21 18.364 19.682 19.682C18.364 21 16.2426 21 12 21C7.75736 21 5.63604 21 4.31802 19.682C3 18.364 3 16.2426 3 12Z" fill="#0166FF"/>
<path d="M13.2992 9.10001H16.7992C17.0754 9.10001 17.2992 9.32386 17.2992 9.60001V11.5C17.2992 11.7761 17.0754 12 16.7992 12H13.7992C13.5231 12 13.2992 12.2239 13.2992 12.5V14.6C13.2992 14.7105 13.3888 14.8 13.4992 14.8H17.2992M6.69922 9V12M6.69922 12V15M6.69922 12H10.6992M10.6992 12V9M10.6992 12V15" stroke="white" stroke-width="1.2" stroke-linecap="round" stroke-linejoin="round"/>
</svg>
