<svg xmlns="http://www.w3.org/2000/svg" width="24" height="24" fill="none"><path stroke="#0166FF" stroke-width="1.2" d="M7.2 6.168c.624.569 1.91 2.123 2.06 3.79.14 1.558 1.169 2.825 2.74 2.842.604.007 1.215-.43 1.213-1.034 0-.186-.031-.377-.08-.553a1.13 1.13 0 0 1 .067-.813c.488-1.006 1.448-1.276 2.208-1.823.337-.242.645-.497.78-.703.375-.569.75-1.706.562-2.274M20 12.8c-.264.745-.45 2.7-3.425 2.731 0 0-2.635 0-3.426 1.49-.632 1.191-.263 2.482 0 2.979M20 12a8 8 0 1 1-16 0 8 8 0 0 1 16 0Z"/></svg>