<svg xmlns="http://www.w3.org/2000/svg" width="24" height="24" fill="none"><path stroke="#0E0E0E" stroke-linecap="round" stroke-linejoin="round" stroke-width="1.5" d="M8.8 16.795c-2.263 0-3.394 0-4.097-.703S4 14.258 4 11.995c0-2.262 0-3.394.703-4.097s1.834-.703 4.097-.703 3.394 0 4.097.703.703 1.835.703 4.097"/><path stroke="#0E0E0E" stroke-linecap="round" stroke-linejoin="round" stroke-width="1.5" d="M10.4 11.995c0 2.263 0 3.394.703 4.097s1.835.703 4.097.703 3.395 0 4.097-.703.703-1.834.703-4.097c0-2.262 0-3.394-.703-4.097s-1.834-.703-4.097-.703"/></svg>