<svg xmlns="http://www.w3.org/2000/svg" width="24" height="24" fill="none"><path fill="#727689" fill-rule="evenodd" d="M12.022 3.226c-.624 0-1.24.2-2.773.726l-.544.186c-1.437.492-2.485.851-3.221 1.15a7 7 0 0 0-.82.383 2 2 0 0 0-.198.132.4.4 0 0 0-.052.048.4.4 0 0 0-.03.07 2 2 0 0 0-.06.236 7 7 0 0 0-.095.91c-.044.799-.044 1.914-.044 3.442v1.496c0 4.917 3.676 7.336 6.126 8.406.353.154.557.242.784.3.216.055.48.09.927.09s.711-.035.928-.09c.227-.058.43-.145.783-.3 2.45-1.07 6.127-3.49 6.127-8.406V10.51c0-1.528 0-2.643-.044-3.442a7 7 0 0 0-.095-.91 2 2 0 0 0-.06-.237.4.4 0 0 0-.03-.069c-.003-.002-.016-.019-.052-.048a2 2 0 0 0-.198-.132 7 7 0 0 0-.82-.383c-.736-.299-1.784-.658-3.221-1.15l-.544-.186c-1.534-.525-2.149-.726-2.774-.726M8.91 2.562c1.372-.47 2.223-.761 3.113-.761s1.741.291 3.113.76l.122.043.57.194c1.406.482 2.492.854 3.27 1.17.391.159.728.313 1 .47.26.152.522.34.7.594.176.25.267.559.324.855.059.308.095.678.118 1.102.046.843.046 1.997.046 3.495v1.521c0 5.796-4.378 8.575-6.981 9.712l-.026.011c-.323.141-.626.274-.975.363-.368.095-.759.135-1.28.135-.523 0-.914-.04-1.282-.135-.348-.089-.652-.222-.975-.363l-.025-.01C7.137 20.58 2.76 17.8 2.76 12.004v-1.521c0-1.498 0-2.652.046-3.495.023-.424.059-.794.118-1.102.057-.296.148-.604.324-.855.178-.253.44-.442.7-.594a8 8 0 0 1 1-.47c.777-.316 1.863-.688 3.27-1.17l.57-.194z" clip-rule="evenodd"/><path stroke="#727689" stroke-linecap="round" stroke-width="1.2" d="M9 14.4 15 9m0 5.4L9 9"/></svg>