<svg xmlns="http://www.w3.org/2000/svg" width="36" height="36" fill="none"><path fill="#fff" d="M15 33h6c5.657 0 8.485 0 10.243-1.757C33 29.486 33 26.657 33 21c0-5.656 0-8.485-1.757-10.242-.544-.544-1.192-.92-1.994-1.18l.001.78v3.38c.005.511.013 1.367-.354 2.15s-1.03 1.325-1.424 1.649l-.111.091-2.26 1.883c-1.29 1.076-2.415 2.013-3.425 2.663-1.09.7-2.267 1.218-3.676 1.218s-2.587-.518-3.676-1.218c-1.01-.65-2.134-1.587-3.425-2.663l-2.26-1.883-.11-.091c-.396-.324-1.058-.866-1.425-1.649s-.36-1.639-.355-2.15l.001-.143V9.578c-.801.26-1.448.635-1.993 1.18C3 12.515 3 15.344 3 21s0 8.486 1.757 10.243C6.515 33 9.343 33 15 33"/><path fill="#fff" fill-rule="evenodd" d="m10.08 15.9 2.159 1.799c2.754 2.295 4.132 3.443 5.761 3.443s3.007-1.148 5.762-3.443l2.159-1.8c.53-.442.796-.663.938-.965.141-.303.141-.648.141-1.34V10.5q0-.72-.003-1.347c-.017-2.657-.146-4.106-1.095-5.055C24.803 3 23.036 3 19.5 3h-3c-3.535 0-5.303 0-6.401 1.098-.95.95-1.081 2.398-1.099 5.055-.003.418 0 .866 0 1.347v3.095c0 .69 0 1.036.142 1.339.141.302.407.523.938.966M13.875 9c0-.621.504-1.125 1.125-1.125h6a1.125 1.125 0 0 1 0 2.25h-6A1.125 1.125 0 0 1 13.875 9m1.5 4.5c0-.621.504-1.125 1.125-1.125h3a1.125 1.125 0 0 1 0 2.25h-3a1.125 1.125 0 0 1-1.125-1.125" clip-rule="evenodd"/></svg>