<svg xmlns="http://www.w3.org/2000/svg" width="24" height="24" fill="none"><path fill="#0166FF" d="M16.424 10.076a.6.6 0 0 0-.848.848zM18 12.5l-.424.424a.6.6 0 0 0 .848 0zm3.924-3.076a.6.6 0 1 0-.848-.848zM13 7.2a2.6 2.6 0 0 1-2.6 2.6V11a3.8 3.8 0 0 0 3.8-3.8zm-2.6 2.6a2.6 2.6 0 0 1-2.6-2.6H6.6a3.8 3.8 0 0 0 3.8 3.8zM7.8 7.2a2.6 2.6 0 0 1 2.6-2.6V3.4a3.8 3.8 0 0 0-3.8 3.8zm2.6-2.6A2.6 2.6 0 0 1 13 7.2h1.2a3.8 3.8 0 0 0-3.8-3.8zm5.8 11.8c0 1.046-.032 1.635-.579 2.08-.296.242-.792.477-1.64.649-.846.171-2.002.271-3.581.271v1.2c1.62 0 2.865-.102 3.819-.295.952-.192 1.656-.484 2.16-.894 1.053-.858 1.021-2.069 1.021-3.011zm-5.8 3c-1.58 0-2.735-.1-3.581-.271-.848-.172-1.344-.407-1.64-.649-.547-.445-.579-1.034-.579-2.08H3.4c0 .942-.032 2.153 1.021 3.01.504.41 1.208.703 2.16.895.954.193 2.198.295 3.819.295zm-5.8-3c0-.681.497-1.42 1.569-2.023 1.052-.592 2.547-.977 4.231-.977v-1.2c-1.85 0-3.556.42-4.82 1.132-1.244.7-2.18 1.76-2.18 3.068zm5.8-3c1.684 0 3.179.385 4.231.977 1.072.603 1.569 1.342 1.569 2.023h1.2c0-1.307-.936-2.368-2.18-3.068-1.264-.711-2.97-1.132-4.82-1.132zm5.176-2.476 2 2 .848-.848-2-2zm2.848 2 3.5-3.5-.848-.848-3.5 3.5z"/></svg>