<svg xmlns="http://www.w3.org/2000/svg" width="24" height="24" fill="none"><path fill="#0166FF" fill-rule="evenodd" d="M10.493 20.185c.381.52.931.819 1.507.819v-.002c.573 0 1.124-.298 1.507-.82l1.254-1.701a.22.22 0 0 1 .169-.09h.418c3.697 0 5.652-1.991 5.652-5.758v-3.87c0-3.767-1.955-5.76-5.652-5.76H8.652C4.955 3.004 3 4.997 3 8.766v3.87c0 4.795 2.162 5.759 5.652 5.759h.415a.4.4 0 0 1 .17.085zM7.815 9.406h8.37c.347 0 .63-.288.63-.641a.637.637 0 0 0-.63-.642h-8.37a.637.637 0 0 0-.63.642c0 .353.283.641.63.641m0 3.87h5.022c.347 0 .63-.288.63-.641a.637.637 0 0 0-.63-.642H7.815a.637.637 0 0 0-.63.642c0 .353.283.642.63.642" clip-rule="evenodd"/></svg>