<svg xmlns="http://www.w3.org/2000/svg" width="24" height="24" fill="none"><g fill="#fff" filter="url(#a)"><path d="M11.997 4.25c3.487 0 5.14.195 6.348 1.403 1.209 1.209 1.403 2.861 1.403 6.348s-.195 5.14-1.403 6.348c-1.012 1.011-2.297 1.377-4.91 1.4h-.005a.593.593 0 0 1-.006-1.184c2.286-.02 3.316-.286 4.084-1.053.83-.83 1.057-2.015 1.057-5.511s-.227-4.68-1.057-5.51-2.015-1.058-5.51-1.058c-3.497 0-4.681.227-5.511 1.057-.768.768-1.034 1.798-1.054 4.084a.59.59 0 0 1-.591.586h-.006a.59.59 0 0 1-.586-.595c.022-2.615.39-3.9 1.4-4.912C6.86 4.445 8.512 4.25 11.997 4.25"/><path d="M15.284 12.112a.57.57 0 0 1-.568.568H11.88a.57.57 0 0 1-.568-.568V9.277a.569.569 0 0 1 1.136 0v1.467l2.812-2.812a.567.567 0 1 1 .802.803l-2.811 2.811h1.467c.313 0 .567.255.567.568z"/><path fill-rule="evenodd" d="M7.853 12.874c-.68 0-.883 0-1.333.06-.475.064-.902.204-1.248.548-.344.344-.484.773-.548 1.248-.06.45-.06.652-.06 1.332v.079c0 .679 0 .882.06 1.332.064.475.204.902.548 1.248.344.344.773.484 1.248.548.45.06.652.06 1.333.06h.078c.679 0 .882 0 1.332-.06.475-.064.903-.204 1.248-.548.344-.344.485-.773.548-1.248.06-.45.06-.652.06-1.332v-.078c0-.68 0-.883-.06-1.333-.063-.475-.204-.902-.548-1.248-.344-.344-.773-.484-1.248-.548-.45-.06-.652-.06-1.332-.06zm-1.779 1.41c.099-.098.248-.18.597-.225.366-.05.492-.051 1.22-.051s.855 0 1.219.05c.35.048.499.128.597.226.098.099.18.248.226.597.049.366.05.492.05 1.22s0 .855-.05 1.219c-.048.35-.128.499-.226.597s-.248.18-.597.226c-.366.049-.491.05-1.22.05-.727 0-.855 0-1.219-.05-.349-.048-.498-.128-.597-.226s-.18-.248-.225-.597c-.05-.366-.051-.491-.051-1.22 0-.727 0-.855.05-1.219.048-.35.128-.498.226-.597" clip-rule="evenodd"/></g><defs><filter id="a" width="31.333" height="31.333" x="-3.667" y="-3.667" color-interpolation-filters="sRGB" filterUnits="userSpaceOnUse"><feFlood flood-opacity="0" result="BackgroundImageFix"/><feGaussianBlur in="BackgroundImageFix" stdDeviation="1.833"/><feComposite in2="SourceAlpha" operator="in" result="effect1_backgroundBlur_47787_203381"/><feBlend in="SourceGraphic" in2="effect1_backgroundBlur_47787_203381" result="shape"/></filter></defs></svg>