<svg xmlns="http://www.w3.org/2000/svg" width="24" height="24" fill="none"><path fill="#0E0E0E" d="M20 7.38a.75.75 0 0 0 0-1.5zM4 5.88a.75.75 0 0 0 0 1.5zm13.826 9.21-.748-.053zm1.17-5.997a.75.75 0 0 0-1.497-.104zM6.5 8.989a.75.75 0 0 0-1.497.104zm-.328 6.1.748-.052zm10.62 4.202.502.558zm-9.586 0-.501.558zm3.254-8.136a.75.75 0 1 0-1.492.155zm-1.035 4.54a.75.75 0 0 0 1.492-.156zm5.606-4.385a.75.75 0 0 0-1.492-.155zm-1.95 4.229a.75.75 0 0 0 1.493.155zm1.825-10.412.709-.246zm.089.256-.708.246zm-6.447 0-.708-.247zm.089-.256-.709-.246zm-.121.346.702.265zM6.843 6.63l-.018-.75zm8.184-1.157.702-.265zM16.7 6.63l.018-.75zm-2.958-2.614-.113.742zm1 .692.66-.358zm-4.941-.692-.114-.74zm-1 .692-.66-.358zM20 5.88H4v1.5h16zm-8.354 14.87h.707v-1.5h-.707zm6.929-5.608.42-6.05L17.5 8.99l-.42 6.048zM5.003 9.092l.421 6.05 1.496-.104-.42-6.05zm7.35 11.658c1.197 0 2.164.001 2.929-.095.783-.098 1.457-.308 2.012-.806l-1.002-1.117c-.236.212-.566.356-1.197.435-.65.082-1.506.083-2.742.083zm4.725-5.712c-.082 1.185-.14 1.997-.267 2.606-.121.585-.287.88-.519 1.088l1.002 1.117c.559-.502.829-1.143.986-1.9.152-.732.215-1.665.295-2.808zm-5.432 4.212c-1.236 0-2.093-.001-2.743-.083-.63-.079-.96-.223-1.196-.435L6.705 19.85c.555.498 1.229.708 2.012.806.764.096 1.732.095 2.929.095zm-6.222-4.108c.08 1.142.143 2.075.295 2.807.157.757.427 1.398.986 1.9l1.002-1.117c-.232-.208-.398-.503-.52-1.088-.126-.609-.184-1.421-.267-2.606zm3.544-3.832.457 4.384 1.492-.155-.457-4.384zm4.571-.155-.457 4.384 1.492.155.457-4.384zM10.268 4.75h3.007v-1.5h-3.007zm3.93.623.088.256 1.417-.493-.088-.255zm-4.942.256.09-.256-1.418-.492-.088.255zM7.84 5.136l-.026.072 1.404.53.038-.11zM6.743 7.38h.118l-.036-1.5h-.082zm1.071-2.172c-.143.38-.527.66-.99.672l.037 1.5c1.043-.026 1.987-.663 2.357-1.642zm6.473.42.038.11 1.404-.53-.026-.072zm2.513.252h-.082l-.036 1.5h.118zm-2.475-.142c.37.979 1.314 1.616 2.357 1.641l.037-1.5c-.463-.01-.847-.291-.99-.67zm-1.05-.988c.265 0 .316.002.354.008l.227-1.483c-.178-.027-.366-.025-.58-.025zm2.34.131c-.067-.193-.127-.372-.214-.531l-1.318.716c.014.025.03.064.115.307zm-1.986-.123a.62.62 0 0 1 .454.308l1.318-.716a2.12 2.12 0 0 0-1.545-1.075zM10.268 3.25c-.215 0-.403-.002-.58.025l.226 1.483c.038-.006.089-.008.354-.008zm-.923 2.123c.085-.243.1-.282.115-.307L8.142 4.35c-.087.16-.147.338-.214.531zm.342-2.098A2.12 2.12 0 0 0 8.142 4.35l1.318.716a.62.62 0 0 1 .454-.308z"/></svg>