<svg xmlns="http://www.w3.org/2000/svg" width="24" height="24" fill="none" viewBox="0 0 24 24">
  <path stroke="#fff" stroke-width="1.33" d="M10.2 21a7.2 7.2 0 1 0-6.498-4.095c.155.323.21.69.117 1.035l-.296 1.104a1.17 1.17 0 0 0 1.433 1.432l1.103-.295a1.504 1.504 0 0 1 1.036.116c.94.45 1.993.703 3.105.703Z"/>
  <path fill="#fff" d="M10.665 11a.665.665 0 0 0-1.33 0h1.33Zm-1.33 5.248a.665.665 0 1 0 1.33 0h-1.33Zm-1.93-3.289a.665.665 0 1 0 0 1.33v-1.33Zm5.19 1.33a.665.665 0 0 0 0-1.33v1.33ZM9.335 11v2.624h1.33V11h-1.33Zm0 2.624v2.624h1.33v-2.624h-1.33ZM10 12.96H7.405v1.33H10v-1.33Zm0 1.33h2.595v-1.33H10v1.33Z"/>
  <path stroke="#fff" stroke-width="1.33" d="M17.4 14.252c.06-.025.12-.051.178-.078.326-.149.692-.205 1.038-.112l.428.115a1.17 1.17 0 0 0 1.433-1.433l-.115-.428c-.093-.347-.037-.712.112-1.038A5.85 5.85 0 1 0 9.75 6.596"/>
</svg>
