<svg xmlns="http://www.w3.org/2000/svg" width="24" height="24" fill="none"><path stroke="#0E0E0E" stroke-width="1.5" d="M4 15.208c0-2.263 0-3.394.703-4.097s1.834-.703 4.097-.703h6.4c2.263 0 3.394 0 4.097.703S20 12.945 20 15.208s0 3.394-.703 4.097-1.834.703-4.097.703H8.8c-2.263 0-3.394 0-4.097-.703S4 17.471 4 15.208Z"/><path fill="#0E0E0E" d="M9.6 15.208a.8.8 0 1 1-1.6 0 .8.8 0 0 1 1.6 0M12.8 15.208a.8.8 0 1 1-1.6 0 .8.8 0 0 1 1.6 0M16 15.208a.8.8 0 1 1-1.6 0 .8.8 0 0 1 1.6 0"/><path stroke="#0E0E0E" stroke-linecap="round" stroke-width="1.5" d="M7.2 10.408v-1.6a4.8 4.8 0 0 1 9.448-1.2"/></svg>