<svg xmlns="http://www.w3.org/2000/svg" width="24" height="24" fill="none"><path fill="#fff" d="m16.775 5.116-.5-.001zM15.237 3.4l-.054.498zm-6.468 0 .054.498zM7.231 5.116l.5-.001zm13.179 11.08a.5.5 0 1 0-.99-.14zm-1.72 3.773.32.385zm-13.38 0-.319.385zm-1.224-3.844.495-.07zm-.364-2.582-.495.07zm.24-4.967.367.34zm16.077 0 .367-.34zm-.048 3.363a.5.5 0 1 0 .993.12zm-5.149 1.73.462-.192zm0 .98.462.191zm-1.743 1.314.25.433zm-2.007.855.065-.496zm-.849-.49-.397.303zm0-4.338.397.304zm.849-.49-.066-.496zm6.143-5.903c.023-.21.04-.354.04-.48l-1-.002c0 .059-.008.137-.034.373zm.04-.48a2.22 2.22 0 0 0-1.985-2.214l-.107.995a1.22 1.22 0 0 1 1.092 1.217zM15.29 2.903c-.125-.013-.27-.012-.482-.012v1c.238 0 .317 0 .375.007zm-.482-.012h-5.61v1h5.61zm-5.61 0c-.211 0-.357-.001-.482.012l.107.995a4 4 0 0 1 .374-.007zm-.482.012A2.22 2.22 0 0 0 6.73 5.117l1-.002a1.22 1.22 0 0 1 1.092-1.217zM6.73 5.117c0 .126.017.27.04.48l.994-.109a4 4 0 0 1-.034-.373zm12.272 2.664a2.335 2.335 0 0 0-2.3-2.738v1c.829 0 1.458.748 1.315 1.566zm-2.3-2.738H7.297v1h9.404zm-9.405 0a2.335 2.335 0 0 0-2.3 2.738l.985-.172a1.335 1.335 0 0 1 1.315-1.566zM19.42 16.056c-.153 1.081-.261 1.843-.422 2.417-.156.559-.347.879-.626 1.11l.638.77c.492-.407.763-.94.95-1.61.184-.654.301-1.493.45-2.548zm-1.048 3.527c-.283.235-.653.375-1.271.449-.63.075-1.449.076-2.6.076v1c1.127 0 2.016 0 2.72-.084.714-.085 1.299-.265 1.789-.67zm-3.871.525H9.5v1h5zm-5.001 0c-1.152 0-1.97 0-2.6-.076-.618-.075-.988-.215-1.271-.449l-.638.77c.49.406 1.075.586 1.79.671.702.085 1.592.084 2.719.084zm-3.871-.525c-.28-.231-.47-.551-.626-1.11-.161-.574-.27-1.336-.422-2.417l-.99.14c.148 1.053.266 1.893.449 2.547.187.67.458 1.203.951 1.61zM4.58 16.056l-.364-2.583-.99.14.364 2.582zm-.364-2.583c-.194-1.378-.33-2.355-.325-3.1.005-.728.147-1.144.437-1.457l-.734-.68c-.527.57-.697 1.275-.703 2.129-.007.837.145 1.902.335 3.248zm.112-4.557c.294-.318.725-.512 1.502-.615.788-.105 1.838-.106 3.305-.106v-1c-1.439 0-2.568-.001-3.437.115-.88.117-1.582.363-2.104.927zm4.807-.721h5.729v-1h-5.73zm5.729 0c1.467 0 2.517.001 3.304.106.777.103 1.209.297 1.503.615l.734-.68c-.522-.563-1.225-.81-2.105-.926-.869-.116-1.998-.115-3.436-.115zm4.807.721c.465.502.535 1.254.32 3.023l.992.12c.207-1.691.246-2.932-.578-3.822zm-6.823 3.871c.534.31.903.523 1.163.708.261.187.34.296.368.364l.924-.382c-.138-.334-.406-.578-.711-.796-.308-.22-.727-.46-1.244-.76zm1.53 1.072c.08.192.08.408 0 .6l.925.381c.18-.436.18-.926 0-1.363zm0 .6c-.027.068-.105.177-.367.363-.26.185-.629.4-1.163.708l.5.866c.517-.299.936-.54 1.244-.76.305-.218.573-.462.711-.796zm-1.53 1.071c-.535.31-.904.522-1.194.655-.292.134-.425.147-.498.137l-.13.992c.357.047.703-.064 1.044-.22.343-.157.762-.4 1.278-.698zm-1.692.792a.78.78 0 0 1-.517-.299l-.794.608c.287.375.712.62 1.18.683zm-.517-.299c-.045-.059-.1-.181-.13-.501-.03-.318-.031-.745-.031-1.363h-1c0 .597-.001 1.081.035 1.458.036.374.113.728.332 1.014zm-.161-1.864c0-.618 0-1.046.03-1.363.03-.32.086-.443.131-.502l-.794-.608c-.22.287-.296.64-.332 1.015-.036.376-.035.86-.035 1.458zm.161-1.865a.78.78 0 0 1 .517-.299l-.13-.991a1.78 1.78 0 0 0-1.18.682zm.517-.299c.073-.01.206.004.498.138.29.132.66.345 1.194.654l.5-.866c-.516-.298-.935-.54-1.278-.698-.341-.156-.687-.266-1.045-.22z"/></svg>