<svg xmlns="http://www.w3.org/2000/svg" width="24" height="24" fill="none"><path stroke="#fff" stroke-linecap="round" stroke-width="1.275" d="M3 11.188v.958c0 3.15 0 4.726.87 5.786q.24.292.532.531c1.06.87 2.635.87 5.786.87s4.725 0 5.785-.87q.293-.24.532-.531c.87-1.06.87-2.636.87-5.786v-.959c0-3.15 0-4.725-.87-5.785a4 4 0 0 0-.531-.532C14.914 4 13.337 4 10.188 4c-3.151 0-4.726 0-5.786.87q-.293.24-.532.532c-.41.5-.627 1.113-.741 1.952m4.184 4.312h5.75m-2.876 2.875v-5.75m7.188.48.631-.316c1.865-.933 2.798-1.399 3.48-.978s.681 1.464.681 3.55v.279c0 2.085 0 3.127-.682 3.548-.681.422-1.614-.044-3.479-.977l-.63-.315z"/></svg>