<svg xmlns="http://www.w3.org/2000/svg" width="24" height="24" fill="none"><path fill="#494949" d="M12.738 4.635a.635.635 0 0 0-1.27 0V6.33a.635.635 0 0 0 1.27 0z"/><path fill="#494949" d="M9.565 6.122a.635.635 0 1 0-.004-1.27c-1.31.003-2.371.025-3.223.17-.87.147-1.586.433-2.16 1.007-.634.634-.915 1.437-1.048 2.43C3 9.424 3 10.657 3 12.213v.096c0 1.556 0 2.789.13 3.754.133.992.414 1.796 1.048 2.43s1.438.915 2.43 1.048c.965.13 2.198.13 3.754.13h3.483c1.557 0 2.79 0 3.754-.13.993-.133 1.797-.414 2.43-1.048s.916-1.438 1.05-2.43c.129-.965.129-2.198.129-3.754v-.096c0-1.556 0-2.789-.13-3.754-.133-.993-.415-1.796-1.048-2.43-.575-.574-1.29-.86-2.16-1.008-.852-.144-1.913-.166-3.224-.17a.635.635 0 1 0-.003 1.27c1.327.005 2.283.029 3.015.153.713.12 1.147.327 1.473.653.359.359.574.85.688 1.702.117.87.119 2.017.119 3.632s-.002 2.762-.119 3.632c-.114.852-.33 1.343-.688 1.702-.358.358-.849.573-1.7.687-.871.117-2.019.119-3.633.119H10.41c-1.615 0-2.762-.002-3.632-.119-.852-.114-1.343-.329-1.702-.687-.358-.359-.573-.85-.687-1.702-.117-.87-.119-2.017-.119-3.632s.002-2.762.119-3.632c.114-.852.329-1.343.687-1.702.327-.326.761-.532 1.474-.653.732-.124 1.688-.148 3.015-.152"/><path fill="#494949" d="M8.082 10.987c0-.351.284-.635.635-.635h6.775a.635.635 0 1 1 0 1.27H8.717a.635.635 0 0 1-.635-.635M8.717 13.313a.635.635 0 0 0 0 1.27h4.658a.635.635 0 0 0 0-1.27z"/></svg>