<svg xmlns="http://www.w3.org/2000/svg" width="24" height="24" fill="none"><path fill="#5A5E66" d="M15.251 18.084a5.8 5.8 0 0 0 4.066-1.639A5.52 5.52 0 0 0 21 12.491c0-.36-.3-.652-.67-.652s-.67.293-.67.652c0 1.145-.46 2.22-1.292 3.031a4.47 4.47 0 0 1-3.105 1.257h-7.22l2.344-2.283a.64.64 0 0 0 .004-.92.68.68 0 0 0-.475-.194h-.004a.68.68 0 0 0-.475.191L5.985 16.93a.65.65 0 0 0 0 .925l3.554 3.455a.683.683 0 0 0 .947.002.64.64 0 0 0 .004-.923l-2.37-2.304zM4.683 7.558A5.5 5.5 0 0 0 3 11.513c0 .359.303.652.672.652a.68.68 0 0 0 .473-.192.64.64 0 0 0 .197-.46 4.23 4.23 0 0 1 1.292-3.034 4.47 4.47 0 0 1 3.105-1.256h7.22l-2.346 2.282a.64.64 0 0 0-.002.921.683.683 0 0 0 .949.004l3.453-3.36a.65.65 0 0 0 0-.924l-3.552-3.455a.687.687 0 0 0-.95 0 .64.64 0 0 0 0 .92l2.37 2.307h-7.13a5.8 5.8 0 0 0-4.066 1.638z"/></svg>