<svg width="24" height="24" viewBox="0 0 24 24" fill="none" xmlns="http://www.w3.org/2000/svg">
<g id="icon/field_calendar">
<path id="Vector" d="M4 11.9996C4 8.98262 4 7.47413 4.93726 6.53687C5.87452 5.59961 7.38301 5.59961 10.4 5.59961H13.6C16.617 5.59961 18.1255 5.59961 19.0627 6.53687C20 7.47413 20 8.98262 20 11.9996V13.5996C20 16.6166 20 18.1251 19.0627 19.0623C18.1255 19.9996 16.617 19.9996 13.6 19.9996H10.4C7.38301 19.9996 5.87452 19.9996 4.93726 19.0623C4 18.1251 4 16.6166 4 13.5996V11.9996Z" stroke="#494949" stroke-width="1.5"/>
<path id="Vector_2" d="M8 5.60039V4.40039" stroke="#494949" stroke-width="1.5" stroke-linecap="round"/>
<path id="Vector_3" d="M16 5.60039V4.40039" stroke="#494949" stroke-width="1.5" stroke-linecap="round"/>
<path id="Vector_4" d="M4.40039 9.59961H19.6004" stroke="#494949" stroke-width="1.5" stroke-linecap="round"/>
<g id="Vector_5">
<path d="M16.7992 16C16.7992 16.4418 16.441 16.8 15.9992 16.8C15.5574 16.8 15.1992 16.4418 15.1992 16C15.1992 15.5582 15.5574 15.2 15.9992 15.2C16.441 15.2 16.7992 15.5582 16.7992 16Z" fill="#494949"/>
<path d="M16.7992 12.8C16.7992 13.2418 16.441 13.6 15.9992 13.6C15.5574 13.6 15.1992 13.2418 15.1992 12.8C15.1992 12.3582 15.5574 12 15.9992 12C16.441 12 16.7992 12.3582 16.7992 12.8Z" fill="#494949"/>
</g>
<g id="Vector_6">
<path d="M12.7992 16C12.7992 16.4418 12.441 16.8 11.9992 16.8C11.5574 16.8 11.1992 16.4418 11.1992 16C11.1992 15.5582 11.5574 15.2 11.9992 15.2C12.441 15.2 12.7992 15.5582 12.7992 16Z" fill="#494949"/>
<path d="M12.7992 12.8C12.7992 13.2418 12.441 13.6 11.9992 13.6C11.5574 13.6 11.1992 13.2418 11.1992 12.8C11.1992 12.3582 11.5574 12 11.9992 12C12.441 12 12.7992 12.3582 12.7992 12.8Z" fill="#494949"/>
</g>
<g id="Vector_7">
<path d="M8.79922 16C8.79922 16.4418 8.44105 16.8 7.99922 16.8C7.55739 16.8 7.19922 16.4418 7.19922 16C7.19922 15.5582 7.55739 15.2 7.99922 15.2C8.44105 15.2 8.79922 15.5582 8.79922 16Z" fill="#494949"/>
<path d="M8.79922 12.8C8.79922 13.2418 8.44105 13.6 7.99922 13.6C7.55739 13.6 7.19922 13.2418 7.19922 12.8C7.19922 12.3582 7.55739 12 7.99922 12C8.44105 12 8.79922 12.3582 8.79922 12.8Z" fill="#494949"/>
</g>
</g>
</svg>
