<svg xmlns="http://www.w3.org/2000/svg" width="36" height="36" fill="none"><g fill="#fff"><path d="M12.568 30.26A6.9 6.9 0 0 0 18 32.878a6.9 6.9 0 0 0 5.432-2.618 40.4 40.4 0 0 1-10.864 0"/><path fill-rule="evenodd" d="M28.049 14.57v-1.048c0-5.756-4.5-10.422-10.05-10.422S7.952 7.766 7.952 13.522v1.049a6.54 6.54 0 0 1-1.032 3.534L5.27 20.672c-1.506 2.343-.356 5.528 2.263 6.269a38.4 38.4 0 0 0 20.933 0c2.62-.741 3.77-3.926 2.263-6.27l-1.649-2.565a6.54 6.54 0 0 1-1.031-3.534M17.999 7.94c.617 0 1.117.5 1.117 1.117v5.955a1.117 1.117 0 0 1-2.233 0V9.056c0-.617.5-1.117 1.117-1.117" clip-rule="evenodd"/></g></svg>