<svg xmlns="http://www.w3.org/2000/svg" width="24" height="24" fill="none"><path fill="#5A5E66" d="M4.476 12.934v.004a.75.75 0 0 1-.918.533c-.647-.171-.533-.917-.533-.917l.027-.093.07-.217A10 10 0 0 1 4.799 9.27C6.144 7.63 8.408 5.996 12 5.996s5.856 1.634 7.203 3.275c.724.888 1.29 1.893 1.675 2.973q.05.139.09.28l.005.02v.006l.001.003a.75.75 0 0 1-1.449.387l-.001-.006-.012-.038a7 7 0 0 0-.3-.78 8.6 8.6 0 0 0-1.17-1.894C16.929 8.864 15.066 7.496 12 7.496s-4.928 1.368-6.042 2.726a8.6 8.6 0 0 0-1.418 2.51l-.052.164zM12 10.496a3.75 3.75 0 1 0 0 7.5 3.75 3.75 0 0 0 0-7.5m-2.25 3.75a2.25 2.25 0 1 1 4.5 0 2.25 2.25 0 0 1-4.5 0"/></svg>