<svg xmlns="http://www.w3.org/2000/svg" width="20" height="20" fill="none"><path stroke="#9A9A9A" d="M8.788 7.274s-1.077.007-1.586-.014a4 4 0 0 1-1.432-.345 3.9 3.9 0 0 1-1.213-.801c-.275-.273-.508-.587-.746-.894-.248-.318-.478-.65-.72-.973-.126-.166-.353-.322-.661-.208a.64.64 0 0 0-.422.58c0 .992-.022 1.984.007 2.975.02.631.176 1.247.393 1.843a7.3 7.3 0 0 0 1.316 2.27 7.1 7.1 0 0 0 2.34 1.792c.612.294 1.255.523 1.933.586.747.07 1.5.079 2.25.11.248.01.326.078.326.324q.004.582.002 1.163c-.002.653.612 1.316 1.324 1.318.58.002 1-.221 1.346-.662.19-.243.421-.455.635-.68l2.093-2.202c.485-.51.976-1.013 1.452-1.53.238-.258.493-.513.55-.887.07-.464.004-.892-.335-1.249a901 901 0 0 1-1.93-2.04q-.54-.574-1.078-1.15-.737-.789-1.473-1.581c-.33-.357-.723-.583-1.223-.576a1.41 1.41 0 0 0-1.317 1.04c-.047.178-.04.372-.044.56-.007.311 0 .622-.002.934-.002.212-.087.296-.295.297z"/></svg>