<svg xmlns="http://www.w3.org/2000/svg" width="37" height="37" fill="none"><path fill="#fff" d="M26.683 18.672c0 1.198-.96 2.17-2.146 2.17s-2.145-.972-2.145-2.17.96-2.17 2.145-2.17 2.146.972 2.146 2.17"/><path fill="#fff" fill-rule="evenodd" d="M28.048 11.273c-1.377-.196-3.15-.195-5.362-.195h-9.171c-2.211 0-3.985 0-5.362.195-1.424.203-2.61.637-3.491 1.656S3.51 15.193 3.5 16.648c-.01 1.405.225 3.183.517 5.4l.593 4.496c.228 1.733.413 3.135.7 4.233.3 1.144.742 2.091 1.57 2.825.83.734 1.817 1.052 2.977 1.2 1.114.143 2.513.143 4.242.143h8.003c1.729 0 3.128 0 4.242-.143 1.16-.148 2.147-.466 2.976-1.2s1.27-1.681 1.57-2.824c.287-1.099.472-2.501.7-4.234l.594-4.496c.292-2.217.527-3.995.517-5.4-.01-1.455-.28-2.7-1.162-3.72-.882-1.018-2.068-1.452-3.492-1.655M8.452 13.422c-1.18.168-1.776.473-2.176.936s-.622 1.1-.63 2.305c-.009 1.235.203 2.862.509 5.182l.081.616.603-.442c1.556-1.14 3.854-1.083 5.333.155l5.49 4.596c.52.434 1.414.515 2.059.136l.381-.225c1.826-1.074 4.273-.96 5.957.308l2.972 2.24c.146-.805.278-1.793.443-3.044l.572-4.34c.306-2.32.518-3.947.509-5.182-.009-1.204-.23-1.842-.63-2.305s-.997-.768-2.176-.936c-1.21-.172-2.832-.175-5.147-.175h-9.003c-2.315 0-3.937.003-5.147.175" clip-rule="evenodd"/><path fill="#fff" d="M13.005 2.5h10.19c.34 0 .6 0 .828.025a4.26 4.26 0 0 1 3.503 2.711H8.675a4.26 4.26 0 0 1 3.502-2.711c.228-.025.488-.025.828-.025M9.793 6.556c-2.03 0-3.695 1.362-4.25 3.17l-.034.113a10 10 0 0 1 1.8-.41c1.577-.226 3.57-.225 5.886-.225h10.063c2.315 0 4.309 0 5.886.224.612.087 1.217.215 1.799.41l-.034-.113c-.555-1.807-2.22-3.17-4.25-3.17z"/></svg>