<svg xmlns="http://www.w3.org/2000/svg" width="24" height="24" fill="none"><path fill="#FD4E4E" d="m17.116 6.884.53-.53zm1.013 1.013.75.004a.75.75 0 0 1-.746.746zm-2.033.76a.75.75 0 0 1-.007-1.5zm1.293-2.8a.75.75 0 1 1 1.5.008zm1 5.192a.75.75 0 1 1 1.486-.204zM6.403 6.405c3.114-3.114 8.148-3.147 11.243-.051l-1.06 1.06c-2.5-2.5-6.584-2.486-9.122.052zm11.192 11.192c-3.114 3.113-8.147 3.146-11.243.05l1.06-1.06c2.5 2.5 6.584 2.487 9.122-.051zm-11.243.05C3.257 14.553 3.29 9.52 6.403 6.406l1.061 1.06c-2.538 2.539-2.55 6.622-.051 9.122zM17.646 6.355l1.013 1.013-1.06 1.06-1.013-1.013zm.487 2.293-2.037.01-.007-1.5 2.036-.01zm-.754-.754.01-2.036 1.5.008-.01 2.036zm2.496 2.952a8 8 0 0 1-2.28 6.752l-1.06-1.061a6.5 6.5 0 0 0 1.854-5.487zM9.756 11.878a.878.878 0 1 1-1.756 0 .878.878 0 0 1 1.756 0M13.268 11.878a.878.878 0 1 1-1.756 0 .878.878 0 0 1 1.756 0M16.78 11.878a.878.878 0 1 1-1.757 0 .878.878 0 0 1 1.756 0"/></svg>