<svg xmlns="http://www.w3.org/2000/svg" width="24" height="24" fill="none"><path fill="#494949" d="M20.9 11.99a.6.6 0 1 0 1.2 0zm-9.857 9.458v.6a.6.6 0 0 0 .478-.963zm2.38-19.28a.6.6 0 1 0-.956.726zm1.773 9.822a.6.6 0 0 0 1.2 0zm-3.675-9.096a.6.6 0 0 0-.956-.726zM3.087 14.717a.6.6 0 1 0 0 1.2zm8.907 1.2a.6.6 0 1 0 0-1.2zM3.087 8.061a.6.6 0 0 0 0 1.2zm17.814 1.2a.6.6 0 1 0 0-1.2zm.484 8.353.315-.511zm-.043 1.046.068.596zm-3.534 2.474-.537-.267zm-.998-.317-.588.12v.001zm-1.193-5.814.588-.12zm.713-.499-.315.511zm3.113 4.372.067.596zm-.783.547-.537-.267zm3.44-7.434c0-5.581-4.524-10.106-10.106-10.106v1.2A8.906 8.906 0 0 1 20.9 11.99zM11.994 1.884C6.413 1.884 1.888 6.41 1.888 11.99h1.2a8.906 8.906 0 0 1 8.906-8.906zM1.888 11.99c0 5.51 3.713 10.058 9.155 10.058v-1.2c-4.644 0-7.955-3.867-7.955-8.858zm11.056-9.459-.478.363.005.006.02.026.081.117c.072.105.177.265.305.475.255.421.598 1.044.942 1.841a16.8 16.8 0 0 1 1.377 6.63h1.2a18 18 0 0 0-1.475-7.105 16 16 0 0 0-1.018-1.988 11 11 0 0 0-.468-.711l-.009-.011-.002-.004h-.001v-.001zm-1.9 18.917.477-.363-.004-.005-.02-.027-.081-.117a10 10 0 0 1-.305-.475 15 15 0 0 1-.943-1.841 16.8 16.8 0 0 1-1.376-6.63h-1.2c0 2.951.737 5.397 1.475 7.105.368.855.738 1.527 1.018 1.988a12 12 0 0 0 .476.722l.003.004.001.001zM8.791 11.99c0-2.752.688-5.035 1.376-6.63.344-.798.688-1.421.943-1.842a10 10 0 0 1 .406-.618l.004-.006-.478-.363-.478-.362-.001.001-.003.004-.008.01-.028.04-.1.14c-.083.123-.2.301-.34.532a16 16 0 0 0-1.018 1.988 18 18 0 0 0-1.475 7.105zm-5.705 3.926h8.907v-1.2H3.087zm0-6.654H20.9v-1.2H3.087zm17.984 8.864a.1.1 0 0 1 .041.043.1.1 0 0 1 .01.03v.002-.004l.003-.012a.2.2 0 0 1 .028-.048.2.2 0 0 1 .063-.052.2.2 0 0 1 .058-.02l.136 1.192c.604-.069.892-.567.91-1.007a1.3 1.3 0 0 0-.62-1.146zm.204-.061-1.9.215.135 1.193 1.9-.216zm-3.152 1.092-.852 1.711 1.074.535.852-1.711zm-.852 1.712a.2.2 0 0 1 .038-.049.2.2 0 0 1 .071-.041.2.2 0 0 1 .068-.009l.004.001h-.003l-.007-.005-.018-.015a.1.1 0 0 1-.026-.054l-1.176.242c.102.491.46.846.865.976.42.133.988.032 1.259-.512zm.127-.172-1.193-5.813-1.176.24 1.193 5.815zm-1.193-5.814c-.004-.016.002-.006-.007.02a.17.17 0 0 1-.064.08.17.17 0 0 1-.098.033c-.028 0-.035-.009-.02 0l.629-1.021c-.375-.231-.838-.247-1.2.006-.36.252-.505.693-.415 1.125zm-.19.133 5.056 3.11.629-1.023-5.056-3.109zm3.36 3.264a1.6 1.6 0 0 0-1.252.877l1.074.535a.4.4 0 0 1 .313-.22z"/></svg>