<svg xmlns="http://www.w3.org/2000/svg" width="24" height="24" fill="none"><path fill="#0166FF" d="m5.02 19.619.336-.512zM3.952 18.57l.506-.344zm16.112 0-.505-.344zm-1.067 1.049-.336-.512zm1.067-10.971-.505.344zm-1.067-1.049-.336.512zM3.952 8.648l.506.344zM5.02 7.599l.336.512zm3.795-1.59.6.122zm-1.18.98v-.612h-.027zm7.566-.98.6-.122zm1.18.98.027-.612h-.026zm1.723 4.302a.612.612 0 0 0 0-1.223zm-.87-1.223a.612.612 0 0 0 0 1.223zm-3.225 3.224a2 2 0 0 1-2 2.001v1.223a3.224 3.224 0 0 0 3.223-3.224zm-2 2.001a2 2 0 0 1-2.002-2H8.784a3.224 3.224 0 0 0 3.224 3.223zm-2.002-2c0-1.106.896-2.002 2.001-2.002v-1.223a3.224 3.224 0 0 0-3.224 3.224zm2.001-2.002c1.106 0 2.001.896 2.001 2.001h1.223a3.224 3.224 0 0 0-3.224-3.224zm1.936 8.357h-3.87v1.223h3.87zm-3.87 0c-1.372 0-2.356-.001-3.12-.078-.754-.075-1.227-.219-1.598-.463l-.671 1.023c.604.396 1.3.573 2.148.657.839.084 1.894.084 3.24.084zm-7.385-6.039c0 1.321-.001 2.36.084 3.185.087.836.267 1.523.674 2.12l1.01-.688c-.245-.361-.39-.82-.467-1.558-.078-.748-.078-1.712-.078-3.059zm2.667 5.498a3.2 3.2 0 0 1-.898-.88l-1.011.687c.328.482.748.895 1.238 1.216zm14.75-5.498c0 1.347-.002 2.31-.08 3.059-.075.737-.221 1.197-.467 1.558l1.011.688c.406-.597.587-1.284.673-2.12.086-.826.085-1.864.085-3.185zm-6.162 7.262c1.346 0 2.401 0 3.24-.084.849-.084 1.543-.26 2.148-.657l-.67-1.023c-.372.244-.845.388-1.6.463-.764.077-1.747.078-3.118.078zm5.615-2.645a3.2 3.2 0 0 1-.898.881l.671 1.023c.49-.321.91-.734 1.238-1.216zm1.77-4.617c0-1.321 0-2.36-.086-3.185-.086-.836-.267-1.523-.673-2.12l-1.011.688c.246.361.392.82.468 1.558.078.748.078 1.712.078 3.059zM18.66 8.111c.356.233.661.533.898.88l1.011-.687a4.45 4.45 0 0 0-1.238-1.216zm-14.75 5.498c0-1.347.001-2.31.079-3.059.076-.737.222-1.197.468-1.558l-1.011-.688c-.407.597-.587 1.284-.674 2.12-.085.826-.084 1.864-.084 3.185zm.774-6.52c-.49.32-.91.733-1.238 1.215l1.01.688c.238-.348.543-.648.899-.881zm5.9-1.894h2.846V3.972h-2.845zm-2.369.692a.61.61 0 0 1-.58.49V7.6c.878 0 1.61-.646 1.779-1.469zm6.386.244c.168.823.901 1.469 1.78 1.469V6.377a.61.61 0 0 1-.581-.49zm-1.171-.936c.578 0 1.062.4 1.171.936l1.199-.244a2.41 2.41 0 0 0-2.37-1.915zm-2.845-1.223a2.41 2.41 0 0 0-2.37 1.915l1.199.244c.109-.536.593-.936 1.17-.936zM16.355 7.6c1.184.052 1.825.196 2.306.512l.671-1.023c-.774-.508-1.703-.657-2.924-.71zM7.608 6.377c-1.22.054-2.15.204-2.923.711l.67 1.023c.481-.316 1.123-.46 2.307-.512zm10.496 3.691h-.87v1.223h.87z"/></svg>