<svg xmlns="http://www.w3.org/2000/svg" width="24" height="24" fill="none"><path stroke="#494949" stroke-width="1.2" d="M6.383 10.148C4.794 9.512 4 9.194 4 8.8s.794-.713 2.383-1.348l2.247-.9C10.218 5.918 11.013 5.6 12 5.6s1.781.317 3.37.953l2.247.899C19.206 8.087 20 8.405 20 8.8c0 .394-.794.712-2.383 1.348l-2.247.898c-1.588.636-2.383.954-3.37.954s-1.781-.318-3.37-.954z"/><path stroke="#494949" stroke-linecap="round" stroke-width="1.2" d="M20 12s-.794.713-2.383 1.348l-2.247.899c-1.588.635-2.383.953-3.37.953s-1.781-.318-3.37-.953l-2.247-.899C4.794 12.713 4 12 4 12M20 15.2s-.794.712-2.383 1.347l-2.247.899c-1.588.635-2.383.953-3.37.953s-1.781-.318-3.37-.953l-2.247-.899C4.794 15.912 4 15.2 4 15.2"/></svg>