<svg xmlns="http://www.w3.org/2000/svg" width="18" height="18" fill="none"><path fill="#0166FF" fill-rule="evenodd" d="M5.04 4.814a3.314 3.314 0 1 1 6.628 0 3.314 3.314 0 0 1-6.627 0m3.315-2.267a2.267 2.267 0 1 0 0 4.534 2.267 2.267 0 0 0 0-4.534M4.152 10.161c1.102-.62 2.589-.986 4.203-.986s3.1.367 4.203.986c1.085.611 1.901 1.537 1.901 2.676v.072c.001.81.002 1.827-.89 2.554-.44.358-1.054.612-1.884.78-.832.169-1.917.257-3.33.257s-2.498-.088-3.33-.257c-.83-.168-1.445-.422-1.884-.78-.893-.726-.892-1.744-.891-2.554v-.072c0-1.14.816-2.065 1.902-2.676m.513.912c-.935.526-1.368 1.17-1.368 1.764 0 .913.028 1.426.504 1.815.259.21.691.416 1.43.565.738.15 1.746.237 3.124.237 1.377 0 2.385-.087 3.123-.237.74-.15 1.172-.355 1.43-.565.477-.389.505-.902.505-1.815 0-.594-.434-1.238-1.368-1.764-.918-.516-2.222-.852-3.69-.852-1.469 0-2.772.336-3.69.852M13.022 5.824c.503-.223 1.087-.18 1.612.162.524-.343 1.108-.385 1.611-.162a1.71 1.71 0 0 1 1.005 1.572c0 .661-.289 1.16-.635 1.537-.27.294-.605.543-.869.74l-.159.119-.001.001c-.104.08-.238.182-.38.262s-.339.166-.572.166c-.234 0-.43-.086-.573-.166a3.4 3.4 0 0 1-.38-.262v-.001l-.16-.12c-.264-.196-.598-.445-.868-.74-.347-.377-.636-.875-.636-1.536 0-.698.409-1.308 1.005-1.572m.042 1.572c0-.288.167-.52.382-.615.186-.082.481-.09.817.247a.523.523 0 0 0 .742 0c.335-.338.63-.33.817-.247a.67.67 0 0 1 .381.615c0 .323-.131.58-.36.83-.196.214-.43.39-.69.583q-.1.073-.2.151a3 3 0 0 1-.262.184.4.4 0 0 1-.057.028.4.4 0 0 1-.058-.028 3 3 0 0 1-.26-.184l-.201-.15c-.26-.195-.494-.37-.691-.585-.228-.249-.36-.506-.36-.83" clip-rule="evenodd"/></svg>