<svg xmlns="http://www.w3.org/2000/svg" width="25" height="24" fill="none"><path fill="#0166FF" d="M5.395 8H4.64V5.725l.02-.5q-.025.03-.11.11-.08.075-.15.135l-.41.33-.365-.455 1.15-.915h.62zM6.13 14H3.635v-.525l.895-.905a17 17 0 0 0 .435-.465q.165-.19.24-.34a.75.75 0 0 0 .075-.33q0-.215-.12-.32a.45.45 0 0 0-.315-.105.9.9 0 0 0-.4.095q-.195.095-.41.27l-.41-.485q.155-.136.325-.25.175-.116.4-.185.23-.075.55-.075.35 0 .6.13a.92.92 0 0 1 .53.835q0 .225-.07.415-.065.19-.195.37a3 3 0 0 1-.31.365 18 18 0 0 1-.42.405l-.46.43v.035H6.13zM5.99 17.23a.83.83 0 0 1-.38.72 1.2 1.2 0 0 1-.39.17v.015q.43.05.65.26.225.21.225.565 0 .31-.155.56-.15.244-.47.39-.315.14-.815.14-.295 0-.55-.05a2.4 2.4 0 0 1-.48-.145v-.64a2.24 2.24 0 0 0 .95.235q.405 0 .565-.14a.49.49 0 0 0 .165-.395q0-.15-.075-.25-.075-.105-.265-.155a2 2 0 0 0-.52-.055h-.27v-.58h.275q.33 0 .5-.06.175-.065.235-.17a.5.5 0 0 0 .065-.25.37.37 0 0 0-.12-.295q-.115-.11-.39-.11a1 1 0 0 0-.31.045 1.4 1.4 0 0 0-.255.1q-.11.06-.195.115l-.35-.52q.14-.1.31-.18.175-.08.385-.125t.47-.045q.55 0 .87.225a.71.71 0 0 1 .325.625"/><path stroke="#0166FF" stroke-linecap="round" stroke-width="1.2" d="M21.625 18h-10M21.625 12h-10M21.625 6h-10"/></svg>