<svg xmlns="http://www.w3.org/2000/svg" width="24" height="24" fill="none"><path stroke="#FD4E4E" stroke-linecap="round" stroke-width="1.5" d="M12.648 10.4V8.8a4.8 4.8 0 0 0-9.449-1.2M10.8 20h6.4c2.263 0 3.395 0 4.098-.703S22 17.463 22 15.2s0-3.394-.703-4.097-1.835-.703-4.097-.703h-6.4c-2.263 0-3.395 0-4.097.703S6 12.937 6 15.2s0 3.394.703 4.097C7.405 20 8.537 20 10.8 20Z"/><path fill="#FD4E4E" d="M11.356 14.878a.878.878 0 1 1-1.756 0 .878.878 0 0 1 1.756 0M14.867 14.878a.878.878 0 1 1-1.756 0 .878.878 0 0 1 1.756 0M18.38 14.878a.878.878 0 1 1-1.757 0 .878.878 0 0 1 1.756 0"/></svg>