<svg xmlns="http://www.w3.org/2000/svg" width="24" height="24" fill="none"><path fill="#0E0E0E" stroke="#0E0E0E" stroke-width=".044" d="M9.994 17.903a.6.6 0 0 0-.163-.169.6.6 0 0 0-.234-.059 8 8 0 0 0-.678-.026c-.916-.016-1.585-.07-2.172-.313a4.2 4.2 0 0 1-2.271-2.271c-.171-.413-.247-.86-.284-1.397-.036-.527-.036-1.18-.036-2.013v-.779c0-1.17 0-2.087.07-2.82.07-.747.218-1.359.549-1.898.346-.565.82-1.04 1.385-1.385.54-.33 1.15-.478 1.898-.549.733-.07 1.65-.07 2.82-.07h2.218a.547.547 0 1 1 0 1.095h-2.19c-1.204 0-2.07 0-2.745.065-.667.063-1.09.185-1.43.392A3.1 3.1 0 0 0 5.709 6.73c-.207.338-.329.763-.392 1.43-.065.674-.065 1.54-.065 2.745v.73c0 .857 0 1.473.033 1.959.033.48.096.794.203 1.052.315.76.919 1.364 1.679 1.678.376.156.856.214 1.772.23zm-1.056-1.37c-.916-.016-1.392-.075-1.764-.229a3.08 3.08 0 0 1-1.667-1.666c-.105-.255-.168-.566-.2-1.046-.034-.485-.034-1.1-.034-1.958v-.73c0-1.205 0-2.069.064-2.743.064-.665.185-1.085.39-1.42a3.1 3.1 0 0 1 1.016-1.016c.335-.205.755-.326 1.42-.39.674-.064 1.538-.064 2.744-.064h2.189a.57.57 0 0 0 0-1.138h-2.218c-1.17 0-2.088 0-2.822.07-.749.07-1.364.218-1.907.551a4.2 4.2 0 0 0-1.393 1.393c-.333.543-.48 1.158-.552 1.907-.07.734-.07 1.652-.07 2.821v.781c0 .832 0 1.486.036 2.014.037.538.113.987.286 1.403a4.22 4.22 0 0 0 2.282 2.283c.592.245 1.265.299 2.18.315.322.005.524.01.677.026zm5.467 1.142.003.022zm-3.114.197-.02.011 3.793-1.35h-.028c-.288.005-.542.01-.754.033a1.7 1.7 0 0 0-.671.203c-.216.125-.37.292-.505.477-.124.17-.25.384-.394.626l-.407.688a.358.358 0 0 1-.607 0zM15.49 6.891a1.62 1.62 0 1 1 3.24 0 1.62 1.62 0 0 1-3.24 0Zm1.62-2.758a2.758 2.758 0 1 0 0 5.516 2.758 2.758 0 0 0 0-5.516Z"/><path fill="#0E0E0E" d="M8.422 10.982h4.268zM8.422 8.42h1.511zM8.422 13.545h1.511z"/><path stroke="#0E0E0E" stroke-linecap="round" stroke-linejoin="round" stroke-width="1.177" d="M8.422 10.982h4.268M8.422 8.42h1.511m-1.511 5.125h1.511"/></svg>