<svg xmlns="http://www.w3.org/2000/svg" width="24" height="24" fill="none"><path fill="#fff" d="M8.939 11.59a.6.6 0 0 0-.878.82zm1.894 2.91-.438.41a.6.6 0 0 0 .877 0zm5.106-4.59a.6.6 0 0 0-.878-.82zM12 18.9c-2.979 0-4.619-.4-5.56-1.34S5.1 14.98 5.1 12H3.9c0 2.98.372 5.089 1.692 6.409S9.022 20.1 12 20.1zM5.1 12c0-2.98.4-4.62 1.34-5.56S9.021 5.1 12 5.1V3.9c-2.979 0-5.089.372-6.408 1.691C4.272 6.911 3.9 9.021 3.9 12zM12 5.1c2.979 0 4.619.4 5.56 1.34S18.9 9.02 18.9 12h1.2c0-2.98-.372-5.089-1.692-6.409S14.978 3.9 12 3.9zm6.9 6.9c0 2.98-.4 4.62-1.34 5.56S14.979 18.9 12 18.9v1.2c2.979 0 5.089-.372 6.408-1.691 1.32-1.32 1.692-3.43 1.692-6.409zm-10.839.41 2.334 2.5.877-.82-2.333-2.5zm3.211 2.5 4.667-5-.878-.82-4.666 5z"/></svg>