<svg xmlns="http://www.w3.org/2000/svg" width="24" height="24" fill="none"><path fill="#494949" fill-rule="evenodd" d="M5.216 6.577c-.568.506-.949 1.327-.949 2.615v5.61c0 1.288.38 2.11.949 2.615.576.514 1.445.791 2.603.791h8.356c1.157 0 2.026-.277 2.603-.79.568-.507.948-1.328.948-2.616v-5.61c0-1.288-.38-2.109-.948-2.615-.577-.513-1.446-.79-2.603-.79H7.819c-1.158 0-2.027.277-2.603.79m-.853-.88c.886-.79 2.106-1.113 3.456-1.113h8.356c1.35 0 2.57.323 3.456 1.112.894.797 1.349 1.98 1.349 3.496v5.61c0 1.517-.455 2.7-1.35 3.496-.885.789-2.106 1.113-3.455 1.113H7.819c-1.35 0-2.57-.324-3.456-1.113-.894-.796-1.35-1.979-1.35-3.496v-5.61c0-1.517.456-2.7 1.35-3.496" clip-rule="evenodd"/><path fill="#494949" fill-rule="evenodd" d="M18.146 8.237a.585.585 0 0 1-.113.843l-4.635 3.435a2.38 2.38 0 0 1-2.81 0L5.952 9.08a.585.585 0 0 1-.113-.843.645.645 0 0 1 .88-.108l4.635 3.435a1.08 1.08 0 0 0 1.277 0l4.636-3.435a.645.645 0 0 1 .879.108" clip-rule="evenodd"/></svg>