<svg xmlns="http://www.w3.org/2000/svg" width="24" height="24" fill="none"><path fill="#727689" d="m16.801 14.966-.4-.447zm-9.602 0 .4-.447zm1.758 1.624-.466.378zm.606 1.356-.592.095zm5.48-1.356.465.378-.466-.378Zm-.607 1.356.593.095zm-4.116 3.461-.3.52zm-.527-.527.52-.3zm4.414 0-.52-.3zm-.527.527-.3-.52zM11.4 16.8a.6.6 0 1 0 1.2 0zm2.782-2.58a.6.6 0 0 0-1.038-.6zm-3.326-.6a.6.6 0 1 0-1.039.6zM5.4 9.6A6.6 6.6 0 0 1 12 3V1.8a7.8 7.8 0 0 0-7.8 7.8zM12 3a6.6 6.6 0 0 1 6.6 6.6h1.2A7.8 7.8 0 0 0 12 1.8zm6.6 6.6a6.58 6.58 0 0 1-2.2 4.919l.801.894A7.78 7.78 0 0 0 19.8 9.6zM7.599 14.52a6.58 6.58 0 0 1-2.2-4.919H4.2a7.78 7.78 0 0 0 2.6 5.813l.8-.894Zm6.8 4.081H9.6v1.2h4.8zm-7.6-3.187c.539.483.939.841 1.223 1.101.298.274.43.406.47.454l.932-.756a7 7 0 0 0-.591-.582c-.29-.266-.697-.63-1.234-1.111zm3.4 3.787c0-.655.003-1.062-.043-1.35l-1.185.19c.027.168.029.445.029 1.16h1.2Zm-1.708-2.232c.247.305.313.397.353.486.04.09.065.2.127.587l1.185-.19c-.056-.346-.1-.625-.217-.887-.117-.26-.295-.48-.515-.752zm7.91-2.449c-.537.48-.944.845-1.234 1.11-.275.254-.484.452-.59.583l.931.756c.039-.048.171-.18.47-.454.284-.26.684-.618 1.223-1.101zM15 19.2c0-.715.002-.992.029-1.16l-1.185-.19c-.046.288-.044.695-.044 1.35zm-.424-2.988c-.22.272-.399.491-.516.752-.116.262-.16.54-.216.886l1.185.19c.062-.386.087-.497.127-.586.04-.09.105-.181.352-.486zM12 21c-.46 0-.764 0-.997-.021-.225-.02-.323-.056-.383-.091l-.6 1.04c.273.157.567.218.875.246.299.027.667.026 1.105.026zm-3-1.8c0 .438 0 .806.026 1.106.028.307.09.6.247.874l1.04-.6c-.036-.06-.071-.158-.091-.383a12 12 0 0 1-.022-.997zm1.62 1.688a.84.84 0 0 1-.308-.308l-1.039.6c.18.31.437.568.747.747l.6-1.04ZM13.8 19.2c0 .46 0 .765-.022.997-.02.225-.056.323-.09.383l1.038.6c.158-.273.22-.567.247-.874.027-.3.027-.668.027-1.106zm-1.8 3c.437 0 .806.001 1.105-.026.308-.028.601-.089.875-.247l-.6-1.04c-.06.036-.159.071-.383.092-.233.02-.537.021-.997.021zm1.687-1.62a.84.84 0 0 1-.307.308l.6 1.04c.31-.18.567-.438.746-.748zM12.6 16.8v-1.92h-1.2v1.92zm.544-3.18a1.32 1.32 0 0 1-1.144.66v1.2a2.52 2.52 0 0 0 2.182-1.26zM12 14.28a1.32 1.32 0 0 1-1.144-.66l-1.039.6A2.52 2.52 0 0 0 12 15.48z"/></svg>