<svg xmlns="http://www.w3.org/2000/svg" width="24" height="24" fill="none"><path fill="#0078D7" fill-rule="evenodd" d="M17.584 6.759c.006-.086.006-.166.006-.252A5.51 5.51 0 0 0 12.107 1a5.497 5.497 0 0 0-5.49 5.759 25 25 0 0 1 2.068-.35 3.416 3.416 0 0 1 6.832 0 25 25 0 0 1 2.067.35m2.76 1.761s1.479 10.397-8.22 14.48H12.1c-9.699-4.083-8.22-14.48-8.22-14.48C6.145 7.674 9 7.17 12.113 7.17s5.97.504 8.231 1.35m-5.57 8.28q.025-.17.024-.348c0-1.212-.8-2.242-1.908-2.574a2.054 2.054 0 0 0-.783-3.952 2.05 2.05 0 0 0-2.05 2.054c0 .858.525 1.59 1.268 1.899a2.69 2.69 0 0 0-1.88 2.922z" clip-rule="evenodd"/></svg>