<svg xmlns="http://www.w3.org/2000/svg" width="24" height="24" fill="none"><path stroke="#FD4E4E" stroke-width="1.5" d="m19.326 9.728.324-.325a1.376 1.376 0 0 1 1.947 1.947l-.325.324m-1.946-1.946s.04.689.649 1.297c.608.608 1.297.649 1.297.649m-1.946-1.946-2.982 2.982c-.202.202-.303.303-.39.414q-.154.199-.262.424c-.061.128-.106.263-.197.534l-.289.868-.093.28m6.16-3.556-2.983 2.982a5 5 0 0 1-.414.39q-.199.154-.424.262c-.128.061-.263.106-.534.197l-.868.289-.28.093m0 0-.281.094a.371.371 0 0 1-.47-.47l.094-.28m.656.656-.656-.656"/><path stroke="#FD4E4E" stroke-linecap="round" stroke-width="1.5" d="M7.8 11.8h3.7M7.8 8.6H13M7.8 15H9M16 19.75c-.942.25-2.258.25-4.2.25h-1.6c-3.016 0-4.525 0-5.462-.937s-.937-2.446-.937-5.463v-3.2c0-3.017 0-4.525.937-5.463S7.184 4 10.201 4h1.6c3.017 0 4.525 0 5.463.937.395.396.624.893.756 1.563"/></svg>