<svg xmlns="http://www.w3.org/2000/svg" width="24" height="24" fill="none"><path fill="#fff" d="M16.91 8.146h.132c.34 0 .657.15.869.414.212.263.29.602.213.929l-.12.512c-.118.499-.563.848-1.083.848h-.14a6.26 6.26 0 0 1-2.045 3.997L14.72 15c-.043.377.007.758.145 1.112a.3.3 0 0 0 .168.167l3.558 1.37a4.5 4.5 0 0 1 2.095 1.644 4.4 4.4 0 0 1 .79 2.522.817.817 0 0 1-.817.817H3.344a.817.817 0 0 1-.817-.817c0-.903.273-1.776.79-2.522a4.5 4.5 0 0 1 2.095-1.643L8.97 16.28a.3.3 0 0 0 .169-.167c.137-.352.187-.737.145-1.112l-.018-.155a6.26 6.26 0 0 1-2.045-3.997h-.14c-.52 0-.964-.349-1.082-.848l-.12-.512c-.077-.327 0-.666.213-.93.212-.262.529-.413.87-.413h.13V4.221c0-.85.702-1.543 1.564-1.543a.85.85 0 0 0 .447-.127l.55-.34a4.2 4.2 0 0 1 2.223-.63h1.457c.956 0 1.855.367 2.531 1.033a3.48 3.48 0 0 1 1.048 2.497z"/></svg>