<svg xmlns="http://www.w3.org/2000/svg" width="24" height="24" fill="none"><path stroke="#494949" stroke-linecap="round" stroke-linejoin="round" stroke-width="1.3" d="M9.776 5.548a1.7 1.7 0 0 0-.654-.761 1.86 1.86 0 0 0-.996-.287H5.68c-.447 0-.876.166-1.192.463a1.53 1.53 0 0 0-.493 1.116c0 7.412 6.409 13.421 14.316 13.421.446 0 .875-.166 1.19-.462a1.53 1.53 0 0 0 .494-1.117v-2.293c0-.333-.106-.658-.305-.934a1.76 1.76 0 0 0-.812-.613l-2.343-.878a1.9 1.9 0 0 0-.939-.1 1.84 1.84 0 0 0-.86.366l-.604.474a1.86 1.86 0 0 1-1.22.384 1.84 1.84 0 0 1-1.177-.486l-1.703-1.6a1.62 1.62 0 0 1-.519-1.102c-.02-.415.126-.823.41-1.142l.504-.567c.206-.23.34-.51.391-.806a1.57 1.57 0 0 0-.105-.88z"/></svg>