<svg width="24" height="24" viewBox="0 0 24 24" fill="none" xmlns="http://www.w3.org/2000/svg">
<g filter="url(#filter0_d_47602_234197)">
<path d="M7.50033 12.0007C7.50033 12.4427 7.32473 12.8666 7.01217 13.1792C6.69961 13.4917 6.27569 13.6673 5.83366 13.6673C5.39163 13.6673 4.96771 13.4917 4.65515 13.1792C4.34259 12.8666 4.16699 12.4427 4.16699 12.0007C4.16699 11.5586 4.34259 11.1347 4.65515 10.8221C4.96771 10.5096 5.39163 10.334 5.83366 10.334C6.27569 10.334 6.69961 10.5096 7.01217 10.8221C7.32473 11.1347 7.50033 11.5586 7.50033 12.0007ZM13.3337 12.0007C13.3337 12.4427 13.1581 12.8666 12.8455 13.1792C12.5329 13.4917 12.109 13.6673 11.667 13.6673C11.225 13.6673 10.801 13.4917 10.4885 13.1792C10.1759 12.8666 10.0003 12.4427 10.0003 12.0007C10.0003 11.5586 10.1759 11.1347 10.4885 10.8221C10.801 10.5096 11.225 10.334 11.667 10.334C12.109 10.334 12.5329 10.5096 12.8455 10.8221C13.1581 11.1347 13.3337 11.5586 13.3337 12.0007ZM19.167 12.0007C19.167 12.4427 18.9914 12.8666 18.6788 13.1792C18.3663 13.4917 17.9424 13.6673 17.5003 13.6673C17.0583 13.6673 16.6344 13.4917 16.3218 13.1792C16.0093 12.8666 15.8337 12.4427 15.8337 12.0007C15.8337 11.5586 16.0093 11.1347 16.3218 10.8221C16.6344 10.5096 17.0583 10.334 17.5003 10.334C17.9424 10.334 18.3663 10.5096 18.6788 10.8221C18.9914 11.1347 19.167 11.5586 19.167 12.0007Z" fill="white"/>
</g>
<defs>
<filter id="filter0_d_47602_234197" x="2.66699" y="10.334" width="18" height="6.33398" filterUnits="userSpaceOnUse" color-interpolation-filters="sRGB">
<feFlood flood-opacity="0" result="BackgroundImageFix"/>
<feColorMatrix in="SourceAlpha" type="matrix" values="0 0 0 0 0 0 0 0 0 0 0 0 0 0 0 0 0 0 127 0" result="hardAlpha"/>
<feOffset dy="1.5"/>
<feGaussianBlur stdDeviation="0.75"/>
<feComposite in2="hardAlpha" operator="out"/>
<feColorMatrix type="matrix" values="0 0 0 0 0 0 0 0 0 0 0 0 0 0 0 0 0 0 0.25 0"/>
<feBlend mode="normal" in2="BackgroundImageFix" result="effect1_dropShadow_47602_234197"/>
<feBlend mode="normal" in="SourceGraphic" in2="effect1_dropShadow_47602_234197" result="shape"/>
</filter>
</defs>
</svg>
