<svg xmlns="http://www.w3.org/2000/svg" width="25" height="24" fill="none"><path fill="#0166FF" d="M20.326 14.15v-2.1c0-2.1-.8-4.1-2.3-5.6s-3.5-2.4-5.6-2.4c-2.2 0-4.2.9-5.6 2.4-1.5 1.4-2.4 3.4-2.4 5.6 0 2.1.8 4.1 2.3 5.6s3.5 2.3 5.7 2.3c.2 0 .3-.1.4-.2s.2-.3.2-.4c0-.2-.1-.3-.2-.4s-.3-.2-.4-.2c-1.3 0-2.6-.4-3.7-1.1s-2-1.8-2.5-3-.7-2.6-.4-3.9.9-2.5 1.8-3.4 2.1-1.6 3.4-1.8 2.7-.1 3.9.4 2.3 1.4 3 2.5 1.1 2.4 1.1 3.7v2.1c0 .4-.2.8-.4 1.1-.3.3-.7.4-1.1.4s-.8-.2-1.1-.4c-.3-.3-.4-.7-.4-1.1v-5.4c0-.2-.1-.3-.2-.4s-.3-.2-.4-.2c-.2 0-.3.1-.4.2s-.2.3-.2.4v.4l-.2-.2c-.6-.5-1.4-.8-2.2-.8-.6 0-1.2.1-1.7.4-.6.3-1.1.7-1.4 1.2-.4.5-.6 1.1-.7 1.7s0 1.2.2 1.8.6 1.1 1 1.5c.5.4 1 .7 1.6.8q.9.15 1.8 0c.6-.1 1.1-.4 1.6-.8l.1-.1.1.2c.2.6.6 1.2 1.1 1.5s1.2.5 1.8.4 1.2-.4 1.6-.9c.6-.6.8-1.2.8-1.8m-6.1-.3c-.5.5-1.1.7-1.8.7-.5 0-1-.1-1.4-.4-.5-.3-.8-.7-1-1.2s-.2-1-.1-1.5.3-.9.7-1.3.8-.6 1.3-.7 1 0 1.5.1c.5.2.9.5 1.1.9.3.4.4.9.4 1.4 0 .8-.3 1.5-.7 2"/></svg>