<svg xmlns="http://www.w3.org/2000/svg" width="24" height="24" fill="none"><path fill="#fff" d="M5.311 5.666h13.334q.233 0 .465.03a2.75 2.75 0 0 0-3.23-2.315L4.916 5.253h-.012A2.75 2.75 0 0 0 3.192 6.34a3.65 3.65 0 0 1 2.12-.675m13.334 1H5.31a2.67 2.67 0 0 0-2.666 2.667v8a2.67 2.67 0 0 0 2.666 2.666h13.334a2.67 2.67 0 0 0 2.666-2.666v-8a2.67 2.67 0 0 0-2.666-2.667m-1.98 8a1.334 1.334 0 1 1 0-2.667 1.334 1.334 0 0 1 0 2.667"/><path fill="#fff" d="M2.668 12.146V8c0-.903.5-2.417 2.235-2.745 1.473-.276 2.932-.276 2.932-.276s.958.667.166.667-.77 1.02 0 1.02c.771 0 0 .98 0 .98l-3.104 3.52z"/></svg>