<svg width="24" height="24" viewBox="0 0 24 24" fill="none" xmlns="http://www.w3.org/2000/svg">
<path d="M11.6667 16.1667C12.1087 16.1667 12.5326 16.3423 12.8452 16.6548C13.1577 16.9674 13.3333 17.3913 13.3333 17.8333C13.3333 18.2754 13.1577 18.6993 12.8452 19.0118C12.5326 19.3244 12.1087 19.5 11.6667 19.5C11.2246 19.5 10.8007 19.3244 10.4882 19.0118C10.1756 18.6993 10 18.2754 10 17.8333C10 17.3913 10.1756 16.9674 10.4882 16.6548C10.8007 16.3423 11.2246 16.1667 11.6667 16.1667ZM11.6667 10.3333C12.1087 10.3333 12.5326 10.5089 12.8452 10.8215C13.1577 11.134 13.3333 11.558 13.3333 12C13.3333 12.442 13.1577 12.866 12.8452 13.1785C12.5326 13.4911 12.1087 13.6667 11.6667 13.6667C11.2246 13.6667 10.8007 13.4911 10.4882 13.1785C10.1756 12.866 10 12.442 10 12C10 11.558 10.1756 11.134 10.4882 10.8215C10.8007 10.5089 11.2246 10.3333 11.6667 10.3333ZM11.6667 4.5C12.1087 4.5 12.5326 4.67559 12.8452 4.98816C13.1577 5.30072 13.3333 5.72464 13.3333 6.16667C13.3333 6.60869 13.1577 7.03262 12.8452 7.34518C12.5326 7.65774 12.1087 7.83333 11.6667 7.83333C11.2246 7.83333 10.8007 7.65774 10.4882 7.34518C10.1756 7.03262 10 6.60869 10 6.16667C10 5.72464 10.1756 5.30072 10.4882 4.98816C10.8007 4.67559 11.2246 4.5 11.6667 4.5Z" fill="#727689"/>
</svg>
