<svg xmlns="http://www.w3.org/2000/svg" width="24" height="24" fill="none"><path fill="#0166FF" fill-rule="evenodd" d="M10.093 3.28a3.851 3.851 0 1 0 0 7.702 3.851 3.851 0 0 0 0-7.703M7.458 7.13a2.635 2.635 0 1 1 5.27 0 2.635 2.635 0 0 1-5.27 0M10.095 12.203c-1.876 0-3.605.427-4.885 1.147C3.948 14.06 3 15.135 3 16.46v.082c0 .942-.002 2.125 1.035 2.97.51.415 1.224.71 2.189.906.967.195 2.228.298 3.87.298 1.643 0 2.904-.103 3.871-.298.965-.196 1.679-.491 2.189-.907 1.037-.844 1.036-2.027 1.035-2.968v-.083c0-1.325-.948-2.4-2.21-3.11-1.28-.72-3.009-1.147-4.884-1.147M4.216 16.46c0-.69.504-1.44 1.59-2.05 1.067-.6 2.582-.99 4.289-.99s3.22.39 4.288.99c1.086.61 1.59 1.36 1.59 2.05 0 1.06-.033 1.657-.587 2.108-.3.245-.803.484-1.662.658-.857.173-2.029.274-3.63.274s-2.772-.101-3.629-.274c-.86-.174-1.362-.413-1.662-.658-.554-.451-.587-1.048-.587-2.108" clip-rule="evenodd"/><path stroke="#0166FF" stroke-linecap="round" stroke-linejoin="round" stroke-width="1.3" d="M18.5 7.28v5m2.5-2.5h-5"/></svg>