<svg xmlns="http://www.w3.org/2000/svg" width="24" height="24" fill="none"><path stroke="#494949" stroke-linecap="round" stroke-width="1.2" d="M16.8 9.6c1.325 0 2.4-.895 2.4-2s-1.075-2-2.4-2m-9.6 4c-1.326 0-2.4-.895-2.4-2s1.074-2 2.4-2m11.2 12c1.403-.308 2.4-1.087 2.4-2s-.997-1.692-2.4-2m-12.8 4c-1.404-.308-2.4-1.087-2.4-2s.996-1.692 2.4-2m9.6-6.4a3.2 3.2 0 1 1-6.4 0 3.2 3.2 0 0 1 6.4 0Zm1.6 8.8c0 1.767-2.15 3.2-4.8 3.2-2.652 0-4.8-1.433-4.8-3.2s2.148-3.2 4.8-3.2c2.65 0 4.8 1.433 4.8 3.2Z"/></svg>