<svg xmlns="http://www.w3.org/2000/svg" width="24" height="24" fill="none"><path stroke="#0E0E0E" stroke-width="1.2" d="M12 20.4H4.62a1.02 1.02 0 0 1-1.02-1.02V12a8.4 8.4 0 1 1 8.4 8.4Z"/><path stroke="#0E0E0E" stroke-width="1.2" d="M13.758 15.61h-.008a5.616 5.616 0 0 1-5.615-5.624 1.773 1.773 0 0 1 1.773-1.765.21.21 0 0 1 .186.107l.864 1.512a.3.3 0 0 1-.004.299l-.694 1.156a.3.3 0 0 0-.016.273 3.85 3.85 0 0 0 1.932 1.932.3.3 0 0 0 .273-.016l1.156-.694a.3.3 0 0 1 .3-.003l1.51.864a.22.22 0 0 1 .109.185 1.773 1.773 0 0 1-1.766 1.774Z"/></svg>