<svg xmlns="http://www.w3.org/2000/svg" width="24" height="24" fill="none"><g fill="#0E0E0E"><path d="M21 12.45h.6a.6.6 0 0 0-.293-.515zM12 3.6a.6.6 0 1 0 0-1.2zm7.464 7.934.307-.516-.008-.004-.009-.005zM15.5 12.5l-.424-.424-.01.01-.01.01zm-2.724 2.989.424.424.01-.01.01-.01zm-2.308.2-.345.49zM10.2 15.5l.345-.49zm-3.359.202.354.485.025-.018.023-.02zm-3.295 1.664a.6.6 0 0 0 .708.969zM12 21.6c2.104 0 3.743.001 5.018-.17 1.292-.174 2.3-.535 3.088-1.324l-.848-.848c-.53.529-1.241.827-2.4.983-1.176.158-2.72.159-4.858.159zm8.4-9.15c0 2.142-.002 3.567-.158 4.625-.151 1.02-.439 1.637-.984 2.183l.848.848c.773-.772 1.144-1.65 1.323-2.855.173-1.168.171-2.7.171-4.8zM2.4 12c0 2.104-.001 3.743.17 5.018.174 1.292.535 2.3 1.324 3.088l.848-.848c-.529-.53-.827-1.241-.983-2.4C3.601 15.682 3.6 14.138 3.6 12zm9.6 8.4c-2.138 0-3.682-.001-4.858-.16-1.159-.155-1.87-.453-2.4-.982l-.848.848c.789.79 1.796 1.15 3.088 1.324 1.275.171 2.914.17 5.018.17zm0-18c-2.104 0-3.743-.001-5.018.17-1.292.174-2.3.535-3.088 1.324l.848.848c.53-.529 1.241-.827 2.4-.983C8.318 3.601 9.862 3.6 12 3.6zM3.6 12c0-2.138.001-3.682.16-4.858.155-1.159.453-1.87.982-2.4l-.848-.848c-.79.789-1.15 1.796-1.324 3.088C2.4 8.257 2.4 9.896 2.4 12zM6 8.4a2.4 2.4 0 0 0 2.4 2.4V9.6a1.2 1.2 0 0 1-1.2-1.2zm2.4 2.4a2.4 2.4 0 0 0 2.4-2.4H9.6a1.2 1.2 0 0 1-1.2 1.2zm2.4-2.4A2.4 2.4 0 0 0 8.4 6v1.2a1.2 1.2 0 0 1 1.2 1.2zM8.4 6A2.4 2.4 0 0 0 6 8.4h1.2a1.2 1.2 0 0 1 1.2-1.2zm12.907 5.935-1.536-.917-.615 1.031 1.537.916zm-6.25.16-2.724 2.99.887.808 2.723-2.989zm-4.244 3.103-.268-.189-.69.982.268.189zm-4.326.02-2.94 2.148.707.969 2.941-2.148zm4.058-.209a3.3 3.3 0 0 0-4.105.247l.803.892a2.1 2.1 0 0 1 2.612-.157zm1.807.056a1.2 1.2 0 0 1-1.539.133l-.69.982a2.4 2.4 0 0 0 3.077-.267zm7.403-4.056c-1.229-.68-3.016-.597-4.68 1.067l.85.848c1.336-1.336 2.549-1.253 3.248-.865zM18.44.61l-3.542 3.542a5 5 0 0 0-.44.473 3 3 0 0 0-.35.565c-.08.17-.14.349-.226.605l-.517 1.554a1.015 1.015 0 0 0 1.283 1.283l1.554-.517c.256-.086.434-.145.605-.227q.301-.143.565-.349c.15-.116.282-.249.473-.44l3.542-3.542A2.084 2.084 0 1 0 18.44.61m-1.447 5.586c-.225.226-.302.301-.384.364a1.8 1.8 0 0 1-.336.208 5 5 0 0 1-.497.18l-.858.286-.156-.156.286-.857c.1-.302.136-.404.18-.498q.086-.18.208-.336c.063-.081.139-.158.364-.384l2.47-2.47a3.1 3.1 0 0 0 1.192 1.194zm3.516-3.516-.108.109-.042-.014a1.84 1.84 0 0 1-.697-.44 1.8 1.8 0 0 1-.44-.697l-.014-.042.109-.109a.843.843 0 0 1 1.192 1.193"/></g></svg>