<svg width="25" height="24" viewBox="0 0 25 24" fill="none" xmlns="http://www.w3.org/2000/svg">
<path d="M21.75 18H11.75M21.75 12H11.75M21.75 6H11.75" stroke="#0166FF" stroke-width="1.2" stroke-linecap="round"/>
<path d="M6.75 6C6.75 6.82843 6.07843 7.5 5.25 7.5C4.42157 7.5 3.75 6.82843 3.75 6C3.75 5.17157 4.42157 4.5 5.25 4.5C6.07843 4.5 6.75 5.17157 6.75 6Z" fill="#0166FF"/>
<path d="M6.75 12C6.75 12.8284 6.07843 13.5 5.25 13.5C4.42157 13.5 3.75 12.8284 3.75 12C3.75 11.1716 4.42157 10.5 5.25 10.5C6.07843 10.5 6.75 11.1716 6.75 12Z" fill="#0166FF"/>
<path d="M6.75 18C6.75 18.8284 6.07843 19.5 5.25 19.5C4.42157 19.5 3.75 18.8284 3.75 18C3.75 17.1716 4.42157 16.5 5.25 16.5C6.07843 16.5 6.75 17.1716 6.75 18Z" fill="#0166FF"/>
</svg>
