<svg xmlns="http://www.w3.org/2000/svg" width="16" height="17" fill="none" viewBox="0 0 16 17">
  <path stroke="#5A5E66" stroke-linecap="round" stroke-linejoin="round" stroke-width="1.125" d="M3 7.333a2 2 0 0 1 1.445-1.925 2 2 0 0 0 1.035-.715l.42-.56a2 2 0 0 1 1.6-.8h1a2 2 0 0 1 1.6.8l.425.56c.257.346.62.597 1.035.715A2 2 0 0 1 13 7.333l-.335 4a2.22 2.22 0 0 1-2.165 2h-5a2.22 2.22 0 0 1-2.165-2l-.335-4Z"/>
  <path stroke="#5A5E66" stroke-linecap="round" stroke-linejoin="round" stroke-width="1.125" d="M8 11.458a2.5 2.5 0 1 0 0-5 2.5 2.5 0 0 0 0 5Z"/>
</svg>
