<svg xmlns="http://www.w3.org/2000/svg" width="24" height="24" fill="none"><path fill="#0166FF" fill-rule="evenodd" d="M8.124 3.633c.983-.137 2.238-.137 3.833-.137h.088c1.595 0 2.85 0 3.833.137 1.009.14 1.812.435 2.443 1.092.632.656.915 1.489 1.05 2.532.131 1.02.131 2.324.131 3.98v4.03c0 1.192 0 2.137-.073 2.847-.071.703-.23 1.336-.676 1.76-.358.34-.813.554-1.296.611-.607.072-1.173-.225-1.73-.63-.562-.411-1.242-1.03-2.1-1.809l-.01-.009-.03-.026c-.4-.364-.671-.61-.897-.78-.217-.164-.352-.223-.464-.247a1.1 1.1 0 0 0-.448 0c-.112.024-.247.083-.465.247-.225.17-.492.412-.887.771l-.01.01-.029.025c-.863.786-1.546 1.407-2.11 1.817-.559.406-1.123.703-1.73.631a2.27 2.27 0 0 1-1.296-.611c-.447-.424-.603-1.057-.676-1.76-.073-.71-.073-1.655-.073-2.846v-4.03c0-1.66 0-2.962.13-3.981.138-1.043.419-1.876 1.049-2.532.631-.657 1.436-.952 2.443-1.092m1.378 3.025a.6.6 0 0 0 0 1.2h5a.6.6 0 0 0 0-1.2z" clip-rule="evenodd"/></svg>