<svg width="16" height="16" viewBox="0 0 16 16" fill="none" xmlns="http://www.w3.org/2000/svg">
<path d="M13.2667 12.6173L11.6079 10.7738C11.5174 10.6732 11.3936 10.6145 11.2602 10.6097C11.128 10.6049 10.9994 10.6528 10.9018 10.7463L10.8779 10.769C10.6767 10.9607 10.6648 11.2853 10.8506 11.4925L12.5093 13.336C12.5998 13.4366 12.7237 13.4953 12.8571 13.5001H12.8761C13.0023 13.5001 13.1226 13.4522 13.2155 13.3635L13.2393 13.3408C13.337 13.2474 13.3929 13.1216 13.3989 12.985C13.4036 12.8485 13.3572 12.7179 13.2667 12.6173Z" fill="#9A9A9A"/>
<path d="M7.33105 2.70117C9.52163 2.70135 11.2979 4.47735 11.2979 6.66797C11.2977 8.85844 9.52153 10.6346 7.33105 10.6348C5.14043 10.6348 3.36443 8.85855 3.36426 6.66797C3.36426 4.47724 5.14033 2.70117 7.33105 2.70117Z" stroke="#9A9A9A" stroke-width="1.4"/>
</svg>