<svg xmlns="http://www.w3.org/2000/svg" width="24" height="24" fill="none"><path fill="#0166FF" fill-rule="evenodd" d="M17.846 2a.69.69 0 0 1 .689.689v2.526h2.526a.689.689 0 1 1 0 1.378h-2.526v2.526a.689.689 0 0 1-1.378 0V6.593h-2.526a.689.689 0 0 1 0-1.378h2.526V2.69A.69.69 0 0 1 17.846 2" clip-rule="evenodd"/><path fill="#0166FF" fill-rule="evenodd" d="M11.875 2h-.052c-2.121 0-3.783 0-5.08.175-1.327.178-2.374.55-3.196 1.372s-1.194 1.87-1.372 3.197C2 8.04 2 9.702 2 11.823v.104c0 2.121 0 3.783.175 5.08.178 1.327.55 2.374 1.372 3.196s1.87 1.194 3.197 1.373c1.296.174 2.958.174 5.079.174h.104c2.121 0 3.783 0 5.08-.174 1.327-.179 2.374-.552 3.196-1.373.822-.822 1.194-1.87 1.373-3.197.174-1.296.174-2.958.174-5.079v-.052a.69.69 0 0 0-1.378 0c0 2.184-.002 3.753-.162 4.948l-.02.14-2.548-2.295a3.445 3.445 0 0 0-4.285-.257l-.274.193a1.15 1.15 0 0 1-1.472-.128l-3.94-3.941a2.8 2.8 0 0 0-3.826-.127l-.466.407c.004-1.646.027-2.896.16-3.888.159-1.174.46-1.883.983-2.406s1.23-.823 2.405-.981c1.195-.16 2.764-.162 4.948-.162a.69.69 0 0 0 0-1.378M3.54 16.823c.158 1.174.459 1.883.982 2.406s1.23.823 2.405.981c1.195.16 2.764.162 4.948.162s3.753-.002 4.948-.162c1.174-.158 1.883-.459 2.406-.982.23-.23.419-.499.555-.794a1 1 0 0 1-.103-.076l-2.96-2.664a2.066 2.066 0 0 0-2.572-.157l-.273.193a2.53 2.53 0 0 1-3.24-.28l-3.94-3.94a1.424 1.424 0 0 0-1.945-.065l-1.373 1.202c.003 1.79.021 3.127.162 4.176" clip-rule="evenodd"/></svg>