<svg xmlns="http://www.w3.org/2000/svg" width="25" height="24" fill="none"><path stroke="#0166FF" stroke-linecap="round" stroke-width="1.2" d="M21.5 18h-18M21.5 14h-18M21.5 6h-5M21.5 10h-5"/><path fill="#0166FF" d="M12.444 9.219c0 1.093-.848 1.781-1.864 1.781-1.215 0-2.176-.94-2.176-2.397 0-2.048 1.6-3.603 3.4-3.603.4 0 .696.194.696.567 0 .307-.224.526-.536.542-1.16.05-2.016.81-2.264 1.96.232-.373.608-.567 1.096-.567.952 0 1.648.68 1.648 1.717M7.548 9.219C7.548 10.312 6.7 11 5.684 11 4.468 11 3.5 10.06 3.5 8.603 3.5 6.555 5.1 5 6.9 5c.4 0 .704.194.704.567 0 .307-.232.526-.536.542-1.16.057-2.024.81-2.272 1.96.232-.373.616-.567 1.096-.567.952 0 1.656.68 1.656 1.717"/></svg>