<svg xmlns="http://www.w3.org/2000/svg" width="24" height="24" fill="none"><path stroke="#494949" stroke-width="1.5" d="M4 12c0-3.017 0-4.526.937-5.463S7.383 5.6 10.4 5.6h3.2c3.017 0 4.525 0 5.463.937S20 8.983 20 12v1.6c0 3.017 0 4.525-.937 5.462C18.126 20 16.617 20 13.6 20h-3.2c-3.017 0-4.525 0-5.463-.938S4 16.617 4 13.6z"/><path stroke="#494949" stroke-linecap="round" stroke-width="1.5" d="M8 5.6V4.4M16 5.6V4.4M4.4 9.6h15.2"/><g fill="#494949"><path d="M16.8 16a.8.8 0 1 1-1.6 0 .8.8 0 0 1 1.6 0M16.8 12.8a.8.8 0 1 1-1.6 0 .8.8 0 0 1 1.6 0"/></g><g fill="#494949"><path d="M12.8 16a.8.8 0 1 1-1.6 0 .8.8 0 0 1 1.6 0M12.8 12.8a.8.8 0 1 1-1.6 0 .8.8 0 0 1 1.6 0"/></g><g fill="#494949"><path d="M8.8 16a.8.8 0 1 1-1.6 0 .8.8 0 0 1 1.6 0M8.8 12.8a.8.8 0 1 1-1.6 0 .8.8 0 0 1 1.6 0"/></g></svg>