<svg xmlns="http://www.w3.org/2000/svg" width="24" height="24" fill="none"><path stroke="#9A9A9A" stroke-width="1.2" d="M10.464 8.718C11.325 7.173 11.756 6.4 12.4 6.4s1.074.773 1.935 2.318l.223.4c.245.439.367.658.558.803s.429.199.904.306l.433.098c1.672.379 2.509.568 2.708 1.208.198.64-.372 1.306-1.512 2.64l-.295.345c-.324.379-.486.568-.559.802s-.048.488 0 .993l.045.46c.173 1.78.259 2.669-.262 3.064-.52.396-1.304.035-2.87-.686l-.405-.186c-.445-.205-.668-.308-.903-.308-.236 0-.459.103-.904.308l-.405.186c-1.566.721-2.349 1.082-2.87.686-.52-.395-.435-1.285-.262-3.064l.044-.46c.05-.505.074-.758.001-.993s-.235-.423-.559-.802l-.295-.345c-1.14-1.334-1.71-2-1.511-2.64s1.035-.83 2.707-1.208l.433-.098c.476-.107.713-.16.904-.306.19-.145.313-.364.558-.803z"/><path stroke="#9A9A9A" stroke-linejoin="round" d="M6.392 4s.23 1.166.735 1.668c.505.501 1.673.724 1.673.724s-1.166.23-1.668.735c-.501.505-.724 1.673-.724 1.673s-.23-1.166-.735-1.668C5.168 6.631 4 6.408 4 6.408s1.166-.23 1.668-.735C6.169 5.168 6.392 4 6.392 4Z"/><path stroke="#9A9A9A" stroke-linecap="round" stroke-width="1.5" d="M16.8 6.4h1.6m-.8.8V5.6"/></svg>