<svg width="24" height="24" viewBox="0 0 24 24" fill="none" xmlns="http://www.w3.org/2000/svg">
<path d="M12 22.0039C11.4245 22.0039 10.8743 21.7058 10.4926 21.1846L9.23703 19.4787C9.20797 19.4471 9.11302 19.3998 9.06652 19.3938H8.65188C5.16232 19.3938 3 18.4304 3 13.6347V9.76501C3 5.99601 4.95501 4.00391 8.65188 4.00391H15.3481C19.045 4.00391 21 5.99601 21 9.76304V13.6327C21 17.3998 19.045 19.3919 15.3481 19.3919H14.9296C14.8676 19.3919 14.8017 19.4254 14.761 19.4807L13.5074 21.1826C13.1238 21.7038 12.5735 22.0019 12 22.0019V22.0039ZM8.65188 5.28722C5.65447 5.28722 4.25942 6.70874 4.25942 9.76304V13.6327C4.25942 17.4629 5.61378 18.1085 8.65188 18.1085H9.0704C9.50248 18.1085 9.99849 18.3632 10.2484 18.7147L11.4982 20.4126C11.6435 20.61 11.8217 20.7186 11.9981 20.7186C12.1744 20.7186 12.3526 20.61 12.498 20.4126L13.7535 18.7068C14.0344 18.3316 14.4723 18.1085 14.9277 18.1085H15.3462C18.3436 18.1085 19.7386 16.687 19.7386 13.6327V9.76304C19.7386 6.70874 18.3436 5.28722 15.3462 5.28722H8.65188Z" fill="#5A5E66"/>
<path d="M16.1871 10.4056H7.81485C7.46803 10.4056 7.18514 10.1173 7.18514 9.76393C7.18514 9.41052 7.46803 9.12227 7.81485 9.12227H16.1851C16.532 9.12227 16.8149 9.41052 16.8149 9.76393C16.8149 10.1173 16.532 10.4056 16.1851 10.4056H16.1871Z" fill="#5A5E66"/>
<path d="M12.837 14.2758H7.81485C7.46803 14.2758 7.18514 13.9875 7.18514 13.6341C7.18514 13.2807 7.46803 12.9924 7.81485 12.9924H12.837C13.1839 12.9924 13.4667 13.2807 13.4667 13.6341C13.4667 13.9875 13.1839 14.2758 12.837 14.2758Z" fill="#5A5E66"/>
</svg>
