<svg xmlns="http://www.w3.org/2000/svg" width="24" height="24" fill="none"><path stroke="#9A9A9A" stroke-width="1.3" d="M9.8 6.4a2.4 2.4 0 1 1-4.8 0 2.4 2.4 0 0 1 4.8 0ZM21.8 10.4a2.4 2.4 0 1 1-4.8 0 2.4 2.4 0 0 1 4.8 0ZM7.8 19.4a2.4 2.4 0 1 1-4.8 0 2.4 2.4 0 0 1 4.8 0ZM14.4 13.4a2.4 2.4 0 1 1-4.8 0 2.4 2.4 0 0 1 4.8 0Z"/><path stroke="#9A9A9A" stroke-linecap="round" stroke-width="1.3" d="m8.5 8.5 2 2.5M17 11.5l-2.5 1M10 15.5l-2.5 2"/><path fill="#9A9A9A" d="M16.75 21a1.5 1.5 0 1 0 0-3 1.5 1.5 0 0 0 0 3M14.75 7a1.5 1.5 0 1 0 0-3 1.5 1.5 0 0 0 0 3M4 14.5a1.5 1.5 0 1 0 0-3 1.5 1.5 0 0 0 0 3"/></svg>