<svg xmlns="http://www.w3.org/2000/svg" width="24" height="24" fill="none"><path fill="#9A9A9A" d="M6.79 10.079c-.908 0-1.538-.001-2.013-.065-.46-.062-.7-.174-.868-.344l-.708.707c.386.386.871.551 1.443.628.557.075 1.266.074 2.145.074v-1ZM2.5 6.789c0 .88-.001 1.59.074 2.146.077.572.242 1.057.627 1.442l.708-.707c-.17-.169-.282-.408-.344-.868C3.5 8.327 3.5 7.697 3.5 6.789zm7.579 0c0 .908-.001 1.538-.065 2.013-.062.46-.174.7-.344.868l.707.707c.386-.385.551-.87.628-1.442.075-.557.074-1.266.074-2.146zm-3.29 4.29c.88 0 1.59.001 2.146-.074.572-.077 1.057-.242 1.442-.628L9.67 9.67c-.169.17-.408.282-.868.344-.475.064-1.105.065-2.013.065zm0-7.579c.908 0 1.538.001 2.013.065.46.062.7.174.868.344l.707-.708c-.385-.385-.87-.55-1.442-.627C8.378 2.499 7.67 2.5 6.79 2.5v1Zm4.29 3.29c0-.88.001-1.59-.074-2.146-.077-.572-.242-1.057-.628-1.443l-.707.708c.17.169.282.408.344.868.064.475.065 1.105.065 2.012zM6.789 2.5c-.879 0-1.588-.001-2.145.074-.572.077-1.057.242-1.443.627l.708.708c.169-.17.408-.282.868-.344C5.252 3.5 5.882 3.5 6.79 3.5v-1ZM3.5 6.79c0-.908.001-1.538.065-2.013.062-.46.174-.7.344-.868L3.2 3.2c-.385.386-.55.871-.627 1.443C2.499 5.2 2.5 5.91 2.5 6.789h1ZM6.79 20.5c-.908 0-1.538-.001-2.013-.065-.46-.062-.7-.174-.868-.343l-.708.707c.386.386.871.55 1.443.627.557.075 1.266.074 2.145.074v-1ZM2.5 17.21c0 .88-.001 1.59.074 2.146.077.572.242 1.057.627 1.443l.708-.707c-.17-.17-.282-.409-.344-.87-.064-.474-.065-1.104-.065-2.012zm7.579 0c0 .908-.001 1.538-.065 2.013-.062.46-.174.7-.344.869l.707.707c.386-.386.551-.871.628-1.443.075-.557.074-1.266.074-2.146zm-3.29 4.29c.88 0 1.59.001 2.146-.074.572-.077 1.057-.241 1.442-.627l-.707-.707c-.169.169-.408.281-.868.343-.475.064-1.105.065-2.013.065zm0-7.579c.908 0 1.538.001 2.013.065.46.062.7.175.868.344l.707-.707c-.385-.386-.87-.551-1.442-.628-.557-.075-1.266-.074-2.146-.074zm4.29 3.29c0-.88.001-1.59-.074-2.146-.077-.572-.242-1.057-.628-1.442l-.707.707c.17.169.282.408.344.868.064.475.065 1.105.065 2.012h1Zm-4.29-4.29c-.879 0-1.588-.001-2.145.074-.572.077-1.057.242-1.443.628l.708.707c.169-.17.408-.282.868-.344.475-.064 1.105-.065 2.012-.065zM3.5 17.211c0-.908.001-1.538.065-2.013.062-.46.174-.7.344-.868l-.708-.707c-.385.385-.55.87-.627 1.442-.075.557-.074 1.266-.074 2.146zm13.71 3.29c-.907 0-1.537-.001-2.012-.065-.46-.062-.7-.175-.869-.344l-.707.707c.386.386.871.551 1.443.628.557.075 1.266.074 2.145.074zm-4.29-3.29c0 .88 0 1.589.075 2.146.077.571.241 1.057.627 1.442l.707-.707c-.169-.169-.281-.408-.343-.868-.064-.475-.065-1.105-.065-2.013h-1Zm7.58 0c0 .908-.001 1.538-.065 2.013-.062.46-.175.7-.344.868l.707.707c.386-.385.551-.87.628-1.442.075-.557.074-1.267.074-2.146zm-3.29 4.29c.88 0 1.589 0 2.146-.074.571-.077 1.057-.242 1.442-.628l-.707-.707c-.169.17-.408.282-.868.344-.475.064-1.105.065-2.013.065zm0-7.58c.908 0 1.538.002 2.013.066.46.062.7.174.868.343l.707-.707c-.385-.386-.87-.55-1.442-.627-.557-.075-1.267-.074-2.146-.074zm4.29 3.29c0-.879 0-1.588-.074-2.145-.077-.572-.242-1.057-.628-1.443l-.707.707c.17.17.282.408.344.869.064.475.065 1.105.065 2.012zm-4.29-4.29c-.879 0-1.588 0-2.145.075-.572.076-1.057.241-1.443.627l.707.707c.17-.169.408-.281.869-.343.475-.064 1.105-.065 2.012-.065v-1Zm-3.29 4.29c0-.907.002-1.537.066-2.012.062-.46.174-.7.343-.869l-.707-.707c-.386.386-.55.871-.627 1.443-.075.557-.074 1.266-.074 2.145h1Zm6.58-10.42a3.29 3.29 0 0 1-3.29 3.29v1a4.29 4.29 0 0 0 4.29-4.29zm-3.29 3.29a3.29 3.29 0 0 1-3.29-3.29h-1a4.29 4.29 0 0 0 4.29 4.29zm-3.29-3.29a3.29 3.29 0 0 1 3.29-3.29v-1a4.29 4.29 0 0 0-4.29 4.29zm3.29-3.29a3.29 3.29 0 0 1 3.29 3.29h1a4.29 4.29 0 0 0-4.29-4.29z"/></svg>