<svg xmlns="http://www.w3.org/2000/svg" width="18" height="18" fill="none"><path stroke="#9A9A9A" stroke-width="1.2" d="m4.617 6.992-.002.002-.003.002-.007.006q-.049.037-.095.078-.117.105-.226.218c-.18.19-.411.472-.628.85-.436.76-.803 1.895-.597 3.412.203 1.498.833 2.75 1.896 3.623 1.06.87 2.496 1.317 4.232 1.317 1.79 0 3.22-.671 4.166-1.822.937-1.141 1.356-2.698 1.256-4.398-.096-1.632-.985-2.87-1.77-3.964l-.224-.313c-.857-1.209-1.533-2.323-1.368-3.881a.563.563 0 0 0-.56-.622c-.286 0-.615.089-.931.222a5 5 0 0 0-1.03.6c-.694.523-1.387 1.313-1.757 2.367-.37 1.051-.182 2.053.088 2.783.178.48-.015.953-.305 1.09a.53.53 0 0 1-.695-.232l-.605-1.148a.563.563 0 0 0-.834-.189"/><path stroke="#9A9A9A" stroke-width="1.2" d="m7.105 10.722-.002.001-.003.003-.043.035q-.053.047-.102.098a2 2 0 0 0-.284.382c-.197.343-.362.854-.27 1.536.092.674.377 1.238.857 1.63.479.392 1.127.593 1.912.593.808 0 1.454-.302 1.881-.82.424-.514.613-1.214.567-1.98-.043-.734-.444-1.29-.799-1.783l-.101-.14c-.387-.545-.692-1.046-.618-1.747a.253.253 0 0 0-.253-.28c-.13 0-.278.04-.42.1q-.25.106-.466.27c-.313.235-.626.59-.793 1.065-.167.473-.082.924.04 1.252.08.216-.007.43-.138.491a.24.24 0 0 1-.314-.104l-.273-.517a.254.254 0 0 0-.377-.085"/></svg>