<svg xmlns="http://www.w3.org/2000/svg" width="24" height="24" fill="none"><path stroke="#5A5E66" stroke-linecap="round" stroke-width="1.2" d="M10.09 17.672c1.53 1.36 3.662 2.642 5.162 2.642a2 2 0 0 0 .668-.102c1.775-.659 2.675-3.326 2.675-7.927 0-.769 0-1.642-.106-2.523m.957-6.082-2.024 2.012m0 0A3.383 3.383 0 0 0 15.92 4.37c-1.513-.566-4.14 1.046-6.015 2.66H8.652c-1.156 0-2.242.45-3.06 1.268a4.3 4.3 0 0 0-1.269 3.06v1.856a4.32 4.32 0 0 0 1.92 3.595M17.422 5.692 6.242 16.808m0 0-2.56 2.548"/></svg>