<svg xmlns="http://www.w3.org/2000/svg" width="20" height="20" fill="none"><path stroke="#494949" stroke-linecap="round" stroke-linejoin="round" stroke-width="1.2" d="M3.785 2.517a7.8 7.8 0 0 1 2.96.212c1.288.34 2.354 1.092 2.998 2.117.165.266.17.596.013.86a1.08 1.08 0 0 0-.126.787c.088.4.113.813.07 1.23-.026.278.045.562.198.798l1.092 1.675a.21.21 0 0 1 .018.208.22.22 0 0 1-.17.122l-.83.573-.34 2.305a1 1 0 0 1-.399.854 1.03 1.03 0 0 1-.942.164l-.247-.077a1.127 1.127 0 0 0-1.425.817c-.081.365-.101.741-.061 1.117q.014.168-.016.33l-.004.002-2.618-.82m9.07-5.24 3.6-2.614m-3.18 4.593h3.614m-4.482 1.826L16.15 17"/></svg>