<svg xmlns="http://www.w3.org/2000/svg" width="24" height="24" fill="none"><path fill="#494949" d="M9.356 12.878a.878.878 0 1 1-1.756 0 .878.878 0 0 1 1.756 0M12.867 12.878a.878.878 0 1 1-1.756 0 .878.878 0 0 1 1.756 0M16.38 12.878a.878.878 0 1 1-1.757 0 .878.878 0 0 1 1.756 0M10 6.6l.588.465a.75.75 0 0 0-.032-.969zm-2.5.012.017.75zm1.156-2.615a.75.75 0 0 0-1.112 1.006zM7.512 8.535a.75.75 0 0 0 1.176.93zm8.25-1.933.005-.75h-.005zM6.968 20.121a.75.75 0 1 0 .062-1.499zM11.5 18.65a.75.75 0 0 0 0 1.5zm3-12.798a.75.75 0 0 0 0 1.5zM2.25 13c0 1.487-.002 2.678.124 3.61.128.955.402 1.752 1.033 2.383l1.06-1.061c-.305-.306-.5-.733-.607-1.521-.108-.81-.11-1.882-.11-3.411zm18 0c0 1.53-.002 2.601-.11 3.41-.106.79-.302 1.216-.608 1.522l1.061 1.06c.631-.63.905-1.427 1.033-2.381.126-.933.124-2.124.124-3.611zm-5.65 7.15c1.487 0 2.678.001 3.611-.124.955-.129 1.75-.402 2.382-1.033l-1.06-1.061c-.307.306-.733.501-1.522.607-.81.109-1.881.11-3.411.11zM21.75 13c0-1.488.002-2.679-.124-3.612-.128-.954-.402-1.75-1.033-2.381l-1.06 1.06c.305.306.5.733.607 1.521.108.81.11 1.882.11 3.412zm-18 0c0-1.53.002-2.602.11-3.412.106-.788.302-1.215.608-1.52L3.407 7.006c-.631.63-.905 1.427-1.033 2.381-.126.933-.124 2.124-.124 3.612zM10 5.85c-.709 0-1.949 0-2.517.012l.034 1.5C8.063 7.35 9.28 7.35 10 7.35zm-2.517.012c-1.77.04-3.122.19-4.076 1.145l1.06 1.06c.478-.477 1.222-.664 3.05-.705zm3.073.234-1.9-2.1-1.112 1.007 1.9 2.1zm-1.144.038-1.9 2.4 1.176.931 1.9-2.4zm6.344 1.218c1.135.008 1.944.04 2.561.157.596.113.95.293 1.215.558l1.061-1.06c-.543-.543-1.21-.823-1.997-.972-.767-.145-1.704-.175-2.83-.183zm-8.725 11.27c-1.489-.061-2.138-.264-2.563-.69l-1.061 1.06c.867.868 2.055 1.066 3.562 1.129zm7.569.028h-3.1v1.5h3.1zm1.162-12.798H14.5v1.5h1.261z"/></svg>