<svg xmlns="http://www.w3.org/2000/svg" width="16" height="17" fill="none" viewBox="0 0 16 17">
  <path stroke="#5A5E66" stroke-linecap="round" d="M2 8.303v.583c0 1.918 0 2.876.545 3.521.1.118.211.227.333.324.663.53 1.65.53 3.623.53 1.972 0 2.959 0 3.623-.53.121-.097.232-.206.332-.324.545-.645.545-1.604.545-3.52v-.584c0-1.917 0-2.876-.545-3.521a2.372 2.372 0 0 0-.332-.324c-.664-.53-1.65-.53-3.623-.53-1.973 0-2.96 0-3.623.53a2.367 2.367 0 0 0-.333.324c-.257.304-.393.677-.464 1.188M11 7.135l.395-.192c1.167-.568 1.751-.851 2.178-.595.427.256.427.89.427 2.16v.17c0 1.269 0 1.903-.427 2.16-.427.256-1.01-.028-2.178-.595L11 10.05V7.135ZM7.994 6.85a1 1 0 0 1 0 1.444 1.072 1.072 0 0 1-1.486 0 1 1 0 0 1 0-1.444 1.072 1.072 0 0 1 1.486 0Z"/>
</svg>
