<svg xmlns="http://www.w3.org/2000/svg" width="24" height="24" fill="none"><path stroke="#0E0E0E" stroke-width="1.2" d="M12.014 14.625a2.614 2.614 0 1 0 0-5.227 2.614 2.614 0 0 0 0 5.227Z"/><path stroke="#0E0E0E" stroke-width="1.2" d="M13.552 3.431c-.32-.132-.726-.132-1.538-.132s-1.218 0-1.538.132a1.74 1.74 0 0 0-.943.944c-.08.194-.113.422-.125.752a1.41 1.41 0 0 1-.688 1.179 1.41 1.41 0 0 1-1.365.006c-.293-.155-.505-.24-.715-.268a1.74 1.74 0 0 0-1.287.345c-.274.212-.478.563-.884 1.266s-.61 1.054-.654 1.398a1.74 1.74 0 0 0 .345 1.29c.129.166.31.307.589.483.412.258.677.7.677 1.185 0 .487-.265.927-.677 1.185-.28.177-.461.317-.59.485a1.74 1.74 0 0 0-.344 1.288c.045.344.248.696.653 1.399.407.703.61 1.054.885 1.266a1.74 1.74 0 0 0 1.288.345c.21-.028.421-.114.714-.269a1.41 1.41 0 0 1 1.365.007c.42.244.67.693.688 1.179.012.331.044.558.125.752a1.74 1.74 0 0 0 .943.944c.32.132.726.132 1.538.132s1.218 0 1.538-.133a1.74 1.74 0 0 0 .944-.943c.08-.194.112-.42.124-.752.018-.486.268-.936.688-1.179a1.41 1.41 0 0 1 1.366-.007c.292.155.504.24.713.269a1.74 1.74 0 0 0 1.289-.345c.274-.211.477-.563.883-1.266s.61-1.055.654-1.399a1.74 1.74 0 0 0-.344-1.288c-.13-.168-.31-.308-.59-.484a1.41 1.41 0 0 1-.676-1.186c0-.486.264-.927.677-1.184.28-.177.46-.318.588-.485a1.74 1.74 0 0 0 .346-1.289c-.046-.343-.249-.695-.654-1.398-.407-.703-.61-1.054-.884-1.266a1.74 1.74 0 0 0-1.289-.345c-.209.028-.42.113-.714.269a1.41 1.41 0 0 1-1.365-.007 1.41 1.41 0 0 1-.688-1.18c-.012-.33-.043-.557-.124-.751a1.74 1.74 0 0 0-.944-.944Z"/></svg>