<svg xmlns="http://www.w3.org/2000/svg" width="24" height="24" fill="none"><path stroke="#0166FF" stroke-width="1.2" d="M13 15.867c0-1.28 0-1.919.147-2.134s.731-.421 1.9-.833l.223-.078c.61-.215.915-.322 1.23-.322.316 0 .62.107 1.23.322l.223.078c1.169.412 1.753.618 1.9.833s.147.855.147 2.134v.63c0 2.255-1.648 3.35-2.683 3.814-.28.126-.42.189-.817.189s-.537-.063-.817-.19C14.649 19.847 13 18.753 13 16.498z"/><path stroke="#0166FF" stroke-linecap="round" stroke-linejoin="round" stroke-width="1.2" d="m15.5 16.5.762.533 1.238-1.5"/><path fill="#0166FF" d="M11.4 20.6a.6.6 0 1 0 0-1.2zm7.4-10.2a.6.6 0 1 0 1.2 0zm-10.3 0a.6.6 0 1 0 0 1.2zm3.5 1.2a.6.6 0 1 0 0-1.2zM8.5 7.2a.6.6 0 0 0 0 1.2zm6.4 1.2a.6.6 0 1 0 0-1.2zm-6.4 5a.6.6 0 1 0 0 1.2zm1.5 1.2a.6.6 0 1 0 0-1.2zm1.4-10H13V3.4h-1.6zm-5.8 9v-3.2H4.4v3.2zm5.8 5.8c-1.525 0-2.61-.001-3.431-.112-.805-.108-1.269-.311-1.607-.65l-.849.849c.599.599 1.358.864 2.296.99.92.124 2.1.123 3.591.123zm-7-5.8c0 1.492-.001 2.67.123 3.591.126.938.391 1.697.99 2.296l.849-.848c-.34-.34-.542-.803-.65-1.608-.11-.822-.112-1.905-.112-3.431zm8.6-9c1.525 0 2.61.001 3.431.112.805.108 1.269.311 1.607.65l.849-.849c-.599-.599-1.358-.864-2.296-.99-.92-.124-2.1-.123-3.591-.123zm7 5.8c0-1.492.001-2.67-.122-3.591-.127-.938-.392-1.697-.991-2.296l-.849.849c.339.338.542.802.65 1.607.11.822.112 1.906.112 3.431zm-8.6-7c-1.492 0-2.67-.001-3.591.123-.938.126-1.697.391-2.296.99l.849.849c.338-.34.802-.542 1.607-.65.822-.11 1.906-.112 3.431-.112zm-5.8 7c0-1.525.001-2.61.112-3.431.108-.805.311-1.269.65-1.607l-.849-.849c-.599.599-.864 1.358-.99 2.296-.124.92-.123 2.1-.123 3.591zm2.9 1.2H12v-1.2H8.5zm0-3.2h6.4V7.2H8.5zm0 6.2H10v-1.2H8.5z"/></svg>