<svg xmlns="http://www.w3.org/2000/svg" width="24" height="24" fill="none"><path fill="#9A9A9A" d="M18.35 12c0 .52-.407.942-.908.942-.5 0-.907-.422-.907-.943s.406-.942.907-.942.907.422.907.942"/><path fill="#9A9A9A" fill-rule="evenodd" d="M10.135 3.75h2.823c1.667 0 2.987 0 4.02.144 1.064.149 1.924.462 2.603 1.168.839.871 1.106 2.039 1.203 3.553.523.24.919.746.962 1.388q.005.087.004.175v3.644q.001.088-.004.175a1.64 1.64 0 0 1-.962 1.388c-.097 1.515-.364 2.682-1.203 3.553-.678.706-1.54 1.019-2.603 1.168-1.033.144-2.353.144-4.02.144h-2.823c-1.667 0-2.987 0-4.02-.144-1.064-.149-1.924-.462-2.603-1.168-.679-.705-.98-1.6-1.123-2.705-.139-1.075-.139-2.447-.139-4.18v-.106c0-1.733 0-3.105.139-4.18.143-1.105.444-2 1.123-2.705s1.54-1.019 2.603-1.168c1.033-.144 2.353-.144 4.02-.144m9.273 11.786h-1.757c-1.945 0-3.61-1.535-3.61-3.536s1.665-3.536 3.61-3.536h1.757c-.103-1.265-.337-1.932-.789-2.402-.384-.4-.91-.638-1.822-.766-.932-.13-2.16-.132-3.89-.132h-2.721c-1.73 0-2.958.002-3.89.132-.913.128-1.438.367-1.822.766s-.614.945-.737 1.894c-.125.969-.127 2.246-.127 4.044s.002 3.075.127 4.044c.123.949.353 1.495.737 1.894.384.4.91.638 1.822.766.932.13 2.16.132 3.89.132h2.721c1.73 0 2.958-.002 3.89-.132.913-.128 1.438-.367 1.822-.766.452-.47.686-1.137.79-2.402m.685-5.657h-2.441c-1.292 0-2.25.998-2.25 2.121s.958 2.121 2.25 2.121h2.464c.187-.012.267-.143.273-.222V10.1c-.006-.079-.086-.21-.273-.222zM7.465 8.464c.376 0 .68.317.68.707v5.658c0 .39-.304.707-.68.707a.694.694 0 0 1-.68-.707V9.17c0-.39.304-.707.68-.707" clip-rule="evenodd"/></svg>