<svg xmlns="http://www.w3.org/2000/svg" width="20" height="20" fill="none"><path fill="#0166FF" fill-rule="evenodd" d="M5.412 2.562 4.176 7.09l-.019.08C1.779 7.547.238 8.154.238 8.838c0 1.146 4.34 2.077 9.693 2.077 5.354 0 9.693-.93 9.693-2.077 0-.684-1.54-1.29-3.918-1.669l-.02-.08-1.235-4.528c-.202-.738-.967-1.176-1.716-1.017-.85.18-1.945.37-2.804.37s-1.954-.188-2.804-.37c-.749-.159-1.513.277-1.715 1.018m.02 5.355a.346.346 0 0 1 .38-.31c1.246.127 2.645.198 4.12.198a42 42 0 0 0 4.119-.198.346.346 0 1 1 .069.69c-1.271.128-2.692.2-4.189.2s-2.917-.072-4.188-.2a.346.346 0 0 1-.31-.38" clip-rule="evenodd"/><path fill="#0166FF" d="m10.009 20-.698-4.657.698-2.338.698 2.338zM17.473 12.536l-4.657.698-2.338-.698 2.338-.698zM2.545 12.536l4.657-.698 2.338.698-2.338.698zM15.255 17.846l-3.769-2.822-1.147-2.155 2.14 1.174zM4.7 17.782l2.822-3.77 2.154-1.147-1.174 2.14z"/></svg>