<svg xmlns="http://www.w3.org/2000/svg" width="24" height="24" fill="none"><path fill="#9A9A9A" d="M4 3.986a.6.6 0 0 0 0 1.2zm16 1.2a.6.6 0 1 0 0-1.2zM9.835 10.194l-.407-.44zm1.793 0 .408-.44zm.743.686-.407.44zm1.794 0-.407-.44zm-4.033 9.17a.6.6 0 1 0 .536 1.073zm3.2 1.073a.6.6 0 1 0 .536-1.074zm4.265-5.299.412.436zM4 5.186h16v-1.2H4zm4.602 6.963 1.64-1.514-.814-.882-1.64 1.514zm2.62-1.514.742.686.814-.882-.742-.686zm3.35.686 1.64-1.514-.814-.881-1.64 1.513zm-2.607 0c.199.184.39.363.57.489.194.136.432.255.733.255v-1.2c.039 0 .04.022-.043-.037a5 5 0 0 1-.447-.389zm1.793-.882c-.223.207-.348.32-.447.39-.083.058-.081.036-.043.036v1.2c.301 0 .54-.119.734-.255.179-.126.37-.305.57-.49zm-3.516.196c.223-.206.348-.32.447-.39.083-.058.081-.036.043-.036v-1.2c-.301 0-.54.119-.734.256-.179.125-.37.304-.57.488zm1.793-.882c-.199-.184-.39-.363-.57-.488a1.25 1.25 0 0 0-.733-.256v1.2c-.039 0-.04-.022.043.037.098.07.223.183.447.39zm.565 10.033v-3.2h-1.2v3.2zm-1.932 1.337 1.6-.8-.536-1.074-1.6.8zm3.2-1.074-1.6-.8-.536 1.074 1.6.8zM17.8 4.586v6.8H19v-6.8zm-4.886 11.4h-1.828v1.2h1.828zm-6.714-4.6v-6.8H5v6.8zm4.886 4.6c-1.31 0-2.234-.001-2.934-.09-.686-.088-1.065-.25-1.336-.507l-.825.87c.532.506 1.201.724 2.01.827.793.101 1.808.1 3.085.1zM5 11.386c0 1.208-.001 2.177.106 2.937.111.78.347 1.428.885 1.937l.825-.871c-.266-.252-.431-.599-.522-1.234-.093-.656-.094-1.525-.094-2.77zm12.8 0c0 1.244-.001 2.113-.095 2.769-.09.635-.255.982-.521 1.234l.825.87c.538-.508.774-1.155.885-1.936.107-.76.106-1.73.106-2.937zm-4.886 5.8c1.277 0 2.292.001 3.086-.1.808-.103 1.477-.321 2.01-.826l-.826-.871c-.27.257-.65.42-1.336.507-.7.089-1.625.09-2.934.09z"/></svg>