<svg xmlns="http://www.w3.org/2000/svg" width="24" height="24" fill="none"><path fill="#fff" fill-rule="evenodd" d="M10.458 20.063h.042a.563.563 0 0 0 0-1.125c-1.43 0-2.446-.002-3.217-.105-.754-.102-1.19-.292-1.507-.61-.317-.317-.507-.752-.609-1.506-.103-.77-.104-1.787-.104-3.217a.563.563 0 0 0-1.125 0v.042c0 1.379 0 2.47.114 3.325.119.88.368 1.59.929 2.152.561.561 1.273.81 2.152.929.855.114 1.946.114 3.325.114m6.259-1.23c-.77.103-1.787.105-3.217.105a.562.562 0 1 0 0 1.125h.042c1.379 0 2.47 0 3.325-.115.879-.119 1.59-.368 2.152-.929.561-.561.81-1.273.929-2.152.114-.855.114-1.946.114-3.325V13.5a.563.563 0 0 0-1.125 0c0 1.43 0 2.446-.104 3.217-.102.754-.292 1.19-.61 1.507-.317.317-.752.507-1.506.609m-6.594-2.543c-.158.021-.379.023-.748.023-.546 0-.9-.002-1.16-.037-.243-.032-.32-.085-.363-.128s-.096-.12-.128-.364c-.035-.26-.037-.613-.037-1.159 0-.37.002-.59.023-.748a.5.5 0 0 1 .031-.133l.001-.002h.002l.008-.004a.5.5 0 0 1 .125-.028c.158-.021.379-.023.748-.023h.75c.37 0 .59.002.748.023a.5.5 0 0 1 .133.031l.002.001v.002l.004.008a.5.5 0 0 1 .028.125c.021.158.023.378.023.748v.75c0 .37-.002.59-.023.748a.5.5 0 0 1-.028.125l-.001.003-.002.005-.001.002h-.002l-.008.004a.5.5 0 0 1-.125.028m.15 1.115c.267-.036.548-.12.78-.352s.316-.514.352-.78c.033-.242.033-.54.033-.864v-.818c0-.324 0-.622-.033-.864-.036-.267-.12-.548-.352-.78s-.514-.316-.78-.352a7 7 0 0 0-.864-.033H8.59c-.324 0-.622 0-.864.033-.267.036-.548.12-.78.352s-.316.514-.352.78c-.033.242-.033.54-.032.864v.071c0 .499 0 .928.046 1.272.05.37.161.723.448 1.01.286.286.64.398 1.009.447.344.047.773.047 1.272.047h.071c.324 0 .622 0 .864-.033m4.319.032h.07c.499 0 .928 0 1.272-.046.37-.05.723-.161 1.01-.448.286-.286.398-.64.447-1.009.047-.344.047-.773.047-1.272v-.07c0-.325 0-.623-.033-.865-.036-.267-.12-.548-.352-.78s-.514-.316-.78-.352a7 7 0 0 0-.864-.033h-.818c-.324 0-.622 0-.864.033-.267.036-.548.12-.78.352s-.316.514-.352.78c-.033.242-.033.54-.033.864v.818c0 .324 0 .622.033.864.036.267.12.548.352.78s.514.316.78.352c.242.033.54.032.864.032m-.848-1.178-.002-.001v-.002l-.004-.008a.5.5 0 0 1-.028-.125c-.021-.158-.023-.379-.023-.748v-.75c0-.37.002-.59.023-.748a.5.5 0 0 1 .028-.125l.003-.008.001-.002h.002l.008-.004a.5.5 0 0 1 .125-.028c.158-.021.378-.023.748-.023h.75c.37 0 .59.002.748.023a.5.5 0 0 1 .133.031l.002.001v.002l.004.008a.5.5 0 0 1 .028.125c.021.158.023.378.023.748 0 .546-.002.9-.037 1.16-.032.244-.085.32-.128.363s-.12.096-.364.128c-.26.035-.613.037-1.159.037-.37 0-.59-.002-.748-.023a.5.5 0 0 1-.125-.028l-.004-.001zm-5.153-4.821h.818c.324 0 .622 0 .864-.033.267-.036.548-.12.78-.352s.316-.514.352-.78c.033-.242.033-.54.033-.864V8.59c0-.324 0-.622-.033-.864-.036-.267-.12-.548-.352-.78s-.514-.316-.78-.352a7 7 0 0 0-.864-.032h-.071c-.499 0-.928 0-1.272.046-.37.05-.723.161-1.01.448-.286.286-.398.64-.447 1.009-.047.344-.047.773-.046 1.272v.07c0 .325 0 .623.032.865.036.267.12.548.352.78s.513.316.78.352c.242.033.54.033.864.033m-.847-1.18h-.002v-.002l-.004-.008a.5.5 0 0 1-.028-.125c-.021-.158-.022-.379-.022-.748 0-.546 0-.9.036-1.16.032-.243.085-.32.128-.363s.12-.096.364-.128c.26-.035.613-.037 1.159-.037.37 0 .59.002.748.023a.5.5 0 0 1 .133.031l.002.001v.002l.004.008a.5.5 0 0 1 .028.125c.021.158.023.379.023.748v.75c0 .37-.002.59-.023.748a.5.5 0 0 1-.028.125l-.003.008-.001.002h-.002l-.008.004a.5.5 0 0 1-.125.028c-.158.021-.379.023-.748.023h-.75c-.37 0-.59-.002-.748-.023a.5.5 0 0 1-.125-.028zm6.848 1.18h.816c.325 0 .623 0 .865-.033.267-.036.548-.12.78-.352s.316-.514.352-.78c.033-.242.033-.54.032-.864v-.071c0-.499 0-.928-.046-1.272-.05-.37-.161-.723-.448-1.01-.287-.286-.64-.398-1.009-.447-.344-.047-.773-.046-1.272-.046h-.07c-.325 0-.623 0-.865.032-.267.036-.548.12-.78.352s-.316.513-.352.78c-.033.242-.033.54-.033.864v.818c0 .324 0 .622.033.864.036.267.12.548.352.78s.514.316.78.352c.242.033.54.033.864.033m-.848-1.18h-.002v-.002l-.002-.003-.002-.005a.5.5 0 0 1-.028-.125c-.021-.158-.023-.379-.023-.748v-.75c0-.37.002-.59.023-.748a.5.5 0 0 1 .028-.125l.002-.005.001-.003.001-.002h.002l.008-.004a.5.5 0 0 1 .125-.028c.158-.021.378-.022.748-.022.546 0 .9 0 1.16.036.244.032.32.085.363.128s.096.12.128.364c.035.26.037.613.037 1.159 0 .37-.002.59-.023.748a.5.5 0 0 1-.028.125l-.003.008-.001.002h-.002l-.008.004a.5.5 0 0 1-.125.028c-.158.021-.379.023-.748.023h-.75c-.37 0-.59-.002-.748-.023a.5.5 0 0 1-.125-.028zm-9.244.805c.31 0 .563-.252.563-.563 0-1.43 0-2.446.104-3.217.102-.754.292-1.19.61-1.507.317-.317.752-.507 1.506-.609.77-.103 1.787-.104 3.217-.104a.563.563 0 0 0 0-1.125h-.042c-1.379 0-2.47 0-3.325.114-.88.119-1.59.368-2.152.929-.561.561-.81 1.273-.929 2.152-.115.855-.115 1.946-.114 3.325v.042c0 .31.251.563.562.563m15 0c.31 0 .563-.252.563-.563v-.042c0-1.379 0-2.47-.115-3.325-.119-.88-.368-1.59-.929-2.152-.561-.561-1.273-.81-2.152-.929-.855-.114-1.946-.114-3.325-.114H13.5a.562.562 0 1 0 0 1.124c1.43 0 2.446.002 3.217.105.754.102 1.19.292 1.507.61.317.317.507.752.609 1.506.103.77.105 1.787.105 3.217 0 .31.251.563.562.563" clip-rule="evenodd"/></svg>