<svg xmlns="http://www.w3.org/2000/svg" width="24" height="24" fill="none"><path fill="#5A5E66" d="M12 21.004c-.575 0-1.126-.298-1.507-.82L9.237 18.48a.4.4 0 0 0-.17-.085h-.415c-3.49 0-5.652-.964-5.652-5.76V8.766c0-3.769 1.955-5.761 5.652-5.761h6.696C19.045 3.004 21 4.996 21 8.763v3.87c0 3.767-1.955 5.759-5.652 5.759h-.418a.22.22 0 0 0-.169.089l-1.254 1.702c-.383.52-.934.819-1.507.819zM8.652 4.287c-2.998 0-4.393 1.422-4.393 4.476v3.87c0 3.83 1.355 4.476 4.393 4.476h.418c.432 0 .928.254 1.178.606l1.25 1.698c.146.197.324.306.5.306s.355-.109.5-.306l1.256-1.706c.28-.375.718-.599 1.174-.599h.418c2.998 0 4.393-1.421 4.393-4.475v-3.87c0-3.054-1.395-4.476-4.393-4.476z"/><path fill="#5A5E66" d="M16.187 9.406H7.815a.637.637 0 0 1-.63-.642c0-.353.283-.642.63-.642h8.37c.347 0 .63.289.63.642a.637.637 0 0 1-.63.642zM12.837 13.276H7.815a.637.637 0 0 1-.63-.642c0-.353.283-.642.63-.642h5.022c.347 0 .63.289.63.642a.637.637 0 0 1-.63.642"/></svg>