<svg xmlns="http://www.w3.org/2000/svg" width="24" height="24" fill="none"><path stroke="#0E0E0E" stroke-width="1.177" d="M8.74 5.57c1.592-.942 2.388-1.414 3.262-1.414s1.67.472 3.261 1.414l.538.319c1.592.942 2.388 1.414 2.825 2.19s.437 1.719.437 3.604v.637c0 1.885 0 2.828-.437 3.604s-1.233 1.247-2.825 2.19l-.538.319c-1.591.942-2.387 1.413-3.261 1.413s-1.67-.47-3.261-1.413l-.538-.32c-1.592-.942-2.388-1.413-2.825-2.19-.437-.775-.437-1.718-.437-3.603v-.637c0-1.885 0-2.828.437-3.604s1.233-1.248 2.825-2.19z"/><path stroke="#0E0E0E" stroke-width="1.177" d="M11.998 14.348a2.354 2.354 0 1 0 0-4.707 2.354 2.354 0 0 0 0 4.707Z"/></svg>