<svg xmlns="http://www.w3.org/2000/svg" width="81" height="80" fill="none"><path fill="#0166FF" d="M62.944 16C54.69 16 48 22.69 48 30.944c0 8.253 6.69 14.944 14.944 14.944 8.253 0 14.944-6.691 14.944-14.944S71.197 16 62.944 16"/><path stroke="#fff" stroke-linecap="round" stroke-linejoin="round" stroke-width="2" d="m57 31.167 4.167 4.166L69.5 27"/><path fill="#E1EAF8" d="m41.282 35.176-1.92-11.878a7.48 7.48 0 0 0-7.382-6.284h-1.636a4.325 4.325 0 0 0-4.29 3.787h6.244a.547.547 0 0 1 0 1.094h-6.279v7.46h8.841a.547.547 0 0 1 0 1.095h-8.84v5.514a4.223 4.223 0 0 0 4.223 4.223h6.772a4.32 4.32 0 0 0 4.267-5.01"/><path fill="#9A9A9A" d="M32.412 54.039a.54.54 0 0 1-.344-.122L3.02 30.417a.546.546 0 1 1 .687-.85L32.755 53.07c.235.19.249.484.058.718-.108.133-.242.252-.401.252m8.942 0c-.16 0-.164-.167-.272-.3-.19-.234-.308-.481-.072-.672L51.723 44.4a.548.548 0 0 1 .687.85l-10.712 8.667a.54.54 0 0 1-.344.122"/><path fill="#9A9A9A" d="M67.264 77.832H6.5a4.05 4.05 0 0 1-4.047-4.046V31.692c0-1.434.64-2.775 1.755-3.676l9.33-7.549a.547.547 0 0 1 .687.85l-9.33 7.549a3.62 3.62 0 0 0-1.348 2.826v42.093A2.957 2.957 0 0 0 6.5 76.739h60.764a2.957 2.957 0 0 0 2.953-2.954V46.123a.547.547 0 0 1 1.094 0v27.665a4.05 4.05 0 0 1-4.047 4.045m-19.52-66.21a.54.54 0 0 1-.344-.122l-9.925-8.03a.95.95 0 0 0-1.187 0l-9.925 8.03a.548.548 0 0 1-.688-.85L35.6 2.62c.742-.6 1.82-.6 2.563 0l9.925 8.03a.546.546 0 0 1-.344.971"/><path fill="#9A9A9A" d="M30.085 11.074 33.54 8.28a8.544 8.544 0 0 1 10.748 0l3.455 2.795zM9.67 35.194l4.21 3.307-.173-13.714-4.09 3.31c-2.266 1.833-2.241 5.297.053 7.097m59.956 41.72a.54.54 0 0 1-.344-.123l-31.38-25.387a1.63 1.63 0 0 0-2.042 0l-28.676 23.2a.548.548 0 0 1-.688-.85l28.675-23.2a2.73 2.73 0 0 1 3.419 0L69.97 75.94a.546.546 0 0 1-.345.972"/><path fill="#9A9A9A" d="M13.883 39.048a.55.55 0 0 1-.547-.547V13.265a2.74 2.74 0 0 1 2.737-2.738h41.62a2.74 2.74 0 0 1 2.737 2.738v1.028a.547.547 0 0 1-1.094 0v-1.028c0-.906-.738-1.644-1.644-1.644H16.073c-.906 0-1.643.738-1.643 1.644V38.5a.547.547 0 0 1-.547.547"/><path fill="#9A9A9A" d="M48.893 20.821H23.316a.547.547 0 0 1 0-1.094h25.577a.548.548 0 0 1 0 1.094m-3.19 8.547H23.315a.547.547 0 0 1 0-1.094h22.386a.547.547 0 0 1 0 1.094m.482 8.546H23.316a.547.547 0 0 1 0-1.094h22.87a.547.547 0 1 1 0 1.093"/></svg>