<svg xmlns="http://www.w3.org/2000/svg" width="16" height="16" fill="none"><g stroke="#0166FF" stroke-linecap="round" stroke-linejoin="round" stroke-width="1.143" clip-path="url(#a)"><path d="M10.285 8.571c2.84 0 5.143-1.023 5.143-2.285S13.126 4 10.285 4 5.143 5.023 5.143 6.286c0 1.262 2.302 2.285 5.142 2.285"/><path d="M5.143 6.285v6.857c0 1.257 2.285 2.286 5.142 2.286s5.143-1.029 5.143-2.286V6.285"/><path d="M15.428 9.713c0 1.258-2.286 2.286-5.143 2.286-2.858 0-5.143-1.028-5.143-2.286m5.028-8A7.74 7.74 0 0 0 5.713.571C2.867.57.57 1.599.57 2.856c0 .675.663 1.28 1.715 1.715"/><path d="M2.285 11.427C1.233 10.993.57 10.387.57 9.713V2.855"/><path d="M2.285 8C1.233 7.564.57 6.96.57 6.284"/></g><defs><clipPath id="a"><path fill="#fff" d="M0 0h16v16H0z"/></clipPath></defs></svg>