<svg xmlns="http://www.w3.org/2000/svg" width="24" height="24" fill="none" viewBox="0 0 24 24">
  <path fill="#727689" d="M4.352 10.971a.6.6 0 0 0 0 1.2v-1.2ZM20.498 21.6a.6.6 0 1 0 0-1.2v1.2ZM3.5 20.4a.6.6 0 1 0 0 1.2v-1.2ZM15.65 6.429v4.285h1.2V6.43h-1.2Zm-4.5 8.828H9.452v1.2h1.7v-1.2Zm-6.198-4.543V6.43h-1.2v4.285h1.2Zm2.8-7.114h5.099V2.4h-5.1v1.2Zm1.7 11.657c-1.22 0-2.073-.001-2.718-.089-.627-.085-.966-.24-1.21-.486l-.852.845c.504.507 1.139.727 1.9.83.745.101 1.694.1 2.88.1v-1.2Zm-5.7-4.543c0 1.196-.002 2.152.098 2.901.102.766.32 1.405.822 1.912l.852-.845c-.244-.247-.4-.59-.484-1.225-.087-.652-.088-1.514-.088-2.743h-1.2Zm11.898 0c0 1.23 0 2.091-.088 2.743-.084.634-.24.978-.484 1.224l.852.846c.502-.507.72-1.146.822-1.912.1-.749.098-1.705.098-2.9h-1.2Zm-4.5 5.743c1.186 0 2.135.001 2.88-.1.761-.103 1.396-.323 1.9-.83l-.852-.845c-.244.245-.583.401-1.21.486-.645.088-1.498.09-2.717.09v1.2Zm5.7-10.028c0-.792.002-1.445-.067-1.96-.071-.533-.226-1.008-.604-1.39l-.852.846c.12.12.213.3.266.702.056.418.057.977.057 1.802h1.2Zm-4-2.829c.82 0 1.372.001 1.785.057.396.054.572.147.691.268l.853-.845c-.38-.382-.852-.54-1.382-.612-.513-.07-1.162-.068-1.946-.068v1.2ZM4.953 6.429c0-.825 0-1.384.057-1.802.053-.401.147-.582.266-.702l-.852-.845c-.378.38-.533.856-.604 1.388-.069.516-.067 1.17-.067 1.96h1.2Zm2.8-4.029c-.785 0-1.434-.001-1.947.068-.53.072-1.003.23-1.382.612l.853.845c.119-.12.295-.214.69-.268.414-.056.967-.057 1.785-.057V2.4Zm8.498 2.914h.85v-1.2h-.85v1.2Zm3.65 2.829c0 1.567-1.258 2.828-2.8 2.828v1.2c2.214 0 4-1.808 4-4.028h-1.2Zm1.2 0c0-2.22-1.786-4.029-4-4.029v1.2c1.542 0 2.8 1.262 2.8 2.829h1.2ZM20.498 20.4H3.5v1.2h16.998v-1.2ZM17.1 10.971H4.352v1.2H17.1v-1.2Z"/>
</svg>
