<svg xmlns="http://www.w3.org/2000/svg" width="24" height="24" fill="none"><path fill="#0166FF" fill-rule="evenodd" d="M4.318 4.318C3 5.636 3 7.758 3 12s0 6.364 1.318 7.682S7.758 21 12 21s6.364 0 7.682-1.318S21 16.242 21 12s0-6.364-1.318-7.682S16.242 3 12 3 5.636 3 4.318 4.318M7.401 9a.6.6 0 0 0-1.2 0v6a.6.6 0 1 0 1.2 0v-2.4h2.8V15a.6.6 0 1 0 1.2 0V9a.6.6 0 1 0-1.2 0v2.4H7.4zm5.7-.6a.6.6 0 1 0 0 1.2h3.4v1.8h-1.9a.6.6 0 1 0 0 1.2h1.9v1.8h-3.4a.6.6 0 1 0 0 1.2h3.5a1.1 1.1 0 0 0 1.1-1.1v-5a1.1 1.1 0 0 0-1.1-1.1z" clip-rule="evenodd"/></svg>