<svg xmlns="http://www.w3.org/2000/svg" width="24" height="24" fill="none"><path fill="#fff" d="m14.932 18.504.565.701zm-9.783-3.44.679-.591zm3.919 3.44-.565.7zM6.14 4.449l-.38-.815zm4.283 15.047-.46.772zm8.428-4.432-.679-.591zM17.86 4.449l-.38.816zm-4.283 15.047-.461-.773zM12 5.646l-.607.664a.9.9 0 0 0 1.214 0zM2.1 9.644c0 2.553 1.051 4.493 2.37 6.01l1.358-1.182C4.708 13.185 3.9 11.648 3.9 9.645zm2.37 6.01c1.266 1.455 2.891 2.63 4.033 3.55l1.129-1.402c-1.247-1.004-2.675-2.032-3.804-3.33zM5.76 3.633C3.567 4.657 2.1 7 2.1 9.644h1.8c0-1.992 1.103-3.67 2.62-4.38zm2.743 15.57c.421.34.93.748 1.46 1.064l.922-1.545c-.404-.241-.816-.569-1.253-.92zm1.46 1.064c.528.316 1.226.632 2.037.632v-1.8c-.345 0-.711-.136-1.116-.377zm5.534-1.063c1.142-.92 2.767-2.095 4.033-3.55l-1.358-1.182c-1.129 1.298-2.558 2.326-3.804 3.33zm4.033-3.55c1.319-1.517 2.37-3.457 2.37-6.01h-1.8c0 2.004-.808 3.54-1.928 4.828zm2.37-6.01c0-2.645-1.467-4.988-3.66-6.011l-.76 1.631c1.517.708 2.62 2.387 2.62 4.38zM12 20.9c.811 0 1.509-.316 2.038-.632l-.922-1.545c-.405.24-.771.377-1.116.377zm2.038-.632c.53-.316 1.038-.724 1.459-1.063l-1.129-1.402c-.437.351-.849.679-1.252.92zM18.24 3.634c-2.12-.99-4.672-.641-6.848 1.347l1.214 1.329c1.696-1.55 3.479-1.696 4.872-1.045zM12.607 4.98C10.431 2.993 7.879 2.645 5.76 3.634l.76 1.631c1.394-.65 3.177-.504 4.873 1.045z"/></svg>