<svg width="25" height="24" viewBox="0 0 25 24" fill="none" xmlns="http://www.w3.org/2000/svg">
<path d="M21.125 4.80078L3.125 4.80078" stroke="#0166FF" stroke-width="1.2" stroke-linecap="round"/>
<path d="M21.125 19.1992L3.125 19.1992" stroke="#0166FF" stroke-width="1.2" stroke-linecap="round"/>
<path d="M13.625 12C13.625 12.8284 12.9534 13.5 12.125 13.5C11.2966 13.5 10.625 12.8284 10.625 12C10.625 11.1716 11.2966 10.5 12.125 10.5C12.9534 10.5 13.625 11.1716 13.625 12Z" fill="#0166FF"/>
<path d="M7.125 12C7.125 12.5523 6.67728 13 6.125 13C5.57272 13 5.125 12.5523 5.125 12C5.125 11.4477 5.57272 11 6.125 11C6.67728 11 7.125 11.4477 7.125 12Z" fill="#0166FF"/>
<path d="M19.125 12C19.125 12.5523 18.6773 13 18.125 13C17.5727 13 17.125 12.5523 17.125 12C17.125 11.4477 17.5727 11 18.125 11C18.6773 11 19.125 11.4477 19.125 12Z" fill="#0166FF"/>
</svg>
