<svg xmlns="http://www.w3.org/2000/svg" width="24" height="24" fill="none"><path fill="#0166FF" d="m10.563 9.12.133.585zm.58-.441.525.292zm-1.227 2.007-.456.39zm.476-1.528-.133-.585zm-.137 2.378.597.058zm-.222-.713.457-.39zm1.448 1.84.251.545zm-1.243-.944-.598-.058zm2.122.87.25-.545zm-.718 0-.25-.545zm.359-.122v-.6zm1.763-.748-.597.057zm-1.244.944-.25.545zm1.448-1.84-.456-.39zm-.222.713.598-.058zm-.136-2.378-.132.586zm.475 1.528.456.39zm-1.227-2.007-.524.292zm.58.44.133-.585zm-.669-.599.524-.292zm-1.537 0-.524-.292zm.77 8.141.431-.417a.6.6 0 0 0-.863 0zm-3.394 3.514.431.417zm-2.38-.777-.598.06zm-.116-.74-.565.201zm-1.467-.897-.063.596zm.716.119.215-.56zm-1.466-2.584.431.417zm-.813.968.558.22zm.39 1.28-.314.511zm4.2 3.474-.233-.553zm-1.235-.404-.521.298zm8.96-.439-.432.417zm2.38-.777.597.06zm.115-.74.565.201zm1.467-.897.063.596zm-.716.119-.215-.56zm1.466-2.584-.432.417zm.813.968-.558.22zm-.39 1.28.314.511zm-4.2 3.474.233-.553zm1.235-.404.521.298zM12.245 8.812l.089.159 1.048-.584-.088-.159zm1.06.893.173.039.264-1.17-.171-.04zm.324.591-.117.137.912.78.117-.137zm-.48 1.298.018.182 1.194-.115-.018-.183zm-.378.524-.16-.074-.503 1.09.161.074zm-1.38-.074-.16.074.501 1.09.161-.074zm-.556-.268.017-.182-1.194-.116-.018.183zm-.346-1.343-.117-.137-.912.78.118.137zm.035-.69.172-.038-.265-1.17-.172.038zm1.144-.772.088-.159-1.048-.584-.088.159zm-.972.734c.137-.031.386-.075.589-.23l-.726-.955c.035-.027.062-.033.046-.028l-.059.016-.115.026zm-.076-1.318-.06.107-.035.056c-.012.018 0-.004.034-.03l.726.956c.2-.152.312-.377.383-.505zm-.248 1.909c-.239-.28-.373-.44-.447-.557-.07-.112.003-.048-.036.077L8.743 9.46c-.117.378.03.701.166.918.133.21.338.448.551.698zm-.113-1.723c-.312.07-.615.138-.845.228-.24.095-.55.273-.67.659l1.145.356c-.04.131-.146.145-.035.101.123-.048.317-.094.67-.173zm.593 3.02c.015-.15.05-.394-.024-.63l-1.145.357c-.012-.036-.009-.058-.01-.034q0 .019-.003.068l-.012.124zm-1.274-.38.119.144c.012.016-.003 0-.014-.037l1.145-.357c-.074-.238-.242-.417-.338-.53zm1.652.905c-.33.152-.513.234-.64.27-.056.017-.06.01-.034.012.04.003.098.019.149.057l-.726.956c.33.251.698.199.942.129.236-.068.52-.2.811-.334zm-1.59-.457c-.032.334-.064.65-.053.899.011.25.07.61.392.853l.726-.956c.114.087.087.192.08.05-.006-.144.014-.358.05-.73zm2.97.383c-.126-.059-.353-.177-.61-.177v1.2c-.046 0-.073-.012-.056-.006q.014.005.056.023l.108.05zm-.717 1.09.109-.05.056-.023c.017-.006-.01.006-.057.006v-1.2c-.256 0-.483.118-.61.177zm1.274-1.358c.036.373.055.587.049.73-.007.143-.033.038.081-.049l.726.956c.32-.244.38-.604.392-.854.01-.248-.021-.564-.054-.898zm-.898 1.432c.292.134.575.266.812.334.243.07.61.122.942-.129l-.726-.956a.3.3 0 0 1 .148-.057c.027-.002.023.005-.034-.012-.126-.036-.31-.118-.64-.27zm1.243-2.775c-.096.113-.265.292-.339.53l1.146.357c-.011.036-.026.053-.014.037l.04-.051.079-.093zm.832 1.045c-.005-.052-.01-.09-.012-.124l-.004-.068c0-.024.002-.002-.009.034l-1.146-.357c-.073.236-.039.48-.024.63zm-.866-1.734c.352.08.547.125.67.173.11.044.005.03-.036-.101l1.146-.356c-.12-.386-.43-.564-.67-.66-.23-.09-.534-.156-.845-.227zm1.063 1.332c.214-.25.419-.488.551-.698.137-.216.284-.54.166-.918l-1.146.356c-.038-.125.035-.189-.035-.077-.074.118-.209.277-.448.557zM12.334 8.97c.07.128.183.353.383.505l.725-.956c.034.026.047.048.034.03l-.034-.056-.06-.107zm1.237-.437-.174-.042c-.017-.005.01.001.045.028l-.725.956c.203.154.452.198.589.229zm-.277-.306c-.162-.29-.314-.566-.465-.763-.15-.197-.413-.465-.828-.465v1.2c-.16 0-.209-.115-.125-.005.085.11.189.293.37.617zm-1.538.584c.181-.324.285-.507.37-.617.083-.11.035.005-.125.005V7c-.416 0-.678.268-.828.465-.151.197-.304.474-.465.763zm5.947 1.488a5.7 5.7 0 0 1-5.7 5.7v1.2a6.9 6.9 0 0 0 6.9-6.9zm-5.7 5.7a5.7 5.7 0 0 1-5.7-5.7h-1.2a6.9 6.9 0 0 0 6.9 6.9zm-5.7-5.7a5.7 5.7 0 0 1 5.7-5.7V3.4a6.9 6.9 0 0 0-6.9 6.9zm5.7-5.7a5.7 5.7 0 0 1 5.7 5.7h1.2a6.9 6.9 0 0 0-6.9-6.9zm-.433 11.644L8.176 19.76l.863.833 3.395-3.514zM6.824 19.34c-.035-.353-.058-.636-.147-.884l-1.13.404c.027.075.042.177.083.597zm-2.242-.983c.409.044.5.058.564.083l.43-1.12c-.248-.096-.53-.12-.868-.156zm2.095.099a1.89 1.89 0 0 0-1.101-1.136l-.43 1.12a.69.69 0 0 1 .401.42zm-3.214-3.577c-.238.247-.434.45-.58.617-.14.163-.278.342-.36.548l1.117.44s.006-.015.03-.05q.036-.054.121-.152c.119-.138.287-.313.535-.57zm1.245 2.285a14 14 0 0 1-.73-.088c-.174-.029-.206-.051-.194-.044l-.626 1.023c.195.12.42.171.622.205.21.035.48.063.802.097zm-2.185-1.12c-.288.73-.055 1.59.635 2.011l.626-1.023c-.144-.089-.24-.306-.144-.548zm5.653 3.715c-.248.256-.417.431-.55.554q-.094.088-.145.124c-.034.025-.046.03-.042.028l.467 1.105c.205-.086.381-.233.537-.378.162-.15.358-.353.596-.6zm-2.546-.302c.033.335.06.612.094.827.032.207.08.432.192.628l1.042-.595c.003.005-.02-.035-.049-.218-.027-.174-.05-.41-.085-.76zm1.809 1.008c-.2.084-.39.01-.481-.148l-1.042.595a1.57 1.57 0 0 0 1.99.658zm-3.113-4.752 2.218-2.296-.863-.834-2.218 2.296zm7.244 1.365 3.395 3.514.863-.833-3.394-3.515zm6.804 2.38c.041-.42.056-.523.083-.598l-1.13-.404c-.089.248-.113.531-.147.884zm.922-2.294c-.338.036-.62.06-.868.155l.43 1.121c.064-.025.155-.04.564-.083zm-.84 1.695a.69.69 0 0 1 .402-.419l-.43-1.12a1.89 1.89 0 0 0-1.101 1.136zm1.221-3.146c.248.256.417.431.536.569a2 2 0 0 1 .12.151c.025.036.031.052.031.051l1.116-.44a2 2 0 0 0-.36-.548c-.145-.168-.341-.37-.58-.617zm-.255 2.644c.322-.034.592-.062.802-.097.202-.034.427-.085.622-.205l-.627-1.023c.012-.007-.02.015-.193.044-.166.028-.392.052-.73.088zm.942-1.873c.096.242 0 .46-.145.548l.627 1.023c.69-.422.922-1.282.634-2.011zm-5.4 4.108c.239.247.434.45.597.6.156.145.332.292.537.378l.467-1.105c.004.002-.008-.003-.043-.028a2 2 0 0 1-.145-.124 16 16 0 0 1-.55-.554zm2.216-1.252c-.035.349-.058.585-.085.76-.029.182-.052.222-.049.217l1.042.595c.112-.196.16-.421.192-.628.034-.215.06-.492.094-.827zm-1.082 2.23a1.57 1.57 0 0 0 1.99-.658l-1.042-.595c-.09.158-.282.232-.481.148zm4.443-6.691-2.218-2.296-.863.834 2.217 2.296z"/></svg>