<svg xmlns="http://www.w3.org/2000/svg" width="18" height="18" fill="none"><g fill="#fff"><path d="M9 15.754c-.432 0-.844-.224-1.13-.615l-.942-1.279a.3.3 0 0 0-.128-.064h-.311c-2.617 0-4.239-.722-4.239-4.319V6.575c0-2.827 1.466-4.321 4.239-4.321h5.022c2.773 0 4.239 1.494 4.239 4.32v2.428a.474.474 0 1 1-.948 0l.002-2.429c0-2.29-1.046-3.357-3.294-3.357H6.489c-2.248 0-3.294 1.067-3.294 3.357v2.903c0 2.872 1.015 3.356 3.294 3.356h.314c.324 0 .696.191.883.455l.938 1.273c.109.149.242.23.375.23.132 0 .265-.081.374-.23l.641-.87a.476.476 0 1 1 .767.565l-.65.883c-.288.39-.7.614-1.131.614z"/><path d="M12.139 7.055H5.86a.48.48 0 0 1-.472-.481c0-.265.212-.481.472-.481h6.278c.26 0 .472.216.472.48a.48.48 0 0 1-.472.482M5.861 9.958h3.767c.26 0 .472-.216.472-.481a.48.48 0 0 0-.472-.482H5.86a.48.48 0 0 0-.472.482c0 .265.212.48.472.48M14.652 14.173l.31.392zm-2.174-.753.374-.33zm.87.753-.31.392zm-.65-3.075-.209-.454zm.952 3.292-.254.43zm1.873-.97-.375-.33zm-.22-2.322-.21.455zm-.953 3.292-.253-.431zM14 11.36l-.334.372a.5.5 0 0 0 .668 0zm-2.5.875c0 .654.276 1.147.603 1.516l.75-.662c-.216-.244-.353-.511-.353-.854zm.603 1.516c.304.345.699.626.935.814l.62-.784c-.294-.234-.578-.434-.806-.692zm.386-3.107c-.599.275-.989.898-.989 1.59h1c0-.32.18-.578.407-.681zm.549 3.92c.09.073.22.175.358.257l.507-.862a2 2 0 0 1-.244-.178zm.358.257c.139.081.348.179.604.179v-1h-.005l-.018-.006a.4.4 0 0 1-.074-.035zm1.566-.256c.236-.188.63-.469.935-.814l-.75-.662c-.227.258-.511.458-.806.692zm.935-.814c.327-.37.603-.862.603-1.516h-1c0 .343-.137.61-.352.854zm.603-1.516c0-.693-.39-1.316-.99-1.591l-.417.909c.226.103.407.36.407.682zM14 15c.256 0 .465-.098.604-.18l-.507-.861a.4.4 0 0 1-.096.04V14H14zm.604-.18c.138-.08.267-.183.358-.255l-.62-.784c-.1.079-.176.137-.245.178zm.907-4.176c-.589-.27-1.281-.163-1.845.344l.668.744c.297-.267.568-.268.76-.18zm-1.177.344c-.563-.507-1.256-.615-1.845-.344l.418.909c.191-.089.462-.088.759.179z"/></g></svg>