<svg xmlns="http://www.w3.org/2000/svg" width="24" height="24" fill="none" viewBox="0 0 24 24">
  <path fill="#727689" d="m9.31 11.96.573-.177-.573.177Zm.334-1.046-.364-.477.364.477Zm.359 3.29-.574.177.574-.177Zm3.973 0-.573-.177.573.177Zm.358-3.29-.364.477.364-.477Zm.335 1.046.573.177-.574-.177ZM12.57 9.566l.365-.477-.365.477Zm-1.164 0 .365.476-.365-.476Zm8.45 7.834a.6.6 0 1 0 0-1.2v1.2Zm-5.188 2.026-.57-.19.57.19Zm-1.134 1.505a.6.6 0 1 0 1.139.379l-1.139-.38ZM4.318 16.2a.6.6 0 1 0 0 1.2v-1.2Zm5.19 3.225.569-.19-.57.19Zm-.006 1.884a.6.6 0 0 0 1.139-.38l-1.139.38Zm-1.13-4.147-.35.486.35-.486ZM5.698 5.753a.6.6 0 0 0-1.159.31l1.16-.31ZM5.52 7.406l-.58.155.58-.155Zm-1.592 4.198-.33-.5.33.5Zm-1.82.484a.6.6 0 1 0 .663 1l-.662-1Zm17.393-6.026a.6.6 0 0 0-1.16-.31l1.16.31Zm-.98 1.344-.58-.155.58.155Zm1.59 4.198-.33.501.33-.5Zm1.159 1.485a.6.6 0 1 0 .661-1.001l-.662 1.001Zm-5.412-9.025a.6.6 0 1 0-.692-.98l.692.98Zm-1.614.404.346.49-.345-.49ZM9.76 4.42l-.356.483.356-.483ZM8.68 2.878a.6.6 0 0 0-.712.965l.713-.965Zm5.99 8.515-.574.177.573-.177Zm-5.359 0 .573.177-.573-.177ZM20.978 12c0 4.972-4.025 9-8.989 9v1.2c5.628 0 10.19-4.567 10.19-10.2h-1.2Zm-8.989 9C7.026 21 3 16.972 3 12H1.8c0 5.633 4.561 10.2 10.19 10.2V21ZM3 12c0-4.97 4.026-9 8.99-9V1.8C6.36 1.8 1.8 6.368 1.8 12H3Zm8.99-9c4.963 0 8.988 4.03 8.988 9h1.2c0-5.632-4.56-10.2-10.189-10.2V3Zm.217 7.042 1.763 1.349.729-.954-1.763-1.348-.73.953Zm1.888 1.741-.692 2.244 1.146.354.693-2.244-1.147-.354ZM13.06 14.28h-2.141v1.2h2.14v-1.2Zm-2.484-.253-.693-2.244-1.146.354.692 2.244 1.147-.354Zm-.567-2.636 1.763-1.349-.73-.953-1.762 1.348.729.954Zm9.849 4.81h-1.55v1.2h1.55v-1.2Zm-5.759 3.035-.564 1.695 1.139.379.564-1.694-1.139-.38Zm4.208-3.036c-.653 0-1.193 0-1.632.05-.453.051-.858.163-1.223.426l.703.973c.137-.099.317-.168.657-.207.354-.04.814-.042 1.495-.042v-1.2Zm-3.07 3.416c.216-.647.363-1.084.513-1.408.144-.31.267-.46.405-.559l-.703-.973c-.364.263-.598.612-.79 1.026-.186.4-.356.914-.563 1.534l1.139.38ZM4.319 17.4h1.55v-1.2h-1.55v1.2Zm4.62 2.216.564 1.694 1.139-.38-.564-1.694-1.139.38ZM5.868 17.4c.682 0 1.142.001 1.496.042.34.039.52.108.657.207l.702-.973c-.364-.263-.769-.375-1.222-.426-.439-.05-.979-.05-1.632-.05v1.2Zm4.209 1.837c-.207-.621-.377-1.134-.563-1.535-.192-.414-.426-.763-.79-1.026l-.703.973c.138.1.26.249.405.559.15.324.297.76.512 1.408l1.139-.38ZM4.539 6.063l.401 1.5 1.16-.311-.402-1.5-1.159.31Zm-.941 5.042-1.49.984.663 1 1.488-.983-.661-1.001ZM4.94 7.562c.177.659.295 1.104.348 1.457.05.339.03.531-.03.69l1.121.425c.16-.42.163-.84.095-1.291-.065-.437-.205-.96-.374-1.591l-1.16.31Zm-.68 4.544c.544-.36.996-.658 1.334-.941.35-.294.626-.61.785-1.03l-1.122-.426c-.06.16-.172.317-.434.536-.274.23-.657.484-1.225.86l.661 1Zm14.082-6.353-.401 1.499 1.159.31.401-1.5-1.16-.31Zm1.439 6.353 1.489.984.661-1.001-1.488-.984-.662 1.001Zm-1.84-4.854c-.17.632-.31 1.154-.375 1.59-.068.452-.065.872.095 1.293l1.122-.426c-.06-.159-.08-.351-.03-.69.052-.353.17-.798.347-1.457l-1.16-.31Zm2.502 3.853c-.569-.376-.952-.63-1.226-.86-.261-.22-.374-.377-.434-.536l-1.122.426c.16.42.435.736.785 1.03.338.283.79.58 1.335.941l.662-1.001Zm-5.277-8.02-1.267.893.691.981 1.268-.894-.692-.98Zm-5.05.853L8.68 2.878l-.713.965 1.436 1.06.713-.965Zm3.783.04c-.557.393-.934.658-1.247.829-.3.164-.487.21-.656.209l-.013 1.2c.45.005.844-.137 1.245-.356.387-.212.828-.524 1.362-.9l-.691-.982Zm-4.496.925c.526.388.96.71 1.343.93.395.228.787.378 1.237.383l.013-1.2c-.17-.002-.356-.053-.652-.223-.31-.178-.68-.45-1.228-.855l-.713.965Zm4.567 6.488a.36.36 0 0 1 .125.18l1.147-.354a1.559 1.559 0 0 0-.543-.78l-.729.954Zm.125.18a.36.36 0 0 1 0 .212l1.147.354a1.56 1.56 0 0 0 0-.92l-1.147.353Zm3.897-2.203-3.553 1.471.46 1.109 3.552-1.472-.459-1.108Zm-5.056-.279a1.557 1.557 0 0 0-.947-.32v1.2a.36.36 0 0 1 .218.073l.729-.953Zm-.947-.32c-.333 0-.667.106-.946.32l.729.953a.357.357 0 0 1 .217-.074v-1.2Zm.6.6V5.615h-1.2v3.752h1.2Zm.814 4.658a.358.358 0 0 1-.122.177l.743.942c.243-.19.43-.455.525-.765l-1.146-.354Zm-.122.177a.357.357 0 0 1-.221.076v1.2c.359 0 .696-.123.964-.334l-.742-.943Zm2.976 2.566-2.15-2.487-.908.784 2.15 2.488.909-.785Zm-5.338-2.49a.357.357 0 0 1-.222-.076l-.742.942c.268.211.605.334.964.334v-1.2Zm-.222-.076a.359.359 0 0 1-.121-.177l-1.147.354c.096.31.283.574.526.765l.742-.943Zm-1.853 3.33 1.954-2.488-.944-.742L7.9 16.792l.944.741Zm1.04-5.75a.36.36 0 0 1 0-.214l-1.147-.354a1.56 1.56 0 0 0 0 .921l1.146-.354Zm0-.214a.359.359 0 0 1 .125-.18l-.73-.953a1.56 1.56 0 0 0-.542.78l1.146.353Zm-.34-.73L6.05 9.37l-.466 1.106 3.492 1.471.466-1.105Z"/>
</svg>
