<svg xmlns="http://www.w3.org/2000/svg" width="24" height="24" fill="none"><path stroke="#494949" stroke-linejoin="round" stroke-width="1.4" d="M14.945 14.07c2.792 0 5.055-2.255 5.055-5.035S17.737 4 14.945 4 9.889 6.254 9.889 9.035c0 1.288.588 2.224.588 2.224l-6.113 6.089c-.275.273-.659.983 0 1.64l.705.702c.274.234.964.562 1.528 0l.823-.82c.823.82 1.764.351 2.116-.117.588-.82-.117-1.64-.117-1.64l.235-.233c1.129 1.124 2.116.468 2.469 0 .588-.82 0-1.64 0-1.64-.235-.468-.705-.468-.118-1.053l.706-.703c.564.468 1.724.585 2.234.585Z"/><path stroke="#494949" stroke-width="1.4" d="M16.709 9.036c0 .97-.79 1.756-1.764 1.756a1.76 1.76 0 0 1-1.763-1.756c0-.97.79-1.757 1.763-1.757a1.76 1.76 0 0 1 1.764 1.757Z"/></svg>