<svg xmlns="http://www.w3.org/2000/svg" width="24" height="24" fill="none"><path stroke="#0166FF" stroke-linecap="round" stroke-linejoin="round" stroke-width="1.5" d="M15.5 17.4v1.8c0 .477-.184.935-.513 1.273A1.73 1.73 0 0 1 13.75 21h-7c-.464 0-.91-.19-1.237-.527A1.83 1.83 0 0 1 5 19.2V9.3c0-.477.184-.935.513-1.273A1.73 1.73 0 0 1 6.75 7.5H8.5m0-2.7v10.8c0 .477.184.935.513 1.273.328.337.773.527 1.237.527h7c.464 0 .91-.19 1.237-.527.329-.338.513-.796.513-1.273V7.718c0-.24-.047-.477-.137-.698a1.8 1.8 0 0 0-.39-.59l-2.9-2.917A1.73 1.73 0 0 0 14.349 3H10.25c-.464 0-.91.19-1.237.527A1.83 1.83 0 0 0 8.5 4.8"/></svg>