<svg xmlns="http://www.w3.org/2000/svg" width="24" height="24" fill="none"><g fill="#0166FF" clip-path="url(#a)"><path d="M17.998 21.75h-12A3.75 3.75 0 0 1 2.248 18V7.5a.75.75 0 0 1 .75-.75h15a3.75 3.75 0 0 1 3.75 3.75V18a3.75 3.75 0 0 1-3.75 3.75M3.748 8.25V18a2.25 2.25 0 0 0 2.25 2.25h12a2.25 2.25 0 0 0 2.25-2.25v-7.5a2.25 2.25 0 0 0-2.25-2.25z"/><path d="M19.498 8.25a.75.75 0 0 1-.75-.75V5.439a1.75 1.75 0 0 0-.585-1.402 1.46 1.46 0 0 0-1.252-.24L4.333 6.653a.75.75 0 0 0-.585.75.75.75 0 0 1-1.5 0 2.25 2.25 0 0 1 1.748-2.212L16.58 2.333a2.93 2.93 0 0 1 2.52.533 3.26 3.26 0 0 1 1.147 2.572v2.063a.75.75 0 0 1-.75.75M20.998 17.25h-5.25a3 3 0 0 1 0-6h5.25a.75.75 0 0 1 .75.75v4.5a.75.75 0 0 1-.75.75m-5.25-4.5a1.5 1.5 0 1 0 0 3h4.5v-3z"/></g><defs><clipPath id="a"><path fill="#fff" d="M-.002 0h24v24h-24z"/></clipPath></defs></svg>