<svg xmlns="http://www.w3.org/2000/svg" width="24" height="24" fill="none"><path fill="#0166FF" d="M11.703 13.35v.638h.002zm2.697 4.954-.451-.451a.64.64 0 0 0 0 .902zm2.404.996v.637zm3.4-3.4h.637zm-3.401-3.4v.637zm-2.337-5.1a2.76 2.76 0 0 1-2.763 2.762v1.275A4.037 4.037 0 0 0 15.741 7.4zm-2.763 2.762A2.76 2.76 0 0 1 8.941 7.4H7.666a4.037 4.037 0 0 0 4.037 4.037zM8.941 7.4a2.76 2.76 0 0 1 2.762-2.762V3.363A4.037 4.037 0 0 0 7.666 7.4zm2.762-2.762A2.76 2.76 0 0 1 14.466 7.4h1.275a4.037 4.037 0 0 0-4.038-4.038zm2.69 8.368a12.2 12.2 0 0 0-2.691-.293l.003 1.275c.81-.003 1.618.085 2.41.262zm-2.69-.293c-1.966 0-3.778.447-5.12 1.202-1.323.744-2.317 1.871-2.317 3.26H5.54c0-.724.528-1.509 1.667-2.149 1.118-.63 2.706-1.038 4.495-1.038zm-7.437 4.462c0 1-.034 2.287 1.085 3.199.535.436 1.283.745 2.295.95 1.014.205 2.335.313 4.057.313v-1.274c-1.678 0-2.906-.107-3.804-.288-.902-.183-1.428-.433-1.743-.69-.58-.473-.615-1.099-.615-2.21zm7.437 4.462c2.438 0 4.088-.215 5.202-.63 1.157-.43 1.77-1.093 2.041-1.937l-1.214-.39c-.133.416-.421.816-1.272 1.132-.895.334-2.36.55-4.757.55zm2.246-2.882c.375.375.82.672 1.31.875l.487-1.178a2.8 2.8 0 0 1-.896-.599zm1.31.875c.49.203 1.014.307 1.545.307v-1.275c-.363 0-.722-.071-1.057-.21zm1.545.307c.53 0 1.055-.104 1.545-.307l-.488-1.178c-.335.139-.695.21-1.057.21zm1.545-.307c.49-.203.935-.5 1.31-.875l-.902-.902c-.256.256-.56.46-.896.599zm1.31-.875c.375-.375.672-.82.875-1.31l-1.178-.488c-.139.335-.342.64-.599.896zm.875-1.31c.203-.49.307-1.015.307-1.545h-1.275c0 .362-.071.722-.21 1.057zm.307-1.545c0-.53-.104-1.056-.307-1.546l-1.178.488c.139.336.21.695.21 1.058zm-.307-1.546c-.203-.49-.5-.934-.875-1.31l-.902.902c.257.257.46.561.599.896zm-5.684 3.499a2.76 2.76 0 0 1-.81-1.953h-1.275c0 1.07.426 2.097 1.183 2.855zm-.81-1.953c0-.363.072-.722.21-1.058l-1.177-.488a4 4 0 0 0-.308 1.546zm.21-1.058c.14-.335.343-.64.6-.896l-.902-.901c-.375.374-.672.82-.875 1.31zm.6-.896c.256-.256.56-.46.896-.599l-.488-1.178c-.49.203-.935.5-1.31.876zm.896-.599c.335-.139.694-.21 1.057-.21v-1.275c-.53 0-1.055.104-1.545.307zm1.057-.21c.733 0 1.435.291 1.953.81l.902-.902a4.04 4.04 0 0 0-2.855-1.183zm-1.953 5.618 4.808-4.808-.902-.902-4.807 4.808z"/></svg>