<svg xmlns="http://www.w3.org/2000/svg" width="24" height="24" fill="none"><path fill="#fff" d="M5.344 11.467h-.75zm0 1.333-.528.532a.75.75 0 0 0 1.056 0zm1.872-.801a.75.75 0 0 0-1.057-1.065zm-2.688-1.065A.75.75 0 1 0 3.472 12zm12.637-2.541a.75.75 0 1 0 1.277-.786zM12.063 4.05c-4.12 0-7.47 3.315-7.47 7.417h1.5c0-3.263 2.668-5.917 5.97-5.917zm-7.47 7.417V12.8h1.5v-1.334zm1.28 1.865L7.215 12l-1.057-1.065-1.343 1.333zm0-1.065-1.345-1.333L3.472 12l1.344 1.333zm12.57-4.66a7.48 7.48 0 0 0-6.38-3.557v1.5a5.98 5.98 0 0 1 5.102 2.843zM18.652 11.2l.527-.533a.75.75 0 0 0-1.054 0zm-1.876.8a.75.75 0 0 0 1.054 1.067zm2.698 1.067A.75.75 0 1 0 20.528 12zm-12.691 2.54a.75.75 0 1 0-1.277.787zm5.124 4.343c4.131 0 7.495-3.312 7.495-7.416h-1.5c0 3.259-2.676 5.916-5.995 5.916zm7.495-7.416V11.2h-1.5v1.334zm-1.277-1.867L16.775 12l1.055 1.067 1.35-1.333zm0 1.067 1.349 1.333L20.528 12l-1.349-1.333zm-12.619 4.66a7.51 7.51 0 0 0 6.401 3.556v-1.5a6.01 6.01 0 0 1-5.124-2.844z"/></svg>