<svg xmlns="http://www.w3.org/2000/svg" width="36" height="36" fill="none" viewBox="0 0 36 36">
  <circle cx="18" cy="18" r="18" fill="#0166FF"/>
  <path stroke="#fff" stroke-linecap="round" stroke-linejoin="round" stroke-width="1.125" d="M10.5 16.5a3 3 0 0 1 2.168-2.887 3 3 0 0 0 1.552-1.073l.63-.84a3 3 0 0 1 2.4-1.2h1.5a3 3 0 0 1 2.4 1.2l.638.84a2.94 2.94 0 0 0 1.552 1.073A3 3 0 0 1 25.5 16.5l-.503 6a3.33 3.33 0 0 1-3.247 3h-7.5a3.33 3.33 0 0 1-3.248-3l-.502-6Z"/>
  <path stroke="#fff" stroke-linecap="round" stroke-linejoin="round" stroke-width="1.125" d="M18 22.688a3.75 3.75 0 1 0 0-7.5 3.75 3.75 0 0 0 0 7.5Z"/>
</svg>
