<svg xmlns="http://www.w3.org/2000/svg" width="24" height="24" fill="none"><path fill="#494949" fill-rule="evenodd" d="M11.144 5.646c-.927-.592-1.564-.997-2.055-1.22-.49-.221-.66-.179-.748-.134-.082.043-.21.146-.3.662-.09.518-.11 1.258-.136 2.342l-.014.55-.002.1c-.012.504-.022.936-.205 1.321-.185.388-.515.663-.895.98l-.076.062-.414.346c-.817.683-1.37 1.149-1.713 1.537-.334.38-.344.551-.323.663.023.12.109.292.574.555.47.267 1.17.541 2.189.939l.518.202.09.035c.48.186.88.342 1.187.642.306.3.471.697.67 1.173l.037.09.215.514c.423 1.013.715 1.708.993 2.173.275.462.448.542.566.56.108.018.276.006.646-.34.377-.354.826-.923 1.484-1.761l.333-.425.06-.078c.306-.39.57-.728.952-.924.38-.196.812-.217 1.312-.242l.1-.005.547-.028c1.078-.056 1.814-.096 2.327-.2.509-.103.608-.234.648-.319.044-.091.08-.266-.154-.753s-.654-1.116-1.268-2.031l-.312-.465-.055-.081c-.288-.429-.53-.787-.609-1.207-.08-.423.017-.84.132-1.33l.021-.094.123-.532c.243-1.048.407-1.764.449-2.291.04-.517-.052-.68-.144-.77-.091-.09-.254-.178-.766-.124-.523.056-1.23.24-2.268.511l-.526.138-.093.025c-.485.128-.899.237-1.324.167-.42-.069-.785-.302-1.219-.58l-.083-.053zm-3.378-2.47c.612-.315 1.247-.162 1.84.107.584.264 1.298.72 2.17 1.276l.515.329c.563.36.696.43.829.452.128.02.266-.002.896-.167l.578-.152c.972-.255 1.772-.464 2.4-.531.65-.07 1.287-.007 1.778.473.49.48.57 1.115.518 1.768-.05.632-.237 1.44-.465 2.423l-.135.584c-.148.636-.168.777-.143.908.025.133.1.267.473.822l.34.507c.578.861 1.05 1.565 1.329 2.144.283.588.451 1.218.155 1.838-.299.627-.898.88-1.53 1.009-.618.125-1.449.168-2.46.22l-.6.03c-.658.034-.794.055-.902.11-.106.055-.198.15-.599.661l-.367.468c-.616.785-1.123 1.432-1.58 1.86-.472.442-1.022.775-1.706.663-.674-.11-1.105-.591-1.442-1.156-.33-.552-.656-1.332-1.054-2.285l-.235-.562c-.256-.614-.326-.75-.426-.85-.1-.098-.238-.164-.856-.405l-.517-.201-.049-.02c-.96-.373-1.744-.68-2.303-.996-.572-.324-1.062-.744-1.189-1.415-.129-.68.186-1.239.615-1.726.413-.47 1.043-.996 1.808-1.635l.456-.381c.498-.416.59-.511.642-.62.053-.11.07-.25.086-.91l.014-.604c.025-1.017.046-1.852.154-2.474.11-.637.345-1.245.962-1.562m-2.07 14.24a.628.628 0 0 1 .888.888L4.909 19.98a.628.628 0 0 1-.888-.888z" clip-rule="evenodd"/></svg>