<svg width="24" height="24" viewBox="0 0 24 24" fill="none" xmlns="http://www.w3.org/2000/svg">
<path d="M12.3666 1.19922L11.3225 8.16632L12.3666 11.6653L13.4107 8.16632L12.3666 1.19922Z" fill="#0166FF"/>
<path d="M12.3666 23.5339L13.4107 16.5668L12.3666 13.0679L11.3225 16.5668L12.3666 23.5339Z" fill="#0166FF"/>
<path d="M23.5339 12.3668L16.5669 11.3227L13.068 12.3668L16.5669 13.4109L23.5339 12.3668Z" fill="#0166FF"/>
<path d="M1.19922 12.3668L8.16627 13.4109L11.6652 12.3668L8.16627 11.3227L1.19922 12.3668Z" fill="#0166FF"/>
<path d="M20.2158 4.42225L14.5766 8.64479L12.8603 11.8677L16.0621 10.1124L20.2158 4.42225Z" fill="#0166FF"/>
<path d="M4.51741 20.311L10.1566 16.0885L11.8728 12.8655L8.67102 14.6208L4.51741 20.311Z" fill="#0166FF"/>
<path d="M20.3106 20.2149L16.0881 14.5757L12.8652 12.8595L14.6205 16.0613L20.3106 20.2149Z" fill="#0166FF"/>
<path d="M4.42253 4.51819L8.64504 10.1574L11.8679 11.8737L10.1126 8.67184L4.42253 4.51819Z" fill="#0166FF"/>
</svg>
