<svg width="24" height="24" viewBox="0 0 24 24" fill="none" xmlns="http://www.w3.org/2000/svg">
<path d="M4 10C4 6.229 4 4.343 5.172 3.172C6.344 2.001 8.229 2 12 2C15.771 2 17.657 2 18.828 3.172C19.999 4.344 20 6.229 20 10V14C20 17.771 20 19.657 18.828 20.828C17.656 21.999 15.771 22 12 22C8.229 22 6.343 22 5.172 20.828C4.001 19.656 4 17.771 4 14V10Z" stroke="#0166FF" stroke-width="1.5"/>
<path d="M15 19H9" stroke="#0166FF" stroke-width="1.5" stroke-linecap="round"/>
<path d="M9.5 10.4995L10.929 12.0995L14.5 8.09951" stroke="#0166FF" stroke-width="1.5" stroke-linecap="round" stroke-linejoin="round"/>
</svg>
