<svg xmlns="http://www.w3.org/2000/svg" width="24" height="24" fill="none"><path stroke="#494949" stroke-width="1.5" d="M4.8 10.733c0-2.558 0-3.837.302-4.267s1.504-.842 3.91-1.665l.458-.157C10.724 4.214 11.35 4 12 4s1.276.215 2.53.644l.458.157c2.405.823 3.608 1.235 3.91 1.665s.302 1.71.302 4.267v1.26c0 4.51-3.391 6.7-5.519 7.629-.577.252-.866.378-1.681.378s-1.104-.126-1.681-.378c-2.128-.93-5.52-3.119-5.52-7.629z"/><circle cx="12" cy="9.6" r="1.6" stroke="#494949" stroke-width="1.5"/><path stroke="#494949" stroke-width="1.5" d="M15.2 14.4c0 .884 0 1.6-3.2 1.6s-3.2-.716-3.2-1.6c0-.883 1.432-1.6 3.2-1.6 1.767 0 3.2.717 3.2 1.6Z"/></svg>