<svg width="48" height="28" viewBox="0 0 48 28" fill="none" xmlns="http://www.w3.org/2000/svg">
<rect width="48" height="28" rx="14" fill="#B8BCCA"/>
<path d="M22.9414 10.8088C22.416 10.8088 21.8897 10.8264 21.3648 10.804C20.8532 10.7821 20.361 10.6493 19.8882 10.4424C19.4207 10.2376 18.9943 9.96395 18.6367 9.60392C18.3538 9.3191 18.1134 8.98948 17.8679 8.66892C17.6123 8.33556 17.3746 7.9878 17.1243 7.65018C16.9955 7.47576 16.6263 7.36375 16.4433 7.43202C16.1867 7.52803 16.0084 7.77658 16.0084 8.04007C16.0084 9.07802 15.9853 10.1165 16.0158 11.1534C16.0352 11.8142 16.1972 12.4585 16.4207 13.0826C16.7336 13.9568 17.1785 14.7483 17.7774 15.4593C18.4526 16.261 19.2588 16.8813 20.1901 17.3352C20.8216 17.6429 21.4853 17.883 22.1847 17.9486C22.9551 18.0211 23.7318 18.0312 24.5053 18.0627C24.7598 18.0734 24.8408 18.1454 24.8413 18.403C24.8424 18.8089 24.8445 19.2148 24.8429 19.6202C24.8413 20.3039 25.4734 20.9984 26.208 21C26.8059 21.0016 27.2387 20.7685 27.5963 20.3066C27.793 20.0522 28.0307 19.8308 28.251 19.5956C28.9704 18.827 29.6898 18.0579 30.4097 17.2898C30.9093 16.757 31.4157 16.23 31.9068 15.6892C32.1524 15.4188 32.4153 15.151 32.4737 14.76C32.5463 14.2741 32.4784 13.8266 32.1287 13.4527C31.4635 12.7418 30.8004 12.0292 30.1373 11.3161C29.766 10.9166 29.3963 10.5155 29.0267 10.1138C28.5197 9.56232 28.0133 9.01081 27.508 8.4577C27.1672 8.08434 26.7623 7.84752 26.2464 7.85499C25.6186 7.86406 25.0522 8.31956 24.8881 8.94361C24.8392 9.12975 24.8471 9.3335 24.8429 9.52978C24.8361 9.85568 24.8429 10.1816 24.8403 10.5075C24.8387 10.7293 24.7514 10.8179 24.5363 10.8184C24.0042 10.8195 23.4715 10.8184 22.9393 10.8184C22.9393 10.8152 22.9393 10.812 22.9393 10.8088H22.9414ZM17.2878 10.012C17.3325 10.0546 17.3704 10.0829 17.3977 10.1186C17.8184 10.6723 18.3653 11.0739 18.9611 11.4041C19.7462 11.8398 20.5939 12.0734 21.4905 12.0862C22.5354 12.1012 23.5808 12.1081 24.6257 12.0894C25.1994 12.0793 25.6732 11.8196 25.9236 11.2803C26.0387 11.0318 26.075 10.7352 26.0981 10.4563C26.1271 10.1058 26.0966 9.75113 26.1108 9.39911C26.1144 9.31217 26.1718 9.18896 26.2401 9.15482C26.2974 9.12602 26.4331 9.17616 26.4883 9.23483C26.9379 9.71273 27.3739 10.204 27.8198 10.6861C28.4813 11.4009 29.1471 12.1113 29.8113 12.8234C30.2646 13.3093 30.7236 13.7898 31.1648 14.2864C31.2179 14.3456 31.2195 14.5216 31.1711 14.5899C31.0397 14.7766 30.8693 14.9345 30.7136 15.1035C30.344 15.5046 29.9748 15.9073 29.6035 16.3068C28.9315 17.0296 28.2584 17.7512 27.5837 18.4718C27.2277 18.8516 26.8591 19.2201 26.5141 19.6095C26.4094 19.7274 26.2959 19.7295 26.1886 19.698C26.1423 19.6842 26.1113 19.5465 26.1076 19.4639C26.0876 19.0084 26.0818 18.5518 26.064 18.0963C26.0371 17.4173 25.3951 16.8279 24.7667 16.7991C24.2297 16.7746 23.6923 16.7655 23.1554 16.7586C22.4686 16.7495 21.8124 16.6077 21.1698 16.3623C20.0686 15.942 19.1615 15.2577 18.4705 14.3035C17.5523 13.0357 17.1511 11.6057 17.2878 10.012Z" fill="white"/>
</svg>
