<svg xmlns="http://www.w3.org/2000/svg" width="48" height="48" fill="none"><path fill="#E1EAF8" d="M35.88 14.276v25.435a3.39 3.39 0 0 1-3.39 3.391H15.222c-1.06 0-2.042.554-2.59 1.462h23.535c.562 0 1.019-.456 1.019-1.02V11.786l-.085.064a3.02 3.02 0 0 0-1.221 2.427"/><path fill="#0166FF" d="M17.143 20.285h-3.169a.595.595 0 0 1-.595-.595V16.52c0-.329.266-.595.595-.595h3.169c.329 0 .595.266.595.595v3.169a.596.596 0 0 1-.595.595m0 7.382h-3.169a.595.595 0 0 1-.595-.595v-3.169c0-.33.266-.595.595-.595h3.169c.329 0 .595.266.595.595v3.169a.596.596 0 0 1-.595.595m0 7.381h-3.169a.595.595 0 0 1-.595-.595v-3.17c0-.328.266-.594.595-.594h3.169c.329 0 .595.266.595.595v3.169a.595.595 0 0 1-.595.595"/><path fill="#9A9A9A" d="M30.032 4.232h7.776c.905 0 1.64.736 1.64 1.64v39.316c0 .904-.735 1.64-1.64 1.64H10.191c-.904 0-1.64-.736-1.64-1.64V13.56a.328.328 0 0 1 .656 0v31.627c0 .543.442.984.984.984h27.617a.986.986 0 0 0 .985-.984V5.873a.985.985 0 0 0-.985-.985H10.192a.985.985 0 0 0-.984.985v5.162a.328.328 0 0 1-.656 0V5.873c0-.905.736-1.64 1.64-1.64h19.84"/><path fill="#9A9A9A" d="M11.062 6.167h17.61a.328.328 0 1 1 0 .656h-17.53v37.414h25.716V6.822H31.85a.329.329 0 0 1 0-.656h5.086c.318 0 .577.259.577.577v37.575a.577.577 0 0 1-.577.576H11.062a.577.577 0 0 1-.576-.576V6.744c0-.318.258-.577.576-.577"/><path fill="#9A9A9A" d="M26.197 9.342h-4.393a.328.328 0 0 0 0 .656h4.393a.329.329 0 0 0 0-.656m6.913 7.085H19.315a.329.329 0 0 0 0 .656h13.794a.328.328 0 0 0 0-.656m-13.795 3.355h12.604a.329.329 0 0 0 0-.656H19.314a.328.328 0 0 0 0 .656m13.795 4.026H19.315a.329.329 0 0 0 0 .656h13.794a.329.329 0 0 0 0-.656m-13.795 3.356h12.604a.329.329 0 0 0 0-.656H19.314a.329.329 0 0 0 0 .656m14.123 4.354a.33.33 0 0 0-.328-.328H19.315a.329.329 0 0 0 0 .656h13.794c.182 0 .329-.147.329-.328m-14.124 2.37a.329.329 0 0 0 0 .657H31.92a.329.329 0 0 0 0-.656z"/><path fill="#0166FF" d="M43.648 29.32a.33.33 0 0 1-.157-.04l-2.141-1.173a.328.328 0 1 1 .315-.576l2.14 1.173a.328.328 0 0 1-.157.616m-1.968-8.603a.329.329 0 0 1-.134-.628l2.235-.983a.328.328 0 1 1 .264.6l-2.234.983a.3.3 0 0 1-.131.028M4.352 29.32a.327.327 0 0 1-.157-.616l2.14-1.173a.328.328 0 1 1 .316.576L4.51 29.28a.33.33 0 0 1-.158.04m1.969-8.603a.3.3 0 0 1-.132-.028l-2.235-.983a.327.327 0 1 1 .264-.6l2.234.983a.328.328 0 0 1-.131.628"/></svg>