<svg xmlns="http://www.w3.org/2000/svg" width="80" height="80" fill="none"><path fill="#E1EAF8" d="M40.103 8.053H28.62c-.94 0-1.776-.601-2.075-1.495L25.193 2.5h18.341L42.18 6.558a2.19 2.19 0 0 1-2.077 1.495m10.257 60.05v2.417c0 2.344-1.9 4.244-4.244 4.244h-18.76a2.735 2.735 0 0 0-2.734 2.734h21.494a6.98 6.98 0 0 0 6.978-6.978v-1.332z"/><path fill="#9A9A9A" d="M46.114 78.047H22.606c-4.15 0-7.525-3.376-7.525-7.525v-8.731a.548.548 0 0 1 1.094 0v8.731a6.44 6.44 0 0 0 6.431 6.432h23.508a6.44 6.44 0 0 0 6.431-6.432V69.19a.547.547 0 0 1 1.094 0v1.332c0 4.149-3.375 7.525-7.525 7.525M52.544 9.478v23.546a.548.548 0 0 0 1.094 0V9.478c0-4.15-3.377-7.525-7.525-7.525H22.605c-4.15 0-7.525 3.377-7.525 7.525v48.06a.547.547 0 0 0 1.094 0V9.478a6.44 6.44 0 0 1 6.431-6.431h23.508a6.44 6.44 0 0 1 6.431 6.431"/><path fill="#E1EAF8" d="M47.973 13H21.027C19.908 13 19 13.968 19 15.162v17.677c0 1.193.908 2.161 2.027 2.161h26.945c1.12 0 2.028-.968 2.028-2.161V15.162C50 13.968 49.092 13 47.973 13"/><path fill="#9A9A9A" fill-rule="evenodd" d="M34.502 16.004c-3.183 0-5.765 2.557-5.765 5.708v.518a2.6 2.6 0 0 1-.44 1.442l-.854 1.27c-.991 1.473-.234 3.476 1.49 3.941q.845.228 1.7.385v.004c.573 1.512 2.1 2.568 3.87 2.568s3.298-1.056 3.87-2.568v-.004a22 22 0 0 0 1.7-.385c1.724-.465 2.482-2.468 1.49-3.94l-.853-1.27a2.6 2.6 0 0 1-.441-1.443v-.518c-.002-3.151-2.583-5.708-5.767-5.708m2.51 13.47a21.3 21.3 0 0 1-5.022 0c.529.752 1.45 1.262 2.512 1.262 1.061 0 1.982-.51 2.51-1.262" clip-rule="evenodd"/><path fill="#FD4E4E" d="M36.312 44.731a.6.6 0 0 1-.242-.056l-3.647-1.808a.547.547 0 0 1 .486-.98l3.645 1.807a.547.547 0 0 1-.242 1.037m-3.426 14.175a.55.55 0 0 1-.519-.723.55.55 0 0 1 .277-.314l3.654-1.79a.547.547 0 0 1 .481.98l-3.653 1.791a.54.54 0 0 1-.24.056M70.308 42.17a.547.547 0 0 1-.274-1.021l3.527-2.029a.547.547 0 0 1 .545.949l-3.526 2.028a.54.54 0 0 1-.272.073m-10.424-6.692a.546.546 0 0 1-.542-.618l.54-4.033a.546.546 0 1 1 1.083.145l-.54 4.033a.55.55 0 0 1-.54.473M52 40c-6.628 0-12 5.373-12 12 0 6.628 5.373 12 12 12 6.628 0 12-5.373 12-12 0-6.628-5.372-12-12-12m6.663 17.385a.905.905 0 0 1-1.278 1.278L52 53.278l-5.385 5.385a.9.9 0 0 1-1.278 0 .904.904 0 0 1 0-1.278L50.722 52l-5.385-5.385a.905.905 0 0 1 1.278-1.278L52 50.722l5.385-5.385a.905.905 0 0 1 1.278 1.278L53.278 52z"/></svg>