<svg xmlns="http://www.w3.org/2000/svg" width="80" height="80" fill="none"><path fill="#E1EAF8" d="M40.102 8.053H28.62c-.941 0-1.777-.601-2.076-1.495L25.191 2.5h18.341l-1.353 4.058a2.19 2.19 0 0 1-2.077 1.495m10.257 60.05v2.417c0 2.344-1.9 4.244-4.244 4.244h-18.76a2.735 2.735 0 0 0-2.734 2.734h21.494a6.98 6.98 0 0 0 6.978-6.978v-1.332z"/><path fill="#9A9A9A" d="M46.11 78.046H22.604c-4.15 0-7.525-3.376-7.525-7.525V61.79a.547.547 0 0 1 1.094 0v8.731a6.44 6.44 0 0 0 6.431 6.432h23.508a6.44 6.44 0 0 0 6.431-6.432V69.19a.547.547 0 0 1 1.094 0v1.332c0 4.149-3.375 7.525-7.525 7.525M52.542 9.478v23.546a.547.547 0 0 0 1.094 0V9.478c0-4.15-3.377-7.525-7.525-7.525H22.603c-4.15 0-7.525 3.377-7.525 7.525v48.06a.547.547 0 0 0 1.094 0V9.478a6.44 6.44 0 0 1 6.431-6.431h23.508a6.44 6.44 0 0 1 6.431 6.431"/><path fill="#0166FF" d="M36.31 44.731a.6.6 0 0 1-.243-.056l-3.647-1.808a.547.547 0 0 1 .486-.98l3.646 1.807a.547.547 0 0 1-.243 1.037m-3.427 14.175a.55.55 0 0 1-.519-.723.55.55 0 0 1 .277-.314l3.654-1.79a.547.547 0 0 1 .482.98l-3.654 1.791a.54.54 0 0 1-.24.056M70.305 42.17a.547.547 0 0 1-.274-1.021l3.527-2.029a.548.548 0 0 1 .545.949l-3.526 2.028a.54.54 0 0 1-.272.073M59.88 35.477a.545.545 0 0 1-.542-.618l.54-4.033a.546.546 0 1 1 1.083.145l-.54 4.033a.55.55 0 0 1-.54.473"/><path stroke="#9A9A9A" stroke-linecap="round" stroke-linejoin="round" d="M32.083 25.278c0 1.611 2.612 2.917 5.834 2.917s5.833-1.306 5.833-2.917m-11.667 0c0-1.61 2.612-2.916 5.834-2.916s5.833 1.306 5.833 2.916m-11.667 0v3.89c0 1.61 2.612 2.916 5.834 2.916s5.833-1.307 5.833-2.917v-3.889m-17.5-7.777c0 1.042 1.112 2.004 2.917 2.525 1.804.522 4.029.522 5.833 0 1.804-.52 2.917-1.483 2.917-2.525 0-1.043-1.113-2.005-2.917-2.526s-4.029-.521-5.833 0c-1.805.52-2.917 1.483-2.917 2.526m0 0v9.722c0 .863.75 1.41 1.944 1.944m-1.944-6.805c0 .863.75 1.41 1.944 1.944"/><circle cx="53" cy="51" r="11" fill="#0166FF"/><path stroke="#fff" stroke-linecap="round" stroke-linejoin="round" stroke-width="1.2" d="m49 51 3 3 6-6"/><mask id="a" fill="#fff"><path d="M6.62 64.166c-.237 0-.38-.142-.427-.38-.19-.81-.568-1.572-1.184-2.191a4.34 4.34 0 0 0-2.13-1.19.375.375 0 0 1-.379-.382.45.45 0 0 1 .379-.428c.805-.143 1.562-.572 2.178-1.19a4.33 4.33 0 0 0 1.184-2.191c.047-.238.236-.381.426-.381s.378.143.426.381c.19.81.568 1.571 1.184 2.19.615.62 1.325 1 2.178 1.19a.45.45 0 0 1 .378.43.45.45 0 0 1-.379.428 4.27 4.27 0 0 0-3.314 3.333c-.142.239-.284.381-.52.381m-2.747-4.142a4.8 4.8 0 0 1 1.657 1.095 4.8 4.8 0 0 1 1.09 1.666 5.14 5.14 0 0 1 2.746-2.81 4.8 4.8 0 0 1-1.658-1.094 4.8 4.8 0 0 1-1.089-1.667 4.8 4.8 0 0 1-1.089 1.667 4.3 4.3 0 0 1-1.657 1.142"/></mask><path fill="#9A9A9A" d="M6.62 64.166c-.237 0-.38-.142-.427-.38-.19-.81-.568-1.572-1.184-2.191a4.34 4.34 0 0 0-2.13-1.19.375.375 0 0 1-.379-.382.45.45 0 0 1 .379-.428c.805-.143 1.562-.572 2.178-1.19a4.33 4.33 0 0 0 1.184-2.191c.047-.238.236-.381.426-.381s.378.143.426.381c.19.81.568 1.571 1.184 2.19.615.62 1.325 1 2.178 1.19a.45.45 0 0 1 .378.43.45.45 0 0 1-.379.428 4.27 4.27 0 0 0-3.314 3.333c-.142.239-.284.381-.52.381m-2.747-4.142a4.8 4.8 0 0 1 1.657 1.095 4.8 4.8 0 0 1 1.09 1.666 5.14 5.14 0 0 1 2.746-2.81 4.8 4.8 0 0 1-1.658-1.094 4.8 4.8 0 0 1-1.089-1.667 4.8 4.8 0 0 1-1.089 1.667 4.3 4.3 0 0 1-1.657 1.142"/><path fill="#9A9A9A" d="m6.193 63.785 4.783-.95-.016-.08-.019-.08zm-3.314-3.38 1.123-4.746-.554-.13h-.57zm0-.81-.852-4.801-.055.01-.055.01zm3.362-3.381L11 57.266l.012-.05.01-.051zm.852 0-4.783.951.016.08.019.08zm3.361 3.38-1.063 4.76.05.011.052.01zm0 .858.962 4.78zM7.14 63.785l4.188 2.499.43-.723.165-.825zm-3.267-3.761-1.76-4.548-11.756 4.547 11.757 4.548zm2.746 2.761-4.554 1.742 4.424 11.568 4.65-11.479zm2.747-2.81 1.909 4.488 11.05-4.702-11.2-4.333zm-2.747-2.761 4.555-1.742-4.555-11.91-4.554 11.91zM5.53 58.881l-3.457-3.438-.082.082-.078.086zm1.09.41c.921 0 2.064.307 3.02 1.189a4.38 4.38 0 0 1 1.336 2.354L1.41 64.737c.163.82.585 1.96 1.62 2.913a5.28 5.28 0 0 0 3.588 1.392zm4.321 3.384c-.364-1.558-1.131-3.168-2.474-4.518l-6.915 6.876a.6.6 0 0 1-.1-.133c-.018-.032-.015-.038-.007-.004zm-2.474-4.518a9.2 9.2 0 0 0-4.465-2.498l-2.246 9.49s-.04-.01-.101-.043a.5.5 0 0 1-.103-.073zM2.88 55.528c2.872 0 4.497 2.428 4.497 4.496h-9.752c0 2.448 1.91 5.257 5.255 5.257zm4.497 4.496a4.43 4.43 0 0 1-3.536 4.351l-1.923-9.56c-2.403.483-4.293 2.585-4.293 5.209zm-3.645 4.372c1.936-.344 3.57-1.333 4.784-2.553l-6.916-6.877.018-.015a1 1 0 0 1 .067-.043 1.1 1.1 0 0 1 .343-.114zm4.784-2.553a9.2 9.2 0 0 0 2.487-4.577l-9.523-2.104c-.007.032-.002-.005.035-.073a.7.7 0 0 1 .085-.123zm2.508-4.678a4.43 4.43 0 0 1-4.356 3.544v-9.752c-2.664 0-4.737 1.935-5.209 4.306zm-4.356 3.544a4.43 4.43 0 0 1-4.357-3.544l9.565-1.902c-.471-2.371-2.544-4.306-5.208-4.306zm-4.322-3.384c.364 1.557 1.131 3.167 2.474 4.518l6.915-6.877a.6.6 0 0 1 .1.134c.018.032.015.037.007.003zm2.474 4.518a9.16 9.16 0 0 0 4.572 2.51l2.127-9.517c-.025-.006.016.002.09.041a.7.7 0 0 1 .126.09zm4.674 2.532a4.43 4.43 0 0 1-3.536-4.352h9.753c0-2.623-1.89-4.725-4.294-5.209zm-3.536-4.352a4.43 4.43 0 0 1 3.536-4.351l1.923 9.56c2.403-.483 4.294-2.585 4.294-5.209zm3.536-4.351c-3.6.724-6.423 3.578-7.135 7.162l9.565 1.903a.6.6 0 0 1-.165.32.66.66 0 0 1-.342.175zm-6.54 5.615c.032-.054.325-.563.939-1.048a4.42 4.42 0 0 1 2.727-.949v9.753c1.235 0 2.39-.418 3.32-1.152a5.9 5.9 0 0 0 1.389-1.607zm-.839 3.284q-.053-.023-.054-.026-.002 0 .013.012l6.915-6.876a9.7 9.7 0 0 0-3.356-2.205zm-.041-.014.01.01.003.006-.006-.01-.015-.036 9.109-3.483a9.7 9.7 0 0 0-2.186-3.363zm9.066.06a.27.27 0 0 1 .136-.154l-3.819-8.974A10.02 10.02 0 0 0 2.1 60.955zm-.014-9.189a.3.3 0 0 1 .054.026l-.013-.011-6.915 6.876a9.7 9.7 0 0 0 3.355 2.205zm.041.015-.01-.011-.003-.005.005.01.016.035-9.11 3.484a9.7 9.7 0 0 0 2.187 3.363zm-9.101.03.015-.036.006-.01-.004.005-.01.01 6.916 6.877a9.7 9.7 0 0 0 2.186-3.363zm-.152.138a.5.5 0 0 1 .2-.135l3.52 9.095a9.2 9.2 0 0 0 3.515-2.42z" mask="url(#a)"/><path fill="#9A9A9A" d="M79.868 13.714c0-.943-.767-1.71-1.713-1.71h-2.9l.738-3.933a2.52 2.52 0 0 0-.444-1.97 2.52 2.52 0 0 0-1.736-1.032 1.033 1.033 0 0 0-1.148.866L72.29 8.43a2.76 2.76 0 0 1-1.89 2.225 3.24 3.24 0 0 0-2.146 2.328.02.02 0 0 1-.02.016h-1.35a1.45 1.45 0 0 0-1.432-1.228h-3.219a.9.9 0 0 0-.895 1.007l.978 8.326a.9.9 0 0 0 .895.796h2.241c.675 0 1.242-.464 1.403-1.09h.19a.42.42 0 0 1 .255.087l.418.325a5.72 5.72 0 0 0 3.486 1.195h5.689c.944 0 1.71-.767 1.71-1.71 0-.364-.115-.7-.309-.979a1.74 1.74 0 0 0 .686-1.382c0-.324-.094-.625-.253-.883.466-.314.773-.846.773-1.447 0-.353-.109-.68-.296-.95.404-.317.664-.805.664-1.352M65.81 20.45c0 .197-.16.356-.356.356h-2.07l-.934-7.942h3.004c.197 0 .356.16.356.356zm11.086.873h-5.69a4.6 4.6 0 0 1-2.815-.965l-.419-.325a1.52 1.52 0 0 0-.926-.318h-.142v-5.623h1.333c.518 0 .964-.353 1.082-.858.17-.72.713-1.31 1.418-1.537a3.84 3.84 0 0 0 2.634-3.103l.366-2.429c.375.066.703.27.928.58a1.45 1.45 0 0 1 .253 1.125l-.747 3.978a1.052 1.052 0 0 0 1.037 1.25h2.947a.618.618 0 1 1 0 1.234H76.15a.547.547 0 0 0 0 1.094h1.673c.324 0 .586.263.586.586a.65.65 0 0 1-.65.65h-1.473a.548.548 0 0 0 0 1.094h1.017c.323 0 .586.262.586.586a.65.65 0 0 1-.65.65h-1.142a.547.547 0 0 0 0 1.094h.797a.619.619 0 0 1 .003 1.237"/></svg>