<svg xmlns="http://www.w3.org/2000/svg" width="48" height="48" fill="none"><path fill="#9A9A9A" d="M33.125 10.867a.33.33 0 0 0 .328-.329V5.943c0-2.63-2.14-4.771-4.77-4.771H14.77a4.776 4.776 0 0 0-4.771 4.77v36.116c0 2.63 2.14 4.771 4.77 4.771h13.913c2.63 0 4.77-2.14 4.77-4.77v-9.134a.328.328 0 0 0-.656 0v9.133a4.12 4.12 0 0 1-4.114 4.115H14.77a4.12 4.12 0 0 1-4.115-4.115V5.943a4.12 4.12 0 0 1 4.115-4.115h13.912a4.12 4.12 0 0 1 4.114 4.115v4.595c0 .181.147.329.328.329Z"/><path fill="#9A9A9A" d="M24.335 5.224c.675 0 1.224-.55 1.224-1.224 0-.675-.55-1.225-1.224-1.225H19.12c-.675 0-1.224.55-1.224 1.225s.55 1.224 1.224 1.224zM24.903 4a.57.57 0 0 1-.568.568h-1.27c.381-.27.643-.676.729-1.135h.54a.57.57 0 0 1 .569.567m-8.85 40.263c0 .18.148.328.329.328h10.69a.329.329 0 0 0 0-.657h-10.69a.33.33 0 0 0-.328.329Z"/><path fill="#FAFBFF" d="M25.834 42.62h-7.918c-1.523 0-2.43-1.7-1.58-2.966l.682-1.016a2.85 2.85 0 0 1 2.366-1.261h2.649a6.19 6.19 0 0 1 5.137 2.738c.717 1.07-.048 2.505-1.336 2.505"/><path fill="#0166FF" d="M35.946 11.984H19.132a3.024 3.024 0 0 0-3.025 3.025v13.279a3.024 3.024 0 0 0 3.025 3.024h16.813a3.024 3.024 0 0 0 3.024-3.024v-13.28a3.024 3.024 0 0 0-3.023-3.024"/><path fill="#fff" stroke="#fff" stroke-width=".507" d="M23.637 22.787c-.716.403-1.122.94-1.122 1.502 0 .64.006 1.145.46 1.514.231.19.59.35 1.148.463.559.113 1.31.177 2.319.177 1.01 0 1.76-.064 2.319-.177l-.05-.248.05.248c.559-.113.917-.274 1.148-.462.454-.37.46-.876.46-1.515 0-.563-.406-1.1-1.122-1.502-.712-.4-1.703-.652-2.805-.652s-2.093.252-2.805.652Zm0 0 .125.22m-.125-.22.125.22m0 0c-.68.383-.994.85-.994 1.282 0 .663.02 1.036.367 1.318zm-1.5 1.282c0-.695.499-1.3 1.251-1.723.756-.425 1.792-.684 2.929-.684s2.173.259 2.929.684c.753.423 1.252 1.028 1.252 1.723v.052c0 .602-.01 1.216-.554 1.66-.275.223-.677.396-1.258.514-.582.117-1.351.182-2.369.182s-1.787-.064-2.369-.182c-.58-.118-.983-.29-1.258-.515l-.16.196.16-.196c-.544-.443-.554-1.057-.554-1.659zm2.026-5.83a2.154 2.154 0 1 1 4.307-.001 2.154 2.154 0 0 1-4.307 0Zm2.153-1.901a1.9 1.9 0 1 0 0 3.8 1.9 1.9 0 0 0 0-3.8Z"/><path stroke="#fff" stroke-linecap="round" stroke-width=".75" d="M31.441 18.377h2.5m-3.75 1.875h3.75m-2.5 1.875h2.5"/></svg>