<svg xmlns="http://www.w3.org/2000/svg" width="80" height="80" fill="none"><g clip-path="url(#a)"><path fill="#E1EAF8" d="M69.34 24.48a3.84 3.84 0 0 0-2.188 3.463v8.192c0 8.558-2.576 16.8-7.451 23.834a41.65 41.65 0 0 1-19.702 15.344A41.65 41.65 0 0 1 20.298 59.97a42 42 0 0 1-4.26-7.784 2.034 2.034 0 0 0-2.753-1.047A44 44 0 0 0 18.5 61.216a43.83 43.83 0 0 0 20.733 16.146 2.2 2.2 0 0 0 1.534 0 43.83 43.83 0 0 0 20.808-16.255c5.114-7.425 7.767-16.267 7.767-25.283z"/><path fill="#9A9A9A" d="m15.566 12.219 7.486-1.531a.55.55 0 0 0 .426-.646.55.55 0 0 0-.645-.426l-7.484 1.53a1.89 1.89 0 0 0-1.508 1.85v23.359a39.83 39.83 0 0 0 7.126 22.793A39.84 39.84 0 0 0 39.81 73.823a.54.54 0 0 0 .384 0 39.83 39.83 0 0 0 18.842-14.675 39.83 39.83 0 0 0 7.127-22.793v-23.36c0-.892-.635-1.668-1.508-1.848L40.378 6.18a1.9 1.9 0 0 0-.756 0L25.88 8.992a.55.55 0 0 0-.427.645c.061.296.35.488.646.427l13.742-2.81a.8.8 0 0 1 .317 0l24.277 4.965a.796.796 0 0 1 .634.776v23.36c0 7.96-2.397 15.628-6.933 22.172A38.74 38.74 0 0 1 40 72.727a38.75 38.75 0 0 1-18.136-14.2 38.74 38.74 0 0 1-6.933-22.172v-23.36c0-.375.268-.701.635-.776"/><path fill="#9A9A9A" d="M69.34 18.756a.55.55 0 0 0 .547-.547v-6.837a4.17 4.17 0 0 0-3.32-4.069L40.831 2.038a4.1 4.1 0 0 0-1.664 0L13.433 7.303a4.17 4.17 0 0 0-3.32 4.069v24.764a44.38 44.38 0 0 0 7.938 25.392 44.37 44.37 0 0 0 20.99 16.347c.307.116.63.173.959.173q.496 0 .96-.173a44.37 44.37 0 0 0 20.988-16.347 44.37 44.37 0 0 0 7.94-25.392V22.21a.547.547 0 0 0-1.094 0v13.925a43.3 43.3 0 0 1-7.744 24.769A43.3 43.3 0 0 1 40.575 76.85a1.66 1.66 0 0 1-1.15 0A43.3 43.3 0 0 1 18.95 60.905a43.3 43.3 0 0 1-7.744-24.77V11.373a3.07 3.07 0 0 1 2.445-2.997L39.387 3.11a3.1 3.1 0 0 1 1.227 0L66.35 8.375a3.07 3.07 0 0 1 2.445 2.997v6.837a.546.546 0 0 0 .545.547"/><path fill="#0166FF" d="M72.939 22.85a.546.546 0 0 1-.247-1.035l3.633-1.833a.546.546 0 1 1 .492.977l-3.633 1.833a.6.6 0 0 1-.245.057ZM76.469 37a.54.54 0 0 1-.238-.055l-3.666-1.764a.548.548 0 0 1 .056-1.009.55.55 0 0 1 .418.023l3.665 1.764a.548.548 0 0 1-.236 1.04ZM6.883 22.85a.5.5 0 0 1-.245-.06l-3.633-1.833a.547.547 0 1 1 .492-.976l3.633 1.832a.547.547 0 0 1-.247 1.036ZM3.356 37a.55.55 0 0 1-.517-.728.55.55 0 0 1 .28-.312l3.665-1.764a.546.546 0 1 1 .473.986l-3.664 1.763a.54.54 0 0 1-.237.054Z"/><circle cx="40" cy="34.999" r="18.333" stroke="#9A9A9A" stroke-dasharray="5 5" stroke-linecap="round"/><path stroke="#0166FF" d="M32.224 38.112c0-2.2 0-3.3.683-3.983.684-.684 1.783-.684 3.983-.684h6.222c2.2 0 3.3 0 3.984.684.683.683.683 1.783.683 3.983s0 3.3-.683 3.983c-.684.684-1.784.684-3.983.684H36.89c-2.2 0-3.3 0-3.983-.684-.683-.683-.683-1.783-.683-3.983Z"/><circle cx="40.003" cy="38.112" r="2.056" stroke="#0166FF"/><path stroke="#0166FF" stroke-linecap="round" d="M35.334 33.445v-1.556a4.667 4.667 0 0 1 9.333 0v1.556"/></g><defs><clipPath id="a"><path fill="#fff" d="M0 0h80v80H0z"/></clipPath></defs></svg>