<svg xmlns="http://www.w3.org/2000/svg" width="49" height="48" fill="none"><path fill="#0166FF" d="M24.652 17.73c-5.402 0-9.78 4.38-9.78 9.782s4.378 9.782 9.78 9.782 9.781-4.379 9.781-9.782c0-5.402-4.38-9.782-9.781-9.782m-5.408 14.122a.33.33 0 0 1-.324-.277.33.33 0 0 1 .058-.244l7.185-9.895a.329.329 0 0 1 .532.385l-7.185 9.895a.33.33 0 0 1-.266.136m9.917-7.79-4.553 6.272a.325.325 0 0 1-.457.072.33.33 0 0 1-.074-.458l4.554-6.272a.33.33 0 0 1 .458-.073.33.33 0 0 1 .072.46Z"/><path fill="#E1EAF8" d="M3.832 24.653v7.597c0 .995.807 1.803 1.803 1.803h3.903c1.31 0 2.086-1.464 1.352-2.549a5.37 5.37 0 0 1-.922-3.01v-1.146c0-1.23.25-2.448.732-3.58l.338-.79a.838.838 0 0 0-.747-1.166l-3.436-.098a2.94 2.94 0 0 0-3.023 2.94Zm41.408 0v7.597c0 .995-.807 1.803-1.802 1.803h-3.903c-1.31 0-2.087-1.464-1.353-2.549a5.37 5.37 0 0 0 .922-3.01v-1.146a9.1 9.1 0 0 0-.732-3.58l-.337-.79a.838.838 0 0 1 .746-1.166l3.437-.098a2.94 2.94 0 0 1 3.022 2.94Z"/><path fill="#9A9A9A" d="M47.328 18.86v-5.472c0-.905-.736-1.64-1.64-1.64H40.39l-2.22-5.233a2.29 2.29 0 0 0-2.114-1.4H19.934c-.923 0-1.754.55-2.115 1.4l-1.637 3.86a.329.329 0 0 0 .604.257l1.638-3.861a1.64 1.64 0 0 1 1.51-1h4.21a8.68 8.68 0 0 0-5.69 5.11.86.86 0 0 0 .127.865h-6.748v-1.144a1.33 1.33 0 0 0-1.329-1.329h-3.93a1.33 1.33 0 0 0-1.33 1.33v1.143H3.313c-.905 0-1.641.736-1.641 1.64v27.856c0 .905.736 1.64 1.64 1.64h42.376c.904 0 1.64-.735 1.64-1.64V21.214a.328.328 0 0 0-.656 0v14.34H33.778a12.18 12.18 0 0 0 2.999-8.041c0-2.77-.923-5.329-2.476-7.386h11.761c.698 0 1.266-.568 1.266-1.266ZM22.685 8.074c0-.363.293-.656.656-.656h9.974c.363 0 .657.293.657.656v1.373a.656.656 0 0 1-.657.656h-9.974a.656.656 0 0 1-.656-.656zM5.9 10.603c0-.37.302-.673.673-.673h1.224c-.498.34-.825.912-.825 1.56q0 .14.06.257H5.9zM32.717 35.73a11.55 11.55 0 0 1-8.217 3.404c-6.408 0-11.62-5.213-11.621-11.622 0-1.668.346-3.277 1.026-4.783a.328.328 0 1 0-.598-.27 12.2 12.2 0 0 0-1.085 5.054c0 3.073 1.136 5.887 3.008 8.042H4.347a.328.328 0 0 0 0 .656h11.497a12.24 12.24 0 0 0 8.656 3.58c3.28 0 6.362-1.277 8.681-3.597l.019-.019a.3.3 0 0 0 .145.036h13.327v5.032a.986.986 0 0 1-.984.984H3.312a.985.985 0 0 1-.984-.984V20.126h12.365q-.201.267-.39.544a.329.329 0 0 0 .545.367A11.61 11.61 0 0 1 24.5 15.89c6.408 0 11.62 5.213 11.621 11.622a11.55 11.55 0 0 1-3.404 8.217ZM24.5 15.235a12.26 12.26 0 0 0-9.277 4.236H2.328V13.39c0-.543.442-.985.985-.985h42.374c.543 0 .985.442.985.985v5.473a.61.61 0 0 1-.61.61H33.77a12.25 12.25 0 0 0-9.269-4.237Z"/><path fill="#9A9A9A" d="M43.67 14.484h-4.198a.985.985 0 0 0-.984.985v.936c0 .543.441.985.984.985h4.198a.986.986 0 0 0 .985-.985v-.936a.987.987 0 0 0-.986-.985Zm-4.526 1.921v-.936c0-.181.147-.328.328-.328h.909a1.59 1.59 0 0 0-.628 1.264c0 .12.033.232.089.328h-.37a.33.33 0 0 1-.328-.328M6.133 40.29h4.198a.986.986 0 0 0 .984-.984v-.937a.986.986 0 0 0-.984-.984H6.133a.985.985 0 0 0-.985.984v.937c0 .542.442.984.985.984m-.328-1.92c0-.182.147-.329.328-.329h.908a1.59 1.59 0 0 0-.627 1.265c0 .12.033.231.088.328h-.37a.33.33 0 0 1-.327-.328z"/></svg>