<svg xmlns="http://www.w3.org/2000/svg" width="80" height="80" fill="none"><path fill="#E1EAF8" d="M40.102 8.053H28.62c-.941 0-1.777-.601-2.076-1.495L25.191 2.5h18.341l-1.353 4.058a2.19 2.19 0 0 1-2.077 1.495m10.257 60.05v2.417c0 2.344-1.9 4.244-4.244 4.244h-18.76a2.735 2.735 0 0 0-2.734 2.734h21.494a6.98 6.98 0 0 0 6.978-6.978v-1.332z"/><path fill="#9A9A9A" d="M46.113 78.046H22.605c-4.15 0-7.525-3.376-7.525-7.525V61.79a.547.547 0 0 1 1.094 0v8.731a6.44 6.44 0 0 0 6.431 6.432h23.508a6.44 6.44 0 0 0 6.431-6.432V69.19a.548.548 0 0 1 1.094 0v1.332c0 4.149-3.375 7.525-7.525 7.525M52.544 9.478v23.546a.548.548 0 0 0 1.094 0V9.478c0-4.15-3.377-7.525-7.525-7.525H22.605c-4.15 0-7.525 3.377-7.525 7.525v48.06a.547.547 0 0 0 1.094 0V9.478a6.44 6.44 0 0 1 6.431-6.431h23.508a6.44 6.44 0 0 1 6.431 6.431"/><path fill="#FD4E4E" d="M36.313 44.731a.6.6 0 0 1-.242-.056l-3.647-1.808a.547.547 0 0 1 .486-.98l3.646 1.807a.547.547 0 0 1-.243 1.037m-3.426 14.175a.55.55 0 0 1-.519-.723.55.55 0 0 1 .277-.314l3.654-1.79a.547.547 0 0 1 .482.98l-3.654 1.791a.54.54 0 0 1-.24.056M70.309 42.17a.547.547 0 0 1-.274-1.021l3.527-2.029a.548.548 0 0 1 .545.949l-3.526 2.028a.54.54 0 0 1-.272.073m-10.424-6.692a.546.546 0 0 1-.542-.618l.54-4.033a.546.546 0 1 1 1.083.145l-.54 4.033a.55.55 0 0 1-.54.473M52 40c-6.628 0-12 5.373-12 12 0 6.628 5.373 12 12 12 6.628 0 12-5.373 12-12 0-6.628-5.372-12-12-12m6.663 17.385a.905.905 0 0 1-1.278 1.278L52 53.278l-5.385 5.385a.9.9 0 0 1-1.278 0 .904.904 0 0 1 0-1.278L50.722 52l-5.385-5.385a.905.905 0 0 1 1.278-1.278L52 50.722l5.385-5.385a.905.905 0 0 1 1.278 1.278L53.278 52z"/><path fill="#9A9A9A" fill-rule="evenodd" d="M36.222 31.5h-4.444c-3.121 0-4.682 0-5.803-.715a4.4 4.4 0 0 1-1.226-1.17C24 28.545 24 27.055 24 24.075c0-2.978 0-4.468.749-5.538a4.4 4.4 0 0 1 1.226-1.17c.72-.46 1.622-.624 3.003-.683.659 0 1.226-.476 1.355-1.093.194-.925 1.045-1.591 2.033-1.591h3.268c.988 0 1.839.666 2.033 1.59.129.618.696 1.094 1.355 1.094 1.38.059 2.282.223 3.003.682.485.31.902.708 1.226 1.171.749 1.07.749 2.56.749 5.539s0 4.468-.749 5.538a4.4 4.4 0 0 1-1.226 1.171c-1.121.715-2.682.715-5.803.715m3.78-11.526a.833.833 0 0 0 0 1.667h1a.833.833 0 0 0 0-1.667zM34 26.64c1.657 0 3-1.305 3-2.916s-1.343-2.917-3-2.917-3 1.306-3 2.917 1.343 2.916 3 2.916" clip-rule="evenodd"/></svg>