<svg xmlns="http://www.w3.org/2000/svg" width="48" height="48" fill="none"><path fill="#E1EAF8" d="M18.132 1.5C8.947 1.5 1.5 8.947 1.5 18.132s7.447 16.632 16.632 16.632 16.632-7.446 16.632-16.632c0-9.185-7.446-16.632-16.632-16.632m15.15 16.632c0 8.366-6.784 15.15-15.15 15.15S2.983 26.497 2.983 18.131 9.766 2.983 18.133 2.983c8.365 0 15.148 6.783 15.148 15.15m.47 15.62c.596-.595 1.23-1.13 1.892-1.605a1.78 1.78 0 0 0-2.445-.072 15 15 0 0 0-1.124 1.124 1.78 1.78 0 0 0 .072 2.445 15 15 0 0 1 1.606-1.891"/><rect width="20" height="20" x="8" y="8" fill="#0166FF" rx="6"/><path fill="#fff" fill-rule="evenodd" d="M15.736 13.12c.573-.079 1.305-.079 2.235-.079h.052c.93 0 1.663 0 2.236.08.588.082 1.057.254 1.425.637.368.382.534.868.612 1.477.077.594.077 1.355.077 2.321v2.351c0 .695 0 1.246-.043 1.66-.042.41-.134.78-.394 1.027a1.32 1.32 0 0 1-.756.357c-.354.041-.684-.132-1.009-.369-.328-.239-.725-.6-1.225-1.054l-.006-.006-.017-.015a9 9 0 0 0-.523-.455.7.7 0 0 0-.271-.144.7.7 0 0 0-.262 0 .7.7 0 0 0-.27.144c-.132.099-.288.24-.519.45l-.005.005-.017.015c-.503.459-.902.821-1.231 1.06-.326.237-.655.41-1.009.369a1.33 1.33 0 0 1-.756-.357c-.26-.247-.352-.617-.394-1.027-.043-.414-.043-.965-.043-1.66v-2.35c0-.968 0-1.728.076-2.322.08-.609.244-1.095.611-1.477.369-.383.838-.555 1.426-.637m.804 1.773a.343.343 0 1 0 0 .686h2.916a.343.343 0 0 0 0-.686z" clip-rule="evenodd"/><path fill="#9A9A9A" d="m46.404 40.748-9.012-9.012a1.45 1.45 0 0 0-1.854-.16l-3.601-3.601a16.87 16.87 0 0 0 3.156-9.843c0-9.351-7.608-16.96-16.96-16.96S1.172 8.78 1.172 18.132s7.609 16.96 16.96 16.96c5.448 0 10.302-2.581 13.408-6.585l3.518 3.517-3.033 3.033-2.136-2.136a.328.328 0 1 0-.464.464l2.152 2.152a1.45 1.45 0 0 0 .16 1.854l9.012 9.012c.274.274.637.424 1.024.424s.75-.15 1.024-.424l3.608-3.608a1.45 1.45 0 0 0 0-2.047m-28.272-6.312c-8.99 0-16.304-7.314-16.304-16.304S9.143 1.828 18.132 1.828c8.99 0 16.304 7.315 16.304 16.304 0 8.99-7.313 16.304-16.304 16.304m27.808 7.896-3.608 3.608a.79.79 0 0 1-.56.232.8.8 0 0 1-.56-.232L32.2 36.928a.793.793 0 0 1 0-1.12L35.81 32.2a.793.793 0 0 1 1.12 0l9.011 9.012a.793.793 0 0 1 0 1.12"/><path fill="#9A9A9A" d="m37.452 35.504-1.947 1.947a.329.329 0 0 0 .356.536.3.3 0 0 0 .107-.071l1.947-1.947a.326.326 0 0 0 0-.464.326.326 0 0 0-.463-.001m4.721 4.722-1.946 1.947a.329.329 0 0 0 .231.56.32.32 0 0 0 .232-.097l1.946-1.947a.33.33 0 0 0 0-.464.33.33 0 0 0-.463 0"/><path fill="#0166FF" d="M39.183 15.616a.328.328 0 0 1-.136-.627l2.224-1.008a.328.328 0 1 1 .27.597l-2.223 1.008a.3.3 0 0 1-.135.03m1.762 8.57a.3.3 0 0 1-.153-.038l-2.154-1.15a.328.328 0 1 1 .31-.579l2.153 1.15a.33.33 0 0 1 .172.321.33.33 0 0 1-.328.296m-17.234 15.64a.33.33 0 0 1-.287-.168l-1.194-2.13a.328.328 0 0 1 .572-.32l1.194 2.128a.328.328 0 0 1-.285.49m-9.584.36a.33.33 0 0 1-.235-.098.33.33 0 0 1-.067-.359l.961-2.244a.328.328 0 1 1 .603.258l-.96 2.245a.33.33 0 0 1-.302.199"/></svg>