<svg xmlns="http://www.w3.org/2000/svg" width="49" height="48" fill="none"><path fill="#E1EAF8" d="M22.562 4.832h-6.89c-.564 0-1.065-.361-1.245-.897L13.617 1.5H24.62l-.812 2.435a1.31 1.31 0 0 1-1.246.897m6.154 34.03v3.45a2.546 2.546 0 0 1-2.546 2.546H14.914c-.906 0-1.64.735-1.64 1.641H26.17a4.187 4.187 0 0 0 4.187-4.187v-2.8z"/><path fill="#9A9A9A" d="M26.169 46.828H12.064a4.52 4.52 0 0 1-4.515-4.515v-5.239a.328.328 0 0 1 .656 0v5.239a3.863 3.863 0 0 0 3.859 3.859h14.105a3.863 3.863 0 0 0 3.858-3.859v-2.8a.328.328 0 0 1 .656 0v2.8a4.52 4.52 0 0 1-4.514 4.515M30.027 5.687v3.127a.328.328 0 0 0 .656 0V5.687a4.52 4.52 0 0 0-4.514-4.515H12.064a4.52 4.52 0 0 0-4.515 4.515v28.836a.328.328 0 0 0 .656 0V5.687a3.863 3.863 0 0 1 3.859-3.859h14.105a3.863 3.863 0 0 1 3.858 3.859"/><path fill="#FD4E4E" d="M16.288 22.84a.34.34 0 0 1-.145-.035l-2.189-1.084a.329.329 0 0 1 .292-.588l2.187 1.084a.328.328 0 0 1-.145.622m-2.056 8.504a.33.33 0 0 1-.311-.434.33.33 0 0 1 .166-.188l2.192-1.075a.329.329 0 0 1 .29.589l-2.193 1.074a.3.3 0 0 1-.144.034m29.453-17.042a.328.328 0 0 1-.164-.613l2.116-1.217a.328.328 0 0 1 .327.569l-2.116 1.217a.3.3 0 0 1-.163.044m-6.254-4.015a.327.327 0 0 1-.325-.372l.324-2.42a.328.328 0 1 1 .65.087l-.325 2.42a.33.33 0 0 1-.324.285"/><path fill="#9A9A9A" d="M11.52 8.068h11.128a.39.39 0 0 0 0-.78H11.52a.39.39 0 0 0 0 .78m0 4.002h8.101a.39.39 0 0 0 0-.78H11.52a.39.39 0 0 0 0 .78m0 4.003h5.767a.39.39 0 0 0 0-.78h-5.768a.39.39 0 0 0 0 .78"/><path fill="#FD4E4E" fill-rule="evenodd" d="M31.672 17.623a1.628 1.628 0 0 0-2.825 0l-5.127 8.939A1.628 1.628 0 0 0 25.133 29h10.253a1.628 1.628 0 0 0 1.412-2.438zm-.574 7.07a.28.28 0 0 1-.092.198.3.3 0 0 1-.21.08h-1.073a.297.297 0 0 1-.303-.277l-.179-4.349a.28.28 0 0 1 .085-.211.3.3 0 0 1 .218-.09h1.43c.171 0 .31.137.302.301zm-.082 1.994a.28.28 0 0 1-.092.197.3.3 0 0 1-.21.08h-.91a.297.297 0 0 1-.302-.277l-.033-.796a.28.28 0 0 1 .084-.212.3.3 0 0 1 .218-.089h.975c.171 0 .31.137.302.3z" clip-rule="evenodd"/><circle cx="30.5" cy="24" r="11.65" stroke="#9A9A9A" stroke-width=".7"/></svg>