<svg xmlns="http://www.w3.org/2000/svg" width="48" height="48" fill="none"><path fill="#E1EAF8" d="M24.061 4.832h-6.89c-.564 0-1.065-.361-1.244-.897L15.115 1.5h11.004l-.812 2.435a1.31 1.31 0 0 1-1.246.897m6.154 36.03v1.45a2.546 2.546 0 0 1-2.546 2.546H16.413c-.905 0-1.64.735-1.64 1.641h12.896a4.187 4.187 0 0 0 4.187-4.187v-.8z"/><path fill="#9A9A9A" d="M27.67 46.828H13.564a4.52 4.52 0 0 1-4.515-4.515v-5.239a.328.328 0 0 1 .656 0v5.24a3.863 3.863 0 0 0 3.859 3.858H27.67a3.863 3.863 0 0 0 3.858-3.859v-9.8a.329.329 0 0 1 .657 0v9.8a4.52 4.52 0 0 1-4.516 4.515M31.527 5.687v6.127a.328.328 0 0 0 .657 0V5.687a4.52 4.52 0 0 0-4.515-4.515H13.564a4.52 4.52 0 0 0-4.515 4.515v28.836a.328.328 0 0 0 .656 0V5.687a3.863 3.863 0 0 1 3.859-3.859h14.105a3.863 3.863 0 0 1 3.858 3.859"/><path fill="#0166FF" d="M21.789 18.84a.34.34 0 0 1-.146-.035l-2.188-1.084a.328.328 0 0 1 .292-.588l2.187 1.084a.328.328 0 0 1-.146.622m-2.056 8.504a.33.33 0 0 1-.311-.434.33.33 0 0 1 .165-.188l2.193-1.075a.328.328 0 0 1 .289.589l-2.192 1.074a.3.3 0 0 1-.144.034m22.453-10.042a.328.328 0 0 1-.164-.613l2.116-1.217a.328.328 0 0 1 .327.569l-2.116 1.217a.3.3 0 0 1-.163.044m-6.254-4.015a.327.327 0 0 1-.326-.372l.325-2.42a.327.327 0 1 1 .65.087l-.325 2.42a.33.33 0 0 1-.324.285"/><path stroke="#0166FF" stroke-linecap="round" stroke-width=".7" d="M26.504 21.71v.582c0 1.918 0 2.876.545 3.522q.15.177.333.323c.664.53 1.65.53 3.623.53s2.96 0 3.623-.53q.183-.146.333-.323c.545-.646.545-1.604.545-3.522v-.583c0-1.917 0-2.876-.545-3.521a2.4 2.4 0 0 0-.333-.323c-.664-.53-1.65-.53-3.623-.53s-2.96 0-3.623.53a2.4 2.4 0 0 0-.333.323c-.256.304-.392.678-.464 1.188m8.92 1.165.395-.192c1.167-.567 1.751-.851 2.178-.595.427.257.427.891.427 2.16v.17c0 1.269 0 1.903-.427 2.16-.427.256-1.01-.027-2.178-.595l-.396-.192zm-3.007-.283a1 1 0 0 1 0 1.443 1.07 1.07 0 0 1-1.485 0 1 1 0 0 1 0-1.443 1.07 1.07 0 0 1 1.485 0Z"/></svg>