<svg xmlns="http://www.w3.org/2000/svg" width="49" height="48" fill="none"><path fill="#9A9A9A" d="M44.671 4.14H34.264a1.32 1.32 0 0 0-.99.447L31.18 6.96a.66.66 0 0 1-.496.225H4.329a2.66 2.66 0 0 0-2.657 2.656v.853a.328.328 0 1 0 .656 0v-.853a2.003 2.003 0 0 1 2-2h26.356a1.32 1.32 0 0 0 .988-.446l2.095-2.375a.66.66 0 0 1 .497-.224H44.67a2.003 2.003 0 0 1 2 2v8.15a2.65 2.65 0 0 0-2-.912H24.634a.327.327 0 0 1 .115-.634h16.588a4.82 4.82 0 0 0-2.972-3.525h4.863a.575.575 0 0 1 .574.573v2.518a.328.328 0 0 0 .656 0v-2.518a1.23 1.23 0 0 0-1.23-1.23H5.772a1.23 1.23 0 0 0-1.23 1.23v.541h-.213a2.66 2.66 0 0 0-2.657 2.657v27.555a2.66 2.66 0 0 0 2.657 2.656H44.67a2.66 2.66 0 0 0 2.657-2.656V6.797a2.66 2.66 0 0 0-2.657-2.656Zm2 37.062a2.003 2.003 0 0 1-2 2H4.33a2.003 2.003 0 0 1-2-2V13.647a2.003 2.003 0 0 1 2-2h10.407a.66.66 0 0 1 .497.223l2.095 2.375a1.32 1.32 0 0 0 .988.446h26.355a2 2 0 0 1 2 2z"/><path fill="#0166FF" d="m19.384 27.01 6.423-5.635a5.29 5.29 0 0 0-9.19 3.216l2.767 2.418Z"/><path fill="#E1EAF8" d="m13.576 26.846 1.379-1.284a.88.88 0 0 1 1.197 0l.707.658c.591.551.202 1.542-.607 1.542h-2.315a.53.53 0 0 1-.361-.916m13.022-4.89.677-.63a1.44 1.44 0 0 1 1.962 0l2.568 2.39a.703.703 0 0 1-.48 1.216H27.77c-1.561 0-2.314-1.912-1.171-2.976Z"/><path fill="#9A9A9A" d="M15.21 30.67a.326.326 0 0 0 .463.03l12.545-11.004a.16.16 0 0 1 .21 0L40.972 30.7a.328.328 0 1 0 .433-.493L28.86 19.202a.816.816 0 0 0-1.074 0l-8.404 7.371-3.29-2.876a.82.82 0 0 0-1.075 0l-7.421 6.51a.328.328 0 1 0 .433.493l7.421-6.51a.16.16 0 0 1 .21 0l3.224 2.82-3.645 3.196a.33.33 0 0 0-.03.464Z"/><path fill="#E1EAF8" d="M18.696 41H6.263c-.468 0-.916-.125-1.247-.347-.33-.222-.516-.524-.516-.838V36.68c0-.77 1.606-.946 1.97-.215l.445.896c.226.456.637.86 1.186 1.167s1.215.505 1.922.571l8.784.825c.99.093.889 1.076-.111 1.076"/><path stroke="#9A9A9A" stroke-linecap="round" stroke-width=".7" d="M6.5 33h35"/></svg>