<svg xmlns="http://www.w3.org/2000/svg" width="49" height="48" fill="none"><path fill="#0166FF" d="M3.877 18.225h16.754l23.784-4.528-.919-4.79L2.762 16.65l.328 1.734c.244-.103.506-.159.787-.159"/><path fill="#E1EAF8" d="M13.382 42.056H6.22a.92.92 0 0 1-.92-.919v-2.166a.92.92 0 0 1 .92-.918h8.84c.6 0 1.04.572.881 1.162l-.309 1.125a2.33 2.33 0 0 1-2.25 1.716"/><path fill="#9A9A9A" d="m47.291 27.104-4.2-22.07a2.18 2.18 0 0 0-.928-1.405 2.17 2.17 0 0 0-1.64-.347l-37.06 7.05A2.203 2.203 0 0 0 1.71 12.9l1.013 5.316a2.2 2.2 0 0 0-1.05 1.875v6.46c0 .178.15.328.328.328s.328-.15.328-.329v-6.459a1.54 1.54 0 0 1 1.547-1.537H41.6c.853 0 1.547.693 1.547 1.537v22.463c0 .853-.694 1.546-1.547 1.546H3.876a1.55 1.55 0 0 1-1.547-1.546V28.238a.33.33 0 0 0-.328-.328.33.33 0 0 0-.328.328v14.325c0 1.21.984 2.203 2.203 2.203H41.6c1.21 0 2.203-.984 2.203-2.203V20.091c0-1.21-.984-2.194-2.203-2.194H3.876c-.188 0-.356.02-.534.066l-.985-5.175a1.543 1.543 0 0 1 1.228-1.8l37.06-7.05c.403-.075.815.01 1.153.244.337.234.572.581.647.984l4.2 22.069c.075.403-.01.816-.244 1.153a1.54 1.54 0 0 1-.985.647l-.187.037a.336.336 0 0 0-.262.385.33.33 0 0 0 .318.272c.019 0 .038 0 .066-.01l.187-.037a2.2 2.2 0 0 0 1.407-.928c.337-.488.45-1.079.346-1.65"/><path fill="#0166FF" d="m33.5 27-.654 4.367.654 2.193.654-2.193zm0 14 .654-4.367-.654-2.193-.654 2.193zm7-7-4.367-.654L33.94 34l2.193.654zm-14 0 4.367.654L33.06 34l-2.193-.654zm11.92-4.98-3.535 2.647-1.076 2.02 2.007-1.1zm-9.84 9.96 3.535-2.647 1.076-2.02-2.007 1.1zm9.9-.06-2.647-3.535-2.02-1.076 1.1 2.007zm-9.96-9.84 2.647 3.535 2.02 1.076-1.1-2.007-3.566-2.604Z"/><path fill="#9A9A9A" d="M7.194 28.05h6.431c.619 0 1.116-.506 1.116-1.116v-3.412c0-.619-.507-1.116-1.116-1.116H7.194c-.619 0-1.116.507-1.116 1.116v3.412c0 .62.506 1.116 1.116 1.116m1.472-2.344H6.734v-.956h1.932zm-1.932 1.228v-.572h1.932v1.032H7.194a.46.46 0 0 1-.46-.46m7.36-1.228h-1.931v-.956h1.93zm-.46 1.688h-1.472v-1.031h1.932v.571a.46.46 0 0 1-.46.46m.46-3.872v.572h-1.931v-1.032h1.471a.46.46 0 0 1 .46.46m-2.588-.46v4.332H9.322v-4.331zm-4.312 0h1.472v1.032H6.734v-.572a.46.46 0 0 1 .46-.46m-.788 8.741h16.75c.178 0 .328-.15.328-.328a.33.33 0 0 0-.328-.328H6.406a.33.33 0 0 0-.328.328c0 .178.15.328.328.328m0 3.281h11.897c.178 0 .328-.15.328-.328a.33.33 0 0 0-.328-.328H6.406a.33.33 0 0 0-.328.328c0 .178.15.328.328.328"/></svg>