<svg xmlns="http://www.w3.org/2000/svg" width="30" height="30" fill="none"><rect width="29" height="29" x=".5" y=".5" fill="#fff" stroke="#E1EAF8" stroke-linecap="round" rx="6.167"/><path stroke="#494949" stroke-linecap="round" stroke-linejoin="round" stroke-width=".8" d="M15 20.002v-2.5m0 2.5a1.667 1.667 0 0 0-1.667 1.666M15 20.002a1.667 1.667 0 0 1 1.667 1.666M15 17.502a5.417 5.417 0 0 0 5.417-5.417M15 17.502a5.416 5.416 0 0 1-5.417-5.417M15 17.502c1.15 0 2.082-2.425 2.082-5.417S16.15 6.668 15 6.668m0 10.834c-1.15 0-2.084-2.425-2.084-5.417S13.85 6.668 15 6.668m-1.667 15H7.5m5.833 0a1.666 1.666 0 1 0 3.334 0m0 0H22.5m-2.083-9.583A5.417 5.417 0 0 0 15 6.668m5.417 5.417H9.583m0 0A5.416 5.416 0 0 1 15 6.668"/></svg>