<svg xmlns="http://www.w3.org/2000/svg" width="48" height="48" fill="none"><path fill="#E1EAF8" d="M27.254 11.324q.015-.007.031-.012a.65.65 0 0 0 .315-.932 9.24 9.24 0 0 0-7.98-4.577 9.2 9.2 0 0 0-4.224 1.02c-.283.146-.147.573.17.533q.563-.07 1.147-.07a9.22 9.22 0 0 1 6.983 3.19 3.14 3.14 0 0 0 3.558.848m12.03 8.557a8.28 8.28 0 0 0-4.216-5.82v.623c0 .178-.133.336-.31.346a.33.33 0 0 1-.346-.328v-.896a.09.09 0 0 0-.057-.086 8.248 8.248 0 0 0-4.237-.592c-.283.036-.3.437-.022.501q.496.115.987.294a8.26 8.26 0 0 1 4.89 4.835 2.81 2.81 0 0 0 2.729 1.811h.03a.584.584 0 0 0 .551-.688"/><path fill="#9A9A9A" d="M40.517 22.097a5.403 5.403 0 0 1 6.321 5.323c0 2.978-2.422 5.4-5.4 5.4h-6.059a.328.328 0 0 1 0-.656h6.059a4.75 4.75 0 0 0 4.744-4.744 4.75 4.75 0 0 0-4.744-4.743q-.541.001-1.063.122a8.9 8.9 0 0 1-.962 2.384.328.328 0 1 1-.565-.332 8.287 8.287 0 0 0-3.12-11.407v1.85c-.001.394-.155.765-.434 1.044l-1.642 1.642a.328.328 0 1 1-.464-.464l1.642-1.642a.82.82 0 0 0 .24-.58v-2.18a8.2 8.2 0 0 0-3.377-.722c-1.88 0-3.653.614-5.126 1.776a.328.328 0 1 1-.407-.516 8.9 8.9 0 0 1 2.805-1.494 9.46 9.46 0 0 0-3.18-5.026 9.44 9.44 0 0 0-5.966-2.13 9.4 9.4 0 0 0-6.97 3.089v1.18c0 .56.456 1.014 1.014 1.014h2.759c.92 0 1.67.749 1.67 1.67v1.793a.328.328 0 0 1-.657 0v-1.793c0-.56-.455-1.014-1.014-1.014h-2.758c-.92 0-1.67-.749-1.67-1.67v-.374a9.37 9.37 0 0 0-1.796 5.529 9.4 9.4 0 0 0 3.394 7.243.329.329 0 1 1-.42.504 10.1 10.1 0 0 1-2.974-4.162 7.2 7.2 0 0 0-1.43-.144c-3.025 0-5.614 1.888-6.656 4.547l2.404 2.734c.27.306.658.482 1.066.482h1.013a.328.328 0 1 1 0 .656H5.78a2.08 2.08 0 0 1-1.559-.705l-2.151-2.446a7.1 7.1 0 0 0-.253 1.88c0 3.942 3.208 7.148 7.149 7.148h3.557a.328.328 0 0 1 0 .657H8.967c-4.304 0-7.805-3.502-7.805-7.805 0-4.304 3.502-7.805 7.805-7.805q.598 0 1.19.091a10.1 10.1 0 0 1-.418-2.876c0-5.558 4.522-10.08 10.08-10.08a10.1 10.1 0 0 1 6.38 2.278 10.12 10.12 0 0 1 3.398 5.358 9 9 0 0 1 2.095-.246c4.93 0 8.939 4.01 8.939 8.94q-.002.717-.114 1.422"/><path fill="#0166FF" d="M24 23.42a9 9 0 1 0 0 18 9 9 0 0 0 0-18m4.513 8.082h-2.086v6.708c0 .19-.154.343-.343.343h-4.168a.344.344 0 0 1-.344-.343v-6.708h-2.086a.343.343 0 0 1-.243-.586l4.513-4.513a.344.344 0 0 1 .485 0l4.512 4.513a.342.342 0 0 1-.24.586"/></svg>