<svg xmlns="http://www.w3.org/2000/svg" width="36" height="36" fill="none"><g clip-path="url(#a)"><rect width="36" height="36" fill="#1D46EB" rx="10"/><path fill="#fff" d="M11.313 11.666h13.333q.234 0 .466.03a2.75 2.75 0 0 0-3.23-2.316l-10.965 1.873h-.013a2.75 2.75 0 0 0-1.711 1.088 3.65 3.65 0 0 1 2.12-.675m13.333 1H11.313a2.67 2.67 0 0 0-2.667 2.667v8a2.67 2.67 0 0 0 2.666 2.666h13.334a2.67 2.67 0 0 0 2.666-2.666v-8a2.67 2.67 0 0 0-2.666-2.667m-1.98 8a1.334 1.334 0 1 1 0-2.667 1.334 1.334 0 0 1 0 2.667"/><path fill="#fff" d="M8.667 18.146V14c0-.903.5-2.417 2.235-2.745 1.473-.276 2.931-.276 2.931-.276s.959.667.167.667-.77 1.02 0 1.02 0 .98 0 .98l-3.104 3.52z"/></g><defs><clipPath id="a"><path fill="#fff" d="M0 0h36v36H0z"/></clipPath></defs></svg>