<svg width="48" height="48" viewBox="0 0 48 48" fill="none" xmlns="http://www.w3.org/2000/svg">
<path d="M24.0622 4.83188H17.1725C16.6081 4.83188 16.1066 4.47094 15.9275 3.93469L15.1156 1.5H26.12L25.3081 3.93469C25.2207 4.19597 25.0534 4.42317 24.8298 4.58417C24.6062 4.74517 24.3377 4.83182 24.0622 4.83188ZM30.2159 40.8612V42.3122C30.2159 43.7184 29.0759 44.8584 27.6697 44.8584H16.4141C15.5084 44.8584 14.7734 45.5934 14.7734 46.4991H27.6697C29.9825 46.4991 31.8566 44.6241 31.8566 42.3122V41.5128L30.2159 40.8612Z" fill="#E1EAF8"/>
<path d="M27.6666 46.828H13.5619C11.0719 46.828 9.04688 44.8021 9.04688 42.313V37.0743C9.04688 36.8934 9.19406 36.7462 9.375 36.7462C9.55594 36.7462 9.70312 36.8934 9.70312 37.0743V42.313C9.70312 44.4412 11.4347 46.1718 13.5619 46.1718H27.6666C29.7947 46.1718 31.5253 44.4402 31.5253 42.313V32.5137C31.5253 32.3327 31.6725 32.1855 31.8534 32.1855C32.0344 32.1855 32.1816 32.3327 32.1816 32.5137V42.313C32.1816 44.8021 30.1566 46.828 27.6666 46.828Z" fill="#9A9A9A"/>
<path d="M31.5253 5.68687V11.8144C31.5253 11.9953 31.6725 12.1425 31.8534 12.1425C32.0344 12.1425 32.1816 11.9953 32.1816 11.8144V5.68687C32.1816 3.19687 30.1556 1.17188 27.6666 1.17188H13.5619C11.0719 1.17188 9.04688 3.19781 9.04688 5.68687V34.5225C9.04688 34.7034 9.19406 34.8506 9.375 34.8506C9.55594 34.8506 9.70312 34.7034 9.70312 34.5225V5.68687C9.70312 3.55875 11.4347 1.82812 13.5619 1.82812H27.6666C29.7947 1.82812 31.5253 3.55969 31.5253 5.68687Z" fill="#9A9A9A"/>
<path d="M21.7841 18.8393C21.7353 18.8393 21.6856 18.8281 21.6388 18.8056L19.4506 17.7209C19.3742 17.6813 19.3165 17.6133 19.2897 17.5316C19.263 17.4498 19.2694 17.3608 19.3076 17.2837C19.3458 17.2067 19.4128 17.1477 19.4941 17.1195C19.5754 17.0913 19.6645 17.0962 19.7422 17.1331L21.9294 18.2168C22.0073 18.2555 22.0667 18.3236 22.0945 18.406C22.1223 18.4885 22.1162 18.5786 22.0775 18.6565C22.0505 18.7113 22.0088 18.7575 21.9569 18.7898C21.905 18.8221 21.8452 18.8393 21.7841 18.8393ZM19.7281 27.3443C19.6072 27.3443 19.49 27.2768 19.4328 27.1606C19.3946 27.0825 19.3889 26.9924 19.4171 26.9102C19.4452 26.8279 19.5048 26.7602 19.5828 26.7218L21.7756 25.6475C21.8537 25.6092 21.9438 25.6036 22.026 25.6317C22.1083 25.6598 22.176 25.7194 22.2144 25.7975C22.2526 25.8755 22.2583 25.9656 22.2302 26.0479C22.202 26.1301 22.1424 26.1979 22.0644 26.2362L19.8725 27.3106C19.8256 27.334 19.776 27.3443 19.7281 27.3443ZM42.1813 17.3021C42.0678 17.3021 41.9572 17.2431 41.8963 17.1371C41.8748 17.0998 41.8608 17.0586 41.8553 17.0158C41.8497 16.9731 41.8526 16.9296 41.8638 16.888C41.8751 16.8464 41.8944 16.8074 41.9207 16.7733C41.947 16.7391 41.9798 16.7105 42.0172 16.689L44.1331 15.4721C44.2086 15.4296 44.2977 15.4185 44.3813 15.4414C44.4648 15.4643 44.5359 15.5193 44.579 15.5944C44.6222 15.6694 44.634 15.7585 44.6117 15.8422C44.5895 15.9259 44.5351 15.9975 44.4603 16.0412L42.3444 17.2581C42.2938 17.2881 42.2366 17.3021 42.1813 17.3021ZM35.9272 13.2868C35.8804 13.2869 35.8342 13.277 35.7916 13.2578C35.7489 13.2385 35.7109 13.2104 35.6801 13.1752C35.6493 13.14 35.6264 13.0986 35.6129 13.0539C35.5994 13.0091 35.5956 12.9619 35.6019 12.9156L35.9263 10.4959C35.9506 10.3159 36.1156 10.1893 36.2947 10.2146C36.4747 10.239 36.6003 10.404 36.576 10.5831L36.2516 13.0028C36.241 13.0813 36.2022 13.1534 36.1426 13.2056C36.083 13.2578 36.0065 13.2867 35.9272 13.2868Z" fill="#0166FF"/>
<path d="M29.8359 19.8667H33.1698" stroke="#0166FF" stroke-width="0.8" stroke-linecap="round"/>
<path d="M26.5641 19.7719C26.5641 18.4635 27.6247 17.4029 28.933 17.4029H34.0635C35.3718 17.4029 36.4324 18.4635 36.4324 19.7719V26.9983C36.4324 27.8838 35.7145 28.6017 34.829 28.6017C34.5101 28.6017 34.2043 28.475 33.9787 28.2495L32.2277 26.499C31.8248 26.0962 31.1717 26.0962 30.7687 26.499L29.0177 28.2495C28.7922 28.475 28.4863 28.6017 28.1674 28.6017C27.2819 28.6017 26.5641 27.8838 26.5641 26.9983V19.7719Z" stroke="#0166FF" stroke-width="0.8"/>
</svg>
