<svg xmlns="http://www.w3.org/2000/svg" width="48" height="48" fill="none"><path fill="#E1EAF8" d="M24.061 4.832h-6.89c-.564 0-1.065-.361-1.244-.897L15.115 1.5h11.004l-.812 2.435a1.31 1.31 0 0 1-1.246.897m6.154 36.03v1.45a2.546 2.546 0 0 1-2.546 2.546H16.413c-.905 0-1.64.735-1.64 1.641h12.896a4.187 4.187 0 0 0 4.187-4.187v-.8z"/><path fill="#9A9A9A" d="M27.67 46.828H13.564a4.52 4.52 0 0 1-4.515-4.515v-5.239a.328.328 0 0 1 .656 0v5.239a3.863 3.863 0 0 0 3.859 3.859H27.67a3.863 3.863 0 0 0 3.858-3.859v-9.8a.329.329 0 0 1 .657 0v9.8a4.52 4.52 0 0 1-4.516 4.515M31.527 5.687v6.127a.328.328 0 0 0 .657 0V5.687a4.52 4.52 0 0 0-4.515-4.515H13.564a4.52 4.52 0 0 0-4.515 4.515v28.836a.328.328 0 0 0 .656 0V5.687a3.863 3.863 0 0 1 3.859-3.859h14.105a3.863 3.863 0 0 1 3.858 3.859"/><path fill="#0166FF" d="M21.789 18.84a.34.34 0 0 1-.146-.035l-2.188-1.084a.328.328 0 0 1 .292-.588l2.187 1.084a.328.328 0 0 1-.146.622m-2.056 8.504a.33.33 0 0 1-.311-.434.33.33 0 0 1 .165-.188l2.193-1.075a.328.328 0 0 1 .289.589l-2.192 1.074a.3.3 0 0 1-.144.034m22.453-10.042a.328.328 0 0 1-.164-.613l2.116-1.217a.328.328 0 0 1 .327.569l-2.116 1.217a.3.3 0 0 1-.163.044m-6.254-4.015a.327.327 0 0 1-.326-.372l.325-2.42a.327.327 0 1 1 .65.087l-.325 2.42a.33.33 0 0 1-.324.285"/><path stroke="#0166FF" stroke-width=".7" d="M31.656 21.216s-.754.006-1.11-.009a2.9 2.9 0 0 1-1.002-.234 2.7 2.7 0 0 1-.85-.542c-.192-.184-.355-.397-.522-.605-.173-.215-.335-.44-.505-.658-.087-.113-.246-.218-.462-.141a.43.43 0 0 0-.295.393c0 .671-.016 1.342.005 2.013.013.427.123.844.275 1.247a4.9 4.9 0 0 0 2.559 2.75c.428.2.879.355 1.354.397.523.047 1.05.054 1.575.074.173.007.228.053.228.22q.001.393.001.787c-.001.442.428.891.927.892.406.001.7-.15.942-.448.134-.165.295-.308.445-.46l1.465-1.49c.34-.345.683-.686 1.016-1.036.167-.175.345-.348.385-.6.05-.315.003-.604-.234-.846a629 629 0 0 1-2.106-2.16q-.517-.534-1.03-1.07c-.232-.242-.507-.395-.857-.39a.98.98 0 0 0-.922.704c-.033.12-.028.252-.03.38-.006.21 0 .42-.003.631 0 .144-.06.201-.206.201z"/></svg>