<svg xmlns="http://www.w3.org/2000/svg" width="49" height="48" fill="none"><path fill="#E1EAF8" d="M24.562 4.832h-6.89c-.564 0-1.065-.361-1.245-.897L15.616 1.5H26.62l-.812 2.435a1.31 1.31 0 0 1-1.246.897m6.154 36.03v1.45a2.546 2.546 0 0 1-2.546 2.546H16.914c-.906 0-1.64.735-1.64 1.641H28.17a4.187 4.187 0 0 0 4.187-4.187v-.8z"/><path fill="#9A9A9A" d="M28.167 46.828H14.062a4.52 4.52 0 0 1-4.515-4.515v-5.239a.328.328 0 0 1 .656 0v5.239a3.863 3.863 0 0 0 3.859 3.859h14.105a3.863 3.863 0 0 0 3.858-3.859v-9.8a.329.329 0 0 1 .657 0v9.8a4.52 4.52 0 0 1-4.515 4.515M32.025 5.687v6.127a.328.328 0 0 0 .657 0V5.687a4.52 4.52 0 0 0-4.515-4.515H14.062a4.52 4.52 0 0 0-4.515 4.515v28.836a.328.328 0 0 0 .656 0V5.687a3.863 3.863 0 0 1 3.859-3.859h14.105a3.863 3.863 0 0 1 3.858 3.859"/><path fill="#0166FF" d="M22.284 18.84a.34.34 0 0 1-.145-.035l-2.188-1.084a.328.328 0 0 1 .291-.588l2.187 1.084a.328.328 0 0 1-.145.622m-2.056 8.504a.33.33 0 0 1-.31-.434.33.33 0 0 1 .165-.188l2.193-1.075a.328.328 0 0 1 .288.589l-2.192 1.074a.3.3 0 0 1-.144.034m22.453-10.042a.328.328 0 0 1-.164-.613l2.116-1.217a.328.328 0 0 1 .327.569l-2.116 1.217a.3.3 0 0 1-.163.044m-6.254-4.015a.327.327 0 0 1-.325-.372l.324-2.42a.328.328 0 1 1 .65.087l-.324 2.42a.33.33 0 0 1-.325.285"/><path fill="#9A9A9A" d="M31.97 29.94a7.4 7.4 0 0 0 3.408-.819l.47.47c.177.177.409.265.642.265a.9.9 0 0 0 .642-.266l1.757-1.757 3.792 3.792a1.102 1.102 0 0 1-.778 1.877c-.293 0-.57-.114-.777-.322l-3.113-3.112a.249.249 0 1 0-.352.353l3.112 3.111c.302.302.703.468 1.13.468s.828-.166 1.13-.468a1.6 1.6 0 0 0 0-2.26l-3.807-3.807a.91.91 0 0 0-.122-1.132l-.473-.474a7.44 7.44 0 0 0 .81-3.389 7.42 7.42 0 0 0-2.189-5.282A7.42 7.42 0 0 0 31.97 15a7.42 7.42 0 0 0-5.282 2.188A7.42 7.42 0 0 0 24.5 22.47a7.42 7.42 0 0 0 2.188 5.282 7.43 7.43 0 0 0 5.283 2.188m6.782-3.255a.41.41 0 0 1 0 .58l-1.973 1.972a.41.41 0 0 1-.58 0l-.369-.37c.512-.31.99-.682 1.422-1.116a7.5 7.5 0 0 0 1.127-1.439zm-11.71-9.144a6.93 6.93 0 0 1 4.929-2.043c1.862 0 3.613.725 4.93 2.043a6.93 6.93 0 0 1 2.042 4.929A6.92 6.92 0 0 1 36.9 27.4a6.93 6.93 0 0 1-4.93 2.042 6.92 6.92 0 0 1-4.93-2.043A6.93 6.93 0 0 1 25 22.47c0-1.862.726-3.612 2.042-4.93"/><path fill="#E1EAF8" d="M35.889 18.611a5.5 5.5 0 1 0-7.778 7.777 5.5 5.5 0 0 0 7.778-7.777m-.431.761a.234.234 0 0 1-.33 0 4.43 4.43 0 0 0-2.682-1.273.234.234 0 1 1 .047-.465 4.9 4.9 0 0 1 2.965 1.408.23.23 0 0 1 0 .33m.832 1.297a.233.233 0 0 1-.313-.108 4 4 0 0 0-.233-.418.234.234 0 0 1 .395-.25q.142.225.258.463a.234.234 0 0 1-.107.313"/></svg>