<svg width="81" height="80" viewBox="0 0 81 80" fill="none" xmlns="http://www.w3.org/2000/svg">
<path d="M22.6992 51.0983C26.8757 58.3061 32.0445 63.9811 38.5054 67.6561C39.147 68.0206 39.8771 68.1998 40.6145 68.1739C41.3519 68.1479 42.0676 67.9178 42.682 67.5092L47.2351 64.4811C47.7742 64.1233 47.7054 63.3108 47.1148 63.0467C45.5586 62.353 43.8258 62.1561 42.1539 62.4827L42.1101 62.492C40.5961 62.7874 39.0273 62.4577 37.757 61.5827C34.5445 59.3702 31.2461 56.5358 27.8898 53.2998C26.5914 52.0483 25.0867 51.028 23.4461 50.2764C22.9289 50.0389 22.4148 50.6077 22.6992 51.0983Z" fill="#E1EAF8"/>
<path d="M38.4836 71.9787C38.6117 72.0365 38.7414 72.0928 38.8711 72.149L40.2805 72.7584C40.3492 72.7881 40.4242 72.8037 40.4977 72.8037C40.5711 72.8037 40.6461 72.7881 40.7148 72.7584L42.1242 72.149C42.2539 72.0928 42.3836 72.0365 42.5117 71.9787C42.5773 71.9495 42.6366 71.9077 42.686 71.8556C42.7354 71.8035 42.7741 71.7422 42.7998 71.6751C42.8255 71.6081 42.8377 71.5366 42.8357 71.4648C42.8337 71.3931 42.8176 71.3224 42.7883 71.2568C42.7591 71.1912 42.7173 71.132 42.6652 71.0826C42.6131 71.0331 42.5518 70.9945 42.4847 70.9688C42.4177 70.9431 42.3462 70.9309 42.2744 70.9329C42.2026 70.9348 42.132 70.9509 42.0664 70.9803C41.9414 71.0365 41.8148 71.0912 41.6898 71.1459L40.4977 71.6615L39.3055 71.1459C39.1789 71.0912 39.0539 71.0365 38.9273 70.9803C38.6523 70.8568 38.3289 70.9818 38.2055 71.2568C38.082 71.5318 38.207 71.8553 38.4836 71.9787ZM48.4133 67.3412C47.4197 68.0519 46.3914 68.7126 45.332 69.3209C45.2697 69.3566 45.2149 69.4042 45.171 69.4611C45.127 69.518 45.0946 69.5829 45.0758 69.6523C45.0569 69.7216 45.0519 69.794 45.061 69.8653C45.0701 69.9366 45.0932 70.0054 45.1289 70.0678C45.1646 70.1301 45.2122 70.1849 45.2691 70.2289C45.326 70.2728 45.3909 70.3052 45.4603 70.324C45.5296 70.3429 45.602 70.3479 45.6733 70.3388C45.7446 70.3297 45.8134 70.3066 45.8758 70.2709C46.9633 69.6475 48.032 68.9615 49.0508 68.2318C49.1685 68.1473 49.2479 68.0197 49.2716 67.8767C49.2953 67.7338 49.2614 67.5873 49.1773 67.4693C49.0929 67.3511 48.9651 67.2712 48.8218 67.2472C48.6786 67.2232 48.5316 67.257 48.4133 67.3412ZM62.893 47.2178C63.0338 47.2519 63.1825 47.229 63.3065 47.1541C63.4306 47.0792 63.5201 46.9583 63.5555 46.8178C63.8555 45.6021 64.0961 44.3568 64.2711 43.1178C64.2912 42.974 64.2534 42.8282 64.1661 42.7122C64.0789 42.5962 63.9492 42.5195 63.8055 42.499C63.7343 42.4889 63.6617 42.4929 63.5921 42.5108C63.5224 42.5287 63.457 42.5602 63.3995 42.6035C63.342 42.6467 63.2936 42.7009 63.2571 42.7629C63.2206 42.8248 63.1967 42.8934 63.1867 42.9646C63.0164 44.1678 62.782 45.3771 62.4914 46.5568C62.4211 46.849 62.6008 47.1459 62.893 47.2178ZM64.093 17.5725C64.3945 17.5725 64.6398 17.3271 64.6398 17.0256V15.0725C64.6398 14.9271 64.582 14.7881 64.4789 14.685C64.3758 14.5818 64.2367 14.5256 64.093 14.5256H62.5961C62.4461 14.5256 62.2961 14.524 62.1461 14.5225H62.1398C61.8414 14.5225 61.5961 14.7631 61.593 15.0631C61.5921 15.1349 61.6054 15.2062 61.6321 15.2729C61.6588 15.3396 61.6984 15.4003 61.7486 15.4517C61.7988 15.5031 61.8587 15.5441 61.9247 15.5723C61.9908 15.6005 62.0618 15.6154 62.1336 15.6162C62.2883 15.6178 62.4414 15.6193 62.5961 15.6193H63.5461V17.0256C63.5461 17.3271 63.7898 17.5725 64.093 17.5725ZM57.907 15.31C58.1773 15.31 58.4117 15.11 58.4477 14.835C58.4573 14.7637 58.4528 14.6913 58.4344 14.6218C58.4159 14.5523 58.3839 14.4872 58.3402 14.4301C58.2965 14.373 58.2419 14.3252 58.1797 14.2893C58.1174 14.2534 58.0486 14.2301 57.9773 14.2209C56.607 14.0381 55.2273 13.7693 53.8758 13.4225C53.5836 13.3475 53.2852 13.524 53.2102 13.8162C53.1352 14.1084 53.3117 14.4068 53.6039 14.4818C54.9977 14.8396 56.4211 15.1162 57.8336 15.3053C57.8586 15.3084 57.882 15.31 57.907 15.31ZM49.6961 13.2084C49.9164 13.2084 50.1242 13.074 50.207 12.8568C50.3148 12.574 50.1742 12.2584 49.8914 12.1506C48.6117 11.6615 47.3242 11.0896 46.0648 10.4506C46.0007 10.418 45.9308 10.3983 45.8591 10.3928C45.7874 10.3872 45.7153 10.3959 45.647 10.4182C45.5786 10.4406 45.5153 10.4762 45.4607 10.523C45.4062 10.5699 45.3614 10.627 45.3289 10.6912C45.2963 10.7553 45.2767 10.8252 45.2711 10.8969C45.2656 10.9686 45.2742 11.0407 45.2966 11.1091C45.3189 11.1775 45.3545 11.2407 45.4014 11.2953C45.4482 11.3499 45.5054 11.3947 45.5695 11.4271C46.8633 12.085 48.1852 12.6725 49.5008 13.174C49.5648 13.1975 49.6305 13.2084 49.6961 13.2084ZM38.8695 9.38027C38.9695 9.38027 39.0711 9.35215 39.1617 9.2959C39.6055 9.01465 40.0539 8.71934 40.4977 8.41777C40.9398 8.71934 41.3883 9.01309 41.8336 9.2959C42.0883 9.45684 42.4273 9.38184 42.5883 9.12715C42.7508 8.87246 42.6742 8.5334 42.4195 8.37246C41.882 8.03184 41.3414 7.67402 40.8086 7.30527C40.6211 7.17559 40.3742 7.17559 40.1867 7.30527C39.6555 7.67246 39.1133 8.03184 38.5758 8.37246C38.5151 8.4109 38.4626 8.46092 38.4213 8.51966C38.3799 8.57841 38.3506 8.64472 38.3349 8.71482C38.3193 8.78491 38.3176 8.85741 38.3299 8.92816C38.3423 8.99891 38.3685 9.06653 38.407 9.12715C38.5117 9.28965 38.6883 9.38027 38.8695 9.38027ZM27.7852 13.8146C27.7102 13.5225 27.4117 13.3459 27.1195 13.4209C25.768 13.7678 24.3867 14.0365 23.0164 14.2193C22.9452 14.2288 22.8766 14.2521 22.8144 14.2881C22.7522 14.3241 22.6977 14.3719 22.6541 14.429C22.6104 14.486 22.5784 14.551 22.5599 14.6204C22.5413 14.6898 22.5367 14.7622 22.5461 14.8334C22.5555 14.9046 22.5789 14.9732 22.6149 15.0354C22.6508 15.0976 22.6987 15.1521 22.7557 15.1957C22.8127 15.2394 22.8778 15.2714 22.9472 15.2899C23.0166 15.3085 23.089 15.3132 23.1602 15.3037C24.5742 15.1146 25.9961 14.8381 27.3898 14.4803C27.4596 14.4627 27.5252 14.4315 27.5829 14.3885C27.6406 14.3455 27.6892 14.2915 27.7259 14.2297C27.7627 14.1678 27.7868 14.0993 27.797 14.0281C27.8072 13.9568 27.8031 13.8843 27.7852 13.8146ZM35.668 10.6881C35.6023 10.5586 35.4878 10.4605 35.3498 10.4154C35.2118 10.3703 35.0615 10.3818 34.932 10.4475C33.6711 11.0881 32.3836 11.66 31.1039 12.149C31.0367 12.1746 30.9753 12.2132 30.9231 12.2625C30.8708 12.3119 30.8289 12.371 30.7995 12.4367C30.7702 12.5023 30.7541 12.573 30.7522 12.6448C30.7503 12.7167 30.7625 12.7882 30.7883 12.8553C30.8402 12.9907 30.9437 13.1 31.0761 13.1592C31.2085 13.2184 31.359 13.2226 31.4945 13.1709C32.8102 12.6693 34.132 12.0803 35.4273 11.4225C35.4916 11.3903 35.5488 11.3457 35.5957 11.2913C35.6426 11.2369 35.6783 11.1737 35.7007 11.1054C35.7231 11.0371 35.7317 10.9651 35.7261 10.8935C35.7205 10.8218 35.7007 10.752 35.668 10.6881ZM18.8617 15.6162C19.1633 15.6131 19.4055 15.3646 19.4023 15.0631C19.3992 14.7615 19.1461 14.5209 18.8492 14.5225C18.2117 14.5303 17.5633 14.5209 16.9258 14.4943C16.7758 14.4881 16.632 14.5428 16.5242 14.6459C16.4164 14.749 16.3555 14.8912 16.3555 15.0412V16.9943C16.3555 17.2959 16.6008 17.5412 16.9023 17.5412C17.2039 17.5412 17.4492 17.2959 17.4492 16.9943V15.6068C17.9211 15.6193 18.3945 15.6225 18.8617 15.6162ZM31.9398 68.2271C32.962 68.96 34.0207 69.6405 35.1117 70.2662C35.1977 70.3147 35.2914 70.3381 35.3836 70.3381C35.5042 70.338 35.6213 70.2981 35.7169 70.2246C35.8125 70.1511 35.8811 70.0481 35.9121 69.9316C35.9431 69.8151 35.9347 69.6916 35.8883 69.5803C35.8419 69.469 35.7601 69.3762 35.6555 69.3162C34.5968 68.709 33.5695 68.0488 32.5773 67.3381C32.5191 67.296 32.453 67.266 32.3831 67.2496C32.3131 67.2332 32.2406 67.2308 32.1697 67.2426C32.0988 67.2543 32.031 67.28 31.9701 67.3181C31.9092 67.3562 31.8564 67.406 31.8148 67.4646C31.7729 67.5229 31.7428 67.5888 31.7264 67.6587C31.7099 67.7286 31.7074 67.801 31.7191 67.8718C31.7307 67.9427 31.7562 68.0105 31.794 68.0715C31.8319 68.1325 31.8815 68.1854 31.9398 68.2271ZM21.9414 56.4725C21.6836 56.6287 21.6008 56.9646 21.757 57.224C22.407 58.2959 23.118 59.3475 23.8727 60.3475C23.9601 60.463 24.0897 60.5392 24.2332 60.5594C24.3767 60.5796 24.5223 60.5421 24.6383 60.4553C24.7539 60.3679 24.8302 60.2382 24.8504 60.0947C24.8706 59.9512 24.8331 59.8056 24.7461 59.6896C24.0108 58.7141 23.3256 57.7019 22.693 56.6568C22.5367 56.399 22.2008 56.3162 21.9414 56.4725ZM19.968 53.9021C19.9985 53.9674 20.0416 54.026 20.0948 54.0745C20.1481 54.1231 20.2104 54.1606 20.2782 54.185C20.346 54.2093 20.4179 54.2201 20.4899 54.2165C20.5618 54.213 20.6324 54.1953 20.6974 54.1644C20.7625 54.1335 20.8209 54.09 20.8691 54.0365C20.9173 53.983 20.9545 53.9205 20.9785 53.8525C21.0024 53.7846 21.0128 53.7126 21.0088 53.6407C21.0049 53.5687 20.9867 53.4983 20.9555 53.4334C20.4336 52.3334 19.9602 51.1959 19.5523 50.049C19.5282 49.9814 19.491 49.9192 19.4429 49.866C19.3947 49.8127 19.3366 49.7695 19.2717 49.7387C19.2069 49.708 19.1366 49.6903 19.0649 49.6867C18.9932 49.6831 18.9215 49.6937 18.8539 49.7178C18.7863 49.7419 18.7241 49.7791 18.6709 49.8272C18.6176 49.8754 18.5744 49.9335 18.5436 49.9984C18.5129 50.0632 18.4952 50.1335 18.4916 50.2052C18.488 50.2769 18.4985 50.3486 18.5227 50.4162C18.943 51.5959 19.4289 52.7693 19.968 53.9021ZM17.1867 42.4771C17.0432 42.4974 16.9136 42.5738 16.8263 42.6895C16.739 42.8052 16.7012 42.9508 16.7211 43.0943C16.8961 44.3365 17.1367 45.5834 17.4367 46.8006C17.4537 46.8705 17.4844 46.9364 17.5269 46.9945C17.5694 47.0526 17.623 47.1017 17.6846 47.139C17.7461 47.1763 17.8144 47.2011 17.8856 47.2119C17.9567 47.2227 18.0293 47.2194 18.0992 47.2021C18.1689 47.185 18.2345 47.1544 18.2923 47.1119C18.3501 47.0694 18.399 47.0159 18.4362 46.9546C18.4733 46.8932 18.498 46.8251 18.5088 46.7542C18.5196 46.6832 18.5164 46.6109 18.4992 46.5412C18.2086 45.3584 17.9742 44.149 17.8055 42.9428C17.7617 42.6428 17.4852 42.4334 17.1867 42.4771ZM28.9898 65.8787C29.0945 65.9709 29.2227 66.0162 29.3508 66.0162C29.5023 66.0162 29.6523 65.9537 29.7617 65.8318C29.8093 65.778 29.8457 65.7153 29.869 65.6474C29.8923 65.5794 29.902 65.5075 29.8975 65.4359C29.893 65.3642 29.8744 65.2941 29.8428 65.2296C29.8112 65.1651 29.7672 65.1074 29.7133 65.06C28.7984 64.2514 27.9244 63.3977 27.0945 62.5021C27.0458 62.4493 26.987 62.4066 26.9217 62.3765C26.8564 62.3464 26.7858 62.3295 26.714 62.3267C26.6421 62.324 26.5704 62.3354 26.503 62.3604C26.4356 62.3854 26.3738 62.4235 26.3211 62.4725C26.2147 62.5712 26.1518 62.708 26.1463 62.853C26.1407 62.998 26.1929 63.1393 26.2914 63.2459C27.143 64.1631 28.0508 65.049 28.9898 65.8787Z" fill="#9A9A9A"/>
<path fill-rule="evenodd" clip-rule="evenodd" d="M68.6726 17.9767C69.168 17.8486 69.6836 17.9564 70.0867 18.2689C70.4914 18.5814 70.7227 19.0533 70.7195 19.5642V38.658C70.7195 39.1689 70.4883 39.6424 70.0852 39.9549C69.793 40.1814 69.443 40.3002 69.0836 40.3002C68.9461 40.3002 68.8086 40.2814 68.6711 40.2471L68.6617 40.2439C68.4833 43.1002 68.0266 45.9179 67.3039 48.6606C67.1327 49.3102 66.9466 49.9557 66.7457 50.5965C66.4011 50.4833 66.0497 50.3854 65.6921 50.3034C65.8798 49.7063 66.0543 49.1051 66.2155 48.5C66.956 45.7216 67.4163 42.8633 67.582 39.9674L64.7773 39.2471C64.7227 39.233 64.668 39.2158 64.6148 39.1955L64.6101 39.3658C64.5992 39.6596 64.357 39.8908 64.0648 39.8908H64.043C63.898 39.8848 63.7613 39.8216 63.6629 39.715C63.5645 39.6084 63.5123 39.4671 63.518 39.3221C63.5367 38.8439 63.5461 38.358 63.5461 37.8799V20.5658C63.5462 20.2017 63.6674 19.848 63.8906 19.5603C64.1138 19.2727 64.4263 19.0674 64.7789 18.9767L68.6726 17.9767ZM53.4604 69.2822C52.5944 70.0579 51.6971 70.7978 50.7705 71.5C48.0573 73.5563 45.0936 75.2898 41.9336 76.6564C41.4796 76.852 40.9904 76.9529 40.4961 76.9529C40.0017 76.9529 39.5126 76.852 39.0586 76.6564C32.2289 73.7033 26.268 68.9924 21.818 63.033C17.3992 57.1158 14.5805 50.1205 13.668 42.8049C13.6305 42.5049 13.357 42.2908 13.057 42.3299C12.9857 42.3388 12.9169 42.3616 12.8544 42.3972C12.7919 42.4327 12.7371 42.4802 12.6929 42.5369C12.6488 42.5937 12.6163 42.6585 12.5973 42.7278C12.5783 42.7971 12.5731 42.8695 12.582 42.9408C13.518 50.4439 16.4086 57.6189 20.9414 63.6877C25.5055 69.8002 31.6195 74.6314 38.6242 77.6611C39.2195 77.9189 39.857 78.0471 40.4961 78.0471C41.1352 78.0471 41.7727 77.9189 42.368 77.6611C45.5428 76.2881 48.5245 74.5533 51.2608 72.5C52.2621 71.7486 53.2305 70.9546 54.1635 70.1201C53.9168 69.8517 53.6821 69.5722 53.4604 69.2822ZM65.0523 20.0361C64.8102 20.0986 64.6414 20.3158 64.6414 20.5658V20.7533V25.2752C65.4258 23.4892 66.9961 22.0986 68.9773 21.5892C69.207 21.5299 69.4352 21.5596 69.6289 21.6517V19.5658C69.6289 19.3955 69.5523 19.2377 69.418 19.133C69.282 19.0299 69.1101 18.9939 68.9461 19.0361L65.0523 20.0361ZM16.3819 39.194C16.3288 39.2127 16.2757 39.2314 16.2195 39.2455L12.3258 40.2455C12.0835 40.3088 11.8299 40.3153 11.5846 40.2646C11.3394 40.214 11.1091 40.1074 10.9117 39.9533C10.5086 39.6392 10.2773 39.1674 10.2773 38.6564V19.5658C10.2773 19.0549 10.5086 18.5814 10.9117 18.2689C11.2945 17.9721 11.7789 17.8627 12.2492 17.9611V12.4502C12.2492 11.8439 12.4852 11.2752 12.9133 10.8471C13.3414 10.4189 13.9102 10.1846 14.5148 10.1846H14.5523C23.0617 10.1846 31.3648 7.54394 39.2336 2.33612C39.6087 2.08699 40.0489 1.9541 40.4992 1.9541C40.9495 1.9541 41.3898 2.08699 41.7648 2.33612C49.6336 7.54394 57.9367 10.1861 66.4445 10.1861H66.4633C67.0711 10.1861 67.6445 10.4236 68.0773 10.8564C68.5101 11.2892 68.7492 11.8627 68.7492 12.4721V15.4642C68.7492 15.7658 68.5039 16.0111 68.2023 16.0111C67.9008 16.0111 67.6555 15.7658 67.6555 15.4642V12.4736C67.6555 12.317 67.6245 12.1619 67.5641 12.0173C67.5038 11.8727 67.4153 11.7416 67.3039 11.6314C67.0789 11.4064 66.7805 11.2814 66.4633 11.2814H66.4445C57.718 11.2814 49.2117 8.57831 41.1617 3.24862C40.9655 3.11867 40.7353 3.04938 40.5 3.04938C40.2646 3.04938 40.0345 3.11867 39.8383 3.24862C31.7883 8.57675 23.2805 11.2799 14.5539 11.2799C14.5491 11.2799 14.5445 11.2797 14.54 11.2795C14.5313 11.2792 14.5231 11.2788 14.5148 11.2799C14.2023 11.2799 13.9086 11.4017 13.6867 11.6221C13.4648 11.8424 13.343 12.1377 13.343 12.4502V18.2377L16.2195 18.9767C16.9461 19.1627 17.4523 19.8174 17.4523 20.5658V37.8799C17.4523 38.3486 17.4617 38.8236 17.4805 39.2924C17.493 39.5939 17.257 39.8486 16.9555 39.8596H16.9336C16.7922 39.8598 16.6562 39.8053 16.5543 39.7074C16.4523 39.6095 16.3922 39.4758 16.3867 39.3346C16.3846 39.3033 16.3839 39.2721 16.3832 39.2408C16.3829 39.2252 16.3826 39.2096 16.382 39.1939L16.3819 39.194ZM11.8065 19.0289C11.7247 19.0459 11.6479 19.0816 11.582 19.133C11.4477 19.2377 11.3695 19.3939 11.3711 19.5627V21.6486C11.5741 21.5516 11.8049 21.5295 12.0227 21.5861C14.0039 22.0955 15.5742 23.4846 16.3586 25.2721V20.5642C16.3586 20.3142 16.1898 20.0971 15.9477 20.0346L12.0539 19.0346C11.973 19.0138 11.8883 19.0118 11.8065 19.0289Z" fill="#9A9A9A"/>
<path d="M51.8137 46.3137C54.8356 43.2912 56.5 39.2737 56.5 35C56.5 30.7263 54.8356 26.7088 51.8137 23.6863C48.7912 20.6644 44.7737 19 40.5 19C36.2263 19 32.2088 20.6644 29.1863 23.6863C26.1644 26.7088 24.5 30.7263 24.5 35C24.5 36.6822 24.7597 38.3391 25.2722 39.9247C25.2819 39.9547 25.2974 39.9825 25.3178 40.0065C25.3383 40.0305 25.3632 40.0502 25.3913 40.0646C25.4194 40.0789 25.45 40.0875 25.4814 40.09C25.5129 40.0924 25.5445 40.0887 25.5744 40.0789C25.6044 40.0692 25.6322 40.0537 25.6562 40.0333C25.6802 40.0129 25.7 39.9879 25.7143 39.9598C25.7286 39.9317 25.7372 39.9011 25.7397 39.8697C25.7422 39.8383 25.7384 39.8067 25.7286 39.7767C25.2558 38.3144 25.0057 36.7891 24.9817 35.2398H25.7869C25.9191 35.2398 26.0267 35.1322 26.0267 35C26.0267 34.8678 25.9191 34.7602 25.7869 34.7602H24.9824C25.042 30.7845 26.5886 27.0507 29.3576 24.1974L29.927 24.7669C29.9736 24.8134 30.0352 24.8367 30.0962 24.8367C30.1572 24.8367 30.2189 24.8134 30.2655 24.7669C30.2878 24.7446 30.3055 24.7182 30.3176 24.6891C30.3297 24.66 30.3359 24.6288 30.3359 24.5973C30.3359 24.5657 30.3297 24.5345 30.3176 24.5054C30.3055 24.4763 30.2878 24.4499 30.2655 24.4277L29.6967 23.8589C32.5507 21.0899 36.2838 19.5434 40.2595 19.4838V20.2889C40.2595 20.4212 40.3671 20.5287 40.4993 20.5287C40.6316 20.5287 40.7391 20.4212 40.7391 20.2889V19.4824C44.7148 19.542 48.4486 21.0886 51.3019 23.8576L50.7331 24.4263C50.6996 24.4598 50.6767 24.5025 50.6674 24.5489C50.6581 24.5954 50.6628 24.6436 50.6809 24.6874C50.6991 24.7313 50.7298 24.7687 50.7692 24.795C50.8086 24.8214 50.855 24.8354 50.9024 24.8354C50.9634 24.8354 51.0251 24.8121 51.0716 24.7655L51.6411 24.1961C54.4101 27.05 55.9566 30.7831 56.0162 34.7588H55.2111C55.0788 34.7588 54.9713 34.8664 54.9713 34.9986C54.9713 35.1309 55.0788 35.2385 55.2111 35.2385H56.0162C55.9566 39.2141 54.4101 42.9479 51.6411 45.8012L51.0716 45.2318C50.9778 45.1379 50.8263 45.1379 50.7325 45.2318C50.6386 45.3257 50.6386 45.4771 50.7325 45.571L51.3012 46.1397C48.4472 48.9087 44.7141 50.4552 40.7385 50.5149V49.7097C40.7385 49.5775 40.6309 49.4699 40.4986 49.4699C40.3664 49.4699 40.2588 49.5775 40.2588 49.7097V50.5155C37.3939 50.4717 34.6125 49.6446 32.2006 48.1152C31.2999 47.5444 30.4602 46.8827 29.6947 46.1404L30.2648 45.5703C30.3587 45.4764 30.3587 45.325 30.2648 45.2311C30.1709 45.1372 30.0195 45.1372 29.9256 45.2311L29.3555 45.8012C28.2315 44.6427 27.2947 43.3162 26.579 41.8694C26.5507 41.8124 26.501 41.769 26.4408 41.7486C26.3806 41.7281 26.3147 41.7324 26.2576 41.7604C26.2006 41.7887 26.1572 41.8384 26.1369 41.8987C26.1166 41.959 26.1211 42.0248 26.1493 42.0818C27.4526 44.7172 29.4562 46.9435 31.9443 48.5202C34.5009 50.1435 37.459 51 40.5 51C44.7737 51 48.7912 49.3356 51.8137 46.3137Z" fill="#9A9A9A" stroke="#9A9A9A" stroke-width="0.5"/>
<path d="M40.5 47C47.1168 47 52.5 41.6168 52.5 35C52.5 28.3832 47.1168 23 40.5 23C33.8832 23 28.5 28.3832 28.5 35C28.5 41.6168 33.8832 47 40.5 47ZM40.5 23.4225C46.8838 23.4225 52.0775 28.6162 52.0775 35C52.0775 41.3838 46.8838 46.5775 40.5 46.5775C34.1162 46.5775 28.9225 41.3838 28.9225 35C28.9225 28.6162 34.1162 23.4225 40.5 23.4225Z" fill="#9A9A9A" stroke="#9A9A9A" stroke-width="0.5"/>
<path d="M46.5013 32.333C46.5013 31.2283 44.412 30.333 41.8346 30.333C39.2573 30.333 37.168 31.2283 37.168 32.333M46.5013 32.333V34.9997C46.5013 35.6797 45.7106 36.2797 44.5013 36.641C43.7453 36.8677 42.826 36.9997 41.8346 36.9997C40.8433 36.9997 39.924 36.867 39.168 36.641C37.9593 36.2797 37.168 35.6797 37.168 34.9997V32.333M46.5013 32.333C46.5013 33.013 45.7106 33.613 44.5013 33.9743C43.7453 34.201 42.826 34.333 41.8346 34.333C40.8433 34.333 39.924 34.2003 39.168 33.9743C37.9593 33.613 37.168 33.013 37.168 32.333" stroke="#0166FF" stroke-width="1.2" stroke-linecap="round" stroke-linejoin="round"/>
<path d="M34.5 34.9997V37.6664C34.5 38.3464 35.2913 38.9464 36.5 39.3077C37.256 39.5344 38.1753 39.6664 39.1667 39.6664C40.158 39.6664 41.0773 39.5337 41.8333 39.3077C43.042 38.9464 43.8333 38.3464 43.8333 37.6664V36.9997M34.5 34.9997C34.5 34.2017 35.59 33.513 37.1667 33.1924M34.5 34.9997C34.5 35.6797 35.2913 36.2797 36.5 36.641C37.256 36.8677 38.1753 36.9997 39.1667 36.9997C39.63 36.9997 40.0773 36.9711 40.5 36.9171" stroke="#0166FF" stroke-width="1.2" stroke-linecap="round" stroke-linejoin="round"/>
<path fill-rule="evenodd" clip-rule="evenodd" d="M63.5 72.5C66.2848 72.5 68.9555 71.3938 70.9246 69.4246C72.8938 67.4555 74 64.7848 74 62C74 59.2152 72.8938 56.5445 70.9246 54.5754C68.9555 52.6062 66.2848 51.5 63.5 51.5C60.7152 51.5 58.0445 52.6062 56.0754 54.5754C54.1062 56.5445 53 59.2152 53 62C53 64.7848 54.1062 67.4555 56.0754 69.4246C58.0445 71.3938 60.7152 72.5 63.5 72.5ZM65 58.25C65 58.6478 64.842 59.0294 64.5607 59.3107C64.2794 59.592 63.8978 59.75 63.5 59.75C63.1022 59.75 62.7206 59.592 62.4393 59.3107C62.158 59.0294 62 58.6478 62 58.25C62 57.8522 62.158 57.4706 62.4393 57.1893C62.7206 56.908 63.1022 56.75 63.5 56.75C63.8978 56.75 64.2794 56.908 64.5607 57.1893C64.842 57.4706 65 57.8522 65 58.25ZM63.5 61.625C63.7984 61.625 64.0845 61.7435 64.2955 61.9545C64.5065 62.1655 64.625 62.4516 64.625 62.75V66.5C64.625 66.7984 64.5065 67.0845 64.2955 67.2955C64.0845 67.5065 63.7984 67.625 63.5 67.625C63.2016 67.625 62.9155 67.5065 62.7045 67.2955C62.4935 67.0845 62.375 66.7984 62.375 66.5V62.75C62.375 62.4516 62.4935 62.1655 62.7045 61.9545C62.9155 61.7435 63.2016 61.625 63.5 61.625Z" fill="#0166FF"/>
</svg>
