<svg xmlns="http://www.w3.org/2000/svg" width="49" height="48" fill="none"><path fill="#0166FF" d="M35.725 8.842a1.86 1.86 0 0 1-1.858-1.858V1.688a.19.19 0 0 0-.188-.188H13.66c-.664 0-1.202.538-1.202 1.202v3.303h17.397l6.687 6.686v29.304h3.465c.664 0 1.202-.538 1.202-1.202V9.03a.19.19 0 0 0-.187-.188z"/><path fill="#0166FF" d="M41.015 8.186h-5.24c-.69 0-1.252-.56-1.252-1.252V1.695c0-.174.21-.26.333-.137l6.296 6.295a.194.194 0 0 1-.137.333"/><path fill="#E1EAF8" d="M34.606 22.257v20.338a1.97 1.97 0 0 1-1.97 1.97H15.032c-1.07 0-1.937.866-1.937 1.936H35.23c.725 0 1.313-.588 1.313-1.313V20.32a1.937 1.937 0 0 0-1.936 1.937Z"/><path fill="#9A9A9A" d="m36.773 12.459-6.686-6.687a.33.33 0 0 0-.232-.096H8.991c-.844 0-1.53.686-1.53 1.53v29.893a.328.328 0 0 0 .656 0V7.206c0-.482.392-.874.874-.874h20.535v5.156c0 .844.686 1.53 1.53 1.53h5.156v32.28a.875.875 0 0 1-.874.873H9.12a1.003 1.003 0 0 1-1.002-1.002V40.33a.328.328 0 0 0-.656 0v4.838a1.66 1.66 0 0 0 1.658 1.658h26.22c.844 0 1.53-.686 1.53-1.53V12.69a.33.33 0 0 0-.096-.231Zm-6.59-.97V6.795l5.566 5.566h-4.692a.875.875 0 0 1-.875-.874Z"/><path fill="#9A9A9A" d="M13.602 19.258h11.435a.328.328 0 1 1 0 .656H13.602a.329.329 0 0 1 0-.656m13.563 0h2.093a.328.328 0 0 1 0 .656h-2.093a.329.329 0 0 1 0-.656m-13.563 5.718h11.435a.328.328 0 1 1 0 .656H13.602a.329.329 0 0 1 0-.656m13.563 0h2.093a.328.328 0 0 1 0 .656h-2.093a.329.329 0 0 1 0-.656M13.602 31h11.435a.328.328 0 1 1 0 .656H13.602a.328.328 0 0 1 0-.656m13.563 0h2.093a.328.328 0 0 1 0 .656h-2.093a.328.328 0 0 1 0-.656"/><path fill="#0166FF" d="M2.93 29.123a.329.329 0 0 1-.15-.62l2.176-1.109a.329.329 0 0 1 .298.585l-2.175 1.108a.34.34 0 0 1-.15.036Zm2.227-8.54a.3.3 0 0 1-.14-.033L2.813 19.5a.328.328 0 1 1 .282-.593l2.204 1.05a.329.329 0 0 1-.142.625Zm40.91 8.54a.3.3 0 0 1-.147-.036l-2.175-1.108a.329.329 0 0 1 .298-.585l2.175 1.108a.328.328 0 0 1-.15.62Zm-2.227-8.54a.328.328 0 0 1-.14-.626l2.204-1.05a.33.33 0 0 1 .282.593l-2.204 1.05a.34.34 0 0 1-.142.032Z"/></svg>