<svg xmlns="http://www.w3.org/2000/svg" width="81" height="80" fill="none"><path fill="#E1EAF8" d="M40.602 8.053H29.12c-.941 0-1.777-.601-2.076-1.495L25.691 2.5h18.341l-1.353 4.058a2.19 2.19 0 0 1-2.077 1.495m10.257 60.05v2.417c0 2.344-1.9 4.244-4.244 4.244h-18.76a2.735 2.735 0 0 0-2.734 2.734h21.494a6.98 6.98 0 0 0 6.978-6.978v-1.332z"/><path fill="#9A9A9A" d="M46.613 78.046H23.105c-4.15 0-7.525-3.376-7.525-7.525V61.79a.547.547 0 0 1 1.094 0v8.731a6.44 6.44 0 0 0 6.431 6.432h23.508a6.44 6.44 0 0 0 6.431-6.432V69.19a.548.548 0 0 1 1.094 0v1.332c0 4.149-3.375 7.525-7.525 7.525M53.044 9.478v23.546a.548.548 0 0 0 1.094 0V9.478c0-4.15-3.377-7.525-7.525-7.525H23.105c-4.15 0-7.525 3.377-7.525 7.525v48.06a.547.547 0 0 0 1.094 0V9.478a6.44 6.44 0 0 1 6.431-6.431h23.508a6.44 6.44 0 0 1 6.431 6.431"/><path fill="#0166FF" d="M36.813 44.731a.6.6 0 0 1-.242-.056l-3.647-1.808a.547.547 0 0 1 .486-.98l3.646 1.807a.547.547 0 0 1-.243 1.037m-3.426 14.175a.55.55 0 0 1-.519-.723.55.55 0 0 1 .277-.314l3.654-1.79a.547.547 0 0 1 .482.98l-3.654 1.791a.54.54 0 0 1-.24.056M70.809 42.17a.547.547 0 0 1-.274-1.021l3.527-2.029a.548.548 0 0 1 .545.949l-3.526 2.028a.54.54 0 0 1-.272.073m-10.424-6.692a.546.546 0 0 1-.542-.618l.54-4.033a.546.546 0 1 1 1.083.145l-.54 4.033a.55.55 0 0 1-.54.473"/><path fill="#E1EAF8" d="M48.473 13H21.527c-1.119 0-2.027.968-2.027 2.162v17.677c0 1.193.908 2.161 2.027 2.161h26.945c1.12 0 2.028-.968 2.028-2.161V15.162c0-1.194-.908-2.162-2.027-2.162"/><path fill="#0166FF" d="M39.775 22.59c0 .541-.459.98-1.024.98s-1.023-.439-1.023-.98c0-.542.458-.981 1.023-.981s1.024.439 1.024.98"/><path fill="#0166FF" fill-rule="evenodd" d="M39.426 19.257c-.777-.1-1.77-.1-3.024-.1h-2.806c-1.253 0-2.246 0-3.023.1-.8.103-1.447.32-1.958.81-.51.489-.737 1.11-.844 1.876-.105.745-.105 1.697-.105 2.898v.074c0 1.202 0 2.154.104 2.899.108.766.335 1.387.845 1.876.51.49 1.158.706 1.958.81.777.1 1.77.1 3.023.1h2.806c1.254 0 2.247 0 3.024-.1.8-.104 1.447-.32 1.958-.81s.737-1.11.844-1.876c.105-.745.105-1.697.105-2.899v-.074c0-1.201 0-2.153-.105-2.898-.107-.767-.334-1.387-.844-1.876-.51-.49-1.158-.707-1.958-.81m-8.717.972c-.686.088-1.082.254-1.37.531-.29.277-.462.656-.554 1.314-.074.527-.091 1.187-.095 2.05l.346-.29a2.15 2.15 0 0 1 2.84.09l2.927 2.806a.88.88 0 0 0 1.094.09l.203-.137a2.644 2.644 0 0 1 3.182.184l1.766 1.523c.072-.194.127-.425.166-.707.094-.672.095-1.558.095-2.805s0-2.132-.095-2.804c-.092-.658-.265-1.037-.554-1.314s-.684-.443-1.37-.53c-.701-.091-1.626-.092-2.926-.092h-2.729c-1.3 0-2.225 0-2.926.091" clip-rule="evenodd"/><path fill="#0166FF" d="M38.73 17.114c-.631-.08-1.434-.08-2.435-.08H34.03c-1 0-1.803 0-2.434.08-.652.084-1.197.263-1.629.675-.249.238-.416.512-.53.82.37-.168.787-.268 1.256-.329.796-.103 1.812-.103 3.095-.103h2.87c1.283 0 2.3 0 3.095.104.41.053.78.135 1.114.268a2.1 2.1 0 0 0-.508-.76c-.431-.412-.976-.591-1.629-.675"/><rect width="22" height="22" x="42.5" y="40" fill="#0166FF" rx="11"/><path stroke="#fff" stroke-linecap="round" stroke-linejoin="round" stroke-width="1.4" d="m49.5 50.813 2.813 2.812L57.937 48"/></svg>