<svg xmlns="http://www.w3.org/2000/svg" width="30" height="30" fill="none"><rect width="29.167" height="29.167" x=".417" y=".417" fill="#FAFBFF" rx="14.583"/><rect width="29.167" height="29.167" x=".417" y=".417" stroke="#E1EAF8" stroke-linecap="round" stroke-width=".833" rx="14.583"/><rect width="29.167" height="29.167" x=".417" y=".417" fill="#fff" stroke="#E1EAF8" stroke-linecap="round" stroke-width=".833" rx="7.917"/><g clip-path="url(#a)"><path stroke="#494949" stroke-linecap="round" stroke-linejoin="round" d="M22.5 11.667c0-1.381-2.612-2.5-5.833-2.5s-5.834 1.119-5.834 2.5m11.667 0V15c0 .85-.988 1.6-2.5 2.052-.945.283-2.094.448-3.333.448s-2.389-.166-3.334-.448c-1.51-.452-2.5-1.202-2.5-2.052v-3.333m11.667 0c0 .85-.988 1.6-2.5 2.051-.945.284-2.094.449-3.333.449s-2.389-.166-3.334-.449c-1.51-.451-2.5-1.201-2.5-2.051M7.5 15v3.333c0 .85.99 1.6 2.5 2.052.945.283 2.094.448 3.333.448s2.389-.165 3.334-.448c1.51-.452 2.5-1.202 2.5-2.052V17.5M7.5 15c0-.997 1.363-1.858 3.333-2.26M7.5 15c0 .85.99 1.6 2.5 2.052.945.283 2.094.448 3.333.448.58 0 1.139-.036 1.667-.103"/></g><defs><clipPath id="a"><path fill="#fff" d="M5 5h20v20H5z"/></clipPath></defs></svg>