<svg xmlns="http://www.w3.org/2000/svg" width="36" height="36" fill="none"><g clip-path="url(#a)"><rect width="36" height="36" fill="#0F0137" rx="10"/><path fill="#fff" d="m18 6-1.122 7.486L18 17.246l1.122-3.76zm0 24 1.122-7.486L18 18.754l-1.122 3.76zm12-12-7.486-1.122L18.754 18l3.76 1.122zM6 18l7.486 1.122L17.246 18l-3.76-1.122zm20.434-8.537-6.06 4.538-1.844 3.463 3.44-1.886zM9.566 26.537l6.06-4.538 1.844-3.463-3.44 1.886zm16.97-.103L22 20.374l-3.463-1.844 1.886 3.44zM9.464 9.566 14 15.626l3.463 1.844-1.886-3.44z"/></g><defs><clipPath id="a"><path fill="#fff" d="M0 0h36v36H0z"/></clipPath></defs></svg>