<svg xmlns="http://www.w3.org/2000/svg" width="24" height="24" fill="none"><path fill="#0166FF" fill-rule="evenodd" d="M11.953 3.4c-1.847 0-3.294 0-4.424.152-1.155.156-2.067.48-2.783 1.196S3.706 6.376 3.55 7.53c-.152 1.13-.152 2.577-.152 4.424v.091c0 1.847 0 3.294.152 4.423.156 1.156.48 2.068 1.196 2.784s1.628 1.04 2.783 1.196c1.13.151 2.577.151 4.424.151h.091c1.847 0 3.294 0 4.424-.151 1.155-.156 2.067-.48 2.783-1.196s1.04-1.628 1.196-2.784c.152-1.129.151-2.576.151-4.423v-.091c0-1.847 0-3.294-.151-4.424-.156-1.155-.48-2.067-1.196-2.783s-1.628-1.04-2.783-1.196C15.338 3.4 13.89 3.4 12.044 3.4zM5.594 5.596c.456-.455 1.073-.717 2.095-.855 1.04-.14 2.407-.14 4.31-.14s3.269 0 4.309.14c1.022.138 1.639.4 2.095.855.455.456.717 1.073.854 2.095.14 1.04.141 2.407.141 4.31s0 3.269-.14 4.309c-.138 1.022-.4 1.639-.855 2.095-.456.455-1.073.717-2.095.854-1.04.14-2.407.141-4.31.141s-3.269 0-4.309-.14c-1.022-.138-1.639-.4-2.095-.855-.455-.456-.717-1.073-.854-2.096-.14-1.04-.142-2.406-.142-4.309 0-1.902.002-3.269.142-4.309.137-1.022.399-1.64.854-2.095" clip-rule="evenodd"/><path stroke="#0166FF" stroke-linecap="round" stroke-linejoin="round" stroke-width="1.2" d="m9.031 9.469 6.302.035M9 14.495l3.77.027"/></svg>