<svg xmlns="http://www.w3.org/2000/svg" width="80" height="80" fill="none"><path fill="#E1EAF8" d="M17.23 21.792v42.39a5.653 5.653 0 0 0 5.653 5.654h28.776c1.766 0 3.404.923 4.318 2.436H16.752c-.938 0-1.699-.76-1.699-1.699V17.641l.142.106a5.04 5.04 0 0 1 2.035 4.045"/><path fill="#9A9A9A" d="M47.052 5.052h12.96a2.737 2.737 0 0 1 2.735 2.735v30.166a.547.547 0 1 1-1.094 0V7.787c0-.905-.736-1.64-1.64-1.64H13.986c-.905 0-1.64.735-1.64 1.64v8.603a.547.547 0 0 1-1.094 0V7.787a2.737 2.737 0 0 1 2.734-2.735h33.066"/><path fill="#9A9A9A" d="M15.436 8.277h29.35a.546.546 0 0 1 0 1.093H15.569v62.357h42.86v-4.042a.547.547 0 1 1 1.093 0v4.177c0 .53-.431.96-.961.96H15.436a.96.96 0 0 1-.961-.96V9.238c0-.53.431-.96.96-.96M58.56 8.276c.53 0 .962.431.962.96v28.766a.547.547 0 0 1-1.094 0V9.37h-8.345a.547.547 0 0 1 0-1.094z"/><path fill="#9A9A9A" d="M60.013 74.952c.904 0 1.64-.736 1.64-1.64v-5.627a.547.547 0 1 1 1.094 0v5.627a2.737 2.737 0 0 1-2.734 2.734H13.984a2.737 2.737 0 0 1-2.734-2.734V20.6a.547.547 0 0 1 1.094 0v52.71c0 .905.736 1.641 1.64 1.641z"/><path fill="#9A9A9A" d="M44.18 40.678H21.188a.547.547 0 0 0 0 1.094h22.99a.547.547 0 0 0 .002-1.094m-22.992 5.594h21.007a.547.547 0 0 0 0-1.094H21.188a.547.547 0 0 0 0 1.094m23.539 7.256a.547.547 0 0 0-.547-.547H21.188a.547.547 0 0 0 0 1.094h22.99a.55.55 0 0 0 .549-.547m-23.54 3.951a.547.547 0 0 0 0 1.094h21.008a.547.547 0 0 0 0-1.094z"/><circle cx="61.5" cy="53" r="11" fill="#0166FF"/><path stroke="#fff" stroke-linecap="round" stroke-linejoin="round" stroke-width="1.2" d="m57.5 53 3 3 6-6"/><path fill="#9A9A9A" d="M30.91 31.223a.6.6 0 1 0 .847.85zm11.33-11.297L30.91 31.223l.847.85 11.33-11.298zM44.4 26a7.4 7.4 0 0 1-7.4 7.4v1.2a8.6 8.6 0 0 0 8.6-8.6zM37 33.4a7.4 7.4 0 0 1-7.4-7.4h-1.2a8.6 8.6 0 0 0 8.6 8.6zM29.6 26a7.4 7.4 0 0 1 7.4-7.4v-1.2a8.6 8.6 0 0 0-8.6 8.6zm7.4-7.4a7.4 7.4 0 0 1 7.4 7.4h1.2a8.6 8.6 0 0 0-8.6-8.6z"/></svg>