<svg width="24" height="24" viewBox="0 0 24 24" fill="none" xmlns="http://www.w3.org/2000/svg">
<path d="M22 5.125C22 5.82812 21.4414 6.47656 20.5 7C19.3633 7.62891 17.668 8.07422 15.7227 8.20703C15.5781 8.13672 15.4336 8.07031 15.2812 8.01172C13.7422 7.36719 11.6953 7 9.5 7C9.17578 7 8.85938 7.00781 8.54297 7.02344L8.5 7C7.55859 6.47656 7 5.82812 7 5.125C7 3.39844 10.3594 2 14.5 2C18.6406 2 22 3.39844 22 5.125ZM8.27734 8.29297C8.67578 8.26563 9.08594 8.25 9.5 8.25C11.9297 8.25 14.0859 8.73047 15.457 9.47656C16.4258 10.0039 17 10.6602 17 11.375C17 11.5312 16.9727 11.6836 16.918 11.832C16.7383 12.3477 16.2539 12.8203 15.5508 13.2188C15.5469 13.2227 15.5391 13.2227 15.5352 13.2266C15.5234 13.2344 15.5117 13.2383 15.5 13.2461C14.1328 14.0039 11.9531 14.4961 9.5 14.4961C7.17188 14.4961 5.08984 14.0547 3.71094 13.3594C3.63672 13.3242 3.56641 13.2852 3.49609 13.2461C2.55859 12.7266 2 12.0781 2 11.375C2 10.0156 4.08594 8.85547 7 8.42969C7.41016 8.37109 7.83594 8.32422 8.27734 8.29297ZM18.25 11.375C18.25 10.5195 17.8359 9.81641 17.3086 9.28906C18.4141 9.11719 19.4258 8.84375 20.2852 8.48828C20.9219 8.22266 21.5156 7.89453 22 7.49219V8.875C22 9.62891 21.3555 10.3242 20.2891 10.8633C19.7188 11.1523 19.0234 11.3984 18.2422 11.5859C18.2461 11.5156 18.25 11.4492 18.25 11.3789V11.375ZM17 15.125C17 15.8281 16.4414 16.4766 15.5 17C15.4297 17.0391 15.3594 17.0742 15.2852 17.1133C13.9102 17.8086 11.8281 18.25 9.5 18.25C7.04688 18.25 4.86719 17.7578 3.5 17C2.55859 16.4766 2 15.8281 2 15.125V13.7422C2.48828 14.1445 3.07813 14.4727 3.71484 14.7383C5.25781 15.3828 7.30469 15.75 9.5 15.75C11.6953 15.75 13.7422 15.3828 15.2852 14.7383C15.5898 14.6133 15.8828 14.4688 16.1602 14.3125C16.3984 14.1797 16.6211 14.0312 16.832 13.875C16.8906 13.832 16.9453 13.7852 17 13.7422V15.125ZM18.25 15.125V12.8633C18.9922 12.6992 19.6758 12.4922 20.2852 12.2383C20.9219 11.9727 21.5156 11.6445 22 11.2422V12.625C22 13.0352 21.8047 13.4453 21.418 13.832C20.7812 14.4688 19.6602 14.9922 18.2422 15.332C18.2461 15.2656 18.25 15.1953 18.25 15.125ZM9.5 19.5C11.6953 19.5 13.7422 19.1328 15.2852 18.4883C15.9219 18.2227 16.5156 17.8945 17 17.4922V18.875C17 20.6016 13.6406 22 9.5 22C5.35938 22 2 20.6016 2 18.875V17.4922C2.48828 17.8945 3.07813 18.2227 3.71484 18.4883C5.25781 19.1328 7.30469 19.5 9.5 19.5Z" fill="#FAFBFF"/>
</svg>
