<svg xmlns="http://www.w3.org/2000/svg" width="48" height="48" fill="none"><path fill="#E1EAF8" d="M24.061 4.832h-6.89c-.564 0-1.065-.361-1.244-.897L15.115 1.5h11.004l-.812 2.435a1.31 1.31 0 0 1-1.246.897m6.154 36.03v1.45a2.546 2.546 0 0 1-2.546 2.546H16.413c-.905 0-1.64.735-1.64 1.641h12.896a4.187 4.187 0 0 0 4.187-4.187v-.8z"/><path fill="#9A9A9A" d="M27.67 46.828H13.564a4.52 4.52 0 0 1-4.515-4.515v-5.239a.328.328 0 0 1 .656 0v5.239a3.863 3.863 0 0 0 3.859 3.859H27.67a3.863 3.863 0 0 0 3.858-3.859v-9.8a.329.329 0 0 1 .657 0v9.8a4.52 4.52 0 0 1-4.516 4.515M31.527 5.687v6.127a.328.328 0 0 0 .657 0V5.687a4.52 4.52 0 0 0-4.515-4.515H13.564a4.52 4.52 0 0 0-4.515 4.515v28.836a.328.328 0 0 0 .656 0V5.687a3.863 3.863 0 0 1 3.859-3.859h14.105a3.863 3.863 0 0 1 3.858 3.859"/><path fill="#0166FF" d="M21.789 18.84a.34.34 0 0 1-.146-.035l-2.188-1.084a.328.328 0 0 1 .292-.588l2.187 1.084a.328.328 0 0 1-.146.622m-2.056 8.504a.33.33 0 0 1-.311-.434.33.33 0 0 1 .165-.188l2.193-1.075a.328.328 0 0 1 .289.589l-2.192 1.074a.3.3 0 0 1-.144.034m22.453-10.042a.328.328 0 0 1-.164-.613l2.116-1.217a.328.328 0 0 1 .327.569l-2.116 1.217a.3.3 0 0 1-.163.044m-6.254-4.015a.327.327 0 0 1-.326-.372l.325-2.42a.327.327 0 1 1 .65.087l-.325 2.42a.33.33 0 0 1-.324.285"/><path stroke="#0166FF" stroke-linecap="round" stroke-linejoin="round" stroke-width=".7" d="M26.838 24.631c0-2.752 2.852-.533 4.527-2.261s-.467-4.704 2.204-4.704m-4.656 7.466h5.186m-1.037-2.133h1.037m-.52-2.133h.52m2.073-1.066v6.399c0 .566-.218 1.108-.607 1.508-.39.4-.917.625-1.467.625h-5.186c-.55 0-1.078-.225-1.466-.625a2.16 2.16 0 0 1-.608-1.508v-1.658c0-1.824.704-3.572 1.958-4.861a6.6 6.6 0 0 1 4.726-2.014h.576c.55 0 1.078.225 1.467.625s.607.943.607 1.509"/></svg>