<svg xmlns="http://www.w3.org/2000/svg" width="81" height="80" fill="none"><path fill="#E1EAF8" d="M22.7 51.098c4.176 7.208 9.345 12.883 15.805 16.558a3.99 3.99 0 0 0 4.177-.147l4.553-3.028a.822.822 0 0 0-.12-1.434 8.3 8.3 0 0 0-4.961-.564l-.044.009a5.74 5.74 0 0 1-4.353-.91c-3.212-2.212-6.51-5.046-9.867-8.282a16 16 0 0 0-4.444-3.024c-.517-.237-1.031.332-.747.822"/><path fill="#9A9A9A" d="M38.484 71.979q.192.087.387.17l1.41.61a.55.55 0 0 0 .434 0l1.41-.61q.194-.084.387-.17a.546.546 0 1 0-.446-.999l-.376.166-1.192.516-1.192-.516-.379-.166a.547.547 0 1 0-.443.999m9.93-4.638a37 37 0 0 1-3.082 1.98.546.546 0 1 0 .544.95 38 38 0 0 0 3.175-2.04.547.547 0 0 0-.638-.89m14.479-20.123a.55.55 0 0 0 .663-.4c.3-1.216.54-2.461.715-3.7a.548.548 0 0 0-1.084-.153 36 36 0 0 1-.696 3.592.55.55 0 0 0 .402.66m1.2-29.646a.55.55 0 0 0 .547-.546v-1.953a.547.547 0 0 0-.547-.547h-1.497l-.45-.003h-.006a.547.547 0 0 0-.006 1.093q.23.003.462.003h.95v1.407c0 .301.244.547.547.547m-6.186-2.262a.546.546 0 0 0 .07-1.09 35 35 0 0 1-4.101-.798.547.547 0 0 0-.272 1.06 37 37 0 0 0 4.23.823 1 1 0 0 0 .073.005m-8.21-2.102a.547.547 0 0 0 .194-1.057 40 40 0 0 1-3.826-1.7.546.546 0 0 0-.768.658.55.55 0 0 0 .273.318 41 41 0 0 0 3.93 1.747q.097.035.196.034M38.87 9.38c.1 0 .201-.028.292-.084.444-.281.892-.577 1.336-.878.442.301.89.595 1.336.878a.548.548 0 0 0 .585-.924 48 48 0 0 1-1.61-1.067.55.55 0 0 0-.622 0c-.531.367-1.074.727-1.611 1.067a.546.546 0 0 0 .294 1.008m-11.085 4.435a.547.547 0 0 0-.666-.394 35 35 0 0 1-4.103.798.548.548 0 0 0 .144 1.085 37 37 0 0 0 4.23-.824.547.547 0 0 0 .395-.665m7.883-3.127a.55.55 0 0 0-.736-.24 40 40 0 0 1-3.828 1.701.547.547 0 1 0 .39 1.022 41 41 0 0 0 3.933-1.748.544.544 0 0 0 .241-.735m-16.806 4.928a.547.547 0 0 0-.013-1.093 36 36 0 0 1-1.923-.029.546.546 0 0 0-.57.547v1.953a.547.547 0 0 0 1.093 0v-1.387q.71.019 1.413.01M31.94 68.227a37 37 0 0 0 3.172 2.04.55.55 0 0 0 .605-.042.547.547 0 0 0-.061-.909 36 36 0 0 1-3.079-1.978.543.543 0 0 0-.762.127.547.547 0 0 0 .125.762M21.94 56.472a.55.55 0 0 0-.184.752 37 37 0 0 0 2.116 3.124.548.548 0 0 0 .873-.658 36 36 0 0 1-2.053-3.033.55.55 0 0 0-.752-.184m-1.973-2.57a.546.546 0 1 0 .988-.469 36 36 0 0 1-1.404-3.384.547.547 0 1 0-1.03.367c.421 1.18.907 2.353 1.446 3.486m-2.781-11.425a.55.55 0 0 0-.466.617c.175 1.242.416 2.49.716 3.707a.548.548 0 1 0 1.062-.26 36 36 0 0 1-.694-3.598.55.55 0 0 0-.618-.466M28.99 65.88a.544.544 0 0 0 .772-.047.545.545 0 0 0-.049-.772 37 37 0 0 1-2.619-2.558.546.546 0 1 0-.803.744c.852.917 1.76 1.803 2.699 2.633"/><path fill="#9A9A9A" fill-rule="evenodd" d="M68.673 17.977a1.63 1.63 0 0 1 1.414.292c.404.312.636.784.632 1.295v19.094c0 .51-.23.984-.634 1.297a1.63 1.63 0 0 1-1.414.292l-.01-.003a43.7 43.7 0 0 1-1.915 10.353 12 12 0 0 0-1.054-.294 42.575 42.575 0 0 0 1.89-10.336l-2.805-.72a2 2 0 0 1-.162-.051l-.005.17a.546.546 0 0 1-.545.525h-.022a.55.55 0 0 1-.525-.569c.019-.478.028-.964.028-1.442V20.566a1.64 1.64 0 0 1 1.233-1.59zM53.46 69.282a42.6 42.6 0 0 1-11.526 7.374 3.63 3.63 0 0 1-2.875 0 42.7 42.7 0 0 1-17.241-13.623 42.7 42.7 0 0 1-8.15-20.228.546.546 0 0 0-1.07-.077.6.6 0 0 0-.016.213 43.8 43.8 0 0 0 8.36 20.747A43.8 43.8 0 0 0 38.623 77.66a4.7 4.7 0 0 0 1.872.386c.64 0 1.277-.128 1.872-.386a43.7 43.7 0 0 0 11.795-7.54 12 12 0 0 1-.703-.839m11.592-49.246a.55.55 0 0 0-.41.53v4.709a6.5 6.5 0 0 1 4.335-3.686c.23-.06.458-.03.652.063v-2.086a.545.545 0 0 0-.683-.53zm-48.67 19.158q-.079.03-.163.051l-3.893 1a1.63 1.63 0 0 1-1.414-.292 1.63 1.63 0 0 1-.635-1.297v-19.09c0-.511.232-.985.635-1.297a1.63 1.63 0 0 1 1.337-.308v-5.51c0-.607.236-1.176.664-1.604a2.25 2.25 0 0 1 1.602-.662h.037c8.51 0 16.813-2.641 24.682-7.849a2.29 2.29 0 0 1 2.53 0c7.87 5.208 16.173 7.85 24.68 7.85h.02c.607 0 1.18.238 1.613.67s.672 1.007.672 1.616v2.992a.547.547 0 0 1-1.093 0v-2.99a1.18 1.18 0 0 0-.352-.843 1.18 1.18 0 0 0-.84-.35h-.02c-8.726 0-17.232-2.703-25.282-8.032a1.2 1.2 0 0 0-1.324 0c-8.05 5.328-16.557 8.03-25.284 8.03h-.039a1.17 1.17 0 0 0-1.172 1.171v5.788l2.877.739a1.64 1.64 0 0 1 1.232 1.589V37.88c0 .469.01.944.028 1.412a.546.546 0 0 1-.524.568h-.022a.546.546 0 0 1-.547-.525l-.004-.094zm-4.576-20.165a.546.546 0 0 0-.435.534v2.086a.96.96 0 0 1 .652-.063 6.5 6.5 0 0 1 4.336 3.686v-4.708a.55.55 0 0 0-.411-.53l-3.894-1a.55.55 0 0 0-.248-.005" clip-rule="evenodd"/><path fill="#9A9A9A" stroke="#9A9A9A" stroke-width=".5" d="M51.814 46.314A15.9 15.9 0 0 0 56.5 35c0-4.274-1.664-8.291-4.686-11.314A15.9 15.9 0 0 0 40.5 19a15.9 15.9 0 0 0-11.314 4.686A15.9 15.9 0 0 0 24.5 35c0 1.682.26 3.34.772 4.925a.24.24 0 0 0 .442.035.24.24 0 0 0 .015-.183 15.5 15.5 0 0 1-.747-4.537h.805a.24.24 0 0 0 0-.48h-.805a15.4 15.4 0 0 1 4.376-10.563l.569.57a.24.24 0 0 0 .338-.34l-.568-.568a15.4 15.4 0 0 1 10.563-4.375v.805a.24.24 0 0 0 .48 0v-.807c3.975.06 7.709 1.607 10.562 4.376l-.569.568a.24.24 0 0 0 .17.41.24.24 0 0 0 .169-.07l.57-.57a15.4 15.4 0 0 1 4.374 10.563h-.805a.24.24 0 0 0 0 .48h.805A15.4 15.4 0 0 1 51.641 45.8l-.57-.57a.24.24 0 1 0-.338.34l.568.569a15.4 15.4 0 0 1-10.562 4.375v-.805a.24.24 0 0 0-.48 0v.806a15.46 15.46 0 0 1-10.564-4.376l.57-.57a.24.24 0 1 0-.34-.339l-.57.57a15.5 15.5 0 0 1-2.776-3.932.24.24 0 0 0-.442.03.24.24 0 0 0 .012.183 16.04 16.04 0 0 0 5.795 6.438A15.93 15.93 0 0 0 40.5 51c4.274 0 8.291-1.664 11.314-4.686Z"/><path fill="#9A9A9A" stroke="#9A9A9A" stroke-width=".5" d="M40.5 47c6.617 0 12-5.383 12-12s-5.383-12-12-12-12 5.383-12 12 5.383 12 12 12Zm0-23.577c6.384 0 11.578 5.193 11.578 11.577S46.884 46.578 40.5 46.578 28.923 41.384 28.923 35 34.116 23.423 40.5 23.423Z"/><path stroke="#0166FF" stroke-linecap="round" stroke-linejoin="round" stroke-width="1.2" d="M46.501 32.333c0-1.105-2.089-2-4.666-2s-4.667.895-4.667 2m9.333 0V35c0 .68-.79 1.28-2 1.641-.756.227-1.675.359-2.666.359-.992 0-1.911-.133-2.667-.359-1.209-.361-2-.961-2-1.641v-2.667m9.333 0c0 .68-.79 1.28-2 1.641-.756.227-1.675.359-2.666.359-.992 0-1.911-.133-2.667-.359-1.209-.361-2-.961-2-1.641"/><path stroke="#0166FF" stroke-linecap="round" stroke-linejoin="round" stroke-width="1.2" d="M34.5 35v2.666c0 .68.791 1.28 2 1.642.756.226 1.675.358 2.667.358s1.91-.132 2.666-.358c1.209-.362 2-.962 2-1.642V37M34.5 35c0-.798 1.09-1.487 2.667-1.808M34.5 35c0 .68.791 1.28 2 1.641.756.227 1.675.359 2.667.359.463 0 .91-.029 1.333-.083"/><path fill="#0166FF" fill-rule="evenodd" d="M63.5 72.5a10.5 10.5 0 1 0 0-21 10.5 10.5 0 0 0 0 21M65 58.25a1.5 1.5 0 1 1-3 0 1.5 1.5 0 0 1 3 0m-1.5 3.375a1.125 1.125 0 0 1 1.125 1.125v3.75a1.125 1.125 0 1 1-2.25 0v-3.75a1.125 1.125 0 0 1 1.125-1.125" clip-rule="evenodd"/></svg>