<svg xmlns="http://www.w3.org/2000/svg" width="48" height="48" fill="none"><path fill="#E1EAF8" d="M21.06 4.832h-6.89c-.564 0-1.065-.361-1.245-.897L12.115 1.5h11.004l-.812 2.435a1.315 1.315 0 0 1-1.246.897m6.154 34.03v3.45a2.546 2.546 0 0 1-2.546 2.546H13.412c-.905 0-1.64.735-1.64 1.641h12.896a4.187 4.187 0 0 0 4.187-4.187v-2.8z"/><path fill="#9A9A9A" d="M24.669 46.828H10.564a4.52 4.52 0 0 1-4.515-4.515v-5.239a.328.328 0 0 1 .656 0v5.239a3.863 3.863 0 0 0 3.859 3.859h14.105a3.863 3.863 0 0 0 3.858-3.859v-2.8a.328.328 0 0 1 .656 0v2.8a4.52 4.52 0 0 1-4.514 4.515M28.527 5.687v3.127a.328.328 0 0 0 .656 0V5.687a4.52 4.52 0 0 0-4.514-4.515H10.564a4.52 4.52 0 0 0-4.515 4.515v28.836a.328.328 0 0 0 .656 0V5.687a3.863 3.863 0 0 1 3.859-3.859h14.105a3.863 3.863 0 0 1 3.858 3.859"/><path fill="#0166FF" d="M3.788 20.839a.34.34 0 0 1-.145-.034L1.455 19.72a.328.328 0 0 1 .291-.587l2.187 1.083a.328.328 0 0 1-.145.623m-2.056 8.505a.33.33 0 0 1-.311-.434.33.33 0 0 1 .166-.189l2.193-1.074a.328.328 0 0 1 .288.589L1.876 29.31a.3.3 0 0 1-.144.034m40.453-15.042a.328.328 0 0 1-.164-.614l2.116-1.216a.328.328 0 0 1 .327.569l-2.116 1.217a.3.3 0 0 1-.163.044m-6.254-4.016a.325.325 0 0 1-.314-.233.3.3 0 0 1-.011-.138l.324-2.42a.328.328 0 1 1 .65.087l-.325 2.42a.33.33 0 0 1-.324.284"/><path fill="#9A9A9A" d="M28.862 35.518c1.886 0 3.703-.443 5.334-1.282l.735.735c.278.278.641.416 1.006.416.364 0 .728-.139 1.005-.416l2.752-2.752 5.936 5.937a1.725 1.725 0 0 1 0 2.436 1.7 1.7 0 0 1-1.217.504c-.46 0-.892-.18-1.217-.504l-4.874-4.873a.39.39 0 1 0-.552.552l4.872 4.872a2.49 2.49 0 0 0 1.77.732 2.505 2.505 0 0 0 1.77-4.272l-5.961-5.96c.353-.55.29-1.292-.19-1.773l-.742-.741a11.64 11.64 0 0 0 1.268-5.307c0-3.124-1.217-6.06-3.426-8.27a11.62 11.62 0 0 0-8.27-3.426c-3.124 0-6.06 1.217-8.27 3.426a11.62 11.62 0 0 0-3.427 8.27c0 3.124 1.217 6.06 3.426 8.27a11.63 11.63 0 0 0 8.272 3.426m10.616-5.096a.64.64 0 0 1 0 .907l-3.089 3.089a.64.64 0 0 1-.906 0l-.579-.579c.8-.485 1.549-1.069 2.227-1.748a11.8 11.8 0 0 0 1.763-2.253zM21.143 16.104a10.85 10.85 0 0 1 7.719-3.197 10.84 10.84 0 0 1 7.718 3.197 10.85 10.85 0 0 1 3.197 7.718 10.84 10.84 0 0 1-3.197 7.719 10.85 10.85 0 0 1-7.718 3.197 10.84 10.84 0 0 1-7.719-3.197 10.85 10.85 0 0 1-3.197-7.719c0-2.915 1.136-5.655 3.197-7.718M10.02 8.068h11.13a.39.39 0 0 0 0-.78h-11.13a.39.39 0 0 0 0 .78m0 4.002h8.102a.39.39 0 0 0 0-.78H10.02a.39.39 0 0 0 0 .78m0 4.003h5.768a.39.39 0 0 0 0-.78h-5.768a.39.39 0 0 0 0 .78"/><path fill="#0166FF" d="M35.355 17.33a9.183 9.183 0 0 0-12.987 0 9.183 9.183 0 0 0 0 12.988 9.183 9.183 0 0 0 12.987 0c3.586-3.587 3.586-9.402 0-12.987m-.72 1.272a.39.39 0 0 1-.552-.002 7.4 7.4 0 0 0-4.477-2.125.39.39 0 1 1 .078-.776 8.2 8.2 0 0 1 4.95 2.35.39.39 0 0 1 0 .553m1.389 2.166a.39.39 0 0 1-.522-.18 7 7 0 0 0-.39-.7.391.391 0 0 1 .66-.417c.158.249.303.51.431.773a.39.39 0 0 1-.18.524"/></svg>