<svg xmlns="http://www.w3.org/2000/svg" width="48" height="48" fill="none"><path fill="#E1EAF8" d="M35.886 25.189v4.297c0 1.188-.366 2.377-1.051 3.291C32.412 36.16 28.846 38.63 24 40.366h-.091c-4.846-1.737-8.366-4.206-10.789-7.589a5.64 5.64 0 0 1-1.051-3.291V28.48C11.5 30.5 19.755 38 23.001 38c6.034 0 11.499-8.514 12.885-12.811"/><path fill="#9A9A9A" d="M9.92 36.983q-.137 0-.274-.137a15 15 0 0 1-.777-1.006c-.092-.137-.092-.366.091-.457.137-.092.366-.092.457.091.229.32.503.686.777 1.006.137.137.092.366-.045.503zm8.229 6.537c-.046 0-.092 0-.138-.046-2.742-1.417-5.028-3.063-6.948-5.074a.36.36 0 0 1 0-.503.36.36 0 0 1 .503 0c1.874 1.966 4.114 3.566 6.765 4.937.183.092.229.275.138.457-.092.183-.183.229-.32.229m22.125-33.143c-.137 0-.228-.091-.32-.183-.548-1.188-1.6-2.057-2.88-2.423-1.28-.32-2.56-.64-3.84-.868-.183-.046-.32-.229-.274-.412s.229-.32.411-.274c1.28.229 2.606.549 3.886.869 1.463.411 2.697 1.417 3.337 2.788.092.183 0 .366-.183.457-.045.046-.091.046-.137.046m-9.6-3.886h-.045c-.366-.045-.686-.091-1.052-.137-.183 0-.32-.183-.32-.365 0-.183.183-.32.366-.32.366.045.686.091 1.051.137.183.045.32.183.275.365.045.183-.138.32-.275.32m-6.72 37.303c-.365 0-.731-.045-1.097-.183-5.531-1.965-9.6-4.891-12.48-8.822-1.097-1.509-1.646-3.292-1.646-5.166V12.114A3.374 3.374 0 0 1 11.2 8.87c8.503-2.286 17.097-2.286 25.6 0a3.374 3.374 0 0 1 2.469 3.245v17.463a8.9 8.9 0 0 1-1.646 5.166c-2.88 3.977-6.949 6.857-12.526 8.868-.366.138-.731.183-1.143.183Zm0-35.931c-4.205 0-8.411.548-12.617 1.691-1.143.32-1.966 1.372-1.966 2.56v17.463a8.4 8.4 0 0 0 1.509 4.8c2.834 3.84 6.811 6.629 12.206 8.594a2.8 2.8 0 0 0 1.737 0c5.44-1.965 9.417-4.754 12.206-8.594 1.005-1.371 1.508-3.017 1.508-4.8V12.114c0-1.188-.823-2.285-1.966-2.56a47.4 47.4 0 0 0-12.617-1.691"/><path fill="#9A9A9A" d="M23.955 40.731c-.046 0-.138 0-.183-.045-4.892-1.783-8.503-4.297-10.972-7.726-.731-1.006-1.097-2.194-1.097-3.52V12.389a.65.65 0 0 1 .412-.595c3.931-1.051 7.908-1.6 11.84-1.6s7.908.549 11.84 1.6c.274.046.411.32.411.595v17.097a6.3 6.3 0 0 1-1.097 3.52c-2.469 3.428-6.08 5.943-10.972 7.725zM12.389 12.48v17.051c0 1.143.32 2.195.96 3.109 2.377 3.291 5.851 5.714 10.606 7.451 4.754-1.737 8.228-4.16 10.605-7.451a5.26 5.26 0 0 0 1.006-3.109V12.48c-3.84-1.006-7.726-1.554-11.566-1.554s-7.771.503-11.611 1.554"/><path fill="#F4F5F8" d="M30.035 31.04v7.36c0 .914.731 1.691 1.691 1.691h.594v1.555c0 .503.595.823 1.006.503l2.743-2.103h8.091c.915 0 1.692-.732 1.692-1.692V31.04c0-.914-.732-1.691-1.692-1.691H31.68c-.914 0-1.645.731-1.645 1.691"/><path fill="#9A9A9A" d="M32.915 42.606c-.137 0-.275-.046-.457-.092-.32-.183-.55-.503-.55-.868V40.41h-.228a2.03 2.03 0 0 1-2.01-2.01v-7.36a2.03 2.03 0 0 1 2.011-2.011h12.435a2.03 2.03 0 0 1 2.011 2.011v7.36a2.03 2.03 0 0 1-2.011 2.011H36.16l-2.651 2.012a1 1 0 0 1-.594.183M31.68 29.714c-.731 0-1.325.595-1.325 1.326v7.36c0 .731.594 1.326 1.325 1.326h.595a.36.36 0 0 1 .365.365v1.555c0 .183.092.228.183.274.092.046.183.091.32-.046l2.743-2.103a.35.35 0 0 1 .229-.091h8.091c.731 0 1.326-.594 1.326-1.326V31.04c0-.731-.594-1.326-1.326-1.326z"/><path stroke="#9A9A9A" stroke-linecap="round" stroke-width=".8" d="M33 33h9m-9 3.5h7"/><path fill="#F4F5F8" d="M17.966 7.269v7.36c0 .914-.732 1.691-1.692 1.691h-.594v1.554c0 .503-.594.823-1.006.503l-2.742-2.103H3.886a1.687 1.687 0 0 1-1.692-1.691V7.269c0-.915.732-1.692 1.692-1.692H16.32c.914 0 1.646.732 1.646 1.692"/><path fill="#9A9A9A" d="M15.086 18.834a.92.92 0 0 1-.594-.183L11.84 16.64H3.886a2.03 2.03 0 0 1-2.011-2.011v-7.36a2.03 2.03 0 0 1 2.01-2.012H16.32a2.03 2.03 0 0 1 2.012 2.012v7.36a2.03 2.03 0 0 1-2.012 2.011h-.228v1.234c0 .366-.229.732-.549.869-.137.091-.32.091-.457.091M3.886 5.943c-.731 0-1.326.594-1.326 1.326v7.36c0 .731.595 1.325 1.326 1.325h8.091c.092 0 .137.046.229.092l2.743 2.103c.137.091.274.045.32.045.046-.045.183-.091.183-.274v-1.554a.36.36 0 0 1 .365-.366h.595c.731 0 1.325-.594 1.325-1.326V7.27c0-.732-.594-1.326-1.325-1.326z"/><path fill="#0166FF" d="M6.263 45.623c-.228 0-.365-.137-.411-.366-.183-.777-.549-1.508-1.143-2.103a4.2 4.2 0 0 0-2.057-1.143.36.36 0 0 1-.366-.365c0-.183.137-.366.366-.412.777-.137 1.508-.548 2.103-1.143.594-.594.96-1.28 1.143-2.102.045-.229.228-.366.411-.366s.366.137.411.366c.183.777.549 1.508 1.143 2.102.595.595 1.28.96 2.103 1.143.229.046.366.229.366.412s-.137.365-.366.411a4.11 4.11 0 0 0-3.2 3.2c-.137.229-.274.366-.503.366m-2.651-3.977a4.6 4.6 0 0 1 1.6 1.051 4.6 4.6 0 0 1 1.051 1.6A4.95 4.95 0 0 1 8.915 41.6a4.6 4.6 0 0 1-1.6-1.051 4.6 4.6 0 0 1-1.052-1.6 4.6 4.6 0 0 1-1.051 1.6 4.2 4.2 0 0 1-1.6 1.097M42.606 7.269A2.46 2.46 0 0 1 40.137 4.8a2.46 2.46 0 0 1 2.469-2.469A2.46 2.46 0 0 1 45.074 4.8c0 1.371-1.142 2.469-2.468 2.469m0-4.206c-.96 0-1.783.777-1.783 1.783 0 .96.777 1.783 1.783 1.783.96 0 1.783-.778 1.783-1.783a1.785 1.785 0 0 0-1.783-1.783"/><path stroke="#9A9A9A" stroke-linecap="round" stroke-width=".8" d="M5.5 9h9m-9 3.5h7"/><path stroke="#0166FF" stroke-linecap="round" stroke-linejoin="round" stroke-miterlimit="10" d="M21.334 21.667v-2a2.666 2.666 0 1 1 5.333 0v2M24 25a.667.667 0 1 0 0-1.333A.667.667 0 0 0 24 25m0 0v2m-3.6-5.333h7.2c.587 0 1.067.48 1.067 1.066V27.4c0 .88-.72 1.6-1.6 1.6h-6.134c-.88 0-1.6-.72-1.6-1.6v-4.667c0-.586.48-1.066 1.067-1.066"/></svg>