<svg xmlns="http://www.w3.org/2000/svg" width="49" height="48" fill="none"><path fill="#9A9A9A" d="M32.707 15.412h-.282l.003-6.584a7.6 7.6 0 0 0-2.24-5.414 7.6 7.6 0 0 0-5.411-2.242h-3.115a8.93 8.93 0 0 0-4.756 1.369l-1.174.737c-.286.18-.617.275-.955.275A3.35 3.35 0 0 0 11.43 6.9v8.512h-.277c-.729 0-1.406.327-1.86.897a2.36 2.36 0 0 0-.455 2.014l.257 1.11a2.366 2.366 0 0 0 2.314 1.84h.299a13.64 13.64 0 0 0 4.373 8.669l.038.335a5.2 5.2 0 0 1-.31 2.412.63.63 0 0 1-.36.362L7.84 36.023a9.66 9.66 0 0 0-4.48 3.565 9.66 9.66 0 0 0-1.69 5.47V46.5a.328.328 0 0 0 .657 0v-1.443c0-1.827.545-3.59 1.575-5.099a9 9 0 0 1 4.177-3.322l5.57-2.177a9.4 9.4 0 0 0 3.485 3.585 9.54 9.54 0 0 0 4.794 1.282 9.53 9.53 0 0 0 4.795-1.282 9.4 9.4 0 0 0 3.484-3.585l.93.363a.328.328 0 0 0 .238-.611l-2.967-1.16a.64.64 0 0 1-.36-.362 5.16 5.16 0 0 1-.31-2.412l.038-.336a13.65 13.65 0 0 0 4.37-8.668h.302a2.364 2.364 0 0 0 2.314-1.84l.257-1.11a2.36 2.36 0 0 0-.455-2.014 2.36 2.36 0 0 0-1.858-.897ZM12.087 6.9a2.694 2.694 0 0 1 2.69-2.69c.461 0 .913-.13 1.303-.376l1.175-.737a8.3 8.3 0 0 1 4.407-1.269h3.115a6.95 6.95 0 0 1 4.948 2.05 6.95 6.95 0 0 1 2.047 4.95l-.005 6.904-.027.59-1.027-.588a.64.64 0 0 1-.323-.556v-3.484c0-1.45-1.18-2.63-2.63-2.63H16.098c-1.45 0-2.63 1.18-2.63 2.63v3.484a.64.64 0 0 1-.322.556l-1.031.59-.027-.593V6.9Zm-.677 13.717a1.71 1.71 0 0 1-1.676-1.332l-.257-1.11a1.71 1.71 0 0 1 .33-1.457c.328-.413.818-.65 1.346-.65h.292l.206 4.442.006.106zm2.857 13.6 1.171-.458q.423.631.944 1.16a1.73 1.73 0 0 0-.315 1.546 9 9 0 0 1-1.8-2.248m13.17-1.293c.082.212.218.398.391.538a7.11 7.11 0 0 1-5.9 3.106 7.11 7.11 0 0 1-5.9-3.106c.174-.14.31-.326.392-.538.29-.753.418-1.566.377-2.372a13.5 13.5 0 0 0 2.271 1.459 6.3 6.3 0 0 0 2.86.684c.982 0 1.964-.227 2.859-.684a13.5 13.5 0 0 0 2.27-1.459c-.038.806.091 1.62.38 2.372m-2.946-1.497a5.66 5.66 0 0 1-5.126-.002 12.98 12.98 0 0 1-7.06-10.945l-.157-3.418 1.323-.758c.402-.23.653-.662.653-1.125v-3.484c0-1.088.885-1.973 1.973-1.973h11.665c1.089 0 1.974.885 1.974 1.973v3.484c0 .464.25.894.652 1.125l1.32.757-.156 3.417a12.99 12.99 0 0 1-7.061 10.949m9.89-13.252-.257 1.11a1.71 1.71 0 0 1-1.675 1.332h-.25q.004-.055.006-.11l.204-4.438h.297a1.71 1.71 0 0 1 1.346.65c.328.412.448.943.33 1.456Z"/><path stroke="#E1EAF8" stroke-linecap="round" stroke-width="1.5" d="M8 43h18M8 47h14"/><circle cx="39.498" cy="40.2" r="6.6" fill="#0166FF"/><path stroke="#fff" stroke-linecap="round" stroke-linejoin="round" d="M42.165 40.333v1.5c0 1.02-1.333 1-2.666 1-1.334 0-2.667.02-2.667-1v-1.5M39.499 37v4m0-4 1.333 1.333M39.499 37l-1.334 1.333"/></svg>