<svg xmlns="http://www.w3.org/2000/svg" width="48" height="48" fill="none"><path fill="#9A9A9A" d="m43.734 18.661-1.46-1.46a.913.913 0 0 0-1.29 0l-1.18 1.18-2.572 2.571V9.496c0-.967-.787-1.754-1.753-1.754h-1.743a.307.307 0 0 0 0 .613h1.743c.629 0 1.14.511 1.14 1.14v12.069l-1.369 1.369V10.234a.464.464 0 0 0-.464-.464h-1.045a.307.307 0 0 0 0 .613h.897v13.163L21.794 36.39a1 1 0 0 0-.219.324l-1.69 3.935a.307.307 0 0 0 .402.402l3.935-1.691q.182-.08.322-.219L34.64 29.047v14.37H9.975V10.383h.875a.307.307 0 0 0 0-.613H9.826a.465.465 0 0 0-.463.464v33.33c0 .256.208.464.463.464h24.961a.465.465 0 0 0 .464-.463V28.433l1.37-1.37V44.25c0 .629-.513 1.14-1.142 1.14H9.134c-.629 0-1.14-.511-1.14-1.14V9.496c0-.63.511-1.141 1.14-1.141h1.754a.307.307 0 0 0 0-.613H9.134c-.967 0-1.753.787-1.753 1.754v34.753c0 .967.786 1.753 1.753 1.753H35.48c.967 0 1.754-.786 1.754-1.753V26.452l5.318-5.318.002-.003 1.18-1.18a.914.914 0 0 0 0-1.29m-2.262 2.685-.942-.942-.941-.941.429-.429 1.883 1.884zm-18.17 15.853a4 4 0 0 0-.882-.569l16.735-16.735.725.725zm-1.243-.062.092.043a3.3 3.3 0 0 1 1.602 1.601l.043.093-1.6.687-.825-.825zm-.948 2.205.48.48-.841.362zm3.193-.828a4 4 0 0 0-.569-.882l16.579-16.578.725.725zM43.3 19.517l-.964.963-1.294-1.294c.662.171 1.384.037 1.947-.403l.31.31a.3.3 0 0 1 0 .424"/><path fill="#9A9A9A" d="M23.813 23.13H13.187c-.103 0-.187.137-.187.303 0 .167.084.303.187.303h10.626c.103 0 .187-.136.187-.303s-.084-.302-.187-.302M24 27.566c0-.167-.084-.302-.187-.302H13.187c-.103 0-.187.135-.187.302s.084.303.187.303h10.626c.103 0 .187-.136.187-.303m-10.813 3.829c-.103 0-.187.136-.187.302 0 .167.084.303.187.303h8.11c.103 0 .187-.136.187-.303s-.084-.302-.187-.302z"/><path fill="#0166FF" fill-rule="evenodd" d="M13.299 11a9 9 0 1 1 18 0 9 9 0 0 1-18 0m4.824 5.185q.323.315.777.314h6.6q.452 0 .776-.313.323-.314.323-.754V10.1a1 1 0 0 0-.322-.754 1.08 1.08 0 0 0-.777-.313h-.55V7.966a2.53 2.53 0 0 0-.805-1.886A2.7 2.7 0 0 0 22.2 5.3q-1.141 0-1.945.78a2.53 2.53 0 0 0-.805 1.886v1.067h-.55q-.453 0-.777.313-.323.313-.323.754v5.332q0 .44.323.753m4.854-2.666a1.08 1.08 0 0 1-.777.313q-.453 0-.777-.312a1.01 1.01 0 0 1-.323-.754q0-.44.323-.753.322-.315.777-.314.453 0 .776.313.324.314.324.754t-.323.753m.873-4.486h-3.3V7.966q0-.666.481-1.133.48-.467 1.169-.467.688 0 1.168.467.482.467.482 1.133z" clip-rule="evenodd"/></svg>