<svg xmlns="http://www.w3.org/2000/svg" width="36" height="36" fill="none"><g clip-path="url(#a)"><rect width="36" height="36" fill="#B8BCCA" rx="10"/><path fill="#fff" d="M28 11.125c0 .703-.559 1.352-1.5 1.875-1.137.629-2.832 1.074-4.777 1.207a6 6 0 0 0-.442-.195C19.742 13.367 17.695 13 15.5 13c-.324 0-.64.008-.957.023L14.5 13c-.941-.523-1.5-1.172-1.5-1.875C13 9.398 16.36 8 20.5 8S28 9.398 28 11.125m-13.723 3.168q.6-.042 1.223-.043c2.43 0 4.586.48 5.957 1.227.969.527 1.543 1.183 1.543 1.898q0 .235-.082.457c-.18.516-.664.988-1.367 1.387-.004.004-.012.004-.016.008-.012.007-.023.011-.035.02-1.367.757-3.547 1.25-6 1.25-2.328 0-4.41-.442-5.79-1.138a4 4 0 0 1-.214-.113C8.56 18.726 8 18.078 8 17.375c0-1.36 2.086-2.52 5-2.945q.615-.09 1.277-.137m9.973 3.082c0-.855-.414-1.559-.941-2.086 1.105-.172 2.117-.445 2.976-.8.637-.266 1.23-.594 1.715-.997v1.383c0 .754-.645 1.45-1.71 1.988-.571.29-1.267.535-2.048.723q.007-.104.008-.207zM23 21.125c0 .703-.559 1.352-1.5 1.875-.07.04-.14.074-.215.113-1.375.696-3.457 1.137-5.785 1.137-2.453 0-4.633-.492-6-1.25-.941-.523-1.5-1.172-1.5-1.875v-1.383c.488.402 1.078.73 1.715.996 1.543.645 3.59 1.012 5.785 1.012s4.242-.367 5.785-1.012c.305-.125.598-.27.875-.425.238-.133.461-.282.672-.438.059-.043.113-.09.168-.133zm1.25 0v-2.262a12 12 0 0 0 2.035-.625c.637-.265 1.23-.593 1.715-.996v1.383c0 .41-.195.82-.582 1.207-.637.637-1.758 1.16-3.176 1.5q.007-.1.008-.207M15.5 25.5c2.195 0 4.242-.367 5.785-1.012.637-.265 1.23-.593 1.715-.996v1.383C23 26.602 19.64 28 15.5 28S8 26.602 8 24.875v-1.383c.488.402 1.078.73 1.715.996 1.543.645 3.59 1.012 5.785 1.012"/></g><defs><clipPath id="a"><path fill="#fff" d="M0 0h36v36H0z"/></clipPath></defs></svg>