<svg width="49" height="48" viewBox="0 0 49 48" fill="none" xmlns="http://www.w3.org/2000/svg">
<path d="M24.5622 4.83188H17.6725C17.1081 4.83188 16.6066 4.47094 16.4275 3.93469L15.6156 1.5H26.62L25.8081 3.93469C25.7207 4.19597 25.5534 4.42317 25.3298 4.58417C25.1062 4.74517 24.8377 4.83182 24.5622 4.83188ZM30.7159 40.8612V42.3122C30.7159 43.7184 29.5759 44.8584 28.1697 44.8584H16.9141C16.0084 44.8584 15.2734 45.5934 15.2734 46.4991H28.1697C30.4825 46.4991 32.3566 44.6241 32.3566 42.3122V41.5128L30.7159 40.8612Z" fill="#E1EAF8"/>
<path d="M28.1666 46.828H14.0619C11.5719 46.828 9.54688 44.8021 9.54688 42.313V37.0743C9.54688 36.8934 9.69406 36.7462 9.875 36.7462C10.0559 36.7462 10.2031 36.8934 10.2031 37.0743V42.313C10.2031 44.4412 11.9347 46.1718 14.0619 46.1718H28.1666C30.2947 46.1718 32.0253 44.4402 32.0253 42.313V32.5137C32.0253 32.3327 32.1725 32.1855 32.3534 32.1855C32.5344 32.1855 32.6816 32.3327 32.6816 32.5137V42.313C32.6816 44.8021 30.6566 46.828 28.1666 46.828Z" fill="#9A9A9A"/>
<path d="M32.0253 5.68687V11.8144C32.0253 11.9953 32.1725 12.1425 32.3534 12.1425C32.5344 12.1425 32.6816 11.9953 32.6816 11.8144V5.68687C32.6816 3.19687 30.6556 1.17188 28.1666 1.17188H14.0619C11.5719 1.17188 9.54688 3.19781 9.54688 5.68687V34.5225C9.54688 34.7034 9.69406 34.8506 9.875 34.8506C10.0559 34.8506 10.2031 34.7034 10.2031 34.5225V5.68687C10.2031 3.55875 11.9347 1.82812 14.0619 1.82812H28.1666C30.2947 1.82812 32.0253 3.55969 32.0253 5.68687Z" fill="#9A9A9A"/>
<path d="M22.2841 18.8393C22.2353 18.8393 22.1856 18.8281 22.1388 18.8056L19.9506 17.7209C19.8742 17.6813 19.8165 17.6133 19.7897 17.5316C19.763 17.4498 19.7694 17.3608 19.8076 17.2837C19.8458 17.2067 19.9128 17.1477 19.9941 17.1195C20.0754 17.0913 20.1645 17.0962 20.2422 17.1331L22.4294 18.2168C22.5073 18.2555 22.5667 18.3236 22.5945 18.406C22.6223 18.4885 22.6162 18.5786 22.5775 18.6565C22.5505 18.7113 22.5088 18.7575 22.4569 18.7898C22.405 18.8221 22.3452 18.8393 22.2841 18.8393ZM20.2281 27.3443C20.1072 27.3443 19.99 27.2768 19.9328 27.1606C19.8946 27.0825 19.8889 26.9924 19.9171 26.9102C19.9452 26.8279 20.0048 26.7602 20.0828 26.7218L22.2756 25.6475C22.3537 25.6092 22.4438 25.6036 22.526 25.6317C22.6083 25.6598 22.676 25.7194 22.7144 25.7975C22.7526 25.8755 22.7583 25.9656 22.7302 26.0479C22.702 26.1301 22.6424 26.1979 22.5644 26.2362L20.3725 27.3106C20.3256 27.334 20.276 27.3443 20.2281 27.3443ZM42.6813 17.3021C42.5678 17.3021 42.4572 17.2431 42.3963 17.1371C42.3748 17.0998 42.3608 17.0586 42.3553 17.0158C42.3497 16.9731 42.3526 16.9296 42.3638 16.888C42.3751 16.8464 42.3944 16.8074 42.4207 16.7733C42.447 16.7391 42.4798 16.7105 42.5172 16.689L44.6331 15.4721C44.7086 15.4296 44.7977 15.4185 44.8813 15.4414C44.9648 15.4643 45.0359 15.5193 45.079 15.5944C45.1222 15.6694 45.134 15.7585 45.1117 15.8422C45.0895 15.9259 45.0351 15.9975 44.9603 16.0412L42.8444 17.2581C42.7938 17.2881 42.7366 17.3021 42.6813 17.3021ZM36.4272 13.2868C36.3804 13.2869 36.3342 13.277 36.2916 13.2578C36.2489 13.2385 36.2109 13.2104 36.1801 13.1752C36.1493 13.14 36.1264 13.0986 36.1129 13.0539C36.0994 13.0091 36.0956 12.9619 36.1019 12.9156L36.4263 10.4959C36.4506 10.3159 36.6156 10.1893 36.7947 10.2146C36.9747 10.239 37.1003 10.404 37.076 10.5831L36.7516 13.0028C36.741 13.0813 36.7022 13.1534 36.6426 13.2056C36.583 13.2578 36.5065 13.2867 36.4272 13.2868Z" fill="#0166FF"/>
<path d="M30.9762 23.5904C28.8762 23.5904 26.5312 25.2984 26.5312 27.3973M30.9762 21.6893C31.4794 21.6905 31.9716 21.5425 32.3906 21.2639C32.8095 20.9853 33.1365 20.5887 33.33 20.1243C33.4748 19.7771 33.5407 19.4021 33.523 19.0263C33.5052 18.6505 33.4042 18.2834 33.2273 17.9514C33.0504 17.6194 32.8019 17.3309 32.4999 17.1066C32.1979 16.8824 31.8498 16.728 31.4808 16.6546C31.1119 16.581 30.7313 16.5902 30.3664 16.6814C30.0015 16.7726 29.6613 16.9435 29.3704 17.182C29.0794 17.4204 28.845 17.7204 28.6839 18.0603C28.5228 18.4002 28.4391 18.7716 28.4388 19.1478C28.4386 19.8212 28.7058 20.4671 29.1815 20.9437C29.6573 21.4202 30.3028 21.6884 30.9762 21.6893Z" stroke="#0166FF" stroke-width="0.875" stroke-linecap="round" stroke-linejoin="round"/>
<path d="M35.4714 24.0352L32.5547 26.9454M32.5547 24.0416L35.4714 26.9518" stroke="#0166FF" stroke-width="0.875" stroke-miterlimit="10" stroke-linecap="round"/>
</svg>
