<svg width="81" height="81" viewBox="0 0 81 81" fill="none" xmlns="http://www.w3.org/2000/svg">
<path d="M40.6023 9.01895H29.1195C28.1789 9.01895 27.343 8.41738 27.0445 7.52363L25.6914 3.46582H44.032L42.6789 7.52363C42.5332 7.9591 42.2544 8.33777 41.8817 8.6061C41.5091 8.87443 41.0615 9.01885 40.6023 9.01895ZM50.8586 69.0679V71.4861C50.8586 73.8299 48.9586 75.7299 46.6148 75.7299H27.8555C26.3461 75.7299 25.1211 76.9549 25.1211 78.4643H46.6148C50.4695 78.4643 53.593 75.3393 53.593 71.4861V70.1538L50.8586 69.0679Z" fill="#E1EAF8"/>
<path d="M46.6109 79.0121H23.1031C18.9531 79.0121 15.5781 75.6355 15.5781 71.4871V62.7559C15.5781 62.4543 15.8234 62.209 16.125 62.209C16.4266 62.209 16.6719 62.4543 16.6719 62.7559V71.4871C16.6719 75.034 19.5578 77.9184 23.1031 77.9184H46.6109C50.1578 77.9184 53.0422 75.0324 53.0422 71.4871V70.1548C53.0422 69.8533 53.2875 69.6079 53.5891 69.6079C53.8906 69.6079 54.1359 69.8533 54.1359 70.1548V71.4871C54.1359 75.6355 50.7609 79.0121 46.6109 79.0121Z" fill="#9A9A9A"/>
<path d="M53.0422 10.4439V33.9898C53.0422 34.2913 53.2875 34.5367 53.5891 34.5367C53.8906 34.5367 54.1359 34.2913 54.1359 33.9898V10.4439C54.1359 6.29395 50.7594 2.91895 46.6109 2.91895H23.1031C18.9531 2.91895 15.5781 6.29551 15.5781 10.4439V58.5033C15.5781 58.8049 15.8234 59.0502 16.125 59.0502C16.4266 59.0502 16.6719 58.8049 16.6719 58.5033V10.4439C16.6719 6.89707 19.5578 4.0127 23.1031 4.0127H46.6109C50.1578 4.0127 53.0422 6.89863 53.0422 10.4439Z" fill="#9A9A9A"/>
<path d="M36.8094 45.6972C36.7281 45.6972 36.6453 45.6785 36.5672 45.641L32.9203 43.8332C32.793 43.7672 32.6967 43.6539 32.6521 43.5176C32.6075 43.3814 32.6182 43.233 32.682 43.1046C32.7457 42.9761 32.8573 42.8778 32.9928 42.8309C33.1282 42.7839 33.2767 42.792 33.4063 42.8535L37.0516 44.6597C37.1815 44.7242 37.2805 44.8376 37.3268 44.975C37.3731 45.1124 37.3629 45.2626 37.2985 45.3925C37.2535 45.4839 37.1839 45.5609 37.0974 45.6147C37.011 45.6686 36.9112 45.6971 36.8094 45.6972ZM33.3828 59.8722C33.1813 59.8722 32.986 59.7597 32.8906 59.566C32.8269 59.4358 32.8175 59.2857 32.8644 59.1486C32.9112 59.0115 33.0106 58.8986 33.1406 58.8347L36.7953 57.0441C36.9255 56.9804 37.0756 56.971 37.2127 57.0178C37.3498 57.0647 37.4627 57.1641 37.5266 57.2941C37.5903 57.4243 37.5997 57.5744 37.5529 57.7115C37.506 57.8486 37.4066 57.9615 37.2766 58.0254L33.6235 59.816C33.5453 59.855 33.4625 59.8722 33.3828 59.8722ZM70.8047 43.1353C70.6157 43.1353 70.4313 43.0368 70.3297 42.8603C70.2939 42.798 70.2706 42.7293 70.2614 42.658C70.2521 42.5868 70.257 42.5144 70.2757 42.445C70.2944 42.3757 70.3266 42.3107 70.3705 42.2538C70.4143 42.1969 70.469 42.1492 70.5313 42.1134L74.0578 40.0853C74.1835 40.0143 74.3322 39.9959 74.4714 40.034C74.6106 40.0722 74.7291 40.1638 74.801 40.2889C74.873 40.4141 74.8925 40.5626 74.8555 40.7021C74.8184 40.8416 74.7277 40.9608 74.6031 41.0337L71.0766 43.0618C70.9922 43.1118 70.8969 43.1353 70.8047 43.1353ZM60.3813 36.4431C60.3033 36.4433 60.2262 36.4267 60.1552 36.3946C60.0842 36.3625 60.0209 36.3156 59.9695 36.257C59.9181 36.1984 59.8799 36.1294 59.8574 36.0548C59.8349 35.9801 59.8287 35.9016 59.8391 35.8243L60.3797 31.7915C60.4203 31.4915 60.6953 31.2806 60.9938 31.3228C61.2938 31.3634 61.5031 31.6384 61.4625 31.9368L60.9219 35.9696C60.9042 36.1005 60.8397 36.2206 60.7403 36.3077C60.6409 36.3947 60.5134 36.4428 60.3813 36.4431Z" fill="#FD4E4E"/>
<path d="M32.5833 26.2442C32.5833 27.8552 35.1947 29.1609 38.4167 29.1609C41.6386 29.1609 44.25 27.8552 44.25 26.2442M32.5833 26.2442C32.5833 24.6333 35.1947 23.3276 38.4167 23.3276C41.6386 23.3276 44.25 24.6333 44.25 26.2442M32.5833 26.2442V30.1331C32.5833 31.7431 35.1947 33.0498 38.4167 33.0498C41.6386 33.0498 44.25 31.7431 44.25 30.1331V26.2442M26.75 18.4665C26.75 19.5087 27.8622 20.4712 29.6667 20.9923C31.4711 21.5134 33.6956 21.5134 35.5 20.9923C37.3044 20.4712 38.4167 19.5087 38.4167 18.4665C38.4167 17.4242 37.3044 16.4617 35.5 15.9406C33.6956 15.4195 31.4711 15.4195 29.6667 15.9406C27.8622 16.4617 26.75 17.4242 26.75 18.4665ZM26.75 18.4665V28.1887C26.75 29.052 27.5006 29.5984 28.6944 30.1331M26.75 23.3276C26.75 24.1909 27.5006 24.7373 28.6944 25.272" stroke="#9A9A9A" stroke-linecap="round" stroke-linejoin="round"/>
<mask id="path-6-inside-1_60100_282928" fill="white">
<path d="M68.7822 19.1944C66.4965 19.1944 64.668 17.3658 64.668 15.0801C64.668 12.7944 66.4965 10.9658 68.7822 10.9658C71.068 10.9658 72.8965 12.7944 72.8965 15.0801C72.8965 17.3658 70.9918 19.1944 68.7822 19.1944ZM68.7822 12.1849C67.1823 12.1849 65.8108 13.4801 65.8108 15.1563C65.8108 16.7563 67.1061 18.1277 68.7822 18.1277C70.3822 18.1277 71.7537 16.8325 71.7537 15.1563C71.7537 13.4801 70.3822 12.1849 68.7822 12.1849Z"/>
</mask>
<path d="M68.7822 19.1944C66.4965 19.1944 64.668 17.3658 64.668 15.0801C64.668 12.7944 66.4965 10.9658 68.7822 10.9658C71.068 10.9658 72.8965 12.7944 72.8965 15.0801C72.8965 17.3658 70.9918 19.1944 68.7822 19.1944ZM68.7822 12.1849C67.1823 12.1849 65.8108 13.4801 65.8108 15.1563C65.8108 16.7563 67.1061 18.1277 68.7822 18.1277C70.3822 18.1277 71.7537 16.8325 71.7537 15.1563C71.7537 13.4801 70.3822 12.1849 68.7822 12.1849Z" fill="#9A9A9A"/>
<path d="M68.7822 14.3182C69.1896 14.3182 69.5442 14.6728 69.5442 15.0801H59.7918C59.7918 20.0589 63.8035 24.0706 68.7822 24.0706V14.3182ZM69.5442 15.0801C69.5442 15.4874 69.1896 15.842 68.7822 15.842V6.08963C63.8035 6.08963 59.7918 10.1014 59.7918 15.0801H69.5442ZM68.7822 15.842C68.3749 15.842 68.0203 15.4874 68.0203 15.0801H77.7727C77.7727 10.1013 73.761 6.08963 68.7822 6.08963V15.842ZM68.0203 15.0801C68.0203 14.8342 68.1286 14.6365 68.242 14.5245C68.3467 14.4212 68.5285 14.3182 68.7822 14.3182V24.0706C73.6261 24.0706 77.7727 20.1172 77.7727 15.0801H68.0203ZM68.7822 7.30868C64.5709 7.30868 60.9346 10.7061 60.9346 15.1563H70.687C70.687 16.2541 69.7936 17.0611 68.7822 17.0611V7.30868ZM60.9346 15.1563C60.9346 19.3676 64.332 23.0039 68.7822 23.0039V13.2515C69.8801 13.2515 70.687 14.145 70.687 15.1563H60.9346ZM68.7822 23.0039C72.9936 23.0039 76.6299 19.6065 76.6299 15.1563H66.8775C66.8775 14.0584 67.7709 13.2515 68.7822 13.2515V23.0039ZM76.6299 15.1563C76.6299 10.7061 72.9936 7.30868 68.7822 7.30868V17.0611C67.7709 17.0611 66.8775 16.2542 66.8775 15.1563H76.6299Z" fill="#9A9A9A" mask="url(#path-6-inside-1_60100_282928)"/>
<mask id="path-8-inside-2_60100_282928" fill="white">
<path d="M7.11932 65.1322C6.88258 65.1322 6.74053 64.9893 6.69318 64.7512C6.50379 63.9417 6.125 63.1798 5.50947 62.5607C4.89394 61.9417 4.18371 61.5607 3.37879 61.3703C3.14205 61.3703 3 61.1798 3 60.9893C3 60.7988 3.14205 60.6083 3.37879 60.5607C4.18371 60.4179 4.94129 59.9893 5.55682 59.3703C6.17235 58.7512 6.55114 58.0369 6.74053 57.1798C6.78788 56.9417 6.97727 56.7988 7.16667 56.7988C7.35606 56.7988 7.54545 56.9417 7.5928 57.1798C7.7822 57.9893 8.16098 58.7512 8.77652 59.3703C9.39205 59.9893 10.1023 60.3703 10.9545 60.5607C11.1913 60.6083 11.3333 60.7988 11.3333 60.9893C11.3333 61.1798 11.1913 61.3703 10.9545 61.4179C9.29735 61.7512 7.97159 63.0845 7.64015 64.7512C7.49811 64.9893 7.35606 65.1322 7.11932 65.1322ZM4.37311 60.9893C4.98864 61.2274 5.55682 61.6084 6.0303 62.0845C6.50379 62.5607 6.88258 63.1322 7.11932 63.7512C7.64015 62.4655 8.63447 61.4655 9.86553 60.9417C9.25 60.7036 8.68182 60.3226 8.20833 59.8464C7.73485 59.3703 7.35606 58.7988 7.11932 58.1798C6.88258 58.7988 6.50379 59.3703 6.0303 59.8464C5.55682 60.3703 4.98864 60.7512 4.37311 60.9893Z"/>
</mask>
<path d="M7.11932 65.1322C6.88258 65.1322 6.74053 64.9893 6.69318 64.7512C6.50379 63.9417 6.125 63.1798 5.50947 62.5607C4.89394 61.9417 4.18371 61.5607 3.37879 61.3703C3.14205 61.3703 3 61.1798 3 60.9893C3 60.7988 3.14205 60.6083 3.37879 60.5607C4.18371 60.4179 4.94129 59.9893 5.55682 59.3703C6.17235 58.7512 6.55114 58.0369 6.74053 57.1798C6.78788 56.9417 6.97727 56.7988 7.16667 56.7988C7.35606 56.7988 7.54545 56.9417 7.5928 57.1798C7.7822 57.9893 8.16098 58.7512 8.77652 59.3703C9.39205 59.9893 10.1023 60.3703 10.9545 60.5607C11.1913 60.6083 11.3333 60.7988 11.3333 60.9893C11.3333 61.1798 11.1913 61.3703 10.9545 61.4179C9.29735 61.7512 7.97159 63.0845 7.64015 64.7512C7.49811 64.9893 7.35606 65.1322 7.11932 65.1322ZM4.37311 60.9893C4.98864 61.2274 5.55682 61.6084 6.0303 62.0845C6.50379 62.5607 6.88258 63.1322 7.11932 63.7512C7.64015 62.4655 8.63447 61.4655 9.86553 60.9417C9.25 60.7036 8.68182 60.3226 8.20833 59.8464C7.73485 59.3703 7.35606 58.7988 7.11932 58.1798C6.88258 58.7988 6.50379 59.3703 6.0303 59.8464C5.55682 60.3703 4.98864 60.7512 4.37311 60.9893Z" fill="#9A9A9A"/>
<path d="M6.69318 64.7512L11.4757 63.8001L11.4598 63.72L11.4412 63.6404L6.69318 64.7512ZM3.37879 61.3703L4.50167 56.6251L3.94788 56.4941H3.37879V61.3703ZM3.37879 60.5607L2.52668 55.7596L2.47184 55.7693L2.41724 55.7803L3.37879 60.5607ZM6.74053 57.1798L11.5019 58.2318L11.513 58.1815L11.5231 58.1309L6.74053 57.1798ZM7.5928 57.1798L2.81026 58.1309L2.8262 58.211L2.84482 58.2906L7.5928 57.1798ZM10.9545 60.5607L9.89099 65.3195L9.94188 65.3309L9.99299 65.3412L10.9545 60.5607ZM10.9545 61.4179L11.9161 66.1983L10.9545 61.4179ZM7.64015 64.7512L11.8277 67.2495L12.2586 66.5272L12.4227 65.7023L7.64015 64.7512ZM4.37311 60.9893L2.61395 56.4415L-9.14318 60.9893L2.61395 65.5371L4.37311 60.9893ZM7.11932 63.7512L2.56482 65.493L6.98874 77.0609L11.6388 65.582L7.11932 63.7512ZM9.86553 60.9417L11.7747 65.4286L22.8255 60.7265L11.6247 56.3939L9.86553 60.9417ZM7.11932 58.1798L11.6738 56.438L7.11932 44.5286L2.56482 56.438L7.11932 58.1798ZM6.0303 59.8464L2.57251 56.4083L2.49071 56.4906L2.41293 56.5766L6.0303 59.8464ZM7.11932 60.256C8.04139 60.256 9.184 60.5641 10.1404 61.4458C11.0321 62.2679 11.3599 63.2179 11.4757 63.8001L1.91064 65.7023C2.07378 66.5226 2.49632 67.6631 3.53006 68.6161C4.6285 69.6288 5.9605 70.0084 7.11932 70.0084V60.256ZM11.4412 63.6404C11.0767 62.0827 10.3097 60.4727 8.96727 59.1226L2.05167 65.9989C2.00298 65.9499 1.96982 65.9005 1.95129 65.8655C1.9343 65.8333 1.93729 65.8282 1.9452 65.862L11.4412 63.6404ZM8.96727 59.1226C7.68666 57.8347 6.15801 57.0171 4.50167 56.6251L2.2559 66.1154C2.25676 66.1156 2.21523 66.1051 2.15493 66.0717C2.09351 66.0377 2.05783 66.0051 2.05167 65.9989L8.96727 59.1226ZM3.37879 56.4941C6.25072 56.4941 7.87619 58.9221 7.87619 60.9893H-1.87619C-1.87619 63.4375 0.0333743 66.2464 3.37879 66.2464V56.4941ZM7.87619 60.9893C7.87619 63.232 6.26994 64.953 4.34034 65.3412L2.41724 55.7803C0.0141475 56.2636 -1.87619 58.3656 -1.87619 60.9893H7.87619ZM4.23089 65.3619C6.16689 65.0183 7.80124 64.0287 9.01461 62.8084L2.09902 55.9321C2.09913 55.932 2.10472 55.9264 2.11744 55.9167C2.13015 55.907 2.15181 55.8919 2.18391 55.8742C2.24737 55.8392 2.36136 55.7889 2.52668 55.7596L4.23089 65.3619ZM9.01461 62.8084C10.3128 61.5028 11.1226 59.9484 11.5019 58.2318L1.97919 56.1277C1.97213 56.1597 1.97702 56.1234 2.01414 56.0543C2.03118 56.0227 2.0499 55.9937 2.06795 55.9696C2.08579 55.9457 2.09791 55.9332 2.09902 55.9321L9.01461 62.8084ZM11.5231 58.1309C11.1462 60.0259 9.45188 61.675 7.16667 61.675V51.9226C4.50266 51.9226 2.42954 53.8575 1.95799 56.2287L11.5231 58.1309ZM7.16667 61.675C4.88144 61.675 3.18712 60.0259 2.81026 58.1309L12.3753 56.2287C11.9038 53.8575 9.83068 51.9226 7.16667 51.9226V61.675ZM2.84482 58.2906C3.20926 59.8483 3.97629 61.4583 5.31872 62.8084L12.2343 55.9321C12.283 55.9811 12.3162 56.0305 12.3347 56.0655C12.3517 56.0976 12.3487 56.1028 12.3408 56.069L2.84482 58.2906ZM5.31872 62.8084C6.61738 64.1145 8.1696 64.9348 9.89099 65.3195L12.0181 55.8019C11.9927 55.7963 12.0343 55.8033 12.1072 55.8429C12.1407 55.8612 12.1709 55.881 12.1958 55.8998C12.2205 55.9184 12.2332 55.931 12.2343 55.9321L5.31872 62.8084ZM9.99299 65.3412C8.0634 64.953 6.45714 63.232 6.45714 60.9893H16.2095C16.2095 58.3656 14.3192 56.2636 11.9161 55.7803L9.99299 65.3412ZM6.45714 60.9893C6.45714 58.7466 8.0634 57.0256 9.99299 56.6374L11.9161 66.1983C14.3192 65.715 16.2095 63.613 16.2095 60.9893H6.45714ZM9.99299 56.6374C6.39252 57.3616 3.57032 60.2162 2.85761 63.8001L12.4227 65.7023C12.394 65.8468 12.328 65.9523 12.258 66.0227C12.188 66.0931 12.0761 66.1661 11.9161 66.1983L9.99299 56.6374ZM3.45257 62.2529C3.48516 62.1983 3.77805 61.6903 4.39201 61.2051C5.15522 60.602 6.12176 60.256 7.11932 60.256V70.0084C8.35362 70.0084 9.50955 69.5909 10.4385 68.8568C11.2182 68.2407 11.6531 67.5422 11.8277 67.2495L3.45257 62.2529ZM2.61395 65.5371C2.57762 65.5231 2.56092 65.512 2.5595 65.5111C2.55806 65.5101 2.5638 65.5139 2.57251 65.5227L9.4881 58.6464C8.56597 57.719 7.42842 56.9429 6.13226 56.4415L2.61395 65.5371ZM2.57251 65.5227C2.57642 65.5266 2.57979 65.5304 2.58244 65.5337C2.58509 65.5369 2.58625 65.5387 2.58607 65.5385C2.58589 65.5382 2.58373 65.5349 2.58017 65.528C2.5766 65.521 2.57114 65.5095 2.56482 65.493L11.6738 62.0094C11.1786 60.7145 10.4104 59.5739 9.4881 58.6464L2.57251 65.5227ZM11.6388 65.582C11.6763 65.4893 11.7337 65.446 11.7747 65.4286L7.95637 56.4548C5.53525 57.485 3.60397 59.4417 2.59987 61.9204L11.6388 65.582ZM11.6247 56.3939C11.661 56.4079 11.6777 56.419 11.6791 56.4199C11.6806 56.4208 11.6748 56.4171 11.6661 56.4083L4.75054 63.2846C5.67266 64.212 6.81021 64.9881 8.10638 65.4895L11.6247 56.3939ZM11.6661 56.4083C11.6622 56.4044 11.6588 56.4006 11.6562 56.3973C11.6535 56.394 11.6524 56.3923 11.6526 56.3925C11.6527 56.3928 11.6549 56.3961 11.6585 56.403C11.662 56.41 11.6675 56.4215 11.6738 56.438L2.56482 59.9216C3.06003 61.2164 3.82826 62.357 4.75054 63.2846L11.6661 56.4083ZM2.56482 56.438C2.57114 56.4215 2.5766 56.41 2.58017 56.403C2.58373 56.3961 2.58589 56.3928 2.58607 56.3925C2.58625 56.3923 2.58509 56.394 2.58244 56.3973C2.57979 56.4006 2.57642 56.4044 2.57251 56.4083L9.4881 63.2846C10.4104 62.357 11.1786 61.2164 11.6738 59.9216L2.56482 56.438ZM2.41293 56.5766C2.43356 56.5538 2.46273 56.5272 2.50001 56.5017C2.5369 56.4764 2.57575 56.4563 2.61395 56.4415L6.13226 65.5371C7.44579 65.029 8.65406 64.2155 9.64768 63.1163L2.41293 56.5766Z" fill="#9A9A9A" mask="url(#path-8-inside-2_60100_282928)"/>
<path d="M54.2737 53.3425C54.3321 53.2888 54.3665 53.2156 54.3696 53.1382L54.5541 48.6336C54.5614 48.4637 54.4187 48.3223 54.2408 48.3223H52.7595C52.7173 48.3223 52.6755 48.3304 52.6367 48.3462C52.5978 48.362 52.5627 48.3851 52.5335 48.4142C52.5042 48.4433 52.4814 48.4777 52.4664 48.5154C52.4514 48.5531 52.4446 48.5933 52.4462 48.6336L52.6314 53.1382C52.638 53.2986 52.7761 53.426 52.9447 53.426H54.0563C54.1374 53.4261 54.2153 53.3961 54.2737 53.3425Z" fill="#FD4E4E"/>
<path d="M54.1888 55.4072C54.2472 55.3535 54.2815 55.2803 54.2846 55.2029L54.3178 54.3782C54.3251 54.2083 54.1824 54.0669 54.0046 54.0669H52.9951C52.9529 54.0669 52.9111 54.075 52.8723 54.0908C52.8334 54.1066 52.7983 54.1297 52.7691 54.1588C52.7398 54.1879 52.717 54.2223 52.702 54.26C52.687 54.2977 52.6802 54.3379 52.6818 54.3782L52.7157 55.2029C52.7223 55.3633 52.8604 55.4907 53.0289 55.4907H53.9714C54.0524 55.4908 54.1303 55.4608 54.1888 55.4072Z" fill="#FD4E4E"/>
<path fill-rule="evenodd" clip-rule="evenodd" d="M65.5 51.9658C65.5 58.5932 60.1274 63.9658 53.5 63.9658C46.8726 63.9658 41.5 58.5932 41.5 51.9658C41.5 45.3384 46.8726 39.9658 53.5 39.9658C60.1274 39.9658 65.5 45.3384 65.5 51.9658ZM46.7261 55.0732L52.0369 45.8134C52.685 44.6833 54.315 44.6833 54.9631 45.8134L60.2739 55.0732C60.9188 56.1977 60.1071 57.5991 58.8108 57.5991H48.1892C46.8929 57.5991 46.0812 56.1977 46.7261 55.0732Z" fill="#FD4E4E"/>
</svg>
