<svg xmlns="http://www.w3.org/2000/svg" width="48" height="48" fill="none"><path fill="#E1EAF8" d="M24.061 4.832h-6.89c-.564 0-1.065-.361-1.244-.897L15.115 1.5h11.004l-.812 2.435a1.31 1.31 0 0 1-1.246.897m6.154 36.03v1.45a2.546 2.546 0 0 1-2.546 2.546H16.413c-.905 0-1.64.735-1.64 1.641h12.896a4.187 4.187 0 0 0 4.187-4.187v-.8z"/><path fill="#9A9A9A" d="M27.67 46.828H13.564a4.52 4.52 0 0 1-4.515-4.515v-5.239a.328.328 0 0 1 .656 0v5.239a3.863 3.863 0 0 0 3.859 3.859H27.67a3.863 3.863 0 0 0 3.858-3.859v-9.8a.329.329 0 0 1 .657 0v9.8a4.52 4.52 0 0 1-4.516 4.515M31.527 5.687v6.127a.328.328 0 0 0 .657 0V5.687a4.52 4.52 0 0 0-4.515-4.515H13.564a4.52 4.52 0 0 0-4.515 4.515v28.836a.328.328 0 0 0 .656 0V5.687a3.863 3.863 0 0 1 3.859-3.859h14.105a3.863 3.863 0 0 1 3.858 3.859"/><path fill="#0166FF" d="M21.789 18.84a.34.34 0 0 1-.146-.035l-2.188-1.084a.328.328 0 0 1 .292-.588l2.187 1.084a.328.328 0 0 1-.146.622m-2.056 8.504a.33.33 0 0 1-.311-.434.33.33 0 0 1 .165-.188l2.193-1.075a.328.328 0 0 1 .289.589l-2.192 1.074a.3.3 0 0 1-.144.034m22.453-10.042a.328.328 0 0 1-.164-.613l2.116-1.217a.328.328 0 0 1 .327.569l-2.116 1.217a.3.3 0 0 1-.163.044m-6.254-4.015a.327.327 0 0 1-.326-.372l.325-2.42a.327.327 0 1 1 .65.087l-.325 2.42a.33.33 0 0 1-.324.285"/><path stroke="#0166FF" stroke-width=".759" d="M26.55 18.538c0-1.1.892-1.991 1.991-1.991h5.926a1.991 1.991 0 0 1 0 3.983h-5.926c-1.1 0-1.99-.892-1.99-1.992Zm0 5.924c0-1.1.892-1.991 1.991-1.991h5.926a1.991 1.991 0 0 1 0 3.983h-5.926c-1.1 0-1.99-.892-1.99-1.992Z"/></svg>