<svg xmlns="http://www.w3.org/2000/svg" width="48" height="48" fill="none"><path fill="#E1EAF8" d="M21.06 4.832h-6.89c-.564 0-1.065-.361-1.245-.897L12.115 1.5h11.004l-.812 2.435a1.315 1.315 0 0 1-1.246.897m6.154 34.03v3.45a2.546 2.546 0 0 1-2.546 2.546H13.412c-.905 0-1.64.735-1.64 1.641h12.896a4.187 4.187 0 0 0 4.187-4.187v-2.8z"/><path fill="#9A9A9A" d="M24.669 46.828H10.564a4.52 4.52 0 0 1-4.515-4.515v-5.239a.328.328 0 0 1 .656 0v5.239a3.863 3.863 0 0 0 3.859 3.859h14.105a3.863 3.863 0 0 0 3.858-3.859v-5.8a.329.329 0 0 1 .656 0v5.8a4.52 4.52 0 0 1-4.514 4.515M28.527 5.687v5.127a.328.328 0 0 0 .656 0V5.687a4.52 4.52 0 0 0-4.514-4.515H10.564a4.52 4.52 0 0 0-4.515 4.515v28.836a.328.328 0 0 0 .656 0V5.687a3.863 3.863 0 0 1 3.859-3.859h14.105a3.863 3.863 0 0 1 3.858 3.859"/><path fill="#0166FF" d="M3.788 20.839a.34.34 0 0 1-.145-.034L1.455 19.72a.328.328 0 0 1 .291-.587l2.187 1.083a.328.328 0 0 1-.145.623m-2.056 8.505a.33.33 0 0 1-.311-.434.33.33 0 0 1 .166-.189l2.193-1.074a.328.328 0 0 1 .288.589L1.876 29.31a.3.3 0 0 1-.144.034m40.453-15.042a.328.328 0 0 1-.164-.614l2.116-1.216a.328.328 0 0 1 .327.569l-2.116 1.217a.3.3 0 0 1-.163.044m-6.254-4.016a.325.325 0 0 1-.314-.233.3.3 0 0 1-.011-.138l.324-2.42a.328.328 0 1 1 .65.087l-.325 2.42a.33.33 0 0 1-.324.284"/><path fill="#9A9A9A" d="M33.437 32.872a9.4 9.4 0 0 0 4.304-1.035l.593.593c.223.224.517.335.81.335.295 0 .588-.111.812-.335l2.22-2.22 4.79 4.79a1.39 1.39 0 0 1 0 1.965 1.38 1.38 0 0 1-.983.406c-.37 0-.72-.145-.982-.406l-3.931-3.932a.314.314 0 1 0-.446.446l3.93 3.93c.382.381.89.591 1.428.591a2.02 2.02 0 0 0 1.427-3.447l-4.808-4.808a1.15 1.15 0 0 0-.154-1.43l-.598-.598a9.4 9.4 0 0 0 1.023-4.281c0-2.52-.981-4.89-2.764-6.672A9.38 9.38 0 0 0 33.436 14c-2.52 0-4.89.981-6.672 2.764A9.38 9.38 0 0 0 24 23.436c0 2.52.981 4.889 2.764 6.672a9.38 9.38 0 0 0 6.673 2.763m8.565-4.112a.52.52 0 0 1 0 .731l-2.492 2.493a.52.52 0 0 1-.731 0l-.467-.467a9.5 9.5 0 0 0 1.796-1.41 9.5 9.5 0 0 0 1.423-1.818zM27.21 17.21a8.75 8.75 0 0 1 6.227-2.58c2.352 0 4.564.915 6.227 2.58a8.75 8.75 0 0 1 2.58 6.226 8.75 8.75 0 0 1-2.58 6.226 8.75 8.75 0 0 1-6.227 2.58 8.75 8.75 0 0 1-6.227-2.58 8.75 8.75 0 0 1-2.58-6.226 8.75 8.75 0 0 1 2.58-6.227"/><path fill="#0166FF" d="M38.803 18.197a7.5 7.5 0 0 0-10.606 0 7.5 7.5 0 0 0 0 10.606 7.5 7.5 0 0 0 10.606 0 7.5 7.5 0 0 0 0-10.606m-.588 1.038a.32.32 0 0 1-.45-.001 6.04 6.04 0 0 0-3.656-1.736.318.318 0 1 1 .063-.633 6.7 6.7 0 0 1 4.043 1.92.316.316 0 0 1 0 .45m1.134 1.769a.32.32 0 0 1-.426-.148 6 6 0 0 0-.317-.57.32.32 0 0 1 .539-.341c.128.203.246.416.351.63a.32.32 0 0 1-.147.429"/><path fill="#9A9A9A" fill-rule="evenodd" d="M14.643 35.35c-.386-.246-.651-.415-.856-.507s-.275-.075-.312-.056c-.034.017-.087.06-.125.275-.037.216-.045.525-.056.976l-.006.23-.001.04c-.005.21-.009.391-.086.551-.077.162-.214.276-.372.408l-.032.027-.172.144c-.34.284-.572.478-.714.64-.14.158-.143.23-.135.276.01.05.046.122.24.232.195.11.486.225.911.39l.216.085.038.014c.2.078.366.143.494.268s.197.29.28.489l.015.037.09.215c.176.421.297.711.413.905.115.192.187.226.236.234.045.007.115.002.27-.143.157-.147.343-.384.618-.733l.138-.177.026-.033c.127-.162.237-.303.396-.385.158-.081.338-.09.547-.1l.041-.003.228-.012c.45-.023.756-.04.97-.083.212-.043.253-.097.27-.132.018-.039.034-.111-.064-.314s-.273-.465-.529-.847l-.13-.193-.022-.034c-.12-.179-.221-.328-.254-.503-.034-.176.007-.35.055-.554l.009-.04.05-.221c.102-.437.17-.735.188-.955.017-.215-.022-.283-.06-.32s-.106-.075-.32-.052c-.217.023-.512.1-.944.213l-.22.057-.038.01c-.202.054-.375.1-.552.07-.175-.028-.327-.125-.508-.241l-.035-.022zm-1.407-1.029c.255-.13.52-.067.767.045.243.11.54.3.904.532l.214.137c.235.15.29.179.345.188s.112-.001.374-.07l.24-.063c.406-.106.74-.193 1.001-.221.27-.03.536-.003.74.197.205.2.238.464.216.736-.02.264-.098.6-.193 1.01l-.057.244c-.061.265-.07.323-.06.378.011.056.043.111.198.342l.142.212c.24.358.437.652.553.893.118.245.188.508.065.766-.124.261-.374.366-.638.42-.257.052-.603.07-1.024.092l-.25.013c-.275.014-.331.022-.376.045s-.083.063-.25.276l-.153.195c-.256.327-.468.596-.658.774-.197.185-.426.323-.711.277-.28-.046-.46-.247-.601-.482-.137-.23-.273-.555-.439-.952l-.098-.234c-.107-.256-.136-.313-.178-.354s-.099-.068-.356-.169l-.216-.084-.02-.008c-.4-.156-.727-.283-.96-.415-.238-.135-.442-.31-.495-.59-.053-.283.078-.516.256-.719.172-.195.435-.415.754-.681l.19-.159c.207-.173.246-.213.267-.258s.03-.104.036-.38l.006-.251c.01-.424.019-.771.064-1.03.046-.266.144-.52.401-.652m-.863 5.934a.262.262 0 0 1 .37.37l-.697.697a.262.262 0 0 1-.37-.37zM15.004 7.701a1.605 1.605 0 1 0 0 3.21 1.605 1.605 0 0 0 0-3.21m-1.098 1.605a1.098 1.098 0 1 1 2.196 0 1.098 1.098 0 0 1-2.196 0M15.005 11.419c-.782 0-1.502.178-2.035.478-.526.295-.921.743-.921 1.295v.035c0 .392-.001.885.431 1.237.213.173.51.296.912.377.403.082.928.125 1.613.125s1.21-.043 1.613-.124c.402-.082.699-.205.912-.378.432-.352.431-.845.43-1.237v-.035c0-.552-.394-1-.92-1.295-.534-.3-1.254-.478-2.035-.478m-2.45 1.773c0-.287.21-.6.663-.854.445-.25 1.076-.412 1.787-.412s1.342.162 1.787.412c.452.255.662.567.662.854 0 .442-.014.69-.244.879-.126.102-.335.201-.693.274-.357.072-.845.114-1.512.114s-1.155-.042-1.512-.114c-.359-.073-.568-.172-.693-.274-.23-.188-.244-.437-.244-.879" clip-rule="evenodd"/><path stroke="#9A9A9A" stroke-linecap="round" stroke-linejoin="round" stroke-width=".5" d="m14.333 21.666-1.667 6m4.667-6-1.667 6m2.667-4h-6m5.333 2.333h-6"/></svg>