<svg xmlns="http://www.w3.org/2000/svg" width="81" height="80" fill="none"><path fill="#0166FF" d="M41.04 31.197c-8.22 0-14.884 6.664-14.884 14.886s6.664 14.886 14.885 14.886 14.884-6.664 14.884-14.886c0-8.22-6.664-14.886-14.884-14.886m-8.23 21.49a.5.5 0 0 1-.492-.421.5.5 0 0 1 .088-.372L43.34 36.835a.5.5 0 0 1 .81.587L33.214 52.48a.5.5 0 0 1-.405.207m15.093-11.854-6.93 9.544a.499.499 0 1 1-.807-.588l6.93-9.544a.5.5 0 0 1 .697-.111.5.5 0 0 1 .11.699"/><path fill="#E1EAF8" d="M9.357 41.734v11.56a2.744 2.744 0 0 0 2.744 2.744h5.939c1.993 0 3.176-2.227 2.059-3.878a8.18 8.18 0 0 1-1.404-4.58v-1.746c0-1.871.38-3.725 1.114-5.447l.514-1.202a1.275 1.275 0 0 0-1.136-1.775l-5.23-.148a4.474 4.474 0 0 0-4.6 4.472m63.014 0v11.56a2.744 2.744 0 0 1-2.743 2.744h-5.94c-1.992 0-3.175-2.227-2.058-3.878a8.18 8.18 0 0 0 1.404-4.58v-1.746c0-1.871-.38-3.725-1.114-5.447l-.514-1.202a1.275 1.275 0 0 1 1.136-1.775l5.23-.148a4.474 4.474 0 0 1 4.6 4.472"/><path fill="#9A9A9A" d="M75.546 32.918v-8.33a2.5 2.5 0 0 0-2.496-2.496h-8.062L61.61 14.13A3.49 3.49 0 0 0 58.392 12H33.86c-1.405 0-2.669.836-3.218 2.13l-2.492 5.875a.5.5 0 0 0 .92.39l2.492-5.875a2.49 2.49 0 0 1 2.298-1.523h6.408a13.2 13.2 0 0 0-8.662 7.777c-.19.47-.087.963.194 1.317H21.532v-1.74a2.025 2.025 0 0 0-2.023-2.024h-5.982a2.025 2.025 0 0 0-2.023 2.023v1.74H8.565a2.5 2.5 0 0 0-2.497 2.497v42.389a2.5 2.5 0 0 0 2.497 2.497H73.05a2.5 2.5 0 0 0 2.496-2.497V36.499a.5.5 0 0 0-.998 0v21.823H54.925a18.54 18.54 0 0 0 4.564-12.238c0-4.216-1.403-8.109-3.767-11.239H73.62a1.93 1.93 0 0 0 1.926-1.927M38.046 16.5c0-.552.446-.999.998-.999h15.178c.552 0 .999.447.999 1v2.088a1 1 0 0 1-.999.998H39.044a1 1 0 0 1-.999-.998zm-25.543 3.85c0-.564.459-1.024 1.024-1.024h1.862a2.87 2.87 0 0 0-1.256 2.374q.002.214.092.391h-1.722zM53.312 58.59a17.57 17.57 0 0 1-12.505 5.18c-9.75 0-17.683-7.934-17.684-17.686 0-2.538.526-4.986 1.562-7.28a.5.5 0 1 0-.91-.41 18.5 18.5 0 0 0-1.651 7.691c0 4.677 1.728 8.958 4.577 12.238H10.14a.5.5 0 0 0 0 .999h17.495a18.62 18.62 0 0 0 13.172 5.447c4.99 0 9.682-1.944 13.211-5.473l.029-.029a.5.5 0 0 0 .22.055h20.28v7.656a1.5 1.5 0 0 1-1.497 1.498H8.565a1.5 1.5 0 0 1-1.498-1.498V34.843h18.816q-.305.404-.592.828a.5.5 0 0 0 .829.558 17.67 17.67 0 0 1 14.687-7.831c9.752 0 17.684 7.933 17.685 17.686a17.58 17.58 0 0 1-5.18 12.505m-12.505-31.19a18.66 18.66 0 0 0-14.118 6.447H7.067V24.59a1.5 1.5 0 0 1 1.498-1.498H73.05a1.5 1.5 0 0 1 1.498 1.498v8.329a.93.93 0 0 1-.928.927H54.913C51.484 29.9 46.433 27.4 40.807 27.4"/><path fill="#9A9A9A" d="M69.977 26.258H63.59a1.5 1.5 0 0 0-1.498 1.498v1.425a1.5 1.5 0 0 0 1.498 1.498h6.388a1.5 1.5 0 0 0 1.499-1.498v-1.425a1.5 1.5 0 0 0-1.5-1.498m-6.886 2.923v-1.425a.5.5 0 0 1 .499-.5h1.382a2.42 2.42 0 0 0-.954 1.925 1 1 0 0 0 .134.5h-.562a.5.5 0 0 1-.5-.5M12.855 65.526h6.389a1.5 1.5 0 0 0 1.498-1.498v-1.425a1.5 1.5 0 0 0-1.498-1.498h-6.389a1.5 1.5 0 0 0-1.498 1.498v1.425a1.5 1.5 0 0 0 1.498 1.498m-.499-2.923a.5.5 0 0 1 .5-.5h1.382a2.42 2.42 0 0 0-.955 1.925 1 1 0 0 0 .135.5h-.563a.5.5 0 0 1-.499-.5z"/></svg>