<svg xmlns="http://www.w3.org/2000/svg" width="48" height="48" fill="none"><path fill="#9A9A9A" d="M40.684 27.146H33.19a2.08 2.08 0 0 0-2.08 2.08v2.952a2.08 2.08 0 0 0 2.08 2.08h7.494l2.801-1.2v-7.111zm-7.162 4.392a.836.836 0 1 1 0-1.672.836.836 0 0 1 0 1.672m7.49.82a.328.328 0 0 1-.656 0v-3.311a.328.328 0 0 1 .656 0z"/><path fill="#E1EAF8" d="m12.475 15.504 16.82-7.572-3.71-4.967a.84.84 0 0 0-1.175-.17L7.39 15.503z"/><path stroke="#9A9A9A" stroke-linecap="round" stroke-linejoin="round" stroke-width=".845" d="M21.414 3.62 18.182 1.31a1.207 1.207 0 0 0-1.69.29l-9.86 14.085M37.707 15.686l-3.73-8.26a1.207 1.207 0 0 0-1.589-.606l-20.02 8.866"/><path stroke="#9A9A9A" stroke-linecap="round" stroke-linejoin="round" stroke-width=".845" d="M8.747 12.67H6.032c-.503 0-1.509.301-1.509 1.508m0 0c0 1.207 1.006 1.508 1.509 1.508H38.61c.805 0 2.413.483 2.413 2.414v8.144m-36.5-12.066v19.306M18.4 46.154H38.61c.805-.201 2.413-.905 2.413-2.112v-8.145"/><path stroke="#9A9A9A" stroke-linecap="round" stroke-linejoin="round" stroke-width=".845" d="M38.61 12.67c1.709-.101 5.128.603 5.128 4.222v23.832c-.101 1.005-.785 3.016-2.715 3.016"/><path fill="#9A9A9A" d="M18.876 24.121v-1.405a1.213 1.213 0 0 0-1.212-1.212H9.881a1.213 1.213 0 0 0-1.211 1.212v1.405a1.213 1.213 0 0 0 1.211 1.212h7.783a1.213 1.213 0 0 0 1.212-1.212m-9.55 0v-1.405a.556.556 0 0 1 .555-.556h2.008a2.29 2.29 0 0 0-1.108 1.96c0 .203.07.4.197.556H9.88a.556.556 0 0 1-.555-.555m-1.1-4.96h2.334a.328.328 0 0 0 0-.656H8.228a.328.328 0 0 0 0 .656m7.615 0a.328.328 0 0 0 0-.656h-2.333a.328.328 0 0 0 0 .656zm5.281-.656h-2.334a.328.328 0 0 0 0 .656h2.334a.328.328 0 0 0 0-.656m5.282 0H24.07a.328.328 0 0 0 0 .656h2.334a.328.328 0 0 0 0-.656m5.28 0H29.35a.328.328 0 0 0 0 .656h2.334a.328.328 0 0 0 0-.656m5.281 0h-2.334a.328.328 0 0 0 0 .656h2.334a.328.328 0 0 0 0-.656M18.788 42.9h2.334a.328.328 0 0 0 0-.656h-2.334a.328.328 0 0 0 0 .656m7.616-.656H24.07a.328.328 0 0 0 0 .656h2.334a.328.328 0 0 0 0-.656m5.28 0H29.35a.328.328 0 0 0 0 .656h2.334a.328.328 0 0 0 0-.656m5.281 0h-2.334a.328.328 0 0 0 0 .656h2.334a.328.328 0 0 0 0-.656"/><circle cx="9.957" cy="40.629" r="6.637" fill="#0166FF"/><path stroke="#fff" stroke-linecap="round" stroke-linejoin="round" stroke-width="1.048" d="M10 44.292V37m0 0 2.188 2.188M10 37l-2.187 2.188"/></svg>