<svg xmlns="http://www.w3.org/2000/svg" width="49" height="48" fill="none"><path fill="#E1EAF8" d="M36.38 14.276v25.435a3.39 3.39 0 0 1-3.39 3.391H15.722c-1.06 0-2.042.554-2.59 1.462h23.535a1.02 1.02 0 0 0 1.019-1.02V11.786l-.085.064a3.02 3.02 0 0 0-1.221 2.427Z"/><path fill="#0166FF" d="M17.643 19.285h-3.169a.595.595 0 0 1-.595-.595v-3.17c0-.329.266-.595.595-.595h3.169c.329 0 .595.266.595.595v3.169a.596.596 0 0 1-.595.595Zm0 7.382h-3.169a.595.595 0 0 1-.595-.595v-3.169c0-.33.266-.595.595-.595h3.169c.329 0 .595.266.595.595v3.169a.596.596 0 0 1-.595.595m0 7.381h-3.169a.595.595 0 0 1-.595-.595v-3.17c0-.328.266-.594.595-.594h3.169c.329 0 .595.266.595.595v3.169a.595.595 0 0 1-.595.595"/><path fill="#9A9A9A" d="M38.308 4.232h-7.776v-.053a.985.985 0 0 0-.985-.984H26.83a2.355 2.355 0 0 0-2.33-2.023 2.354 2.354 0 0 0-2.327 2.023h-2.719a.985.985 0 0 0-.984.984v.053h-7.777c-.904 0-1.64.736-1.64 1.64v5.162a.328.328 0 0 0 .656 0V5.872c0-.542.441-.984.984-.984h7.777v1.279h-6.907a.577.577 0 0 0-.576.576v37.575c0 .317.258.576.576.576h25.875a.577.577 0 0 0 .577-.576V6.742a.577.577 0 0 0-.577-.577H32.35a.329.329 0 0 0 0 .656h5.008v37.415H11.642V6.822h6.826v.124c0 .543.442.984.984.984h10.095a.985.985 0 0 0 .985-.984V4.888h7.776c.543 0 .985.442.985.984v39.316a.986.986 0 0 1-.985.984H10.691a.985.985 0 0 1-.984-.984V13.56a.328.328 0 0 0-.656 0v31.627c0 .904.736 1.64 1.64 1.64h27.617c.905 0 1.64-.736 1.64-1.64V5.871c0-.904-.735-1.64-1.64-1.64Z"/><path fill="#fff" d="M26.698 5.342h-4.393a.328.328 0 0 0 0 .656h4.393a.328.328 0 0 0 0-.656"/><path fill="#9A9A9A" d="M19.813 15.428h13.795a.328.328 0 0 1-.001.656H19.813a.328.328 0 0 1 0-.656m12.604 3.355H19.812a.328.328 0 0 1 0-.656h12.605a.328.328 0 0 1 0 .656m-12.604 4.026h13.795a.328.328 0 0 1-.001.656H19.813a.328.328 0 0 1 0-.656m12.604 3.356H19.812a.328.328 0 0 1 0-.656h12.605a.328.328 0 0 1 0 .656m1.191 4.025a.328.328 0 1 1-.001.657H19.813a.328.328 0 0 1 0-.657zm-14.124 3.028c0-.181.148-.328.328-.328h12.605a.328.328 0 0 1 0 .656H19.812a.33.33 0 0 1-.328-.328"/><path fill="#0166FF" d="M44.148 29.32a.33.33 0 0 1-.157-.04l-2.141-1.173a.328.328 0 1 1 .315-.576l2.14 1.173a.328.328 0 0 1-.157.616m-1.968-8.603a.329.329 0 0 1-.134-.628l2.235-.983a.328.328 0 1 1 .264.6l-2.234.983a.3.3 0 0 1-.131.028M4.852 29.32a.327.327 0 0 1-.157-.616l2.14-1.173a.328.328 0 1 1 .316.576L5.01 29.28a.33.33 0 0 1-.158.04m1.969-8.603a.3.3 0 0 1-.132-.028l-2.235-.983a.327.327 0 1 1 .264-.6l2.234.983a.328.328 0 0 1-.131.628"/></svg>