<svg xmlns="http://www.w3.org/2000/svg" width="48" height="48" fill="none"><path fill="#9A9A9A" d="M30.018 10.867a.33.33 0 0 0 .328-.329V5.943c0-2.63-2.14-4.771-4.77-4.771H11.663a4.776 4.776 0 0 0-4.771 4.77v36.116c0 2.63 2.14 4.771 4.77 4.771h13.912c2.63 0 4.771-2.14 4.771-4.77v-9.134a.328.328 0 0 0-.656 0v9.133a4.12 4.12 0 0 1-4.115 4.115h-13.91a4.12 4.12 0 0 1-4.115-4.115V5.943a4.12 4.12 0 0 1 4.115-4.115h13.911a4.12 4.12 0 0 1 4.115 4.115v4.595c0 .181.147.329.328.329"/><path fill="#9A9A9A" d="M21.226 5.224c.675 0 1.225-.55 1.225-1.224 0-.675-.55-1.225-1.225-1.225h-5.214c-.675 0-1.225.55-1.225 1.225s.55 1.224 1.225 1.224zM21.794 4a.57.57 0 0 1-.568.568h-1.27c.382-.27.643-.676.73-1.135h.54a.567.567 0 0 1 .568.567m-8.849 40.263c0 .18.147.328.328.328h10.69a.329.329 0 0 0 0-.657h-10.69a.33.33 0 0 0-.328.329"/><path fill="#FAFBFF" d="M22.726 42.62h-7.918c-1.524 0-2.431-1.7-1.58-2.966l.682-1.016a2.85 2.85 0 0 1 2.366-1.261h2.648a6.19 6.19 0 0 1 5.138 2.738c.716 1.07-.049 2.505-1.336 2.505"/><path fill="#0166FF" d="M37.755 11.984H20.94a3.024 3.024 0 0 0-3.024 3.025v13.279a3.024 3.024 0 0 0 3.024 3.024h1.404c.618 0 1.117.5 1.117 1.117v2.994c0 .528.638.792 1.011.419l4.203-4.203c.21-.21.494-.327.79-.327h8.289a3.024 3.024 0 0 0 3.024-3.024v-13.28a3.024 3.024 0 0 0-3.023-3.024"/><path stroke="#fff" stroke-width=".831" d="M28.375 26.125a4.5 4.5 0 1 0-4.061-2.56.94.94 0 0 1 .073.648l-.185.69a.731.731 0 0 0 .895.895l.69-.185a.94.94 0 0 1 .647.073 4.5 4.5 0 0 0 1.941.439Z"/><path stroke="#fff" stroke-width=".831" d="m32.875 21.907.111-.048a.97.97 0 0 1 .649-.07l.268.071a.731.731 0 0 0 .895-.895l-.072-.268a.97.97 0 0 1 .07-.648 3.656 3.656 0 1 0-6.702-2.926"/><path fill="#fff" d="M26.969 21.625a.562.562 0 1 1-1.125 0 .562.562 0 0 1 1.125 0m1.969 0a.562.562 0 1 1-1.125 0 .562.562 0 0 1 1.125 0m1.968 0a.562.562 0 1 1-1.125 0 .562.562 0 0 1 1.125 0"/></svg>