<svg xmlns="http://www.w3.org/2000/svg" width="36" height="36" fill="none"><rect width="36" height="36" fill="#0166FF" rx="10"/><path fill="#fff" d="M9 12.79c0-1.787 0-2.68.555-3.235S11.003 9 12.79 9s2.679 0 3.234.555.555 1.448.555 3.235 0 2.679-.555 3.234-1.448.555-3.235.555-2.68 0-3.234-.555C9 15.469 9 14.576 9 12.789M9 23.21c0-1.786 0-2.679.555-3.234s1.448-.555 3.235-.555 2.679 0 3.234.555.555 1.448.555 3.235 0 2.68-.555 3.234c-.555.555-1.448.555-3.235.555s-2.68 0-3.234-.555C9 25.89 9 24.997 9 23.21M19.422 23.211c0-1.786 0-2.68.555-3.234.555-.555 1.448-.555 3.234-.555s2.68 0 3.235.555S27 21.425 27 23.21s0 2.68-.555 3.235S24.998 27 23.21 27s-2.68 0-3.234-.555c-.555-.555-.555-1.448-.555-3.235M27.002 12.79a3.79 3.79 0 1 1-7.58 0 3.79 3.79 0 0 1 7.58 0"/></svg>