<svg xmlns="http://www.w3.org/2000/svg" width="48" height="48" fill="none"><path fill="#9A9A9A" d="M23.499 46.173H7.054a3.89 3.89 0 0 1-3.886-3.886v-3.28a37.1 37.1 0 0 1 9.192-24.452c3.975-.99 8.165-.99 12.14 0a37 37 0 0 1 3.154 4.158.328.328 0 1 0 .55-.358 38 38 0 0 0-2.92-3.897.7.7 0 0 0 .263-.552V12.85a.71.71 0 0 0-.412-.644l3.329-3.627c.549-.6.718-1.416.45-2.184a2.14 2.14 0 0 0-1.71-1.43l-1.467-.234.238-.517a1.54 1.54 0 0 0-.014-1.315 1.54 1.54 0 0 0-1.02-.828l-.823-.204a23.8 23.8 0 0 0-11.423.01l-.774.193a1.541 1.541 0 0 0-1.03 2.142l.237.52-1.468.234a2.14 2.14 0 0 0-1.71 1.43c-.267.768-.1 1.585.451 2.184l3.328 3.627a.71.71 0 0 0-.411.644v1.056a.7.7 0 0 0 .264.553 37.73 37.73 0 0 0-9.07 24.546v3.28a4.547 4.547 0 0 0 4.542 4.543h16.445a.329.329 0 0 0 0-.657m1.35-33.376a.055.055 0 0 1 .042.053v1.056a.05.05 0 0 1-.022.043.05.05 0 0 1-.047.01q-.696-.18-1.4-.317a2.15 2.15 0 0 0-.733-1.3q1.088.18 2.16.455M8.566 6.61c.187-.536.633-.91 1.194-.998l1.649-.263 1.884 4.114a.328.328 0 1 0 .596-.273l-2.405-5.254a.887.887 0 0 1 .593-1.233l.774-.193a23.14 23.14 0 0 1 11.107-.01l.823.204a.885.885 0 0 1 .595 1.232l-3.046 6.649a.33.33 0 0 0 .299.465.33.33 0 0 0 .298-.191l2.524-5.512 1.648.263c.56.089 1.006.462 1.193.998s.07 1.105-.314 1.524l-3.562 3.883c-3.93-.91-8.044-.91-11.975 0L8.88 8.134a1.5 1.5 0 0 1-.315-1.523"/><path fill="#9A9A9A" d="M44.567 34.979H42.26a1 1 0 0 0 .039-.263v-2.541a.92.92 0 0 0-.919-.92H29.396a.92.92 0 0 0-.919.92v.85a6.919 6.919 0 0 0-7.41 6.892c0 3.81 3.1 6.91 6.91 6.91h13.405a.92.92 0 0 0 .919-.918v-2.542c0-.231-.087-.441-.226-.602a.9.9 0 0 0 .226-.602V39.62a1 1 0 0 0-.039-.262h2.306a.92.92 0 0 0 .918-.919v-2.542a.92.92 0 0 0-.92-.918m-15.433-2.804c0-.145.118-.263.262-.263h11.986c.144 0 .263.118.263.263v2.542a.263.263 0 0 1-.263.263h-8.574a6.9 6.9 0 0 0-3.674-1.875zm-7.412 7.742a6.26 6.26 0 0 1 6.255-6.256 6.26 6.26 0 0 1 6.255 6.255 6.26 6.26 0 0 1-6.255 6.256 6.26 6.26 0 0 1-6.255-6.255m13.167 0q-.001-.283-.025-.558h6.518c.144 0 .263.118.263.262v2.543a.263.263 0 0 1-.263.262h-6.966c.312-.8.473-1.65.473-2.51m6.755 5.992a.263.263 0 0 1-.263.263H30.913a6.95 6.95 0 0 0 3.193-3.067h7.275c.145 0 .263.118.263.262zm3.185-7.47a.263.263 0 0 1-.262.263h-9.788a6.9 6.9 0 0 0-1.383-3.066h11.17c.145 0 .263.118.263.262z"/><path fill="#E1EAF8" d="M40.361 34.35h-3.418a3.84 3.84 0 0 1-2.238-.72c-.474-.342-.233-1.09.351-1.09h5.304a.6.6 0 0 1 .602.6v.608a.6.6 0 0 1-.6.601M4.924 38.307v2.838a3.41 3.41 0 0 0 3.409 3.409h6.466c1.61 0 2.17-2.138.767-2.929l-8.309-4.68a1.565 1.565 0 0 0-2.333 1.362"/><path fill="#0166FF" d="M28.346 39.304h-.75c-.62 0-1.154-.475-1.185-1.094a1.154 1.154 0 0 1 1.15-1.21h.952c.543 0 .99.42 1.031.953a.09.09 0 0 0 .09.081h1.046a.09.09 0 0 0 .09-.092 2.264 2.264 0 0 0-2.18-2.166v-1.034a.09.09 0 0 0-.09-.09h-1.044a.09.09 0 0 0-.09.09v1.04a2.38 2.38 0 0 0-2.182 2.403c.018 1.307 1.12 2.343 2.427 2.343h.751c.62 0 1.153.476 1.184 1.094a1.153 1.153 0 0 1-1.15 1.21h-.952c-.543 0-.99-.421-1.031-.954a.09.09 0 0 0-.09-.081h-1.045a.09.09 0 0 0-.091.094 2.264 2.264 0 0 0 2.18 2.165v1.034c0 .05.04.091.09.091h1.044c.05 0 .09-.04.09-.09V44.05a2.38 2.38 0 0 0 2.182-2.402c-.018-1.308-1.118-2.344-2.427-2.344m15.75-19.322-1.865-.269a.23.23 0 0 1-.188-.168 7 7 0 0 0-.65-1.57.23.23 0 0 1 .013-.25l1.128-1.51a.346.346 0 0 0-.033-.452l-1.494-1.494a.346.346 0 0 0-.452-.033l-1.51 1.128a.23.23 0 0 1-.25.014 6.9 6.9 0 0 0-1.57-.65.23.23 0 0 1-.168-.19l-.269-1.863a.346.346 0 0 0-.342-.296h-2.113a.346.346 0 0 0-.342.296l-.27 1.864a.23.23 0 0 1-.167.187 7 7 0 0 0-1.57.651.23.23 0 0 1-.25-.014l-1.51-1.128a.345.345 0 0 0-.452.033l-1.494 1.494a.346.346 0 0 0-.033.452l1.128 1.51c.055.073.06.171.014.25a6.9 6.9 0 0 0-.651 1.57.23.23 0 0 1-.188.168l-1.864.27a.345.345 0 0 0-.296.341v2.113c0 .172.126.318.296.343l1.864.269a.23.23 0 0 1 .188.168c.151.547.37 1.075.65 1.569a.23.23 0 0 1-.013.251l-1.128 1.51a.345.345 0 0 0 .033.451l1.494 1.495a.345.345 0 0 0 .452.032l1.51-1.127a.23.23 0 0 1 .25-.014c.495.28 1.022.5 1.57.65a.23.23 0 0 1 .168.189l.269 1.863a.345.345 0 0 0 .342.297h2.113a.346.346 0 0 0 .342-.297l.27-1.863a.23.23 0 0 1 .167-.189 7 7 0 0 0 1.57-.65.23.23 0 0 1 .25.014l1.51 1.128c.138.103.33.089.452-.033l1.494-1.495a.345.345 0 0 0 .033-.451l-1.128-1.51a.23.23 0 0 1-.014-.251c.281-.494.5-1.021.65-1.57a.23.23 0 0 1 .19-.167l1.863-.27a.345.345 0 0 0 .296-.342v-2.113a.344.344 0 0 0-.296-.341m-8.706 6.2a4.802 4.802 0 1 1 0-9.603 4.802 4.802 0 0 1 0 9.604"/></svg>