<svg xmlns="http://www.w3.org/2000/svg" width="36" height="36" fill="none"><g clip-path="url(#a)"><rect width="36" height="36" fill="#3E73C4" rx="10"/><path fill="#fff" d="M22.525 20.39c0-2.39-1.44-3.209-4.32-3.551-2.057-.273-2.467-.819-2.467-1.775 0-.957.686-1.57 2.056-1.57 1.234 0 1.92.409 2.262 1.434a.515.515 0 0 0 .48.34h1.098a.47.47 0 0 0 .48-.478v-.067a3.42 3.42 0 0 0-3.086-2.8v-1.638c0-.274-.206-.478-.548-.547h-1.029c-.273 0-.48.205-.548.547v1.57c-2.057.272-3.36 1.638-3.36 3.346 0 2.252 1.371 3.14 4.251 3.482 1.92.34 2.537.751 2.537 1.844 0 1.091-.96 1.842-2.262 1.842-1.783 0-2.4-.75-2.606-1.775-.067-.272-.274-.41-.48-.41h-1.166a.467.467 0 0 0-.479.479v.067c.273 1.708 1.371 2.937 3.634 3.279v1.639c0 .272.206.478.548.545h1.029c.273 0 .48-.204.548-.545v-1.64c2.057-.341 3.428-1.776 3.428-3.62z"/><path fill="#fff" d="M14.504 27.56C9.155 25.646 6.412 19.706 8.4 14.45c1.029-2.87 3.291-5.053 6.103-6.078.274-.136.41-.34.41-.683v-.956c0-.272-.136-.477-.41-.545-.07 0-.206 0-.275.067a12.256 12.256 0 0 0-8.021 15.432c1.233 3.825 4.181 6.76 8.021 7.99.275.136.549 0 .617-.274.068-.067.068-.137.068-.273v-.957c0-.204-.205-.477-.41-.614M21.77 6.255c-.274-.137-.549 0-.617.272-.068.069-.068.138-.068.274v.956c0 .273.205.546.41.683 5.349 1.912 8.092 7.852 6.103 13.11-1.029 2.868-3.291 5.052-6.102 6.077-.275.136-.411.34-.411.683v.956c0 .272.136.477.41.546.07 0 .206 0 .275-.068a12.26 12.26 0 0 0 8.021-15.432c-1.233-3.892-4.25-6.828-8.021-8.057"/></g><defs><clipPath id="a"><path fill="#fff" d="M0 0h36v36H0z"/></clipPath></defs></svg>