<svg xmlns="http://www.w3.org/2000/svg" width="36" height="36" fill="none"><g clip-path="url(#a)"><rect width="36" height="36" fill="#FF060A" rx="10"/><g clip-path="url(#b)"><path fill="#fff" d="M28.728 15.025c-.987-.865-2.35-2.187-3.462-3.125l-.066-.043a1.3 1.3 0 0 0-.365-.194C22.154 11.188 9.684 8.973 9.44 9a.5.5 0 0 0-.192.07l-.061.046a.7.7 0 0 0-.171.262L9 9.418v.256c1.404 3.717 6.948 15.89 8.039 18.745.066.194.19.562.424.581h.053c.124 0 .657-.67.657-.67s9.522-10.973 10.486-12.142q.188-.216.329-.463a.7.7 0 0 0-.033-.382.75.75 0 0 0-.227-.318m-8.11 1.278 4.063-3.201 2.383 2.087zm-1.576-.209-7-5.45 11.32 1.984zm.631 1.428 7.161-1.097-8.19 9.375zm-8.582-6.334 7.362 5.936-1.065 8.682z"/></g></g><defs><clipPath id="a"><path fill="#fff" d="M0 0h36v36H0z"/></clipPath><clipPath id="b"><path fill="#fff" d="M9 9h20v20H9z"/></clipPath></defs></svg>