<svg xmlns="http://www.w3.org/2000/svg" width="36" height="36" fill="none"><g clip-path="url(#a)"><rect width="36" height="36" fill="#E84142" rx="10"/><path fill="#fff" d="M12.021 28H7.99c-.848 0-1.268 0-1.521-.158A1 1 0 0 1 6 27.047c-.016-.3.194-.66.614-1.388l9.96-17.31c.428-.735.645-1.103.916-1.237a1.02 1.02 0 0 1 .929 0c.27.134.48.502.9 1.236l2.056 3.526.007.016c.337.498.605 1.041.794 1.611.114.45.114.939 0 1.395a6.6 6.6 0 0 1-.794 1.627l-5.235 9.121-.015.031a6.5 6.5 0 0 1-1.02 1.5 3.1 3.1 0 0 1-1.237.712c-.428.112-.9.112-1.853.112m10.193 0h5.774c.864 0 1.29 0 1.546-.165a1 1 0 0 0 .463-.794c.016-.293-.187-.636-.591-1.321l-.046-.074-2.893-4.876-.03-.06c-.407-.674-.617-1.02-.879-1.154a1 1 0 0 0-.923 0c-.268.134-.48.495-.9 1.214l-2.895 4.884v.015c-.427.718-.636 1.08-.622 1.372a1.02 1.02 0 0 0 .465.802c.248.157.675.157 1.53.157"/></g><defs><clipPath id="a"><path fill="#fff" d="M0 0h36v36H0z"/></clipPath></defs></svg>