<svg xmlns="http://www.w3.org/2000/svg" width="36" height="36" fill="none"><g clip-path="url(#a)"><rect width="36" height="36" fill="#F3BA2F" rx="10"/><path fill="#fff" d="m13.63 16.205 4.37-4.37 4.372 4.372 2.542-2.543L18 6.75l-6.912 6.912zM6.75 18l2.543-2.543L11.835 18l-2.543 2.543zm6.88 1.796L18 24.165l4.372-4.372 2.542 2.542L18 29.25l-6.912-6.912-.003-.003zM24.166 18l2.543-2.543L29.25 18l-2.543 2.543zm-3.587-.002h.003V18L18 20.58l-2.577-2.575-.005-.005.005-.003.45-.453.22-.219L18 15.419 20.58 18z"/></g><defs><clipPath id="a"><path fill="#fff" d="M0 0h36v36H0z"/></clipPath></defs></svg>