<svg xmlns="http://www.w3.org/2000/svg" width="36" height="36" fill="none"><g clip-path="url(#a)"><rect width="36" height="36" fill="#F7931A" rx="10"/><path fill="#fff" d="M26.088 15.773c.353-2.358-1.444-3.626-3.899-4.472l.797-3.195-1.944-.484-.776 3.11c-.511-.128-1.035-.247-1.558-.366l.782-3.131-1.944-.485-.797 3.194c-.423-.097-.84-.191-1.242-.293l.002-.01-2.682-.67-.517 2.078s1.443.33 1.413.35c.787.198.929.718.905 1.132l-.906 3.64q.082.02.202.064l-.206-.05-1.271 5.098c-.097.238-.34.597-.892.461.02.028-1.413-.352-1.413-.352l-.965 2.225 2.53.631c.471.118.932.242 1.386.358l-.805 3.231 1.943.484.797-3.195a89 89 0 0 0 1.55.401l-.794 3.182 1.944.484.804-3.225c3.317.628 5.81.375 6.86-2.624.845-2.415-.042-3.808-1.787-4.716 1.271-.293 2.227-1.129 2.483-2.855m-4.444 6.23c-.6 2.415-4.667 1.109-5.985.782l1.069-4.281c1.318.33 5.545.981 4.916 3.499m.602-6.265c-.548 2.197-3.932 1.08-5.029.806l.968-3.881c1.096.273 4.632.783 4.06 3.075"/></g><defs><clipPath id="a"><path fill="#fff" d="M0 0h36v36H0z"/></clipPath></defs></svg>