<svg xmlns="http://www.w3.org/2000/svg" width="36" height="36" fill="none"><g clip-path="url(#a)"><rect width="36" height="36" fill="#6F41D8" rx="10"/><path fill="#fff" d="M23.728 14.28c-.415-.242-.954-.242-1.41 0l-3.24 1.86-2.199 1.213-3.238 1.86c-.416.243-.954.243-1.411 0l-2.574-1.456c-.415-.242-.706-.686-.706-1.172v-2.871c0-.485.25-.93.706-1.173l2.531-1.415c.416-.243.956-.243 1.413 0l2.531 1.415c.417.243.707.688.707 1.173v1.86l2.2-1.254v-1.86a1.3 1.3 0 0 0-.706-1.172L13.64 8.62c-.416-.243-.954-.243-1.411 0l-4.775 2.668a1.3 1.3 0 0 0-.705 1.172v5.378c0 .486.249.93.705 1.173l4.775 2.669c.415.242.955.242 1.41 0l3.24-1.82 2.199-1.254 3.239-1.819c.415-.243.954-.243 1.41 0l2.533 1.416c.416.241.705.686.705 1.172v2.87c0 .486-.247.93-.705 1.173l-2.531 1.456c-.417.243-.957.243-1.412 0l-2.533-1.415c-.416-.244-.706-.688-.706-1.173v-1.86l-2.2 1.254v1.86c0 .484.25.93.706 1.172l4.774 2.668c.415.243.954.243 1.411 0l4.775-2.668c.415-.242.705-.686.705-1.172v-5.378a1.3 1.3 0 0 0-.705-1.172l-4.815-2.71z"/></g><defs><clipPath id="a"><path fill="#fff" d="M0 0h36v36H0z"/></clipPath></defs></svg>