<svg width="39" height="39" viewBox="0 0 39 39" fill="none" xmlns="http://www.w3.org/2000/svg">
<rect width="36" height="36" rx="10" fill="#0F0137"/>
<path d="M18 6L16.878 13.4865L18 17.2463L19.122 13.4865L18 6Z" fill="white"/>
<path d="M18 30L19.122 22.5135L18 18.7537L16.878 22.5135L18 30Z" fill="white"/>
<path d="M30 18L22.5135 16.878L18.7537 18L22.5135 19.122L30 18Z" fill="white"/>
<path d="M6 18L13.4865 19.122L17.2463 18L13.4865 16.878L6 18Z" fill="white"/>
<path d="M26.4338 9.4632L20.3742 14.0006L18.53 17.4638L21.9705 15.5776L26.4338 9.4632Z" fill="white"/>
<path d="M9.5662 26.5368L15.6258 21.9994L17.47 18.5362L14.0295 20.4224L9.5662 26.5368Z" fill="white"/>
<path d="M26.5362 26.4338L21.9988 20.3742L18.5356 18.53L20.4218 21.9705L26.5362 26.4338Z" fill="white"/>
<path d="M9.46382 9.5662L14.0012 15.6258L17.4644 17.47L15.5782 14.0295L9.46382 9.5662Z" fill="white"/>
<g clip-path="url(#clip0_42131_120838)">
<rect x="23" y="23" width="16" height="16" rx="4.44444" fill="#627EEA"/>
<path d="M31.249 25V29.435L34.9975 31.11L31.249 25Z" fill="white" fill-opacity="0.602"/>
<path d="M31.249 25L27.5 31.11L31.249 29.435V25Z" fill="white"/>
<path d="M31.249 33.984V36.9975L35 31.808L31.249 33.984Z" fill="white" fill-opacity="0.602"/>
<path d="M31.249 36.9975V33.9835L27.5 31.808L31.249 36.9975Z" fill="white"/>
<path d="M31.249 33.2865L34.9975 31.11L31.249 29.436V33.2865Z" fill="white" fill-opacity="0.2"/>
<path d="M27.5 31.11L31.249 33.2865V29.436L27.5 31.11Z" fill="white" fill-opacity="0.602"/>
</g>
<defs>
<clipPath id="clip0_42131_120838">
<rect width="16" height="16" fill="white" transform="translate(23 23)"/>
</clipPath>
</defs>
</svg>
