<svg xmlns="http://www.w3.org/2000/svg" width="36" height="36" fill="none"><g clip-path="url(#a)"><rect width="36" height="36" fill="#FF007A" rx="12"/><g fill="#fff" clip-path="url(#b)"><path d="M15.236 11.461c-.262-.037-.275-.05-.15-.062.237-.037.786.013 1.173.1.898.21 1.71.755 2.57 1.708l.225.26.325-.049c1.385-.223 2.807-.05 3.992.495.325.149.837.446.899.52.025.025.062.186.087.347.088.582.05 1.016-.137 1.35-.1.186-.1.235-.037.396.05.124.2.21.336.21.3 0 .612-.47.762-1.126l.062-.26.112.124c.637.706 1.136 1.684 1.21 2.377l.026.186-.113-.16a2.1 2.1 0 0 0-.599-.632c-.424-.285-.873-.372-2.058-.434-1.074-.062-1.685-.148-2.284-.347-1.023-.334-1.547-.767-2.758-2.365-.536-.706-.873-1.09-1.21-1.412-.736-.706-1.472-1.077-2.433-1.226"/><path d="M24.532 13.034c.025-.47.087-.78.224-1.065.05-.111.1-.21.113-.21s-.013.086-.05.185c-.1.273-.112.657-.05 1.09.087.557.125.632.724 1.238.274.285.599.644.723.793l.212.273-.212-.199c-.262-.247-.86-.718-.998-.78-.087-.05-.1-.05-.162.012-.05.05-.062.124-.062.483-.013.558-.088.905-.275 1.264-.1.185-.112.148-.025-.062.063-.161.075-.236.075-.768 0-1.078-.125-1.338-.886-1.771a9 9 0 0 0-.699-.36c-.2-.086-.35-.16-.337-.16.025-.025.761.186 1.048.31.437.173.512.185.562.173.037-.037.062-.136.075-.446M15.748 14.88c-.524-.719-.861-1.834-.787-2.663l.025-.26.125.024c.225.038.612.186.799.298.499.297.724.706.936 1.721.062.297.15.644.187.755.062.186.3.62.499.892.137.198.05.297-.262.272-.474-.049-1.11-.482-1.522-1.04M23.896 20.266c-2.471-.99-3.344-1.845-3.344-3.294 0-.21.012-.384.012-.384.012 0 .1.075.212.161.5.396 1.06.57 2.62.793.911.136 1.435.235 1.91.396 1.51.495 2.445 1.51 2.67 2.886.062.396.025 1.151-.075 1.547-.087.31-.337.88-.4.892-.012 0-.037-.062-.037-.16-.025-.521-.287-1.016-.724-1.4-.524-.446-1.197-.78-2.844-1.437M22.149 20.675a3 3 0 0 0-.125-.52l-.062-.186.112.136c.162.186.287.409.4.718.086.236.086.31.086.694 0 .372-.012.458-.087.669a2.24 2.24 0 0 1-.524.83c-.45.458-1.036.705-1.872.817-.15.012-.574.05-.948.074-.936.05-1.56.149-2.121.347-.075.025-.15.05-.162.037-.025-.025.361-.248.673-.396.437-.21.886-.322 1.872-.496.487-.074.986-.173 1.11-.223 1.236-.383 1.847-1.337 1.648-2.501"/><path d="M23.284 22.669q-.487-1.06-.224-2.006c.024-.062.05-.124.074-.124.025 0 .1.037.175.086.15.1.462.273 1.26.706 1.011.545 1.585.966 1.984 1.45.35.42.562.903.662 1.498.062.334.024 1.139-.063 1.473-.274 1.053-.898 1.895-1.81 2.378-.136.074-.249.124-.261.124s.037-.124.112-.273c.3-.631.337-1.238.112-1.92-.137-.42-.424-.928-.998-1.782-.686-.991-.848-1.251-1.023-1.61M13.988 26.458c.924-.768 2.059-1.312 3.107-1.486.45-.074 1.198-.05 1.61.062.661.173 1.26.545 1.572 1.003.3.446.437.83.574 1.684.05.335.112.681.125.756.1.446.3.792.549.978.387.285 1.06.297 1.722.05.112-.037.212-.075.212-.062.025.024-.312.247-.537.359-.312.16-.561.21-.898.21q-.902 0-1.522-.928c-.088-.124-.262-.483-.412-.818-.437-1.003-.662-1.3-1.173-1.634-.45-.285-1.023-.347-1.46-.137-.574.273-.724 1.003-.324 1.45.162.185.461.334.71.37a.76.76 0 0 0 .862-.755c0-.297-.112-.47-.412-.606-.4-.174-.836.024-.823.408 0 .161.074.26.237.335.1.05.1.05.024.037-.361-.075-.449-.52-.162-.805.35-.347 1.086-.198 1.335.285.1.198.113.594.025.842-.212.545-.81.83-1.422.668-.412-.111-.587-.223-1.086-.73-.873-.892-1.21-1.065-2.458-1.251l-.237-.037z"/><path fill-rule="evenodd" d="M7.425 6.533c2.907 3.504 7.387 8.953 7.611 9.25.187.248.113.483-.2.657a1.9 1.9 0 0 1-.71.198c-.2 0-.437-.1-.6-.26-.112-.112-.598-.818-1.697-2.514-.836-1.3-1.547-2.378-1.56-2.39-.05-.025-.05-.025 1.473 2.675.96 1.696 1.273 2.303 1.273 2.377 0 .161-.05.248-.25.47-.337.372-.486.794-.599 1.673-.124.978-.461 1.672-1.422 2.848-.562.694-.649.817-.786 1.102-.175.347-.225.545-.25.99-.025.471.025.769.162 1.214.125.397.263.657.6 1.165.286.445.461.78.461.904 0 .099.025.099.474 0 1.073-.248 1.96-.67 2.446-1.19.3-.321.374-.495.374-.94 0-.285-.012-.347-.087-.52-.125-.273-.362-.496-.874-.843-.673-.458-.96-.83-1.035-1.325-.063-.42.012-.706.387-1.486.386-.805.486-1.14.549-1.956.037-.52.1-.731.25-.892.161-.173.299-.235.685-.285.637-.087 1.049-.248 1.373-.557.287-.26.412-.52.424-.904l.013-.285-.163-.173C15.161 14.866 7.038 6 7.001 6c-.013 0 .187.235.424.533m3.83 17.61a.51.51 0 0 0-.162-.682c-.212-.136-.536-.074-.536.112 0 .05.025.099.1.124.112.062.124.123.037.26-.087.136-.087.26.025.346.175.137.412.062.537-.16M16.31 17.629c-.3.086-.587.408-.675.73-.05.198-.025.557.063.669.137.173.262.223.611.223.686 0 1.273-.297 1.335-.657.063-.297-.2-.706-.561-.891-.187-.1-.574-.136-.774-.075m.798.619c.1-.149.062-.31-.125-.421-.337-.21-.849-.038-.849.284 0 .161.262.335.512.335.162 0 .387-.1.462-.198" clip-rule="evenodd"/></g></g><defs><clipPath id="a"><path fill="#fff" d="M0 0h36v36H0z"/></clipPath><clipPath id="b"><path fill="#fff" d="M6 6h24v24H6z"/></clipPath></defs></svg>