<svg xmlns="http://www.w3.org/2000/svg" width="36" height="36" fill="none"><g clip-path="url(#a)"><rect width="36" height="36" fill="#E6007A" rx="10"/><path fill="#fff" d="M22.119 8.718c0 1.327-1.848 2.406-4.125 2.406s-4.126-1.08-4.126-2.406 1.858-2.406 4.126-2.406 4.125 1.08 4.125 2.406m0 18.563c0 1.327-1.848 2.407-4.125 2.407s-4.126-1.08-4.126-2.407 1.858-2.405 4.126-2.405 4.125 1.079 4.125 2.405M12.047 14.663c1.169-2.013 1.176-4.193.028-4.853-1.156-.666-3.026.434-4.194 2.449-1.168 2.012-1.168 4.193-.029 4.853 1.155.66 3.025-.435 4.195-2.45m16.076 4.218c1.155.652 1.148 2.791-.015 4.77-1.168 1.98-3.045 3.053-4.193 2.4-1.162-.654-1.156-2.791.006-4.773 1.169-1.978 3.047-3.05 4.202-2.397M12.08 26.065c1.155-.655 1.149-2.793-.021-4.771-1.16-1.98-3.039-3.053-4.193-2.4-1.161.66-1.156 2.791.014 4.77 1.162 1.981 3.04 3.061 4.194 2.406zm16.04-13.798c1.168 2.013 1.168 4.186.02 4.846-1.147.667-3.024-.426-4.194-2.447-1.155-2.015-1.167-4.186-.02-4.848 1.155-.666 3.025.427 4.195 2.449"/></g><defs><clipPath id="a"><path fill="#fff" d="M0 0h36v36H0z"/></clipPath></defs></svg>