<svg width="36" height="36" viewBox="0 0 36 36" fill="none" xmlns="http://www.w3.org/2000/svg">
<g clip-path="url(#clip0_20504_37183)">
<rect x="0.5" y="0.5" width="35" height="35" rx="9.5" fill="white" stroke="#E1EAF8" stroke-linecap="round"/>
<path d="M18.7 22C18.7 22.3866 18.3866 22.7 18 22.7C17.6134 22.7 17.3 22.3866 17.3 22H18.7ZM18 14L17.505 13.505C17.7784 13.2317 18.2216 13.2317 18.495 13.505L18 14ZM20.895 15.905C21.1683 16.1784 21.1683 16.6216 20.895 16.895C20.6216 17.1683 20.1784 17.1683 19.905 16.895L20.895 15.905ZM16.095 16.895C15.8216 17.1683 15.3784 17.1683 15.105 16.895C14.8317 16.6216 14.8317 16.1784 15.105 15.905L16.095 16.895ZM11.1712 11.1712L10.6759 10.6766L10.6764 10.6761L11.1712 11.1712ZM11.1712 24.828L10.6764 25.3231L10.6762 25.323L11.1712 24.828ZM24.828 24.828L24.3329 24.3332L24.3334 24.3327L24.828 24.828ZM24.828 11.1712L24.333 11.6662L24.3329 11.666L24.828 11.1712ZM17.3 22V14H18.7V22H17.3ZM18.495 13.505L20.895 15.905L19.905 16.895L17.505 14.495L18.495 13.505ZM18.495 14.495L16.095 16.895L15.105 15.905L17.505 13.505L18.495 14.495ZM18 10.7C16.0946 10.7 14.736 10.7015 13.7041 10.8402C12.6924 10.9761 12.1003 11.2324 11.666 11.6663L10.6764 10.6761C11.4141 9.93884 12.3508 9.60946 13.5177 9.45264C14.6644 9.29851 16.1342 9.3 18 9.3V10.7ZM11.6665 11.6658C11.2323 12.1006 10.9761 12.6929 10.8402 13.7044C10.7015 14.7362 10.7 16.0946 10.7 18H9.3C9.3 16.1342 9.29851 14.6646 9.45264 13.518C9.60948 12.3511 9.93886 11.4146 10.6759 10.6766L11.6665 11.6658ZM10.7 18C10.7 19.9054 10.7015 21.264 10.8402 22.2958C10.9761 23.3074 11.2323 23.8992 11.6662 24.333L10.6762 25.323C9.93885 24.5856 9.60947 23.649 9.45264 22.4822C9.29851 21.3356 9.3 19.8658 9.3 18H10.7ZM11.666 24.3329C12.1008 24.7673 12.6931 25.0237 13.7045 25.1597C14.7362 25.2985 16.0946 25.3 18 25.3V26.7C16.1342 26.7 14.6646 26.7015 13.5179 26.5473C12.3509 26.3903 11.4144 26.0607 10.6764 25.3231L11.666 24.3329ZM18 25.3C19.9054 25.3 21.264 25.2985 22.2957 25.1597C23.3072 25.0237 23.899 24.7673 24.3329 24.3332L25.3231 25.3228C24.5858 26.0607 23.6492 26.3903 22.4823 26.5473C21.3356 26.7015 19.8658 26.7 18 26.7V25.3ZM24.3334 24.3327C24.7673 23.8993 25.0237 23.3077 25.1597 22.296C25.2985 21.2642 25.3 19.9054 25.3 18H26.7C26.7 19.8658 26.7015 21.3358 26.5473 22.4826C26.3903 23.6495 26.0607 24.5863 25.3226 25.3233L24.3334 24.3327ZM25.3 18C25.3 16.0946 25.2985 14.736 25.1597 13.7042C25.0237 12.6926 24.7673 12.1005 24.333 11.6662L25.323 10.6762C26.0607 11.4139 26.3903 12.3506 26.5473 13.5176C26.7015 14.6644 26.7 16.1342 26.7 18H25.3ZM24.3329 11.666C23.8995 11.2324 23.3079 10.9761 22.2961 10.8402C21.2642 10.7015 19.9054 10.7 18 10.7V9.3C19.8658 9.3 21.3358 9.29852 22.4825 9.45264C23.6493 9.60946 24.5861 9.93884 25.3231 10.6764L24.3329 11.666Z" fill="#494949"/>
</g>
<defs>
<clipPath id="clip0_20504_37183">
<rect width="36" height="36" fill="white"/>
</clipPath>
</defs>
</svg>
