<svg width="36" height="36" viewBox="0 0 36 36" fill="none" xmlns="http://www.w3.org/2000/svg">
<g clip-path="url(#clip0_20480_35468)">
<rect width="36" height="36" rx="10" fill="#252A34"/>
<g clip-path="url(#clip1_20480_35468)">
<path d="M11.2497 22.2123C11.3704 22.0892 11.5363 22.0173 11.7124 22.0173H27.6741C27.9658 22.0173 28.1116 22.3766 27.9055 22.5871L24.7523 25.8055C24.6316 25.9287 24.4657 26.0006 24.2897 26.0006H8.32789C8.03622 26.0006 7.89038 25.6413 8.09656 25.4308L11.2497 22.2123Z" fill="url(#paint0_linear_20480_35468)"/>
<path d="M11.2497 10.1951C11.3754 10.0719 11.5414 10 11.7124 10H27.6741C27.9658 10 28.1116 10.3593 27.9055 10.5698L24.7523 13.7883C24.6316 13.9115 24.4657 13.9833 24.2897 13.9833H8.32789C8.03622 13.9833 7.89038 13.624 8.09656 13.4135L11.2497 10.1951Z" fill="url(#paint1_linear_20480_35468)"/>
<path d="M24.7523 16.1648C24.6316 16.0416 24.4657 15.9697 24.2897 15.9697H8.32789C8.03622 15.9697 7.89038 16.3291 8.09656 16.5395L11.2497 19.758C11.3704 19.8812 11.5363 19.9531 11.7124 19.9531H27.6741C27.9658 19.9531 28.1116 19.5937 27.9055 19.3833L24.7523 16.1648Z" fill="url(#paint2_linear_20480_35468)"/>
</g>
</g>
<defs>
<linearGradient id="paint0_linear_20480_35468" x1="26.1493" y1="8.07797" x2="14.7422" y2="29.4836" gradientUnits="userSpaceOnUse">
<stop stop-color="#00FFA3"/>
<stop offset="1" stop-color="#DC1FFF"/>
</linearGradient>
<linearGradient id="paint1_linear_20480_35468" x1="21.319" y1="5.5033" x2="9.91191" y2="26.9089" gradientUnits="userSpaceOnUse">
<stop stop-color="#00FFA3"/>
<stop offset="1" stop-color="#DC1FFF"/>
</linearGradient>
<linearGradient id="paint2_linear_20480_35468" x1="23.7188" y1="6.78204" x2="12.3117" y2="28.1877" gradientUnits="userSpaceOnUse">
<stop stop-color="#00FFA3"/>
<stop offset="1" stop-color="#DC1FFF"/>
</linearGradient>
<clipPath id="clip0_20480_35468">
<rect width="36" height="36" fill="white"/>
</clipPath>
<clipPath id="clip1_20480_35468">
<rect width="20" height="16" fill="white" transform="translate(8 10)"/>
</clipPath>
</defs>
</svg>
