<svg xmlns="http://www.w3.org/2000/svg" width="36" height="36" fill="none"><g clip-path="url(#a)"><rect width="36" height="36" fill="#3367F6" rx="10"/><path fill="#fff" fill-rule="evenodd" d="m17.966 8-5.965 3.384v13.13L17.966 28l6.035-3.486v-13.13zm.035 1L13.5 11.7l4.5 2.624 4.5-2.625zM13 12.5V17l4-2.24zm5.5 3.249v4.5l4-2.24zm4.5-3.25V17l-4-2.24zm-5.5 3.249v4.5l-4.001-2.24zM13 18.78V24l5 2.999 5-3v-5.22l-5 2.72z" clip-rule="evenodd"/><path fill="#fff" d="M9.5 25.595V22.5h1v2.6l2.5 1.29v1.11zm17-15.19V13.5h-1v-2.6L23 9.612V8.5z"/></g><defs><clipPath id="a"><path fill="#fff" d="M0 0h36v36H0z"/></clipPath></defs></svg>