<svg xmlns="http://www.w3.org/2000/svg" width="36" height="36" fill="none"><g clip-path="url(#a)"><rect width="36" height="36" fill="#674A38" rx="10"/><path fill="#EDE2D4" d="M27.463 16.02a1.5 1.5 0 0 0-.084-.296c.015-.022 3.28-4.18.256-6.75-3.02-2.57-6.545.782-6.564.8a8.5 8.5 0 0 0-1.687-.306h-.005c-1.15-.175-2.763 0-2.763 0a8.7 8.7 0 0 0-1.672.301c-.02-.018-3.545-3.37-6.564-.8s.24 6.733.256 6.75a2 2 0 0 0-.084.297C8.227 17.796 6 18.344 6 21.445c0 3.16 2.326 5.649 7.076 5.649h1.947c.01.009.762.989 2.316 1.047 0 0 .359.036 1.185.009 1.647 0 2.448-1.038 2.453-1.052h1.947c4.75 0 7.076-2.49 7.076-5.649.015-3.096-2.213-3.649-2.537-5.428"/></g><defs><clipPath id="a"><path fill="#fff" d="M0 0h36v36H0z"/></clipPath></defs></svg>