<svg xmlns="http://www.w3.org/2000/svg" width="36" height="36" fill="none"><g clip-path="url(#a)"><rect width="36" height="36" fill="#2081E2" rx="12"/><path fill="#fff" d="M29.245 20.221v1.11a.16.16 0 0 1-.095.146c-.347.148-1.535.694-2.03 1.38-1.26 1.755-2.223 4.264-4.376 4.264h-8.981C10.58 27.12 8 24.533 8 21.339v-.103c0-.085.069-.154.154-.154h5.007c.099 0 .172.092.163.19-.036.325.024.658.179.96.297.604.913.982 1.579.982h2.478v-1.936h-2.45a.158.158 0 0 1-.127-.247q.04-.061.088-.131c.232-.33.563-.841.893-1.424.224-.393.442-.813.617-1.234q.052-.115.092-.23c.048-.135.098-.26.133-.386.036-.106.064-.218.092-.322.084-.358.119-.737.119-1.13 0-.154-.007-.315-.021-.469-.007-.168-.029-.336-.05-.505a5 5 0 0 0-.069-.45 8 8 0 0 0-.142-.672l-.02-.085c-.042-.154-.077-.301-.127-.455-.14-.483-.3-.954-.47-1.395a9 9 0 0 0-.204-.512c-.104-.253-.21-.483-.308-.7-.05-.1-.092-.19-.135-.282a10 10 0 0 0-.147-.308c-.035-.077-.076-.147-.104-.218l-.303-.56a.099.099 0 0 1 .112-.143l1.894.513h.005q.006.001.007.002l.25.07.274.077.101.028V8.984c0-.543.436-.984.974-.984.27 0 .514.11.689.289a1 1 0 0 1 .285.695v1.672l.202.056a.2.2 0 0 1 .046.023l.21.16c.071.056.147.125.24.196.182.147.4.337.639.554q.095.083.182.169c.308.286.653.623.983.995q.137.155.274.322c.092.113.19.225.274.336.112.149.232.303.337.464.05.076.106.154.154.23.134.204.253.415.366.625.048.098.098.204.14.308q.191.424.289.855c.02.062.033.13.04.19v.014c.022.085.029.175.036.267a2.9 2.9 0 0 1-.154 1.254c-.043.12-.085.246-.14.364a5 5 0 0 1-.38.723 4 4 0 0 1-.162.26q-.095.134-.182.258a5 5 0 0 1-.246.317 3 3 0 0 1-.24.301c-.118.14-.231.273-.35.4-.07.084-.147.169-.225.245-.076.085-.154.161-.225.232a9 9 0 0 1-.3.287l-.195.178a.16.16 0 0 1-.105.04h-1.508v1.935h1.898c.425 0 .828-.151 1.154-.427.112-.098.599-.519 1.174-1.154a.15.15 0 0 1 .073-.045l5.242-1.515a.155.155 0 0 1 .196.148"/></g><defs><clipPath id="a"><path fill="#fff" d="M0 0h36v36H0z"/></clipPath></defs></svg>