<svg width="36" height="36" viewBox="0 0 36 36" fill="none" xmlns="http://www.w3.org/2000/svg">
<g clip-path="url(#clip0_52314_201695)">
<rect width="36" height="36" rx="10" fill="#3367F6"/>
<path fill-rule="evenodd" clip-rule="evenodd" d="M17.966 8L12.001 11.384V24.514L17.966 28L24.001 24.514V11.384L17.966 8ZM18.001 9L13.5 11.7L18 14.324L22.5 11.699L18.001 9ZM13 12.5V17L17 14.76L13 12.5ZM18.5 15.749V20.249L22.5 18.009L18.5 15.749ZM23 12.499V17L19 14.76L23 12.499ZM17.5 15.748V20.248L13.499 18.008L17.5 15.748ZM13 18.78V24L18 26.999L23 23.999V18.779L18 21.499L13 18.78Z" fill="white"/>
<path d="M9.5 25.595V22.5H10.5V25.1L13 26.39V27.5L9.5 25.595ZM26.5 10.405V13.5H25.5V10.9L23 9.612V8.5L26.5 10.405Z" fill="white"/>
</g>
<defs>
<clipPath id="clip0_52314_201695">
<rect width="36" height="36" fill="white"/>
</clipPath>
</defs>
</svg>
