<svg width="36" height="36" viewBox="0 0 36 36" fill="none" xmlns="http://www.w3.org/2000/svg">
<rect x="0.5" y="0.5" width="35" height="35" rx="9.5" fill="white" stroke="#E1EAF8" stroke-linecap="round"/>
<path d="M23.2754 14.1605C23.2754 12.9945 23.0063 11.9182 22.2888 11.1109C21.5712 10.3037 20.4949 9.85522 19.1495 9.94491H14.1267C12.7812 9.94491 11.7049 10.3037 10.9874 11.1109C10.2698 11.9182 10.0008 12.9945 10.0008 14.1605V21.6948C10.0008 22.9505 10.2698 24.0268 10.9874 24.834C11.7049 25.5516 12.7812 26 14.1267 26H19.1495C20.4949 26 21.5712 25.6413 22.2888 24.834C23.0063 24.0268 23.2754 22.8608 23.2754 21.6948" stroke="#0166FF" stroke-width="1.3" stroke-linecap="round"/>
<path d="M27.3986 17.9279H19.3262" stroke="#0166FF" stroke-width="1.3" stroke-linecap="round"/>
<path d="M27.3986 17.9279L25.1562 15.6855" stroke="#0166FF" stroke-width="1.3" stroke-linecap="round"/>
<path d="M27.3986 18.0172L25.1562 20.3493" stroke="#0166FF" stroke-width="1.3" stroke-linecap="round"/>
</svg>
