<svg width="36" height="36" viewBox="0 0 36 36" fill="none" xmlns="http://www.w3.org/2000/svg">
<g clip-path="url(#clip0_52314_201704)">
<rect width="36" height="36" rx="10" fill="#0033AD"/>
<g clip-path="url(#clip1_52314_201704)">
<path d="M17.1957 29.1953C17.2 29.1004 17.2231 29.0073 17.2637 28.9214C17.3042 28.8354 17.3614 28.7584 17.432 28.6947C17.5025 28.6311 17.585 28.5821 17.6746 28.5505C17.7642 28.5189 17.8592 28.5055 17.9541 28.5109C18.0489 28.5163 18.1418 28.5405 18.2272 28.582C18.3127 28.6236 18.389 28.6817 18.4519 28.7529C18.5147 28.8242 18.5628 28.9073 18.5933 28.9972C18.6238 29.0872 18.6362 29.1824 18.6297 29.2772C18.6167 29.4657 18.5299 29.6416 18.3881 29.7666C18.2463 29.8916 18.061 29.9557 17.8723 29.9449C17.6835 29.9341 17.5067 29.8494 17.38 29.7091C17.2534 29.5688 17.1872 29.3842 17.1957 29.1953ZM11.314 28.4183C11.3962 28.2932 11.5247 28.2058 11.6713 28.1754C11.8179 28.1449 11.9706 28.174 12.0958 28.2562C12.2209 28.3384 12.3083 28.4669 12.3388 28.6135C12.3692 28.7601 12.3401 28.9128 12.2579 29.038C12.2172 29.1 12.1647 29.1533 12.1034 29.195C12.0421 29.2367 11.9732 29.2659 11.9006 29.2809C11.828 29.296 11.7531 29.2966 11.6803 29.2827C11.6074 29.2688 11.5381 29.2407 11.4761 29.2C11.4141 29.1594 11.3607 29.1069 11.3191 29.0455C11.2774 28.9842 11.2482 28.9153 11.2331 28.8427C11.2181 28.7701 11.2175 28.6953 11.2313 28.6224C11.2452 28.5496 11.2733 28.4803 11.314 28.4183ZM23.9295 28.1969C23.9957 28.1634 24.0678 28.1433 24.1417 28.1377C24.2157 28.1321 24.29 28.1412 24.3604 28.1644C24.4309 28.1876 24.496 28.2245 24.5522 28.2729C24.6083 28.3214 24.6544 28.3804 24.6877 28.4467C24.738 28.5464 24.7576 28.6588 24.744 28.7696C24.7304 28.8804 24.6843 28.9848 24.6114 29.0694C24.5386 29.154 24.4422 29.2151 24.3347 29.245C24.2271 29.2748 24.113 29.2721 24.007 29.2372C23.9009 29.2022 23.8076 29.1366 23.7388 29.0486C23.6701 28.9607 23.6289 28.8543 23.6206 28.7429C23.6123 28.6315 23.6373 28.5202 23.6922 28.423C23.7472 28.3258 23.8298 28.2471 23.9295 28.1969ZM12.6774 25.4303C12.8041 25.237 13.0023 25.1018 13.2285 25.0546C13.4548 25.0073 13.6905 25.0519 13.8839 25.1783C14.0773 25.3051 14.2125 25.5035 14.2597 25.7299C14.3069 25.9563 14.2623 26.1922 14.1357 26.3857C14.0083 26.5775 13.8102 26.7111 13.5846 26.7574C13.3591 26.8037 13.1244 26.7588 12.9318 26.6326C12.7392 26.5064 12.6044 26.3091 12.5567 26.0839C12.5091 25.8586 12.5525 25.6236 12.6774 25.4303ZM22.1585 25.1087C22.2604 25.0567 22.3717 25.0253 22.4858 25.0163C22.5999 25.0073 22.7147 25.021 22.8236 25.0564C22.9324 25.0918 23.0332 25.1484 23.1202 25.2228C23.2072 25.2972 23.2787 25.3881 23.3305 25.4901C23.4085 25.6429 23.4397 25.8152 23.4203 25.9856C23.4009 26.156 23.3317 26.3169 23.2214 26.4482C23.111 26.5795 22.9645 26.6753 22.8 26.7238C22.6355 26.7723 22.4604 26.7712 22.2965 26.7208C22.1326 26.6703 21.9872 26.5727 21.8785 26.44C21.7697 26.3074 21.7025 26.1457 21.6852 25.9751C21.6678 25.8045 21.7011 25.6325 21.7809 25.4807C21.8607 25.329 21.9835 25.204 22.1339 25.1216L22.1585 25.1087ZM16.9759 24.5762C17.0646 24.3935 17.2057 24.2412 17.3811 24.1387C17.5565 24.0362 17.7584 23.9881 17.9612 24.0005C18.5254 24.0342 18.9559 24.5185 18.9234 25.0829C18.9148 25.2346 18.8727 25.3824 18.8 25.5158C18.7274 25.6491 18.626 25.7647 18.5033 25.8542C18.3805 25.9436 18.2395 26.0047 18.0903 26.0331C17.9411 26.0614 17.7874 26.0563 17.6404 26.018C17.4934 25.9798 17.3568 25.9094 17.2403 25.8119C17.1238 25.7145 17.0304 25.5924 16.9668 25.4544C16.9033 25.3165 16.8711 25.1662 16.8727 25.0143C16.8742 24.8624 16.9095 24.7128 16.9759 24.5762ZM7.89942 22.9876C8.06901 22.9032 8.26507 22.8893 8.44491 22.9487C8.62476 23.0082 8.77382 23.1363 8.85964 23.3052C8.94547 23.4741 8.9611 23.67 8.90314 23.8504C8.84517 24.0307 8.71831 24.1808 8.55017 24.2681C8.38203 24.3553 8.18623 24.3726 8.00541 24.3162C7.82459 24.2597 7.67339 24.1341 7.58474 23.9667C7.49609 23.7993 7.47716 23.6037 7.53207 23.4224C7.58699 23.2411 7.71131 23.0888 7.87795 22.9988L7.89942 22.9876ZM27.1241 23.1919C27.1754 23.112 27.2419 23.043 27.32 22.989C27.398 22.935 27.486 22.897 27.5788 22.8772C27.6716 22.8574 27.7675 22.8561 27.8608 22.8736C27.9541 22.891 28.043 22.9268 28.1224 22.9788C28.2017 23.0309 28.27 23.0981 28.3233 23.1767C28.3765 23.2553 28.4136 23.3436 28.4325 23.4366C28.4514 23.5296 28.4517 23.6255 28.4333 23.7186C28.4149 23.8117 28.3783 23.9003 28.3254 23.9791C28.2202 24.1364 28.0571 24.2457 27.8716 24.2833C27.6862 24.321 27.4934 24.2839 27.3351 24.1802C27.1768 24.0765 27.0659 23.9145 27.0264 23.7294C26.9869 23.5444 27.022 23.3512 27.1241 23.1919ZM15.0828 20.007C15.4246 19.8225 15.8181 19.7572 16.2011 19.8216C16.5841 19.8859 16.9348 20.0762 17.1975 20.3623C17.4602 20.6483 17.6199 21.0138 17.6515 21.4009C17.6831 21.788 17.5846 22.1746 17.3717 22.4994C17.2134 22.7425 16.9967 22.9419 16.7415 23.0797C16.4863 23.2175 16.2006 23.2891 15.9106 23.2881C15.5222 23.2878 15.145 23.158 14.8388 22.9192C14.5325 22.6804 14.3146 22.3463 14.2196 21.9697C14.1247 21.5932 14.158 21.1957 14.3143 20.8402C14.4706 20.4847 14.7411 20.1915 15.0828 20.007ZM19.4921 19.8757C19.8881 19.7483 20.3166 19.7664 20.7004 19.9269C21.0842 20.0875 21.398 20.3798 21.5853 20.7512C22.0161 21.6109 21.6708 22.6573 20.8126 23.0916C20.569 23.2153 20.3 23.2806 20.0268 23.2824C19.6108 23.2824 19.2086 23.1338 18.8925 22.8634C18.5763 22.5931 18.3672 22.2187 18.3027 21.8077C18.2382 21.3968 18.3226 20.9763 18.5407 20.6221C18.7588 20.2679 19.0962 20.0032 19.4921 19.8757ZM11.0878 20.8449C11.1868 20.7298 11.3101 20.6382 11.4487 20.5765C11.5874 20.5149 11.7381 20.4847 11.8898 20.4883C12.0415 20.4919 12.1906 20.5291 12.3262 20.5972C12.4618 20.6653 12.5807 20.7626 12.6741 20.8822C12.7676 21.0018 12.8334 21.1406 12.8668 21.2887C12.9001 21.4367 12.9002 21.5903 12.8671 21.7384C12.8339 21.8866 12.7683 22.0255 12.675 22.1452C12.5817 22.2649 12.463 22.3624 12.3275 22.4307C12.1155 22.5375 11.8731 22.5675 11.6414 22.5157C11.4098 22.4638 11.2033 22.3333 11.0571 22.1463C10.9109 21.9593 10.8341 21.7274 10.8397 21.4901C10.8453 21.2528 10.933 21.0248 11.0878 20.8449ZM23.2143 20.9238C23.5252 20.45 24.1615 20.3181 24.6352 20.6292C25.1081 20.9409 25.2398 21.5762 24.9299 22.0502C24.6189 22.5239 23.9827 22.6559 23.5089 22.3449C23.0351 22.0338 22.9032 21.3977 23.2143 20.9238ZM12.0986 17.8882C12.1531 16.939 12.9571 16.2082 13.9072 16.2443C14.8571 16.2803 15.6034 17.07 15.586 18.0205C15.5688 18.9602 14.8109 19.7154 13.8749 19.7333L13.8429 19.7336H13.7475C12.7945 19.6779 12.0642 18.869 12.1019 17.9189L12.1034 17.8872L12.0986 17.8882ZM20.3325 17.8686C20.3878 16.906 21.213 16.1705 22.1756 16.2258C22.4042 16.2376 22.6282 16.2947 22.8346 16.3939C23.0409 16.4932 23.2254 16.6325 23.3773 16.8037C23.5996 17.0526 23.7459 17.3601 23.7989 17.6896C23.8518 18.0191 23.8092 18.3569 23.676 18.6629C23.5428 18.9689 23.3247 19.2304 23.0475 19.4162C22.7702 19.602 22.4455 19.7045 22.1119 19.7114L22.0763 19.7118H21.9752C21.0126 19.6565 20.2771 18.8313 20.3324 17.8688M7.9459 17.9482C7.95907 17.7174 8.06332 17.5013 8.23573 17.3474C8.40815 17.1935 8.63463 17.1143 8.8654 17.1273C9.09627 17.1406 9.31242 17.245 9.46637 17.4175C9.62032 17.5901 9.69948 17.8167 9.68646 18.0476C9.67327 18.2784 9.56894 18.4945 9.3964 18.6484C9.22387 18.8023 8.99727 18.8813 8.76646 18.8682C8.53565 18.855 8.31953 18.7506 8.16564 18.5781C8.01176 18.4056 7.93272 18.179 7.9459 17.9482ZM26.2364 17.9087C26.2508 17.6787 26.3555 17.4638 26.5278 17.3109C26.7001 17.158 26.9259 17.0795 27.1559 17.0926C27.3859 17.1056 27.6014 17.2092 27.7552 17.3807C27.9091 17.5521 27.9888 17.7775 27.977 18.0076C27.9637 18.2385 27.8593 18.4547 27.6868 18.6086C27.5142 18.7626 27.2876 18.8418 27.0567 18.8288C26.8259 18.8154 26.6099 18.7111 26.4561 18.5385C26.3023 18.366 26.2233 18.1394 26.2364 17.9087ZM5.57406 17.4439L5.59512 17.4448C5.66914 17.4488 5.74163 17.4674 5.80844 17.4995C5.87525 17.5316 5.93505 17.5766 5.98442 17.6319C6.03378 17.6872 6.07173 17.7517 6.09609 17.8218C6.12045 17.8918 6.13074 17.9659 6.12636 18.0399C6.12001 18.1503 6.08134 18.2563 6.01518 18.3449C5.94901 18.4334 5.85827 18.5006 5.75424 18.5379C5.65021 18.5753 5.53749 18.5813 5.43009 18.5551C5.3227 18.5289 5.22538 18.4717 5.15024 18.3906C5.0751 18.3096 5.02546 18.2082 5.00749 18.0991C4.98953 17.99 5.00403 17.8781 5.0492 17.7772C5.09437 17.6763 5.16821 17.5909 5.26153 17.5317C5.35485 17.4724 5.46353 17.4419 5.57406 17.4439ZM30.3684 17.3857L30.3919 17.3866C30.5413 17.3955 30.6811 17.4632 30.7806 17.5749C30.8802 17.6866 30.9314 17.8333 30.9231 17.9827C30.9168 18.0932 30.8781 18.1993 30.8119 18.288C30.7457 18.3766 30.6549 18.4439 30.5507 18.4814C30.4466 18.5189 30.3338 18.5249 30.2263 18.4988C30.1187 18.4727 30.0213 18.4156 29.9459 18.3345C29.8706 18.2535 29.8208 18.152 29.8026 18.0429C29.7844 17.9337 29.7987 17.8217 29.8438 17.7206C29.8888 17.6195 29.9625 17.5339 30.0558 17.4743C30.149 17.4148 30.2577 17.384 30.3684 17.3857ZM15.8954 12.6761C16.2183 12.6745 16.5354 12.7629 16.8109 12.9314C17.0865 13.0998 17.3098 13.3416 17.4557 13.6298C17.5905 13.896 17.6548 14.1924 17.6425 14.4906C17.6302 14.7888 17.5416 15.0788 17.3853 15.3331C17.229 15.5873 17.0102 15.7973 16.7496 15.9429C16.4891 16.0885 16.1956 16.1649 15.8972 16.1648C15.5735 16.1658 15.256 16.0764 14.9803 15.9067C14.7047 15.737 14.4819 15.4938 14.337 15.2044C14.2037 14.9383 14.1407 14.6427 14.1538 14.3455C14.1668 14.0482 14.2557 13.7593 14.4118 13.506C14.5679 13.2527 14.7861 13.0436 15.0458 12.8983C15.3054 12.7531 15.5979 12.6765 15.8954 12.6761ZM20.0125 12.6637C20.4009 12.6642 20.7779 12.7942 21.0841 13.0331C21.3902 13.2721 21.6079 13.6063 21.7027 13.9828C21.7975 14.3594 21.7641 14.7568 21.6076 15.1123C21.4511 15.4677 21.1806 15.7607 20.8388 15.9451C20.497 16.1295 20.1035 16.1946 19.7206 16.1301C19.3377 16.0657 18.9871 15.8754 18.7245 15.5893C18.4619 15.3032 18.3022 14.9378 18.2707 14.5507C18.2392 14.1637 18.3376 13.7772 18.5505 13.4524C18.7095 13.2099 18.9265 13.0108 19.1817 12.8731C19.437 12.7354 19.7225 12.6634 20.0125 12.6637ZM10.9923 13.9045C11.3031 13.4306 11.9391 13.2982 12.413 13.609C12.887 13.9198 13.0193 14.5558 12.7087 15.0298C12.398 15.5037 11.7619 15.6362 11.288 15.3255C11.1752 15.2517 11.078 15.1564 11.002 15.045C10.9261 14.9336 10.8729 14.8083 10.8454 14.6763C10.8179 14.5443 10.8168 14.4082 10.842 14.2758C10.8672 14.1433 10.9183 14.0172 10.9923 13.9045ZM23.5966 13.5239C23.717 13.4632 23.8481 13.4267 23.9826 13.4167C24.117 13.4067 24.2521 13.4233 24.3801 13.4655C24.5081 13.5078 24.6265 13.5749 24.7286 13.663C24.8307 13.751 24.9143 13.8584 24.9749 13.9788C25.2298 14.4851 25.026 15.1021 24.5199 15.3571C24.0138 15.6121 23.3966 15.4082 23.1416 14.9021C22.8867 14.3959 23.0905 13.7788 23.5966 13.5238M7.59795 11.976C7.70239 11.8167 7.86582 11.7054 8.05231 11.6666C8.14464 11.6474 8.23986 11.6466 8.33252 11.6642C8.42518 11.6818 8.51346 11.7175 8.59233 11.7692C8.67121 11.8209 8.73912 11.8876 8.7922 11.9656C8.84528 12.0435 8.88249 12.1312 8.90169 12.2235C8.9209 12.3159 8.92173 12.4111 8.90414 12.5037C8.88655 12.5964 8.85088 12.6847 8.79917 12.7635C8.69473 12.9228 8.5313 13.0341 8.34482 13.0729C8.15833 13.1117 7.96408 13.0748 7.80479 12.9704C7.6455 12.8659 7.53422 12.7025 7.49543 12.516C7.45664 12.3295 7.49352 12.1353 7.59795 11.976ZM27.3764 11.6854C27.5462 11.6023 27.7418 11.5895 27.921 11.6497C28.1001 11.71 28.2483 11.8384 28.3333 12.0072C28.4184 12.176 28.4335 12.3715 28.3754 12.5513C28.3173 12.7312 28.1906 12.8808 28.0229 12.9679C27.8526 13.0536 27.6553 13.0681 27.4743 13.0084C27.2934 12.9486 27.1435 12.8195 27.0577 12.6493C26.9721 12.4792 26.9576 12.2821 27.0174 12.1013C27.0771 11.9205 27.2063 11.7708 27.3764 11.6853M16.9206 10.8715C16.953 10.3059 17.4379 9.87362 18.0035 9.90582C18.5691 9.93802 19.0016 10.4226 18.9696 10.9884C18.9377 11.5539 18.4533 11.9866 17.8877 11.9549C17.3215 11.9226 16.8886 11.4377 16.9206 10.8715ZM12.9789 9.28911C13.0811 9.2376 13.1925 9.20673 13.3067 9.19826C13.4208 9.1898 13.5356 9.2039 13.6443 9.23976C13.753 9.27562 13.8536 9.33255 13.9403 9.40729C14.027 9.48202 14.0981 9.57311 14.1496 9.67534C14.2012 9.77757 14.232 9.88895 14.2405 10.0031C14.249 10.1173 14.2349 10.232 14.199 10.3407C14.1631 10.4494 14.1062 10.55 14.0315 10.6367C13.9567 10.7234 13.8657 10.7946 13.7634 10.8461C13.557 10.9501 13.3176 10.9679 13.0981 10.8954C12.8785 10.823 12.6967 10.6663 12.5927 10.4598C12.4887 10.2534 12.4709 10.014 12.5433 9.79449C12.6158 9.57493 12.7725 9.39315 12.9789 9.28911ZM21.7846 9.56881C21.879 9.42439 22.0141 9.31121 22.1729 9.24356C22.3316 9.17592 22.5068 9.15685 22.6764 9.18877C22.8459 9.22069 23.0022 9.30216 23.1255 9.42289C23.2488 9.54362 23.3335 9.69818 23.3689 9.86705C23.4044 10.0359 23.389 10.2115 23.3247 10.3716C23.2603 10.5317 23.15 10.6692 23.0076 10.7666C22.8652 10.864 22.6971 10.917 22.5245 10.9189C22.352 10.9208 22.1828 10.8715 22.0383 10.7772C21.9421 10.7146 21.8593 10.6337 21.7945 10.5391C21.7297 10.4444 21.6842 10.3379 21.6607 10.2257C21.6371 10.1134 21.6359 9.9976 21.6572 9.88488C21.6784 9.77217 21.7217 9.66476 21.7846 9.56881ZM11.4806 6.75139C11.6139 6.68464 11.7682 6.67333 11.9098 6.71993C12.0514 6.76654 12.1689 6.86727 12.2365 7.00014C12.3041 7.13302 12.3164 7.28725 12.2708 7.42917C12.2251 7.57109 12.1251 7.68918 11.9927 7.75767C11.9262 7.79164 11.8537 7.81213 11.7793 7.81796C11.7049 7.82378 11.6301 7.81482 11.5592 7.7916C11.4883 7.76838 11.4227 7.73135 11.3661 7.68265C11.3096 7.63395 11.2632 7.57454 11.2298 7.50785C11.163 7.37423 11.1519 7.21959 11.1989 7.0778C11.2459 6.93602 11.3472 6.81865 11.4806 6.75139ZM23.6643 6.91747C23.7048 6.8554 23.7572 6.80194 23.8185 6.76012C23.8797 6.71831 23.9486 6.68896 24.0211 6.67376C24.0937 6.65856 24.1686 6.6578 24.2414 6.67153C24.3143 6.68526 24.3837 6.7132 24.4458 6.75377C24.5079 6.79434 24.5613 6.84673 24.6031 6.90796C24.645 6.96919 24.6743 7.03806 24.6895 7.11063C24.7047 7.1832 24.7055 7.25805 24.6917 7.33092C24.678 7.40378 24.6501 7.47323 24.6095 7.53529C24.5276 7.66063 24.3992 7.7483 24.2527 7.77901C24.1061 7.80972 23.9534 7.78095 23.828 7.69904C23.7027 7.61712 23.615 7.48877 23.5843 7.34222C23.5536 7.19566 23.5824 7.04281 23.6643 6.91747ZM17.6991 6.04051C17.7885 6.00792 17.8834 5.99341 17.9784 5.99782C18.0735 6.00223 18.1666 6.02547 18.2526 6.06619C18.3386 6.10691 18.4156 6.1643 18.4792 6.23503C18.5428 6.30575 18.5917 6.38841 18.6231 6.47819C18.6545 6.56798 18.6677 6.66311 18.662 6.75805C18.6564 6.853 18.6319 6.94588 18.59 7.03129C18.5482 7.11669 18.4898 7.19294 18.4182 7.25559C18.3466 7.31824 18.2633 7.36606 18.1731 7.39625C17.9941 7.4562 17.7986 7.44322 17.6291 7.36012C17.4595 7.27703 17.3295 7.1305 17.2672 6.95226C17.2049 6.77402 17.2153 6.57841 17.2961 6.40777C17.3769 6.23713 17.5217 6.10519 17.6991 6.04051Z" fill="white"/>
</g>
</g>
<defs>
<clipPath id="clip0_52314_201704">
<rect width="36" height="36" fill="white"/>
</clipPath>
<clipPath id="clip1_52314_201704">
<rect width="25.9241" height="24" fill="white" transform="translate(5 6)"/>
</clipPath>
</defs>
</svg>
