<svg width="44" height="44" viewBox="0 0 44 44" fill="none" xmlns="http://www.w3.org/2000/svg">
<rect width="36" height="36" rx="10" fill="#0F0137"/>
<path d="M18 6L16.878 13.4865L18 17.2463L19.122 13.4865L18 6Z" fill="white"/>
<path d="M18 30L19.122 22.5135L18 18.7537L16.878 22.5135L18 30Z" fill="white"/>
<path d="M30 18L22.5135 16.878L18.7537 18L22.5135 19.122L30 18Z" fill="white"/>
<path d="M6 18L13.4865 19.122L17.2463 18L13.4865 16.878L6 18Z" fill="white"/>
<path d="M26.4338 9.4632L20.3742 14.0006L18.53 17.4638L21.9705 15.5776L26.4338 9.4632Z" fill="white"/>
<path d="M9.5662 26.5368L15.6258 21.9994L17.47 18.5362L14.0295 20.4224L9.5662 26.5368Z" fill="white"/>
<path d="M26.5362 26.4338L21.9988 20.3742L18.5356 18.53L20.4218 21.9705L26.5362 26.4338Z" fill="white"/>
<path d="M9.46382 9.5662L14.0012 15.6258L17.4644 17.47L15.5782 14.0295L9.46382 9.5662Z" fill="white"/>
<g clip-path="url(#clip0_51238_272298)">
<rect x="22" y="22" width="22" height="22" rx="1.77778" fill="#0166FF"/>
<path d="M34.346 28.1111L30.9486 37.8889H29.0641L25.6667 28.1111H27.4686L29.4493 34.0955C29.5135 34.2599 29.5777 34.4744 29.6418 34.7392C29.7152 34.9948 29.784 35.2596 29.8482 35.5335C29.9215 35.7982 29.9766 36.0356 30.0132 36.2456C30.0407 36.0356 30.0866 35.7982 30.1508 35.5335C30.2241 35.2596 30.2975 34.9948 30.3709 34.7392C30.4442 34.4744 30.5084 34.2599 30.5634 34.0955L32.5441 28.1111H34.346Z" fill="white"/>
<path d="M39.7222 37.8889H37.9891V31.7949C37.9891 31.594 37.9891 31.3886 37.9891 31.1786C37.9983 30.9687 38.0075 30.7587 38.0166 30.5487C38.0258 30.3296 38.035 30.1287 38.0441 29.9462C37.9524 30.0375 37.8378 30.147 37.7003 30.2748C37.5627 30.3935 37.4206 30.5168 37.2739 30.6446L36.1735 31.521L35.3069 30.4528L38.278 28.1111H39.7222V37.8889Z" fill="white"/>
</g>
<defs>
<clipPath id="clip0_51238_272298">
<rect width="22" height="22" fill="white" transform="translate(22 22)"/>
</clipPath>
</defs>
</svg>
