<svg width="36" height="36" viewBox="0 0 36 36" fill="none" xmlns="http://www.w3.org/2000/svg">
<g clip-path="url(#clip0_55086_223573)">
<rect x="6.10352e-05" width="36" height="36" rx="12" fill="#BA9F33"/>
<path fill-rule="evenodd" clip-rule="evenodd" d="M7.86988 16.0777C7.76793 15.9846 7.66021 15.8913 7.56114 15.7981C7.46207 15.705 7.36031 15.6117 7.25836 15.5186L6.95538 15.2306C6.90585 15.1811 6.85343 15.1375 6.80389 15.0877C6.75436 15.0442 6.69618 14.9946 6.64665 14.9508C6.2446 14.5693 5.84025 14.1878 5.44377 13.8061C5.85445 14.1819 6.2565 14.5549 6.66719 14.9363L6.80984 15.0791C6.85938 15.1284 6.9118 15.1722 6.96133 15.2218L7.26412 15.5013C7.36607 15.5944 7.46514 15.6877 7.56709 15.7893C7.66904 15.8909 7.76812 15.9844 7.87007 16.0773L7.86988 16.0777ZM2.53401 16.0201C2.53401 16.0201 3.99609 16.1714 4.70975 16.2733C5.37081 16.3667 7.43884 16.684 7.43884 16.684L2.53401 16.0201ZM2.53401 16.0201C2.94469 16.055 3.35538 16.0986 3.76607 16.1424C3.97573 16.1628 4.17676 16.186 4.37778 16.2063L4.68633 16.2415C4.78828 16.2559 4.88735 16.2705 4.9893 16.2851L6.21272 16.4801L6.82424 16.5821C7.02527 16.617 7.22629 16.655 7.43596 16.69C7.23493 16.6696 7.02527 16.6404 6.82424 16.6113L6.21272 16.5239L4.9893 16.3434C4.88735 16.3288 4.78828 16.3083 4.68633 16.2939L4.37759 16.2584C4.17657 16.238 3.9669 16.2088 3.76588 16.1854C3.35519 16.1361 2.9445 16.0835 2.53381 16.0195L2.53401 16.0201ZM7.2933 17.065C7.2933 17.065 5.73215 17.4612 5.20492 17.6127C4.68652 17.7554 3.11653 18.2331 3.11653 18.2331L7.29311 17.0652L7.2933 17.065Z" fill="#CFB66C"/>
<path fill-rule="evenodd" clip-rule="evenodd" d="M7.2931 17.065C6.94654 17.1669 6.6019 17.266 6.25035 17.3593L5.2076 17.6388C4.86104 17.7408 4.51639 17.8399 4.17079 17.9418L3.65239 18.0845C3.48055 18.134 3.30583 18.1776 3.12823 18.2273C3.29988 18.1697 3.47479 18.1108 3.64663 18.0612L4.16503 17.8954C4.51159 17.7875 4.85623 17.6855 5.20183 17.5778C5.55415 17.4904 5.90091 17.3971 6.25323 17.3126C6.58807 17.2282 6.94059 17.1439 7.2931 17.0652V17.065ZM3.33502 19.1942C3.50667 19.1301 5.48734 18.207 5.94756 17.9914C6.17796 17.8835 6.84766 17.6458 6.84766 17.6458L3.33502 19.1942Z" fill="#CFB66C"/>
<path fill-rule="evenodd" clip-rule="evenodd" d="M3.33503 19.1942C3.48633 19.1366 3.62917 19.0662 3.77471 18.9992L4.20575 18.7981L5.0709 18.3817C5.3589 18.2448 5.63884 18.0937 5.93586 17.9651C6.08735 17.9011 6.23884 17.8487 6.39014 17.7992L6.62054 17.7264C6.69906 17.706 6.77202 17.6826 6.85094 17.6623C6.56294 17.7992 6.25977 17.9157 5.97138 18.0495C5.68338 18.1924 5.38885 18.3089 5.09164 18.437L4.21209 18.8243C3.91679 18.9439 3.62879 19.0719 3.33484 19.1942H3.33503ZM3.52703 20.0006C3.52703 20.0006 5.32108 18.9492 5.93855 18.6113C6.26188 18.4308 7.30751 17.9123 7.30751 17.9123L3.52703 20.0006Z" fill="#CFB66C"/>
<path fill-rule="evenodd" clip-rule="evenodd" d="M3.52722 20.001C3.83001 19.8146 4.13874 19.6253 4.44748 19.4331L4.90828 19.1533C5.06553 19.0602 5.21701 18.9729 5.37733 18.8797C5.53458 18.7864 5.68607 18.6933 5.8462 18.606C5.92243 18.5589 6.0023 18.518 6.08505 18.4837L6.32965 18.3613C6.65298 18.2041 6.97631 18.0438 7.31711 17.9069C7.00837 18.1021 6.69081 18.2682 6.37343 18.4399C6.21618 18.5272 6.05586 18.606 5.89861 18.6933C5.74137 18.7807 5.58988 18.874 5.42956 18.9585C5.27231 19.0516 5.12082 19.1389 4.96069 19.2234L4.48588 19.4826L3.52761 20.001H3.52722ZM7.29311 18.1427C7.29311 18.1427 6.17759 18.999 5.81644 19.2728C5.45529 19.5466 4.39218 20.3155 4.39218 20.3155L7.29311 18.1427Z" fill="#CFB66C"/>
<path fill-rule="evenodd" clip-rule="evenodd" d="M13.6951 25.0485L13.1243 23.9679L13.4563 22.6164L15.8242 21.702L14.8164 19.6341L15.3145 17.5457L16.2495 15.6756L19.1389 15.2214L21.2621 13.1971L25.8466 13.5437L26.7465 18.4456L25.0135 24.6175L24.0263 27.8127L20.0242 27.9642L18.1661 26.6769L15.9903 25.7679L13.6951 25.0485Z" fill="#E2CC85"/>
<path fill-rule="evenodd" clip-rule="evenodd" d="M20.7147 25.0136C20.7147 25.0136 20.1612 25.267 19.2171 25.2086C18.9439 24.8417 17.0304 24.6699 17.0304 24.6699C17.0304 24.6699 16.7916 24.5971 16.3692 24.7718C15.9441 24.9446 15.542 24.9233 15.1663 25.0164C14.7905 25.1096 14.4175 24.6204 14.1295 24.5184C13.8415 24.4107 13.4596 24.1515 13.4596 24.1515L12.6532 24.0728L11.0339 23.3883L8.46126 20.8253L7.76219 21.9197L7.54657 23.274L8.32436 24.879L10.4185 26.7867L14.502 27.8235L16.9223 27.1104L19.9544 25.8288L20.7147 25.0134V25.0136Z" fill="#F1D789"/>
<path fill-rule="evenodd" clip-rule="evenodd" d="M6.20676 15.9554L6.72516 14.3856L7.34282 13.3718L9.33194 13.2058L8.73482 14.9476L7.07191 17.9069L7.76215 20.5486L6.53892 21.1601L6.16298 20.5836L5.8602 19.2612L5.83984 17.7757L6.20676 15.9554Z" fill="#F4ECB4"/>
<path fill-rule="evenodd" clip-rule="evenodd" d="M8.43781 24.9059L8.05631 24.3729C8.05631 24.3729 7.95436 24.1194 8.01272 23.898C8.07032 23.6738 8.06207 23.6592 8.03308 23.5747C8.00409 23.4902 7.75929 23.199 7.77388 22.9484C7.78828 22.695 7.75353 22.6105 7.93977 22.4097C8.13484 22.2146 8.07666 21.8767 8.07666 21.8767L8.3301 22.0339L8.3877 21.9466C8.3877 21.9466 8.48082 22.0193 8.48082 22.133C8.50117 21.9757 8.41669 21.2475 8.60889 21.0816C8.80108 20.9157 9.14188 21.8592 9.14188 21.8592L8.93221 20.4902L8.39327 19.0865L7.435 17.8049L7.3774 16.3922V16.2699C7.3774 16.2699 6.93752 16.9457 6.81522 17.4795C6.72786 17.8464 6.93753 18.292 6.89394 18.8193C6.85881 19.3436 6.81522 19.3027 6.94329 19.5105C7.07135 19.7182 7.38316 20.1454 7.26085 20.4541C7.15314 20.7193 6.78604 20.5329 6.78604 20.5329C6.78604 20.5329 6.71327 20.7483 6.6142 20.827C6.57925 20.6989 6.54143 20.6173 6.47154 20.539C6.46559 20.5885 6.45119 20.6556 6.45119 20.6556C6.45119 20.6556 6.38706 20.4545 6.32293 20.2011C6.23577 19.8634 6.14245 19.4177 6.05797 19.1789C6.02303 19.3158 5.93567 19.7322 5.93567 19.7322L5.98521 20.3731L6.22405 21.2527L6.45445 21.8287L6.67871 22.5335L6.87359 23.007L7.03084 23.3681L7.16773 24.1809L7.82879 24.8797L8.1813 25.0372L8.43743 24.906L8.43781 24.9059Z" fill="#F3E19D"/>
<path fill-rule="evenodd" clip-rule="evenodd" d="M6.55333 14.6738C6.55333 14.6738 6.07851 15.4802 5.94181 16.2931C5.8051 17.106 5.68261 17.9651 5.76901 19.0717C5.85637 20.1875 6.02245 20.8717 6.15646 21.3612C6.38686 22.1739 6.9836 23.304 6.9836 23.304L7.00395 23.2602C6.90365 23.0701 6.82359 22.87 6.7651 22.6631C6.68638 22.3544 6.6572 21.9875 6.58443 21.8214C6.5203 21.6555 6.41259 21.5126 6.36018 21.3087C6.31064 21.1137 6.30258 20.8049 6.15051 20.5749C6.08638 20.4816 6.00766 20.237 5.98443 19.9924C5.95525 19.6253 5.99902 19.2146 5.96408 18.8769C5.89995 18.3147 5.85637 17.9332 5.91454 17.6388C5.97272 17.3445 6.27589 16.5089 6.46232 15.8448C6.58462 15.4195 6.51166 15.0612 6.73592 14.6913C6.96018 14.3244 7.09726 14.001 7.14661 13.7768C7.20421 13.5729 6.55256 14.6738 6.55256 14.6738H6.55333Z" fill="#F2E8B0"/>
<path fill-rule="evenodd" clip-rule="evenodd" d="M8.80488 14.3505C8.80488 14.3505 8.56028 14.4234 8.44373 14.5515C8.32719 14.6738 8.27765 14.7757 8.1204 14.9825C7.96316 15.1893 7.95432 15.3583 7.82607 15.6175C7.698 15.8709 7.41538 16.2524 7.38044 16.3893C7.34549 16.5262 7.28732 17.1669 7.21455 17.4699C7.15042 17.7729 7.28732 18.1457 7.28732 18.1457L7.4532 18.1106C7.4532 18.1106 7.4532 18.3262 7.61928 18.4719C7.78517 18.6146 7.81436 17.9883 7.81436 17.9883L8.43471 15.8941L9.36956 15.2592L9.47151 14.7466L8.8045 14.3505H8.80488Z" fill="#F5EEC0"/>
<path fill-rule="evenodd" clip-rule="evenodd" d="M9.25916 15.3001C9.25916 15.3001 8.81929 15.3291 8.60387 15.4865C8.51651 15.5505 8.48156 15.6029 8.38844 15.6816C8.2166 15.8243 8.04169 15.9554 7.9574 16.1424C7.86409 16.3286 7.76214 16.6113 7.69225 17.1443C7.66307 17.3685 7.66307 17.5753 7.64272 17.756C7.61353 18.0006 7.56995 18.1956 7.59318 18.332C7.62236 18.6115 7.91075 18.7572 7.93878 19.0746L8.5359 18.7718L9.09808 16.5552L10.2923 15.8064L9.61648 15.0492L9.2584 15.2988L9.25916 15.3001Z" fill="#E6DB9D"/>
<path fill-rule="evenodd" clip-rule="evenodd" d="M6.10902 30.2264C6.11151 30.2045 6.11401 30.1826 6.11651 30.1601C6.20367 29.4113 6.21846 28.8438 6.28239 28.4884C6.37551 27.9846 6.43964 27.7972 6.42505 27.6086C6.4047 27.3059 6.38147 27.0845 6.41065 26.8514C6.45423 26.5427 6.75721 26.1757 6.74857 25.9223C6.74262 25.7213 6.64067 25.5903 6.55331 25.468C6.46595 25.3457 6.39606 25.2438 6.39606 25.2438C6.39606 25.2438 6.99318 24.8331 6.98742 23.1786C6.99961 23.1821 7.01134 23.187 7.02236 23.1932L7.31651 24.029L7.51753 24.2736L8.28937 25.7124L9.28259 26.6767L10.7504 27.6639L11.6709 28.6656L11.764 31.3365L10.5611 32.8977L10.3641 33.2544C8.79907 32.4687 7.36392 31.4474 6.10883 30.2262L6.10902 30.2264Z" fill="#E5CB7A"/>
<path fill-rule="evenodd" clip-rule="evenodd" d="M9.78351 32.7815C9.78351 32.7815 9.80386 32.4495 10.0777 32.2339C10.1214 32.3067 10.1504 32.3768 10.1418 32.429C10.1913 32.3418 10.5379 31.7825 11.3214 31.6368C12.105 31.4941 12.2943 30.9233 12.2943 30.9233L13.9572 29.4117L15.8592 27.6612L18.1718 26.8485L19.2526 26.5834C19.2526 26.5834 19.2729 26.6621 19.2322 26.8368C19.433 26.8224 19.8787 26.7204 20.3418 26.5572C20.5282 26.4845 20.7031 26.4553 20.7962 26.5515C20.9331 26.6795 20.9535 26.9825 20.9621 27.163C21.1864 27.1135 21.4456 26.898 21.6533 26.9184C21.9855 26.9533 22.2796 27.3437 22.6176 27.3437C23.0632 27.3437 23.264 27.0699 23.5758 26.8543C23.7623 26.7262 24.0301 26.5663 24.1816 26.4582C24.5427 26.193 28.3641 25.0251 28.3641 25.0251L29.7039 25.1124L29.9195 26.5513L29.8043 30.3126C29.7901 30.3262 29.7759 30.3404 29.7615 30.354L23.6697 33.5357L15.2256 34.8301C13.334 34.5211 11.5087 33.8932 9.82728 32.9733L9.78408 32.7813L9.78351 32.7815Z" fill="#D8C173"/>
<path fill-rule="evenodd" clip-rule="evenodd" d="M6.62109 30.7048C6.74109 30.4539 6.849 30.244 6.86801 30.169C6.88298 30.3203 6.91044 30.6522 6.96573 31.0051C6.84964 30.9064 6.73476 30.8063 6.62109 30.7046V30.7048Z" fill="#F1D789"/>
<path fill-rule="evenodd" clip-rule="evenodd" d="M12.7895 34.2445L13.8816 33.9408L13.9747 33.97C13.9747 33.97 14.0242 33.9992 14.0242 34.098C14.1611 34.0195 14.2777 34.0339 14.3622 33.9817C14.4057 34.0748 14.4493 34.3835 14.6417 34.4214C14.8425 34.4651 15.0582 34.334 15.2767 34.1681C15.4921 33.9963 15.7375 33.7807 15.9231 33.6933C15.9912 33.8186 16.0516 33.9479 16.1038 34.0806C16.3484 33.8855 16.7737 33.0933 17.3794 33.1077C17.5545 32.694 17.847 32.3406 18.2208 32.0913C18.783 31.7098 19.1353 31.6806 19.5752 31.7155C19.7499 31.4886 19.9652 31.296 20.2101 31.1476C20.2829 31.1768 20.4839 31.2991 20.7345 31.1825C20.9879 31.0662 21.2732 30.6146 21.6489 30.5564C21.8514 30.5285 22.0573 30.5718 22.2315 30.6787C22.2315 30.6787 23.3259 29.5922 24.081 29.231C24.0518 29.1437 23.9937 28.8146 24.879 28.0863C24.9285 28.1301 24.8936 28.2524 24.9285 28.2591C24.9429 28.2591 25.1589 28.166 25.4323 27.9562C25.7702 27.7029 26.175 27.4378 26.4196 27.365C26.8804 27.2281 27.3692 27.5076 27.3692 27.5076C27.4108 27.4785 27.4571 27.4568 27.5061 27.4435C27.6224 27.4232 27.7069 27.4086 27.7711 27.3859C27.7653 27.5374 27.8498 27.7966 27.7711 28.0209C27.8622 28.0721 27.9588 28.1132 28.0591 28.1432C28.0097 28.2509 27.9018 28.5247 27.7213 28.6558C27.8726 28.7286 27.893 28.8131 28.1086 28.8862C28.0212 29.0085 27.8782 29.2184 27.8145 29.347C27.7503 29.4839 27.5201 30.0518 27.4182 30.2673C27.3105 30.4829 27.1649 30.879 27.0948 30.9585C27.0248 31.0379 26.7715 31.3749 26.5764 31.5408C26.7492 31.4767 27.4562 31.2612 27.7561 31.1796C27.6668 31.3106 27.2143 31.982 26.7792 32.6277C24.6961 33.8763 22.3708 34.6665 19.9583 34.9458C17.5458 35.2251 15.1014 34.987 12.7881 34.2474L12.7895 34.2445Z" fill="#E0CD81"/>
<path fill-rule="evenodd" clip-rule="evenodd" d="M9.33117 15.2214C9.33117 15.2214 9.07792 15.2214 9.02838 15.2563C8.97885 15.2913 9.28182 15.3642 9.37494 15.3992C9.46806 15.4341 9.66909 15.5942 9.7215 15.7225C9.77104 15.8448 11.5419 16.5583 11.5419 16.5583L12.7943 16.4941L13.2261 15.8976L12.4047 15.1782L12.9807 13.4801L12.2177 13.6024L10.3828 14.6968L9.4623 15.0493L9.33117 15.2214Z" fill="#DFC57C"/>
<path fill-rule="evenodd" clip-rule="evenodd" d="M12.0816 15.7836C12.0997 15.8129 12.1252 15.8369 12.1555 15.8532C12.1859 15.8696 12.22 15.8777 12.2544 15.8767C12.5136 15.8767 12.7523 15.9408 12.8513 16.0717C13.0174 16.2816 13.4776 16.9515 13.4776 16.9515L14.5786 17.3476L14.6496 16.0512L13.4467 15.2154L12.0778 15.7192V15.7834H12.0808L12.0816 15.7836Z" fill="#E5CC7C"/>
<path fill-rule="evenodd" clip-rule="evenodd" d="M11.8656 16.2641C11.8656 16.2641 12.0664 16.2787 12.3199 16.1854C12.5733 16.0921 12.9898 15.8913 13.1704 15.97C13.4237 16.0777 13.3713 16.4156 13.6453 16.7188C13.8111 16.9052 14.1141 16.8995 14.286 17.1005C14.4578 17.3015 15.049 17.2082 15.049 17.2082L15.2732 18.4178L14.3733 19.5713L14.079 21.0042H12.8621L11.7504 20.5632L11.2028 19.2384L11.4766 17.8986L11.8656 16.2641Z" fill="#D2C281"/>
<path fill-rule="evenodd" clip-rule="evenodd" d="M14.2195 16.3223C14.2497 16.3316 14.281 16.3365 14.3126 16.3369C14.2777 16.3661 14.2047 16.43 14.2339 16.5961C14.2631 16.7622 14.3562 16.9718 14.2777 17.0999C14.3404 17.1684 14.3871 17.25 14.4146 17.3388C14.4641 17.4816 14.4787 17.6125 14.8018 17.6331C14.7552 17.6618 14.7122 17.696 14.6738 17.735C14.6738 17.735 14.898 17.9301 15.0117 18.1106C15.128 18.1056 15.4368 18.0096 15.4368 18.0096L15.5009 18.0534L15.6378 17.9958C15.6378 17.9958 15.5097 17.9462 15.6029 17.6346C15.6902 17.3608 15.7689 17.3754 15.7757 17.3551C15.7824 17.3347 15.8398 17.0463 15.8398 16.9298C15.8834 16.7785 15.9183 16.3183 15.9183 16.3183L15.8252 15.3018L15.301 14.9843L14.8748 14.5728L14.4727 15.33L14.208 15.594L14.1876 16.2493L14.2195 16.3223Z" fill="#E2C270"/>
<path fill-rule="evenodd" clip-rule="evenodd" d="M15.4806 15.4719C15.4806 15.4719 15.5737 15.7369 15.6088 15.9408C15.6212 15.9012 15.6281 15.86 15.6292 15.8185C15.6292 15.8185 15.702 16.2205 15.7164 16.3866C15.7456 16.3807 15.774 16.372 15.7805 16.401C15.787 16.43 15.8535 16.7535 15.8381 16.934C15.9594 16.7339 16.1272 16.5661 16.3273 16.4448C16.4439 16.3718 16.5808 16.2933 16.7236 16.2874C16.9479 16.2816 17.1109 16.4302 17.3789 16.4302C18.0254 16.4302 18.611 15.9554 19.042 15.8099C19.3594 15.702 19.6332 15.6234 19.8254 15.4485C19.9187 15.37 20.0847 15.1953 20.236 14.9359C20.4371 14.5903 20.6467 14.2894 20.8566 14.2516C20.7616 14.269 20.665 14.2759 20.5686 14.2719C20.5686 14.2719 20.6327 14.2078 20.7414 14.1204C20.8501 14.0331 20.9802 13.9254 21.1665 13.9254C21.4986 13.9254 21.6645 13.9747 21.851 13.9747C22.0374 13.969 22.1451 13.9254 22.1451 13.9254C22.1451 13.9254 22.3404 14.0623 22.78 14.0623C23.2199 14.068 23.5141 14.1059 23.7443 14.1264C23.9745 14.1469 24.7461 14.0623 24.9675 14.0688C25.1118 14.0744 25.2536 14.109 25.3841 14.1708L24.6705 12.0972L22.1069 9.85651L20.5807 10.9371L18.2329 13.2847L15.9612 14.1264L15.4864 14.6594V15.4719H15.4806Z" fill="#CCB360"/>
<path fill-rule="evenodd" clip-rule="evenodd" d="M20.5778 14.2835C20.5778 14.2835 20.6419 14.2195 20.7494 14.1322C20.8569 14.0448 20.9885 13.9369 21.1747 13.9369C21.5067 13.9369 21.6727 13.9864 21.8592 13.9864C22.0456 13.9807 22.1533 13.9369 22.1533 13.9369C22.1533 13.9369 22.3488 14.0736 22.7883 14.0736C23.2281 14.0794 23.5223 14.1172 23.7525 14.1375C23.9827 14.1579 24.7543 14.0736 24.9757 14.0799C25.12 14.0854 25.2617 14.1201 25.3922 14.1819L25.0688 13.2468L24.6933 12.5334L23.6213 11.3595C23.6213 11.3595 22.3349 10.6022 22.3252 10.5965C22.3194 10.5907 21.8795 10.4742 21.8795 10.4742L20.7145 11.179L19.6573 13.914L19.637 14.49L20.3213 14.8134C20.4931 14.5254 20.6826 14.295 20.8602 14.2658C20.6999 14.2833 20.5776 14.2833 20.5776 14.2833L20.5778 14.2835Z" fill="#D5B457"/>
<path fill-rule="evenodd" clip-rule="evenodd" d="M20.5632 14.4787C20.4612 14.4845 20.377 14.4641 20.3535 14.3914C20.2662 14.1468 20.1963 14.1118 20.1231 14.1118C20.05 14.1118 19.9513 14.2691 19.8927 14.2835C19.8342 14.2979 19.7647 14.103 19.7647 14.103L19.7005 14.0738C19.7005 14.0738 19.3248 14.3184 19.0598 14.6068C18.7949 14.8952 18.3608 15.3846 18.1657 15.4717C17.9706 15.5589 17.3005 15.5883 17.0713 15.6378C16.842 15.6874 16.5878 15.8534 16.5529 15.8913C16.5179 15.9291 16.655 15.9698 16.6754 16.0076C16.6957 16.0426 16.4509 16.028 16.4306 16.0652C16.4162 16.0944 16.4882 16.2603 16.5239 16.3448C16.5864 16.3137 16.655 16.2968 16.7247 16.2952C16.949 16.2895 17.1122 16.4381 17.38 16.4381C18.0267 16.4381 18.6121 15.9633 19.0431 15.8175C19.3607 15.7098 19.6345 15.6311 19.8267 15.4564C19.9198 15.3779 20.0859 15.2029 20.2374 14.9437C20.348 14.7661 20.4559 14.6001 20.5638 14.4778L20.5632 14.4787Z" fill="#D2B257"/>
<path fill-rule="evenodd" clip-rule="evenodd" d="M11.2896 28.8933C11.2896 28.8933 11.232 28.6777 10.6982 28.1215C10.5468 27.9642 10.4536 27.8335 10.3517 27.74C10.0982 27.5009 9.94964 27.437 9.76916 27.3001C9.37306 27.006 8.94202 27.0059 8.61005 26.6448C8.27809 26.2836 7.89121 25.5936 7.6224 24.8884C7.35744 24.1836 7.28448 23.9593 7.28448 23.9389C7.28448 23.9186 7.35744 23.7817 7.45056 23.802C7.54368 23.8224 7.54368 24.0029 7.56711 24.0467C7.6135 24.1181 7.66612 24.1853 7.72436 24.2475C7.86125 24.4049 8.05633 24.5931 8.1554 24.8738C8.13505 24.6349 8.05345 24.37 8.05345 24.37C8.05345 24.37 8.56608 24.6933 9.00288 25.031C9.44276 25.369 9.62324 25.4855 9.75168 25.7009C9.88013 25.9163 10.1827 26.4845 10.3277 26.6506C10.4726 26.8166 12.4589 27.4428 12.4589 27.4428L13.4037 28.1472L13.8728 29.1754L13.5057 29.7514L12.8008 29.9028L11.6561 29.3902L11.2896 28.8931V28.8933Z" fill="#D2B159"/>
<path fill-rule="evenodd" clip-rule="evenodd" d="M8.74652 25.3515C8.74652 25.3515 8.98537 25.733 9.5679 26.0941C10.0922 26.4117 10.9223 26.7001 11.6622 26.8719C12.0873 26.9739 12.5126 27.0524 12.8941 27.0584C13.9223 27.0728 14.63 26.7788 15.5068 26.6826C15.9817 26.6331 16.5642 26.5953 17.1699 26.4522C17.9475 26.2658 18.4078 26.0559 19.0341 25.761C19.4883 25.5514 19.905 25.3941 20.2427 25.1931C20.7175 24.9135 21.0641 24.6019 21.4661 24.5088C21.4166 24.6457 21.3642 24.8903 20.9681 25.1437C21.1778 25.1378 21.4661 25.1234 21.4661 25.1234C21.4661 25.1234 21.1866 25.2893 20.6943 25.6621C20.3913 25.8925 19.9895 26.2825 19.5788 26.5417C19.3136 26.7078 19.0252 26.8297 18.8359 26.9292C18.3751 27.1826 18.1893 27.3107 17.8865 27.6204C17.9942 27.6146 18.003 27.6204 18.003 27.6204C18.003 27.6204 17.6213 27.6699 17.3477 27.8154C17.2901 27.8154 17.1903 27.7951 17.0156 27.8446C16.8787 27.8882 16.698 27.9875 16.5118 28.0397C16.2466 28.1184 16.1595 28.0835 16.1595 28.0835L16.203 28.1708C16.203 28.1708 15.8574 28.1649 15.7422 28.1766C15.7626 28.1823 15.7568 28.1912 15.7568 28.1912C15.7366 28.1946 15.7171 28.2014 15.6992 28.2115C15.6438 28.2474 15.5828 28.274 15.5187 28.2901C15.4838 28.2958 15.4546 28.2958 15.4108 28.3046C15.4254 28.3396 15.5391 28.535 15.5915 28.6502C15.5479 28.6794 14.8924 29.1746 14.8924 29.1746C14.9128 29.2066 14.9294 29.2408 14.942 29.2765C14.9623 29.3405 14.9712 29.4338 14.9915 29.4774C15.0409 29.5647 15.07 29.5793 15.07 29.5793C15.07 29.5793 14.9915 29.5939 14.8544 29.6289C14.7381 29.6581 14.5952 29.7074 14.3936 29.7366C14.3318 29.7446 14.2695 29.7495 14.2072 29.7512C14.2364 29.8153 14.3644 30.0599 14.1285 30.3423C13.8925 30.6248 13.8197 30.6659 13.747 30.8463C13.7103 30.8186 13.6713 30.7942 13.6304 30.7734C13.5519 30.7384 13.444 30.6862 13.4062 30.6161C13.3841 30.7095 13.3549 30.801 13.3188 30.8899C13.246 31.085 13.1383 31.2774 13.118 31.4229C13.0393 31.3356 12.8937 31.1637 12.6927 31.1987C12.4917 31.2336 12.3315 31.5074 12.2966 31.5861C12.2966 31.5366 12.2617 31.4988 12.253 31.5569C12.2471 31.6211 12.1365 32.2908 11.519 32.8326C11.5132 32.6957 11.5132 32.3927 11.4986 32.2938C11.441 32.3514 11.3706 32.4365 10.9511 32.6172C10.5404 32.7976 10.6055 32.9783 10.6055 32.9783C10.6055 32.9783 10.5705 32.6903 10.7919 32.3869C11.0162 32.0842 11.153 31.9413 11.153 31.9181C11.1494 31.8944 11.1393 31.8722 11.1239 31.854C11.0947 31.8248 11.0365 31.7898 11.0365 31.7666C11.0714 31.7522 11.418 31.5861 11.3977 31.2422C11.3773 30.9337 11.2464 30.7734 11.153 30.6599C11.1386 30.6453 11.2901 30.5376 11.2696 30.5027C11.255 30.4823 11.0688 30.3452 11.0453 30.2723C11.0508 30.2287 11.0606 30.1858 11.0745 30.1442C11.0949 30.0801 11.1095 30.0363 11.1037 29.9927C11.0891 29.9199 11.0104 29.7189 10.9872 29.6986C11.0075 29.7043 11.153 29.6986 11.153 29.6986C11.153 29.6986 11.0367 29.5121 11.0162 29.4248C10.9956 29.3374 10.952 29.1072 10.9288 29.0636C10.9783 29.0694 11.1006 29.078 11.1006 29.0636C11.1066 29.0198 10.9929 28.9471 11.043 28.8908C11.078 28.8966 11.145 28.9258 11.2089 29.0074C11.174 28.9141 11.1158 28.7336 10.9933 28.6608C11.0509 28.6405 11.2467 28.5878 11.4186 28.6898C11.5904 28.7917 11.649 28.9344 11.649 28.9344C11.649 28.9344 11.7509 29.0131 11.9084 29.1297C12.0889 29.2723 12.3189 29.4753 12.686 29.6189C12.7647 29.6627 12.9655 29.6627 13.1113 29.6335C13.1747 29.6184 13.2355 29.5938 13.2917 29.5607C13.312 29.5488 13.3335 29.539 13.3559 29.5315C13.3246 29.4687 13.2885 29.4083 13.2482 29.3509C13.2977 29.3509 13.3559 29.3568 13.3559 29.3568C13.3559 29.3568 13.3908 29.2781 13.2336 29.1264C13.2685 29.0915 13.3123 29.0688 13.3123 29.0099C13.2627 29.0041 13.1754 28.9313 13.155 28.9021C13.184 28.8818 13.2278 28.8148 13.2773 28.7944C13.2336 28.7595 13.1258 28.6138 13.0763 28.5994C13.1236 28.5818 13.1694 28.5603 13.2132 28.5352C13.2132 28.5352 12.9686 28.4711 12.8899 28.4187C12.8112 28.3611 12.6948 28.2614 12.6249 28.2323C12.552 28.2031 12.4239 28.1887 12.3715 28.1303C12.4208 28.1449 12.4995 28.1303 12.5579 28.1303C12.6015 28.1303 12.622 28.1361 12.6364 28.1361C12.6307 28.1157 12.6307 28.0719 12.7443 28.0575C12.799 28.0493 12.8521 28.0326 12.9016 28.008C12.9016 28.008 12.7937 28.0022 12.6712 27.8857C12.5487 27.7692 12.4469 27.676 12.377 27.6614C12.3043 27.6469 12.1674 27.711 12.0829 27.705C11.9664 27.6906 11.9168 27.6323 11.9168 27.6323C11.9168 27.6323 11.5296 27.6672 10.6704 27.143C9.92751 26.6886 9.60419 26.2867 9.60419 26.2867C9.53467 26.2615 9.46747 26.2303 9.40335 26.1934C9.1238 26.0479 8.73635 25.7449 8.74806 25.3486L8.74652 25.3515Z" fill="#C2A44D"/>
<path fill-rule="evenodd" clip-rule="evenodd" d="M19.462 7.86989C19.5294 7.89178 19.5893 7.93216 19.6348 7.98643C19.7717 8.14368 19.8591 8.44071 19.5475 8.75827C19.6698 8.80186 19.7203 8.81587 19.827 8.80186C19.7193 8.93011 19.4747 9.20391 19.4601 9.44275C19.4455 9.63783 19.5678 9.69619 19.5678 9.69619C19.5678 9.69619 19.3814 9.91162 19.3728 10.2722C19.4608 10.1729 19.5572 10.0813 19.6608 9.9984C19.8764 9.82656 20.1734 9.63149 20.3744 9.50919C20.3717 9.56045 20.3786 9.61176 20.3948 9.66048C20.3948 9.66048 20.7703 9.35175 21.086 9.48883C21.2286 9.55296 21.1645 9.75379 21.1645 9.75379C21.1645 9.75379 21.3598 9.68103 21.4967 9.81792C21.6336 9.95482 21.8271 10.3079 21.9264 10.4448C21.97 10.5089 22.0836 10.6312 22.2 10.8205C22.3589 11.0856 22.4916 11.3655 22.5963 11.6563C22.602 11.5048 22.6398 11.2691 23.0711 11.4175C23.5021 11.569 23.9913 11.8865 24.402 12.5119C24.8127 13.1372 24.9145 13.8432 25.1212 14.112C25.3309 14.3712 25.5465 14.8022 25.5611 14.9829C25.5757 15.1636 25.497 15.7459 25.928 17.3217C26.0503 16.8324 26.2368 15.7459 26.2368 15.7459L26.3387 14.7877L26.4553 11.8226L23.3591 9.25037L20.9387 7.49395L19.363 7.64544L19.4619 7.8697L19.462 7.86989Z" fill="#CAA13E"/>
<path fill-rule="evenodd" clip-rule="evenodd" d="M25.2146 12.2824C25.2146 12.2824 25.1708 11.9944 24.4427 11.5048C23.7145 11.0214 23.1465 11.0214 22.6224 10.6107C22.2203 10.2874 21.801 9.54451 21.528 9.2999C21.2628 9.05817 21.2192 8.3591 21.2192 8.3591L22.1134 7.6103L23.4432 5.68819L24.5673 4.45037L25.1061 5.19917L25.8549 6.07872L26.2713 7.84377L26.4228 10.4273L25.2132 12.2826L25.2146 12.2824Z" fill="#B59544"/>
<path fill-rule="evenodd" clip-rule="evenodd" d="M26.1147 15.3792C26.1367 14.9874 26.0883 14.5948 25.9718 14.2201C25.7798 13.623 25.3603 12.5628 25.1654 12.1657C25.0867 11.7258 25.1451 11.6909 25.2296 11.6413C25.314 11.5918 25.6316 11.4109 25.8056 10.7764C25.9795 10.1418 26.5192 10.1211 26.5192 10.1211L26.8512 9.87648L27.3552 11.1375L27.7949 12.2765L27.9318 13.1474L28.0337 13.89L27.7949 15.46L26.6154 16.526L26.1145 15.3792H26.1147Z" fill="#C89D3A"/>
<path fill-rule="evenodd" clip-rule="evenodd" d="M9.65546 32.8779V32.8456C9.67997 32.8303 9.7016 32.8108 9.71939 32.788C9.73974 32.7588 9.75453 32.7239 9.76893 32.7153C9.79811 32.7007 9.93501 32.6577 10.0078 32.6715C10.0805 32.6853 10.2729 32.7646 10.3749 32.7588C10.5845 32.7531 10.8292 32.5928 11.2166 32.6657C11.7991 32.7734 11.936 33.1695 12.274 33.3938C12.5044 33.5512 12.7428 33.4812 12.7778 33.4812H12.8563C12.8709 33.4812 12.9786 33.3588 13.037 33.3648C13.1535 33.3706 13.165 33.4667 13.2378 33.4725C13.4096 33.4929 13.7418 33.3851 13.9079 33.4289C13.9571 33.4444 14.0019 33.4715 14.0384 33.5079C14.0749 33.5444 14.1021 33.5892 14.1175 33.6384C14.1525 33.7461 14.1233 33.883 14.0388 33.9617C13.8583 34.1276 13.6865 34.2851 13.6516 34.4225C13.696 34.4564 13.7387 34.4926 13.7794 34.5308C12.3383 34.1636 10.9518 33.6085 9.65546 32.8796V32.8779Z" fill="#CEB052"/>
<path fill-rule="evenodd" clip-rule="evenodd" d="M25.165 27.0584C25.165 27.0584 25.6193 26.4526 25.7768 26.1525C25.934 25.8432 25.2787 21.9264 25.2787 21.9264L26.5952 17.6129L26.5601 16.209C26.5601 16.209 26.6242 14.9128 26.7757 14.3507C26.9564 14.674 27.5186 15.0643 27.6409 15.2711C27.6985 14.8748 27.8941 14.039 27.8651 13.1478C27.9728 13.3137 28.232 14.9827 28.232 14.9827L28.4912 16.1069L28.8292 17.3011L29.2049 18.5624L29.4292 19.4333L29.5572 19.6429L29.6651 20.0099L29.7671 20.4061L30.0612 21.3352L30.234 22.0982L30.3709 23.4818C30.4007 23.5877 30.4221 23.6958 30.4351 23.8051C30.4408 23.9566 30.4147 24.044 30.4147 24.0703C30.4147 24.0966 30.4642 24.4022 30.4439 24.6324C30.4147 24.8628 30.4147 25.0431 30.234 25.2084C30.0534 25.3738 29.9399 26.3618 29.9399 26.3618L29.6166 26.1464C29.6166 26.1464 29.6807 25.852 29.5292 25.5842C29.3777 25.3164 29.0836 25.2609 28.9175 25.3046C28.7516 25.3396 28.4196 25.3918 28.3117 25.4851C28.2098 25.5782 27.9594 25.8666 27.7292 25.9978C27.4412 26.1706 26.9719 26.1842 26.7216 26.2424C26.4681 26.3 26.1886 26.4728 25.8943 26.6734C25.6635 26.8228 25.4198 26.9513 25.1662 27.0574L25.165 27.0584Z" fill="#CCA847"/>
<path fill-rule="evenodd" clip-rule="evenodd" d="M25.165 33.4224C25.165 33.4224 25.1842 33.4349 25.2213 33.4552C27.2906 32.4857 29.1447 31.1115 30.6741 29.4136C30.6574 28.8242 30.6357 28.22 30.6119 27.9961C30.5625 27.5213 30.5975 27.0378 30.5829 26.7583C30.5683 26.4787 30.4111 25.3398 30.3383 25.0456C30.2596 24.7515 30.1079 24.6058 30.0848 24.6058C30.0645 24.6117 29.942 25.1593 29.942 25.297C29.942 25.4346 29.9128 25.766 29.9128 25.8505C29.8925 25.8445 29.8838 25.7929 29.8838 25.7718C29.8546 25.8445 29.8197 25.9728 29.8051 25.9874C29.7905 26.002 29.8255 25.8651 29.8051 25.8359C29.7847 25.8067 29.7475 25.8213 29.7556 25.7485C29.759 25.7054 29.7658 25.6626 29.7759 25.6205C29.7759 25.6205 29.6886 25.7485 29.6246 26.0748C29.5605 26.3981 29.5605 26.4069 29.5373 26.4359C29.5169 26.471 29.4004 26.5874 29.3944 26.6312C29.3887 26.7097 29.5023 26.7884 29.511 26.832C29.5167 26.905 29.409 27.2427 29.3741 27.408C29.3391 27.5733 29.3537 27.8972 29.3165 28.0633C29.2873 28.2148 29.2589 28.3021 29.1592 28.3661C29.232 28.3807 29.3019 28.401 29.3019 28.401C29.3019 28.401 29.4038 28.8321 29.1446 29.1992C29.0515 29.3272 29.0283 29.3856 28.9292 29.5021C28.7339 29.7176 28.5824 29.9629 28.5679 30.1225C28.5578 30.0754 28.551 30.0277 28.5475 29.9796C28.5475 29.9796 28.2447 30.3322 28.1165 30.5332C27.9506 30.7924 27.7204 30.7778 27.6557 30.8419C27.591 30.906 27.5769 31.0224 27.5981 31.1157C27.5405 31.1301 27.4322 31.1507 27.3592 31.3749C27.3243 31.4913 27.2369 31.6053 27.1 31.6836C26.9631 31.762 26.797 31.7856 26.7126 31.806C26.7853 31.8263 26.8145 31.8263 26.8495 31.8495C26.8059 31.9223 26.6048 32.036 26.3806 32.1817C26.1563 32.3186 26.0484 32.5194 25.9931 32.6506C25.9355 32.7729 25.8505 32.8516 25.7136 32.8662C25.7712 32.9011 25.8564 32.9825 25.9 33.0088C25.8359 33.0234 25.7272 33.0234 25.5331 33.1895C25.3292 33.3585 25.2593 33.408 25.166 33.4226L25.165 33.4224Z" fill="#C39D3C"/>
<path fill-rule="evenodd" clip-rule="evenodd" d="M21.1123 34.7722C21.2238 34.694 21.3446 34.6299 21.4719 34.5815C21.9262 34.401 22.4068 34.3661 22.5961 34.3079C22.7767 34.2503 22.9194 34.1708 23.1436 34.1272C23.1377 34.1783 23.1327 34.2263 23.1273 34.2716C22.4662 34.4795 21.7929 34.6466 21.1113 34.7722H21.1123Z" fill="#D2BA6B"/>
<path fill-rule="evenodd" clip-rule="evenodd" d="M29.4912 22.8234C29.4912 22.8234 29.3981 23.3272 29.232 23.6448C29.0659 23.9624 28.8864 24.402 28.8864 24.402C28.8875 24.303 28.8992 24.2043 28.9213 24.1077C28.7117 24.23 28.2019 24.5244 28.0573 24.6553C27.9204 24.7776 27.6902 24.9932 27.632 25.0952C27.7689 24.6933 27.9116 24.3322 27.935 24.1661C27.7254 24.3176 26.7465 25.1244 26.237 25.6573L24.6495 26.9418C24.4663 27.0406 24.2777 27.129 24.0845 27.2064C23.8109 27.3228 23.4875 27.4218 23.2487 27.5151C23.3128 27.3433 23.4146 27.1916 23.5574 27.0461C23.7089 26.9034 24.1632 26.4111 24.2331 26.1821C24.2972 25.9432 24.3118 25.8006 24.2273 25.5996C24.1486 25.6199 23.9681 25.6287 23.8458 25.6637C23.7235 25.6986 23.5924 25.8296 23.5924 25.8296C23.5924 25.8296 23.6855 25.2966 23.8865 24.7928C23.735 24.7985 23.4758 24.8421 23.4758 24.8421C23.4758 24.8421 23.837 24.2364 24.455 23.8141C24.2657 23.8544 24.0805 23.9119 23.9017 23.9858C23.5405 24.1373 23.1444 24.3615 22.8503 24.4838C23.0162 24.2534 24.1812 22.5907 24.8745 21.0411C25.5657 19.4945 25.824 19.0984 25.9755 18.2684C26.054 17.8577 26.0331 17.2508 26.054 16.7073C26.0743 16.1683 26.1414 15.6849 26.0978 15.3615C26.2782 15.5858 26.9541 16.2179 26.9773 17.6306C26.9977 19.0431 26.3309 20.951 25.623 21.979C25.7958 22.0285 26.2435 22.0869 26.7035 21.2878C27.1636 20.4887 27.158 20.2656 27.3241 19.9334C27.3444 20.0995 27.3385 20.1577 27.3385 20.1577C27.3385 20.1577 28.0086 19.3452 28.3259 18.3228C28.3901 18.7626 28.5794 19.1501 28.2822 19.9569C28.0172 20.6849 27.6706 20.8627 27.6706 20.8627C27.6706 20.8627 27.8425 20.8335 28.0957 20.682C28.1395 20.7898 28.1309 20.9124 28.2036 20.9558C28.2764 20.9992 28.3755 21.0724 28.3901 21.1423C28.4686 21.0257 28.5909 20.8771 28.6289 20.7665C28.5997 20.9969 28.5794 22.0044 28.6865 22.517C28.911 22.4966 29.141 22.482 29.2982 22.0771C29.1905 22.4734 29.1905 22.7121 29.2633 23.05C29.3827 22.9686 29.4904 22.8228 29.4904 22.8228L29.4912 22.8234Z" fill="#C0993A"/>
<path fill-rule="evenodd" clip-rule="evenodd" d="M21.9233 6.76896C21.9233 6.76896 21.699 6.86208 21.3175 6.86208C20.9856 6.86208 21.0787 6.73402 20.5603 6.73402C19.7623 6.73402 16.9749 7.19482 16.4855 7.18829C16.1679 7.18253 17.5572 7.32518 17.5572 7.32518L21.1079 7.37472L21.8214 7.31712L22.0865 6.7776L21.9233 6.76896Z" fill="#A88F33"/>
<path fill-rule="evenodd" clip-rule="evenodd" d="M12.7165 13.7098C12.7165 13.7098 12.2621 14.0563 12.0699 14.3215C11.8777 14.5866 11.7757 14.7612 11.5573 14.9768C11.6085 14.9787 11.6598 14.9718 11.7087 14.9564C11.7087 14.9564 11.7087 15.014 11.6738 15.0292C11.704 15.0258 11.7346 15.0292 11.7633 15.0392C11.792 15.0492 11.8181 15.0654 11.8397 15.0868C11.7756 15.1217 11.6008 15.2966 11.7377 15.5034C11.8397 15.6607 12.0553 15.6751 12.0553 15.6751C12.0553 15.6751 12.0058 15.8179 12.2125 15.8033C12.6582 15.783 13.1562 15.5877 13.3862 15.6372C13.6166 15.6948 13.7476 15.716 13.9106 15.9986C14.0834 16.2781 14.2339 16.3219 14.2339 16.3219C14.2339 16.3219 14.3359 16.0625 14.3126 15.6753C14.3962 15.4665 14.4426 15.2447 14.4495 15.02L14.2981 13.9044L13.637 13.0685L12.7807 13.5433L12.7165 13.7092V13.7098Z" fill="#E3C571"/>
<path fill-rule="evenodd" clip-rule="evenodd" d="M13.5291 13.5437C13.5291 13.5437 13.5932 13.6952 13.8612 13.7096C13.832 13.7737 13.832 13.7825 13.8409 13.8319C13.8466 13.8814 13.8553 13.9542 13.8553 13.9542C13.8848 13.9399 13.9114 13.9204 13.934 13.8966C13.9486 13.9607 13.9194 14.0625 13.934 14.1354C13.943 14.1798 13.9576 14.2228 13.9776 14.2635C13.9818 14.2535 13.9867 14.2438 13.9922 14.2345C13.9979 14.2199 14.0498 14.3917 14.1932 14.5225C14.1931 14.5024 14.198 14.4826 14.2076 14.4649C14.2098 14.5014 14.2219 14.5367 14.2425 14.5668C14.2318 14.5617 14.222 14.5549 14.2135 14.5465C14.2135 14.5465 14.2279 15.0073 14.3067 15.2456C14.3198 15.2302 14.3315 15.2136 14.3416 15.196C14.3416 15.1816 14.3358 15.3243 14.3212 15.4264C14.3009 15.5284 14.3155 15.671 14.3155 15.671C14.368 15.6297 14.4257 15.5954 14.4871 15.5691C14.5745 15.534 14.7175 15.4262 14.8047 15.1874C14.8553 15.0521 14.8943 14.9128 14.9212 14.7709C14.9494 14.8252 14.9688 14.8835 14.9788 14.9437C14.9848 15.0165 15.1217 14.9787 15.1217 14.9787L15.1509 14.6611L15.3237 13.9417L15.4809 13.4961L16.2382 12.3166L17.6064 11.2629L18.8006 11.5367L19.8082 10.1677L18.0723 9.12499L16.4296 9.29683L14.9387 11.3618L13.7447 13.2348L13.5291 13.5435V13.5437Z" fill="#D8B65B"/>
<path fill-rule="evenodd" clip-rule="evenodd" d="M22.133 10.5554C22.133 10.5554 22.031 10.5757 21.7369 10.7282C21.4427 10.8806 21.2388 10.929 21.1252 11.1533C21.0115 11.3775 21.0029 11.5553 21.0029 11.5553C21.0029 11.5553 21.2039 11.468 21.3204 11.4388C21.4427 11.4098 21.5796 11.4184 21.565 11.468C21.551 11.5019 21.5316 11.5334 21.5074 11.5611C21.5074 11.5611 21.7378 11.5553 21.7317 11.669C21.7255 11.7827 21.6881 11.9078 21.6445 11.9631C21.6007 12.0207 21.4203 12.106 21.3999 12.173C21.3504 12.3099 21.4203 12.3156 21.394 12.4262C21.3736 12.5341 21.2776 12.7438 20.9629 13.1107C20.6396 13.4778 20.5021 13.737 20.5021 13.737C20.5021 13.737 20.3449 13.4429 20.2633 13.1894C20.2057 13.2184 19.8964 13.3903 19.8964 13.3903L19.1798 10.8943L19.1942 10.7282C19.1942 10.7282 19.2583 10.6497 19.2729 10.5039C19.1652 10.469 19.1506 10.4398 19.0078 10.3031C18.8649 10.1664 18.7486 10.0001 18.5099 9.88646C18.475 9.82234 18.4312 9.73517 18.2565 9.70003C18.0818 9.6649 17.9769 9.6361 17.9769 9.6361C17.9769 9.6361 18.0701 9.60096 18.1138 9.52819C18.0059 9.54278 17.9188 9.57773 17.6828 9.57197C17.4439 9.56602 17.4176 9.55738 17.2867 9.57773C17.1557 9.59808 16.9987 9.65645 16.9401 9.45542C16.876 9.40589 16.7391 9.44966 16.6226 9.62131C16.506 9.79296 16.4653 9.93005 16.2411 9.99706C16.2253 10.0959 16.1907 10.1908 16.1391 10.2766C16.075 10.3845 15.973 10.4922 15.8361 10.6524C15.6205 10.9058 15.6555 11.3222 15.3118 11.6398C14.9652 11.9572 15.3694 10.7601 15.3694 10.7601L15.9227 9.43526L17.4985 7.89446L19.9451 7.72858L20.184 8.99578L21.3782 9.40646L22.1326 10.5569L22.133 10.5554Z" fill="#D3AE4D"/>
<path fill-rule="evenodd" clip-rule="evenodd" d="M22.5204 10.8349L21.4923 9.35251L20.7728 8.79898C20.7728 8.79898 20.2602 7.85549 20.2252 7.8263C20.1961 7.80595 19.7126 7.75354 19.4039 7.73318L19.4615 7.87584C19.5289 7.89773 19.5887 7.93811 19.6343 7.99238C19.7712 8.14963 19.8585 8.44666 19.5469 8.76423C19.6692 8.80781 19.7197 8.82182 19.8265 8.80781C19.7188 8.93606 19.4741 9.20986 19.4596 9.4487C19.445 9.64378 19.5673 9.70195 19.5673 9.70195C19.5673 9.70195 19.3808 9.91757 19.3722 10.278C19.4602 10.1787 19.5566 10.0871 19.6602 10.0042C19.8758 9.83136 20.1728 9.63706 20.3739 9.51475C20.3711 9.56608 20.378 9.61746 20.3942 9.66624C20.3942 9.66624 20.7698 9.3575 21.0854 9.4944C21.2281 9.55853 21.1639 9.75955 21.1639 9.75955C21.1639 9.75955 21.3592 9.68678 21.4961 9.82368C21.633 9.96058 21.8281 10.3129 21.9271 10.45C21.9707 10.5141 22.0844 10.6364 22.2007 10.8255C22.3597 11.0906 22.4925 11.3706 22.597 11.6615C22.6028 11.545 22.6262 11.382 22.8274 11.382L22.5216 10.8344L22.5204 10.8349Z" fill="#CAA13E"/>
<path fill-rule="evenodd" clip-rule="evenodd" d="M7.10687 15.0467C7.10687 15.0467 7.0341 14.866 7.10687 14.5137C7.17963 14.1613 7.2933 13.9953 7.33112 13.4769C7.36895 12.9585 7.70687 12.3118 7.70687 12.3118L8.64171 11.8867L9.30296 12.0672L9.49803 12.9527L8.66207 13.4135C8.66207 13.4135 8.61848 13.6086 8.38251 13.7658C8.14655 13.9231 7.82034 14.0454 7.74181 14.2057C7.69486 14.3039 7.6606 14.4076 7.63986 14.5144C7.63986 14.5144 7.40101 14.4649 7.25835 14.6221C7.10687 14.7825 7.11263 14.9251 7.10687 15.0474V15.0467Z" fill="#F4EFC8"/>
<path fill-rule="evenodd" clip-rule="evenodd" d="M8.99424 14.8107C8.99424 14.8107 8.91552 14.8602 8.85734 14.9835C8.79974 14.8904 8.66208 14.3368 8.65632 13.8388C8.65056 13.3407 8.6208 13.2173 8.736 13.0456C8.8512 12.874 9.30297 12.6931 9.23884 12.384C9.17472 12.0899 8.90668 11.9676 8.5776 12.052C8.3472 12.1096 8.17574 12.5996 7.93689 12.8442C7.75622 13.0307 7.5408 13.0015 7.48262 13.1034C7.4039 13.2403 7.47667 13.3772 7.45344 13.4646C7.44748 13.4938 7.37472 13.651 7.24358 13.8403C6.97862 14.2218 6.53011 14.7608 6.47174 15.2442C6.49209 14.9704 6.47769 14.9647 6.55046 14.6617L6.50668 14.5889L6.79468 13.6452L6.98112 12.8676L7.39776 11.5655L8.13158 10.2346L8.84524 9.43642L9.5879 9.48595L9.67526 10.6015L10.1005 12.6958L10.9947 13.7967L9.5616 14.7612L8.99366 14.8107H8.99424Z" fill="#EBCC73"/>
<path fill-rule="evenodd" clip-rule="evenodd" d="M9.43983 15.2064C9.43983 15.2064 9.31752 15.2356 9.27375 15.2124C9.22997 15.1891 9.18658 15.1628 9.20098 15.1336C9.21538 15.1044 9.2941 15.0551 9.2941 15.0317C9.29572 15.0105 9.28902 14.9896 9.27543 14.9732C9.26185 14.9569 9.24244 14.9466 9.22133 14.9443C9.15432 14.9357 9.13397 14.9793 9.13397 14.9793C9.13397 14.9793 9.06984 14.9299 9.01762 14.9217C9.04852 14.9179 9.07961 14.9159 9.11074 14.9157C9.03025 14.8793 8.94487 14.8547 8.8573 14.8429C8.93007 14.7994 9.07292 14.6711 9.16604 14.6711C9.25916 14.6711 9.31752 14.6567 9.30293 14.6072C9.28834 14.5576 9.21557 14.4849 9.13704 14.4557C9.16604 14.4207 9.18658 14.3683 9.11669 14.2253C9.04373 14.0826 9.07292 13.9864 9.09634 13.9517C9.11669 13.9079 9.18946 13.8294 9.2244 13.7798C9.25935 13.7303 9.28853 13.6633 9.34671 13.6284C9.37589 13.608 9.46901 13.5708 9.56232 13.5352C9.66428 13.5003 9.74876 13.4565 9.80693 13.5003C9.87106 13.5439 9.84188 13.6022 9.84188 13.6022C9.84188 13.6022 10.0429 13.5293 10.2234 13.6226C10.4041 13.7098 10.8439 13.7652 10.8439 13.7652L11.0016 14.0828L9.9588 14.977L9.52776 15.1926L9.4404 15.207L9.43983 15.2064Z" fill="#E5C66B"/>
<path fill-rule="evenodd" clip-rule="evenodd" d="M10.8873 13.7447C10.8873 13.7447 10.564 13.9603 10.4912 14.0388C10.5348 14.0448 10.6076 14.074 10.5784 14.1176C10.5435 14.1612 10.3338 14.3126 10.2173 14.4555C10.095 14.5981 9.97841 14.7788 9.9377 14.8662C9.89412 14.9447 9.56196 15.1749 9.44849 15.2039C9.68733 15.2039 10.1679 14.9098 10.3484 14.9098C10.3426 14.9971 10.3979 15.0962 10.4999 15.1048C10.6018 15.1135 10.896 15.169 11.2921 14.9244C11.6882 14.6855 11.5572 14.5077 11.7231 14.3914C12.0407 14.1815 12.1687 13.9951 12.3435 13.8787C12.5182 13.7624 12.6086 13.7359 12.6086 13.7359C12.6086 13.7359 12.6144 13.6485 12.6662 13.6573C12.6804 13.659 12.6939 13.6644 12.7052 13.6732C12.7165 13.6819 12.7252 13.6936 12.7303 13.7069C12.7303 13.7069 13.0333 13.4913 13.4215 13.4331C13.4125 13.429 13.4052 13.4218 13.4012 13.4127C13.4012 13.4127 13.4302 13.3981 13.4361 13.3836C13.4361 13.3836 13.4565 13.3544 13.4711 13.369C13.4857 13.3836 13.506 13.4913 13.5352 13.535C13.5993 13.5059 13.7216 13.2321 13.7216 13.2321L14.016 12.3903V11.6214L13.7856 11.6652L12.0576 12.399L11.0089 13.4855L10.8866 13.7447H10.8873Z" fill="#E6BD62"/>
<path fill-rule="evenodd" clip-rule="evenodd" d="M15.862 9.97286C15.9555 9.95019 16.0451 9.91382 16.128 9.86496C16.093 9.95827 16.093 10.0602 15.9415 10.2816C15.79 10.503 15.7843 10.535 15.662 10.7651C15.5397 11.0039 15.5251 11.3476 15.4085 11.4989C15.4608 11.4735 15.5168 11.4568 15.5744 11.4495C15.5744 11.4495 15.4581 11.5515 15.4085 11.6592C15.359 11.7669 15.2716 11.9912 15.0562 12.1283C14.8408 12.2653 14.5668 12.3525 14.2727 12.6758C13.9783 12.9932 13.6755 13.3953 13.5239 13.5398C13.6026 13.4029 13.7103 13.1292 13.7395 12.9487C13.7687 12.7682 13.7335 12.5524 13.7831 12.3137C13.8326 12.0751 13.8326 11.903 14.0711 11.4864C14.3095 11.0698 14.7177 9.62227 14.7177 9.62227L15.5973 9.34272L15.8624 9.9719L15.862 9.97286Z" fill="#B6933F"/>
<path fill-rule="evenodd" clip-rule="evenodd" d="M15.2271 9.43987C15.2271 9.43987 14.9622 9.82138 14.8894 10.1593C14.8166 10.4972 14.8834 10.468 14.8399 10.6341C14.8138 10.7354 14.8138 10.8416 14.8399 10.9428C14.9316 10.795 15.0573 10.6712 15.2064 10.5815C15.457 10.4302 15.6609 10.3223 15.7824 10.1942C15.9047 10.0573 16.0066 9.83309 16.2716 9.66125C16.1639 9.64666 16.0124 9.59712 15.9836 9.60365C16.0915 9.48134 16.4146 9.29491 16.7409 9.07066C17.0642 8.84026 17.0438 8.74733 17.5682 8.51731C17.3963 8.5465 17.3147 8.50272 17.1719 8.51731C17.2295 8.39501 17.4311 8.33664 17.6327 8.13581C17.8343 7.93498 17.5046 7.63776 17.5046 7.63776L15.9686 8.56685L15.226 9.44064L15.2271 9.43987Z" fill="#C49937"/>
<path fill-rule="evenodd" clip-rule="evenodd" d="M11.0592 8.74656L11.0941 8.46701L11.534 7.76217L11.9942 6.52435V4.83206L11.9593 3.85344L12.0321 3.21254L12.0874 3.00883L12.1457 2.93011L12.5213 3.12518L13.0399 3.83001L13.0894 5.19033L12.5854 7.33689L11.1466 8.90688L11.0592 8.74656Z" fill="#DFC068"/>
<path fill-rule="evenodd" clip-rule="evenodd" d="M12.2039 2.85139C12.2039 2.85139 11.9735 2.85734 11.9243 3.81562C11.8752 4.77389 11.8514 5.2777 11.8164 5.75251C11.7815 6.22733 11.7001 6.51552 11.6592 6.79526C11.6183 7.07501 11.5951 7.45632 11.4641 7.68941C11.4065 7.79712 11.2834 8.13504 10.9951 8.38848C10.6717 8.66803 10.1887 8.8633 10.1155 8.87789C9.98725 8.90688 9.33771 8.97101 9.07275 9.11674C8.97963 9.16627 8.81931 9.22445 8.64171 9.39053C8.2892 9.7079 7.82034 10.2758 7.48242 10.9603C6.96402 11.9827 6.44562 14.8691 6.44562 14.8691L6.56216 14.674C6.56216 14.674 6.57675 14.4148 6.83595 13.9603C7.08939 13.506 7.01663 12.9963 7.36895 12.1254C7.50584 11.7934 7.67768 11.3624 7.88735 10.9953C8.21951 10.3981 8.62136 9.8855 9.02629 9.60595C9.68735 9.15168 10.4156 9.05261 10.4156 9.05261L11.1992 8.53421C11.1992 8.53421 11.3361 8.26925 11.5167 7.96627C11.77 7.54118 12.0927 7.06637 12.1632 6.37613C12.2711 5.35373 12.0117 4.68384 12.0263 4.07808C12.0409 3.47232 12.0466 3.02669 12.1691 2.91878C12.2916 2.81088 12.2041 2.85178 12.2041 2.85178L12.2039 2.85139Z" fill="#A88F33"/>
<path fill-rule="evenodd" clip-rule="evenodd" d="M12.2039 7.42425C12.2039 7.42425 12.5495 6.57369 12.7077 5.81933C12.7369 5.66784 12.795 5.51654 12.8096 5.39424C12.8824 4.68058 12.9028 4.38643 12.8096 3.9961C12.7369 3.7081 12.4573 3.44851 12.3116 3.2473C12.1689 3.03744 12.1019 2.9593 12.1311 2.91514C12.1603 2.87098 12.2738 2.79878 12.3844 2.80742C12.5019 2.81084 12.6175 2.83814 12.7242 2.88765C12.8309 2.93716 12.9264 3.00785 13.0049 3.09542C13.2292 3.35462 13.4068 4.23437 13.4068 4.23437L13.5936 5.3952L14.0684 6.85728L12.2043 7.42541L12.2039 7.42425Z" fill="#C99E3D"/>
<path fill-rule="evenodd" clip-rule="evenodd" d="M15.4514 6.53894C15.4514 6.53894 15.3873 6.56794 15.2709 6.53894C15.2759 6.58649 15.2676 6.63449 15.2471 6.67765C15.2265 6.7208 15.1944 6.75745 15.1544 6.78355C15.0321 6.73401 13.8872 6.83309 13.8872 6.83309C13.8872 6.83309 13.3542 6.73978 13.1881 6.03494C13.0718 5.56589 13.2755 4.91942 13.2085 4.49414C13.1065 3.86784 12.9639 3.74534 12.9493 3.55046C12.9347 3.35558 12.9201 3.30586 12.9201 3.18355C12.8559 3.16896 12.8181 3.14861 12.7542 3.14861C12.7396 3.09101 12.7686 3.0407 12.7047 2.93875C12.7396 2.95334 12.9784 2.98253 13.258 3.24749C13.4884 3.4631 13.4884 3.54163 13.5231 3.58541C13.5667 3.62899 13.9192 3.93101 14.0707 4.23206C14.2222 4.53312 14.5164 5.49312 14.5834 5.65037C14.6037 5.7145 14.6475 5.77862 14.7562 5.92416C14.9251 6.13401 15.1726 6.48096 15.4522 6.53856L15.4514 6.53894Z" fill="#B58634"/>
<path fill-rule="evenodd" clip-rule="evenodd" d="M13.5642 3.6C13.7407 3.88502 13.8992 4.18076 14.0388 4.4855C14.2107 4.87277 14.3126 5.19033 14.5282 5.44953C14.4117 5.11181 14.2049 4.44768 14.0826 4.21171C13.9457 3.96211 13.6662 3.69331 13.5642 3.60019V3.6Z" fill="#A88F33"/>
<path fill-rule="evenodd" clip-rule="evenodd" d="M11.5835 8.38848C11.5835 8.38848 11.2894 8.46125 10.7418 8.74963C10.5611 8.84275 10.3895 8.92128 10.2234 8.99424C9.79198 9.18931 9.32926 9.3696 8.96216 9.46906C8.99134 9.504 9.00574 9.5184 9.00574 9.5184C9.00574 9.5184 9.00574 9.66125 9.08446 9.74266C9.04087 9.78643 8.45815 10.1825 8.63019 11.5077C8.74654 11.4641 8.88343 11.4058 8.90379 11.4058C8.93892 11.4117 8.94756 11.5077 8.99115 11.5077C9.03473 11.5077 9.17758 11.4501 9.32907 11.2543C9.32331 11.333 9.23595 12.1252 9.70481 12.6582C9.79217 12.5562 10.0135 12.2183 10.0135 12.2183L10.0193 12.1106C10.0193 12.1106 10.0397 11.7348 10.1622 11.3912C10.2847 11.0475 10.5233 10.7941 10.5233 10.7941L11.7696 9.0144L11.5831 8.38829L11.5835 8.38848Z" fill="#E6C367"/>
<path fill-rule="evenodd" clip-rule="evenodd" d="M10.4185 11.0016C10.3614 11.0419 10.2986 11.0733 10.2321 11.0947C10.2117 11.022 10.1825 10.7714 10.3544 10.5268C10.5554 10.2324 10.9951 9.85095 11.1174 9.54759C11.1961 9.35232 11.1611 8.86311 11.8602 8.2368C12.5593 7.6105 12.8329 7.39507 12.8329 7.39507L13.963 6.82714L15.3523 7.37472L14.6621 10.08L14.1262 11.3472L11.995 10.9453L10.4183 11.0016H10.4185Z" fill="#DCBA5A"/>
<path fill-rule="evenodd" clip-rule="evenodd" d="M11.232 10.267L11.4971 9.93504V9.69907C11.4971 9.69907 11.7913 9.62035 12.1087 9.29702C12.426 8.9737 12.8659 8.35334 13.2534 8.39117C13.6408 8.43494 13.6787 9.2329 13.6932 9.45734C13.7078 9.68179 13.7574 10.1912 13.8359 10.4652C13.9233 10.7389 12.8922 11.7757 12.8922 11.7757L12.192 12.3087L11.232 10.267Z" fill="#E9CE77"/>
<path fill-rule="evenodd" clip-rule="evenodd" d="M12.0524 13.031C12.0524 13.031 12.268 12.6931 12.11 12.6204C12.2031 12.4107 12.375 12.1893 12.375 12.1893C12.375 12.1893 12.4973 11.8865 12.8934 11.5137C13.2895 11.1408 13.5343 10.8931 13.5984 10.6428C13.6379 10.4796 13.6595 10.3126 13.6625 10.1447C13.7054 10.1797 13.7512 10.2108 13.7994 10.2378C13.8636 10.267 14.1663 10.5174 14.1228 11.0214C14.0792 11.5254 13.8924 11.735 13.8924 11.735C13.8924 11.735 13.7119 11.9155 13.5838 12.0088C13.4467 12.102 13.3974 12.2097 13.1672 12.2185C13.1908 12.1997 13.2174 12.1849 13.2459 12.1747C13.2459 12.1747 13.0071 12.1457 12.8788 12.2621C12.7505 12.3784 12.4779 12.7369 12.341 12.8448C12.2041 12.9322 12.053 13.0312 12.053 13.0312L12.0524 13.031Z" fill="#CDAE50"/>
<path fill-rule="evenodd" clip-rule="evenodd" d="M21.7369 7.36589C21.3928 7.24048 21.0311 7.16973 20.6651 7.15623C20.0534 7.13587 19.1593 7.17082 18.2826 7.17658C17.3389 7.18234 16.4826 6.85325 15.2943 6.79507C15.0992 6.67853 14.6031 6.16877 13.0544 7.24935C13.1476 7.24359 14.1788 7.0105 14.5369 7.4592C14.898 7.90483 14.7961 8.66208 14.7467 8.84256C14.6534 9.24461 14.3504 9.83002 14.2283 10.2407C14.1062 10.6514 14.135 10.8672 14.0477 11.1552C13.9603 11.4432 13.7681 11.5862 13.8816 11.9182C14.0331 11.8251 14.112 11.8251 14.365 11.2572C14.6181 10.6892 14.5661 10.2843 14.9856 9.80371C15.3963 9.32026 16.08 8.65901 16.3399 8.49293C16.5999 8.32685 18.6641 7.25511 20.8255 8.27751C21.3467 8.22221 21.7371 7.3657 21.7371 7.3657L21.7369 7.36589Z" fill="#D2A83E"/>
<path fill-rule="evenodd" clip-rule="evenodd" d="M13.9252 6.9696C13.923 6.94771 13.9182 6.92617 13.9108 6.90547C13.8906 6.86288 13.864 6.82358 13.8321 6.78893C13.8321 6.78893 13.3194 6.69581 13.0602 6.7248C12.6058 6.77433 12.1951 7.33651 12.0029 7.62489C11.8107 7.91328 11.5718 8.35872 11.3126 8.58893C11.3155 8.5665 11.3103 8.54379 11.298 8.5248C11.298 8.5248 11.3126 8.54515 11.2836 8.57433C11.2546 8.60352 11.2545 8.61792 11.269 8.63193L11.3128 8.67552C11.3272 8.67552 11.7293 8.49485 12.2769 7.98432C12.8594 7.45133 13.305 7.17792 13.5381 7.08422C13.6624 7.0314 13.7923 6.99294 13.9254 6.9696H13.9252Z" fill="#C29637"/>
<path fill-rule="evenodd" clip-rule="evenodd" d="M23.8691 4.77965C23.8691 4.77965 23.7758 4.896 23.6592 5.02426C23.4 5.29805 23.0621 5.60659 22.7737 5.92416C22.5001 6.22714 22.1914 6.4631 21.8446 6.8592C21.4979 7.2553 21.0958 7.69498 20.9941 7.82323C20.9009 7.95149 20.8282 8.16115 20.8282 8.26886C20.7786 8.23392 20.7205 8.1961 20.7205 8.1961C20.745 8.24182 20.7742 8.28482 20.8078 8.32435C20.8806 8.4263 20.9941 8.55475 21.0524 8.63309C21.124 8.73281 21.1754 8.84559 21.2037 8.96506C21.2387 8.97082 21.4629 9.01459 21.7427 8.55437C22.0224 8.09414 22.3891 7.59034 22.3891 7.59034L22.9717 6.72518L23.3388 5.99136L23.7996 5.16998L23.8696 4.77965H23.8691Z" fill="#AC8132"/>
<path fill-rule="evenodd" clip-rule="evenodd" d="M24.4661 4.19136C24.4661 4.19136 24.1136 4.47936 23.9767 4.65216C23.8398 4.82496 23.5159 5.27846 23.5159 5.27846L23.6325 5.26387L24.2238 4.73971L24.4542 4.32902L24.4659 4.19213L24.4661 4.19136Z" fill="#A88F33"/>
<path fill-rule="evenodd" clip-rule="evenodd" d="M24.3582 27.3379C24.3582 27.3379 24.3525 27.0991 24.4865 26.9564C24.6234 26.8136 24.9699 26.6039 25.3079 25.8175C25.6458 25.031 25.6834 24.8534 25.6834 24.8534C25.6834 24.8534 25.0777 25.3718 24.7042 25.4941C24.7916 25.3135 24.8411 25.1854 24.8849 25.0921C24.8353 25.0485 24.6257 24.999 24.6053 24.9757C24.7217 24.8592 24.7858 24.5737 25.0218 24.3844C25.3248 24.154 25.8781 23.7581 26.3082 23.4052C26.7383 23.0523 27.5838 22.2315 27.6917 21.9926C27.7559 22.0858 27.7703 22.1439 27.7703 22.1439C27.7703 22.1439 27.3452 22.6975 27.1238 23.0498C26.9285 23.3528 26.9431 23.5246 26.9431 23.5246L27.3452 23.3518C27.3452 23.3518 27.4615 23.7828 26.9345 24.4383C27.1649 24.351 27.2578 24.4034 27.3888 24.3304C27.1731 24.4675 26.8761 24.654 26.5966 25.1664C26.3228 25.679 25.9499 26.2762 25.3209 26.6488C24.7092 27.042 24.3567 27.3362 24.3567 27.3362L24.3582 27.3379Z" fill="#A67A2E"/>
<path fill-rule="evenodd" clip-rule="evenodd" d="M22.7796 7.66906C22.7796 7.66906 22.5408 8.16691 22.5059 8.55437C22.5001 8.64768 22.4767 8.72045 22.4767 8.82816C22.4709 9.17472 22.497 9.56218 22.4191 9.74266C22.3899 9.66989 22.3753 9.62035 22.3461 9.59136C22.3025 9.71367 22.2238 10.0952 22.1597 10.2378C22.1307 10.1447 22.0666 9.82138 22.0725 9.43987C22.0785 9.05837 22.0869 8.98541 22.0869 8.90688C22.0725 9.02323 21.9938 9.18067 21.9646 9.27379C21.921 9.19527 21.8715 9.09331 21.8131 9.00883C21.7782 9.06643 21.7346 9.15149 21.6968 9.19527C21.6908 9.16032 21.6764 9.06701 21.6676 8.93607C21.6618 8.78458 21.653 8.58951 21.6618 8.54861C21.6762 8.47008 21.7987 8.16135 22.0579 7.87872C22.3667 7.5408 22.6842 6.89146 22.7773 6.69043C22.8705 6.48941 23.2666 5.65363 23.2666 5.65363H23.5695L23.1297 6.65549C23.1297 6.65549 22.8647 7.20307 22.7278 7.40429C22.5909 7.60551 22.3025 8.18208 22.1743 8.40634C22.2674 8.28403 22.3461 8.21991 22.4394 8.10336C22.5297 8.02176 22.78 7.66944 22.78 7.66944L22.7796 7.66906Z" fill="#8C6228"/>
<path fill-rule="evenodd" clip-rule="evenodd" d="M24.4719 4.15334C24.4224 4.30566 24.3442 4.44709 24.2415 4.56998C24.0608 4.7856 23.6734 5.07379 23.4843 5.30381C23.3115 5.52806 22.9659 6.13977 23.1229 6.86496C23.1805 6.70771 23.289 6.39609 23.5774 6.04358C23.8658 5.69107 24.1745 5.28634 24.3262 4.97184C24.4775 4.65427 24.4978 4.4039 24.4978 4.4039L24.5554 4.33114L24.5205 4.16505L24.4709 4.15334H24.4719Z" fill="#CBA94C"/>
<path fill-rule="evenodd" clip-rule="evenodd" d="M30.37 23.4728C30.37 23.4728 30.2535 23.1554 30.2185 22.867C30.1836 22.5786 30.2761 22.5214 30.169 22.1914C30.1048 21.9903 29.9885 22.0186 29.9593 21.9903C29.9301 21.9621 29.9098 21.6584 29.9155 21.4923C29.9213 21.3262 29.9098 21.1108 29.8806 21.0175C29.837 20.9825 29.8078 20.9533 29.7437 20.7379C29.6709 20.5223 29.636 20.4146 29.601 20.3507C29.5661 20.2867 29.4639 20.2284 29.4639 20.1642C29.4639 20.036 29.5805 19.9692 29.5805 19.9338C29.5747 19.8611 29.4874 19.9194 29.4639 19.8989C29.435 19.8639 29.5369 19.6543 29.4991 19.6251C29.4845 19.6107 29.3825 19.733 29.3562 19.698C29.3271 19.6629 29.2921 19.3164 29.2397 19.0863C29.1903 18.8621 29.1377 18.6991 29.132 18.6321C29.1262 18.5679 28.7299 17.4378 28.6339 17.164C28.5566 16.9327 28.4914 16.6974 28.4389 16.4592C28.4097 16.3223 28.3893 16.0426 28.3747 16.0717C28.3601 16.1009 28.369 16.2436 28.3455 16.2378C28.3252 16.2319 28.2524 15.734 28.2292 15.6553C28.2088 15.5766 28.0863 15.3097 28.0564 15.1165C28.0272 14.9213 27.9633 14.4115 27.9195 14.065C27.8757 13.7184 27.8554 13.5757 27.8554 13.489C27.8625 13.2767 27.8508 13.0642 27.8204 12.854C27.7628 12.4869 27.6476 12.0413 27.5466 11.7823C27.3516 11.2929 26.833 10.0404 26.7402 9.72883C26.7402 9.65011 26.8422 9.69389 26.8422 9.69389C26.8422 9.69389 27.0954 10.3288 27.2819 10.818C27.4625 11.3075 27.6344 11.7385 27.6782 11.7823C27.7131 11.8259 27.9869 12.3064 28.1092 13.0929C28.2315 13.8793 28.2751 14.6045 28.348 15.0879C28.383 15.3183 28.4122 15.5628 28.4849 15.8074C28.5635 16.0725 28.6858 16.3463 28.8461 16.7656C28.983 17.1181 29.0849 17.4123 29.1402 17.6657C29.2044 17.9891 29.2044 18.2337 29.2422 18.394C29.2773 18.5309 29.3295 18.8045 29.452 19.2004C29.5745 19.5963 29.7548 20.1062 29.8771 20.4236C30.1162 21.0586 30.2227 21.5887 30.2588 21.8713C30.2907 22.1626 30.3986 23.1704 30.3694 23.4732L30.37 23.4728Z" fill="#A88F33"/>
<path fill-rule="evenodd" clip-rule="evenodd" d="M24.4865 4.1184L24.4719 4.15334C24.4719 4.15334 24.5155 4.16794 24.5069 4.2263C24.5075 4.30616 24.5026 4.38596 24.4923 4.46515C24.4779 4.5671 24.4487 4.64563 24.4429 4.70976C24.4429 4.84666 24.4633 5.0039 24.2701 5.39424C24.2125 5.50195 24.177 5.59507 24.1478 5.6592C24.0751 5.81645 24.0605 5.83987 23.9963 5.91264C24.0983 5.85504 24.4654 5.62464 24.6516 5.6592C24.5236 5.73197 24.3283 5.87482 24.206 6.06125C24.2352 6.06701 24.3575 6.09043 24.5516 6.06125C24.8749 6.01171 25.2361 5.89517 25.5535 5.9184C25.9002 5.93875 25.7633 5.50195 25.7633 5.50195L25.3632 4.6224L24.6059 4.0896L24.4865 4.11859V4.1184Z" fill="#BE9C44"/>
<path fill-rule="evenodd" clip-rule="evenodd" d="M26.4612 10.7069C26.4612 10.7069 26.1233 10.369 25.9864 9.20928C25.8495 8.04423 25.8787 6.32928 25.8787 6.32928L25.6049 5.65939C25.6049 5.65939 25.5473 5.21376 25.4039 5.04787C25.2605 4.88199 24.9788 4.60224 24.8505 4.46535C24.7223 4.32845 24.5767 4.14202 24.4894 4.11283C24.533 4.04007 24.7282 3.62938 25.4766 3.62362C26.2251 3.61786 26.4558 4.03431 26.534 4.18579C26.6121 4.33728 26.965 4.99219 27.096 6.24019C27.2183 7.48666 27.2242 7.57997 27.2039 8.01101C27.1893 8.24986 27.1106 8.8032 26.9735 9.39437C26.8483 9.89549 26.7114 10.4548 26.4608 10.708L26.4612 10.7069Z" fill="#A17C34"/>
<path fill-rule="evenodd" clip-rule="evenodd" d="M25.4016 11.7001C25.5142 11.7082 25.6267 11.6828 25.7249 11.6271C25.8326 11.6214 26.2229 11.6709 26.5228 11.2894C26.5432 11.3766 26.5958 11.6127 26.4587 11.8224C26.5317 11.7494 26.6394 11.7204 26.654 11.7001C26.6597 11.8078 26.7617 12.1398 26.3307 12.9466C26.447 12.8185 26.5839 12.8243 26.7062 12.8097C26.7122 12.9611 26.7936 13.4707 26.5781 13.7447C26.4355 13.9311 26.2024 13.8728 26.2024 13.8728C26.2058 13.8321 26.2058 13.7912 26.2024 13.7505C26.1966 13.6717 26.1675 13.5932 26.188 13.5408C26.0754 13.4894 25.9728 13.4183 25.885 13.3309C25.6316 13.0921 25.3025 12.6845 25.2793 12.3815C25.2501 12.0436 25.5531 11.9708 25.5531 11.9708C25.5277 11.9481 25.506 11.9215 25.4889 11.8921C25.4743 11.8428 25.4597 11.764 25.4016 11.7001Z" fill="#8C6228"/>
<path fill-rule="evenodd" clip-rule="evenodd" d="M23.1552 8.03597C23.1552 8.03597 23.1406 8.01561 23.0621 8.10873C23.0767 8.01561 23.0913 7.92806 23.097 7.84358C23.1342 7.76537 23.1823 7.69284 23.2399 7.62816C23.1961 7.71533 23.1669 7.79405 23.1669 7.79405C23.1669 7.79405 23.2748 7.59302 23.4321 7.47072C23.5398 7.38336 23.6767 7.34265 23.7348 7.26105C23.799 7.17369 23.7844 7.1591 23.799 7.14451C23.799 7.14451 23.9418 7.05139 24.1603 6.77741C24.1893 6.74246 24.2331 6.70464 24.2623 6.66969C24.3116 6.64934 24.4282 6.59693 24.565 6.52685C24.7079 6.44832 24.868 6.34061 24.9671 6.29645C25.1622 6.20909 25.3691 6.21792 25.4651 6.08083C25.5379 6.06048 25.6164 5.84198 25.602 5.65574C25.7098 5.69933 26.2631 6.04301 26.4526 6.79449C26.5895 7.32749 26.3447 8.14886 26.2427 8.54515C26.1408 8.94144 26.1264 9.23539 25.9835 9.41587C25.8029 9.65491 25.2205 9.99187 25.0777 10.1587C24.9554 10.2956 24.5885 10.6422 24.6029 10.8925C24.6175 11.079 24.8475 11.1805 24.8972 11.2159C24.9469 11.2512 24.9466 11.2946 25.0399 11.2735C25.1332 11.2523 25.1679 11.2093 25.2059 11.2093C25.2495 11.2151 25.2495 11.2239 25.2699 11.2239C25.2846 11.2235 25.2993 11.2215 25.3137 11.218C25.3137 11.218 25.2991 11.4831 24.6787 11.5636C24.6349 11.5695 24.5914 11.5839 24.5359 11.5928C24.6088 11.5578 24.6524 11.5578 24.7311 11.4501C24.6438 11.4355 24.3932 11.4209 24.3291 11.4006C24.3494 11.3656 24.4164 11.2723 24.4717 11.2287C24.5213 11.1852 24.466 11.1711 24.4224 11.1938C24.3474 11.2448 24.2754 11.3002 24.2068 11.3597C24.134 11.4238 24.0699 11.5112 23.9533 11.5901C23.9184 11.4735 23.9242 11.2522 24.0612 11.092C24.0261 11.0978 23.9591 11.1997 23.8952 11.1794C23.8836 11.0732 23.8905 10.9657 23.9155 10.8618C23.9505 10.7307 24.1398 10.5007 24.1398 10.5007L25.0543 8.86656L25.2493 7.62873L23.1552 8.03558V8.03597Z" fill="#92723A"/>
<path fill-rule="evenodd" clip-rule="evenodd" d="M23.1059 8.10586C23.1059 8.10586 23.0563 8.1408 23.1554 8.20781C23.1408 8.22816 23.1059 8.30093 23.0621 8.35046C23.0127 8.40806 22.9601 8.44378 22.9398 8.49331C22.8962 8.59526 22.8612 8.66515 22.8612 8.70893C22.8612 8.7527 22.8467 9.03226 22.7244 9.21274C22.6806 9.27686 22.631 9.38458 22.5961 9.45734C22.5233 9.58541 22.4592 9.68774 22.4446 9.74534C22.4156 9.8473 22.3953 10.1268 22.3953 10.1268C22.3953 10.1268 22.4594 10.0481 22.4826 10.0191C22.4475 10.0919 22.4097 10.1704 22.3544 10.2288C22.3893 10.1996 22.4913 10.1268 22.6631 9.97536C22.902 9.77453 23.2748 9.43661 23.7293 9.16896C23.5922 9.2185 23.4758 9.2185 23.3827 9.23309C23.4555 9.16032 24.1108 8.39136 24.4545 8.31859C24.4753 8.29213 24.4857 8.25891 24.4836 8.22528L24.1893 8.19629L23.5922 8.32435L23.505 7.86355L23.1059 8.10528V8.10586Z" fill="#B18E3E"/>
<path fill-rule="evenodd" clip-rule="evenodd" d="M24.0555 10.7272C24.0555 10.7272 23.9768 10.8058 23.904 11.001C23.848 10.9425 23.7999 10.8769 23.7611 10.8058C23.6534 10.6253 23.4875 10.3951 23.1001 10.5262C23.0943 10.4039 23.0855 10.3398 23.1001 10.2524C23.1642 10.238 23.3593 10.0808 23.5544 9.85056C23.6914 9.69331 23.8195 9.51264 23.9069 9.28263C23.9645 9.23885 24.0641 9.16608 24.1949 9.0816C24.3813 8.95354 24.6056 8.77863 24.6405 8.58355C24.5531 8.6185 24.3667 8.70586 24.087 8.69146C24.1949 8.64192 24.3608 8.58951 24.3404 8.37389C24.3842 8.34471 24.4191 8.32435 24.4191 8.32435C24.3863 8.3134 24.3518 8.30846 24.3172 8.30976C24.3112 8.28941 24.3026 8.26042 24.253 8.27482C24.2035 8.28922 24.1954 8.28941 24.1889 8.30976C24.1686 8.31571 24.1016 8.30976 24.052 8.3449C24.0025 8.38003 23.8656 8.49619 23.8132 8.51655C23.8335 8.4816 23.8625 8.42938 23.8625 8.42938C23.8625 8.42938 23.7199 8.44378 23.6179 8.48698C23.4315 8.55111 23.2161 8.66765 22.9976 8.78112C23.0179 8.74618 23.0267 8.72352 23.0411 8.71699C23.0555 8.71047 23.0907 8.70259 23.0907 8.69664C23.0907 8.69069 23.0763 8.63904 23.0849 8.61811C23.1502 8.47973 23.2273 8.34721 23.3153 8.22202C23.4173 8.08493 23.4376 7.88986 23.4376 7.88986L23.8833 7.6656L25.1357 7.3776L25.9484 7.42714L25.8465 7.98931L25.3665 8.97082L24.9558 9.86496L24.4867 10.4127L24.0557 10.7272H24.0555Z" fill="#543E26"/>
<path fill-rule="evenodd" clip-rule="evenodd" d="M26.0855 8.2944C26.0855 8.2944 25.5961 8.90016 25.4592 8.99347C25.5465 8.80704 26.0855 7.69728 26.2806 7.38855C26.237 7.3536 26.1786 7.3536 26.3155 6.81255C26.1991 7.08615 26.1582 7.22899 26.0622 7.30176C25.9662 7.37453 25.9543 7.3513 25.8894 7.3513C25.9017 7.32913 25.9067 7.30369 25.9038 7.27853C25.9038 7.27853 25.4932 7.22899 25.2126 7.22899C24.9321 7.22899 24.3769 7.38048 24.0679 7.50279C23.8233 7.60474 23.6864 7.60474 23.5991 7.66867C23.5117 7.74144 23.4622 7.82016 23.4184 7.84051C23.3835 7.86087 23.2176 7.91328 23.1796 7.96858C23.1446 8.02618 23.0864 8.09088 23.0864 8.10547C23.0864 8.12007 23.0718 8.14061 23.1156 8.12583C23.13 8.12007 23.2379 8.0617 23.3602 7.98893C23.5261 7.89581 23.7271 7.7881 23.8729 7.72397C24.2893 7.55789 24.4205 7.58707 24.6067 7.55213C24.8018 7.51719 25.0815 7.43559 25.2678 7.43559C25.4542 7.42983 25.8067 7.43559 25.8883 7.45018C25.8534 7.47936 25.8242 7.51431 25.8388 7.63661C25.8388 7.67155 25.8096 7.70938 25.7812 7.79386C25.694 8.03271 25.5279 8.4288 25.4356 8.62983C25.3075 8.90343 25.162 9.13363 25.09 9.27629C25.018 9.41895 24.8596 9.79469 24.7027 9.99571C24.5458 10.1967 24.4638 10.319 24.4147 10.3628C24.3655 10.4066 24.0126 10.6656 24.039 10.7589C24.1031 10.7386 24.508 10.5861 24.802 10.2551C25.0959 9.9241 25.1545 9.72211 25.3845 9.54144C25.6145 9.36077 25.7952 9.05799 25.9029 8.80762C25.9931 8.57453 25.9728 8.50176 26.0862 8.29498L26.0855 8.2944Z" fill="#806031"/>
<path fill-rule="evenodd" clip-rule="evenodd" d="M15.5389 12.8156C15.5389 12.8156 15.4748 13.0806 15.3291 13.2117C15.1864 13.34 14.933 13.4506 14.904 13.6662C14.8691 13.8816 15.1574 13.9895 15.1574 13.9895C15.1574 13.9895 15 14.2487 15 14.4438C15 14.6448 14.9942 14.6826 15.0146 14.8748C14.9915 14.8897 14.9719 14.9093 14.957 14.9324C14.957 14.9324 14.9714 15.1188 15.1142 15.2352C15.2571 15.3516 15.3792 15.4216 15.452 15.3924C15.4631 15.4162 15.4728 15.4406 15.4812 15.4654C15.4812 15.4654 15.5891 15.1916 15.6618 14.9528C15.7346 14.7082 15.7987 14.7429 15.8277 14.4138C15.8567 14.0847 16.1733 13.5197 16.1733 13.5197L16.3893 13.0368L16.037 12.763L15.5389 12.8154V12.8156Z" fill="#B6903C"/>
<path fill-rule="evenodd" clip-rule="evenodd" d="M16.1942 13.2902C16.1216 13.3648 16.0545 13.4447 15.9936 13.5291C15.9005 13.6573 15.8277 13.7737 15.6908 13.8234C15.5539 13.8732 15.4666 13.8728 15.4752 14.0099C15.4838 14.1469 15.6121 14.2049 15.6849 14.2748C15.7636 14.3476 15.8277 14.4699 15.7928 14.607C15.8363 14.5866 15.9151 14.5632 15.9878 14.406C16.0606 14.2487 16.5696 13.2904 16.5696 13.2904H16.1942V13.2902Z" fill="#685026"/>
<path fill-rule="evenodd" clip-rule="evenodd" d="M18.2016 11.0795C18.2016 11.0795 18.2451 10.9632 18.2016 10.8787C18.1578 10.7914 17.8928 10.7622 17.7617 10.6631C17.6248 10.5611 17.4587 10.4903 17.3218 10.535C17.3422 10.4855 17.4238 10.3776 17.3568 10.3544C17.2926 10.334 17.054 10.4417 16.9899 10.4913C16.9257 10.5408 16.78 10.599 16.751 10.6341C16.722 10.6692 16.6723 10.7361 16.6431 10.7069C16.6139 10.6865 16.5995 10.6341 16.55 10.6631C16.5004 10.6921 16.262 10.8874 16.218 11.001C16.174 11.1147 16.0752 11.3681 15.7781 11.6563C15.4811 11.9445 15.3529 12.1311 15.4402 12.2388C15.5276 12.3466 15.5685 12.268 15.5831 12.3612C15.5943 12.4526 15.5894 12.5452 15.5685 12.6349C15.5335 12.7864 15.4754 12.9291 15.5539 12.9583C15.7549 13.0224 15.9502 12.9007 15.9938 12.9379C16.0811 13.0164 15.9442 13.2991 16.151 13.3544C16.3609 13.412 16.5676 13.3048 16.5676 13.3048L17.3307 12.8941L18.0647 12.5069L18.4402 11.764L18.2388 11.1437L18.2004 11.0795H18.2016Z" fill="#D4B968"/>
<path fill-rule="evenodd" clip-rule="evenodd" d="M17.4816 12.8534C17.4816 12.8534 17.3533 12.6584 17.5107 12.4863C17.6682 12.3143 17.8922 12.2417 17.9796 12.134C17.963 12.1135 17.9407 12.0983 17.9155 12.0904C17.9735 11.9867 18.0619 11.9032 18.1689 11.8514C18.1253 11.8078 18.067 11.7729 18.003 11.7729C17.8602 11.7729 17.7726 11.8602 17.6417 11.8602C17.5136 11.8602 17.499 11.7961 17.499 11.7961C17.499 11.7961 17.7146 11.7757 17.6941 11.6796C17.6738 11.5776 17.6365 11.5776 17.6365 11.5776C17.6365 11.5776 18.053 11.4048 18.1257 11.3126C18.1985 11.2205 18.1898 11.1116 18.2044 11.068C18.2538 11.068 18.5422 10.9165 18.6587 10.9807C18.7753 11.0448 18.6937 11.2195 18.6937 11.2195C18.6937 11.2195 19.0464 10.9544 19.2261 10.6944C19.3833 10.709 19.4565 10.5867 19.5717 10.5867C19.7145 10.5867 19.9388 10.7818 19.9824 11.1982C20.0115 11.4371 20.0551 11.574 20.0115 11.9964C19.9912 12.2352 19.997 12.7452 20.0691 12.9982C20.1185 13.1992 20.235 13.1789 20.235 13.1789C20.2172 13.2401 20.1817 13.2948 20.1331 13.3361C20.0544 13.4089 20.0457 13.6013 20.0544 13.674C20.066 13.7273 20.0806 13.7798 20.0981 13.8313C20.0981 13.8313 20.005 13.939 19.9816 14.012C19.9612 14.0847 19.8652 14.1343 19.7952 14.1343C19.7251 14.1343 19.7602 14.1283 19.6671 14.1343C19.574 14.1402 19.5448 14.1546 19.4864 14.1343C19.4281 14.1139 19.3845 14.0905 19.4079 13.9039C19.4282 13.7174 18.6885 13.2835 18.6885 13.2835L17.4789 12.8525L17.4816 12.8534Z" fill="#CCA849"/>
<path fill-rule="evenodd" clip-rule="evenodd" d="M16.0923 14.6941C16.0923 14.6941 16.3572 15.0467 17.4466 15.0467C17.965 15.0467 18.1457 14.9971 18.253 14.9679C18.3696 14.9388 18.8064 14.7671 19.2463 14.2485C19.6423 13.7796 19.555 13.5875 19.555 13.5875L19.3246 13.5525L18.5758 13.6545L16.3601 14.5981L16.0913 14.6941H16.0923Z" fill="#585136"/>
<path fill-rule="evenodd" clip-rule="evenodd" d="M16.9048 14.7815C16.9048 14.7815 15.9611 14.9914 15.9611 14.3942C15.9611 13.8117 16.5436 13.2 16.6894 13.0923C16.8409 12.9844 17.202 12.8619 17.202 12.8619H18.0729L18.2388 13.3018L18.166 14.2512L16.9048 14.7813V14.7815Z" fill="#252211"/>
<path fill-rule="evenodd" clip-rule="evenodd" d="M17.7757 13.0399C17.7757 13.0399 17.5953 12.8738 17.1846 13.0975C16.7739 13.3212 16.4417 13.7887 16.4214 14.2132C16.401 14.5887 16.7301 14.8685 17.2427 14.8831C17.6242 14.8975 17.8545 14.8539 17.971 14.8255C17.9418 14.7905 17.7903 14.6012 17.7903 14.6012L17.7759 13.0401L17.7757 13.0399Z" fill="#C3B378"/>
<path fill-rule="evenodd" clip-rule="evenodd" d="M17.5982 13.1328C17.5982 13.1328 17.5546 13.0979 17.4254 13.1677C17.3176 13.2253 17.1604 13.3776 17.0381 13.4853C16.9594 13.5494 16.9098 13.5784 16.8653 13.628C16.6846 13.8436 16.5331 14.1961 16.6207 14.3708C16.7082 14.5455 16.9964 14.7466 17.7304 14.6097L17.596 13.133L17.5982 13.1328Z" fill="#E6D89C"/>
<path fill-rule="evenodd" clip-rule="evenodd" d="M17.3593 13.4941C17.3593 13.4941 17.2427 13.6748 17.2427 13.9632C17.2427 14.2573 17.4088 14.7262 18.0205 14.7612C18.4894 14.7903 18.8039 14.0855 19.1447 13.8117C19.4039 13.602 19.5611 13.5961 19.5611 13.5961C19.5611 13.5961 19.2962 13.3081 18.5884 12.935C17.8894 12.5593 17.1058 12.5098 16.6805 13.0865C16.8816 13.0719 17.5311 12.9059 17.5311 12.9059L17.8487 13.0078L17.3593 13.4943V13.4941Z" fill="#252211"/>
<path fill-rule="evenodd" clip-rule="evenodd" d="M18.2738 13.8756C18.2534 13.8321 18.2389 13.7737 18.3233 13.7593C18.4078 13.7449 18.4456 13.7533 18.4748 13.8169C18.504 13.8804 18.5324 13.9334 18.4892 13.9597C18.4456 13.983 18.332 13.9597 18.2736 13.8753L18.2738 13.8756ZM18.1369 13.465C18.1369 13.465 18.1077 13.4853 18.1223 13.4446C18.1281 13.3953 18.1661 13.3077 18.2592 13.3283C18.3523 13.3488 18.3322 13.4506 18.3168 13.4797C18.3014 13.5089 18.2237 13.5583 18.1653 13.5373C18.1579 13.5355 18.1511 13.5318 18.1453 13.5268C18.1396 13.5218 18.1351 13.5155 18.1323 13.5084C18.1294 13.5013 18.1283 13.4936 18.129 13.486C18.1296 13.4784 18.1321 13.4711 18.1361 13.4646L18.1369 13.465Z" fill="#6F674D"/>
<path fill-rule="evenodd" clip-rule="evenodd" d="M10.2528 13.6512C10.2528 13.6512 10.4832 13.824 10.7509 13.8173C11.0158 13.8113 11.3566 13.5377 11.5139 13.3628C11.607 13.2609 11.6867 13.1532 11.7731 13.0687C11.846 12.9959 11.8954 12.961 11.9303 12.9114C11.9798 12.8538 12.0323 12.7455 12.0586 12.7104C11.9944 12.7599 11.9013 12.8475 11.8051 12.9057C11.712 12.9633 11.511 13.0716 11.4294 13.1007C11.3509 13.1299 10.5352 13.5615 10.5352 13.5615L10.2528 13.6512Z" fill="#AC924C"/>
<path fill-rule="evenodd" clip-rule="evenodd" d="M10.6049 11.4991C10.6049 11.4991 10.733 11.4117 10.9807 11.3562C11.2195 11.2986 11.7001 11.2543 11.7001 11.2543L12.0962 11.4271L12.2534 12.0242L11.9654 12.6447L11.5985 12.8751L11.1819 12.2052L10.6059 11.5002L10.6049 11.4991Z" fill="#9F8E57"/>
<path fill-rule="evenodd" clip-rule="evenodd" d="M10.0865 12.0321L9.9494 12.1344C9.9494 12.1344 9.98454 12.0703 10.0135 11.8752C10.0425 11.6801 10.1942 11.2053 10.4156 10.9315C10.637 10.6577 10.6312 10.6723 10.6312 10.6723C10.6108 10.6686 10.5899 10.6693 10.5698 10.6743C10.5497 10.6793 10.5309 10.6885 10.5146 10.7013C10.5438 10.6368 10.7303 10.4064 10.9167 10.2912C11.1031 10.176 11.1759 10.1397 11.371 10.2336C11.566 10.3275 11.6156 10.3763 11.7584 10.3705C11.9013 10.3647 12.0234 10.2132 12.0234 10.2132C12.0234 10.2132 12.0526 10.3064 11.9449 10.522C11.8371 10.7376 11.4119 11.1773 11.4119 11.1773L10.5264 11.783L10.0865 12.0326V12.0321Z" fill="#EAC970"/>
<path fill-rule="evenodd" clip-rule="evenodd" d="M10.7416 11.4263C10.7416 11.4263 11.3825 11.5137 11.5776 11.3332C11.5833 11.3535 11.6068 11.3535 11.6068 11.3681C11.6052 11.3791 11.6001 11.3893 11.5922 11.3971C11.6134 11.3937 11.6348 11.3918 11.6563 11.3914C11.682 11.399 11.7083 11.4039 11.735 11.406C11.7565 11.4055 11.7779 11.4035 11.7991 11.4C11.7971 11.4145 11.7922 11.4284 11.7847 11.4409C11.7772 11.4535 11.7672 11.4644 11.7554 11.473C11.7846 11.473 11.813 11.4787 11.813 11.502C11.813 11.5252 11.8187 11.5953 11.7838 11.6099C11.7548 11.6179 11.724 11.6158 11.6964 11.6039C11.6987 11.659 11.7137 11.7129 11.7402 11.7613C11.7978 11.8691 11.9207 11.9917 12.0858 11.9564C12.0858 11.9564 12.173 12.1661 11.8061 12.6321C11.7567 12.6962 11.7041 12.7836 11.6402 12.8563C11.6149 12.9114 11.5956 12.969 11.5826 13.0282C11.5826 13.0282 12.2031 12.7893 12.3807 12.2446C12.5614 11.697 12.5963 11.1583 12.5614 10.6545C12.5554 10.5116 12.5322 10.4099 12.4973 10.3369C12.4099 10.1562 12.1651 10.1854 12.0662 10.2874C11.9234 10.4302 11.6845 10.7854 11.3526 11.03C11.0146 11.2746 11.0002 11.318 10.7408 11.4263H10.7416Z" fill="#D7BC6B"/>
<path fill-rule="evenodd" clip-rule="evenodd" d="M9.97288 12.2127C9.97288 12.2127 9.85057 12.2855 9.78645 12.5583C9.72232 12.8379 9.84405 13.1787 9.91451 13.2864C9.98497 13.3941 10.1449 13.6884 10.4767 13.703C10.5588 13.7026 10.64 13.6858 10.7155 13.6535C10.8314 13.6004 10.94 13.5329 11.0389 13.4525C11.1817 13.3448 11.2981 13.2516 11.2835 13.2428C11.2485 13.2282 10.4039 12.5292 10.4039 12.5292L10.0863 12.1747L9.97269 12.2131L9.97288 12.2127Z" fill="#585136"/>
<path fill-rule="evenodd" clip-rule="evenodd" d="M10.7712 13.3718C10.7712 13.3718 10.943 13.3574 11.045 13.2933C11.1469 13.2292 10.4479 12.5361 10.4479 12.5361L10.4974 13.2849L10.7712 13.3718Z" fill="#453A25"/>
<path fill-rule="evenodd" clip-rule="evenodd" d="M10.0282 12.1601C10.0282 12.1601 9.94081 12.3262 9.94081 12.37C9.92622 12.5126 9.97 12.9612 10.0049 13.1038C10.0399 13.2553 10.2292 13.4853 10.474 13.4853C10.6253 13.4853 10.8351 13.3922 10.8351 13.369C10.8351 13.3398 10.6195 13.3114 10.5614 13.2029C10.5264 13.1453 10.5118 13.002 10.5038 12.8573C10.498 12.7642 10.498 12.6622 10.5329 12.6269C10.6117 12.5395 10.6261 12.289 10.6261 12.289L10.9056 11.7696H10.5379L10.0981 12.0434L10.0282 12.1601Z" fill="#84754B"/>
<path fill-rule="evenodd" clip-rule="evenodd" d="M9.92041 12.3204C9.92041 12.3204 10.2084 11.9389 10.468 11.8514C10.7276 11.7638 10.8437 11.8164 10.8437 11.8164L10.6923 12.2039L10.4766 12.4428L10.4912 12.5651C10.4912 12.5651 10.4561 12.8884 10.6717 13.1126C10.8873 13.3369 11.0475 13.3283 11.1408 13.3283C11.2341 13.3283 11.5019 13.2495 11.6388 12.9262C11.7611 12.6234 11.8631 12.235 11.6185 11.8456C11.3794 11.4582 10.9572 11.4432 10.8756 11.4432C10.794 11.4432 10.1533 11.4753 9.92041 12.3199V12.3204Z" fill="#252211"/>
<path fill-rule="evenodd" clip-rule="evenodd" d="M17.3155 13.6165C17.2078 13.5669 17.3097 13.2641 17.4174 13.1708C17.5252 13.0775 17.6621 12.97 17.9011 12.9552C17.9883 12.9494 18.0727 13.0047 18.0583 13.0631C18.038 13.1708 17.8865 13.3223 17.7496 13.43C17.5603 13.5786 17.4378 13.6717 17.3155 13.6165Z" fill="#F7F7E7"/>
<path fill-rule="evenodd" clip-rule="evenodd" d="M11.4902 11.9651C11.5689 11.9593 11.6709 12.0227 11.6912 12.1079C11.7116 12.201 11.6417 12.3875 11.4902 12.3875C11.3679 12.3875 11.3038 12.236 11.3038 12.1924C11.3051 12.1565 11.3152 12.1216 11.333 12.0904C11.3387 12.0816 11.3533 11.9796 11.4902 11.9651Z" fill="#F8F6DE"/>
<path fill-rule="evenodd" clip-rule="evenodd" d="M10.3544 12.0321C10.3544 12.0321 10.1534 12.1252 10.0602 12.3201C9.9937 12.464 9.97357 12.625 10.0026 12.7809C10.0172 12.8536 10.09 13.0341 10.1395 13.0982C10.1891 13.1624 10.2561 13.2061 10.3056 13.2002C10.3552 13.1942 10.4569 13.0633 10.4569 12.9848C10.4569 12.9062 10.4629 12.5741 10.5589 12.3934C10.6433 12.2129 10.355 12.0323 10.355 12.0323L10.3544 12.0321Z" fill="#D4C38B"/>
<path fill-rule="evenodd" clip-rule="evenodd" d="M10.3835 12.0175C10.3486 12.0378 10.2904 12.067 10.3048 12.1048C10.3194 12.1398 10.4417 12.1624 10.4855 12.2477C10.535 12.335 10.535 12.4282 10.5204 12.4719C10.5585 12.4539 10.593 12.4292 10.6224 12.399C10.6865 12.3262 10.765 12.2273 10.832 12.2273C10.8758 12.2273 10.9194 12.2477 10.9603 12.2477C11.0244 12.2477 11.0883 12.2273 11.0972 12.1603C11.1116 12.073 10.9749 11.9942 10.8962 12.0088C10.9108 11.9512 10.9311 11.8662 10.867 11.8078C10.8028 11.7494 10.602 11.8516 10.5582 11.8808C10.5145 11.91 10.3835 12.0177 10.3835 12.0177V12.0175Z" fill="#E2D59D"/>
<path fill-rule="evenodd" clip-rule="evenodd" d="M15.0117 18.1369L15.4427 18.0096L15.565 18.097C15.565 18.097 15.6522 18.2834 15.7893 18.3066C15.7455 18.3997 15.6319 18.4794 15.6378 18.5455C15.6438 18.6115 15.7019 18.662 15.7019 18.662C15.7019 18.662 15.3145 19.3027 16.0777 19.9484C15.897 20.0212 15.667 20.1212 15.5447 20.1788C15.6319 20.1992 15.8183 20.2364 15.897 20.3071C15.9757 20.3777 15.9757 20.4002 16.0485 20.444C16.1213 20.4877 16.1649 20.5459 16.1505 20.572C16.1009 20.5428 15.9348 20.4557 15.9058 20.5371C15.8769 20.6185 15.1864 20.5866 15.1864 20.5866L14.0214 20.8109C14.0214 20.8109 14.065 20.6943 13.9426 20.5866C13.8 20.4586 13.6253 20.5924 13.4388 20.4497C13.1942 20.2633 13.1854 20.0477 13.1069 19.9663C13.1854 19.9167 13.3457 19.844 13.7272 19.7935C13.7126 19.7643 13.6631 19.6769 13.6923 19.5984C13.7272 19.4964 13.8728 19.4323 13.8292 19.3104C13.8933 19.2958 13.9223 19.2958 14.0826 19.0948C14.2341 18.8938 14.3272 18.8502 14.4438 18.8356C14.5603 18.821 14.6302 18.8356 14.8458 18.6346C14.9971 18.4919 14.9478 18.3696 14.9478 18.3696C14.9478 18.3696 15.0466 18.3375 15.0119 18.1365L15.0117 18.1369Z" fill="#CBAC5A"/>
<path fill-rule="evenodd" clip-rule="evenodd" d="M13.739 18.2016C13.7447 18.1724 13.7681 18.1578 13.9254 18.1724C14.0826 18.187 15.0787 18.0793 15.3496 18.0647C15.6234 18.0444 16.5875 18.0588 17.0565 18.1578C17.5256 18.2569 18.0002 18.3734 18.2302 18.4316C18.4606 18.4957 18.5332 18.5188 18.5244 18.548C18.5186 18.5772 18.4668 18.6056 18.437 18.5975C18.408 18.5917 17.6448 18.3587 17.409 18.3095C17.1733 18.2604 16.3575 18.1288 15.9114 18.1367C15.495 18.1427 15.3289 18.1309 14.9766 18.1716C14.6241 18.2154 14.0415 18.2736 13.8668 18.2504C13.694 18.23 13.7297 18.23 13.7386 18.2008L13.739 18.2016Z" fill="#D6BC6F"/>
<path fill-rule="evenodd" clip-rule="evenodd" d="M16.0834 20.4845C16.0834 20.4845 16.6805 20.8078 16.8962 21.2039C17.0534 21.498 16.803 21.6438 16.803 21.6438C16.803 21.6438 17.141 21.6438 17.0972 21.8302C17.0768 21.9466 16.5147 22.2611 16.1389 22.4271C15.7574 22.5932 15.772 22.5846 15.5856 22.6136C15.4049 22.6428 14.9097 22.556 14.8078 22.7009C14.7058 22.8459 14.7502 22.9953 14.7786 23.0185C14.8078 23.0388 15.0437 23.068 15.0437 23.068C15.0437 23.068 14.9942 23.2049 14.505 23.2195C14.0158 23.2341 13.8933 23.2689 13.8641 23.3215C13.8349 23.3708 13.9572 23.3418 14.1817 23.3791C14.4059 23.414 14.7204 23.4367 14.7204 23.4367C14.7204 23.4367 14.6185 23.524 14.3535 23.5939C14.0505 23.6724 13.5757 23.7454 13.4331 23.8328C13.5058 23.8823 13.6137 23.9551 13.6635 23.9608C13.5412 23.99 13.3691 24.0541 13.3401 24.0774C13.3837 24.1066 13.4421 24.1415 13.4421 24.1415C13.4421 24.1415 13.1973 24.4356 13.0546 24.5086C12.912 24.5816 12.0906 24.9629 11.808 24.8901C11.1031 24.7037 11.0158 23.9318 10.8439 23.8737C10.5847 23.7863 10.4624 23.9608 10.2322 23.8385C10.3342 23.7658 10.3897 23.7222 10.4974 23.6726C10.3808 23.615 9.77795 23.2328 9.77795 23.2328C9.71491 23.0954 9.64493 22.9612 9.56829 22.8309C9.45174 22.6299 9.28029 22.3619 9.15165 22.1259C8.8721 21.6075 8.8575 21.3686 8.60406 21.0745C8.64784 21.0169 8.79914 21.025 8.79914 21.025L10.9227 21.724L14.688 21.8331L15.6672 20.4351L16.0836 20.4847L16.0834 20.4845Z" fill="#DFC677"/>
<path fill-rule="evenodd" clip-rule="evenodd" d="M10.5059 22.6164C10.5286 22.6417 10.5551 22.6634 10.5844 22.6806C10.6573 22.7301 10.7651 22.7885 10.8378 22.8756C10.867 22.8321 10.9398 22.7533 11.0682 22.8756C11.1967 22.998 11.3562 22.9108 11.4555 22.9398C11.5574 22.9749 11.5632 22.9893 11.5632 22.9893C11.5632 22.9893 11.6208 22.9398 11.7496 22.8874C11.8284 22.8582 11.9215 22.8378 12.0234 22.8088C12.1165 22.7885 12.2185 22.7593 12.2886 22.7593C12.3527 22.8029 12.5827 23.0473 13.5061 22.6865C14.377 22.3486 14.5778 22.3108 14.7235 22.363C14.7381 22.3281 14.7527 22.2611 14.977 22.2699C14.977 22.1768 14.7905 21.8592 14.7905 21.8592L13.7624 21.5069H13.2L11.5137 21.8156L10.5792 22.3488L10.5064 22.6176L10.5059 22.6164Z" fill="#C4A859"/>
<path fill-rule="evenodd" clip-rule="evenodd" d="M9.94366 22.0253C9.94366 22.0253 9.96402 22.1825 10.1971 22.3486C10.4275 22.5145 10.4999 22.6136 10.4999 22.6136C10.4999 22.6136 10.5437 22.556 10.5786 22.4972C10.6136 22.4331 10.6427 22.3603 10.7009 22.34C10.8175 22.2904 11.0824 22.3836 11.1408 22.369C11.1903 22.3546 11.1757 22.2526 11.2281 22.2526C11.3504 22.2467 11.429 22.3311 11.4728 22.3311C11.5165 22.3311 11.624 22.3254 11.6386 22.3021C11.6532 22.2789 11.659 22.037 11.8251 21.9204C12.0057 21.7924 12.2271 21.8477 12.2859 21.8769C12.2859 21.9204 12.2916 22.0284 12.4082 22.0341C12.5247 22.0399 12.5362 22.0195 12.6386 22.0545C12.7409 22.0894 12.8628 22.0487 12.9181 22.2204C12.9677 22.206 13.0842 22.1914 13.055 22.0253C13.1126 21.9817 13.1629 21.9525 13.2854 21.7807C13.3146 21.7371 13.364 21.6876 13.402 21.6234C13.5039 21.6234 13.6262 21.6031 13.7892 21.7457C13.7397 21.7807 13.7105 21.8033 13.6961 21.8388C13.7387 21.8811 13.7777 21.9269 13.8125 21.9757C13.8562 22.0333 13.8854 22.104 13.9407 22.1186C14.063 22.1535 14.264 22.104 14.4883 22.1186C14.7039 22.1332 14.8844 22.2117 14.9631 22.2612C14.9923 22.2468 14.9923 22.2409 15.0651 22.2555C15.1378 22.2701 15.1931 22.2758 15.1146 22.1827C15.1582 22.2031 15.2077 22.2468 15.2515 22.2031C15.2953 22.1593 15.33 22.0954 15.4523 22.0808C15.5746 22.0662 15.6184 22.0865 15.668 21.9585C15.7321 21.8012 15.5107 21.8012 15.5107 21.8012C15.5107 21.8012 15.6127 21.7079 15.7263 21.5856C15.8632 21.4575 16.0205 21.2915 16.0583 21.0876C16.1224 20.7118 15.7555 20.6625 15.7555 20.6625L13.9759 21.21L11.8001 21.1021L9.94482 22.0255L9.94366 22.0253Z" fill="#927D49"/>
<path fill-rule="evenodd" clip-rule="evenodd" d="M8.3447 16.8845C8.3447 16.8845 8.2871 16.9572 8.25158 17.1291C8.21606 17.3009 8.23123 17.2806 8.20205 17.4029C8.17286 17.5252 7.8144 18.7427 7.9488 19.1533C8.0832 19.564 8.3159 19.7155 8.46144 20.0475C8.49062 20.1203 8.51904 20.164 8.53421 20.2282C8.58374 20.4436 8.54016 20.6097 8.59834 20.8253C8.61869 20.898 8.6713 20.9825 8.74982 21.0699C8.92262 21.2504 9.20429 21.4222 9.32582 21.5445C9.49747 21.7252 9.74227 22.0923 10.0539 22.127C10.22 22.1474 10.4559 22.0775 10.651 21.9612C10.8238 21.8533 10.9306 21.702 11.1118 21.6156C11.2399 21.5514 11.3768 21.5282 11.4991 21.499C11.7525 21.4495 11.9827 21.4414 12.1196 21.4698C12.3293 21.5136 12.8244 21.6651 13.0988 21.6651C13.3132 21.6616 13.5264 21.6323 13.7338 21.5777C14.1502 21.4554 14.654 21.2456 14.9862 21.1524C15.1812 21.0948 15.3385 21.0797 15.4988 21.0447C15.7726 20.9806 16.0026 20.8933 16.1338 20.7272C16.0464 20.6252 15.9387 20.468 15.356 20.4737C14.6949 20.4883 13.9317 20.8552 13.556 20.9136C13.1802 20.972 13.0172 21.0213 12.5977 20.8698C12.1864 20.7168 12.1728 20.6156 12.1728 20.6156C12.1728 20.6156 11.741 20.3136 11.5603 19.5437C11.3796 18.7738 11.5603 18.2127 12.0294 17.6796C12.1517 17.5427 12.1225 17.4204 12.1225 17.4204C12.1225 17.4204 12.4312 17.0039 12.3468 16.614C12.2536 16.2265 11.6565 16.3052 11.6565 16.3052L8.3449 16.8845H8.3447Z" fill="#6E6342"/>
<path fill-rule="evenodd" clip-rule="evenodd" d="M8.84272 18.1807C8.81704 18.229 8.80496 18.2833 8.80777 18.3379C8.81353 18.4164 8.83696 18.5184 9.07273 18.7486C9.27376 18.9494 9.22998 19.1737 9.22998 19.1737C9.22998 19.1737 9.33116 19.194 9.60572 19.0656C9.82134 18.9636 9.89372 19.1443 9.89372 19.1443C9.95649 19.1114 10.0245 19.0897 10.0947 19.0802C10.1584 19.0743 10.22 19.0547 10.2752 19.0226C10.2752 19.0226 10.5287 19.2818 10.75 19.4041C10.9511 19.512 11.0676 19.5848 11.1667 19.512C11.2598 19.4479 11.2598 19.3167 11.2539 19.2586C11.2307 19.2049 11.2015 19.154 11.1667 19.1071C11.1026 19.014 11.0006 18.906 10.9939 18.8191C10.9793 18.6182 11.1454 18.3792 11.1102 18.321C11.0751 18.2628 10.9443 18.2483 10.621 18.3648C10.2862 18.4754 8.84137 18.1812 8.84137 18.1812L8.84272 18.1807Z" fill="#39331F"/>
<path fill-rule="evenodd" clip-rule="evenodd" d="M9.60574 19.4826C9.60574 19.4826 9.43985 19.3254 9.49803 18.5622C9.56846 18.5612 9.63878 18.568 9.70769 18.5825C9.70769 18.5825 9.79812 19.1739 9.60574 19.4826Z" fill="#292311"/>
<path fill-rule="evenodd" clip-rule="evenodd" d="M8.42341 16.302C8.44656 16.2848 8.46803 16.2655 8.48754 16.2444C8.42994 16.3521 8.16402 16.7831 8.37963 17.4618C8.59525 18.1375 9.13688 18.6413 9.80389 18.6647C10.4709 18.6881 10.8215 18.3617 11.2224 17.8725C11.3796 17.6774 11.5603 17.4326 11.7204 17.2668C11.9593 17.0074 12.1457 16.9346 12.1457 16.6842C12.1457 16.1716 11.6214 15.9414 10.8495 15.7114C10.0777 15.4813 9.38149 15.5098 9.02034 15.6672C8.66802 15.8388 8.51653 16.0195 8.42322 16.3021L8.42341 16.302Z" fill="#252211"/>
<path fill-rule="evenodd" clip-rule="evenodd" d="M10.9019 19.7126L10.9595 19.6835C10.9595 19.6835 10.9739 19.4531 11.0673 19.4592C11.1604 19.4738 11.2042 19.5963 11.1953 19.6399C11.1896 19.6835 11.1663 19.7564 11.073 19.7476C10.9507 19.7505 10.9014 19.7126 10.9014 19.7126H10.9019Z" fill="#3F3824"/>
<path fill-rule="evenodd" clip-rule="evenodd" d="M10.6428 18.734C10.6428 18.734 10.7004 18.7137 10.7708 18.7836C10.8284 18.7836 11.0796 18.7544 11.1583 18.8039C11.237 18.8534 11.2602 18.897 11.2602 18.897C11.2602 18.897 10.9661 18.9612 10.8058 18.897C10.6428 18.8417 10.6428 18.734 10.6428 18.734Z" fill="#2D2815"/>
<path fill-rule="evenodd" clip-rule="evenodd" d="M11.9389 18.7776C11.9389 18.763 11.7817 18.6553 11.6156 18.6202C11.5864 18.6144 11.5804 18.6348 11.558 18.6348C11.5434 18.629 11.5376 18.5852 11.5376 18.5852L11.4432 18.6349C11.4432 18.6349 11.4286 18.6553 11.4781 18.6925C11.5217 18.7275 11.5947 18.7567 11.615 18.8148C11.6354 18.873 11.6354 18.8934 11.6442 18.9022C11.65 18.908 11.7519 18.9022 11.8014 18.873C11.851 18.8438 11.9443 18.7962 11.9383 18.777L11.9389 18.7776Z" fill="#82764F"/>
<path fill-rule="evenodd" clip-rule="evenodd" d="M10.468 19.369C10.468 19.369 10.497 19.1681 10.6923 19.1593C10.8931 19.1447 10.9311 19.3398 10.9311 19.3398L10.8146 19.4563C10.8146 19.4534 10.7272 19.3311 10.469 19.369H10.468Z" fill="#2D2816"/>
<path fill-rule="evenodd" clip-rule="evenodd" d="M11.735 18.5038C11.735 18.5038 11.6271 18.6204 11.3884 18.6553C11.3681 18.6261 11.3243 18.5679 11.3884 18.4748C11.4526 18.3817 11.5253 18.3525 11.5981 18.3815C11.6302 18.3867 11.6602 18.401 11.6844 18.4227C11.7087 18.4443 11.7262 18.4725 11.735 18.5038Z" fill="#574F35"/>
<path fill-rule="evenodd" clip-rule="evenodd" d="M12.1747 18.6467C12.1807 18.6175 12.1603 18.6117 12.1747 18.5971C12.1891 18.5825 12.268 18.5535 12.2826 18.5679C12.2884 18.5739 12.2826 18.5971 12.2826 18.6255C12.2826 18.654 12.2826 18.6831 12.268 18.7041C12.2477 18.7332 12.1895 18.7478 12.1603 18.7392C12.1311 18.7306 12.1254 18.6897 12.1254 18.6816C12.1398 18.6758 12.1747 18.6612 12.1747 18.6467ZM12.672 18.3322C12.672 18.3176 12.7215 18.2884 12.7507 18.2884C12.7943 18.2884 12.7943 18.3233 12.8002 18.3322C12.8146 18.3379 12.8146 18.3262 12.8292 18.3525C12.8438 18.3788 12.8644 18.4253 12.8496 18.4545C12.8348 18.4836 12.7768 18.5038 12.7624 18.498C12.7421 18.4835 12.6779 18.3525 12.672 18.3322Z" fill="#82764F"/>
<path fill-rule="evenodd" clip-rule="evenodd" d="M11.6709 18.7137C11.6709 18.7137 11.735 18.7281 11.8224 18.801C11.7932 18.8214 11.7494 18.8446 11.7494 18.8446C11.7494 18.8446 11.7437 18.7776 11.6709 18.7135V18.7137Z" fill="#6E6342"/>
<path fill-rule="evenodd" clip-rule="evenodd" d="M11.5282 18.0728C11.5137 18.0584 11.5718 18.0234 11.6068 18.0292C11.6417 18.0349 11.6563 18.0584 11.6941 18.0641C11.732 18.0699 11.7379 18.0495 11.7517 18.0349C11.7656 18.0204 11.8159 18.0292 11.8245 18.0349C11.8299 18.0413 11.8348 18.0481 11.8391 18.0553C11.8397 18.0442 11.8426 18.0334 11.8476 18.0235C11.8526 18.0136 11.8595 18.0048 11.8681 17.9977C11.8793 17.9895 11.8921 17.9839 11.9058 17.9814C11.9194 17.9789 11.9334 17.9794 11.9468 17.9831C11.9526 18.0035 11.9817 18.0762 11.976 18.0908C11.9702 18.1054 11.8829 18.126 11.8681 18.1112C11.8827 18.1463 11.9468 18.2191 11.9554 18.2335C11.9641 18.2479 11.8913 18.283 11.8623 18.2772C11.8216 18.2744 11.5711 18.1286 11.5275 18.0733L11.5282 18.0728ZM11.9097 17.5893C11.9044 17.5746 11.894 17.5623 11.8806 17.5544C11.8602 17.5486 11.7932 17.5544 11.7932 17.5893C11.7932 17.6243 11.8508 17.8197 11.9155 17.9215C11.9885 18.0234 12.0378 18.1077 12.0873 18.1311C12.1029 18.1382 12.1206 18.1391 12.1368 18.1337C12.153 18.1283 12.1665 18.117 12.1747 18.102C12.1805 18.0874 12.1951 17.9796 12.1893 17.7262C12.1835 17.4728 12.1747 17.2282 12.1601 17.2136C12.1455 17.199 12.0873 17.1992 12.067 17.2282C12.0466 17.2572 11.9155 17.5457 11.9096 17.5893H11.9097Z" fill="#585136"/>
<path fill-rule="evenodd" clip-rule="evenodd" d="M11.6505 19.0806C11.6505 19.0806 11.5486 19.0164 11.4495 19.0602C11.3564 19.104 11.3621 19.2758 11.3621 19.2758C11.3831 19.284 11.4057 19.287 11.4281 19.2845C11.4504 19.2819 11.4718 19.2739 11.4904 19.2612C11.5545 19.2177 11.6359 19.1449 11.6505 19.0808V19.0806Z" fill="#574F35"/>
<path fill-rule="evenodd" clip-rule="evenodd" d="M11.8428 19.3108C11.837 19.2532 11.7852 19.2532 11.7852 19.2234C11.7887 19.2092 11.797 19.1966 11.8086 19.1876C11.8202 19.1786 11.8344 19.1738 11.8491 19.1739C11.8783 19.1739 11.9067 19.2088 11.9424 19.2315C11.9773 19.2518 12.0298 19.2891 12.0355 19.3334C12.0413 19.3778 11.9779 19.4993 11.9075 19.4993C11.837 19.4993 11.8579 19.3682 11.8433 19.31L11.8428 19.3108ZM12.4049 19.2321C12.4049 19.2321 12.2884 19.267 12.297 19.2321C12.3057 19.1971 12.3322 19.1885 12.37 19.1885C12.3892 19.1684 12.4151 19.1559 12.4428 19.1533C12.4586 19.1526 12.4742 19.1578 12.4863 19.1679C12.4863 19.1679 12.5651 19.133 12.5883 19.1533C12.6115 19.1737 12.5942 19.1737 12.6086 19.1971C12.627 19.2231 12.639 19.253 12.6438 19.2845C12.6438 19.3077 12.5564 19.3572 12.4863 19.3486C12.4049 19.3311 12.4193 19.2467 12.4049 19.2321ZM13.0835 19.1009C13.0835 19.1009 13.1184 19.1213 13.0894 19.1447C13.0691 19.1651 12.9671 19.2023 12.8796 19.2088C12.7922 19.2088 12.7137 19.2232 12.7137 19.1942C12.7137 19.1652 12.7864 19.1069 12.83 19.0923C12.8388 19.0813 12.8499 19.0725 12.8625 19.0665C12.8751 19.0604 12.889 19.0573 12.903 19.0573C12.9379 19.0573 13.0746 19.0427 13.1126 19.037C13.1476 19.031 13.1768 19.0514 13.1562 19.0806C13.1476 19.1009 13.0835 19.1009 13.0835 19.1009ZM13.2845 18.2016C13.2845 18.2016 13.2407 18.2947 13.1914 18.2947C13.1418 18.289 13.1418 18.2744 13.1418 18.2598C13.1418 18.2394 13.1914 18.187 13.1854 18.1724C13.171 18.1724 13.1359 18.1724 13.1418 18.1375C13.1418 18.1083 13.1914 18.0733 13.2349 18.0799C13.2679 18.0528 13.3089 18.0375 13.3515 18.0363C13.401 18.0363 13.4446 18.0507 13.4446 18.0799C13.4446 18.1091 13.387 18.173 13.3659 18.1878C13.3427 18.211 13.3135 18.2262 13.2845 18.2022V18.2016ZM12.6204 19.9229C12.6204 19.9229 12.5628 19.9288 12.5628 19.9578C12.5628 19.9724 12.5772 19.9724 12.5977 19.9638C12.6095 19.9631 12.6213 19.9611 12.6326 19.9578C12.6384 19.9638 12.6384 19.9928 12.6822 19.9928C12.7181 19.9879 12.7528 19.976 12.7841 19.9578C12.8191 19.9434 12.8483 19.9286 12.8483 19.9002C12.8337 19.8507 12.8045 19.8273 12.7609 19.8273C12.7386 19.8258 12.7163 19.8309 12.6968 19.8419C12.6968 19.8419 12.6822 19.8127 12.6326 19.8419C12.5831 19.871 12.5889 19.871 12.6035 19.8856C12.6296 19.9089 12.6209 19.924 12.6209 19.924L12.6204 19.9229ZM12.2913 20.2259C12.2913 20.2113 12.364 20.1821 12.3844 20.1909C12.4047 20.1967 12.4629 20.3073 12.4629 20.319C12.4629 20.3336 12.3901 20.3685 12.361 20.3685C12.3318 20.3685 12.2824 20.319 12.2824 20.3109C12.2824 20.3051 12.3174 20.2965 12.3174 20.2906C12.326 20.2762 12.2913 20.241 12.2913 20.2264V20.2259ZM12.0609 19.8006C12.0755 19.7948 12.0755 19.7802 12.0958 19.7656C12.1022 19.7614 12.1094 19.7587 12.117 19.7577C12.1246 19.7567 12.1323 19.7574 12.1396 19.7599C12.1447 19.7507 12.1518 19.7428 12.1604 19.7367C12.169 19.7306 12.1788 19.7266 12.1891 19.7247C12.2241 19.719 12.2533 19.7247 12.2467 19.7393C12.2467 19.7831 12.2759 19.8121 12.2759 19.847C12.2759 19.882 12.2556 19.9258 12.1828 19.9549C12.11 19.9753 12.0109 19.9753 11.9964 19.9695C11.9818 19.9638 11.9672 19.9054 11.9818 19.8762C11.9964 19.847 12.0371 19.8152 12.0605 19.8006H12.0609Z" fill="#82764F"/>
<path fill-rule="evenodd" clip-rule="evenodd" d="M12.1536 19.8204C12.1536 19.8204 12.1041 19.8495 12.1041 19.8641C12.0997 19.8782 12.0977 19.893 12.0983 19.9077C12.0983 19.9164 12.1624 19.902 12.1711 19.8931C12.174 19.8874 12.1536 19.8355 12.1536 19.8204Z" fill="#6E6342"/>
<path fill-rule="evenodd" clip-rule="evenodd" d="M11.7204 19.6835C11.7494 19.6894 11.7989 19.6835 11.8368 19.698C11.866 19.7126 11.8863 19.7418 11.8571 19.7768C11.8279 19.8117 11.7995 19.8641 11.7348 19.8553C11.6621 19.8495 11.5922 19.8117 11.5922 19.7825C11.5909 19.7641 11.5934 19.7455 11.5994 19.728C11.6054 19.7105 11.6148 19.6944 11.6271 19.6806C11.6563 19.6573 11.6707 19.6719 11.7202 19.6835H11.7204Z" fill="#585136"/>
<path fill-rule="evenodd" clip-rule="evenodd" d="M11.6855 19.7126C11.6855 19.7126 11.5923 19.7854 11.5689 19.8205C11.5397 19.8555 11.3971 20.036 11.3535 20.0738C11.368 20.0483 11.3845 20.0239 11.4028 20.001C11.3452 20.0379 11.3021 20.0934 11.2805 20.1583C11.2456 20.2662 11.4758 20.3244 11.6271 20.3681C11.7784 20.4119 11.837 20.4257 11.837 20.4257C11.7812 20.342 11.7334 20.2533 11.6941 20.1608C11.6365 20.0239 11.6067 20.0093 11.6446 19.9452C11.6738 19.881 11.7175 19.8374 11.7175 19.7879C11.7001 19.7418 11.6855 19.7126 11.6855 19.7126Z" fill="#574F35"/>
<path fill-rule="evenodd" clip-rule="evenodd" d="M8.36507 19.9428C8.38627 19.9467 8.408 19.9467 8.4292 19.9428C8.47278 19.9369 8.92725 19.77 9.40206 19.8C9.75751 19.8215 10.1098 19.8794 10.4535 19.9728C11.0506 20.13 11.7932 20.4417 12.2738 20.6195C12.4019 20.6688 12.5272 20.7564 12.6194 20.7911C12.9865 20.934 13.0009 20.934 13.2165 20.9718C13.47 21.0067 13.7292 20.9222 14.0001 20.8641C14.332 20.7911 14.9 20.7562 15.398 20.6834C15.5591 20.6611 15.7179 20.625 15.8728 20.5757C15.8728 20.5757 15.4767 20.9718 14.5271 21.1144C14.1433 21.1727 13.7532 21.1776 13.368 21.129C13.065 21.0998 12.8642 21.0561 12.7127 21.0125C12.5409 20.9629 12.1884 20.8318 11.7544 20.7245C11.4515 20.6458 11.1135 20.5876 10.7263 20.5148C9.77089 20.3399 8.73409 20.1391 8.36469 19.944L8.36507 19.9428Z" fill="#252211"/>
<path fill-rule="evenodd" clip-rule="evenodd" d="M7.29313 18.1428C7.06273 18.3379 6.81831 18.5244 6.57966 18.7048L5.86023 19.2576C5.61563 19.4381 5.37678 19.6245 5.13198 19.8052C4.88718 19.9859 4.64276 20.1575 4.38318 20.3236C4.61358 20.1285 4.858 19.9478 5.1026 19.7702C5.34721 19.5926 5.60084 19.4185 5.83681 19.2384L6.55623 18.6849C6.80372 18.5044 7.04257 18.318 7.29313 18.1432V18.1428ZM6.02036 20.1817C6.02036 20.1817 6.27956 19.9661 6.60289 19.6633C7.00475 19.2877 7.49703 18.807 7.65428 18.7198L6.02017 20.1819L6.02036 20.1817Z" fill="#CFB66C"/>
<path fill-rule="evenodd" clip-rule="evenodd" d="M6.02032 20.1815C6.14858 20.0534 6.28548 19.9283 6.42237 19.8058L6.63204 19.6253C6.69617 19.5677 6.76913 19.503 6.83306 19.4388C6.96113 19.3108 7.0865 19.1737 7.21457 19.0428C7.27804 18.9769 7.34515 18.9147 7.41559 18.8563C7.4508 18.8252 7.48991 18.7987 7.53194 18.7776C7.56708 18.7572 7.6049 18.72 7.65424 18.7135C7.62525 18.7572 7.59031 18.7776 7.56112 18.8154C7.52618 18.8446 7.497 18.8796 7.468 18.9085C7.40388 18.9727 7.33111 19.0308 7.26698 19.0892C7.13008 19.2058 6.98743 19.3196 6.85053 19.4415C6.71364 19.5635 6.58557 19.695 6.44848 19.8173C6.30007 19.9427 6.16317 20.065 6.02032 20.1821V20.1815ZM7.76215 19.0164C7.76215 19.0164 6.81271 19.9457 6.61744 20.097L7.76215 19.0164Z" fill="#CFB66C"/>
<path fill-rule="evenodd" clip-rule="evenodd" d="M7.76214 19.0164C7.67673 19.1153 7.58515 19.2087 7.48796 19.296L7.19996 19.5698C7.10684 19.6629 7.01929 19.7562 6.92041 19.8493C6.81846 19.9367 6.72534 20.0221 6.61743 20.1028L6.89698 19.829C6.9903 19.7359 7.09225 19.6573 7.19132 19.564L7.47087 19.2902C7.56687 19.1942 7.66018 19.1009 7.76214 19.0164ZM7.80572 19.5203C7.7182 19.7645 7.61508 20.0029 7.49698 20.2339C7.25238 20.7233 6.88546 21.3348 6.72514 21.6467L7.80572 19.5203Z" fill="#CFB66C"/>
<path fill-rule="evenodd" clip-rule="evenodd" d="M7.80572 19.5204C7.80572 19.6282 7.77654 19.7215 7.74159 19.8146C7.70753 19.9078 7.6687 19.9992 7.62524 20.0884C7.58147 20.1757 7.53193 20.2691 7.48239 20.3535C7.43286 20.438 7.37468 20.5252 7.33091 20.6127L7.03676 21.1311C6.93481 21.3039 6.83574 21.4777 6.72803 21.6438C6.8008 21.4573 6.89987 21.2826 6.99318 21.1108C7.09513 20.938 7.18825 20.7652 7.28118 20.5864C7.32655 20.4974 7.36737 20.406 7.40348 20.3128C7.44707 20.2195 7.49065 20.1322 7.52579 20.0477C7.56937 19.9546 7.60431 19.867 7.64809 19.7827C7.69743 19.6923 7.73833 19.6049 7.80534 19.5204H7.80572Z" fill="#CFB66C"/>
<path fill-rule="evenodd" clip-rule="evenodd" d="M8.84277 21.9087C8.84277 21.9087 8.55477 22.2902 8.58357 22.7737C8.6621 22.5205 8.76117 22.133 8.84277 21.9087ZM9.11656 22.2912C9.11656 22.2912 9.01461 23.328 8.93013 23.8378C9.04955 23.2485 9.07278 23.2981 9.11656 22.2912ZM11.0243 23.899C11.0243 23.899 10.5932 25.1662 10.5844 25.5183C10.6777 25.1562 10.8582 24.4164 11.0243 23.898V23.899Z" fill="#DEC270"/>
<path fill-rule="evenodd" clip-rule="evenodd" d="M12.032 21.8304C12.032 21.8304 12.7311 22.9837 13.2555 23.9681C13.1136 23.4728 12.7872 22.5642 12.032 21.8304Z" fill="#CBAF59"/>
<path fill-rule="evenodd" clip-rule="evenodd" d="M13.9108 23.5283C14.2946 24.2067 14.6407 24.9058 14.9476 25.6224C14.8894 25.1272 14.732 24.2797 13.9108 23.5283Z" fill="#E3C677"/>
<path fill-rule="evenodd" clip-rule="evenodd" d="M19.433 25.2288C19.5494 25.156 19.7796 24.7597 19.9806 24.6609C20.1815 24.5589 20.333 24.5386 20.5136 24.3375C20.6941 24.1277 20.744 23.9996 21.1397 23.8337C21.6933 23.5947 21.3125 23.286 21.3125 23.286C21.3735 23.2261 21.4387 23.1706 21.5076 23.1201C21.6505 23.0124 21.8163 22.8812 21.8019 22.651C21.7816 22.2637 21.7088 21.7016 21.3913 21.3754C21.7 21.3112 22.2912 21.2676 22.6585 21.1745C23.0835 21.0666 23.2788 20.9151 23.2788 20.9151C23.2788 20.9151 23.0342 20.4987 23.4303 20.0794C23.8264 19.66 24.1497 19.4095 24.3886 18.9404C24.1148 18.9055 23.6974 18.7599 22.6322 19.1647C22.6897 19.1917 22.7452 19.2228 22.7982 19.2578C22.7982 19.2578 22.1429 19.4385 21.9041 19.6395C21.4874 19.9918 21.435 20.2802 20.9836 20.4958C20.5322 20.7114 20.0778 20.6531 19.7022 20.8278C19.3267 21.0025 19.2712 21.1511 19.1341 21.2152C19.1633 21.2502 19.1283 21.3084 19.1836 21.3579C19.1487 21.4074 18.9448 21.7394 18.738 21.7394C18.7584 21.8181 18.9331 21.8763 18.9331 21.8763C18.9331 21.8763 18.805 21.9696 18.4788 21.9928C18.6447 22.1656 18.8021 22.354 19.2361 22.6278C19.2011 22.7005 19.0554 22.8084 19.1138 22.9453C19.1779 23.0822 19.3442 23.2687 20.0079 23.4202C19.67 23.4346 19.2741 23.5133 18.7407 23.4405C18.2077 23.3764 18.1203 23.3386 17.7913 23.4202C17.8262 23.4551 17.9193 23.4551 18.0009 23.5482C17.9136 23.554 17.366 23.4841 17.1795 23.7289C16.9845 23.9821 16.9 24.3988 16.9146 24.6783C16.8126 24.7279 16.7136 24.8152 16.7631 24.9959C16.8126 25.1766 17.0718 25.2348 17.2379 25.3482C17.4038 25.4705 17.4184 25.5141 17.5758 25.4851C17.7417 25.4502 17.9863 25.2843 18.1292 25.2843C18.272 25.2843 18.3738 25.392 18.3738 25.392C18.3738 25.392 18.7612 25.2056 18.7991 25.2405C18.834 25.2755 18.8048 25.4997 18.8426 25.5347C18.881 25.561 19.3175 25.3018 19.434 25.2288H19.433Z" fill="#ECD592"/>
<path fill-rule="evenodd" clip-rule="evenodd" d="M27.9001 13.5729C26.0797 8.87193 21.5796 8.00102 21.5796 8.00102H8.74079L8.79033 12.7893H11.3472V23.4816H8.7406V28.2612H21.2242C24.2329 28.2612 26.6446 25.2378 26.6446 25.2378C30.5067 19.7564 27.8999 13.5729 27.8999 13.5729H27.9001ZM21.2913 22.0164C21.2913 22.0164 20.3121 23.4292 19.2466 23.4292H17.1154L17.065 12.801H19.8C19.8 12.801 21.0672 13.066 21.9525 15.5737C21.9525 15.5737 23.1262 19.1641 21.2913 22.0164Z" fill="white" fill-opacity="0.8"/>
</g>
<defs>
<clipPath id="clip0_55086_223573">
<rect width="36" height="36" fill="white"/>
</clipPath>
</defs>
</svg>
