<svg xmlns="http://www.w3.org/2000/svg" width="36" height="36" fill="none"><g clip-path="url(#a)"><path fill="#14151A" d="M0 12C0 5.373 5.373 0 12 0h12c6.627 0 12 5.373 12 12v12c0 6.627-5.373 12-12 12H12C5.373 36 0 30.627 0 24z"/><path fill="#E8BB41" d="m11.863 10.195 6.138-3.444 6.136 3.444-2.25 1.274-3.886-2.174-3.881 2.174zm12.274 4.35-2.25-1.276-3.886 2.176-3.881-2.176-2.257 1.276v2.542l3.875 2.176v4.343L18 24.882l2.257-1.276v-4.342l3.881-2.176zm0 6.893v-2.55l-2.25 1.275v2.543zm1.606.9-3.88 2.168v2.55L28 23.606V16.72l-2.257 1.27zm-2.255-9.969 2.25 1.276v2.542l2.26-1.268v-2.55l-2.255-1.274-2.255 1.281zm-7.75 13.063v2.542L18 29.25l2.255-1.275v-2.539l-2.255 1.271-2.257-1.275zm-3.874-4 2.25 1.274v-2.542l-2.25-1.276v2.55zm3.875-9.063 2.262 1.276 2.256-1.276-2.256-1.274-2.257 1.281zm-5.482 1.276 2.256-1.276-2.25-1.274L8 12.376v2.55l2.255 1.27zm0 4.343L8 16.72v6.887l6.137 3.45V24.5l-3.874-2.169v-4.35z"/></g><defs><clipPath id="a"><path fill="#fff" d="M0 0h36v36H0z"/></clipPath></defs></svg>