<svg xmlns="http://www.w3.org/2000/svg" width="36" height="36" fill="none"><g clip-path="url(#a)"><rect width="36" height="36" fill="#2C7DF7" rx="10"/><g clip-path="url(#b)"><path fill="#fff" d="M20.423 30q-2.577 0-3.762-1.238a3.82 3.82 0 0 1-1.182-2.666c-.009-.307.063-.61.207-.881.135-.235.33-.429.564-.563a1.98 1.98 0 0 1 1.758 0c.234.134.428.328.56.563.15.27.223.573.215.88.015.368-.09.73-.3 1.032-.177.246-.427.43-.716.522.282.358.682.606 1.129.701.5.145 1.018.22 1.538.221a3.44 3.44 0 0 0 1.938-.577 3.38 3.38 0 0 0 1.264-1.706 7.4 7.4 0 0 0 .414-2.554 7 7 0 0 0-.451-2.655 3.28 3.28 0 0 0-1.306-1.65 3.5 3.5 0 0 0-1.88-.537c-.58.05-1.14.239-1.63.552l-1.208.604v-.604l5.43-7.26h-7.526v7.534c-.021.543.123 1.08.414 1.54a1.43 1.43 0 0 0 1.264.604c.453-.009.89-.162 1.25-.438.406-.297.76-.66 1.045-1.073a.37.37 0 0 1 .136-.18.28.28 0 0 1 .182-.067c.13.012.254.064.354.15.125.14.194.322.191.51a3 3 0 0 1-.067.375 3.64 3.64 0 0 1-1.291 1.597 3.2 3.2 0 0 1-1.81.548q-2.444 0-3.386-.96a3.6 3.6 0 0 1-.933-2.625v-7.514H9v-1.4h3.845V7.594l-.88-.878V6h2.555l.96.495v4.29l9.94-.03.99.99-6.096 6.104a4.1 4.1 0 0 1 1.151-.277 5 5 0 0 1 2.228.634 4.57 4.57 0 0 1 1.92 1.707c.414.626.707 1.324.865 2.058q.194.872.206 1.763A7.35 7.35 0 0 1 25.933 27a4.8 4.8 0 0 1-2.258 2.25 7.3 7.3 0 0 1-3.25.75"/></g></g><defs><clipPath id="a"><path fill="#fff" d="M0 0h36v36H0z"/></clipPath><clipPath id="b"><path fill="#fff" d="M9 6h17.684v24H9z"/></clipPath></defs></svg>