<svg width="36" height="36" viewBox="0 0 36 36" fill="none" xmlns="http://www.w3.org/2000/svg">
<rect width="36" height="36" rx="10" fill="#0166FF"/>
<path d="M9 12.7895C9 11.0031 9 10.1099 9.55496 9.55496C10.1099 9 11.0031 9 12.7895 9C14.5758 9 15.469 9 16.024 9.55496C16.5789 10.1099 16.5789 11.0031 16.5789 12.7895C16.5789 14.5758 16.5789 15.469 16.024 16.024C15.469 16.5789 14.5758 16.5789 12.7895 16.5789C11.0031 16.5789 10.1099 16.5789 9.55496 16.024C9 15.469 9 14.5758 9 12.7895Z" fill="white"/>
<path d="M9 23.2105C9 21.4242 9 20.531 9.55496 19.976C10.1099 19.4211 11.0031 19.4211 12.7895 19.4211C14.5758 19.4211 15.469 19.4211 16.024 19.976C16.5789 20.531 16.5789 21.4242 16.5789 23.2105C16.5789 24.9969 16.5789 25.8901 16.024 26.445C15.469 27 14.5758 27 12.7895 27C11.0031 27 10.1099 27 9.55496 26.445C9 25.8901 9 24.9969 9 23.2105Z" fill="white"/>
<path d="M19.4209 23.2113C19.4209 21.425 19.4209 20.5318 19.9759 19.9768C20.5308 19.4219 21.424 19.4219 23.2104 19.4219C24.9967 19.4219 25.8899 19.4219 26.4449 19.9768C26.9998 20.5318 26.9998 21.425 26.9998 23.2113C26.9998 24.9977 26.9998 25.8909 26.4449 26.4459C25.8899 27.0008 24.9967 27.0008 23.2104 27.0008C21.424 27.0008 20.5308 27.0008 19.9759 26.4459C19.4209 25.8909 19.4209 24.9977 19.4209 23.2113Z" fill="white"/>
<path d="M26.9996 12.7903C26.9996 14.8835 25.3028 16.5803 23.2096 16.5803C21.1165 16.5803 19.4196 14.8835 19.4196 12.7903C19.4196 10.6972 21.1165 9.00031 23.2096 9.00031C25.3028 9.00031 26.9996 10.6972 26.9996 12.7903Z" fill="white"/>
</svg>
