<svg xmlns="http://www.w3.org/2000/svg" width="36" height="36" fill="none"><g clip-path="url(#a)"><rect width="36" height="36" fill="#08C" rx="12"/><path fill="#fff" fill-rule="evenodd" d="M11.245 9h13.508c2.48 0 4.058 2.683 2.81 4.846l-8.338 14.446a1.417 1.417 0 0 1-2.452 0L8.438 13.846C7.188 11.68 8.763 9 11.245 9m7.984 2.466v12.493l1.816-3.507 4.378-7.84a.766.766 0 0 0-.673-1.146zm-7.987.003a.765.765 0 0 0-.672 1.144l4.38 7.835 1.817 3.51V11.47z" clip-rule="evenodd"/></g><defs><clipPath id="a"><path fill="#fff" d="M0 0h36v36H0z"/></clipPath></defs></svg>