<svg width="39" height="39" viewBox="0 0 39 39" fill="none" xmlns="http://www.w3.org/2000/svg">
<rect width="36" height="36" rx="10" fill="url(#paint0_linear_42153_121849)"/>
<path d="M17.8856 7H18.5064C19.2821 7 19.8675 7.44888 20.2665 8.36631L27.2884 26.1271C27.3533 26.2868 27.3824 26.4589 27.3737 26.6311C27.3737 27.0445 27.2529 27.3687 27.0298 27.6207C26.8049 27.8727 26.4943 27.9987 26.0979 27.9987C25.8368 27.9961 25.5834 27.9068 25.3721 27.7467C25.1477 27.5852 24.9928 27.3503 24.8721 27.0812L18.1954 9.69981L15.7463 16.0877H16.9367C17.6284 16.0891 18.1901 16.6758 18.1967 17.4016V17.437C18.1901 18.1615 17.6284 18.7482 16.9367 18.7508H14.7107L11.5003 27.0826C11.3809 27.3516 11.2247 27.5866 11.0016 27.748C10.7934 27.9077 10.5394 27.996 10.2771 28C9.87894 28 9.56831 27.874 9.34519 27.622C9.12075 27.37 9 27.0458 9 26.6324C9.00123 26.4608 9.03049 26.2905 9.08662 26.1284L12.0017 18.7508H10.7601C10.0671 18.7482 9.50531 18.1628 9.50006 17.437V17.4186C9.50531 16.6941 10.0671 16.1087 10.7601 16.1061H13.0714L16.1256 8.36762C16.5219 7.45019 17.1086 7 17.8856 7Z" fill="white"/>
<g clip-path="url(#clip0_42153_121849)">
<rect x="23" y="23" width="16" height="16" rx="4" fill="#252A34"/>
<g clip-path="url(#clip1_42153_121849)">
<path d="M27.9999 32.8722C28.0535 32.8174 28.1272 32.7855 28.2055 32.7855H35.2996C35.4292 32.7855 35.4941 32.9452 35.4024 33.0387L34.001 34.4691C33.9474 34.5239 33.8736 34.5558 33.7954 34.5558H26.7013C26.5716 34.5558 26.5068 34.3961 26.5985 34.3026L27.9999 32.8722Z" fill="url(#paint1_linear_42153_121849)"/>
<path d="M27.9999 27.5311C28.0557 27.4764 28.1295 27.4444 28.2055 27.4444H35.2996C35.4292 27.4444 35.4941 27.6041 35.4024 27.6977L34.001 29.1281C33.9474 29.1829 33.8736 29.2148 33.7954 29.2148H26.7013C26.5716 29.2148 26.5068 29.0551 26.5985 28.9616L27.9999 27.5311Z" fill="url(#paint2_linear_42153_121849)"/>
<path d="M34.001 30.1843C33.9474 30.1296 33.8736 30.0976 33.7954 30.0976H26.7013C26.5716 30.0976 26.5068 30.2573 26.5985 30.3509L27.9999 31.7813C28.0535 31.8361 28.1272 31.868 28.2055 31.868H35.2996C35.4292 31.868 35.4941 31.7083 35.4024 31.6148L34.001 30.1843Z" fill="url(#paint3_linear_42153_121849)"/>
</g>
</g>
<defs>
<linearGradient id="paint0_linear_42153_121849" x1="41.1424" y1="-12.375" x2="6.62708" y2="55.7585" gradientUnits="userSpaceOnUse">
<stop stop-color="#B3519E"/>
<stop offset="1" stop-color="#30B7C3"/>
</linearGradient>
<linearGradient id="paint1_linear_42153_121849" x1="34.6219" y1="26.5902" x2="29.5521" y2="36.1038" gradientUnits="userSpaceOnUse">
<stop stop-color="#00FFA3"/>
<stop offset="1" stop-color="#DC1FFF"/>
</linearGradient>
<linearGradient id="paint2_linear_42153_121849" x1="32.4751" y1="25.4459" x2="27.4053" y2="34.9595" gradientUnits="userSpaceOnUse">
<stop stop-color="#00FFA3"/>
<stop offset="1" stop-color="#DC1FFF"/>
</linearGradient>
<linearGradient id="paint3_linear_42153_121849" x1="33.5417" y1="26.0142" x2="28.4718" y2="35.5278" gradientUnits="userSpaceOnUse">
<stop stop-color="#00FFA3"/>
<stop offset="1" stop-color="#DC1FFF"/>
</linearGradient>
<clipPath id="clip0_42153_121849">
<rect width="16" height="16" fill="white" transform="translate(23 23)"/>
</clipPath>
<clipPath id="clip1_42153_121849">
<rect width="8.88889" height="7.11111" fill="white" transform="translate(26.5555 27.4444)"/>
</clipPath>
</defs>
</svg>
