<svg xmlns="http://www.w3.org/2000/svg" width="36" height="36" fill="none"><rect width="36" height="36" fill="#2F3146" rx="10"/><path fill="#1C1E34" fill-rule="evenodd" d="M17.923 8.684a9.05 9.05 0 1 1 0 18.1 9.05 9.05 0 0 1 0-18.1" clip-rule="evenodd"/><path fill="#70738E" fill-rule="evenodd" d="M18.2 4.73c-.125-.114-.189-.116-.2-.116-.01 0-.075.002-.2.117-.127.117-.28.32-.445.634-.329.625-.643 1.57-.915 2.79-.305 1.373-.546 3.05-.698 4.927q1.104.533 2.258 1.156a57 57 0 0 1 2.259-1.157c-.153-1.877-.394-3.553-.699-4.925-.27-1.22-.586-2.166-.915-2.791-.164-.313-.317-.517-.445-.634m-.843 9.86q-.847-.45-1.664-.85a57 57 0 0 0-.096 1.866 61 61 0 0 1 1.76-1.016M15.15 12.8C15.59 7.651 16.7 4 18 4s2.41 3.652 2.851 8.8c4.68-2.193 8.4-3.058 9.05-1.933s-1.96 3.912-6.2 6.867c4.24 2.955 6.85 5.742 6.2 6.867s-4.37.26-9.05-1.933c-.44 5.148-1.55 8.8-2.85 8.8s-2.41-3.653-2.852-8.8c-4.68 2.192-8.4 3.058-9.05 1.933s1.96-3.912 6.2-6.867c-4.24-2.955-6.85-5.742-6.2-6.867s4.37-.26 9.05 1.932m-2.31 4.562c-1.551-1.07-2.884-2.117-3.92-3.067-.922-.845-1.584-1.59-1.961-2.188-.19-.299-.289-.533-.327-.702-.037-.165-.007-.222-.002-.23.006-.01.04-.065.201-.115.166-.052.419-.083.773-.069.707.028 1.683.229 2.876.604 1.342.422 2.915 1.052 4.618 1.859-.06.813-.102 1.66-.127 2.532q-1.117.687-2.132 1.376m0 .744c-1.551 1.07-2.884 2.117-3.92 3.067-.922.845-1.584 1.59-1.961 2.187-.19.3-.289.533-.327.703-.037.165-.007.222-.002.23.006.01.04.064.201.115.166.052.419.082.773.068.707-.028 1.683-.228 2.876-.603 1.342-.422 2.915-1.052 4.618-1.859-.06-.813-.102-1.66-.127-2.532a57 57 0 0 1-2.132-1.376m2.115.643a56 56 0 0 1-1.57-1.015 56 56 0 0 1 1.57-1.016 63 63 0 0 0 0 2.032m.621.383a61 61 0 0 1 0-2.797A62 62 0 0 1 18 14.937a62 62 0 0 1 2.424 1.399 61 61 0 0 1 0 2.796A61 61 0 0 1 18 20.531a62 62 0 0 1-2.424-1.399m.021.73q.035.958.096 1.865.817-.4 1.664-.85a62 62 0 0 1-1.76-1.015M18 21.23q-1.154.622-2.258 1.156c.152 1.877.393 3.554.698 4.926.271 1.22.586 2.165.915 2.79.165.314.318.517.446.635.124.115.189.117.2.117.01 0 .074-.002.199-.117.128-.118.28-.321.445-.634.33-.626.644-1.571.915-2.791.305-1.372.546-3.049.699-4.926A57 57 0 0 1 18 21.23m2.903.784c1.702.807 3.276 1.437 4.617 1.859 1.193.375 2.17.575 2.876.603.354.015.607-.016.773-.068.162-.05.195-.105.2-.114s.036-.066 0-.231c-.039-.17-.138-.403-.328-.703-.377-.597-1.04-1.342-1.96-2.187-1.037-.95-2.37-1.997-3.92-3.067a57 57 0 0 1-2.132 1.376c-.024.872-.067 1.719-.126 2.532m2.258-4.652c1.55-1.07 2.883-2.117 3.92-3.067.92-.845 1.583-1.59 1.96-2.188.19-.299.29-.533.327-.702.037-.165.007-.222.002-.23-.006-.01-.04-.065-.201-.115-.166-.052-.419-.083-.773-.069-.707.028-1.683.229-2.876.604-1.341.422-2.915 1.052-4.617 1.858q.089 1.222.127 2.533 1.116.687 2.13 1.376m-2.115-.644a56 56 0 0 1 1.568 1.016 56 56 0 0 1-1.568 1.015 64 64 0 0 0 0-2.03m-.643-1.112a56 56 0 0 0-.095-1.866q-.818.4-1.665.85a63 63 0 0 1 1.76 1.016m-.095 6.122q-.818-.4-1.665-.85a62 62 0 0 0 1.76-1.016 56 56 0 0 1-.095 1.866" clip-rule="evenodd"/><path fill="#B7B9C7" fill-rule="evenodd" d="M9.222 13.889a.966.966 0 1 1 0 1.932.966.966 0 0 1 0-1.932M24.57 10.58a.966.966 0 1 1 0 1.933.966.966 0 0 1 0-1.933M16.052 25.742a.966.966 0 1 1 0 1.932.966.966 0 0 1 0-1.932M17.946 16.09a1.636 1.636 0 1 1 0 3.272 1.636 1.636 0 0 1 0-3.272" clip-rule="evenodd"/></svg>