<svg width="36" height="36" viewBox="0 0 36 36" fill="none" xmlns="http://www.w3.org/2000/svg">
<rect x="0.5" y="0.5" width="35" height="35" rx="9.5" fill="white" stroke="#E1EAF8" stroke-linecap="round"/>
<path fill-rule="evenodd" clip-rule="evenodd" d="M17.1442 11.6458C16.2171 11.0539 15.5802 10.6491 15.0891 10.4268C14.5985 10.2048 14.4286 10.2474 14.3412 10.2924C14.2589 10.3347 14.1308 10.4382 14.041 10.9535C13.9507 11.4725 13.9309 12.2125 13.9046 13.2962L13.8912 13.8458L13.8888 13.9459C13.8773 14.4496 13.8674 14.8823 13.6836 15.2672C13.4987 15.6548 13.1685 15.93 12.7886 16.2465L12.7132 16.3094L12.2992 16.6554C11.4822 17.3382 10.9281 17.8037 10.5863 18.192C10.2521 18.5719 10.2419 18.7433 10.263 18.8546C10.2859 18.9754 10.3715 19.1466 10.8372 19.4104C11.3072 19.6767 12.0061 19.951 13.0258 20.3487L13.5435 20.5506L13.6334 20.5856C14.1133 20.7721 14.5135 20.9276 14.8205 21.2278C15.1273 21.5277 15.2924 21.9246 15.4909 22.4014L15.5281 22.4907L15.7429 23.0051C16.166 24.018 16.4578 24.7127 16.7357 25.1778C17.0115 25.6396 17.184 25.7196 17.3021 25.7389C17.4097 25.7564 17.5782 25.7438 17.9479 25.3976C18.3253 25.0441 18.7738 24.4753 19.4317 23.637L19.7651 23.2121L19.8259 23.1344C20.1305 22.7449 20.3957 22.4058 20.7771 22.2096C21.1567 22.0142 21.5886 21.9926 22.0893 21.9677L22.1892 21.9626L22.736 21.9345C23.8142 21.879 24.5496 21.8395 25.063 21.735C25.5715 21.6315 25.6708 21.5011 25.7112 21.4165C25.755 21.3245 25.7916 21.1499 25.5574 20.6631C25.3229 20.1756 24.9027 19.5467 24.2889 18.6319L23.9772 18.1674L23.9222 18.0856C23.6339 17.6571 23.3926 17.2986 23.3132 16.8791C23.2331 16.4561 23.3302 16.0392 23.4446 15.5484L23.4663 15.4546L23.5895 14.9229C23.8321 13.8746 23.9962 13.1586 24.0378 12.6317C24.0786 12.1148 23.9858 11.9512 23.8939 11.8613C23.8028 11.7723 23.6396 11.6838 23.1277 11.7384C22.6051 11.7942 21.8974 11.9778 20.8602 12.2495L20.3342 12.3873L20.2409 12.4118C19.756 12.5395 19.342 12.6486 18.9172 12.5792C18.4961 12.5105 18.1319 12.2773 17.6983 11.9997L17.6149 11.9463L17.1442 11.6458ZM13.7664 9.17586C14.3784 8.86092 15.0129 9.01397 15.6068 9.28275C16.1904 9.54686 16.9038 10.0023 17.7758 10.5592L18.2906 10.8878C18.8536 11.2473 18.9871 11.3182 19.1195 11.3399C19.2479 11.3608 19.3861 11.3375 20.016 11.1725L20.5938 11.0211C21.5662 10.7664 22.3662 10.5568 22.9945 10.4898C23.6446 10.4204 24.2808 10.4833 24.7718 10.9634C25.262 11.4427 25.3412 12.0775 25.2896 12.7306C25.2397 13.3625 25.0526 14.1707 24.8249 15.1543L24.6898 15.7378C24.5425 16.374 24.5224 16.5152 24.547 16.6455C24.5724 16.7795 24.6475 16.9127 25.0199 17.4676L25.3606 17.9754C25.9384 18.8364 26.4107 19.5401 26.689 20.1186C26.9723 20.7074 27.1403 21.3374 26.8445 21.9572C26.5454 22.5842 25.9465 22.8368 25.3134 22.9656C24.6962 23.0912 23.8652 23.1338 22.8546 23.1858L22.2537 23.2167C21.596 23.2505 21.4596 23.2706 21.3518 23.3261C21.246 23.3806 21.1543 23.4758 20.753 23.9873L20.3858 24.4553C19.7704 25.2397 19.2628 25.8867 18.8063 26.3141C18.3338 26.7567 17.7842 27.0899 17.0997 26.9783C16.4259 26.8682 15.9949 26.3865 15.6576 25.8219C15.3279 25.2698 15.0023 24.4902 14.6041 23.5368L14.3694 22.9746C14.1132 22.3614 14.0434 22.2243 13.9426 22.1257C13.8421 22.0274 13.7046 21.9614 13.0872 21.7205L12.5695 21.5187L12.5211 21.4998C11.5617 21.1256 10.7767 20.8195 10.2181 20.503C9.6457 20.1787 9.15612 19.7589 9.02912 19.0882C8.90036 18.4078 9.21539 17.8491 9.64369 17.3624C10.057 16.8927 10.6875 16.3658 11.4518 15.727L11.9078 15.3459C12.4059 14.9296 12.4986 14.8348 12.5504 14.7264C12.6034 14.6153 12.6197 14.4759 12.6358 13.8153L12.6505 13.2117C12.6752 12.1953 12.6955 11.3604 12.8039 10.738C12.9149 10.1011 13.1494 9.49347 13.7664 9.17586ZM11.6958 23.4162C11.941 23.1711 12.3386 23.1711 12.5838 23.4162C12.829 23.6614 12.829 24.059 12.5838 24.3042L10.9094 25.9786C10.6642 26.2238 10.2666 26.2238 10.0214 25.9786C9.77621 25.7334 9.77621 25.3358 10.0214 25.0906L11.6958 23.4162Z" fill="#0166FF"/>
</svg>
