<svg xmlns="http://www.w3.org/2000/svg" width="36" height="36" fill="none"><g clip-path="url(#a)"><rect width="36" height="36" fill="url(#b)" rx="12"/><path fill="url(#c)" fill-rule="evenodd" d="M26.666 15.782C26.666 8.778 22.922 6 18.299 6s-8.367 2.588-8.298 6.849V27.65c0 .5.397.897.897.897s.897-.397.897-.897v-2.726c0-.483.431-.863.949-.863h.017c.518.018.932.397.932.88v1.173c0 .5.397.897.897.897a.89.89 0 0 0 .897-.897v-1.19c0-.483.431-.863.949-.863h.017c.518.018.932.397.932.88v.224c0 .5.396.898.897.898.5 0 .897-.397.897-.898v-.241c0-.483.431-.863.949-.863h.017c.517.018.931.397.931.88v1.173c0 .5.397.897.898.897.5 0 .897-.396.897-.897v-1.19c0-.483.43-.863.949-.863h.017c.517.018.931.397.931.88V27.6c0 .517.414.949.95.949a.946.946 0 0 0 .948-.949zM13.21 11.935c0-.966.776-1.743 1.742-1.743s1.743.777 1.743 1.742c0 .967-.777 1.743-1.743 1.743a1.74 1.74 0 0 1-1.742-1.742m6.176 0c0-.966.776-1.743 1.742-1.743s1.743.777 1.743 1.742c0 .967-.777 1.743-1.743 1.743a1.74 1.74 0 0 1-1.742-1.742m.276 3.415c0 .432-.57 1.053-1.328 1.053-.777 0-1.19-.432-1.311-.863-.052-.155-.07-.552.276-.552a2.4 2.4 0 0 1 .445.054c.173.032.36.067.59.067.235 0 .444-.036.624-.066.177-.03.326-.055.445-.038.155.018.26.173.26.345" clip-rule="evenodd"/></g><defs><linearGradient id="b" x1="26" x2="12" y1="10" y2="37" gradientUnits="userSpaceOnUse"><stop stop-color="#954E9B"/><stop offset=".922" stop-color="#3BB3C5"/></linearGradient><linearGradient id="c" x1="22.729" x2="13.288" y1="13.469" y2="20.306" gradientUnits="userSpaceOnUse"><stop stop-color="#fff"/><stop offset="1" stop-color="#fff"/><stop offset="1" stop-color="#fff"/></linearGradient><clipPath id="a"><path fill="#fff" d="M0 0h36v36H0z"/></clipPath></defs></svg>