<svg width="36" height="36" viewBox="0 0 36 36" fill="none" xmlns="http://www.w3.org/2000/svg">
<g clip-path="url(#clip0_21224_78192)">
<rect width="36" height="36" rx="12" fill="url(#paint0_linear_21224_78192)"/>
<mask id="mask0_21224_78192" style="mask-type:luminance" maskUnits="userSpaceOnUse" x="8" y="16" width="20" height="16">
<path d="M17.9856 21.1968L9.96477 16.6176L9.74877 16.9488C7.28637 20.736 7.83357 25.6896 11.0736 28.872C14.8896 32.616 21.0816 32.616 24.8976 28.872C28.1376 25.6896 28.6848 20.736 26.2224 16.9488L26.0064 16.6176L17.9856 21.1968Z" fill="white"/>
</mask>
<g mask="url(#mask0_21224_78192)">
<path d="M17.9855 31.968C23.3856 31.968 27.7631 27.5904 27.7631 22.1904C27.7631 16.7904 23.3856 12.4128 17.9855 12.4128C12.5855 12.4128 8.20795 16.7904 8.20795 22.1904C8.20795 27.5904 12.5855 31.968 17.9855 31.968Z" fill="url(#paint1_radial_21224_78192)"/>
</g>
<path d="M18 11.9952L9.96478 16.6176L17.9856 21.1968L25.992 16.6176L18 11.9952Z" fill="url(#paint2_radial_21224_78192)"/>
<path d="M17.9856 4.32L11.0736 14.9184L17.9856 18.864V4.32Z" fill="url(#paint3_linear_21224_78192)"/>
<path d="M17.9856 18.864L24.8976 14.9184L17.9856 4.32V18.864Z" fill="url(#paint4_linear_21224_78192)"/>
</g>
<defs>
<linearGradient id="paint0_linear_21224_78192" x1="18" y1="0" x2="18" y2="36" gradientUnits="userSpaceOnUse">
<stop stop-color="#F89791"/>
<stop offset="1" stop-color="#F7C882"/>
</linearGradient>
<radialGradient id="paint1_radial_21224_78192" cx="0" cy="0" r="1" gradientUnits="userSpaceOnUse" gradientTransform="translate(17.9671 30.1934) rotate(-90.4664) scale(13.0575 15.5638)">
<stop stop-color="#C5C6AB"/>
<stop offset="1" stop-color="#7985AB"/>
</radialGradient>
<radialGradient id="paint2_radial_21224_78192" cx="0" cy="0" r="1" gradientUnits="userSpaceOnUse" gradientTransform="translate(17.9784 16.596) scale(0.403315)">
<stop stop-color="#AEE6F9" stop-opacity="0.8588"/>
<stop offset="1" stop-color="#C8D6DC"/>
</radialGradient>
<linearGradient id="paint3_linear_21224_78192" x1="14.5296" y1="3.6" x2="14.5296" y2="18" gradientUnits="userSpaceOnUse">
<stop stop-color="#77D4FF"/>
<stop offset="1" stop-color="#93D6F2" stop-opacity="0.898"/>
</linearGradient>
<linearGradient id="paint4_linear_21224_78192" x1="21.4416" y1="3.6" x2="21.4416" y2="18" gradientUnits="userSpaceOnUse">
<stop stop-color="#506AAC"/>
<stop offset="1" stop-color="#96CFEF" stop-opacity="0.8196"/>
</linearGradient>
<clipPath id="clip0_21224_78192">
<rect width="36" height="36" fill="white"/>
</clipPath>
</defs>
</svg>
