<svg xmlns="http://www.w3.org/2000/svg" width="36" height="36" fill="none"><g clip-path="url(#a)"><rect width="36" height="36" fill="#F5F7FF" rx="10"/><path fill="url(#b)" d="M8.27 11.584a.703.703 0 0 0-.703.704v8.51h.002a4.1 4.1 0 0 0 1.2 2.898 4.08 4.08 0 0 0 2.86 1.202h.987a.997.997 0 0 1-.952-.992l-.002-11.619a.703.703 0 0 0-.703-.704z"/><path fill="url(#c)" d="M7.567 20.797v3.507a4.67 4.67 0 0 0 1.372 3.32 4.67 4.67 0 0 0 3.315 1.374h9.49a4.07 4.07 0 0 0 2.566-1.19 4.1 4.1 0 0 0 1.201-2.903v-1.008a1 1 0 0 1-1 .993l-11.893.007h-.95a4.08 4.08 0 0 1-2.9-1.202 4.1 4.1 0 0 1-1.199-2.898z"/><path fill="url(#d)" d="M12.637 6H6.718c-.346 0-.599.284-.618.63-.06 1.084-.185 1.733-.468 2.726-.106.37.13.758.515.758h18.358c2.759.028 5.101 2.26 5.101 5.079l-.002-4.493a4.7 4.7 0 0 0-2.976-4.375l-.036-.014-.014-.005A4.7 4.7 0 0 0 24.91 6z"/><path fill="url(#e)" d="M25.504 11.11h.005l.002 12.774v1.008a4.09 4.09 0 0 1-1.2 2.903 4.1 4.1 0 0 1-2.895 1.203V29h3.503a4.66 4.66 0 0 0 3.314-1.375 4.68 4.68 0 0 0 1.374-3.32v-9.079c0-2.817-2.277-5.1-5.087-5.109a.99.99 0 0 1 .984.992"/></g><defs><linearGradient id="b" x1="10.091" x2="10.091" y1="11.584" y2="24.898" gradientUnits="userSpaceOnUse"><stop offset=".03" stop-color="#076132"/><stop offset=".3" stop-color="#077F40"/><stop offset=".32" stop-color="#128541"/><stop offset=".4" stop-color="#2D9443"/><stop offset=".47" stop-color="#409F45"/><stop offset=".55" stop-color="#4CA546"/><stop offset=".63" stop-color="#50A847"/><stop offset=".74" stop-color="#57A946"/><stop offset=".9" stop-color="#6BAE43"/><stop offset=".91" stop-color="#6EAF43"/></linearGradient><linearGradient id="c" x1="25.511" x2="7.567" y1="24.898" y2="24.898" gradientUnits="userSpaceOnUse"><stop offset=".03" stop-color="#209BD3"/><stop offset=".3" stop-color="#1471B1"/><stop offset=".36" stop-color="#195FA1"/><stop offset=".44" stop-color="#204C90"/><stop offset=".53" stop-color="#234086"/><stop offset=".63" stop-color="#253D83"/><stop offset=".69" stop-color="#24397B"/><stop offset=".79" stop-color="#213167"/><stop offset=".91" stop-color="#1D2345"/></linearGradient><linearGradient id="d" x1="7.911" x2="29.326" y1="3.33" y2="15.677" gradientUnits="userSpaceOnUse"><stop stop-color="#EBE128"/><stop offset=".44" stop-color="#F1A21F"/><stop offset=".56" stop-color="#E76522"/><stop offset=".68" stop-color="#DF3424"/><stop offset=".73" stop-color="#DC2226"/><stop offset="1" stop-color="#DA1F26"/></linearGradient><linearGradient id="e" x1="25.511" x2="25.511" y1="29" y2="10.117" gradientUnits="userSpaceOnUse"><stop stop-color="#283270"/><stop offset=".06" stop-color="#2F3271"/><stop offset=".14" stop-color="#453576"/><stop offset=".25" stop-color="#69397D"/><stop offset=".29" stop-color="#7A3C81"/><stop offset=".44" stop-color="#7F3382"/><stop offset=".66" stop-color="#842E83"/><stop offset=".97" stop-color="#57152A"/><stop offset="1" stop-color="#541323"/></linearGradient><clipPath id="a"><path fill="#fff" d="M0 0h36v36H0z"/></clipPath></defs></svg>