<svg width="36" height="36" viewBox="0 0 36 36" fill="none" xmlns="http://www.w3.org/2000/svg">
<rect x="0.5" y="0.5" width="35" height="35" rx="9.5" fill="white" stroke="#E1EAF8" stroke-linecap="round"/>
<path d="M18 24.002V21.002M18 24.002C17.4696 24.002 16.9609 24.2127 16.5858 24.5877C16.2107 24.9628 16 25.4715 16 26.002M18 24.002C18.5304 24.002 19.0391 24.2127 19.4142 24.5877C19.7893 24.9628 20 25.4715 20 26.002M18 21.002C21.59 21.002 24.5 18.092 24.5 14.502M18 21.002C14.41 21.002 11.5 18.092 11.5 14.502M18 21.002C19.3805 21.002 20.499 18.092 20.499 14.502C20.499 10.912 19.3805 8.00195 18 8.00195M18 21.002C16.6195 21.002 15.499 18.092 15.499 14.502C15.499 10.912 16.6195 8.00195 18 8.00195M16 26.002H9M16 26.002C16 26.5324 16.2107 27.0411 16.5858 27.4162C16.9609 27.7912 17.4696 28.002 18 28.002C18.5304 28.002 19.0391 27.7912 19.4142 27.4162C19.7893 27.0411 20 26.5324 20 26.002M20 26.002H27M24.5 14.502C24.5 10.912 21.59 8.00195 18 8.00195M24.5 14.502H11.5M11.5 14.502C11.5 10.912 14.41 8.00195 18 8.00195" stroke="#494949" stroke-width="1.2" stroke-linecap="round" stroke-linejoin="round"/>
</svg>
