<svg width="36" height="36" viewBox="0 0 36 36" fill="none" xmlns="http://www.w3.org/2000/svg">
<rect x="0.5" y="0.5" width="35" height="35" rx="9.5" fill="white" stroke="#E1EAF8" stroke-linecap="round"/>
<path fill-rule="evenodd" clip-rule="evenodd" d="M16.2263 10.0795C16.2338 10.4069 15.9745 10.6784 15.647 10.6859C13.4159 10.7369 12.3651 10.962 11.6715 11.6556C11.2205 12.1066 10.9617 12.7167 10.8256 13.7287C10.6873 14.7576 10.686 16.1097 10.686 17.9921C10.686 19.8743 10.6873 21.2264 10.8256 22.2555C10.9617 23.2674 11.2205 23.8775 11.6715 24.3285C12.1225 24.7795 12.7326 25.0383 13.7446 25.1744C14.7735 25.3127 16.1256 25.314 18.008 25.314C19.8902 25.314 21.2423 25.3127 22.2713 25.1744C23.2833 25.0383 23.8934 24.7795 24.3444 24.3285C25.0381 23.6349 25.2631 22.5841 25.3141 20.353C25.3216 20.0255 25.5931 19.7662 25.9205 19.7737C26.2479 19.7811 26.5074 20.0527 26.4998 20.3801C26.4499 22.5675 26.2528 24.0975 25.1831 25.1672C24.4749 25.8753 23.5728 26.1961 22.4294 26.3498C21.3122 26.5 19.8804 26.5 18.0533 26.5H17.9626C16.1355 26.5 14.7037 26.5 13.5865 26.3498C12.4431 26.1961 11.5409 25.8753 10.8328 25.1672C10.1247 24.4591 9.8039 23.5569 9.65018 22.4135C9.49998 21.2963 9.49999 19.8645 9.5 18.0374V17.9467C9.49999 16.1196 9.49998 14.6878 9.65018 13.5706C9.8039 12.4272 10.1247 11.525 10.8328 10.8169C11.9025 9.74719 13.4325 9.55017 15.6199 9.50016C15.9473 9.49267 16.2189 9.75203 16.2263 10.0795ZM22.1595 10.686C20.4151 10.686 19.0051 12.0938 19.0051 13.8252C19.0051 14.2139 19.0942 14.5549 19.1857 14.801C19.2311 14.9231 19.2759 15.0187 19.3079 15.0812C19.3238 15.1124 19.3364 15.135 19.3439 15.1483L19.3514 15.1611C19.4979 15.3945 19.4633 15.6983 19.268 15.8927L14.7345 20.4078C14.7228 20.4194 14.7003 20.4461 14.6795 20.4834C14.659 20.52 14.6468 20.5551 14.642 20.5845C14.6376 20.6113 14.6392 20.6333 14.6462 20.6552C14.6531 20.6767 14.6724 20.7207 14.7345 20.7825L15.2359 21.2819C15.2509 21.293 15.2742 21.3083 15.3037 21.3227C15.3423 21.3416 15.3797 21.3534 15.4114 21.3582C15.4416 21.3626 15.4617 21.3601 15.476 21.3558C15.488 21.3522 15.5145 21.342 15.5533 21.3033L16.1634 20.6957C16.3948 20.4652 16.769 20.4652 17.0003 20.6957C17.0913 20.7862 17.167 20.8239 17.221 20.8403C17.2756 20.857 17.3296 20.8588 17.3854 20.8481C17.509 20.8245 17.6213 20.7427 17.673 20.6773C17.7446 20.574 17.7423 20.4842 17.7081 20.3819C17.689 20.3252 17.6617 20.274 17.6378 20.2364C17.6263 20.2183 17.6169 20.2054 17.6118 20.1988C17.6105 20.197 17.6089 20.1949 17.6089 20.1949C17.4115 19.9593 17.4266 19.6113 17.645 19.3938L17.8192 19.2202C18.0507 18.9898 18.4248 18.9898 18.6562 19.2202C18.9598 19.5226 19.1611 19.5188 19.258 19.5004C19.3949 19.4744 19.5225 19.376 19.5901 19.2889C19.6791 19.1615 19.6795 19.0476 19.6545 18.9429C19.6408 18.8855 19.6194 18.8354 19.6014 18.8001C19.5926 18.783 19.5856 18.7712 19.5821 18.7656L19.5813 18.7644L19.5588 18.733L19.5379 18.6914C19.5304 18.6764 19.5184 18.6583 19.48 18.616C19.4788 18.6145 19.4764 18.6121 19.4731 18.6086C19.4438 18.5778 19.3409 18.4695 19.2777 18.3561C19.1695 18.1623 19.1396 17.9263 19.2334 17.6853C19.3057 17.4996 19.4391 17.3466 19.5623 17.2239L20.0851 16.7032C20.3019 16.4874 20.6471 16.4717 20.8824 16.667C20.977 16.7456 21.1789 16.8302 21.4671 16.8899C21.7377 16.9458 22.0065 16.9643 22.1595 16.9643C23.904 16.9643 25.314 15.5566 25.314 13.8252C25.314 12.0938 23.904 10.686 22.1595 10.686ZM18.9082 20.6696C18.8835 20.8951 18.8033 21.1366 18.6325 21.3747L18.6284 21.3803L18.6243 21.3858C18.4127 21.6669 18.0482 21.9287 17.6085 22.0129C17.2977 22.0725 16.9657 22.0395 16.6489 21.886L16.3903 22.1437C16.0326 22.4999 15.6055 22.5857 15.238 22.5314C14.9 22.4815 14.6213 22.3174 14.4539 22.1745C14.4423 22.1646 14.4312 22.1543 14.4204 22.1437L13.8975 21.6229C13.5165 21.2434 13.4054 20.7976 13.4715 20.3931C13.5315 20.0259 13.7287 19.7356 13.8975 19.5674L18.1287 15.3535C18.1107 15.31 18.0924 15.2636 18.0741 15.2145C17.9477 14.8748 17.819 14.3912 17.819 13.8252C17.819 11.4342 19.7646 9.5 22.1595 9.5C24.5544 9.5 26.5 11.4342 26.5 13.8252C26.5 16.2162 24.5544 18.1504 22.1595 18.1504C21.9349 18.1504 21.5849 18.1254 21.2266 18.0512C21.0363 18.0119 20.816 17.9532 20.6021 17.8623L20.4872 17.9767C20.5179 18.0195 20.5492 18.0682 20.5789 18.1229C20.5822 18.128 20.5857 18.1335 20.5894 18.1395C20.608 18.1695 20.6317 18.2099 20.657 18.2593C20.707 18.3569 20.7673 18.4967 20.8081 18.6671C20.8916 19.0164 20.8925 19.5083 20.5498 19.986L20.5457 19.9916L20.5416 19.9971C20.3466 20.256 19.9798 20.5706 19.479 20.6657C19.2922 20.7011 19.1007 20.7035 18.9082 20.6696ZM22.1595 13.1163C21.7628 13.1163 21.4453 13.436 21.4453 13.8252C21.4453 14.2144 21.7628 14.5341 22.1595 14.5341C22.5562 14.5341 22.8738 14.2144 22.8738 13.8252C22.8738 13.436 22.5562 13.1163 22.1595 13.1163ZM20.2593 13.8252C20.2593 12.7764 21.1123 11.9302 22.1595 11.9302C23.2067 11.9302 24.0598 12.7764 24.0598 13.8252C24.0598 14.874 23.2067 15.7201 22.1595 15.7201C21.1123 15.7201 20.2593 14.874 20.2593 13.8252Z" fill="#0166FF"/>
</svg>
