<svg width="36" height="36" viewBox="0 0 36 36" fill="none" xmlns="http://www.w3.org/2000/svg">
<g clip-path="url(#clip0_51238_272269)">
<rect width="36" height="36" rx="10" fill="#0166FF"/>
<path d="M20.2025 10L14.6431 26H11.5595L6 10H8.94855L12.1897 19.7927C12.2947 20.0616 12.3998 20.4127 12.5048 20.8459C12.6249 21.2642 12.7374 21.6975 12.8424 22.1457C12.9625 22.5789 13.0525 22.9673 13.1125 23.3109C13.1575 22.9673 13.2326 22.5789 13.3376 22.1457C13.4576 21.6975 13.5777 21.2642 13.6977 20.8459C13.8178 20.4127 13.9228 20.0616 14.0128 19.7927L17.254 10H20.2025Z" fill="white"/>
<path d="M29 26H26.164V16.028C26.164 15.6993 26.164 15.3632 26.164 15.0196C26.179 14.676 26.194 14.3324 26.209 13.9888C26.224 13.6303 26.239 13.3016 26.254 13.0028C26.104 13.1522 25.9164 13.3315 25.6913 13.5406C25.4662 13.7348 25.2337 13.9365 24.9936 14.1457L23.1929 15.5798L21.7749 13.8319L26.6367 10H29V26Z" fill="white"/>
</g>
<defs>
<clipPath id="clip0_51238_272269">
<rect width="36" height="36" fill="white"/>
</clipPath>
</defs>
</svg>
