<svg xmlns="http://www.w3.org/2000/svg" width="36" height="36" fill="none"><g clip-path="url(#a)"><rect width="36" height="36" fill="url(#b)" rx="10"/><g clip-path="url(#c)"><path fill="#fff" d="M28.199 24.302a11.93 11.93 0 0 0-.825-13.784c-.6.15-.982.487-1.596 1.02-.053.045-.113.09-.166.15a5.02 5.02 0 0 1-3.508 1.44c-.803 0-1.425-.15-1.965-.413-.464-.24-.81-.555-1.041-.765l-.053-.051c-.247-.226-.405-.353-.63-.45a2.9 2.9 0 0 0-1.2-.196c-.854 0-1.738.406-2.563 1.034a8.4 8.4 0 0 0-1.754 1.837l-1.875-1.242a10.4 10.4 0 0 1 2.256-2.377 6.6 6.6 0 0 1 3.937-1.5c.869 0 1.552.135 2.122.39s.951.6 1.221.84c.285.261.42.374.6.472.165.082.428.172.945.172.9 0 1.395-.344 2.024-.9l.195-.164a7.7 7.7 0 0 1 1.356-1.012 12.016 12.016 0 0 0-19.642 7.76 5.6 5.6 0 0 1 2.167-.435 5 5 0 0 1 3.254 1.126l.03.021c.338.24.57.406.855.526.262.112.6.202 1.124.202.877 0 1.447-.405 2.31-1.072l.051-.045c.825-.645 1.942-1.507 3.644-1.507 1.402 0 2.796.727 3.868 1.462a15.4 15.4 0 0 1 2.61 2.287l-1.687 1.5a12.8 12.8 0 0 0-2.205-1.935c-.974-.667-1.889-1.065-2.586-1.065-.885 0-1.455.405-2.316 1.072l-.053.046c-.825.645-1.942 1.506-3.644 1.506a5 5 0 0 1-2-.381c-.526-.226-.938-.526-1.26-.75l-.024-.015a4.6 4.6 0 0 0-.854-.526c-.27-.111-.607-.201-1.125-.201-.861 0-1.619.351-2.196.764a11.92 11.92 0 0 0 2.654 6.449c.397-.42.87-.863 1.387-1.275.989-.803 2.28-1.612 3.637-1.8a4.04 4.04 0 0 1 2.226.27c.607.27 1.08.661 1.44.976l.082.074c.734.63 1.064.915 1.672.915.696 0 1.176-.322 1.873-.877l.136-.113c.636-.503 1.574-1.26 2.878-1.26.578 0 1.163.166 1.672.367.525.203 1.05.488 1.544.78.346.21.69.435 1.005.66zM26.834 26.1c-.255-.18-.524-.36-.809-.526a7.6 7.6 0 0 0-1.2-.614 2.4 2.4 0 0 0-.847-.21c-.472 0-.81.247-1.597.877-.713.57-1.732 1.372-3.283 1.372-1.485 0-2.437-.84-3.06-1.395l-.172-.15c-.336-.292-.6-.487-.87-.6a1.75 1.75 0 0 0-1.004-.12c-.75.113-1.649.616-2.542 1.328q-.637.53-1.215 1.124A12 12 0 0 0 17.965 30a12 12 0 0 0 8.869-3.899"/></g></g><defs><clipPath id="a"><path fill="#fff" d="M0 0h36v36H0z"/></clipPath><clipPath id="c"><path fill="#fff" d="M6 6h24v24H6z"/></clipPath><linearGradient id="b" x1="17.946" x2="17.946" y1=".007" y2="36" gradientUnits="userSpaceOnUse"><stop stop-color="#90305C"/><stop offset="1" stop-color="#DF3C41"/></linearGradient></defs></svg>