<svg xmlns="http://www.w3.org/2000/svg" width="36" height="36" fill="none"><g clip-path="url(#a)"><rect width="36" height="36" fill="#fff" rx="12"/><g clip-path="url(#b)"><path fill="#fff" d="m11.562 19.121.619-4.647-5.365-3.724 4.902 1.66 1.157-1.775 4.227-2.623 9.317 5.133.482 7.832-4.15 5.767-3.281.503 1.697-3.105v-2.99l-1.234-2.335-1.253-.83-1.928 1.987v2.104l-1.505 1.409-1.912.231-.847.48-1.389-.443-.578-2.084 1.041-1.465z"/><path fill="#94A6C3" d="M20.129 10.71c-1.022-.21-2.14-.155-2.14-.155s-.367 1.697-2.642 2.143c.016 0 3.006 1.022 4.782-1.987M21.054 26.106c1.234-.966 2.16-2.295 2.586-3.8.02-.056.192-.155.308-.231.192-.116.387-.212.423-.367.076-.444.116-.907.116-1.37 0-.172-.175-.347-.347-.519-.136-.116-.272-.251-.272-.347a7.33 7.33 0 0 0-2.295-4.59l-.135.135c1.253 1.177 2.063 2.778 2.239 4.475.02.155.172.307.327.463.136.115.291.29.291.367q-.001.664-.116 1.33c-.02.075-.191.155-.327.23-.192.097-.367.193-.404.348a7.13 7.13 0 0 1-2.933 3.995c.251-.539 1.042-2.295 1.465-3.185l-.076-2.854-2.45-2.371-1.39.192-1.524 2.47s.714.906-.291 1.968c-.983 1.042-1.757 1.273-1.757 1.273l-.714-.387c.212-.27.638-.674.966-.945.559-.463 1.117-.503 1.117-1.003.024-1.045-1.098-.757-1.098-.757l-.406.387-.172 1.429-.847 1.061-.096-.02-1.389-.307s.85-.443.986-.946c.135-.483-.271-2.084-.291-2.18.02.02.406.348.578.887.308-.85.715-1.66.83-1.736.116-.076 1.677-.907 1.677-.907l-.519 1.37.387-.212.926-2.276s.906-.443 1.58-.443c1.215-.02 3.01-1.504 2.2-4.167.232.096 4.244 2.104 4.938 6.04.52 3.025-1.197 5.86-4.091 7.5"/><path fill="#1B314F" d="M16.464 11.134c.444-.522.272-1.293.272-1.293l-1.293 1.912c-.02 0 .46.02 1.021-.619M12.121 21.572l.156-.77s-.639 1.117-.695 1.273c-.06.175.04.482.288.463.251-.02.559-.387.559-.655 0-.348-.308-.311-.308-.311"/><path fill="#1B314F" d="M23.583 9.302s.966.04 1.968.155c-2.26-1.776-4.4-2.295-6.135-2.295-2.392 0-4.012.986-4.111 1.042l.754-1.197s-3.01-.291-4.072 2.893c-.27-.674-.519-1.66-.519-1.66s-1.564 1.373-.83 3.648c-1.796-.655-4.359-1.564-4.458-1.58-.136-.02-.175.039-.175.039s-.04.056.076.155c.215.169 4.266 3.162 5.156 3.74-.192.695-.192 1.023 0 1.35.27.443.287.675.251 1.002-.04.328-.387 3.165-.463 3.513s-.886 1.58-.85 1.948c.04.367.54 1.928.986 2.103.327.116 1.137.367 1.676.367.192 0 .368-.04.444-.115.327-.288.423-.348.654-.348h.057c.096 0 .211.02.347.02.307 0 .714-.06 1.002-.327.423-.424 1.158-1.002 1.39-1.274.29-.367.442-.866.366-1.369-.06-.463.192-.87.483-1.273.367-.483 1.042-1.35 1.042-1.35 1.333 1 2.163 2.524 2.163 4.22 0 3.01-2.623 5.441-5.864 5.441-.503 0-.982-.056-1.465-.172 1.485.52 2.738.695 3.764.695 2.18 0 3.337-.79 3.337-.79s-.404.522-1.062 1.117h.02c3.608-.503 5.364-3.473 5.364-3.473s-.135.966-.307 1.62c4.799-3.607 3.988-8.122 3.968-8.274.04.056.523.635.771.946.774-7.95-5.728-10.517-5.728-10.517m-7.389 12.697c-.076.095-.403.386-.635.598s-.482.423-.674.618q-.115.116-.463.116h-.579c.29-.387 1.138-1.273 1.429-1.465.347-.231.522-.463.307-.866-.212-.407-.77-.308-.77-.308s.327-.136.618-.136c-.367-.095-.83 0-1.042.212-.231.212-.192.966-.287 1.445-.096.503-.424.755-.927 1.217-.27.252-.462.328-.618.328a6.6 6.6 0 0 1-.985-.251c-.192-.252-.483-1.082-.56-1.43.057-.191.288-.598.404-.83.231-.442.367-.694.407-.925.076-.328.327-2.355.423-3.202.251.328.599.87.52 1.217.558-.79.155-1.564-.04-1.872-.172-.307-.404-.926-.212-1.58.192-.655.886-2.471.886-2.471s.232.407.56.327c.327-.076 2.97-4.051 2.97-4.051s.714 1.561-.04 2.702c-.771 1.138-1.525 1.35-1.525 1.35s1.061.191 2.044-.523c.403.946.79 1.928.81 2.064-.06.135-.83 1.987-.906 2.103-.04.04-.308.116-.503.155-.327.096-.52.156-.598.212-.136.116-.754 1.813-1.042 2.643a1.6 1.6 0 0 0-.946.674c.135-.096.559-.155.87-.192.27-.02 1.098.424 1.313 1.254v.04c.043.304-.053.595-.209.826m-1.812.231c.175-.251.155-.675.175-.81.02-.136.056-.387.212-.424.155-.04.522.02.522.288 0 .251-.27.308-.463.483-.138.132-.41.423-.446.463m7.696-3.688a9.3 9.3 0 0 0 .155-2.526 7.1 7.1 0 0 1 1.35 3.472c.02.156.172.308.327.463.136.116.291.271.291.367q-.001.665-.116 1.333c-.02.056-.191.156-.327.232-.192.096-.367.192-.403.347a7.2 7.2 0 0 1-2.547 3.724c1.793-1.872 2.659-4.96 1.27-7.412m-1.214 7.584c1.254-.966 2.22-2.315 2.643-3.84.02-.056.191-.155.307-.231.192-.096.387-.212.424-.367.076-.444.115-.907.115-1.37 0-.172-.175-.347-.347-.519-.096-.116-.251-.251-.251-.347a7.57 7.57 0 0 0-1.581-3.84c-.387-2.315-1.928-3.03-1.968-3.05.04.06 1.042 1.506.347 3.202-.714 1.717-2.546 1.449-2.702 1.465-.155 0-.75.771-1.505 2.2-.095-.04-.502-.136-.965-.056.347-.966.87-2.335.965-2.451.04-.04.328-.116.523-.172.367-.096.54-.156.599-.232.04-.06.231-.502.423-.965.175 0 .618-.04.655-.06.04-.04.407-.982.407-1.098 0-.096-.755-1.968-1.042-2.682.135-.156.271-.347.403-.56 3.956.428 7.045 3.784 7.045 7.852a7.9 7.9 0 0 1-4.495 7.12"/><path fill="#1B314F" d="M15.73 15.708c.367-.423.176-1.214-.502-1.35.175-.403.423-1.213.423-1.213s-1.968 3.086-2.14 3.145c-.175.06-.347-.618-.347-.618-.367 1.409.618 1.6.734 1.157.54-.139 1.465-.718 1.832-1.121"/><path fill="#FFD923" d="m14.05 16.459 1.002-1.717s.579.291.288.754c-.364.54-1.29.963-1.29.963"/><path fill="#D82122" d="M26.456 24.41c-.291.386-.619.79-1.002 1.177 2.487-4.786.115-9.165.02-9.337.175.176.347.367.502.54 1.909 2.12 2.14 5.304.48 7.62M28.77 18.255c-.87-2.335-2.104-4.323-4.823-6.115-2.623-1.737-5.44-1.601-5.596-1.581h-.04c.096-.04.192-.06.288-.076.599-.192 1.37-.348 2.143-.444 2.047-.294 4.111.4 5.52 1.889l.04.04c1.6 1.696 2.43 3.816 2.467 6.287M23.33 8.703c-2.873-.539-4.725-.27-6.058.232-.04-.156-.176-.463-.291-.715a31 31 0 0 0-1.095 1.43c-.734.502-1.042.985-1.042.985.423-1.449 1.66-2.527 3.165-2.798a8 8 0 0 1 1.39-.116c1.329.02 2.658.347 3.932.982M12.7 12.407c-2.256-.076-1.505-2.702-1.465-2.854 0 .02.152 2.064 1.465 2.854M14.92 7.681c-1.737 1.042-1.39 3.53-1.39 3.53-1.66-2.524 1.254-3.47 1.39-3.53"/><path fill="#fff" d="M12.065 13.102c.116.096.232.271.096.522-.076.136-.192.116-.367.04-.232-.116-1.62-.926-2.874-1.756 1.429.503 2.874 1.042 3.105 1.158 0 0 .02.02.04.036"/></g></g><defs><clipPath id="a"><path fill="#fff" d="M0 0h36v36H0z"/></clipPath><clipPath id="b"><path fill="#fff" d="M6 7h23.376v22H6z"/></clipPath></defs></svg>