<svg width="39" height="39" viewBox="0 0 39 39" fill="none" xmlns="http://www.w3.org/2000/svg">
<rect width="36" height="36" rx="10" fill="#1F6DE4"/>
<path d="M10.4085 27L11.7304 21.6158L10.125 22.239L10.899 19.1351L12.5235 18.4826L14.8646 9H20.6347L18.9259 15.9705L20.5121 15.3281L19.7471 18.4219L18.1418 19.0642L17.1877 22.9826H25.875L24.8929 27H10.4085Z" fill="white"/>
<g clip-path="url(#clip0_42153_121898)">
<rect x="23" y="23" width="16" height="16" rx="4" fill="#F3BA2F"/>
<path d="M29.058 30.202L31 28.26L32.943 30.203L34.073 29.073L31 26L27.928 29.072L29.058 30.202ZM26 31L27.13 29.87L28.26 31L27.13 32.13L26 31ZM29.058 31.798L31 33.74L32.943 31.797L34.073 32.9265L31 36L27.928 32.928L27.9265 32.9265L29.058 31.798ZM33.74 31L34.87 29.87L36 31L34.87 32.13L33.74 31ZM32.146 30.999H32.147V31L31 32.147L29.8545 31.002L29.8525 31L29.8545 30.9985L30.055 30.7975L30.1525 30.7L31 29.853L32.1465 30.9995L32.146 30.999Z" fill="white"/>
</g>
<defs>
<clipPath id="clip0_42153_121898">
<rect width="16" height="16" fill="white" transform="translate(23 23)"/>
</clipPath>
</defs>
</svg>
