<svg xmlns="http://www.w3.org/2000/svg" width="36" height="36" fill="none"><g clip-path="url(#a)"><rect width="36" height="36" fill="#0E0E0E" rx="10"/><g clip-path="url(#b)"><path fill="#fff" d="M28.599 10.748c-.36-.272-.791-.643-1.576-.736-.736-.093-1.486.378-1.994.69-.507.312-1.465 1.227-1.86 1.505-.397.28-1.41.538-3.043 1.473-1.632.935-8.036 4.86-8.036 4.86l1.668.02-7.431 3.656h.742L6 22.992s.944.239 1.736-.24v.22s8.848-3.33 10.557-2.467l-1.042.29c.09 0 1.77.108 1.77.108s.056 1 1.07 1.644c1.014.637 1.035.989 1.035.989s-.528.205-.528.464c0 0 .778-.226 1.5-.206s1.354.206 1.354.206-.055-.279-.757-.464c-.708-.193-1.395-.916-1.736-1.314a1.79 1.79 0 0 1-.284-1.817c.243-.603 1.09-.935 2.84-1.797 2.063-1.023 2.535-1.779 2.826-2.369.293-.59.723-1.764.967-2.315.305-.71.68-1.088.993-1.313.305-.226 1.7-.723 1.7-.723s-1.062-.882-1.402-1.14"/></g></g><defs><clipPath id="a"><path fill="#fff" d="M0 0h36v36H0z"/></clipPath><clipPath id="b"><path fill="#fff" d="M6 6h24v24H6z"/></clipPath></defs></svg>