<svg xmlns="http://www.w3.org/2000/svg" width="36" height="36" fill="none"><g clip-path="url(#a)"><rect width="36" height="36" fill="#0033AD" rx="10"/><g clip-path="url(#b)"><path fill="#fff" d="M17.196 29.195a.717.717 0 0 1 1.256-.442.72.72 0 0 1-.58 1.192.72.72 0 0 1-.676-.75m-5.882-.777a.565.565 0 1 1 .944.62.565.565 0 0 1-.944-.62m12.616-.221a.564.564 0 1 1 .51 1.007.564.564 0 0 1-.51-1.007M12.677 25.43a.872.872 0 0 1 1.459.956.872.872 0 0 1-1.459-.956m9.482-.321a.87.87 0 0 1 1.062 1.34.873.873 0 1 1-1.087-1.327zm-5.183-.533a1.026 1.026 0 1 1 1.845.897 1.026 1.026 0 0 1-1.845-.897m-9.077-1.588a.719.719 0 1 1-.021.01zm19.225.204a.718.718 0 1 1 1.21.776.718.718 0 0 1-1.21-.776m-12.041-3.185a1.745 1.745 0 1 1 1.658 3.071 1.745 1.745 0 0 1-1.658-3.071m4.41-.131a1.746 1.746 0 0 1 2.092.875c.431.86.086 1.906-.772 2.34a1.76 1.76 0 0 1-.786.191 1.745 1.745 0 0 1-.535-3.406m-8.405.969a1.027 1.027 0 1 1 1.556 1.34 1.027 1.027 0 0 1-1.556-1.34m12.126.079a1.026 1.026 0 1 1 1.716 1.126 1.026 1.026 0 0 1-1.716-1.126M12.1 17.888a1.745 1.745 0 1 1 1.776 1.845h-.127a1.75 1.75 0 0 1-1.646-1.814l.001-.032zm8.234-.02a1.746 1.746 0 1 1 2.715 1.548 1.75 1.75 0 0 1-.936.295h-.136a1.746 1.746 0 0 1-1.644-1.842m-12.386.08a.872.872 0 1 1 1.74.098.872.872 0 0 1-1.74-.099m18.29-.04a.872.872 0 0 1 1.741.099.873.873 0 0 1-1.74-.1m-20.662-.465h.021a.563.563 0 1 1-.02 0m24.794-.058h.024a.566.566 0 1 1-.166 1.113.564.564 0 0 1 .142-1.113m-14.473-4.71a1.74 1.74 0 0 1 1.747 1.815 1.746 1.746 0 1 1-3.488-.146 1.745 1.745 0 0 1 1.741-1.669m4.118-.012a1.746 1.746 0 1 1-.005 3.49 1.746 1.746 0 0 1 .005-3.49m-9.02 1.24a1.026 1.026 0 1 1 1.715 1.126 1.026 1.026 0 0 1-1.716-1.125m12.604-.38a1.026 1.026 0 1 1 .924 1.833 1.026 1.026 0 0 1-.924-1.833m-16-1.548a.718.718 0 1 1 1.202.788.718.718 0 0 1-1.201-.788m19.78-.29a.718.718 0 0 1 .646 1.282.72.72 0 0 1-.647-1.283m-10.455-.814a1.026 1.026 0 1 1 2.049.118 1.026 1.026 0 0 1-2.05-.118M12.979 9.29a.872.872 0 1 1 .784 1.557.872.872 0 0 1-.784-1.557m8.806.28a.872.872 0 1 1 1.46.954.872.872 0 0 1-1.46-.954M11.48 6.75a.564.564 0 1 1 .505 1.01.564.564 0 0 1-.505-1.01m12.183.166a.563.563 0 0 1 .94-.009.563.563 0 0 1-.351.871.565.565 0 0 1-.589-.862M17.7 6.041a.718.718 0 1 1 .492 1.349.718.718 0 0 1-.492-1.35"/></g></g><defs><clipPath id="a"><path fill="#fff" d="M0 0h36v36H0z"/></clipPath><clipPath id="b"><path fill="#fff" d="M5 6h25.924v24H5z"/></clipPath></defs></svg>