<svg xmlns="http://www.w3.org/2000/svg" width="36" height="36" fill="none"><g clip-path="url(#a)"><rect width="36" height="36" fill="#252A34" rx="10"/><g clip-path="url(#b)"><path fill="url(#c)" d="M11.25 22.212a.65.65 0 0 1 .462-.195h15.962c.292 0 .438.36.232.57l-3.154 3.218a.65.65 0 0 1-.462.196H8.328c-.292 0-.438-.36-.231-.57z"/><path fill="url(#d)" d="M11.25 10.195a.67.67 0 0 1 .462-.195h15.962c.292 0 .438.36.232.57l-3.154 3.218a.65.65 0 0 1-.462.195H8.328c-.292 0-.438-.359-.231-.57z"/><path fill="url(#e)" d="M24.752 16.165a.65.65 0 0 0-.462-.195H8.328c-.292 0-.438.36-.231.57l3.153 3.218c.12.123.286.195.462.195h15.962c.292 0 .438-.36.232-.57z"/></g></g><defs><linearGradient id="c" x1="26.149" x2="14.742" y1="8.078" y2="29.484" gradientUnits="userSpaceOnUse"><stop stop-color="#00FFA3"/><stop offset="1" stop-color="#DC1FFF"/></linearGradient><linearGradient id="d" x1="21.319" x2="9.912" y1="5.503" y2="26.909" gradientUnits="userSpaceOnUse"><stop stop-color="#00FFA3"/><stop offset="1" stop-color="#DC1FFF"/></linearGradient><linearGradient id="e" x1="23.719" x2="12.312" y1="6.782" y2="28.188" gradientUnits="userSpaceOnUse"><stop stop-color="#00FFA3"/><stop offset="1" stop-color="#DC1FFF"/></linearGradient><clipPath id="a"><path fill="#fff" d="M0 0h36v36H0z"/></clipPath><clipPath id="b"><path fill="#fff" d="M8 10h20v16H8z"/></clipPath></defs></svg>