<svg xmlns="http://www.w3.org/2000/svg" width="36" height="36" fill="none"><g clip-path="url(#a)"><rect width="36" height="36" fill="#0E0E0E" rx="12"/><g clip-path="url(#b)"><path fill="#fff" d="M24.594 14.036h-2.117a.9.9 0 0 1-.655-.29l-.861-.96a.683.683 0 0 0-1.016 0l-.74.822a1.26 1.26 0 0 1-.947.428H6.636A12.5 12.5 0 0 0 6 17h10.967c.19 0 .378-.086.517-.223l1.015-1.062a.65.65 0 0 1 .482-.205h.035c.189 0 .379.085.516.223l.861.959c.155.188.396.29.655.29H30a11.7 11.7 0 0 0-.637-2.962h-4.77zm-11.949 9.178c.19 0 .38-.086.517-.223l1.015-1.062a.65.65 0 0 1 .482-.205h.052c.19 0 .38.085.516.223l.862.959c.172.188.395.29.654.29h12.138c.464-.941.792-1.951.998-2.979H18.224a.83.83 0 0 1-.637-.29l-.86-.96a.69.69 0 0 0-1.017 0l-.74.822a1.27 1.27 0 0 1-.964.428H6.19c.19 1.028.534 2.038.981 2.997zM21.253 10.8c.19 0 .38-.086.517-.223l1.016-1.062a.65.65 0 0 1 .481-.205h.052c.19 0 .38.085.5.223l.86.959c.173.188.396.29.655.29h2.307c-3.994-5.29-11.535-6.352-16.854-2.38a11.7 11.7 0 0 0-2.394 2.38h12.861zm-4.648 15.376h-3.15a.83.83 0 0 1-.637-.29l-.861-.96c-.258-.273-.689-.308-.964-.05l-.052.05-.74.84a1.26 1.26 0 0 1-.947.428h-.051c4.528 4.828 12.154 5.102 17.01.599.206-.189.413-.394.603-.6z"/></g></g><defs><clipPath id="a"><path fill="#fff" d="M0 0h36v36H0z"/></clipPath><clipPath id="b"><path fill="#fff" d="M6 6h24v24H6z"/></clipPath></defs></svg>