<svg xmlns="http://www.w3.org/2000/svg" width="36" height="36" fill="none"><g clip-path="url(#a)"><rect width="36" height="36" fill="#282F36" rx="10"/><path fill="#fff" d="M9.768 19.132a8.96 8.96 0 0 1 1.032-5.436 8.5 8.5 0 0 1 3.007-3.165 8.04 8.04 0 0 1 4.116-1.19 8.04 8.04 0 0 1 4.14 1.1l1.902-1.01a9.9 9.9 0 0 0-5.172-1.987 9.8 9.8 0 0 0-5.406 1.123 10.3 10.3 0 0 0-4.045 3.903 10.9 10.9 0 0 0-1.466 6.338c.027.378-.053.756-.232 1.09a1.9 1.9 0 0 1-.772.772L6 21.133v2.164l24-12.753V8.381zM30 12.707l-18.946 10.06L6 25.457v2.16l20.237-10.753q.072.567.07 1.14a8.96 8.96 0 0 1-1.101 4.308 8.5 8.5 0 0 1-3.012 3.168 8.04 8.04 0 0 1-4.122 1.188 8.04 8.04 0 0 1-4.142-1.108l-.102.056-1.793.953a9.9 9.9 0 0 0 5.17 1.987 9.8 9.8 0 0 0 5.405-1.122 10.3 10.3 0 0 0 4.047-3.9 10.9 10.9 0 0 0 1.467-6.345 2 2 0 0 1 .232-1.089c.175-.328.443-.597.77-.773l.874-.463z"/></g><defs><clipPath id="a"><path fill="#fff" d="M0 0h36v36H0z"/></clipPath></defs></svg>