<svg xmlns="http://www.w3.org/2000/svg" width="36" height="36" fill="none"><g clip-path="url(#a)"><rect width="36" height="36" fill="#FE0420" rx="10"/><path fill="#fff" fill-rule="evenodd" d="M9.073 22.223Q10.16 23 11.865 23q2.06 0 3.29-.93 1.23-.946 1.732-2.847.3-1.168.516-2.404.07-.442.071-.737 0-.97-.5-1.665a3 3 0 0 0-1.375-1.056q-.873-.36-1.975-.361-4.05 0-5.022 3.82-.344 1.403-.53 2.403a5 5 0 0 0-.072.749q0 1.46 1.073 2.251m5.167-3.085c-.274 1.064-1.03 1.756-2.175 1.756-1.134 0-1.52-.766-1.317-1.756q.258-1.347.516-2.278c.295-1.148.99-1.756 2.174-1.756 1.13 0 1.498.756 1.303 1.756q-.21 1.148-.501 2.278m4.336 3.762a.3.3 0 0 0 .237.098h1.894a.42.42 0 0 0 .264-.098.4.4 0 0 0 .153-.258l.598-2.8h1.926c1.216 0 2.166-.59 2.862-1.114q1.06-.786 1.406-2.43.085-.385.084-.742 0-1.242-.946-1.9Q26.121 13 24.576 13h-3.702a.42.42 0 0 0-.266.1.42.42 0 0 0-.152.257l-1.922 9.286a.34.34 0 0 0 .042.257m6.767-6.629c-.175.766-.842 1.466-1.625 1.466h-1.6l.551-2.632h1.67c.569 0 1.044.113 1.044.738q0 .184-.04.428" clip-rule="evenodd"/></g><defs><clipPath id="a"><path fill="#fff" d="M0 0h36v36H0z"/></clipPath></defs></svg>