<svg xmlns="http://www.w3.org/2000/svg" width="36" height="36" fill="none"><g clip-path="url(#a)"><rect width="36" height="36" fill="#74D4DB" rx="12"/><g clip-path="url(#b)"><path fill="#633001" fill-rule="evenodd" d="M10.232 9.713C9.861 7.782 11.346 6 13.277 6a3.137 3.137 0 0 1 3.118 3.118v3.861c.445 0 .891-.074 1.337-.074s.816 0 1.262.075V9.118A3.137 3.137 0 0 1 22.112 6c1.93 0 3.416 1.782 3.119 3.713l-.817 4.529c2.896 1.262 5.123 3.49 5.123 6.237v1.707c0 2.302-1.485 4.233-3.638 5.495-2.153 1.336-4.975 2.079-8.167 2.079s-6.015-.743-8.168-2.079C7.485 26.419 6 24.488 6 22.186V20.48c0-2.747 2.153-4.975 5.049-6.237zM23.3 14.836l.965-5.346c.223-1.337-.742-2.599-2.153-2.599a2.155 2.155 0 0 0-2.153 2.153v4.9c-.297-.074-.668-.074-.965-.074-.446 0-.817-.074-1.262-.074s-.892 0-1.337.075c-.297 0-.668.074-.965.074V9.118a2.155 2.155 0 0 0-2.153-2.153c-1.337 0-2.376 1.262-2.08 2.599l.966 5.346c-3.119 1.188-5.198 3.267-5.198 5.643v1.708c0 3.638 4.826 6.608 10.767 6.608s10.766-2.97 10.766-6.608v-1.708c.074-2.45-2.005-4.53-5.198-5.717" clip-rule="evenodd"/><path fill="#FEDC90" d="M28.572 22.187c0 3.638-4.826 6.608-10.766 6.608S7.04 25.825 7.04 22.186V20.48h21.532z"/><path fill="#D1884F" fill-rule="evenodd" d="M11.198 9.564c-.297-1.336.742-2.599 2.079-2.599 1.188 0 2.153.966 2.153 2.154v4.9c.742-.074 1.485-.149 2.302-.149.742 0 1.485.075 2.227.149v-4.9c0-1.188.965-2.154 2.153-2.154 1.337 0 2.376 1.263 2.154 2.599L23.3 14.91c3.119 1.188 5.272 3.267 5.272 5.643 0 3.638-4.826 6.608-10.766 6.608S7.04 24.191 7.04 20.553c0-2.376 2.079-4.455 5.197-5.643z" clip-rule="evenodd"/><path fill="#633001" d="M14.761 20.033c0 .965-.52 1.782-1.188 1.782s-1.188-.817-1.188-1.782.52-1.782 1.188-1.782c.669 0 1.188.817 1.188 1.782M23.003 20.033c0 .965-.52 1.782-1.188 1.782s-1.188-.817-1.188-1.782.52-1.782 1.188-1.782 1.188.817 1.188 1.782"/></g></g><defs><clipPath id="a"><path fill="#fff" d="M0 0h36v36H0z"/></clipPath><clipPath id="b"><path fill="#fff" d="M6 6h24v24H6z"/></clipPath></defs></svg>