<svg width="36" height="36" viewBox="0 0 36 36" fill="none" xmlns="http://www.w3.org/2000/svg">
<g clip-path="url(#clip0_51238_272268)">
<rect width="36" height="36" rx="10" fill="#0166FF"/>
<path d="M19.1083 10.221L13.5857 26H10.5226L5 10.221H7.92899L11.1486 19.8785C11.253 20.1436 11.3573 20.4899 11.4617 20.9171C11.5809 21.3296 11.6927 21.7569 11.797 22.1989C11.9163 22.6262 12.0057 23.0092 12.0653 23.3481C12.1101 23.0092 12.1846 22.6262 12.2889 22.1989C12.4082 21.7569 12.5274 21.3296 12.6467 20.9171C12.7659 20.4899 12.8703 20.1436 12.9597 19.8785L16.1793 10.221H19.1083Z" fill="white"/>
<path d="M31 26H20.0666V23.9448L24.1359 19.8785C24.9408 19.0681 25.5967 18.3757 26.1034 17.8011C26.6252 17.2118 27.0052 16.6667 27.2437 16.1657C27.4971 15.6648 27.6238 15.1197 27.6238 14.5304C27.6238 13.8085 27.4152 13.2707 26.9978 12.9171C26.5804 12.5488 26.0289 12.3646 25.3433 12.3646C24.6725 12.3646 24.0464 12.5046 23.4651 12.7845C22.8838 13.0497 22.2801 13.4328 21.6541 13.9337L20.1113 12.0994C20.5585 11.7164 21.0355 11.3702 21.5423 11.0608C22.0491 10.7366 22.6229 10.4788 23.2639 10.2873C23.9048 10.0958 24.6501 10 25.4998 10C26.5283 10 27.4077 10.1842 28.1381 10.5525C28.8834 10.9061 29.4573 11.3996 29.8597 12.0331C30.2622 12.6667 30.4634 13.4033 30.4634 14.2431C30.4634 14.8913 30.3665 15.4954 30.1727 16.0552C29.979 16.6004 29.6957 17.1381 29.3231 17.6685C28.9505 18.1989 28.4958 18.7366 27.9592 19.2818C27.4226 19.8269 26.8189 20.4162 26.1482 21.0497L23.6216 23.4586V23.5912H31V26Z" fill="white"/>
</g>
<defs>
<clipPath id="clip0_51238_272268">
<rect width="36" height="36" fill="white"/>
</clipPath>
</defs>
</svg>
