<svg xmlns="http://www.w3.org/2000/svg" width="36" height="36" fill="none"><g clip-path="url(#a)"><rect width="36" height="36" fill="#F5F7FF" rx="10"/><g clip-path="url(#b)"><path fill="url(#c)" fill-rule="evenodd" d="m18 20.344.03-.036c1.752 1.704 4.278 3.684 6.468 3.684a5.45 5.45 0 0 0 5.502-5.4c0-2.982-2.46-5.4-5.502-5.4-2.328 0-4.62 1.728-6.498 3.648zm6.42 1.464c1.872 0 3.39-1.44 3.39-3.216s-1.518-3.216-3.396-3.216-3.708 1.74-4.992 3.216c.852.96 3.12 3.216 4.992 3.216z" clip-rule="evenodd"/><path fill="url(#d)" fill-rule="evenodd" d="m18.072 20.416-.12-.12c-1.698 1.686-4.2 3.696-6.45 3.696A5.45 5.45 0 0 1 6 18.592c0-2.982 2.46-5.4 5.502-5.4 2.364 0 4.56 1.866 6.408 3.858l.162-.168zm-6.492 1.392c-1.878 0-3.396-1.44-3.396-3.216s1.518-3.216 3.396-3.216 3.708 1.74 4.992 3.216c-.852.96-3.12 3.216-4.992 3.216" clip-rule="evenodd"/><path fill="#46ABE3" d="m16.344 18.394.144.126 1.47 1.872c1.728 1.614 4.248 3.6 6.54 3.6a5.48 5.48 0 0 0 5.4-4.356c-.468.846-2.1 2.172-5.016 2.142q-.233.03-.468.03c-1.878 0-4.14-2.256-4.992-3.216l.018-.024-1.77-2.13-1.77-1.68C14.484 13.678 13.02 13 11.412 13c-2.717 0-4.9 2.16-5.34 4.74 1.212-2.196 3.823-2.904 6.114-2.298 1.5.258 2.802 1.452 4.158 2.952"/></g></g><defs><linearGradient id="c" x1="31.224" x2="4.86" y1="17.982" y2="17.982" gradientUnits="userSpaceOnUse"><stop stop-color="#F2A528"/><stop offset="1" stop-color="#EF5E12"/></linearGradient><linearGradient id="d" x1="8.255" x2="30.536" y1="18.087" y2="18.087" gradientUnits="userSpaceOnUse"><stop stop-color="#5F2685"/><stop offset="1" stop-color="#DA1980"/></linearGradient><clipPath id="a"><path fill="#fff" d="M0 0h36v36H0z"/></clipPath><clipPath id="b"><path fill="#fff" d="M6 6h24v24H6z"/></clipPath></defs></svg>