<svg xmlns="http://www.w3.org/2000/svg" width="36" height="36" fill="none"><g clip-path="url(#a)"><rect width="36" height="36" fill="#BA9F33" rx="12"/><path fill="#CFB66C" fill-rule="evenodd" d="M7.87 16.078c-.102-.093-.21-.187-.309-.28q-.149-.14-.303-.28l-.303-.287c-.05-.05-.102-.094-.151-.143l-.157-.137c-.402-.382-.807-.763-1.203-1.145.41.376.813.749 1.223 1.13l.143.143c.05.05.102.093.151.143l.303.28q.152.137.303.287c.102.102.201.195.303.288m-5.336-.058s1.462.151 2.176.253c.66.094 2.729.411 2.729.411zm0 0c.41.035.821.079 1.232.122.21.02.41.044.612.064l.308.035.303.044 1.224.195.611.102c.201.035.402.073.612.108-.201-.02-.41-.05-.612-.079l-.611-.087-1.224-.18c-.102-.015-.2-.036-.303-.05l-.308-.036c-.201-.02-.411-.05-.612-.073-.41-.049-.821-.101-1.232-.165m4.76 1.045s-1.562.396-2.09.548c-.517.142-2.087.62-2.087.62z" clip-rule="evenodd"/><path fill="#CFB66C" fill-rule="evenodd" d="M7.293 17.065q-.517.154-1.043.294l-1.042.28c-.347.102-.692.2-1.037.303l-.519.142c-.171.05-.346.094-.524.143.172-.057.347-.116.519-.166l.518-.166q.52-.159 1.037-.317c.352-.088.699-.18 1.051-.265.335-.085.688-.17 1.04-.248m-3.958 2.13c.172-.065 2.152-.988 2.613-1.204.23-.107.9-.345.9-.345z" clip-rule="evenodd"/><path fill="#CFB66C" fill-rule="evenodd" d="M3.335 19.194c.151-.057.294-.128.44-.195l.43-.2.866-.417c.288-.137.568-.288.865-.417.151-.064.303-.116.454-.166l.23-.073c.08-.02.152-.043.23-.064-.287.137-.59.254-.879.387-.288.143-.582.26-.88.388l-.879.387c-.295.12-.583.248-.877.37m.192.807s1.794-1.052 2.412-1.39c.323-.18 1.369-.699 1.369-.699z" clip-rule="evenodd"/><path fill="#CFB66C" fill-rule="evenodd" d="M3.527 20.001q.456-.28.92-.568l.461-.28c.158-.093.309-.18.47-.273.157-.094.308-.187.468-.274q.114-.07.239-.122l.245-.123c.323-.157.646-.317.987-.454-.309.195-.626.361-.944.533-.157.087-.317.166-.474.253-.158.088-.31.181-.47.265-.157.094-.308.18-.468.265l-.475.26zm3.766-1.858s-1.115.856-1.477 1.13c-.36.274-1.424 1.043-1.424 1.043z" clip-rule="evenodd"/><path fill="#E2CC85" fill-rule="evenodd" d="m13.695 25.049-.57-1.081.331-1.352 2.368-.914-1.008-2.068.498-2.088.936-1.87 2.889-.455 2.123-2.024 4.585.347.9 4.902-1.733 6.171-.988 3.196-4.002.151-1.858-1.287-2.176-.91z" clip-rule="evenodd"/><path fill="#F1D789" fill-rule="evenodd" d="M20.715 25.014s-.554.253-1.498.195c-.273-.367-2.187-.54-2.187-.54s-.238-.072-.66.103c-.426.173-.828.151-1.204.244-.376.094-.748-.396-1.037-.498-.287-.107-.67-.367-.67-.367l-.806-.078-1.62-.685-2.572-2.563-.699 1.095-.215 1.354.777 1.605 2.095 1.908 4.083 1.037 2.42-.714 3.032-1.281z" clip-rule="evenodd"/><path fill="#F4ECB4" fill-rule="evenodd" d="m6.207 15.955.518-1.57.618-1.013 1.989-.166-.597 1.742-1.663 2.959.69 2.642-1.223.611-.376-.576-.303-1.323-.02-1.485z" clip-rule="evenodd"/><path fill="#F3E19D" fill-rule="evenodd" d="m8.438 24.906-.382-.533s-.102-.254-.043-.475c.057-.224.05-.239.02-.323-.029-.085-.274-.376-.26-.627.015-.253-.02-.338.167-.538.195-.195.137-.533.137-.533l.253.157.058-.087s.093.072.093.186c.02-.157-.064-.886.128-1.051.192-.166.533.777.533.777l-.21-1.369-.539-1.403-.958-1.282-.058-1.413v-.122s-.44.676-.562 1.21c-.087.366.123.812.079 1.34-.035.524-.079.483.05.69.127.208.44.635.317.944-.108.265-.475.079-.475.079s-.073.215-.172.294a.65.65 0 0 0-.142-.288c-.006.05-.02.117-.02.117s-.065-.201-.13-.455c-.086-.338-.18-.783-.264-1.022-.035.137-.122.553-.122.553l.05.641.238.88.23.576.225.704.195.474.157.361.137.813.66.699.353.157z" clip-rule="evenodd"/><path fill="#F2E8B0" fill-rule="evenodd" d="M6.553 14.674s-.474.806-.611 1.62c-.137.812-.26 1.671-.173 2.778.087 1.116.253 1.8.387 2.29.23.812.828 1.942.828 1.942l.02-.044q-.15-.286-.239-.597c-.079-.309-.108-.675-.18-.842-.065-.166-.172-.308-.225-.512-.05-.195-.057-.504-.21-.734-.064-.093-.142-.338-.166-.583-.029-.367.015-.777-.02-1.115-.064-.562-.108-.944-.05-1.238.059-.294.362-1.13.548-1.794.123-.426.05-.784.274-1.154.224-.367.361-.69.41-.914.058-.204-.593.897-.593.897" clip-rule="evenodd"/><path fill="#F5EEC0" fill-rule="evenodd" d="M8.805 14.35s-.245.073-.361.202c-.117.122-.166.224-.324.43-.157.207-.166.376-.294.636-.128.253-.41.634-.446.771-.035.137-.093.778-.165 1.08-.065.304.072.677.072.677l.166-.035s0 .215.166.36c.166.144.195-.483.195-.483l.62-2.094.936-.635.102-.512z" clip-rule="evenodd"/><path fill="#E6DB9D" fill-rule="evenodd" d="M9.26 15.3s-.44.03-.656.186c-.087.064-.122.117-.216.196-.171.142-.346.273-.43.46-.094.187-.196.47-.266 1.002-.029.225-.029.431-.05.612-.028.245-.072.44-.049.576.03.28.318.425.346.743l.597-.303.562-2.217 1.194-.749-.676-.757-.358.25z" clip-rule="evenodd"/><path fill="#E5CB7A" fill-rule="evenodd" d="m6.109 30.226.008-.066c.087-.749.101-1.316.165-1.672.094-.503.158-.69.143-.88-.02-.302-.044-.524-.014-.757.043-.308.346-.675.338-.929-.006-.2-.108-.332-.196-.454-.087-.122-.157-.224-.157-.224s.597-.41.591-2.065a.2.2 0 0 1 .035.014l.295.836.2.245.772 1.438.994.965 1.467.987.92 1.002.094 2.67-1.203 1.562-.197.356a17.1 17.1 0 0 1-4.255-3.028" clip-rule="evenodd"/><path fill="#D8C173" fill-rule="evenodd" d="M9.784 32.782s.02-.332.294-.548c.043.073.072.143.064.195.05-.087.396-.647 1.18-.792.783-.143.972-.714.972-.714l1.663-1.511 1.902-1.75 2.313-.813 1.08-.266s.02.08-.02.254c.201-.015.647-.117 1.11-.28.186-.072.361-.102.454-.005.137.128.157.43.166.611.224-.05.484-.265.691-.245.332.035.627.426.965.426.445 0 .646-.274.958-.49.186-.128.454-.288.606-.396.36-.265 4.182-1.433 4.182-1.433l1.34.087.215 1.44-.115 3.76-.042.042-6.092 3.182-8.444 1.294a17 17 0 0 1-5.399-1.857z" clip-rule="evenodd"/><path fill="#F1D789" fill-rule="evenodd" d="M6.621 30.705c.12-.251.228-.461.247-.536.015.151.042.483.098.836a18 18 0 0 1-.345-.3" clip-rule="evenodd"/><path fill="#E0CD81" fill-rule="evenodd" d="m12.79 34.245 1.092-.304.093.029s.05.03.05.128c.136-.078.253-.064.337-.116.044.093.087.401.28.44.2.043.416-.088.635-.254.215-.172.46-.387.646-.475q.103.189.18.388c.245-.196.67-.988 1.276-.973.175-.414.468-.767.842-1.017.562-.381.914-.41 1.354-.376.175-.226.39-.419.635-.567.073.029.274.151.524.035.254-.117.54-.568.915-.627a.88.88 0 0 1 .582.123s1.095-1.087 1.85-1.448c-.03-.087-.087-.416.798-1.145.05.044.015.166.05.173.014 0 .23-.093.503-.303.338-.253.743-.518.988-.591.46-.137.95.143.95.143a.4.4 0 0 1 .136-.064c.116-.02.2-.035.265-.058-.006.151.079.41 0 .635q.137.077.288.122c-.05.108-.157.382-.338.513.152.073.172.157.388.23-.088.123-.23.332-.295.461-.064.137-.294.705-.396.92-.107.216-.253.612-.323.692s-.323.416-.519.582c.173-.064.88-.28 1.18-.361-.09.13-.542.802-.977 1.448a17.1 17.1 0 0 1-13.99 1.62z" clip-rule="evenodd"/><path fill="#DFC57C" fill-rule="evenodd" d="M9.331 15.221s-.253 0-.303.035.254.108.347.143.294.195.347.324c.049.122 1.82.835 1.82.835l1.252-.064.432-.596-.821-.72.576-1.698-.763.122-1.835 1.095-.92.352z" clip-rule="evenodd"/><path fill="#E5CC7C" fill-rule="evenodd" d="M12.082 15.784a.2.2 0 0 0 .172.093c.26 0 .498.064.597.195.166.21.627.88.627.88l1.1.396.072-1.297-1.203-.836-1.37.504v.064h.004" clip-rule="evenodd"/><path fill="#D2C281" fill-rule="evenodd" d="M11.866 16.264s.2.015.454-.079c.253-.093.67-.294.85-.215.254.108.201.446.475.749.166.186.47.18.641.381s.763.108.763.108l.224 1.21-.9 1.153-.294 1.433h-1.217l-1.112-.44-.547-1.326.274-1.34z" clip-rule="evenodd"/><path fill="#E2C270" fill-rule="evenodd" d="M14.22 16.322a.3.3 0 0 0 .093.015c-.035.03-.108.093-.08.26.03.165.123.375.045.503a.6.6 0 0 1 .137.239c.05.143.064.274.387.294a.7.7 0 0 0-.128.102s.224.195.338.376c.116-.005.425-.101.425-.101l.064.043.137-.057s-.128-.05-.035-.361c.087-.274.166-.26.173-.28s.064-.309.064-.425c.043-.151.078-.612.078-.612l-.093-1.016-.524-.318-.426-.411-.402.757-.265.264-.02.655z" clip-rule="evenodd"/><path fill="#CCB360" fill-rule="evenodd" d="M15.48 15.472s.094.265.129.469a.5.5 0 0 0 .02-.123s.073.403.087.569c.03-.006.058-.015.065.014s.072.352.057.533c.121-.2.29-.368.49-.49.116-.072.253-.15.396-.157.224-.005.387.143.655.143.646 0 1.232-.475 1.663-.62.317-.108.591-.187.783-.362.094-.078.26-.253.411-.512.201-.346.41-.647.62-.684a1.3 1.3 0 0 1-.287.02s.064-.064.172-.152c.11-.087.24-.195.425-.195.333 0 .498.05.685.05.186-.006.294-.05.294-.05s.195.137.635.137c.44.006.734.044.964.064s1.002-.064 1.224-.057c.144.005.286.04.416.102l-.713-2.074-2.564-2.24-1.526 1.08-2.348 2.348-2.272.841-.475.533v.813z" clip-rule="evenodd"/><path fill="#D5B457" fill-rule="evenodd" d="M20.578 14.284s.064-.065.171-.152.24-.195.426-.195c.332 0 .498.05.684.05a1 1 0 0 0 .294-.05s.196.137.635.137c.44.005.734.043.965.063s1.001-.063 1.223-.057c.144.005.286.04.416.102l-.323-.935-.376-.714-1.072-1.173-1.296-.763c-.006-.006-.445-.123-.445-.123l-1.165.705-1.058 2.735-.02.576.684.323c.172-.288.362-.518.54-.547-.161.017-.283.017-.283.017" clip-rule="evenodd"/><path fill="#D2B257" fill-rule="evenodd" d="M20.563 14.479c-.102.006-.186-.015-.21-.088-.087-.244-.157-.28-.23-.28s-.172.158-.23.172c-.059.015-.128-.18-.128-.18l-.064-.03s-.376.245-.641.534c-.265.288-.7.778-.894.865s-.866.116-1.095.166-.483.215-.518.253.102.079.122.117c.02.035-.224.02-.244.057-.015.03.057.195.093.28a.5.5 0 0 1 .2-.05c.225-.006.388.143.656.143.647 0 1.232-.475 1.663-.62.318-.108.591-.187.784-.362a2 2 0 0 0 .41-.512c.111-.178.219-.344.327-.466" clip-rule="evenodd"/><path fill="#D2B159" fill-rule="evenodd" d="M11.29 28.893s-.058-.215-.592-.771c-.151-.158-.244-.288-.346-.382-.254-.24-.402-.303-.583-.44-.396-.294-.827-.294-1.159-.655s-.719-1.051-.988-1.757c-.265-.704-.338-.929-.338-.95s.073-.156.167-.136c.093.02.093.2.116.245q.07.107.157.2c.137.158.332.346.431.627a3 3 0 0 0-.102-.504s.513.323.95.661c.44.338.62.454.749.67.128.215.43.784.576.95s2.13.792 2.13.792l.946.704.469 1.028-.367.576-.705.152-1.145-.513z" clip-rule="evenodd"/><path fill="#C2A44D" fill-rule="evenodd" d="M8.747 25.352s.238.381.82.742c.525.318 1.355.606 2.095.778.425.102.85.18 1.232.186 1.028.015 1.736-.28 2.613-.375.475-.05 1.057-.088 1.663-.23.777-.187 1.238-.397 1.864-.692.454-.21.871-.367 1.209-.568.475-.28.821-.591 1.223-.684-.05.137-.102.381-.498.635.21-.006.498-.02.498-.02s-.28.165-.772.538c-.303.23-.704.62-1.115.88-.265.166-.554.288-.743.387-.46.254-.647.382-.95.691a.4.4 0 0 1 .117 0s-.382.05-.655.195c-.058 0-.158-.02-.332.03-.137.043-.318.143-.504.195-.265.078-.352.044-.352.044l.043.087s-.346-.006-.46.006c.02.005.014.014.014.014a.2.2 0 0 0-.058.02.6.6 0 0 1-.18.08c-.035.005-.064.005-.108.014.014.035.128.23.18.345-.043.03-.699.525-.699.525q.03.048.05.101c.02.064.03.158.05.201.049.088.078.102.078.102s-.079.015-.216.05c-.116.03-.259.078-.46.108a2 2 0 0 1-.187.014c.03.064.157.309-.079.591-.236.283-.308.324-.381.504a1 1 0 0 0-.117-.073c-.078-.035-.186-.087-.224-.157a2 2 0 0 1-.087.274c-.073.195-.18.387-.201.533-.079-.087-.224-.26-.425-.224-.201.035-.361.308-.396.387 0-.05-.035-.087-.044-.03-.006.065-.117.735-.734 1.277-.006-.137-.006-.44-.02-.54-.058.058-.128.144-.548.324-.41.18-.346.361-.346.361s-.035-.288.187-.591c.224-.303.361-.446.361-.469a.13.13 0 0 0-.03-.064c-.028-.03-.086-.064-.086-.087.034-.015.381-.18.36-.525a.93.93 0 0 0-.244-.582c-.014-.015.137-.122.117-.157-.015-.02-.201-.158-.225-.23a.7.7 0 0 1 .03-.129c.02-.064.035-.108.029-.151a1.2 1.2 0 0 0-.117-.294c.02.005.166 0 .166 0s-.116-.187-.137-.274c-.02-.088-.064-.318-.087-.361.05.005.172.014.172 0 .006-.044-.108-.117-.058-.173.035.006.102.035.166.116-.035-.093-.093-.273-.216-.346a.53.53 0 0 1 .426.029c.171.102.23.244.23.244s.102.08.26.196c.18.142.41.345.777.489.079.044.28.044.425.015a.7.7 0 0 0 .18-.073.3.3 0 0 1 .065-.03 1.4 1.4 0 0 0-.108-.18c.05 0 .108.006.108.006s.035-.079-.122-.23c.034-.035.078-.058.078-.117-.05-.006-.137-.079-.157-.108.029-.02.073-.087.122-.108-.043-.035-.151-.18-.2-.195a1 1 0 0 0 .136-.064s-.244-.064-.323-.116c-.079-.058-.195-.158-.265-.187-.073-.029-.201-.043-.254-.102.05.015.128 0 .187 0 .043 0 .064.006.078.006-.005-.02-.005-.064.108-.078a.5.5 0 0 0 .158-.05s-.108-.006-.23-.122c-.123-.117-.225-.21-.295-.225-.073-.014-.21.05-.294.044-.117-.014-.166-.073-.166-.073s-.387.035-1.247-.489c-.742-.454-1.066-.856-1.066-.856a1.3 1.3 0 0 1-.2-.094c-.28-.145-.668-.448-.656-.844z" clip-rule="evenodd"/><path fill="#CAA13E" fill-rule="evenodd" d="M19.462 7.87a.4.4 0 0 1 .173.116c.137.158.224.455-.088.772.123.044.173.058.28.044-.108.128-.352.402-.367.64-.015.196.108.254.108.254s-.187.216-.195.576q.132-.149.288-.274a8 8 0 0 1 .713-.489.4.4 0 0 0 .02.151s.376-.308.692-.171c.143.064.079.265.079.265s.195-.073.332.064.33.49.43.627c.043.064.157.186.273.375q.24.4.396.836c.006-.151.044-.387.475-.239.431.152.92.47 1.331 1.095s.512 1.331.72 1.6c.209.26.425.69.44.87.014.182-.065.764.366 2.34.122-.49.309-1.576.309-1.576l.102-.958.116-2.965L23.36 9.25l-2.42-1.756-1.576.151z" clip-rule="evenodd"/><path fill="#B59544" fill-rule="evenodd" d="M25.215 12.282s-.044-.288-.772-.777c-.729-.484-1.297-.484-1.82-.894-.403-.324-.822-1.066-1.095-1.311-.265-.242-.309-.94-.309-.94l.894-.75 1.33-1.922 1.124-1.238.54.75.748.879.416 1.765.152 2.583-1.21 1.856z" clip-rule="evenodd"/><path fill="#C89D3A" fill-rule="evenodd" d="M26.115 15.38a3.3 3.3 0 0 0-.143-1.16c-.192-.597-.612-1.657-.807-2.054-.078-.44-.02-.475.065-.525.084-.05.402-.23.576-.865.174-.634.713-.655.713-.655l.332-.245.504 1.261.44 1.14.137.87.102.743-.24 1.57-1.179 1.066z" clip-rule="evenodd"/><path fill="#CEB052" fill-rule="evenodd" d="M9.655 32.878v-.032a.3.3 0 0 0 .064-.058c.02-.03.036-.064.05-.073a.55.55 0 0 1 .239-.044c.073.014.265.094.367.088.21-.006.454-.166.842-.093.582.107.719.504 1.057.728.23.157.469.087.504.087h.078c.015 0 .123-.122.181-.116.116.006.128.102.2.107.173.02.505-.087.67-.043a.322.322 0 0 1 .132.533c-.18.166-.352.323-.387.46q.066.05.127.109a17 17 0 0 1-4.124-1.651z" clip-rule="evenodd"/><path fill="#CCA847" fill-rule="evenodd" d="M25.165 27.058s.454-.605.612-.905c.157-.31-.498-4.227-.498-4.227l1.316-4.313-.035-1.404s.064-1.296.216-1.858c.18.323.743.713.865.92.058-.396.253-1.232.224-2.123.108.166.367 1.835.367 1.835l.26 1.124.337 1.194.376 1.261.224.871.128.21.108.367.102.396.294.93.173.762.137 1.384q.045.16.064.323c.006.152-.02.239-.02.265s.05.332.029.562c-.03.23-.03.411-.21.576-.18.166-.294 1.154-.294 1.154l-.323-.216s.064-.294-.088-.562a.57.57 0 0 0-.611-.28c-.166.036-.498.088-.606.181-.102.093-.353.382-.583.513-.288.173-.757.186-1.007.244-.254.058-.533.23-.828.431q-.346.225-.728.384z" clip-rule="evenodd"/><path fill="#C39D3C" fill-rule="evenodd" d="M25.165 33.422q.001.001.056.033a17.1 17.1 0 0 0 5.453-4.041 28 28 0 0 0-.062-1.418c-.05-.475-.014-.958-.03-1.238-.014-.28-.17-1.418-.244-1.712-.078-.294-.23-.44-.253-.44-.02.006-.143.553-.143.691s-.03.469-.03.553c-.02-.006-.028-.057-.028-.078-.03.073-.064.2-.079.215s.02-.122 0-.151c-.02-.03-.058-.015-.05-.087a1 1 0 0 1 .02-.128s-.086.128-.15.454c-.064.323-.064.332-.088.36-.02.036-.137.152-.143.196-.005.079.108.157.117.201.006.073-.102.41-.137.576s-.02.49-.057.655c-.03.152-.058.24-.158.303.073.015.143.035.143.035s.102.431-.157.798c-.093.128-.117.187-.216.303-.195.216-.347.46-.361.62a1 1 0 0 1-.02-.142s-.303.352-.431.553c-.166.26-.397.245-.461.309-.065.064-.08.18-.058.274-.057.014-.166.035-.239.259a.55.55 0 0 1-.259.309c-.137.078-.303.102-.387.122.072.02.101.02.136.043-.043.073-.244.187-.468.333a.98.98 0 0 0-.388.469c-.057.122-.142.2-.28.215.058.035.143.117.187.143-.064.014-.173.014-.367.18-.204.17-.274.219-.367.234z" clip-rule="evenodd"/><path fill="#D2BA6B" fill-rule="evenodd" d="M21.112 34.772q.169-.118.36-.19c.454-.181.935-.216 1.124-.274.18-.058.323-.137.548-.18l-.017.144q-.991.312-2.016.5z" clip-rule="evenodd"/><path fill="#C0993A" fill-rule="evenodd" d="M29.491 22.823s-.093.504-.259.822-.346.757-.346.757a1.4 1.4 0 0 1 .035-.294c-.21.122-.72.416-.864.547-.137.123-.367.338-.425.44.137-.402.28-.763.303-.929-.21.152-1.188.958-1.698 1.491l-1.587 1.285a6 6 0 0 1-.566.264c-.273.117-.596.216-.835.31.064-.173.166-.324.308-.47.152-.143.606-.635.676-.864.064-.239.079-.381-.006-.582-.078.02-.259.029-.381.064s-.254.166-.254.166.094-.533.295-1.037c-.152.006-.411.05-.411.05s.361-.607.979-1.029q-.285.06-.553.172c-.361.151-.758.375-1.052.498.166-.23 1.331-1.893 2.024-3.443.692-1.547.95-1.943 1.102-2.773.078-.41.057-1.017.078-1.56.02-.54.087-1.023.044-1.346.18.224.856.856.88 2.269.02 1.412-.647 3.32-1.355 4.348.173.05.62.108 1.08-.691.46-.8.455-1.022.621-1.355.02.166.014.225.014.225s.67-.813.988-1.835c.064.44.253.827-.044 1.634-.265.728-.611.906-.611.906s.172-.03.425-.181c.044.108.035.23.108.274.072.043.171.116.186.186.079-.116.2-.265.239-.375-.03.23-.05 1.237.057 1.75.225-.02.455-.035.612-.44-.107.396-.107.635-.035.973.12-.081.227-.227.227-.227z" clip-rule="evenodd"/><path fill="#A88F33" fill-rule="evenodd" d="M21.923 6.769s-.224.093-.605.093c-.332 0-.24-.128-.758-.128-.798 0-3.585.46-4.075.454-.317-.005 1.072.137 1.072.137l3.55.05.714-.058.265-.54z" clip-rule="evenodd"/><path fill="#E3C571" fill-rule="evenodd" d="M12.717 13.71s-.455.346-.647.611c-.192.266-.294.44-.513.656a.5.5 0 0 0 .152-.02s0 .057-.035.072a.2.2 0 0 1 .166.058c-.064.035-.24.21-.102.416.102.158.317.172.317.172s-.05.143.158.128c.445-.02.943-.215 1.173-.166.23.058.362.079.525.362.172.28.323.323.323.323s.102-.26.079-.647q.126-.316.136-.655l-.15-1.116-.662-.835-.856.474z" clip-rule="evenodd"/><path fill="#D8B65B" fill-rule="evenodd" d="M13.53 13.544s.063.151.331.166c-.029.064-.029.072-.02.122l.014.122a.3.3 0 0 0 .079-.057c.015.064-.015.165 0 .238a.5.5 0 0 0 .044.129l.014-.03c.006-.014.058.158.201.289q0-.03.015-.058a.2.2 0 0 0 .034.102.1.1 0 0 1-.029-.02s.015.46.094.699a.3.3 0 0 0 .035-.05c0-.014-.006.128-.02.23-.021.102-.006.245-.006.245a.8.8 0 0 1 .171-.102c.088-.035.23-.143.318-.382q.076-.203.116-.416a.6.6 0 0 1 .058.173c.006.072.143.035.143.035l.029-.318.173-.72.157-.445.757-1.18 1.368-1.053 1.195.274 1.007-1.37-1.736-1.042-1.642.172-1.491 2.065-1.194 1.873z" clip-rule="evenodd"/><path fill="#D3AE4D" fill-rule="evenodd" d="M22.133 10.555s-.102.02-.396.173-.498.201-.612.425-.122.402-.122.402.2-.087.317-.116c.123-.03.26-.02.245.029a.3.3 0 0 1-.058.093s.23-.006.225.108a.6.6 0 0 1-.087.294c-.044.058-.225.143-.245.21-.05.137.02.143-.006.253-.02.108-.116.318-.431.685-.323.367-.46.626-.46.626s-.158-.294-.24-.548c-.057.03-.367.201-.367.201l-.716-2.496.014-.166s.064-.078.079-.224c-.108-.035-.122-.064-.265-.2-.143-.138-.26-.304-.498-.418-.035-.064-.079-.15-.254-.186-.174-.035-.28-.064-.28-.064s.094-.035.138-.108c-.108.015-.195.05-.431.044-.24-.006-.265-.015-.396.006s-.288.078-.347-.123c-.064-.05-.2-.005-.317.166s-.158.309-.382.376a.8.8 0 0 1-.102.28c-.064.107-.166.215-.303.375-.216.254-.18.67-.524.988-.347.317.057-.88.057-.88l.554-1.325 1.576-1.54 2.446-.166.239 1.267 1.194.41.755 1.15" clip-rule="evenodd"/><path fill="#CAA13E" fill-rule="evenodd" d="m22.52 10.835-1.028-1.482-.72-.554s-.512-.944-.547-.973c-.029-.02-.512-.072-.821-.093l.058.143a.4.4 0 0 1 .172.116c.137.158.224.455-.087.772.122.044.173.058.28.044-.108.128-.353.402-.367.64-.015.196.107.254.107.254s-.186.216-.195.576q.133-.149.288-.274c.216-.173.513-.367.714-.49a.4.4 0 0 0 .02.152s.376-.309.691-.172c.143.065.079.266.079.266s.195-.073.332.064.332.489.431.626c.044.064.157.186.274.376q.238.399.396.835c.006-.116.03-.279.23-.279l-.305-.548z" clip-rule="evenodd"/><path fill="#F4EFC8" fill-rule="evenodd" d="M7.107 15.047s-.073-.181 0-.533.186-.519.224-1.037.376-1.165.376-1.165l.935-.425.661.18.195.886-.836.46s-.044.196-.28.353c-.235.157-.562.28-.64.44a1.3 1.3 0 0 0-.102.308s-.239-.05-.382.108c-.151.16-.145.303-.151.425" clip-rule="evenodd"/><path fill="#EBCC73" fill-rule="evenodd" d="M8.994 14.81s-.078.05-.137.173c-.057-.093-.195-.646-.2-1.144s-.036-.622.079-.793.567-.353.503-.662c-.064-.294-.332-.416-.661-.332-.23.058-.402.548-.641.792-.18.187-.396.158-.454.26-.08.136-.006.273-.03.36-.006.03-.078.187-.21.376-.264.382-.713.92-.771 1.404.02-.274.006-.28.078-.582l-.043-.073.288-.944.186-.777.417-1.303.734-1.33.713-.799.743.05.087 1.115.425 2.095.895 1.1-1.433.965z" clip-rule="evenodd"/><path fill="#E5C66B" fill-rule="evenodd" d="M9.44 15.206s-.122.03-.166.006c-.044-.023-.087-.05-.073-.078.014-.03.093-.079.093-.102a.08.08 0 0 0-.073-.088c-.067-.008-.087.035-.087.035s-.064-.05-.116-.057a1 1 0 0 1 .093-.006 1 1 0 0 0-.254-.073c.073-.044.216-.172.309-.172s.152-.014.137-.064-.087-.122-.166-.151c.029-.035.05-.088-.02-.23-.073-.143-.044-.24-.02-.274.02-.044.092-.123.127-.172.035-.05.065-.117.123-.152.029-.02.122-.057.215-.093.102-.035.187-.079.245-.035.064.044.035.102.035.102s.2-.073.381.02c.181.088.62.143.62.143l.159.318-1.043.894-.431.216-.088.014" clip-rule="evenodd"/><path fill="#E6BD62" fill-rule="evenodd" d="M10.887 13.745s-.323.215-.396.294c.044.006.117.035.087.079-.034.043-.244.195-.36.338a2.2 2.2 0 0 0-.28.41c-.044.079-.376.309-.49.338.24 0 .72-.294.9-.294-.005.087.05.186.152.195.102.008.396.064.792-.18.396-.24.265-.417.431-.534.318-.21.446-.396.62-.512.175-.117.266-.143.266-.143s.005-.088.057-.079a.08.08 0 0 1 .064.05s.303-.216.691-.274a.04.04 0 0 1-.02-.02s.03-.015.035-.03c0 0 .02-.029.035-.014s.035.122.064.166c.064-.03.187-.303.187-.303l.294-.842v-.769l-.23.044-1.728.734-1.05 1.087z" clip-rule="evenodd"/><path fill="#B6933F" fill-rule="evenodd" d="M15.862 9.973a1 1 0 0 0 .266-.108c-.035.093-.035.195-.187.417-.151.221-.157.253-.279.483-.122.239-.137.583-.254.734a.5.5 0 0 1 .166-.05s-.116.103-.165.21c-.05.108-.137.332-.353.47-.215.136-.49.223-.783.547-.295.317-.598.72-.75.864.08-.137.187-.41.216-.591.03-.18-.006-.397.044-.635.05-.239.05-.411.288-.828.239-.416.647-1.864.647-1.864l.88-.28.264.63" clip-rule="evenodd"/><path fill="#C49937" fill-rule="evenodd" d="M15.227 9.44s-.265.381-.338.72c-.072.337-.006.308-.05.474a.6.6 0 0 0 0 .309c.093-.148.218-.272.367-.361.251-.152.455-.26.576-.388.123-.137.225-.36.49-.533-.108-.014-.26-.064-.288-.057.107-.123.43-.31.757-.533.323-.23.303-.324.827-.554-.172.03-.253-.014-.396 0 .058-.122.26-.18.46-.381.202-.201-.127-.498-.127-.498l-1.536.929z" clip-rule="evenodd"/><path fill="#DFC068" fill-rule="evenodd" d="m11.06 8.747.034-.28.44-.705.46-1.238V4.832l-.035-.979.073-.64.055-.204.059-.079.375.195.519.705.05 1.36-.505 2.147-1.438 1.57z" clip-rule="evenodd"/><path fill="#A88F33" fill-rule="evenodd" d="M12.204 2.851s-.23.006-.28.965c-.049.958-.073 1.462-.108 1.937-.035.474-.116.763-.157 1.042-.04.28-.064.661-.195.894-.058.108-.18.446-.469.7-.323.279-.806.474-.88.489-.128.029-.777.093-1.042.239-.093.05-.254.107-.431.274-.353.317-.822.885-1.16 1.57-.518 1.022-1.036 3.908-1.036 3.908l.116-.195s.015-.26.274-.714c.253-.454.18-.964.533-1.835.137-.332.309-.763.518-1.13.333-.597.734-1.11 1.14-1.389.66-.454 1.389-.553 1.389-.553l.783-.519s.137-.265.318-.568c.253-.425.576-.9.646-1.59.108-1.022-.151-1.692-.137-2.298.015-.606.02-1.051.143-1.16.123-.107.035-.066.035-.066" clip-rule="evenodd"/><path fill="#C99E3D" fill-rule="evenodd" d="M12.204 7.424s.345-.85.504-1.605c.029-.151.087-.302.102-.425.072-.713.093-1.008 0-1.398-.073-.288-.353-.547-.498-.749-.143-.21-.21-.288-.18-.332a.32.32 0 0 1 .252-.108.87.87 0 0 1 .62.288c.225.26.403 1.14.403 1.14l.187 1.16.474 1.462-1.864.568" clip-rule="evenodd"/><path fill="#B58634" fill-rule="evenodd" d="M15.451 6.539s-.064.029-.18 0a.26.26 0 0 1-.117.245c-.122-.05-1.267.05-1.267.05s-.533-.094-.699-.8c-.116-.468.087-1.115.02-1.54-.101-.626-.244-.749-.259-.944-.014-.194-.029-.244-.029-.366-.064-.015-.102-.035-.166-.035-.014-.058.015-.108-.05-.21.036.014.274.044.554.308.23.216.23.295.265.338.044.044.396.346.548.647.151.301.445 1.261.512 1.418.02.064.065.129.173.274.17.21.417.557.696.615" clip-rule="evenodd"/><path fill="#A88F33" fill-rule="evenodd" d="M13.564 3.6q.265.427.475.886c.172.387.274.704.49.964-.117-.338-.324-1.002-.446-1.238-.137-.25-.417-.519-.519-.612" clip-rule="evenodd"/><path fill="#E6C367" fill-rule="evenodd" d="M11.584 8.388s-.295.073-.842.362a9 9 0 0 1-.519.244 9 9 0 0 1-1.26.475q.043.051.043.05s0 .142.078.224c-.043.043-.626.44-.454 1.765.117-.044.253-.102.274-.102.035.006.044.102.087.102.044 0 .187-.058.338-.254-.006.079-.093.871.376 1.404.087-.102.309-.44.309-.44l.005-.107s.02-.376.143-.72.361-.597.361-.597l1.247-1.78z" clip-rule="evenodd"/><path fill="#DCBA5A" fill-rule="evenodd" d="M10.419 11.002a.7.7 0 0 1-.187.093.72.72 0 0 1 .122-.568c.201-.295.641-.676.763-.98.08-.195.044-.684.743-1.31.7-.626.973-.842.973-.842l1.13-.568 1.39.548-.69 2.705-.537 1.267-2.131-.402z" clip-rule="evenodd"/><path fill="#E9CE77" fill-rule="evenodd" d="m11.232 10.267.265-.332v-.236s.294-.079.612-.402c.317-.323.757-.944 1.144-.906.388.044.426.842.44 1.066s.064.734.143 1.008c.087.274-.944 1.31-.944 1.31l-.7.534z" clip-rule="evenodd"/><path fill="#CDAE50" fill-rule="evenodd" d="M12.052 13.031s.216-.338.058-.41c.093-.21.265-.432.265-.432s.122-.303.518-.675.641-.62.705-.871q.06-.245.064-.498a1 1 0 0 0 .137.093c.065.029.367.28.324.783-.044.504-.23.714-.23.714s-.181.18-.31.274c-.136.093-.186.2-.416.21a.3.3 0 0 1 .079-.044s-.239-.03-.367.087-.401.475-.538.583c-.137.087-.288.186-.288.186" clip-rule="evenodd"/><path fill="#D2A83E" fill-rule="evenodd" d="M21.737 7.366a3.5 3.5 0 0 0-1.072-.21c-.612-.02-1.506.015-2.382.02-.944.006-1.8-.323-2.989-.38-.195-.117-.69-.627-2.24.453.094-.005 1.125-.238 1.483.21.361.446.26 1.203.21 1.384-.094.402-.397.987-.519 1.398s-.093.626-.18.914c-.088.288-.28.431-.166.763.151-.093.23-.093.483-.66.253-.569.201-.974.62-1.454.411-.484 1.095-1.145 1.355-1.311s2.324-1.238 4.486-.215c.52-.056.911-.912.911-.912" clip-rule="evenodd"/><path fill="#C29637" fill-rule="evenodd" d="M13.925 6.97a.3.3 0 0 0-.014-.065.5.5 0 0 0-.079-.116s-.513-.093-.772-.064c-.454.05-.865.612-1.057.9s-.431.734-.69.964a.1.1 0 0 0-.015-.064s.015.02-.014.05c-.03.029-.03.043-.015.057l.044.044c.014 0 .416-.181.964-.692.582-.533 1.028-.806 1.261-.9q.187-.08.387-.114" clip-rule="evenodd"/><path fill="#AC8132" fill-rule="evenodd" d="M23.87 4.78s-.094.116-.21.244c-.26.274-.598.583-.886.9-.274.303-.583.54-.93.935-.346.396-.748.836-.85.964a.95.95 0 0 0-.166.446l-.107-.073a.7.7 0 0 0 .087.128c.073.102.186.23.244.31q.108.15.152.331c.035.006.259.05.539-.41s.646-.965.646-.965l.583-.865.367-.734.46-.821z" clip-rule="evenodd"/><path fill="#A88F33" fill-rule="evenodd" d="M24.466 4.191s-.352.288-.49.461c-.136.173-.46.626-.46.626l.117-.014.59-.524.231-.411.012-.137" clip-rule="evenodd"/><path fill="#A67A2E" fill-rule="evenodd" d="M24.358 27.338s-.006-.239.128-.382c.137-.142.484-.352.822-1.139.338-.786.375-.964.375-.964s-.605.519-.979.641c.088-.18.137-.309.18-.402-.049-.043-.258-.093-.279-.116.117-.117.18-.402.417-.592.303-.23.856-.626 1.286-.979s1.276-1.174 1.384-1.412a.5.5 0 0 1 .078.15s-.425.555-.646.907c-.195.303-.18.475-.18.475l.401-.173s.117.43-.41 1.086c.23-.087.323-.035.454-.108-.216.138-.513.324-.792.836-.274.513-.647 1.11-1.276 1.483-.612.393-.964.687-.964.687z" clip-rule="evenodd"/><path fill="#8C6228" fill-rule="evenodd" d="M22.78 7.67s-.24.497-.274.884c-.006.094-.03.166-.03.274-.005.347.021.734-.057.915-.03-.073-.044-.123-.073-.152-.044.123-.122.504-.186.647a3 3 0 0 1-.087-.798c.005-.382.014-.455.014-.533-.014.116-.093.274-.122.367-.044-.079-.093-.18-.152-.265-.035.057-.078.142-.116.186a3 3 0 0 1-.03-.259c-.005-.151-.014-.346-.005-.387.014-.079.137-.388.396-.67.309-.338.626-.988.72-1.189.093-.2.489-1.036.489-1.036h.303l-.44 1.001s-.265.548-.402.75c-.137.2-.426.777-.554 1.001.093-.122.172-.186.265-.303.09-.081.341-.434.341-.434" clip-rule="evenodd"/><path fill="#CBA94C" fill-rule="evenodd" d="M24.472 4.153q-.076.231-.23.417c-.181.216-.569.504-.758.734-.173.224-.518.836-.361 1.561.057-.157.166-.469.454-.821.289-.353.597-.758.75-1.072.15-.318.17-.568.17-.568l.058-.073-.035-.166-.05-.012z" clip-rule="evenodd"/><path fill="#A88F33" fill-rule="evenodd" d="M30.37 23.473s-.117-.318-.152-.606.058-.346-.049-.676c-.064-.2-.18-.172-.21-.2s-.05-.333-.043-.499a1.9 1.9 0 0 0-.035-.475c-.044-.034-.073-.064-.137-.28-.073-.215-.108-.322-.143-.386s-.137-.123-.137-.187c0-.128.117-.195.117-.23-.006-.073-.094-.015-.117-.035-.029-.035.073-.245.035-.274-.014-.014-.116.108-.143.073-.029-.035-.064-.382-.116-.612-.05-.224-.102-.387-.108-.454-.006-.064-.402-1.194-.498-1.468a7 7 0 0 1-.195-.705c-.03-.137-.05-.416-.064-.387-.015.029-.006.172-.03.166-.02-.006-.093-.504-.116-.583-.02-.078-.143-.345-.173-.538-.029-.196-.093-.706-.137-1.052-.043-.347-.064-.49-.064-.576a3.6 3.6 0 0 0-.035-.635 6 6 0 0 0-.273-1.072c-.195-.49-.714-1.742-.807-2.053 0-.079.102-.035.102-.035s.253.635.44 1.124c.18.49.352.92.396.964.035.044.309.524.431 1.31.122.787.166 1.512.239 1.996.035.23.064.475.137.72.079.265.2.538.361.958.137.352.239.646.294.9.064.323.064.568.102.728.035.137.087.41.21.806.122.396.303.906.425 1.224a6.8 6.8 0 0 1 .382 1.447c.032.292.14 1.3.11 1.602z" clip-rule="evenodd"/><path fill="#BE9C44" fill-rule="evenodd" d="m24.487 4.118-.015.035s.043.015.035.073q0 .12-.015.24c-.014.101-.043.18-.05.244 0 .137.021.294-.172.684-.058.108-.093.201-.122.265-.073.157-.087.18-.152.254.102-.058.47-.288.656-.254a1.4 1.4 0 0 0-.446.402c.03.006.152.03.346 0 .323-.05.684-.166 1.002-.143.346.02.21-.416.21-.416l-.4-.88-.758-.532z" clip-rule="evenodd"/><path fill="#A17C34" fill-rule="evenodd" d="M26.461 10.707s-.338-.338-.475-1.498c-.137-1.165-.107-2.88-.107-2.88l-.274-.67s-.058-.445-.201-.611-.425-.446-.553-.583-.274-.323-.362-.352c.044-.073.24-.484.988-.49.748-.005.979.411 1.057.563s.431.806.562 2.054c.122 1.247.128 1.34.108 1.771-.015.239-.093.792-.23 1.383-.126.501-.263 1.06-.513 1.314z" clip-rule="evenodd"/><path fill="#8C6228" fill-rule="evenodd" d="M25.402 11.7a.57.57 0 0 0 .323-.073c.108-.006.498.044.798-.338.02.088.073.324-.064.533.073-.073.18-.102.195-.122.006.108.108.44-.323 1.247.116-.128.253-.123.375-.137.006.151.088.66-.128.935-.142.186-.376.128-.376.128a1 1 0 0 0 0-.122c-.005-.08-.035-.158-.014-.21a1 1 0 0 1-.303-.21c-.253-.239-.583-.646-.606-.95-.029-.337.274-.41.274-.41a.3.3 0 0 1-.064-.079c-.015-.05-.03-.128-.087-.192" clip-rule="evenodd"/><path fill="#92723A" fill-rule="evenodd" d="M23.155 8.036s-.014-.02-.093.073c.015-.093.03-.18.035-.265a1 1 0 0 1 .143-.216c-.044.087-.073.166-.073.166s.108-.201.265-.323c.108-.088.245-.128.303-.21.064-.087.05-.102.064-.116 0 0 .143-.094.361-.368.03-.035.073-.072.102-.107.05-.02.166-.073.303-.143.143-.079.303-.186.402-.23.195-.088.402-.08.498-.216.073-.02.151-.239.137-.425.108.043.661.387.85 1.138.137.533-.107 1.355-.21 1.751-.101.396-.116.69-.259.87-.18.24-.762.577-.905.744-.123.137-.49.483-.475.733.014.187.244.289.294.324s.05.079.143.058c.093-.022.128-.065.166-.065.044.006.044.015.064.015a.2.2 0 0 0 .044-.006s-.015.265-.635.346c-.044.005-.088.02-.143.029.073-.035.116-.035.195-.143-.087-.014-.338-.03-.402-.05a.8.8 0 0 1 .143-.171c.05-.044-.006-.058-.05-.035a2 2 0 0 0-.215.166c-.073.064-.137.151-.254.23a.57.57 0 0 1 .108-.498c-.035.006-.102.108-.166.087a.9.9 0 0 1 .02-.317c.036-.131.225-.361.225-.361l.914-1.634.195-1.238z" clip-rule="evenodd"/><path fill="#B18E3E" fill-rule="evenodd" d="M23.106 8.106s-.05.035.05.102c-.015.02-.05.093-.094.142-.05.058-.102.094-.122.143-.044.102-.079.172-.079.216s-.014.323-.137.504c-.043.064-.093.172-.128.244-.073.128-.137.23-.151.288-.03.102-.05.382-.05.382l.088-.108c-.035.073-.073.151-.129.21.035-.03.137-.102.31-.254.238-.2.61-.538 1.065-.806-.137.05-.253.05-.346.064.073-.073.728-.842 1.072-.914a.14.14 0 0 0 .029-.094l-.295-.029-.597.128-.087-.46z" clip-rule="evenodd"/><path fill="#543E26" fill-rule="evenodd" d="M24.056 10.727s-.08.079-.152.274a1 1 0 0 1-.143-.195c-.108-.18-.273-.41-.66-.28-.007-.122-.015-.186 0-.274.063-.014.258-.171.453-.401.137-.158.266-.338.353-.568.058-.044.157-.117.288-.201.186-.128.41-.303.445-.498-.087.034-.273.122-.553.107.108-.05.274-.101.253-.317.044-.03.08-.05.08-.05a.3.3 0 0 0-.103-.014c-.006-.02-.014-.05-.064-.035s-.058.014-.064.035c-.02.006-.087 0-.137.035s-.186.151-.239.172l.05-.088s-.143.015-.245.058c-.186.064-.402.18-.62.294.02-.035.029-.057.043-.064s.05-.014.05-.02-.015-.058-.006-.079a2.7 2.7 0 0 1 .23-.396c.102-.137.123-.332.123-.332l.445-.224 1.253-.288.812.05-.102.561-.48.982-.41.894-.47.548z" clip-rule="evenodd"/><path fill="#806031" fill-rule="evenodd" d="M26.086 8.294s-.49.606-.627.7c.088-.187.627-1.297.822-1.605-.044-.035-.102-.035.035-.576-.117.273-.158.416-.254.489s-.108.05-.173.05a.12.12 0 0 0 .015-.073s-.41-.05-.691-.05-.836.151-1.145.274c-.245.102-.382.102-.469.166-.087.072-.137.151-.18.172-.035.02-.201.072-.24.128-.034.057-.093.122-.093.136s-.014.036.03.02c.014-.005.122-.063.244-.136.166-.093.367-.2.513-.265.416-.166.547-.137.734-.172.195-.035.474-.116.66-.116.187-.006.54 0 .621.014-.035.03-.064.064-.05.187 0 .035-.028.072-.057.157-.087.239-.253.635-.345.836-.128.273-.274.504-.346.646s-.23.519-.387.72-.24.323-.288.367c-.05.044-.402.303-.376.396.064-.02.469-.173.763-.504.294-.33.352-.533.582-.714s.411-.483.519-.733c.09-.233.07-.306.183-.513" clip-rule="evenodd"/><path fill="#B6903C" fill-rule="evenodd" d="M15.539 12.816s-.064.265-.21.396c-.143.128-.396.239-.425.454-.035.216.253.323.253.323s-.157.26-.157.455c0 .2-.006.239.015.43a.2.2 0 0 0-.058.058s.014.187.157.303c.143.117.265.187.338.157q.016.036.03.073s.107-.273.18-.512c.073-.245.137-.21.166-.54.029-.328.345-.893.345-.893l.216-.483-.352-.274z" clip-rule="evenodd"/><path fill="#685026" fill-rule="evenodd" d="M16.194 13.29q-.109.112-.2.24c-.094.127-.166.244-.303.293-.137.05-.224.05-.216.187s.137.195.21.265a.34.34 0 0 1 .108.332c.043-.02.122-.044.195-.201s.582-1.116.582-1.116z" clip-rule="evenodd"/><path fill="#D4B968" fill-rule="evenodd" d="M18.202 11.08s.043-.117 0-.201c-.044-.088-.31-.117-.44-.216-.137-.102-.303-.173-.44-.128.02-.05.102-.157.035-.18-.064-.021-.303.087-.367.136s-.21.108-.239.143-.079.102-.108.073c-.03-.02-.044-.073-.093-.044-.05.03-.288.224-.332.338a1.7 1.7 0 0 1-.44.655c-.297.288-.425.475-.338.583.088.108.129.029.143.122a.8.8 0 0 1-.014.274c-.036.151-.094.294-.015.323.2.064.396-.057.44-.02.087.078-.05.361.157.416.21.058.417-.05.417-.05l.763-.41.734-.387.375-.743-.201-.62-.039-.065z" clip-rule="evenodd"/><path fill="#CCA849" fill-rule="evenodd" d="M17.482 12.853s-.129-.195.029-.367c.157-.172.381-.244.469-.352a.13.13 0 0 0-.064-.044.6.6 0 0 1 .253-.239.24.24 0 0 0-.166-.078c-.143 0-.23.087-.361.087-.128 0-.143-.064-.143-.064s.216-.02.195-.116c-.02-.102-.057-.102-.057-.102s.416-.173.489-.265c.072-.093.064-.201.078-.245.05 0 .338-.152.455-.087.116.064.035.239.035.239s.352-.266.532-.526c.157.015.23-.107.346-.107.143 0 .367.195.41.611.03.24.073.376.03.798-.02.24-.015.75.057 1.002.05.201.166.18.166.18a.33.33 0 0 1-.102.158c-.079.073-.087.265-.079.338q.018.08.044.157s-.093.108-.116.181c-.02.073-.117.122-.187.122s-.035-.006-.128 0-.122.02-.18 0c-.059-.02-.102-.043-.08-.23s-.718-.62-.718-.62l-1.21-.432z" clip-rule="evenodd"/><path fill="#585136" fill-rule="evenodd" d="M16.092 14.694s.265.353 1.355.353c.518 0 .699-.05.806-.08.117-.028.553-.2.993-.719.396-.468.309-.66.309-.66l-.23-.035-.75.101-2.215.944z" clip-rule="evenodd"/><path fill="#252211" fill-rule="evenodd" d="M16.905 14.782s-.944.21-.944-.388c0-.582.583-1.194.728-1.302.152-.108.513-.23.513-.23h.87l.167.44-.073.95z" clip-rule="evenodd"/><path fill="#C3B378" fill-rule="evenodd" d="M17.776 13.04s-.18-.166-.591.058c-.411.223-.743.69-.764 1.115-.02.376.31.656.822.67.381.015.612-.03.728-.057l-.18-.225z" clip-rule="evenodd"/><path fill="#E6D89C" fill-rule="evenodd" d="M17.598 13.133s-.043-.035-.173.035c-.107.057-.265.21-.387.317-.079.064-.128.093-.173.143-.18.216-.332.568-.244.743.087.175.375.376 1.11.239l-.135-1.477z" clip-rule="evenodd"/><path fill="#252211" fill-rule="evenodd" d="M17.36 13.494s-.117.18-.117.47c0 .293.166.762.777.797.47.03.784-.675 1.125-.95.259-.209.416-.215.416-.215s-.265-.288-.973-.661c-.699-.376-1.482-.425-1.908.151.202-.014.851-.18.851-.18l.318.102z" clip-rule="evenodd"/><path fill="#6F674D" fill-rule="evenodd" d="M18.274 13.876c-.02-.044-.035-.102.05-.117.084-.014.122-.006.15.058.03.063.058.116.015.143-.043.023-.157 0-.215-.085m-.137-.411s-.03.02-.015-.02c.006-.05.044-.137.137-.117s.073.123.058.152c-.016.029-.093.078-.152.057a.05.05 0 0 1-.036-.051q0-.012.007-.021" clip-rule="evenodd"/><path fill="#AC924C" fill-rule="evenodd" d="M10.253 13.651s.23.173.498.166c.265-.006.606-.28.763-.454.093-.102.173-.21.26-.294.072-.073.121-.108.156-.158.05-.057.102-.165.129-.2-.065.049-.158.136-.254.195a3 3 0 0 1-.376.195c-.078.029-.894.46-.894.46z" clip-rule="evenodd"/><path fill="#9F8E57" fill-rule="evenodd" d="M10.605 11.5s.128-.088.376-.144c.239-.057.72-.102.72-.102l.395.173.157.597-.288.62-.367.231-.416-.67z" clip-rule="evenodd"/><path fill="#EAC970" fill-rule="evenodd" d="m10.087 12.032-.138.102s.036-.064.065-.259.18-.67.402-.944c.221-.273.215-.259.215-.259a.15.15 0 0 0-.116.03c.029-.065.215-.296.402-.41.186-.116.259-.152.454-.058s.245.142.387.136.265-.157.265-.157.03.093-.078.309-.533.655-.533.655l-.886.606z" clip-rule="evenodd"/><path fill="#D7BC6B" fill-rule="evenodd" d="M10.742 11.426s.64.088.836-.093c.005.02.029.02.029.035a.05.05 0 0 1-.015.03 1 1 0 0 1 .064-.007.4.4 0 0 0 .079.015 1 1 0 0 0 .064-.006.1.1 0 0 1-.044.073c.03 0 .058.006.058.029s.006.093-.03.108a.13.13 0 0 1-.087-.006.4.4 0 0 0 .044.157c.058.108.18.23.346.195 0 0 .087.21-.28.676-.05.064-.102.152-.166.224a1 1 0 0 0-.057.172s.62-.239.798-.783c.18-.548.215-1.087.18-1.59a.8.8 0 0 0-.064-.318c-.087-.18-.332-.152-.43-.05-.144.143-.383.498-.714.743-.338.245-.353.288-.612.396" clip-rule="evenodd"/><path fill="#585136" fill-rule="evenodd" d="M9.973 12.213s-.122.073-.187.345c-.064.28.058.62.129.728.07.108.23.402.562.417a.6.6 0 0 0 .239-.05q.174-.08.323-.2c.143-.108.26-.201.245-.21-.036-.015-.88-.714-.88-.714l-.318-.354z" clip-rule="evenodd"/><path fill="#453A25" fill-rule="evenodd" d="M10.771 13.372s.172-.015.274-.079-.597-.757-.597-.757l.05.749z" clip-rule="evenodd"/><path fill="#84754B" fill-rule="evenodd" d="M10.028 12.16s-.087.166-.087.21c-.015.143.029.591.064.734.035.151.224.381.469.381.151 0 .361-.093.361-.116 0-.03-.216-.058-.274-.166-.035-.058-.05-.201-.057-.346-.006-.093-.006-.195.029-.23.079-.088.093-.338.093-.338l.28-.52h-.368l-.44.274z" clip-rule="evenodd"/><path fill="#252211" fill-rule="evenodd" d="M9.92 12.32s.288-.381.548-.469.376-.035.376-.035l-.152.388-.215.239.014.122s-.035.323.18.548c.216.224.377.215.47.215s.36-.079.498-.402c.122-.303.224-.691-.02-1.08-.24-.388-.662-.403-.743-.403-.082 0-.723.032-.956.877" clip-rule="evenodd"/><path fill="#F7F7E7" fill-rule="evenodd" d="M17.316 13.617c-.108-.05-.006-.353.101-.446a.76.76 0 0 1 .484-.216c.087-.006.172.05.157.108-.02.108-.171.26-.308.367-.19.149-.312.242-.434.187" clip-rule="evenodd"/><path fill="#F8F6DE" fill-rule="evenodd" d="M11.49 11.965c.079-.006.18.058.201.143.02.093-.05.28-.2.28-.123 0-.187-.152-.187-.196a.2.2 0 0 1 .029-.102c.006-.008.02-.11.157-.125" clip-rule="evenodd"/><path fill="#D4C38B" fill-rule="evenodd" d="M10.354 12.032s-.2.093-.294.288a.77.77 0 0 0-.057.46c.014.074.087.254.136.318s.117.108.167.102.15-.137.15-.215c0-.079.007-.41.103-.592.084-.18-.204-.36-.204-.36" clip-rule="evenodd"/><path fill="#E2D59D" fill-rule="evenodd" d="M10.384 12.018c-.035.02-.094.049-.08.087.015.035.138.057.181.143.05.087.05.18.035.224a.4.4 0 0 0 .102-.073c.065-.073.143-.172.21-.172.044 0 .087.02.128.02.064 0 .128-.02.137-.087.015-.087-.122-.166-.2-.151.014-.058.034-.143-.03-.201s-.265.044-.309.073-.175.137-.175.137" clip-rule="evenodd"/><path fill="#CBAC5A" fill-rule="evenodd" d="m15.012 18.137.43-.127.123.087s.087.186.224.21c-.043.093-.157.172-.151.239a.2.2 0 0 0 .064.116s-.387.64.376 1.286c-.181.073-.411.173-.533.23.087.021.273.058.352.13.079.07.079.092.152.136.072.044.116.102.102.128-.05-.03-.216-.116-.245-.035-.03.082-.72.05-.72.05l-1.165.224s.044-.117-.078-.224c-.143-.128-.318.005-.504-.137-.245-.187-.254-.402-.332-.484.078-.05.239-.122.62-.172-.014-.03-.064-.117-.035-.196.035-.102.18-.166.137-.288.064-.014.093-.014.254-.215.151-.201.244-.245.36-.26.117-.014.187 0 .403-.2.151-.143.102-.265.102-.265s.099-.033.064-.233" clip-rule="evenodd"/><path fill="#D6BC6F" fill-rule="evenodd" d="M13.739 18.202c.006-.03.03-.044.186-.03.158.015 1.154-.093 1.425-.107.273-.02 1.237-.006 1.707.093.469.099.943.215 1.173.274.23.064.303.087.294.116-.005.03-.057.058-.087.05-.029-.006-.792-.24-1.028-.288-.236-.05-1.051-.181-1.498-.173-.416.006-.582-.006-.934.035-.353.043-.936.102-1.11.078-.173-.02-.137-.02-.128-.05z" clip-rule="evenodd"/><path fill="#DFC677" fill-rule="evenodd" d="M16.083 20.485s.598.323.813.719c.157.294-.093.44-.093.44s.338 0 .294.186c-.02.117-.582.431-.958.597-.382.166-.367.158-.553.187-.181.029-.676-.058-.778.087s-.058.294-.03.317c.03.02.266.05.266.05s-.05.137-.539.151c-.49.015-.612.05-.64.102-.03.05.092.02.317.058.224.035.538.058.538.058s-.102.087-.367.157c-.303.078-.777.151-.92.239.073.05.18.122.23.128-.122.029-.294.093-.323.116.044.03.102.064.102.064s-.245.295-.387.368-.964.454-1.247.381c-.705-.186-.792-.958-.964-1.016-.26-.088-.382.087-.612-.035.102-.073.158-.117.265-.166-.116-.058-.719-.44-.719-.44a5 5 0 0 0-.21-.402c-.116-.201-.288-.47-.416-.705-.28-.518-.294-.757-.548-1.052.044-.057.195-.049.195-.049l2.124.699 3.765.11.98-1.399z" clip-rule="evenodd"/><path fill="#C4A859" fill-rule="evenodd" d="M10.506 22.616a.3.3 0 0 0 .078.065c.073.05.181.107.254.195.029-.044.102-.123.23 0 .129.122.288.035.388.064.101.035.107.05.107.05s.058-.05.187-.103c.078-.029.172-.05.273-.078.094-.02.196-.05.266-.05.064.044.294.288 1.217-.073.871-.337 1.072-.375 1.217-.323.015-.035.03-.102.254-.093 0-.093-.187-.41-.187-.41l-1.028-.353H13.2l-1.686.309-.935.533-.073.269z" clip-rule="evenodd"/><path fill="#927D49" fill-rule="evenodd" d="M9.944 22.025s.02.158.253.324c.23.166.303.265.303.265s.044-.058.079-.117c.035-.064.064-.137.122-.157.117-.05.381.044.44.029.05-.014.035-.116.087-.116.122-.006.201.078.245.078s.151-.006.166-.029c.014-.023.02-.265.186-.382a.5.5 0 0 1 .46-.043c0 .043.007.151.123.157.117.006.128-.014.23.02.103.035.225-.005.28.166.05-.014.166-.029.137-.195.058-.043.108-.072.23-.244.03-.044.079-.093.117-.158.102 0 .224-.02.387.123-.05.035-.079.057-.093.093q.064.063.117.137c.043.057.072.128.128.143.122.035.323-.015.547 0 .216.014.396.093.475.142.03-.014.03-.02.102-.005.073.014.128.02.05-.073.043.02.093.064.136.02s.079-.108.201-.122c.123-.015.166.006.216-.122.064-.158-.157-.158-.157-.158s.102-.093.215-.215c.137-.128.294-.294.332-.498.064-.376-.303-.425-.303-.425l-1.78.547-2.175-.108z" clip-rule="evenodd"/><path fill="#6E6342" fill-rule="evenodd" d="M8.345 16.885s-.058.072-.093.244c-.036.172-.02.152-.05.274s-.388 1.34-.253 1.75c.134.411.367.563.512.895.03.072.058.116.073.18.05.216.006.382.064.597.02.073.073.158.152.245.173.18.454.352.576.474.171.181.416.548.728.583.166.02.402-.05.597-.166.173-.108.28-.259.46-.345.129-.065.266-.088.388-.117.253-.05.484-.058.62-.03.21.045.705.196.98.196q.322-.005.635-.087c.416-.123.92-.332 1.252-.426.195-.057.352-.072.513-.107.274-.064.504-.152.635-.318-.088-.102-.195-.259-.778-.253-.661.014-1.424.381-1.8.44s-.539.107-.958-.044c-.412-.153-.425-.254-.425-.254s-.432-.302-.613-1.072c-.18-.77 0-1.331.47-1.864.122-.137.093-.26.093-.26s.308-.416.224-.806c-.093-.387-.69-.309-.69-.309z" clip-rule="evenodd"/><path fill="#39331F" fill-rule="evenodd" d="M8.843 18.18a.3.3 0 0 0-.035.158c.006.078.029.18.265.41.2.201.157.426.157.426s.101.02.376-.108c.215-.102.288.078.288.078a.6.6 0 0 1 .2-.064.44.44 0 0 0 .181-.057s.254.259.475.381c.201.108.318.18.417.108.093-.064.093-.195.087-.253a.8.8 0 0 0-.087-.152c-.064-.093-.166-.201-.173-.288-.015-.2.151-.44.116-.498s-.166-.073-.489.044c-.335.11-1.78-.184-1.78-.184z" clip-rule="evenodd"/><path fill="#292311" fill-rule="evenodd" d="M9.606 19.483s-.166-.158-.108-.92q.105-.003.21.02s.09.59-.102.9" clip-rule="evenodd"/><path fill="#252211" fill-rule="evenodd" d="M8.423 16.302a.5.5 0 0 0 .065-.058c-.058.108-.324.54-.108 1.218.215.675.757 1.18 1.424 1.203s1.018-.303 1.418-.793c.158-.195.338-.44.498-.605.24-.26.426-.332.426-.583 0-.512-.525-.743-1.296-.973-.772-.23-1.469-.201-1.83-.044-.352.172-.503.353-.597.635" clip-rule="evenodd"/><path fill="#3F3824" fill-rule="evenodd" d="m10.902 19.713.058-.03s.014-.23.107-.224c.093.015.137.137.128.18-.005.044-.029.117-.122.109-.122.002-.172-.035-.172-.035" clip-rule="evenodd"/><path fill="#2D2815" fill-rule="evenodd" d="M10.643 18.734s.057-.02.128.05c.057 0 .309-.03.387.02s.102.093.102.093-.294.064-.454 0c-.163-.055-.163-.163-.163-.163" clip-rule="evenodd"/><path fill="#82764F" fill-rule="evenodd" d="M11.939 18.778c0-.015-.157-.123-.323-.158-.03-.006-.036.015-.058.015-.015-.006-.02-.05-.02-.05l-.095.05s-.014.02.035.057c.044.035.117.065.137.123s.02.078.03.087a.3.3 0 0 0 .156-.029c.05-.03.143-.077.137-.096" clip-rule="evenodd"/><path fill="#2D2816" fill-rule="evenodd" d="M10.468 19.369s.029-.2.224-.21c.201-.014.24.18.24.18l-.117.117c0-.003-.088-.125-.346-.087z" clip-rule="evenodd"/><path fill="#574F35" fill-rule="evenodd" d="M11.735 18.504s-.108.116-.347.151c-.02-.029-.064-.087 0-.18q.099-.139.21-.094a.17.17 0 0 1 .137.123" clip-rule="evenodd"/><path fill="#82764F" fill-rule="evenodd" d="M12.175 18.647c.006-.03-.015-.035 0-.05s.093-.044.108-.03c.005.007 0 .03 0 .058s0 .058-.015.08c-.02.028-.079.043-.108.034s-.035-.05-.035-.057c.015-.006.05-.02.05-.035m.497-.315c0-.014.05-.044.079-.044.043 0 .043.035.05.044.014.006.014-.006.028.02s.035.073.02.102c-.014.03-.072.05-.087.044a.8.8 0 0 1-.09-.166" clip-rule="evenodd"/><path fill="#6E6342" fill-rule="evenodd" d="M11.67 18.714s.065.014.152.087c-.029.02-.073.044-.073.044s-.005-.067-.078-.131" clip-rule="evenodd"/><path fill="#585136" fill-rule="evenodd" d="M11.528 18.073c-.014-.015.044-.05.079-.044s.05.03.087.035c.038.006.044-.015.058-.03s.064-.005.072 0l.015.021a.08.08 0 0 1 .03-.057.1.1 0 0 1 .078-.015c.006.02.035.093.029.108s-.093.035-.108.02c.015.035.079.108.087.122.01.015-.064.05-.093.044a1.2 1.2 0 0 1-.335-.204zm.382-.484a.07.07 0 0 0-.03-.035c-.02-.005-.087 0-.087.035s.058.23.123.333c.072.101.122.186.171.21a.07.07 0 0 0 .088-.03c.005-.015.02-.122.014-.376-.005-.253-.014-.498-.029-.512-.014-.015-.073-.015-.093.014-.02.03-.152.318-.157.361" clip-rule="evenodd"/><path fill="#574F35" fill-rule="evenodd" d="M11.65 19.08s-.101-.064-.2-.02c-.094.044-.088.216-.088.216a.14.14 0 0 0 .128-.015c.065-.043.146-.116.16-.18" clip-rule="evenodd"/><path fill="#82764F" fill-rule="evenodd" d="M11.843 19.31c-.006-.057-.058-.057-.058-.087a.065.065 0 0 1 .064-.05c.03 0 .058.036.093.059.035.02.088.057.094.101.005.045-.058.166-.128.166s-.05-.13-.065-.189m.562-.078s-.117.035-.108 0 .035-.043.073-.043a.12.12 0 0 1 .073-.036q.025 0 .043.015s.08-.035.102-.015c.024.02.006.02.02.044q.029.04.036.088c0 .023-.088.072-.158.064-.081-.018-.067-.102-.081-.117m.679-.131s.034.02.005.044a.5.5 0 0 1-.21.064c-.087 0-.165.014-.165-.015s.072-.087.116-.102a.1.1 0 0 1 .073-.035c.035 0 .172-.014.21-.02.035-.006.064.014.043.044-.008.02-.072.02-.072.02m.2-.9s-.043.094-.093.094c-.05-.006-.05-.02-.05-.035 0-.02.05-.073.044-.088-.014 0-.05 0-.043-.035 0-.029.05-.064.093-.057a.2.2 0 0 1 .117-.044c.049 0 .093.015.093.044 0 .03-.058.093-.08.108-.022.023-.052.038-.08.014m-.664 1.722s-.057.006-.057.035q.002.02.035.006a.2.2 0 0 0 .035-.006c.005.006.005.035.05.035a.3.3 0 0 0 .101-.035c.035-.015.064-.03.064-.058q-.021-.074-.087-.073a.1.1 0 0 0-.064.015s-.015-.03-.064 0c-.05.029-.044.029-.03.044.027.023.018.038.018.038zm-.329.303c0-.015.073-.044.093-.035.02.006.079.116.079.128 0 .015-.073.05-.102.05-.03 0-.079-.05-.079-.058 0-.006.035-.014.035-.02.009-.015-.026-.05-.026-.065m-.23-.425c.014-.006.014-.02.035-.035a.05.05 0 0 1 .044-.006.07.07 0 0 1 .05-.035c.034-.006.063 0 .057.014 0 .044.029.073.029.108s-.02.079-.093.108a.5.5 0 0 1-.187.015c-.014-.006-.029-.065-.014-.094a.24.24 0 0 1 .079-.075" clip-rule="evenodd"/><path fill="#6E6342" fill-rule="evenodd" d="M12.154 19.82s-.05.03-.05.044a.1.1 0 0 0-.006.044c0 .008.064-.006.073-.015.003-.006-.017-.058-.017-.073" clip-rule="evenodd"/><path fill="#585136" fill-rule="evenodd" d="M11.72 19.684c.03.005.079 0 .117.014.029.015.05.044.02.079s-.057.087-.122.078c-.073-.006-.143-.043-.143-.073a.14.14 0 0 1 .035-.101c.03-.024.044-.01.093.002" clip-rule="evenodd"/><path fill="#574F35" fill-rule="evenodd" d="M11.686 19.713s-.094.072-.117.107c-.03.035-.172.216-.216.254a1 1 0 0 1 .05-.073.3.3 0 0 0-.123.157c-.034.108.196.166.347.21s.21.058.21.058a1.6 1.6 0 0 1-.143-.265c-.058-.137-.087-.152-.05-.216.03-.064.073-.108.073-.157-.017-.046-.032-.075-.032-.075" clip-rule="evenodd"/><path fill="#252211" fill-rule="evenodd" d="M8.365 19.943a.2.2 0 0 0 .064 0c.044-.006.498-.173.973-.143q.535.033 1.052.173c.597.157 1.34.469 1.82.646.128.05.253.137.345.172.367.143.382.143.598.18.253.036.512-.049.783-.107.332-.073.9-.108 1.398-.18q.242-.035.475-.108s-.396.396-1.346.538a4.2 4.2 0 0 1-1.159.015 3.5 3.5 0 0 1-.655-.117c-.172-.05-.525-.18-.959-.288-.303-.078-.64-.136-1.028-.21-.955-.174-1.992-.375-2.361-.57z" clip-rule="evenodd"/><path fill="#CFB66C" fill-rule="evenodd" d="M7.293 18.143c-.23.195-.475.381-.713.562l-.72.553c-.244.18-.483.367-.728.547s-.49.352-.749.519c.23-.196.475-.376.72-.554.244-.177.498-.351.734-.532l.72-.553c.247-.18.486-.367.736-.542M6.02 20.182s.26-.216.583-.519c.402-.375.894-.856 1.051-.943z" clip-rule="evenodd"/><path fill="#CFB66C" fill-rule="evenodd" d="M6.02 20.182q.195-.193.402-.376l.21-.18c.064-.058.137-.123.201-.187.128-.128.253-.265.382-.396a3 3 0 0 1 .2-.187.6.6 0 0 1 .117-.078c.035-.02.073-.058.122-.064-.029.043-.064.064-.093.101-.035.03-.064.065-.093.093-.064.065-.137.123-.201.181-.137.117-.28.23-.416.353-.137.122-.265.253-.403.375-.148.126-.285.248-.428.365m1.742-1.166s-.95.93-1.145 1.081z" clip-rule="evenodd"/><path fill="#CFB66C" fill-rule="evenodd" d="M7.762 19.016a3 3 0 0 1-.274.28l-.288.274c-.093.093-.18.186-.28.28-.102.087-.195.172-.303.253l.28-.274c.093-.093.195-.172.294-.265l.28-.274c.096-.096.19-.19.291-.274m.044.504q-.131.368-.309.714c-.245.49-.612 1.1-.772 1.413z" clip-rule="evenodd"/><path fill="#CFB66C" fill-rule="evenodd" d="M7.806 19.52c0 .108-.03.201-.064.295a3 3 0 0 1-.117.273c-.044.088-.093.181-.143.265s-.107.172-.151.26l-.294.518c-.102.173-.201.347-.309.513.073-.187.172-.361.265-.533.102-.173.195-.346.288-.525q.069-.133.122-.273c.044-.093.088-.18.123-.265.043-.093.078-.181.122-.265.05-.09.09-.178.157-.263" clip-rule="evenodd"/><path fill="#DEC270" fill-rule="evenodd" d="M8.843 21.909s-.288.381-.26.865c.08-.254.178-.641.26-.865m.274.382s-.102 1.037-.187 1.547c.12-.59.143-.54.187-1.547m1.907 1.608s-.43 1.267-.44 1.62c.094-.363.274-1.103.44-1.621z" clip-rule="evenodd"/><path fill="#CBAF59" fill-rule="evenodd" d="M12.032 21.83s.7 1.154 1.223 2.138c-.141-.495-.468-1.404-1.223-2.138" clip-rule="evenodd"/><path fill="#E3C677" fill-rule="evenodd" d="M13.91 23.528q.577 1.02 1.038 2.094c-.059-.495-.216-1.342-1.037-2.094" clip-rule="evenodd"/><path fill="#ECD592" fill-rule="evenodd" d="M19.433 25.229c.116-.073.347-.47.548-.568.2-.102.352-.122.533-.324.18-.21.23-.337.626-.503.553-.24.172-.548.172-.548q.092-.09.196-.166c.143-.108.308-.239.294-.469-.02-.387-.093-.95-.41-1.276.308-.064.9-.107 1.267-.2.425-.108.62-.26.62-.26s-.245-.416.151-.836c.396-.419.72-.67.959-1.139-.274-.035-.692-.18-1.757.225q.087.04.166.093s-.655.18-.894.382c-.417.352-.469.64-.92.856s-.906.157-1.282.332c-.375.175-.43.323-.568.387.03.035-.006.093.05.143-.035.05-.24.381-.446.381.02.08.195.137.195.137s-.128.094-.454.117c.166.173.323.361.757.635-.035.073-.18.18-.122.317.064.137.23.324.894.475-.338.015-.734.093-1.267.02-.533-.064-.62-.101-.95-.02.035.035.128.035.21.128-.087.006-.635-.064-.822.18-.194.254-.279.67-.264.95-.102.05-.201.137-.152.318.05.18.309.239.475.352.166.123.18.166.338.137.166-.035.41-.2.553-.2s.245.107.245.107.387-.186.425-.151c.035.035.006.259.044.294.038.026.474-.233.591-.306z" clip-rule="evenodd"/><path fill="#fff" fill-opacity=".8" fill-rule="evenodd" d="M27.9 13.573C26.08 8.872 21.58 8 21.58 8H8.74l.05 4.788h2.557v10.693H8.741v4.78h12.483c3.009 0 5.42-3.024 5.42-3.024 3.863-5.482 1.256-11.665 1.256-11.665m-6.609 8.443s-.979 1.413-2.044 1.413h-2.132l-.05-10.628H19.8s1.267.265 2.153 2.773c0 0 1.173 3.59-.662 6.442" clip-rule="evenodd"/></g><defs><clipPath id="a"><path fill="#fff" d="M0 0h36v36H0z"/></clipPath></defs></svg>