<svg xmlns="http://www.w3.org/2000/svg" width="36" height="36" fill="none"><rect width="36" height="36" fill="#0166FF" rx="10"/><path fill="#fff" d="M23 13c-2.094 0-3.611 1.567-5.001 3.346C16.609 14.567 15.093 13 13 13a5.006 5.006 0 0 0-4.623 6.913 5 5 0 0 0 1.082 1.621A4.96 4.96 0 0 0 12.99 23c2.089-.005 3.617-1.572 5.008-3.351C19.389 21.431 20.906 23 23 23c2.757 0 5-2.243 5-5s-2.243-5-5-5m-10.002 8h-.008c-.799 0-1.55-.312-2.114-.878A3.004 3.004 0 0 1 13 15c1.33 0 2.56 1.438 3.746 2.998-1.188 1.559-2.418 2.999-3.748 3.002M23 21c-1.33 0-2.561-1.44-3.749-3.002C20.438 16.438 21.668 15 23 15c1.654 0 3 1.346 3 3s-1.346 3-3 3"/></svg>