<svg width="44" height="44" viewBox="0 0 44 44" fill="none" xmlns="http://www.w3.org/2000/svg">
<rect width="36" height="36" rx="10" fill="#0F0137"/>
<path d="M18 6L16.878 13.4865L18 17.2463L19.122 13.4865L18 6Z" fill="white"/>
<path d="M18 30L19.122 22.5135L18 18.7537L16.878 22.5135L18 30Z" fill="white"/>
<path d="M30 18L22.5135 16.878L18.7537 18L22.5135 19.122L30 18Z" fill="white"/>
<path d="M6 18L13.4865 19.122L17.2463 18L13.4865 16.878L6 18Z" fill="white"/>
<path d="M26.4338 9.4632L20.3742 14.0006L18.53 17.4638L21.9705 15.5776L26.4338 9.4632Z" fill="white"/>
<path d="M9.5662 26.5368L15.6258 21.9994L17.47 18.5362L14.0295 20.4224L9.5662 26.5368Z" fill="white"/>
<path d="M26.5362 26.4338L21.9988 20.3742L18.5356 18.53L20.4218 21.9705L26.5362 26.4338Z" fill="white"/>
<path d="M9.46382 9.5662L14.0012 15.6258L17.4644 17.47L15.5782 14.0295L9.46382 9.5662Z" fill="white"/>
<g clip-path="url(#clip0_51238_272287)">
<rect x="22" y="22" width="22" height="22" rx="4" fill="#0166FF"/>
<path d="M33.6773 28.2462L30.3024 37.8889H28.4305L25.0555 28.2462H26.8455L28.813 34.1479C28.8768 34.31 28.9406 34.5216 29.0043 34.7827C29.0772 35.0348 29.1455 35.2959 29.2093 35.566C29.2822 35.8271 29.3368 36.0612 29.3733 36.2683C29.4006 36.0612 29.4461 35.8271 29.5099 35.566C29.5828 35.2959 29.6556 35.0348 29.7285 34.7827C29.8014 34.5216 29.8651 34.31 29.9198 34.1479L31.8874 28.2462H33.6773Z" fill="white"/>
<path d="M40.9444 37.8889H34.2629V36.6329L36.7497 34.1479C37.2416 33.6528 37.6424 33.2296 37.9521 32.8785C38.2709 32.5183 38.5032 32.1852 38.6489 31.8791C38.8038 31.5729 38.8812 31.2398 38.8812 30.8797C38.8812 30.4385 38.7537 30.1099 38.4986 29.8938C38.2436 29.6687 37.9065 29.5562 37.4875 29.5562C37.0776 29.5562 36.695 29.6417 36.3398 29.8128C35.9845 29.9748 35.6156 30.2089 35.233 30.515L34.2902 29.3941C34.5635 29.16 34.855 28.9484 35.1647 28.7594C35.4744 28.5613 35.8251 28.4037 36.2168 28.2867C36.6085 28.1696 37.064 28.1111 37.5832 28.1111C38.2117 28.1111 38.7491 28.2237 39.1955 28.4487C39.6509 28.6648 40.0016 28.9664 40.2476 29.3536C40.4935 29.7407 40.6165 30.1909 40.6165 30.7041C40.6165 31.1003 40.5573 31.4694 40.4389 31.8115C40.3205 32.1447 40.1474 32.4733 39.9197 32.7974C39.6919 33.1215 39.4141 33.4502 39.0862 33.7833C38.7582 34.1164 38.3893 34.4766 37.9794 34.8637L36.4354 36.3358V36.4168H40.9444V37.8889Z" fill="white"/>
</g>
<defs>
<clipPath id="clip0_51238_272287">
<rect width="22" height="22" fill="white" transform="translate(22 22)"/>
</clipPath>
</defs>
</svg>
