<svg width="36" height="36" viewBox="0 0 36 36" fill="none" xmlns="http://www.w3.org/2000/svg">
<rect x="0.5" y="0.5" width="35" height="35" rx="9.5" fill="white" stroke="#E1EAF8" stroke-linecap="round"/>
<path d="M12.3831 16.1481C10.7944 15.5126 10 15.1948 10 14.8C10 14.4052 10.7944 14.0874 12.3831 13.4519L14.6298 12.5532C16.2185 11.9177 17.0129 11.6 18 11.6C18.9871 11.6 19.7815 11.9177 21.3702 12.5532L23.6169 13.4519C25.2056 14.0874 26 14.4052 26 14.8C26 15.1948 25.2056 15.5126 23.6169 16.1481L21.3702 17.0468C19.7815 17.6823 18.9871 18 18 18C17.0129 18 16.2185 17.6823 14.6298 17.0468L12.3831 16.1481Z" stroke="#494949" stroke-width="1.2"/>
<path d="M26 18C26 18 25.2056 18.7126 23.6169 19.3481L21.3702 20.2468C19.7815 20.8823 18.9871 21.2 18 21.2C17.0129 21.2 16.2185 20.8823 14.6298 20.2468L12.3831 19.3481C10.7944 18.7126 10 18 10 18" stroke="#494949" stroke-width="1.2" stroke-linecap="round"/>
<path d="M26 21.2C26 21.2 25.2056 21.9126 23.6169 22.5481L21.3702 23.4468C19.7815 24.0823 18.9871 24.4 18 24.4C17.0129 24.4 16.2185 24.0823 14.6298 23.4468L12.3831 22.5481C10.7944 21.9126 10 21.2 10 21.2" stroke="#494949" stroke-width="1.2" stroke-linecap="round"/>
</svg>
