<svg xmlns="http://www.w3.org/2000/svg" width="36" height="36" fill="none"><g clip-path="url(#a)"><rect width="36" height="36" fill="#191818" rx="12"/><path fill="#999" d="m20.38 6.97.638 1.504a12.43 12.43 0 0 0 6.53 6.536l1.504.64c.392.164.7.412.948.7-.742-5.34-4.965-9.567-10.3-10.309.267.227.515.536.68.928M6.967 15.628l1.504-.64a12.43 12.43 0 0 0 6.53-6.535l.64-1.506c.143-.37.39-.7.7-.948-5.336.742-9.56 4.97-10.3 10.31.226-.269.535-.516.926-.681m22.064 4.763-1.504.639a12.43 12.43 0 0 0-6.53 6.536l-.64 1.485a2.3 2.3 0 0 1-.7.948c5.336-.742 9.56-4.97 10.3-10.31-.226.31-.555.557-.926.702m-13.411 8.66-.639-1.485a12.43 12.43 0 0 0-6.53-6.536l-1.504-.64c-.371-.144-.7-.391-.948-.7.742 5.34 4.965 9.567 10.3 10.309a2.7 2.7 0 0 1-.68-.948"/><path fill="#fff" d="m12.572 16.845.741-.309a6.13 6.13 0 0 0 3.214-3.216l.31-.743c.432-1.03 1.894-1.03 2.348 0l.309.743a6.13 6.13 0 0 0 3.213 3.216l.742.31c1.03.432 1.03 1.896 0 2.35l-.742.31a6.13 6.13 0 0 0-3.213 3.216l-.31.742c-.432 1.03-1.895 1.03-2.348 0l-.309-.742a6.13 6.13 0 0 0-3.214-3.217l-.741-.31c-1.03-.453-1.03-1.917 0-2.35"/></g><defs><clipPath id="a"><path fill="#fff" d="M0 0h36v36H0z"/></clipPath></defs></svg>