<svg width="36" height="36" viewBox="0 0 36 36" fill="none" xmlns="http://www.w3.org/2000/svg">
<rect x="0.5" y="0.5" width="35" height="35" rx="9.5" fill="white" stroke="#E1EAF8" stroke-linecap="round"/>
<path fill-rule="evenodd" clip-rule="evenodd" d="M16.0934 9.28063C13.9664 9.28063 12.2422 11.0052 12.2422 13.1326C12.2422 15.2599 13.9664 16.9845 16.0934 16.9845C18.2204 16.9845 19.9446 15.2599 19.9446 13.1326C19.9446 11.0052 18.2204 9.28063 16.0934 9.28063ZM13.4584 13.1326C13.4584 11.677 14.6381 10.497 16.0934 10.497C17.5488 10.497 18.7285 11.677 18.7285 13.1326C18.7285 14.5881 17.5488 15.7681 16.0934 15.7681C14.6381 15.7681 13.4584 14.5881 13.4584 13.1326Z" fill="#0166FF"/>
<path fill-rule="evenodd" clip-rule="evenodd" d="M16.0945 18.2046C14.2187 18.2046 12.4905 18.6311 11.2099 19.3515C9.94831 20.0613 9.0001 21.137 9.0001 22.462L9.00006 22.5447C8.99914 23.4869 8.99799 24.6694 10.035 25.514C10.5454 25.9297 11.2593 26.2252 12.224 26.4206C13.1913 26.6164 14.452 26.7194 16.0945 26.7194C17.7369 26.7194 18.9977 26.6164 19.965 26.4206C20.9297 26.2252 21.6436 25.9297 22.1539 25.514C23.1909 24.6694 23.1898 23.4869 23.1889 22.5447L23.1888 22.462C23.1888 21.137 22.2407 20.0613 20.9791 19.3515C19.6985 18.6311 17.9703 18.2046 16.0945 18.2046ZM10.2163 22.462C10.2163 21.7717 10.7201 21.0227 11.8061 20.4117C12.8731 19.8115 14.388 19.421 16.0945 19.421C17.801 19.421 19.3159 19.8115 20.3829 20.4117C21.4689 21.0227 21.9727 21.7717 21.9727 22.462C21.9727 23.5226 21.94 24.1196 21.386 24.5708C21.0856 24.8155 20.5834 25.0543 19.7237 25.2284C18.8668 25.4018 17.6952 25.503 16.0945 25.503C14.4938 25.503 13.3222 25.4018 12.4652 25.2284C11.6056 25.0543 11.1034 24.8155 10.803 24.5708C10.249 24.1196 10.2163 23.5226 10.2163 22.462Z" fill="#0166FF"/>
<path d="M24.5 13.2814V18.2823M27 15.7818H22" stroke="#0166FF" stroke-width="1.3" stroke-linecap="round" stroke-linejoin="round"/>
</svg>
