<svg xmlns="http://www.w3.org/2000/svg" width="36" height="36" fill="none"><g clip-path="url(#a)"><rect width="36" height="36" fill="#2D374B" rx="10"/><path fill="#2D374B" d="m20.977 17.32 1.992-3.351 5.37 8.29.002 1.59-.018-10.947a.82.82 0 0 0-.385-.656l-9.666-5.512a.86.86 0 0 0-.825.053l-.034.021-9.382 5.39-.036.016a.821.821 0 0 0-.485.7l.014 8.92 5.001-7.683c.63-1.019 2.002-1.347 3.275-1.329l1.495.04L8.489 26.86l1.038.592 8.912-14.578 3.939-.014-8.89 14.946 3.705 2.112.443.252c.187.076.408.08.596.012l9.802-5.63-1.874 1.076zm.76 10.85-3.741-5.821 2.284-3.842 4.913 7.677z"/><path fill="#28A0F0" d="m17.992 22.35 3.742 5.82 3.456-1.985-4.914-7.677zM28.338 23.849l-.003-1.59-5.368-8.29-1.992 3.35 5.183 8.31 1.874-1.077a.82.82 0 0 0 .306-.6z"/><path fill="#fff" d="m5.842 25.348 2.646 1.512 8.807-14-1.495-.039c-1.273-.018-2.645.31-3.275 1.33l-5 7.683-1.683 2.562zM22.378 12.861l-3.939.014-8.912 14.578 3.115 1.778.847-1.424z"/><path fill="#96BEDC" d="M30 12.84a2.48 2.48 0 0 0-1.177-1.999L19.03 5.26a2.57 2.57 0 0 0-2.247 0c-.082.04-9.523 5.468-9.523 5.468q-.197.095-.375.22a2.46 2.46 0 0 0-1.043 1.889v11.56l1.682-2.562-.014-8.92a.82.82 0 0 1 .346-.62c.044-.032 9.647-5.542 9.678-5.557a.86.86 0 0 1 .738-.003l9.666 5.511c.229.145.372.39.385.657v11.05a.8.8 0 0 1-.29.6l-1.873 1.076-.967.556-3.456 1.985-3.505 2.014a.86.86 0 0 1-.597-.012l-4.147-2.364-.847 1.424 3.727 2.127.323.181c.14.078.235.13.268.145.265.128.646.202.99.202.314 0 .621-.057.912-.17l10.18-5.844a2.46 2.46 0 0 0 .96-1.859z"/></g><defs><clipPath id="a"><path fill="#fff" d="M0 0h36v36H0z"/></clipPath></defs></svg>