<svg width="39" height="39" viewBox="0 0 39 39" fill="none" xmlns="http://www.w3.org/2000/svg">
<rect width="36" height="36" rx="10" fill="#26A17B"/>
<path fill-rule="evenodd" clip-rule="evenodd" d="M20.1622 19.5559V19.5536C20.0385 19.5626 19.4006 19.6009 17.9775 19.6009C16.8412 19.6009 16.0414 19.5671 15.7601 19.5536V19.557C11.3861 19.3646 8.12137 18.603 8.12137 17.6918C8.12137 16.7816 11.3861 16.02 15.7601 15.8243V18.7987C16.0459 18.819 16.8649 18.8674 17.9966 18.8674C19.3545 18.8674 20.0351 18.8111 20.1622 18.7999V15.8265C24.5272 16.0211 27.7841 16.7828 27.7841 17.6918C27.7841 18.603 24.5272 19.3624 20.1622 19.5559ZM20.1622 15.5171V12.8554H26.253V8.79638H9.66937V12.8554H15.7601V15.516C10.8101 15.7433 7.08749 16.7242 7.08749 17.8988C7.08749 19.0732 10.8101 20.0531 15.7601 20.2815V28.8113H20.1622V20.2792C25.1044 20.052 28.818 19.0721 28.818 17.8988C28.818 16.7254 25.1044 15.7455 20.1622 15.5171Z" fill="white"/>
<g clip-path="url(#clip0_42131_119978)">
<rect x="23" y="23" width="16" height="16" rx="4.44444" fill="#2D374B"/>
<path d="M32.3232 30.6975L33.2085 29.2084L35.5947 32.8926L35.5958 33.5996L35.5881 28.7344C35.5824 28.6155 35.5187 28.5066 35.4171 28.4425L31.121 25.9929C31.0205 25.944 30.8931 25.9445 30.7928 25.9944C30.7792 26.0012 30.7665 26.0085 30.7543 26.0165L30.7393 26.0258L26.5693 28.4212L26.5531 28.4285C26.5323 28.438 26.5113 28.45 26.4915 28.464C26.4125 28.5203 26.36 28.6034 26.343 28.6966C26.3404 28.7107 26.3386 28.7251 26.3377 28.7396L26.3442 32.7043L28.5669 29.2894C28.8467 28.8366 29.4564 28.6907 30.0224 28.6987L30.6867 28.7161L26.7727 34.9381L27.2341 35.2015L31.195 28.7224L32.9457 28.7161L28.995 35.3587L30.6413 36.2973L30.838 36.4094C30.9212 36.443 31.0193 36.4446 31.1032 36.4146L35.4597 33.9121L34.6268 34.3905L32.3232 30.6975ZM32.661 35.5197L30.9981 32.9327L32.0132 31.2254L34.197 34.6374L32.661 35.5197Z" fill="#2D374B"/>
<path d="M30.9965 32.9331L32.6594 35.5201L34.1954 34.6377L32.0116 31.2257L30.9965 32.9331Z" fill="#28A0F0"/>
<path d="M35.5947 33.5995L35.5936 32.8925L33.2074 29.2083L32.3221 30.6974L34.6256 34.3904L35.4585 33.912C35.5402 33.8462 35.5896 33.7497 35.5948 33.6455L35.5947 33.5995Z" fill="#28A0F0"/>
<path d="M25.5964 34.2659L26.7726 34.9377L30.6866 28.7156L30.0223 28.6982C29.4563 28.6903 28.8466 28.8361 28.5668 29.289L26.3441 32.7038L25.5964 33.8427V34.2659H25.5964Z" fill="white"/>
<path d="M32.946 28.7161L31.1953 28.7225L27.2344 35.2015L28.6188 35.9917L28.9953 35.3587L32.946 28.7161Z" fill="white"/>
<path d="M36.3335 28.707C36.3189 28.3441 36.1206 28.0118 35.8101 27.8184L31.4577 25.3373C31.1506 25.184 30.7668 25.1838 30.4591 25.3372C30.4228 25.3554 26.2265 27.7678 26.2265 27.7678C26.1685 27.7954 26.1125 27.8283 26.0599 27.8656C25.7827 28.0625 25.6137 28.3685 25.5964 28.7048V33.843L26.3441 32.7042L26.3376 28.7395C26.3385 28.725 26.3403 28.7108 26.3429 28.6967C26.3597 28.6034 26.4123 28.5202 26.4914 28.4639C26.5112 28.4499 30.7791 26.0011 30.7927 25.9943C30.893 25.9444 31.0204 25.9439 31.1209 25.9928L35.417 28.4424C35.5186 28.5065 35.5823 28.6154 35.588 28.7343V33.6455C35.5828 33.7497 35.5412 33.8462 35.4595 33.912L34.6266 34.3904L34.1969 34.6372L32.6608 35.5196L31.1031 36.4145C31.0192 36.4446 30.9211 36.4429 30.8379 36.4093L28.9948 35.3586L28.6183 35.9915L30.2746 36.9368C30.3294 36.9676 30.3782 36.995 30.4183 37.0173C30.4803 37.0518 30.5225 37.0748 30.5374 37.082C30.6552 37.1387 30.8245 37.1717 30.9772 37.1717C31.1171 37.1717 31.2535 37.1462 31.3827 37.096L35.9072 34.4986C36.1669 34.2992 36.3197 33.9984 36.3335 33.6726V28.707Z" fill="#96BEDC"/>
</g>
<defs>
<clipPath id="clip0_42131_119978">
<rect width="16" height="16" fill="white" transform="translate(23 23)"/>
</clipPath>
</defs>
</svg>
