<svg width="36" height="36" viewBox="0 0 36 36" fill="none" xmlns="http://www.w3.org/2000/svg">
<g clip-path="url(#clip0_20504_37184)">
<rect width="36" height="36" rx="10" fill="#35D487"/>
<path d="M18.7 14C18.7 13.6134 18.3866 13.3 18 13.3C17.6134 13.3 17.3 13.6134 17.3 14H18.7ZM18 22L17.505 22.495C17.7784 22.7683 18.2216 22.7683 18.495 22.495L18 22ZM20.895 20.095C21.1683 19.8216 21.1683 19.3784 20.895 19.105C20.6216 18.8317 20.1784 18.8317 19.905 19.105L20.895 20.095ZM16.095 19.105C15.8216 18.8317 15.3784 18.8317 15.105 19.105C14.8317 19.3784 14.8317 19.8216 15.105 20.095L16.095 19.105ZM11.1712 24.8288L10.6759 25.3234L10.6764 25.3239L11.1712 24.8288ZM11.1712 11.172L10.6764 10.6769L10.6762 10.677L11.1712 11.172ZM24.828 11.172L24.3329 11.6668L24.3334 11.6673L24.828 11.172ZM24.828 24.8288L24.333 24.3338L24.3329 24.334L24.828 24.8288ZM17.3 14V22H18.7V14H17.3ZM18.495 22.495L20.895 20.095L19.905 19.105L17.505 21.505L18.495 22.495ZM18.495 21.505L16.095 19.105L15.105 20.095L17.505 22.495L18.495 21.505ZM18 25.3C16.0946 25.3 14.736 25.2985 13.7041 25.1598C12.6924 25.0239 12.1003 24.7676 11.666 24.3337L10.6764 25.3239C11.4141 26.0612 12.3508 26.3905 13.5177 26.5474C14.6644 26.7015 16.1342 26.7 18 26.7V25.3ZM11.6665 24.3342C11.2323 23.8994 10.9761 23.3071 10.8402 22.2956C10.7015 21.2638 10.7 19.9054 10.7 18H9.3C9.3 19.8658 9.29851 21.3354 9.45264 22.482C9.60948 23.6489 9.93886 24.5854 10.6759 25.3234L11.6665 24.3342ZM10.7 18C10.7 16.0946 10.7015 14.736 10.8402 13.7042C10.9761 12.6926 11.2323 12.1008 11.6662 11.667L10.6762 10.677C9.93885 11.4144 9.60947 12.351 9.45264 13.5178C9.29851 14.6644 9.3 16.1342 9.3 18H10.7ZM11.666 11.6671C12.1008 11.2327 12.6931 10.9763 13.7045 10.8403C14.7362 10.7015 16.0946 10.7 18 10.7V9.3C16.1342 9.3 14.6646 9.29851 13.5179 9.45275C12.3509 9.6097 11.4144 9.93935 10.6764 10.6769L11.666 11.6671ZM18 10.7C19.9054 10.7 21.264 10.7015 22.2957 10.8403C23.3072 10.9763 23.899 11.2327 24.3329 11.6668L25.3231 10.6772C24.5858 9.93934 23.6492 9.60969 22.4823 9.45275C21.3356 9.29851 19.8658 9.3 18 9.3V10.7ZM24.3334 11.6673C24.7673 12.1007 25.0237 12.6923 25.1597 13.704C25.2985 14.7358 25.3 16.0946 25.3 18H26.7C26.7 16.1342 26.7015 14.6642 26.5473 13.5174C26.3903 12.3505 26.0607 11.4137 25.3226 10.6767L24.3334 11.6673ZM25.3 18C25.3 19.9054 25.2985 21.264 25.1597 22.2958C25.0237 23.3074 24.7673 23.8995 24.333 24.3338L25.323 25.3238C26.0607 24.5861 26.3903 23.6494 26.5473 22.4824C26.7015 21.3356 26.7 19.8658 26.7 18H25.3ZM24.3329 24.334C23.8995 24.7676 23.3079 25.0239 22.2961 25.1598C21.2642 25.2985 19.9054 25.3 18 25.3V26.7C19.8658 26.7 21.3358 26.7015 22.4825 26.5474C23.6493 26.3905 24.5861 26.0612 25.3231 25.3236L24.3329 24.334Z" fill="white"/>
</g>
<defs>
<clipPath id="clip0_20504_37184">
<rect width="36" height="36" fill="white"/>
</clipPath>
</defs>
</svg>
