<svg width="50" height="50" viewBox="0 0 50 50" fill="none" xmlns="http://www.w3.org/2000/svg">
<path d="M4.41113 35.6494C-1.47038 29.7679 -1.47038 20.2321 4.41113 14.3506L14.3506 4.41113C20.2321 -1.47038 29.7679 -1.47038 35.6494 4.41113L45.5889 14.3506C51.4704 20.2321 51.4704 29.7679 45.5889 35.6494L35.6494 45.5889C29.7679 51.4704 20.2321 51.4704 14.3506 45.5889L4.41113 35.6494Z" fill="#0166FF"/>
<path d="M25 10L23.5975 19.3582L25 24.0579L26.4025 19.3582L25 10Z" fill="white"/>
<path d="M25 40L26.4025 30.6418L25 25.9421L23.5975 30.6418L25 40Z" fill="white"/>
<path d="M40 25L30.6418 23.5975L25.9421 25L30.6418 26.4025L40 25Z" fill="white"/>
<path d="M10 25L19.3582 26.4025L24.0579 25L19.3582 23.5975L10 25Z" fill="white"/>
<path d="M35.5422 14.329L27.9677 20.0007L25.6624 24.3297L29.9631 21.972L35.5422 14.329Z" fill="white"/>
<path d="M14.4578 35.671L22.0323 29.9993L24.3376 25.6703L20.0369 28.028L14.4578 35.671Z" fill="white"/>
<path d="M35.6702 35.5422L29.9985 27.9677L25.6695 25.6624L28.0273 29.9631L35.6702 35.5422Z" fill="white"/>
<path d="M14.3298 14.4578L20.0015 22.0323L24.3305 24.3376L21.9727 20.0369L14.3298 14.4578Z" fill="white"/>
</svg>
