<svg width="80" height="80" viewBox="0 0 80 80" fill="none" xmlns="http://www.w3.org/2000/svg">
<path d="M60.8199 47.7578C59.6168 47.7578 58.6418 48.7328 58.6418 49.9359V72.8047C58.6418 73.8328 57.8059 74.6703 56.7793 74.6703L28.6605 74.6422C27.459 74.6406 26.4824 75.6156 26.4824 76.8172L56.7777 76.8469C59.0105 76.8469 60.8199 75.0375 60.8199 72.8047V47.7578Z" fill="#E1EAF8"/>
<path d="M60.8223 12.125C54.6957 12.125 49.7285 17.0922 49.7285 23.2188C49.7285 29.3453 54.6957 34.3125 60.8223 34.3125C66.9488 34.3125 71.916 29.3453 71.916 23.2188C71.9176 17.0922 66.9504 12.125 60.8223 12.125Z" fill="#0166FF"/>
<path d="M59.8639 27.0486L66.9246 20.3013C67.0978 20.1228 67.1953 19.8842 67.1968 19.6355C67.1982 19.3868 67.1034 19.1471 66.9323 18.9667C66.7612 18.7862 66.5269 18.6788 66.2784 18.6671C66.03 18.6553 65.7866 18.7401 65.5992 18.9036L59.1892 25.0123L56.3216 22.2773C56.2311 22.184 56.1227 22.11 56.0028 22.0598C55.883 22.0095 55.7543 21.9839 55.6243 21.9847C55.4944 21.9855 55.3659 22.0125 55.2467 22.0641C55.1275 22.1158 55.0199 22.191 54.9305 22.2853C54.8411 22.3796 54.7716 22.491 54.7264 22.6128C54.6811 22.7346 54.661 22.8643 54.6671 22.9941C54.6732 23.1239 54.7056 23.2512 54.7621 23.3682C54.8187 23.4851 54.8983 23.5895 54.9962 23.6749L58.5265 27.0486C58.7047 27.2196 58.9423 27.3146 59.1892 27.3137C59.4398 27.3152 59.6814 27.2203 59.8639 27.0486Z" fill="white"/>
<path d="M69.8341 53.4388C69.756 53.4388 69.6779 53.4216 69.6029 53.3873L65.9185 51.6623C65.8535 51.6319 65.795 51.589 65.7466 51.5361C65.6981 51.4831 65.6605 51.4212 65.636 51.3537C65.6115 51.2862 65.6005 51.2146 65.6036 51.1429C65.6068 51.0711 65.6241 51.0008 65.6544 50.9357C65.6848 50.8707 65.7277 50.8122 65.7806 50.7638C65.8336 50.7153 65.8956 50.6777 65.963 50.6532C66.0305 50.6287 66.1021 50.6177 66.1739 50.6209C66.2456 50.624 66.316 50.6413 66.381 50.6716L70.0654 52.3967C70.1783 52.4491 70.2699 52.5386 70.3251 52.6503C70.3802 52.762 70.3955 52.8891 70.3686 53.0107C70.3416 53.1322 70.2739 53.241 70.1767 53.3188C70.0795 53.3967 69.9587 53.439 69.8341 53.4388ZM65.6498 39.3357C65.4513 39.3357 65.2607 39.2279 65.1638 39.0404C65.1307 38.9766 65.1105 38.9069 65.1044 38.8353C65.0983 38.7637 65.1063 38.6916 65.1281 38.6231C65.1498 38.5546 65.1849 38.491 65.2313 38.4361C65.2776 38.3811 65.3343 38.3359 65.3982 38.3029L69.0107 36.4326C69.1396 36.3659 69.2897 36.3531 69.428 36.397C69.5663 36.441 69.6815 36.5381 69.7482 36.667C69.8149 36.7958 69.8277 36.9459 69.7837 37.0843C69.7398 37.2226 69.6427 37.3377 69.5138 37.4045L65.9013 39.2748C65.8201 39.317 65.7341 39.3357 65.6498 39.3357ZM9.16069 53.4388C9.03616 53.439 8.9153 53.3967 8.81811 53.3188C8.72092 53.241 8.65324 53.1322 8.62626 53.0107C8.59928 52.8891 8.61463 52.762 8.66977 52.6503C8.7249 52.5386 8.81651 52.4491 8.92944 52.3967L12.6138 50.6716C12.6789 50.6413 12.7493 50.624 12.821 50.6209C12.8927 50.6177 12.9643 50.6287 13.0318 50.6532C13.0993 50.6777 13.1612 50.7153 13.2142 50.7638C13.2671 50.8122 13.31 50.8707 13.3404 50.9357C13.3707 51.0008 13.388 51.0711 13.3912 51.1429C13.3943 51.2146 13.3833 51.2862 13.3588 51.3537C13.3343 51.4212 13.2967 51.4831 13.2483 51.5361C13.1998 51.589 13.1414 51.6319 13.0763 51.6623L9.39194 53.3873C9.31694 53.4216 9.23882 53.4388 9.16069 53.4388ZM13.3451 39.3357C13.2576 39.3352 13.1715 39.3144 13.0935 39.2748L9.481 37.4045C9.21225 37.2654 9.10757 36.9357 9.24663 36.667C9.38569 36.3982 9.71538 36.2935 9.98413 36.4326L13.5966 38.3029C13.8654 38.442 13.9701 38.7717 13.831 39.0404C13.785 39.1295 13.7152 39.2042 13.6295 39.2563C13.5438 39.3084 13.4454 39.3359 13.3451 39.3357Z" fill="#0166FF"/>
<path d="M13.6113 68.6683L17.6645 67.1746V72.7949C17.6645 74.8371 16.1551 76.5246 14.191 76.8074L13.6098 76.8496C11.3707 76.8496 9.55664 75.0339 9.55664 72.7964V68.2558C9.55664 67.4136 10.4645 66.8855 11.1973 67.3011L13.6113 68.6683Z" fill="#E1EAF8"/>
<path d="M51.3465 13.7773C51.3465 13.4758 51.1012 13.2305 50.7996 13.2305H27.6824C27.3809 13.2305 27.1355 13.4758 27.1355 13.7773C27.1355 14.0789 27.3809 14.3242 27.6824 14.3242H50.7996C51.1027 14.3242 51.3465 14.0789 51.3465 13.7773ZM22.459 21.3742C22.459 21.6758 22.7043 21.9211 23.0059 21.9211H46.9012C47.2027 21.9211 47.448 21.6758 47.448 21.3742C47.448 21.0727 47.2027 20.8273 46.9012 20.8273H23.0059C22.7043 20.8273 22.459 21.0727 22.459 21.3742ZM23.0059 29.6539H47.9902C48.2918 29.6539 48.5371 29.4086 48.5371 29.107C48.5371 28.8055 48.2918 28.5602 47.9902 28.5602H23.0059C22.7043 28.5602 22.459 28.8055 22.459 29.107C22.459 29.4086 22.7043 29.6539 23.0059 29.6539ZM50.3059 44.0242H28.6965C28.3949 44.0242 28.1496 44.2695 28.1496 44.5711C28.1496 44.8727 28.3949 45.118 28.6965 45.118H50.3043C50.6059 45.118 50.8512 44.8727 50.8512 44.5711C50.8512 44.2695 50.6074 44.0242 50.3059 44.0242ZM55.9965 51.757H23.0059C22.7043 51.757 22.459 52.0023 22.459 52.3039C22.459 52.6055 22.7043 52.8508 23.0059 52.8508H55.9965C56.298 52.8508 56.5434 52.6055 56.5434 52.3039C56.5434 52.0023 56.298 51.757 55.9965 51.757ZM56.5434 60.0352C56.5434 59.7336 56.298 59.4883 55.9965 59.4883H23.0059C22.7043 59.4883 22.459 59.7336 22.459 60.0352C22.459 60.3367 22.7043 60.582 23.0059 60.582H55.9965C56.298 60.582 56.5434 60.3383 56.5434 60.0352ZM25.1449 67.2211C24.8434 67.2211 24.598 67.4664 24.598 67.768C24.598 68.0695 24.8434 68.3148 25.1449 68.3148H53.8574C54.159 68.3148 54.4043 68.0695 54.4043 67.768C54.4043 67.4664 54.159 67.2211 53.8574 67.2211H25.1449Z" fill="#9A9A9A"/>
<path d="M60.8195 10.1324C61.1211 10.1324 61.3664 9.88712 61.3664 9.58555V7.84805C61.3664 7.20118 61.1352 6.57305 60.7148 6.08087L57.4102 2.20587C57.0574 1.78865 56.5555 1.52587 56.0116 1.47362C55.4677 1.42136 54.925 1.58377 54.4992 1.92618L51.0539 4.67462C50.8756 4.81797 50.6538 4.89611 50.425 4.89611C50.1963 4.89611 49.9744 4.81797 49.7961 4.67462L46.1445 1.76055C45.7729 1.46173 45.3104 1.29883 44.8336 1.29883C44.3568 1.29883 43.8942 1.46173 43.5227 1.76055L39.8711 4.67462C39.6928 4.81797 39.4709 4.89611 39.2422 4.89611C39.0134 4.89611 38.7915 4.81797 38.6133 4.67462L34.9633 1.76055C34.5917 1.46173 34.1292 1.29883 33.6523 1.29883C33.1755 1.29883 32.713 1.46173 32.3414 1.76055L28.6898 4.67462C28.5116 4.81797 28.2897 4.89611 28.0609 4.89611C27.8322 4.89611 27.6103 4.81797 27.432 4.67462L23.9867 1.92618C23.5609 1.58377 23.0182 1.42136 22.4743 1.47362C21.9305 1.52587 21.4286 1.78865 21.0758 2.20587L17.7711 6.08087C17.3507 6.57373 17.1197 7.20026 17.1195 7.84805V72.8371C17.1195 74.5652 15.5445 76.3027 13.593 76.3027C11.668 76.3027 10.1055 74.7231 10.1055 72.7965V68.2652C10.1055 67.9699 10.3086 67.8324 10.3945 67.7871C10.482 67.7418 10.7102 67.6543 10.9523 67.8231L12.4133 68.8418C13.1305 69.3418 14.0945 69.3418 14.8117 68.8418C15.0602 68.6699 15.1211 68.3277 14.9477 68.0809C14.9067 68.0218 14.8546 67.9715 14.7941 67.9326C14.7337 67.8938 14.6662 67.8673 14.5954 67.8547C14.5247 67.8421 14.4522 67.8436 14.3821 67.859C14.3119 67.8745 14.2455 67.9037 14.1867 67.9449C14.018 68.0617 13.8177 68.1242 13.6125 68.1242C13.4073 68.1242 13.207 68.0617 13.0383 67.9449L11.5773 66.9262C11.0773 66.5777 10.4289 66.5356 9.88828 66.8184C9.34766 67.1012 9.01172 67.6559 9.01172 68.2652V72.7965C9.01172 75.334 11.0758 77.3965 13.6117 77.3965H56.7773C59.3086 77.3965 61.3664 75.3371 61.3664 72.8074V36.9652C61.3664 36.6637 61.1211 36.4184 60.8195 36.4184C60.518 36.4184 60.2727 36.6637 60.2727 36.9652V72.8043C60.2727 74.7324 58.7039 76.2996 56.7773 76.2996L16.6258 76.3027C17.6008 75.4512 18.2117 74.1996 18.2117 72.8356V7.84805C18.2117 7.46055 18.3508 7.08399 18.6023 6.79024L21.907 2.91524C22.0763 2.71507 22.3172 2.58898 22.5781 2.56388C22.8391 2.53877 23.0995 2.61664 23.3039 2.78087L26.7492 5.5293C27.1208 5.82813 27.5833 5.99103 28.0602 5.99103C28.537 5.99103 28.9995 5.82813 29.3711 5.5293L33.0227 2.61524C33.2009 2.47189 33.4228 2.39375 33.6516 2.39375C33.8803 2.39375 34.1022 2.47189 34.2805 2.61524L37.9305 5.5293C38.7023 6.14493 39.7805 6.14649 40.5539 5.5293L44.2039 2.61524C44.3822 2.47189 44.6041 2.39375 44.8328 2.39375C45.0616 2.39375 45.2835 2.47189 45.4617 2.61524L49.1133 5.5293C49.4849 5.82813 49.9474 5.99103 50.4242 5.99103C50.9011 5.99103 51.3636 5.82813 51.7352 5.5293L55.1805 2.78087C55.3847 2.61629 55.6452 2.53821 55.9063 2.56332C56.1674 2.58844 56.4082 2.71476 56.5773 2.91524L59.882 6.79024C60.1336 7.08555 60.2727 7.46055 60.2727 7.84805V9.58712C60.2727 9.88868 60.518 10.1324 60.8195 10.1324Z" fill="#9A9A9A"/>
</svg>
