<svg width="80" height="80" viewBox="0 0 80 80" fill="none" xmlns="http://www.w3.org/2000/svg">
<path d="M18.1234 4.61133H30.1641C30.6234 4.61133 30.9188 5.09727 30.7078 5.50508C30.3764 6.14657 29.9083 6.70753 29.3365 7.1484C28.7647 7.58927 28.1031 7.89931 27.3984 8.05664L21.8156 9.30352C19.8656 9.73945 18.4188 11.3848 18.2375 13.3738L16.7063 30.1254C16.6614 30.6141 16.5168 31.0883 16.2814 31.5189C16.046 31.9494 15.7247 32.3271 15.3375 32.6285C14.975 32.9113 14.4453 32.652 14.4453 32.1926V8.28945C14.4453 6.2582 16.0906 4.61133 18.1234 4.61133Z" fill="#E1EAF8"/>
<path d="M61.6465 48.4531C53.6246 48.4531 47.123 54.9562 47.123 62.9766C47.123 70.9984 53.6262 77.5 61.6465 77.5C69.6684 77.5 76.1699 70.9969 76.1699 62.9766C76.1699 54.9547 69.6684 48.4531 61.6465 48.4531ZM69.7106 69.4938C69.9154 69.699 70.0305 69.9772 70.0305 70.2672C70.0305 70.5572 69.9154 70.8354 69.7106 71.0406C69.4965 71.2547 69.2168 71.3609 68.9371 71.3609C68.6574 71.3609 68.3777 71.2547 68.1637 71.0406L61.6465 64.5234L55.1293 71.0406C54.9152 71.2547 54.6355 71.3609 54.3559 71.3609C54.0762 71.3609 53.7965 71.2547 53.5824 71.0406C53.3776 70.8354 53.2625 70.5572 53.2625 70.2672C53.2625 69.9772 53.3776 69.699 53.5824 69.4938L60.0996 62.9766L53.5824 56.4594C53.1559 56.0328 53.1559 55.3391 53.5824 54.9125C54.009 54.4859 54.7027 54.4859 55.1293 54.9125L61.6465 61.4297L68.1637 54.9125C68.5902 54.4859 69.284 54.4859 69.7106 54.9125C70.1371 55.3391 70.1371 56.0328 69.7106 56.4594L63.1934 62.9766L69.7106 69.4938Z" fill="#FD4E4E"/>
<path d="M59.9102 14.8359L47.8133 2.77656C47.2805 2.24531 46.5742 1.95312 45.8227 1.95312H13.8945C12.4852 1.95312 11.3398 3.1 11.3398 4.50781V33.9625C11.3398 34.7047 11.7367 35.4016 12.3773 35.7781L20.3414 40.4812C21.0023 40.8719 21.8242 40.8719 22.4867 40.4812L30.4258 35.7938C30.7445 35.6063 31.1398 35.6063 31.4586 35.7938L39.3977 40.4812C39.7289 40.6766 40.0992 40.775 40.4695 40.775C40.8398 40.775 41.2117 40.6781 41.5414 40.4812L49.4805 35.7938C49.7992 35.6063 50.1945 35.6063 50.5133 35.7938L58.3039 40.3937C58.6711 40.6109 59.1102 40.6141 59.4805 40.4031C59.8508 40.1922 60.0711 39.8109 60.0711 39.3859V15.2234C60.0711 15.0781 60.0133 14.9391 59.9102 14.8359ZM58.9773 39.3844C58.9773 39.3953 58.9773 39.4297 58.9383 39.4516C58.8992 39.4734 58.8695 39.4562 58.8602 39.4516L51.0695 34.8516C50.4086 34.4609 49.5867 34.4609 48.9242 34.8516L40.9852 39.5391C40.8286 39.6311 40.6503 39.6797 40.4687 39.6797C40.2872 39.6797 40.1089 39.6311 39.9523 39.5391L32.0133 34.8516C31.682 34.6562 31.3117 34.5578 30.9414 34.5578C30.5711 34.5578 30.1992 34.6547 29.8695 34.8516L21.9305 39.5391C21.774 39.6311 21.5957 39.6797 21.4141 39.6797C21.2325 39.6797 21.0542 39.6311 20.8977 39.5391L12.9336 34.8359C12.7817 34.7458 12.6557 34.6178 12.5681 34.4645C12.4804 34.3111 12.4341 34.1376 12.4336 33.9609V4.50781C12.4336 3.70156 13.0898 3.04688 13.8945 3.04688H45.8227C46.282 3.04688 46.7164 3.225 47.0414 3.55L49.443 5.94375V10.3328C49.443 12.2234 50.5164 13.8625 52.0867 14.6766H49.3914C48.243 14.6766 47.3102 13.7422 47.3102 12.5953V6.52188C47.3102 6.22031 47.0648 5.975 46.7633 5.975C46.4617 5.975 46.2164 6.22031 46.2164 6.52188V12.5938C46.2164 14.3453 47.6414 15.7687 49.3914 15.7687H58.9789L58.9773 39.3844Z" fill="#9A9A9A"/>
<path d="M59.0336 43.0836L51.068 38.3805C50.407 37.9898 49.5852 37.9898 48.9227 38.3805L40.9836 43.068C40.8271 43.16 40.6488 43.2086 40.4672 43.2086C40.2856 43.2086 40.1073 43.16 39.9508 43.068L32.0117 38.3805C31.3508 37.9898 30.5289 37.9898 29.8664 38.3805L21.9273 43.068C21.7708 43.16 21.5925 43.2086 21.4109 43.2086C21.2293 43.2086 21.0511 43.16 20.8945 43.068L13.107 38.468C12.7398 38.2508 12.3008 38.2477 11.9305 38.4586C11.5602 38.6695 11.3398 39.0508 11.3398 39.4758V68.1461C11.3398 69.5555 12.4867 70.7008 13.8945 70.7008H46.1398C46.4414 70.7008 46.6867 70.4555 46.6867 70.1539C46.6867 69.8523 46.4414 69.607 46.1398 69.607H13.8945C13.0883 69.607 12.4336 68.9508 12.4336 68.1461V39.4773C12.4336 39.4664 12.4336 39.432 12.4727 39.4102C12.5117 39.3883 12.5414 39.4055 12.5508 39.4102L20.3398 44.0102C21.0008 44.4008 21.8227 44.4008 22.4852 44.0102L30.4242 39.3227C30.743 39.1352 31.1383 39.1352 31.457 39.3227L39.3961 44.0102C40.057 44.4008 40.8789 44.4008 41.5414 44.0102L49.4805 39.3227C49.7992 39.1352 50.1945 39.1352 50.5133 39.3227L58.4789 44.0258C58.6308 44.1159 58.7568 44.2439 58.8444 44.3973C58.9321 44.5506 58.9784 44.7241 58.9789 44.9008V46.318C58.9789 46.6195 59.2242 46.8648 59.5258 46.8648C59.8273 46.8648 60.0727 46.6195 60.0727 46.318V44.9008C60.0711 44.157 59.6742 43.4602 59.0336 43.0836ZM50.168 20.2711H20.8602C20.5586 20.2711 20.3133 20.5164 20.3133 20.818C20.3133 21.1195 20.5586 21.3648 20.8602 21.3648H50.168C50.4695 21.3648 50.7148 21.1195 50.7148 20.818C50.7148 20.5164 50.4695 20.2711 50.168 20.2711ZM50.168 27.5227H20.8602C20.5586 27.5227 20.3133 27.768 20.3133 28.0695C20.3133 28.3711 20.5586 28.6164 20.8602 28.6164H50.168C50.4695 28.6164 50.7148 28.3711 50.7148 28.0695C50.7148 27.768 50.4695 27.5227 50.168 27.5227ZM24.4133 14.1133H43.1477C43.4492 14.1133 43.6945 13.868 43.6945 13.5664C43.6945 13.2648 43.4492 13.0195 43.1477 13.0195H24.4133C24.1117 13.0195 23.8664 13.2648 23.8664 13.5664C23.8664 13.868 24.1117 14.1133 24.4133 14.1133Z" fill="#9A9A9A"/>
<path d="M46.2 55.9254C46.2 55.6238 45.9547 55.3785 45.6531 55.3785H20.8594C20.5578 55.3785 20.3125 55.6238 20.3125 55.9254C20.3125 56.227 20.5578 56.4723 20.8594 56.4723H45.6531C45.9547 56.4723 46.2 56.227 46.2 55.9254ZM20.8594 62.6301C20.5578 62.6301 20.3125 62.8754 20.3125 63.1769C20.3125 63.4785 20.5578 63.7238 20.8594 63.7238H44.1734C44.475 63.7238 44.7203 63.4785 44.7203 63.1769C44.7203 62.8754 44.475 62.6301 44.1734 62.6301H20.8594ZM50.1672 48.127H20.8594C20.5578 48.127 20.3125 48.3723 20.3125 48.6738C20.3125 48.9754 20.5578 49.2207 20.8594 49.2207H50.1672C50.4688 49.2207 50.7141 48.9754 50.7141 48.6738C50.7141 48.3723 50.4688 48.127 50.1672 48.127Z" fill="#9A9A9A"/>
</svg>
