<svg width="80" height="80" viewBox="0 0 80 80" fill="none" xmlns="http://www.w3.org/2000/svg">
<g clip-path="url(#clip0_35796_67401)">
<path d="M72.0504 44.5444L59.5764 43.8907C58.6582 43.8425 57.7584 44.1611 57.0751 44.7764C56.3918 45.3916 55.9808 46.2531 55.9327 47.1713L55.6752 52.0846C55.6271 53.0028 55.9458 53.9025 56.561 54.5858C57.1763 55.2691 58.0378 55.68 58.956 55.7282L71.43 56.3819L76.1962 54.63L76.8166 42.7924L72.0504 44.5444ZM59.7465 51.2291C59.4714 51.2148 59.2068 51.1191 58.9861 50.9543C58.7653 50.7896 58.5984 50.563 58.5065 50.3034C58.4145 50.0437 58.4016 49.7627 58.4694 49.4957C58.5372 49.2287 58.6826 48.9878 58.8873 48.8035C59.092 48.6192 59.3467 48.4997 59.6193 48.4602C59.8919 48.4206 60.1701 48.4628 60.4187 48.5814C60.6673 48.7 60.8752 48.8896 61.0161 49.1263C61.1569 49.363 61.2244 49.6362 61.21 49.9113C61.1906 50.2801 61.0256 50.6261 60.7511 50.8733C60.4767 51.1204 60.1153 51.2484 59.7465 51.2291ZM72.1419 53.2469C72.1343 53.3917 72.0695 53.5276 71.9617 53.6247C71.854 53.7217 71.712 53.772 71.5672 53.7644C71.4223 53.7568 71.2865 53.692 71.1894 53.5842C71.0923 53.4764 71.0421 53.3345 71.0497 53.1897L71.3385 47.6794C71.346 47.5346 71.4109 47.3987 71.5187 47.3016C71.6264 47.2046 71.7684 47.1543 71.9132 47.1619C72.058 47.1695 72.1939 47.2343 72.291 47.3421C72.388 47.4499 72.4383 47.5918 72.4307 47.7366L72.1419 53.2469Z" fill="#E1EAF8"/>
<path d="M24.2426 24.3126L52.8975 13.1778L47.1565 4.58592C47.0544 4.43312 46.9232 4.30193 46.7704 4.19984C46.6176 4.09775 46.4462 4.02675 46.266 3.9909C46.0857 3.95506 45.9002 3.95507 45.72 3.99093C45.5397 4.02679 45.3683 4.0978 45.2156 4.1999L14.0004 24.9993L24.2426 24.3126Z" fill="#FD4E4E"/>
<path d="M39.8766 5.65038L34.7273 1.54886C33.8574 0.856043 32.5895 1.00578 31.905 1.88215L14.3635 24.3407" stroke="#9A9A9A" stroke-width="1.4" stroke-linecap="round" stroke-linejoin="round"/>
<path d="M65.999 25.5005L60.6173 12.0698C60.2113 11.0565 59.0677 10.556 58.0478 10.9452L24.1224 23.8909" stroke="#9A9A9A" stroke-width="1.4" stroke-linecap="round" stroke-linejoin="round"/>
<path d="M72.3826 43.375C72.5484 40.2127 72.9217 33.0891 73.0892 29.8935C73.2567 26.6979 70.6355 25.7594 69.304 25.6896L46.8348 24.5121L42.4216 32.2918L45.8143 43.9853L40.1669 56.2065L43.2173 64.878L37.7008 74.6027L66.661 76.1204C68.01 75.8573 70.7341 74.8318 70.8387 72.8345C70.9434 70.8373 71.3534 63.0147 71.5453 59.3531" stroke="#9A9A9A" stroke-width="1.4" stroke-linecap="round" stroke-linejoin="round"/>
<path d="M13.0588 21.4559L8.56493 21.6914C7.73274 21.735 6.09453 22.3216 6.1992 24.3188M6.1992 24.3188C6.30387 26.3161 7.99442 26.7282 8.82661 26.6846L35.7896 25.2715L32.2138 33.4699L37.3095 44.7186L32.9705 57.4632L36.9106 65.7683L31 74.9993M6.1992 24.3188L7.87395 56.275" stroke="#9A9A9A" stroke-width="1.4" stroke-linecap="round" stroke-linejoin="round"/>
<path d="M69.3527 19.8137C72.1909 19.7955 77.7888 21.2572 77.4747 27.2489C77.1607 33.2407 75.9657 56.0426 75.4075 66.6946C75.1538 68.3502 73.8476 71.6197 70.652 71.4522" stroke="#9A9A9A" stroke-width="1.4" stroke-linecap="round" stroke-linejoin="round"/>
<path d="M51.0851 29.5096L47.2004 29.306C47.0556 29.2984 46.9137 29.3486 46.8059 29.4457C46.6981 29.5427 46.6333 29.6786 46.6257 29.8235C46.6181 29.9683 46.6683 30.1102 46.7654 30.218C46.8624 30.3258 46.9983 30.3906 47.1432 30.3982L51.0278 30.6018C51.1727 30.6094 51.3146 30.5591 51.4224 30.4621C51.5302 30.365 51.595 30.2291 51.6026 30.0843C51.6102 29.9395 51.5599 29.7975 51.4629 29.6897C51.3658 29.582 51.2299 29.5171 51.0851 29.5096ZM59.8746 29.9702L55.9899 29.7666C55.8451 29.759 55.7032 29.8093 55.5954 29.9063C55.4876 30.0034 55.4228 30.1393 55.4152 30.2841C55.4076 30.4289 55.4578 30.5709 55.5549 30.6787C55.6519 30.7864 55.7878 30.8513 55.9327 30.8589L59.8172 31.0624C59.962 31.07 60.104 31.0198 60.2117 30.9227C60.3195 30.8257 60.3844 30.6898 60.3919 30.5449C60.3995 30.4001 60.3493 30.2582 60.2522 30.1504C60.1552 30.0426 60.0194 29.9778 59.8746 29.9702ZM68.6641 30.4308L64.7794 30.2272C64.6346 30.2197 64.4927 30.2699 64.3849 30.367C64.2771 30.464 64.2123 30.5999 64.2047 30.7447C64.1971 30.8896 64.2473 31.0315 64.3444 31.1393C64.4414 31.2471 64.5773 31.3119 64.7222 31.3195L68.6067 31.5231C68.7515 31.5307 68.8935 31.4804 69.0012 31.3834C69.109 31.2863 69.1738 31.1504 69.1814 31.0056C69.189 30.8607 69.1388 30.7188 69.0417 30.611C68.9447 30.5032 68.8089 30.4384 68.6641 30.4308ZM49.0145 69.0185L45.1298 68.8149C44.985 68.8073 44.8431 68.8575 44.7353 68.9546C44.6275 69.0516 44.5627 69.1875 44.5551 69.3324C44.5475 69.4772 44.5978 69.6191 44.6948 69.7269C44.7919 69.8347 44.9278 69.8995 45.0726 69.9071L48.9573 70.1107C49.1021 70.1183 49.244 70.068 49.3518 69.971C49.4596 69.8739 49.5244 69.738 49.532 69.5932C49.5396 69.4484 49.4894 69.3064 49.3923 69.1987C49.2953 69.0909 49.1594 69.026 49.0145 69.0185ZM57.804 69.4791L53.9193 69.2755C53.7745 69.2679 53.6326 69.3182 53.5248 69.4152C53.417 69.5123 53.3522 69.6482 53.3446 69.793C53.337 69.9379 53.3873 70.0798 53.4843 70.1876C53.5814 70.2953 53.7173 70.3602 53.8621 70.3678L57.7466 70.5713C57.8915 70.5789 58.0334 70.5287 58.1412 70.4316C58.249 70.3346 58.3138 70.1987 58.3214 70.0538C58.329 69.909 58.2787 69.7671 58.1817 69.6593C58.0846 69.5515 57.9489 69.4867 57.804 69.4791ZM66.5935 69.9397L62.7089 69.7361C62.564 69.7286 62.4221 69.7788 62.3143 69.8759C62.2065 69.9729 62.1417 70.1088 62.1341 70.2537C62.1265 70.3985 62.1768 70.5404 62.2738 70.6482C62.3709 70.756 62.5068 70.8208 62.6516 70.8284L66.5361 71.032C66.681 71.0396 66.8229 70.9893 66.9307 70.8923C67.0385 70.7952 67.1033 70.6593 67.1109 70.5145C67.1185 70.3696 67.0682 70.2277 66.9711 70.1199C66.8741 70.0121 66.7384 69.9473 66.5935 69.9397Z" fill="#9A9A9A"/>
<path d="M28.5231 37.3786L28.6456 39.7176C28.673 40.2523 28.4872 40.7761 28.129 41.174C27.7707 41.5719 27.2692 41.8114 26.7346 41.8401L13.7806 42.5189C13.2459 42.5463 12.7222 42.3605 12.3243 42.0023C11.9264 41.644 11.6868 41.1425 11.6582 40.6079L11.5356 38.2691C11.5082 37.7343 11.694 37.2106 12.0523 36.8127C12.4105 36.4148 12.912 36.1752 13.4467 36.1466L26.4006 35.4677C26.9353 35.4403 27.459 35.6261 27.8569 35.9843C28.2548 36.3426 28.4944 36.844 28.5231 37.3786Z" fill="#9A9A9A"/>
<path d="M15.3726 32.1882L11.4883 32.3917C11.3434 32.3993 11.2014 32.3491 11.0936 32.252C10.9858 32.155 10.921 32.0191 10.9134 31.8743C10.9058 31.7294 10.9561 31.5875 11.0531 31.4797C11.1502 31.3719 11.286 31.3071 11.4309 31.2995L15.3154 31.0959C15.4602 31.0883 15.6022 31.1386 15.71 31.2356C15.8177 31.3327 15.8826 31.4686 15.8901 31.6134C15.8977 31.7583 15.8475 31.9002 15.7504 32.008C15.6534 32.1158 15.5175 32.1806 15.3726 32.1882Z" fill="#9A9A9A"/>
<path d="M24.5401 31.5473C24.443 31.6551 24.3071 31.7199 24.1623 31.7275L20.2778 31.9311C20.1329 31.9387 19.991 31.8884 19.8832 31.7914C19.7755 31.6943 19.7106 31.5584 19.703 31.4136C19.6955 31.2688 19.7457 31.1268 19.8428 31.0191C19.9398 30.9113 20.0757 30.8464 20.2205 30.8389L24.1051 30.6353C24.2499 30.6277 24.3918 30.6779 24.4996 30.775C24.6074 30.872 24.6722 31.0079 24.6798 31.1528C24.6874 31.2976 24.6371 31.4395 24.5401 31.5473Z" fill="#9A9A9A"/>
<path d="M60.2638 16.9561C60.381 17.2614 60.4294 17.5888 60.4057 17.9149C60.3819 18.2411 60.2866 18.558 60.1265 18.8431C59.9663 19.1283 59.7453 19.3746 59.4792 19.5647C59.2131 19.7547 58.9083 19.8838 58.5866 19.9427L43.7142 22.6668C43.4982 22.7064 43.2765 22.703 43.0619 22.6569C42.8472 22.6108 42.6437 22.5229 42.463 22.3981C42.2823 22.2734 42.128 22.1143 42.0088 21.9299C41.8896 21.7455 41.8079 21.5394 41.7684 21.3234C41.7649 21.3051 41.7619 21.2867 41.7592 21.2682C41.707 20.9176 41.7742 20.5596 41.95 20.2518C42.1257 19.9439 42.3998 19.7041 42.7283 19.5708L54.9057 14.6301C55.9112 14.2222 57.0375 14.2303 58.0369 14.6528C59.0364 15.0754 59.827 15.8776 60.235 16.883C60.2449 16.9072 60.2545 16.9316 60.2638 16.9561Z" fill="#E1EAF8"/>
<path d="M18.5 57C12.4243 57 7.5 61.9254 7.5 68C7.5 74.0757 12.4254 79 18.5 79C24.5757 79 29.5 74.0746 29.5 68C29.5 61.9243 24.5757 57 18.5 57ZM24.6077 72.9361C24.7629 73.0916 24.85 73.3022 24.85 73.5219C24.85 73.7415 24.7629 73.9522 24.6077 74.1077C24.4456 74.2698 24.2337 74.3503 24.0219 74.3503C23.8101 74.3503 23.5982 74.2698 23.4361 74.1077L18.5 69.1716L13.5639 74.1077C13.4018 74.2698 13.1899 74.3503 12.9781 74.3503C12.7663 74.3503 12.5544 74.2698 12.3923 74.1077C12.2371 73.9522 12.15 73.7415 12.15 73.5219C12.15 73.3022 12.2371 73.0916 12.3923 72.9361L17.3284 68L12.3923 63.0639C12.0692 62.7408 12.0692 62.2154 12.3923 61.8923C12.7154 61.5692 13.2408 61.5692 13.5639 61.8923L18.5 66.8284L23.4361 61.8923C23.7592 61.5692 24.2846 61.5692 24.6077 61.8923C24.9308 62.2154 24.9308 62.7408 24.6077 63.0639L19.6716 68L24.6077 72.9361Z" fill="#FD4E4E"/>
</g>
<defs>
<clipPath id="clip0_35796_67401">
<rect width="80" height="80" fill="white"/>
</clipPath>
</defs>
</svg>
