<svg width="24" height="24" viewBox="0 0 24 24" fill="none" xmlns="http://www.w3.org/2000/svg">
<path d="M7.42857 17.6008C5.53502 17.6008 4 16.0838 4 14.2125C4 12.3413 5.53502 10.8243 7.42857 10.8243C7.65587 10.8243 7.878 10.8462 8.09293 10.8879M13.9048 8.82255C14.3814 8.65607 14.8943 8.56549 15.4286 8.56549C15.9523 8.56549 16.4555 8.65253 16.9241 8.81276M8.09293 10.8879C7.90965 10.399 7.80952 9.87028 7.80952 9.31843C7.80952 6.8234 9.85622 4.80078 12.381 4.80078C14.7327 4.80078 16.6697 6.55575 16.9241 8.81276M8.09293 10.8879C8.54447 10.9755 8.96423 11.1507 9.33333 11.3949M16.9241 8.81276C18.7144 9.42497 20 11.1057 20 13.0831C20 15.2487 18.4581 17.0584 16.4 17.4986" stroke="#494949" stroke-width="1.3" stroke-linecap="round"/>
<path d="M12.0004 15.2V20M12.0004 15.2L13.6004 16.8M12.0004 15.2L10.4004 16.8" stroke="#494949" stroke-width="1.3" stroke-linecap="round" stroke-linejoin="round"/>
</svg>
