<svg width="24" height="24" viewBox="0 0 24 24" fill="none" xmlns="http://www.w3.org/2000/svg">
<path d="M3 5.25C3 4.65326 3.23705 4.08097 3.65901 3.65901C4.08097 3.23705 4.65326 3 5.25 3H18.75C19.3467 3 19.919 3.23705 20.341 3.65901C20.7629 4.08097 21 4.65326 21 5.25V7.5C21 8.09674 20.7629 8.66903 20.341 9.09099C19.919 9.51295 19.3467 9.75 18.75 9.75H5.25C4.65326 9.75 4.08097 9.51295 3.65901 9.09099C3.23705 8.66903 3 8.09674 3 7.5V5.25ZM3 16.5C3 15.9033 3.23705 15.331 3.65901 14.909C4.08097 14.4871 4.65326 14.25 5.25 14.25H18.75C19.3467 14.25 19.919 14.4871 20.341 14.909C20.7629 15.331 21 15.9033 21 16.5V18.75C21 19.3467 20.7629 19.919 20.341 20.341C19.919 20.7629 19.3467 21 18.75 21H5.25C4.65326 21 4.08097 20.7629 3.65901 20.341C3.23705 19.919 3 19.3467 3 18.75V16.5Z" stroke="#727689" stroke-width="1.5" stroke-linecap="round" stroke-linejoin="round"/>
</svg>
