<svg width="24" height="24" viewBox="0 0 24 24" fill="none" xmlns="http://www.w3.org/2000/svg">
<path d="M10.2 20.9996C14.1765 20.9996 17.4 17.7761 17.4 13.7996C17.4 9.82316 14.1765 6.59961 10.2 6.59961C6.22355 6.59961 3 9.82316 3 13.7996C3 14.9116 3.25207 15.9646 3.70218 16.9048C3.85688 17.228 3.9112 17.5941 3.8186 17.9402L3.52336 19.0436C3.29066 19.9133 4.08631 20.709 4.95601 20.4763L6.05945 20.181C6.40554 20.0884 6.77164 20.1427 7.09478 20.2974C8.03496 20.7475 9.08805 20.9996 10.2 20.9996Z" stroke="#9A9A9A" stroke-width="1.33"/>
<path d="M17.4 14.2517C17.4598 14.2267 17.5192 14.2008 17.578 14.1739C17.9038 14.0251 18.2695 13.9694 18.6156 14.062L19.044 14.1766C19.9137 14.4093 20.7093 13.6137 20.4766 12.744L20.362 12.3156C20.2694 11.9695 20.3251 11.6038 20.4739 11.2779C20.8117 10.5384 21 9.71618 21 8.85C21 5.61913 18.3809 3 15.15 3C12.718 3 10.6326 4.48409 9.75 6.59604" stroke="#9A9A9A" stroke-width="1.33"/>
<path d="M7.95039 13.8004C7.95039 14.2974 7.54745 14.7004 7.05039 14.7004C6.55333 14.7004 6.15039 14.2974 6.15039 13.8004C6.15039 13.3033 6.55333 12.9004 7.05039 12.9004C7.54745 12.9004 7.95039 13.3033 7.95039 13.8004Z" fill="#9A9A9A"/>
<path d="M11.1004 13.8004C11.1004 14.2974 10.6974 14.7004 10.2004 14.7004C9.70333 14.7004 9.30039 14.2974 9.30039 13.8004C9.30039 13.3033 9.70333 12.9004 10.2004 12.9004C10.6974 12.9004 11.1004 13.3033 11.1004 13.8004Z" fill="#9A9A9A"/>
<path d="M14.2504 13.8004C14.2504 14.2974 13.8474 14.7004 13.3504 14.7004C12.8533 14.7004 12.4504 14.2974 12.4504 13.8004C12.4504 13.3033 12.8533 12.9004 13.3504 12.9004C13.8474 12.9004 14.2504 13.3033 14.2504 13.8004Z" fill="#9A9A9A"/>
</svg>
