<svg width="24" height="24" viewBox="0 0 24 24" fill="none" xmlns="http://www.w3.org/2000/svg">
<path d="M18.9458 5.55638C17.6512 4.95065 16.2669 4.51043 14.8197 4.25977C14.6419 4.58111 14.4343 5.01332 14.2911 5.35714C12.7527 5.12578 11.2284 5.12578 9.7182 5.35714C9.57507 5.01332 9.3627 4.58111 9.18337 4.25977C7.73458 4.51043 6.3487 4.95226 5.05407 5.55958C2.44278 9.50559 1.7349 13.3536 2.08884 17.1469C3.82078 18.4403 5.49925 19.226 7.14938 19.7401C7.55681 19.1794 7.92018 18.5833 8.23322 17.9551C7.63703 17.7286 7.06601 17.449 6.52647 17.1245C6.66961 17.0184 6.80962 16.9075 6.94489 16.7935C10.2357 18.3327 13.8113 18.3327 17.0629 16.7935C17.1997 16.9075 17.3397 17.0184 17.4813 17.1245C16.9401 17.4506 16.3676 17.7302 15.7714 17.9567C16.0844 18.5833 16.4462 19.181 16.8552 19.7417C18.5069 19.2276 20.187 18.4419 21.9189 17.1469C22.3342 12.7495 21.2095 8.93682 18.9458 5.55638ZM8.68155 14.8141C7.69367 14.8141 6.88353 13.8918 6.88353 12.7687C6.88353 11.6457 7.67637 10.7218 8.68155 10.7218C9.68676 10.7218 10.4969 11.6441 10.4796 12.7687C10.4811 13.8918 9.68676 14.8141 8.68155 14.8141ZM15.3262 14.8141C14.3383 14.8141 13.5282 13.8918 13.5282 12.7687C13.5282 11.6457 14.321 10.7218 15.3262 10.7218C16.3314 10.7218 17.1415 11.6441 17.1242 12.7687C17.1242 13.8918 16.3314 14.8141 15.3262 14.8141Z" fill="#494949"/>
</svg>
