<svg width="24" height="24" viewBox="0 0 24 24" fill="none" xmlns="http://www.w3.org/2000/svg">
<path d="M5.58019 18.428L5.90284 17.9222L5.90284 17.9222L5.58019 18.428ZM4.59922 17.4916L5.09076 17.1476H5.09076L4.59922 17.4916ZM19.4008 17.4916L18.9092 17.1476L19.4008 17.4916ZM18.4198 18.428L18.0972 17.9222L18.0972 17.9222L18.4198 18.428ZM19.4008 8.62958L18.9092 8.97366V8.97366L19.4008 8.62958ZM18.4198 7.69319L18.0972 8.19906L18.0972 8.19906L18.4198 7.69319ZM4.59922 8.62958L5.09076 8.97366L4.59922 8.62958ZM5.58019 7.69319L5.90284 8.19906H5.90284L5.58019 7.69319ZM9.06667 6.27273L9.65391 6.39577V6.39577L9.06667 6.27273ZM7.9824 7.14733V6.54733H7.96965L7.95691 6.54787L7.9824 7.14733ZM14.9333 6.27273L15.5206 6.14969V6.14968L14.9333 6.27273ZM16.0176 7.14733L16.0431 6.54787L16.0304 6.54733H16.0176V7.14733ZM17.6 11.0444C17.9314 11.0444 18.2 10.7758 18.2 10.4444C18.2 10.1131 17.9314 9.84444 17.6 9.84444V11.0444ZM16.8 9.84444C16.4686 9.84444 16.2 10.1131 16.2 10.4444C16.2 10.7758 16.4686 11.0444 16.8 11.0444V9.84444ZM13.8 12.7778C13.8 13.7192 13.0102 14.5111 12 14.5111V15.7111C13.6408 15.7111 15 14.4136 15 12.7778H13.8ZM12 14.5111C10.9898 14.5111 10.2 13.7193 10.2 12.7778H9C9 14.4136 10.3592 15.7111 12 15.7111V14.5111ZM10.2 12.7778C10.2 11.8363 10.9898 11.0444 12 11.0444V9.84444C10.3592 9.84444 9 11.1419 9 12.7778H10.2ZM12 11.0444C13.0102 11.0444 13.8 11.8363 13.8 12.7778H15C15 11.1419 13.6408 9.84444 12 9.84444V11.0444ZM13.7778 18.4H10.2222V19.6H13.7778V18.4ZM10.2222 18.4C8.96188 18.4 8.05975 18.3993 7.35919 18.3313C6.66732 18.2641 6.23792 18.1359 5.90284 17.9222L5.25755 18.9339C5.81926 19.2921 6.46247 19.4499 7.24321 19.5257C8.01525 19.6007 8.98574 19.6 10.2222 19.6V18.4ZM3.4 13.0606C3.4 14.2392 3.3992 15.1704 3.47828 15.9124C3.55858 16.6659 3.72654 17.2912 4.10768 17.8357L5.09076 17.1476C4.87268 16.836 4.74103 16.4374 4.67152 15.7853C4.6008 15.1216 4.6 14.2653 4.6 13.0606H3.4ZM5.90284 17.9222C5.57975 17.7161 5.3042 17.4525 5.09076 17.1476L4.10768 17.8357C4.41305 18.272 4.80417 18.6447 5.25755 18.9339L5.90284 17.9222ZM19.4 13.0606C19.4 14.2653 19.3992 15.1216 19.3285 15.7853C19.259 16.4374 19.1273 16.836 18.9092 17.1476L19.8923 17.8357C20.2735 17.2912 20.4414 16.6659 20.5217 15.9124C20.6008 15.1704 20.6 14.2392 20.6 13.0606H19.4ZM13.7778 19.6C15.0143 19.6 15.9847 19.6007 16.7568 19.5257C17.5375 19.4499 18.1807 19.2921 18.7424 18.9339L18.0972 17.9222C17.7621 18.1359 17.3327 18.2641 16.6408 18.3313C15.9402 18.3993 15.0381 18.4 13.7778 18.4V19.6ZM18.9092 17.1476C18.6958 17.4525 18.4202 17.7161 18.0972 17.9222L18.7424 18.9339C19.1958 18.6447 19.5869 18.272 19.8923 17.8357L18.9092 17.1476ZM20.6 13.0606C20.6 11.882 20.6008 10.9508 20.5217 10.2088C20.4414 9.45527 20.2735 8.82999 19.8923 8.2855L18.9092 8.97366C19.1273 9.2852 19.259 9.68377 19.3285 10.3359C19.3992 10.9996 19.4 11.8559 19.4 13.0606H20.6ZM18.0972 8.19906C18.4202 8.40513 18.6958 8.66873 18.9092 8.97366L19.8923 8.2855C19.5869 7.84926 19.1958 7.4765 18.7424 7.18733L18.0972 8.19906ZM4.6 13.0606C4.6 11.8559 4.6008 10.9996 4.67152 10.3359C4.74103 9.68377 4.87268 9.2852 5.09076 8.97366L4.10768 8.2855C3.72654 8.82999 3.55858 9.45527 3.47828 10.2088C3.3992 10.9508 3.4 11.882 3.4 13.0606H4.6ZM5.25755 7.18733C4.80417 7.4765 4.41305 7.84926 4.10768 8.2855L5.09076 8.97366C5.3042 8.66873 5.57975 8.40513 5.90284 8.19906L5.25755 7.18733ZM10.6931 5.6H13.3069V4.4H10.6931V5.6ZM8.47942 6.14968C8.43373 6.36775 8.22287 6.54733 7.9824 6.54733V7.74733C8.7961 7.74733 9.49286 7.16442 9.65391 6.39577L8.47942 6.14968ZM14.3461 6.39577C14.5071 7.16442 15.2039 7.74733 16.0176 7.74733V6.54733C15.7771 6.54733 15.5663 6.36775 15.5206 6.14969L14.3461 6.39577ZM13.3069 5.6C13.8325 5.6 14.253 5.95173 14.3461 6.39577L15.5206 6.14968C15.3035 5.11366 14.3626 4.4 13.3069 4.4V5.6ZM10.6931 4.4C9.63738 4.4 8.69649 5.11365 8.47942 6.14968L9.65391 6.39577C9.74695 5.95173 10.1675 5.6 10.6931 5.6V4.4ZM15.9921 7.74679C17.0797 7.79303 17.663 7.92215 18.0972 8.19906L18.7424 7.18733C18.0241 6.72917 17.1646 6.59555 16.0431 6.54787L15.9921 7.74679ZM7.95691 6.54787C6.83545 6.59555 5.97589 6.72917 5.25755 7.18733L5.90284 8.19906C6.337 7.92215 6.92029 7.79303 8.00788 7.74679L7.95691 6.54787ZM17.6 9.84444H16.8V11.0444H17.6V9.84444Z" fill="#0166FF"/>
</svg>
