<svg width="24" height="24" viewBox="0 0 24 24" fill="none" xmlns="http://www.w3.org/2000/svg">
<path d="M20.984 6.32104C20.9357 5.84931 20.7803 5.42314 20.48 5.05057C20.2146 4.7209 19.8742 4.48503 19.5525 4.21968C19.3916 4.08834 18.9654 3.73186 18.9118 3.53084C18.8475 3.28693 18.9466 3.03766 19.1691 2.95725C19.5042 2.84468 20.0645 2.84736 20.3889 2.8688C20.665 2.89024 20.9491 2.79375 20.9599 2.68118C20.9706 2.56861 20.8071 2.40243 20.5899 2.3515C20.4184 2.3113 20.1556 2.24965 19.9975 2.14512C19.716 1.95482 19.4292 1.60638 19.0378 1.52865C18.4802 1.41876 18.0915 1.62782 17.9092 2.10759C17.6197 2.79375 17.8073 3.67289 18.4159 4.31617C18.6893 4.60564 19.0083 4.85491 19.3139 5.1149C19.5391 5.30788 19.7375 5.51963 19.9278 5.75549C20.4371 6.39073 19.8983 7.55666 19.7696 7.69068C19.3193 8.15705 18.9279 8.24282 18.1505 8.21066C17.3865 8.17849 15.4054 7.15462 14.3572 7.12245C11.7623 7.04204 9.96084 8.24014 9.35232 8.55106C8.44087 9.01743 7.1434 9.04691 7.10319 9.06031C6.51611 9.10588 5.29906 9.15144 4.6959 9.36051C3.84611 9.59638 3.3877 9.98502 3.07674 10.8534C2.98023 11.2287 2.96147 11.5691 3.09818 11.7755C3.39575 12.2258 4.19728 12.601 4.56186 12.8074C4.74951 12.9146 5.11945 12.7806 5.19183 12.7297C5.5993 12.4536 5.95852 12.2365 6.44105 12.1668C6.54292 12.1507 7.22382 12.0301 7.56696 12.282C7.81626 12.4643 8.03072 12.5742 8.3122 12.7029C8.8269 12.936 9.96085 13.2309 9.98229 13.2362C10.1351 13.2764 10.3308 13.3542 10.3308 13.4909C10.3308 13.6838 8.52934 15.1902 8.43015 15.2277C7.97711 15.4126 7.7144 15.7102 7.63129 16.139C7.60449 16.2784 7.54283 16.4231 7.46509 16.5384C7.17289 16.9619 5.8781 18.8006 5.53496 19.3045C5.37144 19.5403 5.20255 19.6583 4.96933 19.6958C4.63424 19.7494 4.38225 19.7574 4.24017 19.996C4.15171 20.1487 4.20801 20.4463 4.26698 20.6392C4.334 20.859 4.15171 21.1324 4.13831 21.1646C3.97746 21.4782 3.91044 21.7784 3.93457 22.0813C3.94261 22.2045 3.95066 22.4913 4.15439 22.4994C4.35813 22.5101 4.41174 22.3788 4.43587 22.3305C4.46536 22.2716 4.57795 22.0276 4.61011 21.9687C4.74147 21.7248 5.24277 21.1994 5.29906 21.1378C5.47867 20.9394 8.1594 17.2487 8.1594 17.2487C8.30684 17.0557 8.45964 16.8573 8.70895 16.7608C9.05476 16.6268 9.2853 16.3508 9.35232 15.9862C9.3684 15.9058 10.438 15.0856 10.8937 14.7399C11.0599 14.6139 12.0679 14.2092 12.084 14.2145C12.084 14.2226 11.1618 15.611 10.875 16.3481C10.8294 16.466 10.7543 16.8681 10.8374 17.0718C10.9661 17.3854 11.2422 17.522 11.5559 17.4282C11.6524 17.3988 11.7382 17.3505 11.8213 17.3049C11.8588 17.2835 11.8963 17.2647 11.9339 17.246C11.9714 17.2272 12.0062 17.2085 12.0438 17.1897C12.1296 17.1441 12.2127 17.1012 12.2958 17.0744C12.604 16.9726 12.915 16.8761 13.226 16.7796L13.8559 16.5839C14.2956 16.4472 14.7352 16.3105 15.1749 16.1765C15.2714 16.147 15.3652 16.1122 15.4858 16.1149C15.5528 16.1149 15.6252 16.1417 15.6493 16.2409C15.6493 16.2462 15.7003 16.5464 15.8853 16.667C15.9791 16.7287 16.1801 16.7769 16.3303 16.7716C16.4616 16.7662 16.6278 16.8037 16.7136 16.8788L16.8235 16.9726C16.9039 17.0396 17.0031 17.0771 17.0701 17.0959C17.1398 17.1146 17.2685 17.1146 17.3436 17.0369C17.424 16.9511 17.3945 16.8118 17.3838 16.7689C17.3677 16.7099 17.3355 16.6643 17.3114 16.6241L17.2444 16.5196C17.18 16.4178 17.1184 16.3159 17.0514 16.2141C16.8664 15.9326 16.6841 15.6539 16.4965 15.3751C16.3008 15.0856 15.9978 14.9704 15.6011 15.032C15.4483 15.0562 12.0947 16.0961 12.0706 16.1015C12.2502 15.7718 13.3252 14.2869 13.6254 14.0993C13.8479 13.968 13.9417 13.842 14.3465 13.7723C15.1373 13.6383 16.853 13.2416 17.2792 12.9334C18.1076 12.333 18.1746 10.9687 18.1612 10.6953C18.1451 10.4219 18.2336 10.2343 18.4722 10.1083C18.5901 10.0467 19.8661 9.34175 20.4907 8.30179C20.866 7.69336 21.0591 7.04204 20.984 6.32104Z" fill="#494949"/>
</svg>
