<svg width="24" height="24" viewBox="0 0 24 24" fill="none" xmlns="http://www.w3.org/2000/svg">
<path d="M17.5456 2.5H6.46224C4.27645 2.5 2.50391 4.27254 2.50391 6.45833V17.5417C2.50391 19.7275 4.27645 21.5 6.46224 21.5H17.5456C19.7322 21.5 21.5039 19.7275 21.5039 17.5417V6.45833C21.5039 4.27254 19.7322 2.5 17.5456 2.5ZM8.83724 17.5417H6.46224V8.83333H8.83724V17.5417ZM7.64974 7.8295C6.88499 7.8295 6.26432 7.20408 6.26432 6.433C6.26432 5.66192 6.88499 5.0365 7.64974 5.0365C8.41449 5.0365 9.03516 5.66192 9.03516 6.433C9.03516 7.20408 8.41528 7.8295 7.64974 7.8295ZM18.3372 17.5417H15.9622V13.1052C15.9622 10.4388 12.7956 10.6407 12.7956 13.1052V17.5417H10.4206V8.83333H12.7956V10.2306C13.9007 8.18338 18.3372 8.03217 18.3372 12.1908V17.5417Z" fill="#494949"/>
</svg>
