<svg width="24" height="24" viewBox="0 0 24 24" fill="none" xmlns="http://www.w3.org/2000/svg">
<path d="M19.1816 15.6118C20.044 14.7491 20.5284 13.5793 20.5284 12.3595C20.5284 11.1398 20.044 9.97005 19.1816 9.10742M13.6721 5.07855C12.5405 4.65535 10.1392 5.99847 8.15204 7.75567H6.68C5.704 7.75567 4.76797 8.14344 4.07785 8.83356C3.38771 9.5237 3 10.4597 3 11.4357V13.2757C3 14.2516 3.38771 15.1877 4.07785 15.8779C4.76797 16.568 5.704 16.9557 6.68 16.9557H8.15204C10.0932 18.7405 12.4945 20.0561 13.6721 19.6421C15.6041 18.9245 15.926 15.0421 15.926 12.3557C15.926 9.66927 15.6041 5.79615 13.6721 5.07855Z" stroke="#5A5E66" stroke-width="1.2" stroke-linecap="round" stroke-linejoin="round"/>
</svg>
