<svg width="36" height="36" viewBox="0 0 36 36" fill="none" xmlns="http://www.w3.org/2000/svg">
<path fill-rule="evenodd" clip-rule="evenodd" d="M8 15.6049V20.4073C8 24.9351 8 27.199 9.46447 28.6056C10.5966 29.6931 12.2622 29.9398 15.138 29.9958C15.4574 30.002 15.617 30.0051 15.7564 29.9771C16.2277 29.8822 16.6097 29.5226 16.718 29.072C16.75 28.9388 16.75 28.7804 16.75 28.4636V28.4636C16.75 26.554 16.75 25.5992 16.9373 24.8093C17.5777 22.1091 19.773 20.0006 22.5842 19.3855C23.4066 19.2056 24.4018 19.2056 26.3922 19.2056H26.3923C26.7247 19.2056 26.8908 19.2056 27.0282 19.1755C27.4963 19.0729 27.8618 18.7218 27.9687 18.2722C28 18.1403 28 17.9808 28 17.662V15.6049C28 11.0771 28 8.81321 26.5355 7.4066C25.0711 6 22.714 6 18 6C13.286 6 10.9289 6 9.46447 7.4066C8 8.81321 8 11.0771 8 15.6049ZM14 8.5C13.7239 8.5 13.5 8.72386 13.5 9C13.5 9.27614 13.7239 9.5 14 9.5H22C22.2761 9.5 22.5 9.27614 22.5 9C22.5 8.72386 22.2761 8.5 22 8.5H14Z" fill="white"/>
<g clip-path="url(#clip0_38770_91180)">
<path fill-rule="evenodd" clip-rule="evenodd" d="M24.5 32C27.5376 32 30 29.5376 30 26.5C30 23.4624 27.5376 21 24.5 21C21.4624 21 19 23.4624 19 26.5C19 29.5376 21.4624 32 24.5 32ZM27.7997 25.1747C28.0516 24.9229 28.0516 24.5146 27.7997 24.2628C27.5479 24.0109 27.1396 24.0109 26.8878 24.2628L23.7812 27.3693L22.456 26.044C22.2041 25.7922 21.7959 25.7922 21.544 26.044C21.2922 26.2959 21.2922 26.7041 21.544 26.956L23.3253 28.7372C23.5771 28.9891 23.9854 28.9891 24.2372 28.7372L27.7997 25.1747Z" fill="white"/>
</g>
<defs>
<clipPath id="clip0_38770_91180">
<rect x="19" y="21" width="11" height="11" rx="5.5" fill="white"/>
</clipPath>
</defs>
</svg>
