<svg width="24" height="24" viewBox="0 0 24 24" fill="none" xmlns="http://www.w3.org/2000/svg">
<g clip-path="url(#clip0_37029_78177)">
<path d="M15.7906 0H8.20941C3.67548 0 0 3.67548 0 8.20941V15.7906C0 20.3245 3.67548 24 8.20941 24H15.7906C20.3245 24 24 20.3245 24 15.7906V8.20941C24 3.67548 20.3245 0 15.7906 0Z" fill="#727689"/>
<path d="M14.7822 17.3259C16.0892 17.3259 17.3194 16.8167 18.2454 15.8907C19.1595 14.98 19.6823 13.7174 19.6789 12.4275C19.6789 12.1131 19.4226 11.8568 19.1082 11.8568C18.7938 11.8568 18.5376 12.1131 18.5376 12.4275C18.5376 13.4304 18.1463 14.3718 17.4373 15.0825C16.7419 15.7813 15.7783 16.1828 14.7924 16.1828H8.64164L10.6389 14.1838C10.7466 14.0762 10.8081 13.9344 10.8081 13.7806C10.8081 13.6269 10.75 13.485 10.6424 13.3774C10.5364 13.2698 10.3878 13.2083 10.2374 13.2083H10.234C10.082 13.2083 9.93673 13.2681 9.82909 13.3757L6.88867 16.3144C6.66827 16.5382 6.66827 16.9004 6.88867 17.1243L9.91622 20.1501C10.0239 20.2577 10.1674 20.3175 10.3194 20.3175C10.4715 20.3175 10.615 20.2577 10.7227 20.1518C10.832 20.0425 10.8918 19.8989 10.8918 19.7469C10.8918 19.5948 10.8337 19.4513 10.7261 19.3437L8.70827 17.3259H14.7822Z" fill="white"/>
<path d="M5.77922 8.10974C4.86343 9.0204 4.34061 10.2813 4.34574 11.573C4.34574 11.8873 4.60373 12.1436 4.91811 12.1436C5.07017 12.1436 5.21369 12.0838 5.32133 11.9762C5.42896 11.8686 5.48876 11.725 5.48876 11.573C5.48705 10.582 5.88685 9.61498 6.58907 8.91618C7.28445 8.21738 8.24807 7.81588 9.2339 7.81588H15.3847L13.3857 9.81488C13.278 9.92252 13.2182 10.066 13.2182 10.2181C13.2182 10.3702 13.2763 10.5137 13.384 10.6213C13.4933 10.7307 13.6368 10.7905 13.7889 10.7905C13.941 10.7905 14.0845 10.7307 14.1921 10.6247L17.1342 7.68261C17.3546 7.45879 17.3546 7.09658 17.1342 6.87276L14.1084 3.84691C13.8863 3.62309 13.5224 3.6248 13.2985 3.84691C13.0764 4.06902 13.0747 4.43124 13.2985 4.65335L15.318 6.67286H9.24415C7.93711 6.67286 6.70696 7.182 5.78093 8.10804L5.77922 8.10974Z" fill="white"/>
</g>
<defs>
<clipPath id="clip0_37029_78177">
<rect width="24" height="24" fill="white"/>
</clipPath>
</defs>
</svg>
