<svg width="24" height="24" viewBox="0 0 24 24" fill="none" xmlns="http://www.w3.org/2000/svg">
<path d="M16.944 8.83928L17.3148 8.46852C17.9291 7.85424 18.925 7.85424 19.5393 8.46852C20.1536 9.08281 20.1536 10.0788 19.5393 10.693L19.1685 11.0638M16.944 8.83928C16.944 8.83928 16.9904 9.62712 17.6855 10.3223C18.3807 11.0174 19.1685 11.0638 19.1685 11.0638M16.944 8.83928L13.5355 12.2478C13.3047 12.4786 13.1892 12.5941 13.09 12.7213C12.9729 12.8715 12.8725 13.0339 12.7905 13.2058C12.7211 13.3515 12.6695 13.5064 12.5662 13.8161L12.2357 14.8078L12.1287 15.1286M19.1685 11.0638L15.76 14.4723C15.5292 14.7031 15.4137 14.8186 15.2865 14.9179C15.1363 15.035 14.9739 15.1354 14.802 15.2173C14.6563 15.2867 14.5014 15.3383 14.1917 15.4416L13.2 15.7721L12.8792 15.8791M12.8792 15.8791L12.5583 15.986C12.4059 16.0368 12.2379 15.9972 12.1243 15.8836C12.0106 15.7699 11.971 15.6019 12.0218 15.4495L12.1287 15.1286M12.8792 15.8791L12.1287 15.1286" stroke="#0E0E0E" stroke-width="1.5"/>
<path d="M8.80078 12.8086H10.8008" stroke="#0E0E0E" stroke-width="1.5" stroke-linecap="round"/>
<path d="M8.80078 9.60742H14.0008" stroke="#0E0E0E" stroke-width="1.5" stroke-linecap="round"/>
<path d="M8.80078 16.0078H10.0008" stroke="#0E0E0E" stroke-width="1.5" stroke-linecap="round"/>
<path d="M18.2635 4.94507C17.3263 4.00781 15.8178 4.00781 12.8008 4.00781H11.2008C8.18379 4.00781 6.6753 4.00781 5.73804 4.94507C4.80078 5.88233 4.80078 7.39082 4.80078 10.4078V13.6078C4.80078 16.6248 4.80078 18.1333 5.73804 19.0706C6.6753 20.0078 8.18379 20.0078 11.2008 20.0078H12.8008C15.8178 20.0078 17.3263 20.0078 18.2635 19.0706C19.018 18.3161 19.1651 17.1915 19.1938 15.2078" stroke="#0E0E0E" stroke-width="1.5" stroke-linecap="round"/>
</svg>
