<svg width="24" height="24" viewBox="0 0 24 24" fill="none" xmlns="http://www.w3.org/2000/svg">
<path d="M5.66195 19.4384L5.66249 19.439C5.92764 19.691 6.26209 19.8476 6.61546 19.8896C6.98069 19.9324 7.38146 19.7613 7.92187 19.3687L7.922 19.3686C8.45304 18.983 9.10839 18.3884 9.98119 17.5934L9.9861 17.5889L9.98613 17.5889L10.0127 17.5653L10.0432 17.5376C10.4174 17.1973 10.7026 16.9379 10.951 16.7518C11.2056 16.5597 11.421 16.4459 11.6508 16.397L11.6578 16.3955L11.6578 16.3956C11.8839 16.3503 12.1161 16.3503 12.3422 16.3956L12.3492 16.397L12.3492 16.397C12.5793 16.446 12.795 16.5599 13.05 16.7525L13.0502 16.7526C13.3018 16.9427 13.5957 17.2092 13.9873 17.5652L14.0139 17.5889L14.0183 17.5928L14.0182 17.5929C14.8913 18.3861 15.5471 18.9812 16.0791 19.3694C16.6162 19.7609 17.0191 19.9324 17.3845 19.8896C17.7379 19.8476 18.0724 19.691 18.3375 19.439L18.3381 19.4384C18.6179 19.1731 18.761 18.7328 18.8299 18.0536L18.83 18.0527C18.8992 17.38 18.9 16.4724 18.9 15.2677V11.2376C18.9 9.56548 18.8989 8.30592 18.7739 7.33345C18.6472 6.3529 18.3928 5.66584 17.8875 5.14175L17.8869 5.1411C17.3845 4.61837 16.7312 4.35764 15.793 4.22696L5.66195 19.4384ZM5.66195 19.4384C5.38253 19.1735 5.24104 18.7343 5.16999 18.0524C5.10075 17.3798 5.1 16.4723 5.1 15.2677V11.2376C5.1 9.56395 5.10114 8.30657 5.22597 7.3342C5.3548 6.35199 5.60767 5.66494 6.11116 5.1411C6.61346 4.61852 7.26845 4.35768 8.20506 4.22696L5.66195 19.4384ZM11.9547 4.09609C10.3438 4.09609 9.13676 4.09742 8.20533 4.22692L11.9547 4.09609ZM11.9547 4.09609H12.0433C13.6544 4.09609 14.8614 4.09742 15.7929 4.22694L11.9547 4.09609Z" stroke="#0166FF" stroke-width="1.2" stroke-linecap="round"/>
</svg>
