<svg width="24" height="24" viewBox="0 0 24 24" fill="none" xmlns="http://www.w3.org/2000/svg">
<g clip-path="url(#clip0_20065_92311)">
<path d="M5.12018 17.6644C5.23018 17.8544 5.39018 18.0044 5.57018 18.1144C5.76018 18.2244 5.97018 18.2844 6.19018 18.2844C6.32018 18.2844 6.45018 18.2644 6.58018 18.2244L8.12018 17.7044H8.13018C8.39018 17.8844 8.66018 18.0444 8.95018 18.1844H8.96018V18.2044L9.28018 19.7944C9.34018 20.0744 9.49018 20.3344 9.72018 20.5144C9.94018 20.6944 10.2102 20.7844 10.4902 20.7844H10.5102H13.4802H13.5002C13.7802 20.7844 14.0502 20.6844 14.2702 20.5144C14.5002 20.3344 14.6502 20.0744 14.7102 19.7944L15.0302 18.1944H15.0402C15.3302 18.0444 15.6102 17.8844 15.8702 17.7144H15.8802L17.4102 18.2344C17.5302 18.2744 17.6602 18.2944 17.8002 18.2944C18.0202 18.2944 18.2302 18.2344 18.4202 18.1244C18.6102 18.0144 18.7602 17.8644 18.8702 17.6744L20.3102 15.1544C20.4502 14.9044 20.5102 14.6144 20.4602 14.3344C20.4102 14.0544 20.2702 13.7944 20.0502 13.6044L18.8502 12.5044V11.5144L20.0602 10.4444C20.2802 10.2544 20.4202 9.98438 20.4702 9.70437C20.5102 9.41437 20.4502 9.12437 20.3002 8.87437L18.8102 6.35437C18.7002 6.16437 18.5502 6.01437 18.3602 5.90438C18.1702 5.79438 17.9602 5.73438 17.7402 5.73438C17.6102 5.73438 17.4802 5.75437 17.3502 5.79437L15.8102 6.31437C15.5502 6.13437 15.2702 5.97438 14.9902 5.83437H14.9802V5.81437L14.6602 4.22438C14.6002 3.94438 14.4502 3.68438 14.2202 3.50438C14.0002 3.32438 13.7202 3.23438 13.4402 3.23438H10.4502C10.1702 3.23438 9.89018 3.33438 9.67018 3.50438C9.44018 3.68438 9.29018 3.94438 9.23018 4.22438L8.91018 5.82437H8.90018C8.61018 5.96438 8.34018 6.12437 8.07018 6.30437H8.06018H8.05018L6.55018 5.76437C6.42018 5.73438 6.29018 5.71438 6.16018 5.72438C5.94018 5.72438 5.73018 5.78438 5.54018 5.89438C5.35018 6.00437 5.20018 6.15437 5.09018 6.34437L3.64018 8.86438C3.50018 9.11438 3.44018 9.40437 3.49018 9.68437C3.54018 9.96438 3.68018 10.2244 3.89018 10.4144L5.09018 11.5144V12.5044L3.90018 13.5744C3.68018 13.7644 3.53018 14.0244 3.48018 14.3144C3.43018 14.6044 3.49018 14.8944 3.64018 15.1444L5.13018 17.6644H5.12018ZM4.69018 14.5044L6.39018 13.0044C6.28018 12.3544 6.28018 11.7044 6.39018 11.0544L4.67018 9.49438V9.47437L6.18018 6.93438H6.20018L8.35018 7.66437C8.85018 7.24437 9.42018 6.91438 10.0402 6.68438L10.4902 4.41437H13.5002V4.43438L13.9502 6.65438C14.5602 6.88438 15.1302 7.21438 15.6302 7.63438L17.8002 6.92438V6.94438L19.3102 9.48438H19.2902L17.5902 11.0044C17.7002 11.6544 17.7002 12.3144 17.5902 12.9544L19.3102 14.5144V14.5344L17.8002 17.0744H17.7802L15.6302 16.3444C15.1302 16.7644 14.5602 17.0944 13.9402 17.3244L13.4902 19.5944H10.4802V19.5744L10.0302 17.3544C9.42018 17.1244 8.85018 16.7944 8.35018 16.3744L6.18018 17.0844V17.0644L4.67018 14.5244H4.69018V14.5044Z" fill="#9A9A9A"/>
<path d="M9.34077 9.35391C8.81077 9.88391 8.46077 10.5439 8.31077 11.2739C8.16077 12.0039 8.24077 12.7539 8.52077 13.4439C8.81077 14.1339 9.28077 14.7139 9.90077 15.1339C10.5208 15.5439 11.2408 15.7639 11.9908 15.7639C11.9908 15.7639 12.0208 15.7639 12.0308 15.7639C12.5108 15.7639 12.9808 15.6739 13.4308 15.4839C13.8908 15.2939 14.3008 15.0239 14.6508 14.6739C15.0008 14.3239 15.2708 13.9139 15.4608 13.4539C15.6508 12.9939 15.7408 12.5039 15.7408 12.0139C15.7408 11.2639 15.5208 10.5439 15.1108 9.92391C14.7008 9.30391 14.1108 8.82391 13.4208 8.54391C12.9608 8.35391 12.4808 8.25391 11.9908 8.25391C11.7408 8.25391 11.5008 8.27391 11.2508 8.32391C10.5208 8.47391 9.85077 8.82391 9.33077 9.35391H9.34077ZM12.0508 9.46391C12.3708 9.46391 12.6808 9.52391 12.9808 9.64391C13.3008 9.77391 13.5808 9.95391 13.8108 10.1939C14.0508 10.4339 14.2308 10.7139 14.3608 11.0239C14.4908 11.3339 14.5508 11.6639 14.5408 12.0039C14.5408 12.3439 14.4908 12.6739 14.3608 12.9839C14.2308 13.2939 14.0508 13.5739 13.8108 13.8139C13.5708 14.0539 13.2908 14.2339 12.9808 14.3639C12.6908 14.4839 12.3708 14.5439 12.0608 14.5439H11.9408C11.6208 14.5439 11.3108 14.4839 11.0208 14.3639C10.7108 14.2339 10.4308 14.0539 10.1908 13.8139C9.95077 13.5739 9.77077 13.2939 9.64077 12.9839C9.51077 12.6739 9.45077 12.3439 9.46077 12.0039C9.46077 11.6639 9.51077 11.3339 9.64077 11.0239C9.77077 10.7139 9.95077 10.4239 10.1908 10.1939C10.4308 9.95391 10.7108 9.77391 11.0208 9.64391C11.3208 9.52391 11.6308 9.46391 11.9508 9.46391H12.0608H12.0508Z" fill="#9A9A9A"/>
</g>
<defs>
<clipPath id="clip0_20065_92311">
<rect width="17.08" height="17.54" fill="white" transform="translate(3.46094 3.23438)"/>
</clipPath>
</defs>
</svg>
