<svg width="24" height="24" viewBox="0 0 24 24" fill="none" xmlns="http://www.w3.org/2000/svg">
<path d="M15.8921 10.5H13.4971C11 10.5 10 11.1393 10 13.9971V16.3921C10 19.1393 11 19.8893 13.4971 19.8893H15.8921C18.3945 19.8893 19.3893 19.1393 19.3893 16.3921V13.9971C19.3893 11.1393 18.5 10.5 15.8921 10.5Z" stroke="white" stroke-width="1.2"/>
<path fill-rule="evenodd" clip-rule="evenodd" d="M8.66875 19.9156C8.66875 19.587 8.40222 19.322 8.07373 19.3131C7.61912 19.3008 7.24614 19.2733 6.91875 19.2306C6.31875 19.1506 5.99875 19.0106 5.76875 18.7906C5.53875 18.5706 5.38875 18.2606 5.30875 17.6806C5.22875 17.0806 5.22875 16.2906 5.22875 15.1606V10.4206C5.22875 9.28063 5.22875 8.49063 5.30875 7.90063C5.38875 7.32063 5.53875 7.01062 5.76875 6.79062C5.96875 6.60062 6.23875 6.47062 6.69875 6.38063C7.06875 6.32063 7.51875 6.29062 8.10875 6.27062C8.21875 7.16062 8.99875 7.74062 9.93875 7.74062H14.0387C14.9887 7.74062 15.7687 7.15062 15.8687 6.27062C16.4587 6.28062 16.9087 6.31063 17.2787 6.38063C17.7487 6.46062 18.0087 6.59062 18.2087 6.79062C18.4387 7.01062 18.5887 7.32063 18.6687 7.90063C18.7084 8.1916 18.7306 8.44321 18.7411 8.78561C18.7515 9.12511 19.0241 9.40063 19.3638 9.40063C19.7034 9.40063 19.981 9.12512 19.9716 8.78559C19.9608 8.39681 19.9363 8.08719 19.8888 7.74062C19.7887 7.03062 19.5787 6.43062 19.0787 5.95062C18.6487 5.53062 18.1187 5.33063 17.4987 5.22063C17.0387 5.14062 16.4987 5.11063 15.8687 5.09063C15.7687 4.20063 14.9887 3.64062 14.0287 3.64062H9.92875C8.97875 3.64062 8.18875 4.20063 8.08875 5.09063C7.45875 5.10063 6.91875 5.13063 6.45875 5.22063C5.83875 5.33063 5.30875 5.54062 4.87875 5.95062C4.38875 6.43062 4.16875 7.03062 4.06875 7.74062C3.96875 8.43062 3.96875 9.30063 3.96875 10.3806V15.2106C3.96875 16.2906 3.96875 17.1606 4.06875 17.8506C4.16875 18.5606 4.37875 19.1606 4.87875 19.6406C5.36875 20.1206 5.99875 20.3206 6.72875 20.4206C7.11472 20.4716 7.56432 20.4961 8.07371 20.5056C8.40226 20.5117 8.66875 20.2442 8.66875 19.9156ZM9.33875 5.28062C9.33875 4.95062 9.61875 4.79061 9.95875 4.79061H14.0588C14.3988 4.79061 14.6788 4.96062 14.6788 5.28062V6.07062C14.6788 6.40062 14.3988 6.50062 14.0588 6.50062H9.95875C9.61875 6.50062 9.33875 6.39062 9.33875 6.07062V5.28062Z" fill="white"/>
</svg>
