<svg width="24" height="24" viewBox="0 0 24 24" fill="none" xmlns="http://www.w3.org/2000/svg">
<path d="M9.00391 4.49609H7.50391C7.10608 4.49609 6.72455 4.65413 6.44325 4.93543C6.16194 5.21674 6.00391 5.59827 6.00391 5.99609V17.9961C6.00391 18.3939 6.16194 18.7754 6.44325 19.0568C6.72455 19.3381 7.10608 19.4961 7.50391 19.4961H9.00391C9.40173 19.4961 9.78326 19.3381 10.0646 19.0568C10.3459 18.7754 10.5039 18.3939 10.5039 17.9961V5.99609C10.5039 5.59827 10.3459 5.21674 10.0646 4.93543C9.78326 4.65413 9.40173 4.49609 9.00391 4.49609ZM16.5039 4.49609H15.0039C14.6061 4.49609 14.2246 4.65413 13.9432 4.93543C13.6619 5.21674 13.5039 5.59827 13.5039 5.99609V17.9961C13.5039 18.3939 13.6619 18.7754 13.9432 19.0568C14.2246 19.3381 14.6061 19.4961 15.0039 19.4961H16.5039C16.9017 19.4961 17.2833 19.3381 17.5646 19.0568C17.8459 18.7754 18.0039 18.3939 18.0039 17.9961V5.99609C18.0039 5.59827 17.8459 5.21674 17.5646 4.93543C17.2833 4.65413 16.9017 4.49609 16.5039 4.49609Z" fill="white"/>
</svg>
