<svg width="36" height="36" viewBox="0 0 36 36" fill="none" xmlns="http://www.w3.org/2000/svg">
<path fill-rule="evenodd" clip-rule="evenodd" d="M5.6402 8.18414C4 9.86827 4 12.5788 4 18C4 23.4212 4 26.1317 5.6402 27.8159C7.2804 29.5 9.92027 29.5 15.2 29.5H20.8C26.0797 29.5 28.7196 29.5 30.3598 27.8159C32 26.1317 32 23.4212 32 18C32 12.5788 32 9.86827 30.3598 8.18414C28.7196 6.5 26.0797 6.5 20.8 6.5H15.2C9.92027 6.5 7.2804 6.5 5.6402 8.18414ZM27.2066 11.5598C27.5779 12.0172 27.5177 12.6971 27.0722 13.0782L23.9971 15.7094C22.7562 16.7713 21.7504 17.6319 20.8628 18.2181C19.9381 18.8288 19.0375 19.2145 18 19.2145C16.9625 19.2145 16.0619 18.8288 15.1372 18.2181C14.2496 17.6319 13.2438 16.7713 12.0029 15.7095L8.92781 13.0782C8.48232 12.6971 8.42212 12.0172 8.79337 11.5598C9.16461 11.1024 9.8267 11.0406 10.2722 11.4218L13.2946 14.0079C14.6008 15.1255 15.5076 15.899 16.2732 16.4046C17.0143 16.894 17.5169 17.0583 18 17.0583C18.4831 17.0583 18.9857 16.894 19.7268 16.4046C20.4924 15.899 21.3992 15.1255 22.7054 14.0079L25.7278 11.4218C26.1733 11.0406 26.8354 11.1024 27.2066 11.5598Z" fill="white"/>
</svg>
