<svg width="24" height="24" viewBox="0 0 24 24" fill="none" xmlns="http://www.w3.org/2000/svg">
<path d="M20 15.6596V17.617C20 18.249 19.7489 18.8551 19.302 19.302C18.8551 19.7489 18.249 20 17.617 20H15.6596H8.34043H6.38298C5.75097 20 5.14485 19.7489 4.69796 19.302C4.25106 18.8551 4 18.249 4 17.617V15.6596M20 8.34043V6.38298C20 5.75097 19.7489 5.14485 19.302 4.69796C18.8551 4.25106 18.249 4 17.617 4H15.6596H8.34043H6.38298C5.75097 4 5.14485 4.25106 4.69796 4.69796C4.25106 5.14485 4 5.75097 4 6.38298V8.34043M7.00709 12H16.9929" stroke="#0E0E0E" stroke-width="1.5" stroke-linecap="round" stroke-linejoin="round"/>
</svg>
