<svg width="24" height="24" viewBox="0 0 24 24" fill="none" xmlns="http://www.w3.org/2000/svg">
<path d="M18.8256 9.1875L14.8564 5.1875M18.8256 9.1875L13.8656 14.1859C13.2119 14.8446 12.4186 15.3646 11.5078 15.5229C10.5881 15.6828 9.44679 15.736 8.90252 15.1875C8.35825 14.639 8.41104 13.4888 8.56966 12.562C8.72675 11.6441 9.24279 10.8446 9.89637 10.1859L14.8564 5.1875M18.8256 9.1875C18.8256 9.1875 21.8024 6.1875 19.8178 4.1875C17.8332 2.1875 14.8564 5.1875 14.8564 5.1875M20.3691 12C20.3691 18.5 18.3845 20.5 11.9345 20.5C5.4846 20.5 3.5 18.5 3.5 12C3.5 5.5 5.4846 3.5 11.9345 3.5" stroke="#0166FF" stroke-width="1.5" stroke-linecap="round" stroke-linejoin="round"/>
</svg>
