<svg width="24" height="24" viewBox="0 0 24 24" fill="none" xmlns="http://www.w3.org/2000/svg">
<path d="M11.9997 20.142C5.36131 20.142 3.64258 18.4241 3.64258 11.7849C3.64258 5.14562 5.36131 3.42773 11.9997 3.42773C18.6381 3.42773 20.3569 5.14562 20.3569 11.7849C20.3569 18.4241 18.6381 20.142 11.9997 20.142Z" stroke="#0E0E0E" stroke-width="1.2"/>
<path d="M9.63895 11.7824C9.63895 12.3741 9.15926 12.8538 8.56752 12.8538C7.97579 12.8538 7.49609 12.3741 7.49609 11.7824C7.49609 11.1906 7.97579 10.7109 8.56752 10.7109C9.15926 10.7109 9.63895 11.1906 9.63895 11.7824Z" fill="#0E0E0E"/>
<path d="M13.0675 11.7824C13.0675 12.3741 12.5878 12.8538 11.9961 12.8538C11.4044 12.8538 10.9247 12.3741 10.9247 11.7824C10.9247 11.1906 11.4044 10.7109 11.9961 10.7109C12.5878 10.7109 13.0675 11.1906 13.0675 11.7824Z" fill="#0E0E0E"/>
<path d="M16.4961 11.7824C16.4961 12.3741 16.0164 12.8538 15.4247 12.8538C14.8329 12.8538 14.3532 12.3741 14.3532 11.7824C14.3532 11.1906 14.8329 10.7109 15.4247 10.7109C16.0164 10.7109 16.4961 11.1906 16.4961 11.7824Z" fill="#0E0E0E"/>
</svg>
