<svg width="24" height="24" viewBox="0 0 24 24" fill="none" xmlns="http://www.w3.org/2000/svg">
<path d="M15.1074 3.92016C15.9229 2.97983 16.3266 1.76087 16.2304 0.529297C15.6204 0.579057 15.0267 0.748161 14.4843 1.02665C13.9418 1.30513 13.4616 1.68737 13.0718 2.15087C12.6786 2.59366 12.3827 3.11144 12.2027 3.67176C12.0226 4.23209 11.9624 4.82288 12.0257 5.40714C13.1287 5.50234 14.3386 4.81957 15.1074 3.92016Z" fill="#494949"/>
<path d="M20.7008 15.8881C20.365 16.9575 19.8778 17.9752 19.2535 18.9113C18.3343 20.2243 17.3684 21.4783 15.9378 21.5144C14.5072 21.5505 13.9992 20.7003 12.3581 20.7003C10.8272 20.7003 10.3091 21.4783 8.95212 21.5275C7.54161 21.5866 6.48205 20.1784 5.55285 18.8588C3.71451 16.2328 2.31403 11.4994 4.18914 8.3744C4.63685 7.59398 5.28371 6.94146 6.06609 6.48102C6.84847 6.02059 7.73942 5.76809 8.6513 5.74838C10.0418 5.7057 11.3486 6.65436 12.1642 6.65436C12.9797 6.65436 14.5039 5.51204 16.2186 5.6696C16.9932 5.69876 17.7505 5.90394 18.4308 6.26903C19.1111 6.63412 19.6959 7.14917 20.1393 7.7737C20.0457 7.82622 17.7695 9.11954 17.7995 11.6733C17.7988 12.5802 18.0748 13.4664 18.5919 14.2177C19.1091 14.969 19.8436 15.5508 20.7008 15.8881Z" fill="#494949"/>
</svg>
