<svg width="24" height="24" viewBox="0 0 24 24" fill="none" xmlns="http://www.w3.org/2000/svg">
<g clip-path="url(#clip0_20065_92317)">
<path d="M19.5595 10.1082C19.5395 12.1057 18.9583 13.7887 17.7824 15.2516C16.3779 16.9994 14.9612 18.7377 13.5422 20.4738C12.7145 21.4865 11.3111 21.5021 10.4884 20.4983C9.00557 18.6891 7.50556 16.8916 6.07272 15.0427C3.96205 12.3185 3.8216 8.29621 6.09437 5.5156C7.55774 3.7248 9.46134 2.82661 11.7685 2.76517C13.6738 2.71434 15.3903 3.2232 16.8659 4.45263C18.387 5.71949 19.2675 7.34997 19.5023 9.32622C19.5378 9.62339 19.5467 9.92446 19.5595 10.1082ZM12.0095 4.10855C9.45024 4.03649 7.38176 5.4955 6.47076 7.37958C5.28275 9.83788 5.58919 12.1956 7.22021 14.3367C8.59531 16.1414 10.0687 17.8702 11.5015 19.6303C11.7913 19.9861 12.2121 19.9923 12.4997 19.6392C13.963 17.8412 15.4675 16.075 16.8692 14.2289C18.3043 12.3386 18.6279 10.2054 17.8008 7.95883C16.9914 5.76026 14.7774 4.03481 12.0095 4.10855Z" fill="#9A9A9A"/>
<path d="M11.6036 10.9921C11.6475 10.929 11.683 10.857 11.7363 10.8033C12.5435 9.98782 13.3507 9.17229 14.1623 8.36124C14.5642 7.96018 15.1799 8.10932 15.3126 8.63606C15.3742 8.87904 15.3109 9.09689 15.1377 9.27172C14.1057 10.3146 13.0726 11.3569 12.0339 12.3931C11.7524 12.674 11.3638 12.6684 11.0835 12.3903C10.4911 11.8026 9.90267 11.2105 9.31866 10.6145C9.04886 10.3386 9.05607 9.91465 9.31977 9.6577C9.57791 9.40634 9.98595 9.40578 10.2563 9.67055C10.6388 10.0454 11.0146 10.4269 11.3888 10.81C11.4415 10.8637 11.4693 10.9424 11.5087 11.0089C11.5404 11.0033 11.572 10.9983 11.6031 10.9927L11.6036 10.9921Z" fill="#9A9A9A"/>
</g>
<defs>
<clipPath id="clip0_20065_92317">
<rect width="15.12" height="18.48" fill="white" transform="translate(4.43945 2.76172)"/>
</clipPath>
</defs>
</svg>
