<svg width="24" height="24" viewBox="0 0 24 24" fill="none" xmlns="http://www.w3.org/2000/svg">
<path d="M3 6.78947C3 5.0031 3 4.10991 3.55496 3.55496C4.10991 3 5.0031 3 6.78947 3C8.57585 3 9.46904 3 10.024 3.55496C10.5789 4.10991 10.5789 5.0031 10.5789 6.78947C10.5789 8.57585 10.5789 9.46904 10.024 10.024C9.46904 10.5789 8.57585 10.5789 6.78947 10.5789C5.0031 10.5789 4.10991 10.5789 3.55496 10.024C3 9.46904 3 8.57585 3 6.78947Z" fill="#727689"/>
<path d="M3 17.2105C3 15.4242 3 14.531 3.55496 13.976C4.10991 13.4211 5.0031 13.4211 6.78947 13.4211C8.57585 13.4211 9.46904 13.4211 10.024 13.976C10.5789 14.531 10.5789 15.4242 10.5789 17.2105C10.5789 18.9969 10.5789 19.8901 10.024 20.445C9.46904 21 8.57585 21 6.78947 21C5.0031 21 4.10991 21 3.55496 20.445C3 19.8901 3 18.9969 3 17.2105Z" fill="#727689"/>
<path d="M13.4219 17.2113C13.4219 15.425 13.4219 14.5318 13.9768 13.9768C14.5318 13.4219 15.425 13.4219 17.2113 13.4219C18.9977 13.4219 19.8909 13.4219 20.4459 13.9768C21.0008 14.5318 21.0008 15.425 21.0008 17.2113C21.0008 18.9977 21.0008 19.8909 20.4459 20.4459C19.8909 21.0008 18.9977 21.0008 17.2113 21.0008C15.425 21.0008 14.5318 21.0008 13.9768 20.4459C13.4219 19.8909 13.4219 18.9977 13.4219 17.2113Z" fill="#727689"/>
<path d="M20.9999 6.79C20.9999 8.88316 19.3031 10.58 17.2099 10.58C15.1168 10.58 13.4199 8.88316 13.4199 6.79C13.4199 4.69684 15.1168 3 17.2099 3C19.3031 3 20.9999 4.69684 20.9999 6.79Z" fill="#727689"/>
</svg>
