<svg width="24" height="24" viewBox="0 0 24 24" fill="none" xmlns="http://www.w3.org/2000/svg">
<g clip-path="url(#clip0_20065_92181)">
<path d="M19.9502 9.64503C19.9502 9.41321 19.8858 9.2302 19.7641 9.11581C19.7152 9.07081 19.6571 9.03584 19.5936 9.01305C19.53 8.99026 19.4622 8.98012 19.3944 8.98326C19.0551 8.98885 18.8605 9.22834 18.8605 9.64036C18.8605 10.1719 18.8598 10.7034 18.8584 11.2348C18.8558 12.5384 18.8532 13.8863 18.8662 15.2122C18.8698 15.5795 18.7357 15.9102 18.4885 16.1435C18.246 16.3724 17.9102 16.4947 17.5409 16.4862C17.0106 16.4748 16.4718 16.4783 15.9508 16.4818C15.3181 16.486 14.664 16.4904 14.0227 16.4678C13.382 16.4454 12.8805 16.6062 12.3967 16.9898C11.9126 17.3737 11.4113 17.7255 10.8806 18.098C10.7129 18.2156 10.541 18.3363 10.3682 18.459L10.3683 18.068C10.3683 17.7586 10.3683 17.4492 10.3682 17.1397C10.3679 16.6711 10.1697 16.4799 9.68407 16.4798C9.23626 16.4798 8.78855 16.4799 8.34093 16.4801C7.42515 16.4804 6.47821 16.4808 5.54697 16.479C4.76041 16.4775 4.27156 16.0103 4.27119 15.2598C4.27009 13.0643 4.27028 10.6631 4.27177 7.9188C4.26876 7.81626 4.27656 7.7137 4.29506 7.61266C4.41752 7.05384 4.90028 6.69255 5.52492 6.69219C7.24944 6.69122 8.97396 6.69096 10.6985 6.69141C11.5083 6.69144 12.3182 6.69144 13.128 6.69144C13.1422 6.69144 13.1564 6.69152 13.1706 6.69161C13.2326 6.69306 13.2947 6.69126 13.3566 6.68623C13.5876 6.66385 13.7478 6.54004 13.8199 6.32816C13.8755 6.16502 13.8534 6.00584 13.7579 5.87993C13.6469 5.73367 13.4477 5.64974 13.2115 5.64968L11.6159 5.64914C9.60521 5.64839 7.52604 5.64761 5.48108 5.65042C4.19424 5.65221 3.18451 6.61749 3.18229 7.848C3.17842 10.0171 3.17885 12.3241 3.18371 15.3283C3.18328 15.51 3.20604 15.6911 3.25147 15.8676C3.37108 16.3353 3.64967 16.7517 4.0435 17.0515C4.43676 17.3515 4.92434 17.5158 5.42736 17.5179C6.29864 17.5255 7.18425 17.5242 8.04076 17.523C8.41598 17.5224 8.79117 17.5221 9.16634 17.522L9.27844 17.522V17.6344C9.27847 17.8115 9.27835 17.9884 9.27807 18.1654C9.27762 18.5945 9.27714 19.0382 9.27988 19.4747C9.28101 19.6558 9.35774 19.8172 9.49035 19.9174C9.5794 19.9849 9.68986 20.0214 9.80349 20.0207C9.8468 20.0206 9.88996 20.0158 9.93213 20.0064C10.0467 19.981 10.1479 19.9165 10.2403 19.8507C10.6406 19.565 11.0405 19.2788 11.4402 18.9922C12.0796 18.5343 12.7407 18.0607 13.3931 17.5978C13.4608 17.5528 13.5409 17.5279 13.6233 17.5261C14.4842 17.522 15.3596 17.5219 16.2062 17.5218C16.6456 17.5217 17.085 17.5214 17.5243 17.521H17.5345C17.6883 17.5249 17.8421 17.5164 17.9943 17.4957C19.1621 17.3058 19.9478 16.4176 19.9494 15.2855C19.9514 13.9267 19.951 12.5451 19.9506 11.2091C19.9504 10.6878 19.9503 10.1664 19.9502 9.64503Z" fill="#9A9A9A"/>
<path d="M20.5957 5.73939C20.112 5.27559 19.6024 4.78826 18.992 4.20576C18.6797 3.90782 18.3887 3.90796 18.076 4.20629C17.6848 4.57955 17.2939 4.95317 16.9034 5.32715L16.4594 5.75194C16.1838 6.01558 15.9082 6.27927 15.6327 6.54302C14.7731 7.36566 13.8842 8.2163 13.0071 9.05004C12.8294 9.21895 12.7518 9.40029 12.7627 9.62078C12.7708 9.78274 12.7688 9.94943 12.767 10.1106C12.7662 10.1828 12.7654 10.2549 12.7654 10.327C12.7654 10.407 12.7653 10.487 12.7652 10.567C12.765 10.7417 12.7648 10.9163 12.7656 11.0909C12.7676 11.4907 12.968 11.6859 13.3783 11.6877C13.5974 11.6886 13.82 11.6882 14.0353 11.6879C14.3431 11.6874 14.6613 11.6869 14.9739 11.6902C14.9772 11.6903 14.9804 11.6903 14.9835 11.6903C15.1844 11.6903 15.3494 11.6219 15.502 11.4756C16.6112 10.4126 17.7401 9.33291 18.8318 8.28872C19.419 7.72711 20.0061 7.16545 20.5931 6.60375C20.8976 6.31238 20.8984 6.02964 20.5957 5.73939ZM19.4296 6.24539C17.9924 7.61797 16.4525 9.08959 14.9293 10.5512C14.8508 10.6266 14.7893 10.6521 14.6956 10.6492C14.5644 10.645 14.4343 10.6438 14.3018 10.6438C14.2131 10.6438 14.1233 10.6443 14.0314 10.6449C13.9733 10.6452 13.9146 10.6456 13.8553 10.6458C13.8552 10.5957 13.8552 10.546 13.855 10.4968C13.8546 10.2353 13.8541 9.98837 13.8585 9.74049C13.8647 9.71768 13.8774 9.69696 13.8952 9.68061C15.407 8.23189 16.8802 6.82349 18.5075 5.26817L19.4821 6.2017C19.4636 6.21519 19.4461 6.22978 19.4296 6.24539V6.24539Z" fill="#9A9A9A"/>
<path d="M6.41876 14.1883C7.67174 14.189 8.92473 14.1891 10.1777 14.1888L12.1464 14.1888C13.6347 14.1888 15.1229 14.1887 16.611 14.1886C16.626 14.1888 16.6411 14.1887 16.6563 14.1888C16.6714 14.1889 16.6868 14.189 16.7022 14.189C16.7548 14.1896 16.8073 14.1871 16.8596 14.1816C16.9382 14.1727 17.0138 14.1472 17.0808 14.1068C17.1479 14.0665 17.2046 14.0124 17.247 13.9484C17.2901 13.8836 17.3175 13.8104 17.3272 13.7341C17.337 13.6579 17.3289 13.5805 17.3034 13.5077C17.1919 13.1841 16.8944 13.1467 16.6804 13.1467C13.271 13.1464 9.86094 13.1466 6.45035 13.147H6.44824C6.37562 13.1448 6.30295 13.1497 6.23142 13.1619H6.23136C6.09679 13.187 5.97724 13.2601 5.897 13.3665C5.81676 13.4728 5.78184 13.6044 5.79933 13.7344C5.8323 14.0185 6.06388 14.1881 6.41876 14.1883Z" fill="#9A9A9A"/>
<path d="M10.6303 8.15005C10.0072 8.14798 9.37398 8.14835 8.76149 8.14875C8.5144 8.1489 8.2673 8.149 8.02019 8.14905C7.86392 8.14901 7.70776 8.14892 7.55171 8.14878C7.17056 8.14845 6.77644 8.14811 6.38859 8.14989C6.06744 8.15136 5.83551 8.3262 5.79776 8.59529C5.78554 8.66844 5.78996 8.74324 5.81073 8.81461C5.83149 8.88597 5.8681 8.95221 5.91806 9.00882C6.02317 9.12441 6.18216 9.18863 6.36574 9.18965C6.6693 9.19136 6.97582 9.19185 7.27989 9.19185C7.48018 9.19185 7.67943 9.19162 7.87602 9.19141C8.07567 9.19121 8.27532 9.19107 8.47497 9.191C8.67691 9.19095 8.87877 9.19104 9.08054 9.19126C9.59286 9.19151 10.1226 9.19185 10.6437 9.19034C10.9206 9.18952 11.1183 9.06657 11.2003 8.84409C11.2304 8.76822 11.2409 8.68649 11.2308 8.6059C11.2207 8.52532 11.1904 8.44826 11.1424 8.38132C11.0345 8.23507 10.8478 8.15076 10.6303 8.15005Z" fill="#9A9A9A"/>
<path d="M10.6295 10.6504C9.91747 10.6485 9.19363 10.6489 8.49352 10.6492C8.09507 10.6494 7.69662 10.6494 7.29817 10.649C6.99381 10.6483 6.67899 10.6477 6.36907 10.6509C6.0469 10.6543 5.8115 10.8563 5.79663 11.142C5.79076 11.2118 5.80005 11.282 5.82392 11.3481C5.84779 11.4143 5.88572 11.475 5.93533 11.5265C6.039 11.6313 6.19382 11.6894 6.37126 11.6903C6.67706 11.6918 6.98591 11.6923 7.29217 11.6923C7.49059 11.6923 7.68792 11.6921 7.88263 11.6919C8.09187 11.6917 8.3011 11.6916 8.51034 11.6915L9.06006 11.6917C9.57491 11.692 10.1074 11.6923 10.631 11.6911C10.9884 11.6903 11.136 11.5114 11.197 11.3614C11.2303 11.2852 11.2434 11.2023 11.2351 11.1201C11.2268 11.0378 11.1974 10.9588 11.1496 10.8901C11.0413 10.7383 10.8518 10.651 10.6295 10.6504Z" fill="#9A9A9A"/>
</g>
<defs>
<clipPath id="clip0_20065_92181">
<rect width="17.64" height="16.0364" fill="white" transform="translate(3.17969 3.98242)"/>
</clipPath>
</defs>
</svg>
