<svg width="24" height="24" viewBox="0 0 24 24" fill="none" xmlns="http://www.w3.org/2000/svg">
<g clip-path="url(#clip0_20065_92155)">
<path d="M12.9905 4.57131L9.56055 8.90131H11.0305L13.8905 5.29131C13.8905 5.29131 13.9605 5.22131 14.0005 5.20131C14.0405 5.18131 14.0905 5.16131 14.1305 5.16131C14.1805 5.16131 14.2305 5.16131 14.2705 5.17131C14.3205 5.18131 14.3605 5.20131 14.4005 5.23131L15.1105 5.80131L15.0805 5.84131L12.6805 8.90131H14.1405L16.0105 6.52131L16.0505 6.55131L17.6205 7.80131C17.6205 7.80131 17.6905 7.87131 17.7105 7.91131C17.7305 7.95131 17.7505 8.00131 17.7505 8.05131C17.7505 8.10131 17.7505 8.15131 17.7305 8.19131C17.7205 8.24131 17.6905 8.28131 17.6605 8.32131L17.1605 8.90131H18.6605C18.8605 8.59131 18.9405 8.22131 18.8805 7.85131C18.8205 7.48131 18.6305 7.14131 18.3305 6.90131L15.1205 4.33131C14.9605 4.21131 14.7905 4.11131 14.5905 4.06131C14.4005 4.00131 14.2005 3.99131 14.0005 4.01131C13.8005 4.03131 13.6105 4.09131 13.4405 4.19131C13.2605 4.29131 13.1105 4.42131 12.9905 4.57131Z" fill="#9A9A9A"/>
<path d="M17.0791 14.6328H15.1991C15.0491 14.6328 14.8991 14.6928 14.7891 14.8028C14.6791 14.9128 14.6191 15.0528 14.6191 15.2128C14.6191 15.3728 14.6791 15.5128 14.7891 15.6228C14.8991 15.7328 15.0391 15.7928 15.1991 15.7928H17.0791C17.2291 15.7928 17.3791 15.7328 17.4891 15.6228C17.5991 15.5128 17.6591 15.3728 17.6591 15.2128C17.6591 15.0528 17.5991 14.9128 17.4891 14.8028C17.3791 14.6928 17.2391 14.6328 17.0791 14.6328Z" fill="#9A9A9A"/>
<path d="M20.1498 12.3911C20.1498 11.6511 19.8598 10.9611 19.3398 10.4411C18.8198 9.92109 18.1198 9.63109 17.3898 9.63109H5.82977C5.64977 9.63109 5.47977 9.56109 5.34977 9.43109C5.21977 9.30109 5.14977 9.13109 5.14977 8.95109C5.14977 8.77109 5.21977 8.60109 5.34977 8.47109C5.47977 8.34109 5.64977 8.27109 5.82977 8.27109H8.66977L9.58977 7.12109H5.82977C5.33977 7.12109 4.87977 7.31109 4.53977 7.65109C4.19977 8.00109 4.00977 8.45109 4.00977 8.94109V18.0011C4.00977 18.7411 4.29977 19.4311 4.81977 19.9511C5.33977 20.4711 6.03977 20.7611 6.76977 20.7611H17.3898C18.1298 20.7611 18.8198 20.4711 19.3398 19.9511C19.8598 19.4311 20.1498 18.7411 20.1498 18.0011V12.3811V12.3911ZM18.9998 18.0111C18.9998 18.4311 18.8298 18.8511 18.5298 19.1511C18.2298 19.4511 17.8098 19.6211 17.3898 19.6211H6.75977C6.32977 19.6211 5.91977 19.4511 5.61977 19.1511C5.31977 18.8511 5.14977 18.4411 5.14977 18.0111V10.6511L5.21977 10.6711C5.41977 10.7411 5.61977 10.7711 5.82977 10.7711H17.3898C17.8098 10.7711 18.2298 10.9411 18.5298 11.2411C18.8298 11.5411 18.9998 11.9511 18.9998 12.3811V18.0011V18.0111Z" fill="#9A9A9A"/>
</g>
<defs>
<clipPath id="clip0_20065_92155">
<rect width="16.15" height="16.78" fill="white" transform="translate(4 4.00195)"/>
</clipPath>
</defs>
</svg>
