<svg width="24" height="24" viewBox="0 0 24 24" fill="none" xmlns="http://www.w3.org/2000/svg">
<path d="M4.50391 10.4961C4.50276 9.84475 4.71363 9.2107 5.10466 8.68977C5.49569 8.16885 6.04564 7.78938 6.67142 7.60862C7.2908 7.42741 7.83525 7.05126 8.22392 6.53608L8.85392 5.69608C9.13337 5.32349 9.49572 5.02106 9.91229 4.81277C10.3289 4.60449 10.7882 4.49609 11.2539 4.49609H12.7539C13.2197 4.49609 13.679 4.60449 14.0956 4.81277C14.5122 5.02106 14.8745 5.32349 15.1539 5.69608L15.7914 6.53608C16.177 7.05445 16.7226 7.43141 17.3439 7.60862C17.9683 7.79073 18.5166 8.1708 18.9062 8.6916C19.2958 9.21241 19.5056 9.84572 19.5039 10.4961L19.0014 16.4961C18.9209 17.3069 18.5459 18.06 17.9474 18.6129C17.3489 19.1657 16.5685 19.4799 15.7539 19.4961H8.25392C7.43933 19.4799 6.65895 19.1657 6.06048 18.6129C5.46201 18.06 5.087 17.3069 5.00642 16.4961L4.50391 10.4961Z" stroke="white" stroke-width="1.125" stroke-linecap="round" stroke-linejoin="round"/>
<path d="M12.0039 16.6836C14.075 16.6836 15.7539 15.0047 15.7539 12.9336C15.7539 10.8625 14.075 9.18359 12.0039 9.18359C9.93285 9.18359 8.25391 10.8625 8.25391 12.9336C8.25391 15.0047 9.93285 16.6836 12.0039 16.6836Z" stroke="white" stroke-width="1.125" stroke-linecap="round" stroke-linejoin="round"/>
</svg>
