<svg width="24" height="24" viewBox="0 0 24 24" fill="none" xmlns="http://www.w3.org/2000/svg">
<path d="M12.2 19.4C16.1765 19.4 19.4 16.1765 19.4 12.2C19.4 8.22355 16.1765 5 12.2 5C8.22355 5 5 8.22355 5 12.2C5 13.312 5.25207 14.365 5.70218 15.3052C5.85688 15.6284 5.9112 15.9945 5.8186 16.3406L5.52336 17.444C5.29066 18.3137 6.08631 19.1093 6.95601 18.8766L8.05945 18.5814C8.40554 18.4888 8.77164 18.5431 9.09478 18.6978C10.035 19.1479 11.088 19.4 12.2 19.4Z" stroke="#494949" stroke-width="1.33"/>
<path d="M9.95039 12.2008C9.95039 12.6978 9.54745 13.1008 9.05039 13.1008C8.55333 13.1008 8.15039 12.6978 8.15039 12.2008C8.15039 11.7037 8.55333 11.3008 9.05039 11.3008C9.54745 11.3008 9.95039 11.7037 9.95039 12.2008Z" fill="#494949"/>
<path d="M13.1004 12.2008C13.1004 12.6978 12.6974 13.1008 12.2004 13.1008C11.7033 13.1008 11.3004 12.6978 11.3004 12.2008C11.3004 11.7037 11.7033 11.3008 12.2004 11.3008C12.6974 11.3008 13.1004 11.7037 13.1004 12.2008Z" fill="#494949"/>
<path d="M16.2504 12.2008C16.2504 12.6978 15.8474 13.1008 15.3504 13.1008C14.8533 13.1008 14.4504 12.6978 14.4504 12.2008C14.4504 11.7037 14.8533 11.3008 15.3504 11.3008C15.8474 11.3008 16.2504 11.7037 16.2504 12.2008Z" fill="#494949"/>
</svg>
