<svg width="24" height="24" viewBox="0 0 24 24" fill="none" xmlns="http://www.w3.org/2000/svg">
<path d="M11.2311 3.53186C11.7945 3.2032 12.4912 3.2032 13.0546 3.53186L19.388 7.22631C19.9439 7.55059 20.2857 8.14575 20.2857 8.78934V16.2107C20.2857 16.8543 19.9439 17.4494 19.388 17.7737L13.0546 21.4681C12.4912 21.7968 11.7945 21.7968 11.2311 21.4681L4.89776 17.7737C4.34184 17.4494 4 16.8543 4 16.2107V8.78934C4 8.14575 4.34184 7.55059 4.89776 7.22631L11.2311 3.53186Z" stroke="#9A9A9A" stroke-width="1.35714"/>
<path d="M11.2381 10.2381C11.2381 11.2375 10.4279 12.0476 9.42857 12.0476C8.4292 12.0476 7.61905 11.2375 7.61905 10.2381C7.61905 9.23872 8.4292 8.42857 9.42857 8.42857C10.4279 8.42857 11.2381 9.23872 11.2381 10.2381Z" stroke="#9A9A9A" stroke-width="1.35714"/>
<path d="M19.8324 17.0233L14.8965 13.9859C14.3167 13.629 13.5856 13.6279 13.0046 13.9829L5.80859 18.3805" stroke="#9A9A9A" stroke-width="1.35714" stroke-linecap="round" stroke-linejoin="round"/>
</svg>
