<svg width="24" height="24" viewBox="0 0 24 24" fill="none" xmlns="http://www.w3.org/2000/svg">
<path fill-rule="evenodd" clip-rule="evenodd" d="M18.146 8.23749C18.3576 8.50017 18.3072 8.87766 18.0333 9.08063L13.398 12.5158C12.5704 13.1291 11.4155 13.1291 10.5878 12.5158L5.95254 9.08063C5.67864 8.87766 5.62818 8.50017 5.83982 8.23749C6.05146 7.97481 6.44505 7.92641 6.71895 8.12939L11.3542 11.5645C11.7304 11.8433 12.2554 11.8433 12.6315 11.5645L17.2669 8.12939C17.5408 7.92641 17.9344 7.97481 18.146 8.23749Z" fill="#494949"/>
<path d="M13.3557 18.878C13.3557 19.363 12.9626 19.7561 12.4776 19.7561C11.9927 19.7561 11.5996 19.363 11.5996 18.878C11.5996 18.3931 11.9927 18 12.4776 18C12.9626 18 13.3557 18.3931 13.3557 18.878Z" fill="#494949"/>
<path d="M16.8674 18.878C16.8674 19.363 16.4743 19.7561 15.9894 19.7561C15.5044 19.7561 15.1113 19.363 15.1113 18.878C15.1113 18.3931 15.5044 18 15.9894 18C16.4743 18 16.8674 18.3931 16.8674 18.878Z" fill="#494949"/>
<path d="M20.3791 18.878C20.3791 19.363 19.986 19.7561 19.5011 19.7561C19.0162 19.7561 18.623 19.363 18.623 18.878C18.623 18.3931 19.0162 18 19.5011 18C19.986 18 20.3791 18.3931 20.3791 18.878Z" fill="#494949"/>
<path d="M21 15.5V10.94C21 8.66204 21 7.52306 20.5497 6.6561C20.1702 5.92553 19.5745 5.32985 18.8439 4.95035C17.9769 4.5 16.838 4.5 14.56 4.5H9.44C7.16204 4.5 6.02306 4.5 5.1561 4.95035C4.42553 5.32985 3.82985 5.92553 3.45035 6.6561C3 7.52306 3 8.66204 3 10.94V14.5C3 14.9643 3 15.1965 3.01926 15.3921C3.20631 17.2912 4.70882 18.7937 6.60793 18.9807C6.80349 19 7.03566 19 7.5 19V19H9" stroke="#494949" stroke-width="1.3" stroke-linecap="round"/>
</svg>
