<svg width="24" height="24" viewBox="0 0 24 24" fill="none" xmlns="http://www.w3.org/2000/svg">
<path d="M3.93577 22.1004C3.93743 22.0976 3.94072 22.0922 3.94548 22.0853M3.93577 22.1004L4.12729 21.7053M3.93577 22.1004C3.93577 22.1004 3.93577 22.1004 3.93577 22.1004C3.93719 22.0977 3.93988 22.0926 3.94395 22.0845L3.94548 22.0853M3.93577 22.1004L4.12729 21.7053M3.94548 22.0853C3.94656 22.0837 3.94772 22.082 3.94894 22.0803C3.949 22.0802 3.94905 22.0802 3.9491 22.0801C3.95966 22.0652 3.97556 22.0453 3.99549 22.0274C4.02599 22.0001 4.06325 21.9774 4.10415 21.9635C4.13689 21.9524 4.16242 21.9502 4.17607 21.95C4.17812 21.95 4.17989 21.95 4.18139 21.9501M3.94548 22.0853L3.94395 22.0845C3.94423 22.084 3.94488 22.0826 3.94588 22.0805C3.94591 22.0805 3.94593 22.0804 3.94596 22.0803C3.94881 22.0744 3.95435 22.0627 3.9618 22.047C4.00182 21.9625 4.09693 21.7618 4.12587 21.7079L4.48182 21.8996M4.18139 21.9501C4.18202 21.9501 4.18266 21.9501 4.18329 21.9502C4.22201 21.9525 4.26644 21.9619 4.31189 21.9823C4.34983 21.9994 4.38169 22.021 4.40749 22.0436C4.4099 22.0457 4.41226 22.0478 4.41457 22.0499C4.41884 22.0539 4.42293 22.0578 4.42683 22.0618C4.47873 22.1144 4.49356 22.1616 4.4944 22.1643L4.49443 22.1644C4.49468 22.1651 4.4948 22.1655 4.49482 22.1655C4.49488 22.1655 4.49256 22.1565 4.4901 22.135C4.48771 22.1141 4.48662 22.0966 4.485 22.0706C4.48453 22.063 4.48401 22.0548 4.4834 22.0455L4.48346 22.0454L4.48283 22.0376C4.47924 21.9925 4.47875 21.9466 4.48182 21.8996M4.18139 21.9501C4.18208 21.9501 4.18272 21.9501 4.18329 21.9501L4.1833 21.9501L4.17608 21.9498C4.17784 21.9499 4.17961 21.95 4.18139 21.9501ZM4.48182 21.8996L4.61011 21.9687L4.48187 21.8987M4.48182 21.8996C4.48183 21.8993 4.48185 21.899 4.48187 21.8987M4.48187 21.8987C4.49152 21.7527 4.53549 21.5953 4.62769 21.4156L4.63003 21.411M4.48187 21.8987L4.12729 21.7053M4.63003 21.411C4.63021 21.4107 4.63039 21.4104 4.63057 21.4101C4.63621 21.4 4.64681 21.3811 4.6587 21.3588C4.68257 21.3141 4.71522 21.2491 4.74533 21.1718C4.77449 21.0969 4.81423 20.9785 4.82735 20.8373C4.76489 20.9045 4.66704 21.0108 4.56935 21.1221C4.52678 21.1706 4.4785 21.2264 4.42909 21.2858C4.42368 21.2923 4.41826 21.2988 4.41283 21.3054C4.30499 21.4361 4.19417 21.5819 4.12729 21.7053M4.63003 21.411L4.63762 21.3962L4.64599 21.3762C4.63926 21.3923 4.6317 21.4074 4.62751 21.4155C4.62728 21.416 4.62705 21.4164 4.62684 21.4168M4.63003 21.411C4.62907 21.4127 4.62824 21.4142 4.62754 21.4155C4.62729 21.416 4.62706 21.4164 4.62684 21.4168M18.1505 8.21066C17.8019 8.19598 17.1999 7.97484 16.5488 7.73565C15.7729 7.45062 14.9272 7.13994 14.3572 7.12245C12.0641 7.05139 10.3906 7.97876 9.61241 8.40999L18.1505 8.21066ZM18.1505 8.21066C18.9279 8.24282 19.3193 8.15705 19.7696 7.69068C19.8983 7.55666 20.4371 6.39073 19.9278 5.75549L18.1505 8.21066ZM20.984 6.32104C20.9357 5.84931 20.7803 5.42314 20.48 5.05057C20.2742 4.79488 20.0232 4.59561 19.7708 4.39525C19.6978 4.33728 19.6247 4.27922 19.5525 4.21968L20.984 6.32104ZM20.984 6.32104C21.0591 7.04204 20.866 7.69336 20.4907 8.30179M20.984 6.32104L20.4907 8.30179M20.4907 8.30179C19.8661 9.34175 18.5901 10.0467 18.4722 10.1083C18.2336 10.2343 18.1451 10.4219 18.1612 10.6953M20.4907 8.30179L6.7524 17.5582C7.06744 17.1086 7.34748 16.7088 7.46509 16.5384C7.54283 16.4231 7.60449 16.2784 7.63129 16.139M18.1612 10.6953L17.6118 10.7222C17.6119 10.7228 17.6119 10.7235 17.6119 10.7241C17.6159 10.8122 17.6064 11.1627 17.504 11.5516C17.3988 11.951 17.2205 12.2965 16.9568 12.4877C16.9199 12.5145 16.7992 12.5755 16.5687 12.6572C16.3546 12.7331 16.0909 12.8115 15.8083 12.8866C15.2427 13.037 14.6326 13.166 14.2546 13.23L14.2532 13.2303C13.8143 13.3058 13.5785 13.4681 13.4315 13.5692C13.399 13.5915 13.3709 13.6109 13.3458 13.6257L13.3457 13.6255L13.3339 13.6329C13.2387 13.6924 13.1516 13.7752 13.0885 13.8392C13.0172 13.9113 12.9404 13.9969 12.8628 14.0878C12.7785 14.1865 12.6884 14.2971 12.5969 14.4132C12.5972 14.4125 12.5974 14.4117 12.5977 14.411C12.6017 14.4001 12.6106 14.3731 12.6152 14.3569C12.6214 14.3314 12.6321 14.2602 12.634 14.2145V13.8181L12.2579 13.6928C12.1644 13.6616 12.086 13.6641 12.0663 13.6648L12.0659 13.6648C12.0348 13.6658 12.0103 13.6692 11.9976 13.6712C11.9716 13.6753 11.9512 13.6804 11.9428 13.6825C11.9237 13.6874 11.9076 13.6926 11.8997 13.6951C11.8816 13.701 11.8623 13.7079 11.8455 13.7141C11.8103 13.727 11.7644 13.7447 11.7129 13.765C11.6091 13.8059 11.4722 13.8616 11.3308 13.9214C11.1901 13.981 11.0407 14.0464 10.9134 14.1062C10.8077 14.156 10.6576 14.2287 10.5615 14.3016L10.5613 14.3017C10.3325 14.4753 9.94764 14.7695 9.61683 15.0313C9.45216 15.1616 9.29634 15.2875 9.17879 15.3879C9.12102 15.4372 9.06554 15.4862 9.02108 15.5294C8.99974 15.5502 8.97224 15.578 8.94617 15.609C8.93337 15.6242 8.91363 15.6488 8.89363 15.6801C8.88044 15.7007 8.83395 15.7736 8.813 15.8784L8.81294 15.8783L8.81139 15.8868C8.77927 16.0615 8.67976 16.1823 8.5102 16.248C8.34817 16.3107 8.21307 16.3993 8.10054 16.4945C8.13093 16.4125 8.15505 16.3279 8.17139 16.2429L7.63129 16.139M18.1612 10.6953C18.1746 10.9687 18.1076 12.333 17.2792 12.9334L18.1612 10.6953ZM7.63129 16.139C7.7144 15.7102 7.97711 15.4126 8.43015 15.2277M7.63129 16.139L8.17125 16.2436C8.21391 16.0235 8.33035 15.8625 8.63802 15.7369M8.43015 15.2277L8.62476 15.7421C8.62927 15.7404 8.63369 15.7387 8.63802 15.7369M8.43015 15.2277C8.52934 15.1902 10.3308 13.6838 10.3308 13.4909C10.3308 13.3542 10.1351 13.2764 9.98229 13.2362L8.43015 15.2277ZM8.63802 15.7369C8.68793 15.7165 8.72572 15.6927 8.73516 15.6868L8.73626 15.6861C8.75436 15.6748 8.77122 15.6632 8.78472 15.6537C8.81228 15.6343 8.84349 15.6109 8.87547 15.5863C8.94035 15.5364 9.02358 15.4699 9.11714 15.3934C9.3049 15.2399 9.54413 15.038 9.78008 14.8313C10.0147 14.6257 10.2527 14.4096 10.435 14.229C10.5248 14.14 10.6103 14.0504 10.6768 13.9701C10.7093 13.9309 10.7472 13.882 10.7799 13.8284C10.7804 13.8277 10.7809 13.8268 10.7815 13.8258C10.8005 13.7949 10.8808 13.6645 10.8808 13.4909C10.8808 13.1275 10.6184 12.93 10.5005 12.858C10.3646 12.775 10.2169 12.7292 10.1222 12.7043L10.1223 12.7043L10.1157 12.7027L10.1152 12.7025C10.1091 12.7009 10.0401 12.683 9.92951 12.6528C9.8148 12.6215 9.65874 12.5779 9.48801 12.5275C9.13624 12.4236 8.7586 12.3012 8.54005 12.2023M8.63802 15.7369L8.54005 12.2023M8.54005 12.2023C8.27422 12.0807 8.09782 11.9888 7.89181 11.8382C7.89173 11.8382 7.89164 11.8381 7.89155 11.838L7.56696 12.282M8.54005 12.2023L4.35715 12.6957C4.434 12.737 4.50353 12.7744 4.56186 12.8074C4.74951 12.9146 5.11945 12.7806 5.19183 12.7297C5.5993 12.4536 5.95852 12.2365 6.44105 12.1668M7.56696 12.282C7.23532 12.0385 6.58815 12.143 6.4532 12.1648C6.44852 12.1656 6.44446 12.1663 6.44105 12.1668M7.56696 12.282C7.81626 12.4643 8.03072 12.5742 8.3122 12.7029L7.56696 12.282ZM6.44105 12.1668L6.36243 11.6224C6.36105 11.6226 6.35966 11.6228 6.35827 11.623C6.3572 11.6232 6.35621 11.6234 6.35528 11.6235L6.44105 12.1668ZM11.2338 16.4877L11.0088 16.9008L11.3501 16.825M11.2338 16.4877L8.70895 16.7608C9.05476 16.6268 9.2853 16.3508 9.35232 15.9862C9.3684 15.9058 10.438 15.0856 10.8937 14.7399C10.9419 14.7034 11.0608 14.6435 11.2057 14.5769C11.3072 14.4115 11.3998 14.2649 11.4715 14.1522C11.5111 14.0901 11.5445 14.038 11.5693 13.9993L11.5809 13.9813L11.6087 13.9378C11.6103 13.9353 11.6112 13.9338 11.6115 13.9333C11.6119 13.9327 11.6118 13.9329 11.6113 13.9336C11.6113 13.9337 11.6098 13.936 11.6076 13.9399C11.6065 13.9418 11.6051 13.9442 11.6037 13.9468C11.602 13.9497 11.596 13.9605 11.589 13.9748C11.5859 13.9813 11.5782 13.9972 11.5702 14.0184C11.5662 14.0292 11.5573 14.0562 11.5527 14.0723C11.5465 14.0978 11.5359 14.1689 11.534 14.2145H12.0828C12.0834 14.2145 12.0838 14.2145 12.084 14.2145C12.084 14.2146 12.0839 14.2147 12.0839 14.2148L11.9101 14.7363C12.0032 14.7674 12.0811 14.7649 12.1004 14.7642L12.101 14.7642C12.1315 14.7632 12.1555 14.7599 12.1674 14.758C12.192 14.7542 12.2105 14.7495 12.2165 14.7479C12.2247 14.7458 12.2308 14.744 12.2337 14.7431L12.2398 14.7412L12.2401 14.7411C12.2401 14.7411 12.2356 14.7427 12.2245 14.7467C12.2009 14.7554 12.1641 14.7695 12.1163 14.7883C12.0214 14.8257 11.8929 14.878 11.7595 14.9345C11.7012 14.9592 11.6428 14.9843 11.5864 15.009C11.3202 15.449 11.0183 15.9798 10.875 16.3481C10.8294 16.466 10.7543 16.8681 10.8374 17.0718M11.2338 16.4877L10.875 16.3481L11.2343 16.4869L11.2338 16.4877ZM11.3501 16.825C11.3501 16.8369 11.3504 16.8478 11.3509 16.8576C11.3514 16.8664 11.3521 16.8729 11.3526 16.8773M11.3501 16.825L11.7024 16.7467M11.3501 16.825C11.3501 16.7985 11.3517 16.7672 11.3552 16.7325C11.3602 16.6831 11.368 16.6352 11.3763 16.596C11.3839 16.5602 11.3893 16.5435 11.3891 16.5435L11.7024 16.7467M11.3526 16.8773C11.3506 16.873 11.3484 16.8682 11.3463 16.863L10.8374 17.0718M11.3526 16.8773C11.3533 16.8824 11.3537 16.8848 11.3537 16.8848C11.3537 16.8848 11.3521 16.8772 11.3467 16.864L10.8374 17.0718M11.3526 16.8773C11.3601 16.8928 11.3666 16.9021 11.3706 16.9071M10.8374 17.0718C10.9661 17.3854 11.2422 17.522 11.5559 17.4282C11.6479 17.4001 11.7301 17.355 11.8096 17.3114L11.8213 17.3049M11.8213 17.3049L11.5484 16.8274C11.55 16.8265 11.5515 16.8256 11.553 16.8248M11.8213 17.3049C11.8588 17.2835 11.8962 17.2648 11.9337 17.246L11.9339 17.246M11.8213 17.3049L11.5568 16.8227C11.5556 16.8234 11.5543 16.8241 11.553 16.8248M11.3706 16.9071C11.3667 16.9074 11.3645 16.9073 11.3639 16.9073C11.3629 16.9072 11.3665 16.9075 11.3716 16.91C11.3766 16.9125 11.3766 16.9139 11.3724 16.9092C11.3719 16.9086 11.3713 16.9079 11.3706 16.9071ZM11.3706 16.9071C11.376 16.9066 11.3847 16.9053 11.3967 16.9018M11.3967 16.9018C11.3962 16.9019 11.3957 16.9021 11.3952 16.9022L11.5559 17.4282L11.3983 16.9013C11.3978 16.9015 11.3973 16.9016 11.3967 16.9018ZM11.3967 16.9018C11.4279 16.892 11.4619 16.8747 11.553 16.8248M11.553 16.8248C11.6023 16.7968 11.6497 16.7731 11.6839 16.756L11.6879 16.754L11.9339 17.246M11.9339 17.246L11.6879 16.754C11.6927 16.7516 11.6975 16.7492 11.7024 16.7467M11.9339 17.246C11.9526 17.2366 11.9707 17.2272 11.9888 17.2178C12.0069 17.2085 12.025 17.1991 12.0438 17.1897M11.7024 16.7467L15.6493 16.2409C15.6252 16.1417 15.5528 16.1149 15.4858 16.1149M11.7024 16.7467L11.7973 16.7256L12.0438 17.1897M11.7024 16.7467C11.7125 16.7416 11.7232 16.736 11.7357 16.7296L11.7369 16.7289C11.7526 16.7208 11.7714 16.711 11.7915 16.7009C11.8728 16.6578 11.9931 16.5944 12.1251 16.5516C12.1392 16.5469 12.1533 16.5423 12.1675 16.5376C12.466 16.4396 12.7659 16.3465 13.0607 16.255L13.0628 16.2544L13.063 16.2543L13.6926 16.0587L13.6928 16.0587L13.6946 16.0581C14.1332 15.9217 14.5736 15.7848 15.0142 15.6505C15.0209 15.6485 15.029 15.6458 15.0385 15.6428C15.1177 15.6172 15.29 15.5615 15.4926 15.5649M12.0438 17.1897C12.1296 17.1441 12.2127 17.1012 12.2958 17.0744M12.0438 17.1897L11.8103 16.7227L12.1543 16.6463L12.2958 17.0744M12.2958 17.0744C12.604 16.9726 12.915 16.8761 13.226 16.7796M12.2958 17.0744L12.1574 16.6456L12.1899 16.6384C12.2191 16.6319 12.2693 16.6161 12.2732 16.6149L12.3846 16.5807L12.7728 16.4611C12.8715 16.4307 12.9803 16.3972 13.0961 16.3616L13.226 16.7796M13.226 16.7796L13.8559 16.5839M13.226 16.7796L13.0962 16.3615C13.2911 16.3016 13.5059 16.2355 13.7266 16.1678L13.8559 16.5839M13.8559 16.5839L13.8567 16.5837C14.2961 16.4471 14.7355 16.3105 15.1749 16.1765M13.8559 16.5839L13.7267 16.1678C13.8002 16.1452 13.8744 16.1224 13.9487 16.0997C14.3381 15.9804 14.7299 15.8608 15.049 15.7647L15.1749 16.1765M15.1749 16.1765C15.1863 16.173 15.1978 16.1694 15.2092 16.1659C15.2941 16.1393 15.3795 16.1125 15.4858 16.1149M15.1749 16.1765L15.0493 15.7646L15.4926 15.5649M15.4858 16.1149V15.6344M15.4858 16.1149L15.4966 15.6313C15.5188 15.6248 15.5397 15.6187 15.5593 15.6131C15.6053 15.5998 15.6378 15.5907 15.6595 15.5846M15.4858 15.6344L16.3078 16.222C16.3084 16.222 16.309 16.222 16.3096 16.2219M15.4858 15.6344V15.5649C15.488 15.5649 15.4903 15.5649 15.4926 15.5649M15.4858 15.6344L15.4926 15.5649M15.6595 15.5846C15.7299 15.601 15.8067 15.6299 15.8826 15.679C16.0423 15.7824 16.1421 15.9395 16.1838 16.1109L16.1993 16.1749V16.1795M15.6595 15.5846C15.5972 15.5701 15.5398 15.5653 15.4926 15.5649M15.6595 15.5846L15.4926 15.5649M16.1993 16.1795C16.1971 16.1722 16.1953 16.1656 16.1939 16.1598L16.1922 16.1527C16.1918 16.1511 16.1917 16.1502 16.1916 16.1501L16.1919 16.1512L16.1926 16.1553L16.1942 16.166L16.196 16.1804C16.1962 16.1825 16.1966 16.1855 16.1969 16.1893C16.1971 16.1915 16.1974 16.1941 16.1976 16.1969L16.1981 16.2054C16.1853 16.2019 16.1755 16.1986 16.1692 16.1962C16.1657 16.1949 16.1641 16.1941 16.1643 16.1942C16.1647 16.1943 16.1726 16.1979 16.1857 16.2063C16.1857 16.2064 16.1858 16.2064 16.1858 16.2064C16.1858 16.2064 16.1858 16.2064 16.1858 16.2064C16.1863 16.2067 16.1868 16.2071 16.1873 16.2074C16.1915 16.2102 16.1953 16.2129 16.1988 16.2156C16.1988 16.2172 16.1989 16.2191 16.199 16.2212C16.1992 16.2266 16.1993 16.2333 16.1993 16.2409V16.216C16.2077 16.2224 16.2136 16.2281 16.2175 16.2321C16.2232 16.238 16.2254 16.2414 16.2249 16.2406C16.2247 16.2404 16.2244 16.2399 16.224 16.2392C16.223 16.2376 16.2214 16.2349 16.2193 16.2308C16.2163 16.2249 16.2129 16.2175 16.2095 16.2087C16.2094 16.2086 16.2094 16.2084 16.2093 16.2082M16.1993 16.1795V16.2057C16.2025 16.2065 16.2058 16.2074 16.2093 16.2082M16.1993 16.1795C16.2021 16.1885 16.2054 16.1983 16.2093 16.2082M16.2093 16.2082C16.2106 16.2086 16.2119 16.2089 16.2132 16.2092C16.2332 16.2139 16.2539 16.2175 16.273 16.2197C16.2915 16.2218 16.3039 16.2221 16.3096 16.2219M16.3096 16.2219C16.3389 16.2208 16.3685 16.2208 16.3984 16.2218C16.2793 16.0408 16.1611 15.8618 16.0406 15.6828C16.0007 15.6239 15.9633 15.5992 15.9277 15.5856L16.3096 16.2219ZM12.0706 16.1015C12.1377 15.9783 12.3299 15.6936 12.56 15.3757C12.5218 15.3875 12.4847 15.3989 12.449 15.4099L12.0613 15.5293L11.9519 15.5628C11.931 15.5692 11.9233 15.5715 11.9233 15.5715C11.9233 15.5716 11.9365 15.5679 11.9513 15.5646L12.0706 16.1015ZM12.0706 16.1015C12.0761 16.1002 12.2595 16.0438 12.5399 15.9574C12.647 15.9244 12.7682 15.8871 12.8991 15.8468C12.7262 16.0905 12.5961 16.2866 12.5536 16.3646L12.0706 16.1015ZM4.62684 21.4168C4.62536 21.4196 4.62443 21.4213 4.62429 21.4215C4.62413 21.4218 4.62488 21.4203 4.62684 21.4168ZM19.2414 8.66424C19.4039 8.61525 19.5516 8.54813 19.6899 8.46333L7.10319 9.06031C7.10879 9.05845 7.13879 9.05627 7.18873 9.05264C7.49737 9.03022 8.56783 8.95247 9.35232 8.55106L9.60256 9.04083C9.60266 9.04078 9.60276 9.04073 9.60285 9.04068C9.68162 9.00043 9.77501 8.94892 9.88259 8.88958C10.6679 8.45642 12.2095 7.60616 14.3402 7.67219L14.3404 7.67219C14.5312 7.67805 14.7977 7.73205 15.1302 7.82938C15.4561 7.92479 15.8108 8.05114 16.1715 8.18308C16.2326 8.20545 16.2941 8.22805 16.3557 8.25067C16.6502 8.35887 16.9463 8.46766 17.2122 8.55444C17.5206 8.65507 17.8526 8.7486 18.1273 8.76017L18.1277 8.76019C18.5301 8.77683 18.8984 8.76755 19.2414 8.66424ZM5.37958 20.1194C5.37021 20.132 5.36093 20.1446 5.35174 20.157C5.61477 20.0494 5.81772 19.8619 5.98696 19.6178L5.98698 19.6178L5.98957 19.614C6.19449 19.3131 6.7291 18.5501 7.19301 17.8879C7.44096 17.534 7.66871 17.2089 7.81514 16.9987L7.71436 16.9255L7.71427 16.9256L7.71391 16.9261L7.71246 16.9281L7.70673 16.936L7.68431 16.9668L7.599 17.0842L7.29306 17.5048C7.03906 17.8537 6.69859 18.3209 6.35257 18.7943C6.17655 19.035 5.99921 19.2773 5.83118 19.5062C5.83058 19.507 5.82999 19.5078 5.8294 19.5086C5.66765 19.7289 5.51456 19.9369 5.37958 20.1194ZM19.3693 2.34968C19.2408 2.36873 19.1121 2.39622 18.994 2.43589L18.9939 2.43575L18.9822 2.43999C18.6323 2.56646 18.4379 2.84438 18.371 3.14394C18.2975 2.84753 18.3164 2.55729 18.4159 2.32141L18.4198 2.31224L18.4233 2.30294C18.4767 2.16245 18.5398 2.10924 18.5862 2.08509C18.637 2.05872 18.7395 2.03051 18.931 2.06818C19.0005 2.08207 19.0882 2.12585 19.2222 2.22959C19.2711 2.26743 19.3172 2.3059 19.3693 2.34968ZM4.71614 20.2716L4.24017 19.996L4.71271 20.2774C4.71046 20.2812 4.70182 20.2926 4.68813 20.3024C4.68323 20.306 4.68015 20.3075 4.68013 20.3075C4.6801 20.3075 4.68496 20.3051 4.69722 20.3012C4.71029 20.2971 4.72715 20.2928 4.74998 20.2879C4.74841 20.2764 4.74712 20.2651 4.74615 20.2541C4.7432 20.2206 4.7444 20.2029 4.74489 20.1989C4.74569 20.1922 4.7436 20.2241 4.71614 20.2716ZM4.77337 12.2955C4.71494 12.2633 4.65516 12.2312 4.59375 12.1983C4.43925 12.1155 4.27447 12.0271 4.09511 11.9157C3.82434 11.7475 3.64134 11.5957 3.56095 11.4781C3.55883 11.4714 3.55014 11.4421 3.55 11.3766C3.54981 11.2864 3.5661 11.165 3.60326 11.0148C3.73613 10.6518 3.88378 10.4311 4.05346 10.2774C4.22826 10.1191 4.4674 9.99472 4.84299 9.89047L4.85967 9.88585L4.87602 9.88018C5.10838 9.79964 5.50328 9.73997 5.95781 9.69661C6.25141 9.6686 6.5315 9.65025 6.77914 9.63403C6.91159 9.62535 7.03476 9.61728 7.14575 9.60866L7.21305 9.60344L7.21734 9.60201L4.77337 12.2955Z" stroke="#0166FF" stroke-width="1.1"/>
</svg>
