<svg width="24" height="24" viewBox="0 0 24 24" fill="none" xmlns="http://www.w3.org/2000/svg">
<path d="M12.0039 1.75977C6.20616 1.75977 1.50391 6.46114 1.50391 12.2598C1.50391 16.899 4.51216 20.8348 8.68503 22.2234C9.20916 22.3205 9.37891 21.995 9.37891 21.7185V19.7638C6.45816 20.399 5.85003 18.5248 5.85003 18.5248C5.37228 17.3111 4.68366 16.9883 4.68366 16.9883C3.73078 16.3364 4.75628 16.3504 4.75628 16.3504C5.81066 16.4239 6.36541 17.4328 6.36541 17.4328C7.30166 19.0375 8.82153 18.5738 9.42091 18.3051C9.51453 17.627 9.78666 17.1633 10.0877 16.9016C7.75578 16.6348 5.30403 15.7344 5.30403 11.712C5.30403 10.5649 5.71441 9.62864 6.38553 8.89364C6.27703 8.62852 5.91741 7.56014 6.48791 6.11464C6.48791 6.11464 7.36991 5.83289 9.37628 7.19089C10.2137 6.95814 11.1114 6.84177 12.0039 6.83739C12.8964 6.84177 13.795 6.95814 14.6342 7.19089C16.6388 5.83289 17.519 6.11464 17.519 6.11464C18.0904 7.56102 17.7308 8.62939 17.6223 8.89364C18.296 9.62864 18.7029 10.5658 18.7029 11.712C18.7029 15.7449 16.2468 16.633 13.9088 16.8929C14.285 17.2184 14.6289 17.8571 14.6289 18.8371V21.7185C14.6289 21.9976 14.7969 22.3258 15.3298 22.2225C19.4992 20.8321 22.5039 16.8973 22.5039 12.2598C22.5039 6.46114 17.8025 1.75977 12.0039 1.75977Z" fill="#494949"/>
</svg>
