<svg width="24" height="24" viewBox="0 0 24 24" fill="none" xmlns="http://www.w3.org/2000/svg">
<g clip-path="url(#clip0_20065_92241)">
<path d="M15.1967 2.33984C15.5509 2.42431 15.8993 2.52277 16.2005 2.74084C16.8511 3.21189 17.1887 3.84944 17.19 4.65349C17.1939 7.11894 17.1944 9.58439 17.1915 12.0499C17.1915 12.1248 17.1915 12.1998 17.1915 12.2767C17.4646 12.3467 17.7327 12.403 17.9931 12.4842C19.8321 13.0572 21.4459 14.9337 21.2183 17.4117C21.0184 19.587 19.348 21.2751 17.3324 21.5921C15.6825 21.8516 14.273 21.3638 13.1157 20.1573C13.0743 20.1083 13.0222 20.0693 12.9636 20.0433C12.905 20.0173 12.8412 20.0049 12.7772 20.0071C10.2292 20.0114 7.6813 20.0124 5.13336 20.0101C3.74697 20.01 2.76907 19.027 2.76899 17.6327C2.76874 13.3496 2.78395 9.06646 2.75981 4.7835C2.75248 3.48262 3.6417 2.51103 4.71466 2.36421C4.73255 2.35872 4.74949 2.3505 4.76488 2.33984L15.1967 2.33984ZM12.2557 18.8779C11.6703 17.4069 11.7045 15.9796 12.4905 14.617C13.2794 13.2495 14.4931 12.4905 16.0617 12.2708V12.0588C16.0617 9.61883 16.0616 7.17884 16.0615 4.73885C16.0614 3.94054 15.5949 3.47229 14.7998 3.47223C11.5871 3.47197 8.37433 3.47197 5.16158 3.47222C4.36508 3.47228 3.89884 3.93905 3.8988 4.73653C3.89859 9.03167 3.89859 13.3268 3.89881 17.6219C3.89886 18.4122 4.36152 18.8776 5.14748 18.8778C7.4441 18.8782 9.74071 18.8782 12.0373 18.8779H12.2557ZM12.9875 16.9499C12.9729 18.8972 14.5644 20.5141 16.5122 20.531C16.9823 20.5353 17.4487 20.4465 17.8845 20.2695C18.3203 20.0925 18.7169 19.831 19.0514 19.4998C19.386 19.1687 19.652 18.7746 19.834 18.3401C20.0161 17.9057 20.1106 17.4394 20.1122 16.9682C20.1256 15.0139 18.5476 13.411 16.5891 13.3897C16.119 13.3849 15.6525 13.4733 15.2166 13.6499C14.7806 13.8265 14.3839 14.0878 14.0491 14.4187C13.7144 14.7496 13.4482 15.1436 13.266 15.5781C13.0839 16.0125 12.9892 16.4787 12.9875 16.9499Z" fill="#9A9A9A"/>
<path d="M16.5952 16.4107C17.1411 16.4107 17.6871 16.4092 18.2331 16.4113C18.5944 16.4127 18.8389 16.6348 18.8446 16.9604C18.8503 17.2861 18.6109 17.5372 18.2574 17.5395C17.153 17.5466 16.0486 17.5467 14.9441 17.5399C14.5881 17.5379 14.3486 17.2925 14.3516 16.9661C14.3546 16.6399 14.5994 16.4128 14.9573 16.4113C15.5033 16.4091 16.0492 16.4108 16.5952 16.4107Z" fill="#9A9A9A"/>
<path d="M16.0318 16.9829C16.0318 16.437 16.0303 15.891 16.0324 15.3451C16.0338 14.9838 16.2559 14.7392 16.5815 14.7335C16.9072 14.7278 17.1583 14.9672 17.1606 15.3207C17.1677 16.4251 17.1678 17.5296 17.161 18.6341C17.159 18.99 16.9136 19.2295 16.5872 19.2265C16.261 19.2235 16.0339 18.9787 16.0324 18.6208C16.0302 18.0749 16.0318 17.5289 16.0318 16.9829Z" fill="#9A9A9A"/>
<path d="M7.34582 8.33046C7.88551 8.33046 8.42519 8.32939 8.96487 8.33083C9.34168 8.33184 9.58741 8.55032 9.59144 8.8836C9.59556 9.22368 9.34568 9.46025 8.96371 9.46142C7.88436 9.46473 6.80499 9.46477 5.72562 9.46154C5.39228 9.46068 5.15474 9.27611 5.10553 8.99545C5.08058 8.86441 5.10351 8.72874 5.17013 8.61325C5.23675 8.49775 5.34262 8.41014 5.46838 8.36642C5.55216 8.34131 5.63937 8.32968 5.72678 8.33196C6.26645 8.32899 6.80614 8.33046 7.34582 8.33046Z" fill="#9A9A9A"/>
<path d="M7.3448 10.5963C7.89076 10.5963 8.43673 10.5946 8.98268 10.5969C9.34381 10.5985 9.58697 10.8216 9.59161 11.1484C9.59635 11.4822 9.35126 11.725 8.98394 11.7266C7.89203 11.7313 6.80012 11.7314 5.70818 11.7269C5.38865 11.7258 5.1546 11.5372 5.1059 11.2626C5.08045 11.1316 5.10301 10.9958 5.16943 10.8801C5.23584 10.7644 5.34166 10.6766 5.46746 10.6328C5.55115 10.6075 5.63834 10.5956 5.72575 10.5978C6.26542 10.5948 6.80512 10.5963 7.3448 10.5963Z" fill="#9A9A9A"/>
<path d="M7.34695 13.9923C6.80098 13.9923 6.25497 13.996 5.70904 13.9909C5.36582 13.9877 5.12277 13.7731 5.10131 13.4705C5.07669 13.1235 5.32216 12.8635 5.68864 12.8614C6.36011 12.8576 7.03161 12.8603 7.7031 12.8602C8.12984 12.8602 8.55659 12.8584 8.98331 12.8609C9.34452 12.863 9.58769 13.0857 9.59233 13.4124C9.59707 13.7468 9.35207 13.987 8.98487 13.9908C8.43895 13.9965 7.89293 13.9923 7.34695 13.9923Z" fill="#9A9A9A"/>
<path d="M7.34605 15.1628C7.89202 15.1628 8.43801 15.1608 8.98397 15.1635C9.34472 15.1653 9.58767 15.3897 9.59163 15.7166C9.59567 16.0509 9.34976 16.2921 8.98275 16.2934C7.89082 16.2974 6.79887 16.2974 5.70691 16.2935C5.38845 16.2926 5.15369 16.1032 5.10571 15.8283C5.08048 15.6973 5.10332 15.5615 5.17001 15.446C5.23671 15.3305 5.34278 15.243 5.46872 15.1996C5.55865 15.1734 5.65215 15.1614 5.74579 15.1643C6.27919 15.1611 6.81263 15.1628 7.34605 15.1628Z" fill="#9A9A9A"/>
<path d="M7.34525 6.06699C7.8912 6.06699 8.43716 6.06542 8.98311 6.06755C9.34388 6.06895 9.58752 6.29204 9.59215 6.61868C9.59678 6.94553 9.35829 7.19375 9.00338 7.19592C7.89897 7.20269 6.79452 7.20271 5.69005 7.19601C5.33497 7.19389 5.09578 6.94652 5.09966 6.62023C5.10353 6.29389 5.34775 6.06905 5.70738 6.06758C6.25333 6.06534 6.79929 6.06699 7.34525 6.06699Z" fill="#9A9A9A"/>
<path d="M12.6108 6.067C13.1568 6.06699 13.7027 6.06544 14.2487 6.06753C14.61 6.06891 14.8546 6.29106 14.8603 6.61662C14.866 6.94233 14.6265 7.19347 14.2731 7.19574C13.1686 7.20282 12.0642 7.20296 10.9597 7.19617C10.6037 7.19415 10.3642 6.94873 10.3672 6.62238C10.3702 6.29614 10.6151 6.06908 10.9729 6.0676C11.5189 6.06533 12.0648 6.067 12.6108 6.067Z" fill="#9A9A9A"/>
<path d="M12.6108 8.3305C13.1505 8.33048 13.6902 8.32948 14.2298 8.33083C14.6073 8.33177 14.8545 8.54879 14.8603 8.88021C14.8662 9.21949 14.6153 9.46007 14.2355 9.46132C13.1499 9.46489 12.0642 9.46486 10.9786 9.46122C10.6844 9.46034 10.4774 9.31444 10.3948 9.07147C10.3198 8.8508 10.3784 8.59535 10.5745 8.46419C10.6935 8.38653 10.8312 8.34238 10.973 8.33636C11.5186 8.32229 12.0648 8.33052 12.6108 8.3305Z" fill="#9A9A9A"/>
<path d="M11.7396 10.5969C12.0027 10.5968 12.2659 10.5938 12.529 10.5976C12.8678 10.6024 13.1145 10.8376 13.1185 11.1532C13.1192 11.2275 13.1053 11.3012 13.0776 11.37C13.0498 11.4389 13.0088 11.5016 12.9568 11.5546C12.9048 11.6075 12.8429 11.6497 12.7747 11.6786C12.7064 11.7076 12.6331 11.7227 12.559 11.7232C12.0143 11.7367 11.4693 11.7367 10.9241 11.7233C10.8483 11.724 10.7733 11.709 10.7036 11.6794C10.6339 11.6498 10.571 11.6061 10.5188 11.551C10.4667 11.496 10.4264 11.4308 10.4005 11.3595C10.3746 11.2881 10.3636 11.2122 10.3682 11.1365C10.3784 10.826 10.6167 10.6025 10.9502 10.5977C11.2133 10.5938 11.4765 10.5969 11.7396 10.5969Z" fill="#9A9A9A"/>
</g>
<defs>
<clipPath id="clip0_20065_92241">
<rect width="18.48" height="19.32" fill="white" transform="translate(2.75977 2.33984)"/>
</clipPath>
</defs>
</svg>
