<svg width="24" height="24" viewBox="0 0 24 24" fill="none" xmlns="http://www.w3.org/2000/svg">
<path d="M7.23163 8.61763C5.26389 9.06285 4.28002 9.28546 4.04594 10.0382C3.81186 10.7909 4.4826 11.5753 5.82408 13.1439L6.17114 13.5498C6.55234 13.9955 6.74294 14.2184 6.82869 14.4942C6.91444 14.7699 6.88562 15.0673 6.82798 15.6621L6.77552 16.2035C6.5727 18.2965 6.47129 19.343 7.08412 19.8082C7.69694 20.2734 8.61814 19.8492 10.4606 19.001L10.9372 18.7815C11.4607 18.5404 11.7225 18.4199 12 18.4199C12.2775 18.4199 12.5393 18.5404 13.0628 18.7815L13.5394 19.001C15.3818 19.8492 16.303 20.2734 16.9159 19.8082C17.5287 19.343 17.4273 18.2965 17.2245 16.2035M18.1759 13.1439C19.5174 11.5753 20.1881 10.7909 19.9541 10.0382C19.72 9.28546 18.7361 9.06285 16.7684 8.61763L16.2593 8.50245C15.7001 8.37593 15.4205 8.31267 15.1961 8.14225C14.9715 7.97184 14.8276 7.71355 14.5396 7.19699L14.2774 6.7267C13.2642 4.9089 12.7575 4 12 4C11.2425 4 10.7358 4.90891 9.72252 6.72671" stroke="#5A5E66" stroke-width="1.2" stroke-linecap="round"/>
</svg>
