<svg width="24" height="24" viewBox="0 0 24 24" fill="none" xmlns="http://www.w3.org/2000/svg">
<path d="M19.6078 13.6042C19.6078 15.1872 19.1384 16.7347 18.2589 18.051C17.3794 19.3673 16.1293 20.3932 14.6667 20.999C13.2042 21.6048 11.5948 21.7633 10.0422 21.4544C8.48954 21.1456 7.06335 20.3833 5.94396 19.2639C4.82456 18.1445 4.06225 16.7183 3.75341 15.1657C3.44457 13.613 3.60308 12.0037 4.20889 10.5411C4.8147 9.07857 5.8406 7.8285 7.15687 6.949C8.47313 6.0695 10.0206 5.60007 11.6037 5.60007L20.675 5.60007M20.675 5.60007L17.4734 2.39844M20.675 5.60007L17.4734 8.80171" stroke="white" stroke-width="1.44" stroke-linecap="round" stroke-linejoin="round"/>
</svg>
