<svg width="24" height="24" viewBox="0 0 24 24" fill="none" xmlns="http://www.w3.org/2000/svg">
<g clip-path="url(#clip0_20065_92305)">
<path d="M18.3904 14.0055C17.9604 13.7555 17.7704 13.4055 17.7704 12.9055V11.7955C17.7704 11.1255 17.7704 10.8555 17.7704 9.65555C17.7504 7.29555 16.1904 5.19555 13.9004 4.42555C13.6504 4.34555 13.3904 4.27555 13.1604 4.22555C13.0404 4.19555 12.9204 4.16555 12.7904 4.13555L12.6104 4.08555V3.90555C12.6104 3.83555 12.6104 3.77555 12.6104 3.70555C12.6104 3.55555 12.6104 3.39555 12.6104 3.22555C12.6404 2.80555 12.4904 2.56555 12.1204 2.43555H11.8604C11.4904 2.56555 11.3404 2.81555 11.3704 3.22555C11.3804 3.38555 11.3704 3.55555 11.3704 3.68555V3.70555C11.3704 3.76555 11.3704 3.82555 11.3704 3.88555V4.06555L11.2004 4.11555C11.0504 4.15555 10.9004 4.19555 10.7604 4.23555H10.7504C10.4104 4.33555 10.1304 4.40555 9.85038 4.51555C7.66038 5.37555 6.24038 7.43555 6.23038 9.75555C6.23038 11.0055 6.23038 11.2355 6.23038 11.9455V12.9555C6.23038 13.4155 6.04038 13.7455 5.65038 13.9655C4.75038 14.4855 4.32038 15.5055 4.60038 16.5155C4.86038 17.4855 5.80038 18.1855 6.82038 18.1855C10.2604 18.1855 13.7504 18.1855 17.1804 18.1855C18.2104 18.1855 19.1204 17.5055 19.4004 16.5255C19.6804 15.5355 19.2704 14.4955 18.3904 13.9855V14.0055ZM18.2104 16.2055C18.0704 16.6955 17.6504 17.0055 17.1204 17.0055C16.2704 17.0055 15.4104 17.0055 14.5604 17.0055H9.44038C8.59038 17.0055 7.74038 17.0055 6.89038 17.0055C6.42038 17.0055 6.07038 16.7955 5.87038 16.3855C5.68038 16.0055 5.73038 15.6155 6.00038 15.2655C6.09038 15.1555 6.21038 15.0555 6.35038 14.9755C7.09038 14.5555 7.47038 13.8955 7.48038 13.0055C7.48038 11.9755 7.48038 11.6355 7.48038 11.1555V10.8555C7.48038 10.5955 7.48038 10.2755 7.48038 9.80555C7.48038 7.59555 8.98038 5.81555 11.2104 5.38555C12.3604 5.16555 13.5904 5.42555 14.5904 6.10555C15.5804 6.77555 16.2404 7.75555 16.4504 8.86555C16.5104 9.17555 16.5404 9.49555 16.5404 9.82555V9.88555C16.5404 10.8255 16.5404 11.6755 16.5404 12.4355V12.9055C16.5404 13.8655 16.9204 14.5555 17.7104 14.9955C18.1504 15.2455 18.3604 15.7155 18.2204 16.1955L18.2104 16.2055Z" fill="#9A9A9A"/>
<path d="M13.9599 21.5052C14.2199 21.3852 14.3699 21.1152 14.3199 20.8652C14.2699 20.5752 14.0299 20.3652 13.7499 20.3652C12.5899 20.3652 11.3999 20.3652 10.2299 20.3652C9.94995 20.3652 9.70995 20.5752 9.65995 20.8652C9.60995 21.1252 9.75995 21.3952 10.0199 21.5052H10.0299C10.0299 21.5052 10.0899 21.5352 10.1099 21.5452H10.1399L13.8199 21.5552H13.8399C13.8399 21.5552 13.9099 21.5152 13.9499 21.4952L13.9599 21.5052Z" fill="#9A9A9A"/>
</g>
<defs>
<clipPath id="clip0_20065_92305">
<rect width="14.98" height="19.13" fill="white" transform="translate(4.50977 2.43555)"/>
</clipPath>
</defs>
</svg>
