<svg width="24" height="24" viewBox="0 0 24 24" fill="none" xmlns="http://www.w3.org/2000/svg">
<path d="M6.23836 20.6212C5.95056 20.6206 5.66785 20.5452 5.41805 20.4023C4.85555 20.0835 4.50586 19.4648 4.50586 18.7931V5.1993C4.50586 4.52571 4.85555 3.90883 5.41805 3.59008C5.6738 3.4431 5.96434 3.36751 6.25929 3.37122C6.55425 3.37493 6.84279 3.45781 7.09477 3.61118L18.7127 10.5656C18.9549 10.7174 19.1545 10.9282 19.2928 11.1783C19.4312 11.4283 19.5038 11.7094 19.5038 11.9952C19.5038 12.281 19.4312 12.5621 19.2928 12.8122C19.1545 13.0623 18.9549 13.2731 18.7127 13.4249L7.09289 20.3812C6.83503 20.5371 6.53968 20.62 6.23836 20.6212Z" fill="white"/>
</svg>
