<svg width="24" height="24" viewBox="0 0 24 24" fill="none" xmlns="http://www.w3.org/2000/svg">
<path d="M11.921 16.8627C11.4748 16.8627 11.1109 16.4987 11.1109 16.0525V6.19341C11.1109 5.7472 11.4748 5.38325 11.921 5.38325C12.3673 5.38325 12.7312 5.7472 12.7312 6.19341V16.055C12.7312 16.5012 12.3673 16.8651 11.921 16.8651V16.8627Z" fill="#5A5E66"/>
<path d="M16.5526 16.8658C16.1064 16.8658 15.7425 16.5018 15.7425 16.0556V9.71639C15.7425 9.27018 16.1064 8.90623 16.5526 8.90623C16.9988 8.90623 17.3628 9.27018 17.3628 9.71639V16.0556C17.3628 16.5018 16.9988 16.8658 16.5526 16.8658Z" fill="#5A5E66"/>
<path d="M7.28944 16.8635C6.84323 16.8635 6.47928 16.4996 6.47928 16.0534V11.6386C6.47928 11.1924 6.84323 10.8284 7.28944 10.8284C7.73566 10.8284 8.09961 11.1924 8.09961 11.6386V16.0534C8.09961 16.4996 7.73566 16.8635 7.28944 16.8635Z" fill="#5A5E66"/>
<path d="M11.921 22.3435C3.24602 22.3435 1 20.1498 1 11.6717C1 3.19368 3.24602 1 11.921 1C20.596 1 22.842 3.19368 22.842 11.6717C22.842 20.1498 20.596 22.3435 11.921 22.3435ZM11.921 2.62282C4.18581 2.62282 2.62033 4.14593 2.62033 11.6742C2.62033 19.2025 4.18581 20.7256 11.921 20.7256C19.6562 20.7256 21.2217 19.2025 21.2217 11.6742C21.2217 4.14593 19.6562 2.62282 11.921 2.62282Z" fill="#5A5E66"/>
</svg>
