<svg width="24" height="24" viewBox="0 0 24 24" fill="none" xmlns="http://www.w3.org/2000/svg">
<path d="M4.6 8.50051V7.80051C4.6 6.50051 4.9 5.30051 5.7 4.40051C6.5 3.50051 7.7 3.00051 9.2 3.10051H14.8C16.3 3.10051 17.5 3.50051 18.3 4.40051C19.1 5.30051 19.4 6.50051 19.4 7.80051V16.2005C19.4 17.6005 19.1 18.8005 18.3 19.7005C17.5 20.5005 16.3 21.0005 14.8 21.0005H9.2C7.7 21.0005 6.5 20.6005 5.7 19.7005C4.9 18.8005 4.6 17.5005 4.6 16.2005V15.5005M11.5 12.0005H2.5M11.5 12.0005L9 9.50051M11.5 12.0005L9 14.7005" stroke="white" stroke-width="1.35" stroke-linecap="round" stroke-linejoin="round"/>
</svg>
