<svg width="24" height="24" viewBox="0 0 24 24" fill="none" xmlns="http://www.w3.org/2000/svg">
<path d="M6.98958 10.3307V8.66406C6.98958 5.90264 9.22816 3.66406 11.9896 3.66406C14.751 3.66406 16.9896 5.90264 16.9896 8.66406V10.3307M3.65625 15.3307C3.65625 12.9737 3.65625 11.7952 4.38848 11.063C5.12072 10.3307 6.29922 10.3307 8.65625 10.3307H15.3229C17.6799 10.3307 18.8584 10.3307 19.5907 11.063C20.3229 11.7952 20.3229 12.9737 20.3229 15.3307C20.3229 17.6877 20.3229 18.8662 19.5907 19.5985C18.8584 20.3307 17.6799 20.3307 15.3229 20.3307H8.65625C6.29922 20.3307 5.12072 20.3307 4.38848 19.5985C3.65625 18.8662 3.65625 17.6877 3.65625 15.3307ZM13.9985 15.9949C13.9985 17.0993 13.1032 17.9946 11.9988 17.9946C10.8944 17.9946 9.99906 17.0993 9.99906 15.9949C9.99906 14.8905 10.8944 13.9952 11.9988 13.9952C13.1032 13.9952 13.9985 14.8905 13.9985 15.9949Z" stroke="#494949" stroke-width="1.36364" stroke-linecap="round"/>
</svg>
