<svg width="24" height="24" viewBox="0 0 24 24" fill="none" xmlns="http://www.w3.org/2000/svg">
<path d="M4 11.9996C4 8.98262 4 7.47413 4.93726 6.53687C5.87452 5.59961 7.38301 5.59961 10.4 5.59961H13.6C16.617 5.59961 18.1255 5.59961 19.0627 6.53687C20 7.47413 20 8.98262 20 11.9996C20 15.0166 20 16.5251 19.0627 17.4624C18.1255 18.3996 16.617 18.3996 13.6 18.3996H10.4C7.38301 18.3996 5.87452 18.3996 4.93726 17.4624C4 16.5251 4 15.0166 4 11.9996Z" stroke="#494949" stroke-width="1.5"/>
<path d="M9.6 11.9992C9.6 12.441 9.24183 12.7992 8.8 12.7992C8.35817 12.7992 8 12.441 8 11.9992C8 11.5574 8.35817 11.1992 8.8 11.1992C9.24183 11.1992 9.6 11.5574 9.6 11.9992Z" fill="#494949"/>
<path d="M12.7992 11.9992C12.7992 12.441 12.441 12.7992 11.9992 12.7992C11.5574 12.7992 11.1992 12.441 11.1992 11.9992C11.1992 11.5574 11.5574 11.1992 11.9992 11.1992C12.441 11.1992 12.7992 11.5574 12.7992 11.9992Z" fill="#494949"/>
<path d="M16.0004 11.9992C16.0004 12.441 15.6422 12.7992 15.2004 12.7992C14.7586 12.7992 14.4004 12.441 14.4004 11.9992C14.4004 11.5574 14.7586 11.1992 15.2004 11.1992C15.6422 11.1992 16.0004 11.5574 16.0004 11.9992Z" fill="#494949"/>
</svg>
