<svg width="24" height="24" viewBox="0 0 24 24" fill="none" xmlns="http://www.w3.org/2000/svg">
<path d="M7.97619 0L11.6085 7.11031L11.7473 11.2463L9.36458 7.86274L7.97619 0Z" fill="url(#paint0_angular_20024_27836)"/>
<path d="M16.0238 24L12.3915 16.8897L12.2527 12.7537L14.6354 16.1373L16.0238 24Z" fill="url(#paint1_angular_20024_27836)"/>
<path d="M0 16.0238L7.11031 12.3915L11.2463 12.2527L7.86274 14.6354L0 16.0238Z" fill="url(#paint2_angular_20024_27836)"/>
<path d="M24 7.97619L16.8897 11.6085L12.7537 11.7473L16.1373 9.36458L24 7.97619Z" fill="url(#paint3_angular_20024_27836)"/>
<path d="M0.70366 6.2912L8.28476 8.79665L11.2902 11.6415L7.21724 10.909L0.70366 6.2912Z" fill="url(#paint4_angular_20024_27836)"/>
<path d="M23.2963 17.7088L15.7152 15.2034L12.7098 12.3585L16.7828 13.0911L23.2963 17.7088Z" fill="url(#paint5_angular_20024_27836)"/>
<path d="M6.29182 23.2961L8.79727 15.715L11.6421 12.7096L10.9096 16.7826L6.29182 23.2961Z" fill="url(#paint6_angular_20024_27836)"/>
<path d="M17.7082 0.703867L15.2027 8.28497L12.3579 11.2904L13.0904 7.21745L17.7082 0.703867Z" fill="url(#paint7_angular_20024_27836)"/>
<defs>
<radialGradient id="paint0_angular_20024_27836" cx="0" cy="0" r="1" gradientUnits="userSpaceOnUse" gradientTransform="translate(12 12) rotate(-90) scale(12)">
<stop stop-color="#1D46EB"/>
<stop offset="1" stop-color="#1D46EB" stop-opacity="0"/>
</radialGradient>
<radialGradient id="paint1_angular_20024_27836" cx="0" cy="0" r="1" gradientUnits="userSpaceOnUse" gradientTransform="translate(12 12) rotate(-90) scale(12)">
<stop stop-color="#1D46EB"/>
<stop offset="1" stop-color="#1D46EB" stop-opacity="0"/>
</radialGradient>
<radialGradient id="paint2_angular_20024_27836" cx="0" cy="0" r="1" gradientUnits="userSpaceOnUse" gradientTransform="translate(12 12) rotate(-90) scale(12)">
<stop stop-color="#1D46EB"/>
<stop offset="1" stop-color="#1D46EB" stop-opacity="0"/>
</radialGradient>
<radialGradient id="paint3_angular_20024_27836" cx="0" cy="0" r="1" gradientUnits="userSpaceOnUse" gradientTransform="translate(12 12) rotate(-90) scale(12)">
<stop stop-color="#1D46EB"/>
<stop offset="1" stop-color="#1D46EB" stop-opacity="0"/>
</radialGradient>
<radialGradient id="paint4_angular_20024_27836" cx="0" cy="0" r="1" gradientUnits="userSpaceOnUse" gradientTransform="translate(12 12) rotate(-90) scale(12)">
<stop stop-color="#1D46EB"/>
<stop offset="1" stop-color="#1D46EB" stop-opacity="0"/>
</radialGradient>
<radialGradient id="paint5_angular_20024_27836" cx="0" cy="0" r="1" gradientUnits="userSpaceOnUse" gradientTransform="translate(12 12) rotate(-90) scale(12)">
<stop stop-color="#1D46EB"/>
<stop offset="1" stop-color="#1D46EB" stop-opacity="0"/>
</radialGradient>
<radialGradient id="paint6_angular_20024_27836" cx="0" cy="0" r="1" gradientUnits="userSpaceOnUse" gradientTransform="translate(12 12) rotate(-90) scale(12)">
<stop stop-color="#1D46EB"/>
<stop offset="1" stop-color="#1D46EB" stop-opacity="0"/>
</radialGradient>
<radialGradient id="paint7_angular_20024_27836" cx="0" cy="0" r="1" gradientUnits="userSpaceOnUse" gradientTransform="translate(12 12) rotate(-90) scale(12)">
<stop stop-color="#1D46EB"/>
<stop offset="1" stop-color="#1D46EB" stop-opacity="0"/>
</radialGradient>
</defs>
</svg>
