<svg width="48" height="48" viewBox="0 0 48 48" fill="none" xmlns="http://www.w3.org/2000/svg">
<path d="M24.0622 4.83188H17.1725C16.6081 4.83188 16.1066 4.47094 15.9275 3.93469L15.1156 1.5H26.12L25.3081 3.93469C25.2207 4.19597 25.0534 4.42317 24.8298 4.58417C24.6062 4.74517 24.3377 4.83182 24.0622 4.83188ZM30.2159 40.8612V42.3122C30.2159 43.7184 29.0759 44.8584 27.6697 44.8584H16.4141C15.5084 44.8584 14.7734 45.5934 14.7734 46.4991H27.6697C29.9825 46.4991 31.8566 44.6241 31.8566 42.3122V41.5128L30.2159 40.8612Z" fill="#E1EAF8"/>
<path d="M27.6685 46.828H13.5638C11.0738 46.828 9.04883 44.802 9.04883 42.313V37.0742C9.04883 36.8933 9.19602 36.7461 9.37695 36.7461C9.55789 36.7461 9.70508 36.8933 9.70508 37.0742V42.313C9.70508 44.4411 11.4366 46.1717 13.5638 46.1717H27.6685C29.7966 46.1717 31.5273 44.4402 31.5273 42.313V41.5136C31.5273 41.3327 31.6745 41.1855 31.8554 41.1855C32.0363 41.1855 32.1835 41.3327 32.1835 41.5136V42.313C32.1835 44.802 30.1585 46.828 27.6685 46.828Z" fill="#9A9A9A"/>
<path d="M31.5273 5.68687V19.8144C31.5273 19.9953 31.6745 20.1425 31.8554 20.1425C32.0363 20.1425 32.1835 19.9953 32.1835 19.8144V5.68687C32.1835 3.19687 30.1576 1.17188 27.6685 1.17188H13.5638C11.0738 1.17188 9.04883 3.19781 9.04883 5.68687V34.5225C9.04883 34.7034 9.19602 34.8506 9.37695 34.8506C9.55789 34.8506 9.70508 34.7034 9.70508 34.5225V5.68687C9.70508 3.55875 11.4366 1.82812 13.5638 1.82812H27.6685C29.7966 1.82812 31.5273 3.55969 31.5273 5.68687Z" fill="#9A9A9A"/>
<path d="M21.788 26.8388C21.7392 26.8388 21.6895 26.8276 21.6427 26.8051L19.4545 25.7204C19.3782 25.6808 19.3204 25.6129 19.2936 25.5311C19.2669 25.4493 19.2733 25.3603 19.3115 25.2833C19.3497 25.2062 19.4167 25.1472 19.498 25.119C19.5793 25.0909 19.6684 25.0957 19.7461 25.1326L21.9333 26.2163C22.0112 26.255 22.0706 26.3231 22.0984 26.4055C22.1262 26.488 22.1201 26.5781 22.0814 26.656C22.0544 26.7109 22.0127 26.757 21.9608 26.7893C21.9089 26.8216 21.8491 26.8388 21.788 26.8388ZM19.732 35.3438C19.6111 35.3438 19.4939 35.2763 19.4367 35.1601C19.3985 35.082 19.3928 34.992 19.421 34.9097C19.4491 34.8274 19.5087 34.7597 19.5867 34.7213L21.7795 33.647C21.8576 33.6088 21.9477 33.6031 22.03 33.6312C22.1122 33.6593 22.18 33.7189 22.2183 33.797C22.2565 33.8751 22.2622 33.9651 22.2341 34.0474C22.2059 34.1296 22.1463 34.1974 22.0683 34.2357L19.8764 35.3101C19.8295 35.3335 19.7799 35.3438 19.732 35.3438ZM42.1852 25.3017C42.0717 25.3017 41.9611 25.2426 41.9002 25.1367C41.8787 25.0993 41.8647 25.0581 41.8592 25.0153C41.8536 24.9726 41.8565 24.9292 41.8678 24.8875C41.879 24.8459 41.8983 24.8069 41.9246 24.7728C41.9509 24.7386 41.9837 24.71 42.0211 24.6885L44.137 23.4717C44.2125 23.4291 44.3016 23.418 44.3852 23.4409C44.4687 23.4638 44.5398 23.5188 44.5829 23.5939C44.6261 23.669 44.6379 23.7581 44.6156 23.8418C44.5934 23.9255 44.539 23.997 44.4642 24.0407L42.3483 25.2576C42.2977 25.2876 42.2405 25.3017 42.1852 25.3017ZM35.9311 21.2863C35.8843 21.2865 35.8381 21.2766 35.7955 21.2573C35.7529 21.238 35.7149 21.2099 35.684 21.1747C35.6532 21.1395 35.6303 21.0982 35.6168 21.0534C35.6033 21.0086 35.5995 20.9614 35.6058 20.9151L35.9302 18.4954C35.9545 18.3154 36.1195 18.1888 36.2986 18.2142C36.4786 18.2385 36.6042 18.4035 36.5799 18.5826L36.2555 21.0023C36.2449 21.0808 36.2062 21.1529 36.1465 21.2051C36.0869 21.2573 36.0104 21.2862 35.9311 21.2863Z" fill="#0166FF"/>
<path d="M31.4709 37.94C32.6757 37.94 33.8364 37.6566 34.8781 37.1211L35.3473 37.5904C35.5246 37.7677 35.7568 37.8559 35.9896 37.8559C36.2225 37.8559 36.4546 37.7677 36.6319 37.5904L38.3893 35.833L42.181 39.6246C42.6096 40.0533 42.6096 40.7511 42.181 41.1804C41.973 41.3884 41.6968 41.5023 41.4034 41.5023C41.11 41.5023 40.8337 41.3876 40.6258 41.1804L37.5134 38.0681C37.4159 37.9706 37.2585 37.9706 37.161 38.0681C37.0634 38.1657 37.0634 38.323 37.161 38.4206L40.2726 41.5322C40.5746 41.8341 40.9762 42 41.4027 42C41.8299 42 42.2308 41.8341 42.5327 41.5315C43.1558 40.9084 43.1558 39.8945 42.5327 39.2715L38.7261 35.4649C38.9518 35.1139 38.9112 34.6397 38.6043 34.3328L38.1308 33.8593C38.6598 32.8226 38.9404 31.6676 38.9404 30.47C38.9404 28.4749 38.1635 26.5993 36.7522 25.1881C35.3416 23.7775 33.4654 23 31.4702 23C29.475 23 27.5994 23.7768 26.1882 25.1881C24.7776 26.5986 24 28.4749 24 30.47C24 32.4651 24.7769 34.3406 26.1882 35.7519C27.5994 37.1624 29.4757 37.94 31.4709 37.94ZM38.2518 34.6852C38.3284 34.7621 38.3714 34.8662 38.3714 34.9747C38.3714 35.0832 38.3284 35.1873 38.2518 35.2641L36.2787 37.2372C36.2019 37.3138 36.0978 37.3568 35.9893 37.3568C35.8808 37.3568 35.7767 37.3138 35.6998 37.2372L35.3303 36.8676C35.8415 36.5579 36.3193 36.1848 36.7522 35.7512C37.1901 35.3133 37.5675 34.8298 37.8787 34.3121L38.2518 34.6852ZM26.5413 25.5405C27.8579 24.224 29.6089 23.4984 31.4709 23.4984C33.3329 23.4984 35.0839 24.2233 36.4005 25.5405C37.7171 26.8571 38.4427 28.608 38.4427 30.47C38.4427 32.332 37.7178 34.0829 36.4005 35.3994C35.0839 36.716 33.3329 37.4415 31.4709 37.4415C29.6089 37.4415 27.8579 36.7167 26.5413 35.3994C25.2247 34.0829 24.4992 32.332 24.4992 30.47C24.4992 28.608 25.2247 26.8578 26.5413 25.5405Z" fill="#9A9A9A"/>
<path d="M27.4004 9H14.9382C14.4207 9 14.0007 9.42 14.0007 9.9375V17.6044C14.0007 18.1219 14.4207 18.5419 14.9382 18.5419H17.2482H27.4004C27.9179 18.5419 28.3379 18.1219 28.3379 17.6044V9.9375C28.3379 9.42 27.9179 9 27.4004 9Z" fill="#0166FF"/>
<path d="M17.1735 11.0469H25.1648C25.3457 11.0469 25.4929 11.1941 25.4929 11.375C25.4929 11.5559 25.3457 11.7031 25.1648 11.7031H17.1735C16.9926 11.7031 16.8454 11.5559 16.8454 11.375C16.8454 11.1941 16.9926 11.0469 17.1735 11.0469Z" fill="white"/>
<path d="M25.1648 16.2416H17.1735C16.9916 16.2416 16.8454 16.0944 16.8454 15.9134C16.8454 15.7325 16.9926 15.5853 17.1735 15.5853H25.1648C25.3457 15.5853 25.4929 15.7325 25.4929 15.9134C25.4929 16.0944 25.3457 16.2416 25.1648 16.2416Z" fill="white"/>
<path d="M26.1191 13.9728H16.2191C16.0373 13.9728 15.891 13.8256 15.891 13.6447C15.891 13.4638 16.0382 13.3166 16.2191 13.3166H26.1191C26.3001 13.3166 26.4473 13.4638 26.4473 13.6447C26.4473 13.8256 26.3001 13.9728 26.1191 13.9728Z" fill="white"/>
<path d="M35.389 26.611C33.241 24.463 29.759 24.463 27.611 26.611C25.463 28.759 25.463 32.241 27.611 34.389C29.759 36.537 33.241 36.537 35.389 34.389C37.537 32.241 37.537 28.7583 35.389 26.611ZM34.9577 27.3722C34.936 27.3938 34.9103 27.4109 34.882 27.4226C34.8537 27.4343 34.8234 27.4403 34.7928 27.4403C34.7327 27.4403 34.6732 27.4176 34.6272 27.3715C33.9081 26.6524 32.9559 26.2004 31.9464 26.0989C31.9158 26.0958 31.8862 26.0868 31.8592 26.0723C31.8321 26.0578 31.8082 26.0381 31.7888 26.0144C31.7694 25.9906 31.7549 25.9633 31.746 25.9339C31.7372 25.9045 31.7343 25.8737 31.7374 25.8431C31.7404 25.8126 31.7494 25.783 31.7639 25.7559C31.7784 25.7289 31.7981 25.705 31.8219 25.6856C31.8456 25.6662 31.873 25.6516 31.9024 25.6428C31.9317 25.634 31.9626 25.631 31.9931 25.6341C33.1095 25.747 34.1624 26.2464 34.9577 27.0417C34.9794 27.0633 34.9967 27.0891 35.0084 27.1174C35.0202 27.1458 35.0263 27.1762 35.0263 27.2069C35.0263 27.2376 35.0202 27.268 35.0084 27.2964C34.9967 27.3247 34.9794 27.3505 34.9577 27.3722ZM35.7896 28.6695C35.7569 28.6855 35.7215 28.6929 35.6875 28.6929C35.6007 28.6929 35.5179 28.6448 35.4771 28.5613C35.4071 28.4177 35.3293 28.2779 35.2441 28.1427C35.1753 28.0339 35.2081 27.889 35.3169 27.8202C35.4257 27.7514 35.5706 27.7841 35.6394 27.893C35.7335 28.0419 35.8203 28.1981 35.8971 28.3557C35.9539 28.4732 35.9058 28.6127 35.7896 28.6695Z" fill="#E1EAF8"/>
</svg>
