<svg width="148" height="148" viewBox="0 0 148 148" fill="none" xmlns="http://www.w3.org/2000/svg">
<rect width="148" height="148" rx="74" fill="#0166FF"/>
<path d="M74.1843 15.0157L74.1722 14.9629L74.1722 15.0685L65.8363 51.464L74.1724 69.4751V69.5269L74.1843 69.501L74.1963 69.5269V69.4751L82.5324 51.464L74.1964 15.0685V14.9629L74.1843 15.0157Z" fill="white"/>
<path d="M73.8372 132.889L73.8493 132.942L73.8493 132.836L82.1853 96.4409L73.8492 78.4298V78.378L73.8372 78.4039L73.8253 78.378L73.8253 78.4298L65.4892 96.4409L73.8251 132.836V132.942L73.8372 132.889Z" fill="white"/>
<path d="M124.47 43.2565L124.515 43.2111L124.409 43.2773L89.0884 55.3385L78.1653 71.8982L78.1182 71.9273L78.1485 71.9237L78.1289 71.9534L78.1838 71.9194L97.8774 69.5297L124.427 43.2985L124.526 43.2372L124.47 43.2565Z" fill="white"/>
<path d="M23.5175 104.646L23.4716 104.692L23.5786 104.626L58.8987 92.5644L69.8218 76.0047L69.8689 75.9756L69.8386 75.9792L69.8582 75.9495L69.8033 75.9835L50.1097 78.3732L23.5601 104.604L23.4609 104.666L23.5175 104.646Z" fill="white"/>
<path d="M23.6531 43.0643L23.5967 43.0448L23.6954 43.1064L50.1461 69.4453L69.8332 71.9124L69.8812 71.9424L69.8642 71.9163L69.8958 71.9202L69.8467 71.8896L58.9869 55.2848L23.7089 43.0836L23.6113 43.0227L23.6531 43.0643Z" fill="white"/>
<path d="M124.356 104.844L124.412 104.864L124.314 104.802L97.8629 78.463L78.1758 75.996L78.1277 75.966L78.1448 75.9921L78.1132 75.9881L78.1623 76.0188L89.0221 92.6236L124.3 104.825L124.398 104.886L124.356 104.844Z" fill="white"/>
</svg>
