<svg width="50" height="50" viewBox="0 0 50 50" fill="none" xmlns="http://www.w3.org/2000/svg">
<g clip-path="url(#clip0_53063_157115)">
<path d="M4.41113 35.6494C-1.47038 29.7679 -1.47038 20.2321 4.41113 14.3506L14.3506 4.41113C20.2321 -1.47038 29.7679 -1.47038 35.6494 4.41113L45.5889 14.3506C51.4704 20.2321 51.4704 29.7679 45.5889 35.6494L35.6494 45.5889C29.7679 51.4704 20.2321 51.4704 14.3506 45.5889L4.41113 35.6494Z" fill="#0166FF"/>
<path d="M24.7995 9.01484L24.7961 9V9.02969L22.5281 18.9007L24.7961 23.7856V23.8002L24.7995 23.7929L24.8029 23.8002V23.7856L27.0709 18.9007L24.8029 9.02969V9L24.7995 9.01484Z" fill="white"/>
<path d="M24.7057 40.9852L24.7091 41V40.9703L26.9771 31.0993L24.7091 26.2144V26.1998L24.7057 26.2071L24.7023 26.1998V26.2144L22.4343 31.0993L24.7023 40.9703V41L24.7057 40.9852Z" fill="white"/>
<path d="M38.4829 16.6748L38.4964 16.6615L38.4648 16.681L28.8574 19.9514L25.8861 24.4417L25.8717 24.4506L25.881 24.4495L25.8753 24.4581L25.8913 24.4483L31.2482 23.8003L38.47 16.6875L38.5 16.669L38.4829 16.6748Z" fill="white"/>
<path d="M11.0164 33.3258L11.0036 33.3383L11.0333 33.32L20.6426 30.0489L23.6144 25.5578L23.6283 25.5492L23.6194 25.5503L23.6247 25.5422L23.6098 25.5515L18.2518 26.1995L11.0287 33.3137L11 33.3313L11.0164 33.3258Z" fill="white"/>
<path d="M11.0478 16.6218L11.0339 16.617L11.0582 16.6321L18.2577 23.7786L23.6163 24.448L23.628 24.4553L23.6238 24.4489L23.6316 24.4499L23.6195 24.4424L20.6636 19.937L11.0614 16.6265L11.0376 16.6116L11.0478 16.6218Z" fill="white"/>
<path d="M38.4532 33.38L38.4675 33.3849L38.4426 33.3694L31.2434 26.2232L25.8852 25.5539L25.8734 25.5466L25.8776 25.5529L25.8695 25.5519L25.8821 25.5597L28.8378 30.0649L38.4394 33.3752L38.4636 33.3902L38.4532 33.38Z" fill="white"/>
</g>
<defs>
<clipPath id="clip0_53063_157115">
<rect width="50" height="50" fill="white"/>
</clipPath>
</defs>
</svg>
